solid OpenSCAD_Model
  facet normal 0.998027 0.062791 0
    outer loop
      vertex 10 0 30
      vertex 9.92115 1.25333 0
      vertex 9.92115 1.25333 30
    endloop
  endfacet
  facet normal 0.998027 0.062791 0
    outer loop
      vertex 9.92115 1.25333 0
      vertex 10 0 30
      vertex 10 0 0
    endloop
  endfacet
  facet normal -0.998027 0.062791 0
    outer loop
      vertex -10 0 0
      vertex -9.92115 1.25333 30
      vertex -9.92115 1.25333 0
    endloop
  endfacet
  facet normal -0.998027 0.062791 0
    outer loop
      vertex -9.92115 1.25333 30
      vertex -10 0 0
      vertex -10 0 30
    endloop
  endfacet
  facet normal 0 1 -0
    outer loop
      vertex 0.627905 9.98027 0
      vertex -0.627905 9.98027 30
      vertex 0.627905 9.98027 30
    endloop
  endfacet
  facet normal 0 1 0
    outer loop
      vertex -0.627905 9.98027 30
      vertex 0.627905 9.98027 0
      vertex -0.627905 9.98027 0
    endloop
  endfacet
  facet normal 0 -1 0
    outer loop
      vertex -0.627905 -9.98027 0
      vertex 0.627905 -9.98027 30
      vertex -0.627905 -9.98027 30
    endloop
  endfacet
  facet normal 0 -1 -0
    outer loop
      vertex 0.627905 -9.98027 30
      vertex -0.627905 -9.98027 0
      vertex 0.627905 -9.98027 0
    endloop
  endfacet
  facet normal 0.684547 0.728969 -0
    outer loop
      vertex 7.28969 6.84547 0
      vertex 6.37424 7.70513 30
      vertex 7.28969 6.84547 30
    endloop
  endfacet
  facet normal 0.684547 0.728969 0
    outer loop
      vertex 6.37424 7.70513 30
      vertex 7.28969 6.84547 0
      vertex 6.37424 7.70513 0
    endloop
  endfacet
  facet normal -0.684547 0.728969 0
    outer loop
      vertex -6.37424 7.70513 0
      vertex -7.28969 6.84547 30
      vertex -6.37424 7.70513 30
    endloop
  endfacet
  facet normal -0.684547 0.728969 0
    outer loop
      vertex -7.28969 6.84547 30
      vertex -6.37424 7.70513 0
      vertex -7.28969 6.84547 0
    endloop
  endfacet
  facet normal -0.368125 0.929776 0
    outer loop
      vertex -3.09017 9.51056 0
      vertex -4.25779 9.04827 30
      vertex -3.09017 9.51056 30
    endloop
  endfacet
  facet normal -0.368125 0.929776 0
    outer loop
      vertex -4.25779 9.04827 30
      vertex -3.09017 9.51056 0
      vertex -4.25779 9.04827 0
    endloop
  endfacet
  facet normal 0.904827 0.425779 0
    outer loop
      vertex 9.29776 3.68124 30
      vertex 8.76307 4.81754 0
      vertex 8.76307 4.81754 30
    endloop
  endfacet
  facet normal 0.904827 0.425779 0
    outer loop
      vertex 8.76307 4.81754 0
      vertex 9.29776 3.68124 30
      vertex 9.29776 3.68124 0
    endloop
  endfacet
  facet normal 0.844328 0.535826 0
    outer loop
      vertex 8.76307 4.81754 30
      vertex 8.09017 5.87785 0
      vertex 8.09017 5.87785 30
    endloop
  endfacet
  facet normal 0.844328 0.535826 0
    outer loop
      vertex 8.09017 5.87785 0
      vertex 8.76307 4.81754 30
      vertex 8.76307 4.81754 0
    endloop
  endfacet
  facet normal 0.368125 0.929776 -0
    outer loop
      vertex 4.25779 9.04827 0
      vertex 3.09017 9.51056 30
      vertex 4.25779 9.04827 30
    endloop
  endfacet
  facet normal 0.368125 0.929776 0
    outer loop
      vertex 3.09017 9.51056 30
      vertex 4.25779 9.04827 0
      vertex 3.09017 9.51056 0
    endloop
  endfacet
  facet normal 0.24869 0.968583 -0
    outer loop
      vertex 3.09017 9.51056 0
      vertex 1.87381 9.82287 30
      vertex 3.09017 9.51056 30
    endloop
  endfacet
  facet normal 0.24869 0.968583 0
    outer loop
      vertex 1.87381 9.82287 30
      vertex 3.09017 9.51056 0
      vertex 1.87381 9.82287 0
    endloop
  endfacet
  facet normal 0.481754 0.876307 -0
    outer loop
      vertex 5.35827 8.44328 0
      vertex 4.25779 9.04827 30
      vertex 5.35827 8.44328 30
    endloop
  endfacet
  facet normal 0.481754 0.876307 0
    outer loop
      vertex 4.25779 9.04827 30
      vertex 5.35827 8.44328 0
      vertex 4.25779 9.04827 0
    endloop
  endfacet
  facet normal -0.904827 0.425779 0
    outer loop
      vertex -9.29776 3.68124 0
      vertex -8.76307 4.81754 30
      vertex -8.76307 4.81754 0
    endloop
  endfacet
  facet normal -0.904827 0.425779 0
    outer loop
      vertex -8.76307 4.81754 30
      vertex -9.29776 3.68124 0
      vertex -9.29776 3.68124 30
    endloop
  endfacet
  facet normal -0.770513 0.637424 0
    outer loop
      vertex -8.09017 5.87785 0
      vertex -7.28969 6.84547 30
      vertex -7.28969 6.84547 0
    endloop
  endfacet
  facet normal -0.770513 0.637424 0
    outer loop
      vertex -7.28969 6.84547 30
      vertex -8.09017 5.87785 0
      vertex -8.09017 5.87785 30
    endloop
  endfacet
  facet normal -0.951057 0.309017 0
    outer loop
      vertex -9.68583 2.4869 0
      vertex -9.29776 3.68124 30
      vertex -9.29776 3.68124 0
    endloop
  endfacet
  facet normal -0.951057 0.309017 0
    outer loop
      vertex -9.29776 3.68124 30
      vertex -9.68583 2.4869 0
      vertex -9.68583 2.4869 30
    endloop
  endfacet
  facet normal -0.481754 0.876307 0
    outer loop
      vertex -4.25779 9.04827 0
      vertex -5.35827 8.44328 30
      vertex -4.25779 9.04827 30
    endloop
  endfacet
  facet normal -0.481754 0.876307 0
    outer loop
      vertex -5.35827 8.44328 30
      vertex -4.25779 9.04827 0
      vertex -5.35827 8.44328 0
    endloop
  endfacet
  facet normal -0.125333 0.992115 0
    outer loop
      vertex -0.627905 9.98027 0
      vertex -1.87381 9.82287 30
      vertex -0.627905 9.98027 30
    endloop
  endfacet
  facet normal -0.125333 0.992115 0
    outer loop
      vertex -1.87381 9.82287 30
      vertex -0.627905 9.98027 0
      vertex -1.87381 9.82287 0
    endloop
  endfacet
  facet normal 0.125333 -0.992115 0
    outer loop
      vertex 0.627905 -9.98027 0
      vertex 1.87381 -9.82287 30
      vertex 0.627905 -9.98027 30
    endloop
  endfacet
  facet normal 0.125333 -0.992115 0
    outer loop
      vertex 1.87381 -9.82287 30
      vertex 0.627905 -9.98027 0
      vertex 1.87381 -9.82287 0
    endloop
  endfacet
  facet normal 0.951057 0.309017 0
    outer loop
      vertex 9.68583 2.4869 30
      vertex 9.29776 3.68124 0
      vertex 9.29776 3.68124 30
    endloop
  endfacet
  facet normal 0.951057 0.309017 0
    outer loop
      vertex 9.29776 3.68124 0
      vertex 9.68583 2.4869 30
      vertex 9.68583 2.4869 0
    endloop
  endfacet
  facet normal 0.982287 0.187381 0
    outer loop
      vertex 9.92115 1.25333 30
      vertex 9.68583 2.4869 0
      vertex 9.68583 2.4869 30
    endloop
  endfacet
  facet normal 0.982287 0.187381 0
    outer loop
      vertex 9.68583 2.4869 0
      vertex 9.92115 1.25333 30
      vertex 9.92115 1.25333 0
    endloop
  endfacet
  facet normal 0.770513 0.637424 0
    outer loop
      vertex 8.09017 5.87785 30
      vertex 7.28969 6.84547 0
      vertex 7.28969 6.84547 30
    endloop
  endfacet
  facet normal 0.770513 0.637424 0
    outer loop
      vertex 7.28969 6.84547 0
      vertex 8.09017 5.87785 30
      vertex 8.09017 5.87785 0
    endloop
  endfacet
  facet normal 0.125333 0.992115 -0
    outer loop
      vertex 1.87381 9.82287 0
      vertex 0.627905 9.98027 30
      vertex 1.87381 9.82287 30
    endloop
  endfacet
  facet normal 0.125333 0.992115 0
    outer loop
      vertex 0.627905 9.98027 30
      vertex 1.87381 9.82287 0
      vertex 0.627905 9.98027 0
    endloop
  endfacet
  facet normal 0.587786 0.809017 -0
    outer loop
      vertex 6.37424 7.70513 0
      vertex 5.35827 8.44328 30
      vertex 6.37424 7.70513 30
    endloop
  endfacet
  facet normal 0.587786 0.809017 0
    outer loop
      vertex 5.35827 8.44328 30
      vertex 6.37424 7.70513 0
      vertex 5.35827 8.44328 0
    endloop
  endfacet
  facet normal -0.844328 0.535826 0
    outer loop
      vertex -8.76307 4.81754 0
      vertex -8.09017 5.87785 30
      vertex -8.09017 5.87785 0
    endloop
  endfacet
  facet normal -0.844328 0.535826 0
    outer loop
      vertex -8.09017 5.87785 30
      vertex -8.76307 4.81754 0
      vertex -8.76307 4.81754 30
    endloop
  endfacet
  facet normal -0.982287 0.187381 0
    outer loop
      vertex -9.92115 1.25333 0
      vertex -9.68583 2.4869 30
      vertex -9.68583 2.4869 0
    endloop
  endfacet
  facet normal -0.982287 0.187381 0
    outer loop
      vertex -9.68583 2.4869 30
      vertex -9.92115 1.25333 0
      vertex -9.92115 1.25333 30
    endloop
  endfacet
  facet normal 0 0 1
    outer loop
      vertex 9.75 0 30
      vertex 10 0 30
      vertex 9.92115 1.25333 30
    endloop
  endfacet
  facet normal 0 0 1
    outer loop
      vertex 10 0 30
      vertex 9.75 0 30
      vertex 9.92115 -1.25333 30
    endloop
  endfacet
  facet normal 0 0 1
    outer loop
      vertex 9.67312 1.222 30
      vertex 9.92115 1.25333 30
      vertex 9.68583 2.4869 30
    endloop
  endfacet
  facet normal 0 0 1
    outer loop
      vertex 9.92115 1.25333 30
      vertex 9.67312 1.222 30
      vertex 9.75 0 30
    endloop
  endfacet
  facet normal 0 0 1
    outer loop
      vertex 9.68583 2.4869 30
      vertex 9.44369 2.42473 30
      vertex 9.67312 1.222 30
    endloop
  endfacet
  facet normal 0 0 1
    outer loop
      vertex 9.29776 3.68124 30
      vertex 9.44369 2.42473 30
      vertex 9.68583 2.4869 30
    endloop
  endfacet
  facet normal 0 0 1
    outer loop
      vertex 9.29776 3.68124 30
      vertex 9.06532 3.58921 30
      vertex 9.44369 2.42473 30
    endloop
  endfacet
  facet normal 0 0 1
    outer loop
      vertex 8.76307 4.81754 30
      vertex 9.06532 3.58921 30
      vertex 9.29776 3.68124 30
    endloop
  endfacet
  facet normal 0 0 1
    outer loop
      vertex 8.76307 4.81754 30
      vertex 8.54399 4.6971 30
      vertex 9.06532 3.58921 30
    endloop
  endfacet
  facet normal 0 0 1
    outer loop
      vertex 8.09017 5.87785 30
      vertex 8.54399 4.6971 30
      vertex 8.76307 4.81754 30
    endloop
  endfacet
  facet normal 0 0 1
    outer loop
      vertex 8.09017 5.87785 30
      vertex 7.88792 5.73091 30
      vertex 8.54399 4.6971 30
    endloop
  endfacet
  facet normal 0 0 1
    outer loop
      vertex 7.28969 6.84547 30
      vertex 7.88792 5.73091 30
      vertex 8.09017 5.87785 30
    endloop
  endfacet
  facet normal 0 0 1
    outer loop
      vertex 7.28969 6.84547 30
      vertex 7.10744 6.67433 30
      vertex 7.88792 5.73091 30
    endloop
  endfacet
  facet normal 0 0 1
    outer loop
      vertex 6.37424 7.70513 30
      vertex 7.10744 6.67433 30
      vertex 7.28969 6.84547 30
    endloop
  endfacet
  facet normal 0 0 1
    outer loop
      vertex 6.37424 7.70513 30
      vertex 6.21488 7.5125 30
      vertex 7.10744 6.67433 30
    endloop
  endfacet
  facet normal 0 0 1
    outer loop
      vertex 5.35827 8.44328 30
      vertex 6.21488 7.5125 30
      vertex 6.37424 7.70513 30
    endloop
  endfacet
  facet normal 0 0 1
    outer loop
      vertex 5.35827 8.44328 30
      vertex 5.22431 8.2322 30
      vertex 6.21488 7.5125 30
    endloop
  endfacet
  facet normal 0 0 1
    outer loop
      vertex 4.25779 9.04827 30
      vertex 5.22431 8.2322 30
      vertex 5.35827 8.44328 30
    endloop
  endfacet
  facet normal 0 0 1
    outer loop
      vertex 4.25779 9.04827 30
      vertex 4.15135 8.82206 30
      vertex 5.22431 8.2322 30
    endloop
  endfacet
  facet normal 0 0 1
    outer loop
      vertex 3.09017 9.51056 30
      vertex 4.15135 8.82206 30
      vertex 4.25779 9.04827 30
    endloop
  endfacet
  facet normal 0 0 1
    outer loop
      vertex 3.09017 9.51056 30
      vertex 3.01292 9.2728 30
      vertex 4.15135 8.82206 30
    endloop
  endfacet
  facet normal 0 0 1
    outer loop
      vertex 1.87381 9.82287 30
      vertex 3.01292 9.2728 30
      vertex 3.09017 9.51056 30
    endloop
  endfacet
  facet normal 0 0 1
    outer loop
      vertex 1.87381 9.82287 30
      vertex 1.82697 9.5773 30
      vertex 3.01292 9.2728 30
    endloop
  endfacet
  facet normal 0 0 1
    outer loop
      vertex 0.627905 9.98027 30
      vertex 1.82697 9.5773 30
      vertex 1.87381 9.82287 30
    endloop
  endfacet
  facet normal 0 0 1
    outer loop
      vertex 0.627905 9.98027 30
      vertex 0.612207 9.73076 30
      vertex 1.82697 9.5773 30
    endloop
  endfacet
  facet normal 0 0 1
    outer loop
      vertex 0.627905 9.98027 30
      vertex -0.612207 9.73076 30
      vertex 0.612207 9.73076 30
    endloop
  endfacet
  facet normal -0 0 1
    outer loop
      vertex -0.627905 9.98027 30
      vertex -0.612207 9.73076 30
      vertex 0.627905 9.98027 30
    endloop
  endfacet
  facet normal 0 0 1
    outer loop
      vertex -0.627905 9.98027 30
      vertex -1.82697 9.5773 30
      vertex -0.612207 9.73076 30
    endloop
  endfacet
  facet normal -0 0 1
    outer loop
      vertex -1.87381 9.82287 30
      vertex -1.82697 9.5773 30
      vertex -0.627905 9.98027 30
    endloop
  endfacet
  facet normal 0 0 1
    outer loop
      vertex -1.87381 9.82287 30
      vertex -3.01292 9.2728 30
      vertex -1.82697 9.5773 30
    endloop
  endfacet
  facet normal -0 0 1
    outer loop
      vertex -3.09017 9.51056 30
      vertex -3.01292 9.2728 30
      vertex -1.87381 9.82287 30
    endloop
  endfacet
  facet normal 0 0 1
    outer loop
      vertex -3.09017 9.51056 30
      vertex -4.15135 8.82206 30
      vertex -3.01292 9.2728 30
    endloop
  endfacet
  facet normal -0 0 1
    outer loop
      vertex -4.25779 9.04827 30
      vertex -4.15135 8.82206 30
      vertex -3.09017 9.51056 30
    endloop
  endfacet
  facet normal 0 0 1
    outer loop
      vertex -4.25779 9.04827 30
      vertex -5.22431 8.2322 30
      vertex -4.15135 8.82206 30
    endloop
  endfacet
  facet normal -0 0 1
    outer loop
      vertex -5.35827 8.44328 30
      vertex -5.22431 8.2322 30
      vertex -4.25779 9.04827 30
    endloop
  endfacet
  facet normal 0 0 1
    outer loop
      vertex -5.35827 8.44328 30
      vertex -6.21488 7.5125 30
      vertex -5.22431 8.2322 30
    endloop
  endfacet
  facet normal -0 0 1
    outer loop
      vertex -6.37424 7.70513 30
      vertex -6.21488 7.5125 30
      vertex -5.35827 8.44328 30
    endloop
  endfacet
  facet normal 0 0 1
    outer loop
      vertex -6.37424 7.70513 30
      vertex -7.10744 6.67433 30
      vertex -6.21488 7.5125 30
    endloop
  endfacet
  facet normal -0 0 1
    outer loop
      vertex -7.28969 6.84547 30
      vertex -7.10744 6.67433 30
      vertex -6.37424 7.70513 30
    endloop
  endfacet
  facet normal 0 0 1
    outer loop
      vertex -7.28969 6.84547 30
      vertex -7.88792 5.73091 30
      vertex -7.10744 6.67433 30
    endloop
  endfacet
  facet normal -0 0 1
    outer loop
      vertex -8.09017 5.87785 30
      vertex -7.88792 5.73091 30
      vertex -7.28969 6.84547 30
    endloop
  endfacet
  facet normal 0 0 1
    outer loop
      vertex -8.09017 5.87785 30
      vertex -8.54399 4.6971 30
      vertex -7.88792 5.73091 30
    endloop
  endfacet
  facet normal -0 0 1
    outer loop
      vertex -8.76307 4.81754 30
      vertex -8.54399 4.6971 30
      vertex -8.09017 5.87785 30
    endloop
  endfacet
  facet normal 0 0 1
    outer loop
      vertex -8.76307 4.81754 30
      vertex -9.06532 3.58921 30
      vertex -8.54399 4.6971 30
    endloop
  endfacet
  facet normal -0 0 1
    outer loop
      vertex -9.29776 3.68124 30
      vertex -9.06532 3.58921 30
      vertex -8.76307 4.81754 30
    endloop
  endfacet
  facet normal 0 0 1
    outer loop
      vertex -9.29776 3.68124 30
      vertex -9.44369 2.42473 30
      vertex -9.06532 3.58921 30
    endloop
  endfacet
  facet normal -0 0 1
    outer loop
      vertex -9.68583 2.4869 30
      vertex -9.44369 2.42473 30
      vertex -9.29776 3.68124 30
    endloop
  endfacet
  facet normal 0 0 1
    outer loop
      vertex -9.44369 2.42473 30
      vertex -9.68583 2.4869 30
      vertex -9.67312 1.222 30
    endloop
  endfacet
  facet normal -0 0 1
    outer loop
      vertex -9.92115 1.25333 30
      vertex -9.67312 1.222 30
      vertex -9.68583 2.4869 30
    endloop
  endfacet
  facet normal 0 0 1
    outer loop
      vertex -9.67312 1.222 30
      vertex -9.92115 1.25333 30
      vertex -9.75 0 30
    endloop
  endfacet
  facet normal -0 0 1
    outer loop
      vertex 9.67312 -1.222 30
      vertex 9.92115 -1.25333 30
      vertex 9.75 0 30
    endloop
  endfacet
  facet normal 0 0 1
    outer loop
      vertex 9.92115 -1.25333 30
      vertex 9.67312 -1.222 30
      vertex 9.68583 -2.4869 30
    endloop
  endfacet
  facet normal -0 0 1
    outer loop
      vertex 9.44369 -2.42473 30
      vertex 9.68583 -2.4869 30
      vertex 9.67312 -1.222 30
    endloop
  endfacet
  facet normal 0 0 1
    outer loop
      vertex 9.44369 -2.42473 30
      vertex 9.29776 -3.68124 30
      vertex 9.68583 -2.4869 30
    endloop
  endfacet
  facet normal -0 0 1
    outer loop
      vertex 9.06532 -3.58921 30
      vertex 9.29776 -3.68124 30
      vertex 9.44369 -2.42473 30
    endloop
  endfacet
  facet normal 0 0 1
    outer loop
      vertex 9.06532 -3.58921 30
      vertex 8.76307 -4.81754 30
      vertex 9.29776 -3.68124 30
    endloop
  endfacet
  facet normal -0 0 1
    outer loop
      vertex 8.54399 -4.6971 30
      vertex 8.76307 -4.81754 30
      vertex 9.06532 -3.58921 30
    endloop
  endfacet
  facet normal 0 0 1
    outer loop
      vertex 8.54399 -4.6971 30
      vertex 8.09017 -5.87785 30
      vertex 8.76307 -4.81754 30
    endloop
  endfacet
  facet normal -0 0 1
    outer loop
      vertex 7.88792 -5.73091 30
      vertex 8.09017 -5.87785 30
      vertex 8.54399 -4.6971 30
    endloop
  endfacet
  facet normal 0 0 1
    outer loop
      vertex 7.88792 -5.73091 30
      vertex 7.28969 -6.84547 30
      vertex 8.09017 -5.87785 30
    endloop
  endfacet
  facet normal -0 0 1
    outer loop
      vertex 7.10744 -6.67433 30
      vertex 7.28969 -6.84547 30
      vertex 7.88792 -5.73091 30
    endloop
  endfacet
  facet normal 0 0 1
    outer loop
      vertex 7.10744 -6.67433 30
      vertex 6.37424 -7.70513 30
      vertex 7.28969 -6.84547 30
    endloop
  endfacet
  facet normal -0 0 1
    outer loop
      vertex 6.21488 -7.5125 30
      vertex 6.37424 -7.70513 30
      vertex 7.10744 -6.67433 30
    endloop
  endfacet
  facet normal 0 0 1
    outer loop
      vertex 6.21488 -7.5125 30
      vertex 5.35827 -8.44328 30
      vertex 6.37424 -7.70513 30
    endloop
  endfacet
  facet normal -0 0 1
    outer loop
      vertex 5.22431 -8.2322 30
      vertex 5.35827 -8.44328 30
      vertex 6.21488 -7.5125 30
    endloop
  endfacet
  facet normal 0 0 1
    outer loop
      vertex 5.22431 -8.2322 30
      vertex 4.25779 -9.04827 30
      vertex 5.35827 -8.44328 30
    endloop
  endfacet
  facet normal -0 0 1
    outer loop
      vertex 4.15135 -8.82206 30
      vertex 4.25779 -9.04827 30
      vertex 5.22431 -8.2322 30
    endloop
  endfacet
  facet normal 0 0 1
    outer loop
      vertex 4.15135 -8.82206 30
      vertex 3.09017 -9.51056 30
      vertex 4.25779 -9.04827 30
    endloop
  endfacet
  facet normal -0 0 1
    outer loop
      vertex 3.01292 -9.2728 30
      vertex 3.09017 -9.51056 30
      vertex 4.15135 -8.82206 30
    endloop
  endfacet
  facet normal 0 0 1
    outer loop
      vertex 3.01292 -9.2728 30
      vertex 1.87381 -9.82287 30
      vertex 3.09017 -9.51056 30
    endloop
  endfacet
  facet normal -0 0 1
    outer loop
      vertex 1.82697 -9.5773 30
      vertex 1.87381 -9.82287 30
      vertex 3.01292 -9.2728 30
    endloop
  endfacet
  facet normal 0 0 1
    outer loop
      vertex 1.82697 -9.5773 30
      vertex 0.627905 -9.98027 30
      vertex 1.87381 -9.82287 30
    endloop
  endfacet
  facet normal -0 0 1
    outer loop
      vertex 0.612207 -9.73076 30
      vertex 0.627905 -9.98027 30
      vertex 1.82697 -9.5773 30
    endloop
  endfacet
  facet normal -0 0 1
    outer loop
      vertex -0.612207 -9.73076 30
      vertex 0.627905 -9.98027 30
      vertex 0.612207 -9.73076 30
    endloop
  endfacet
  facet normal 0 0 1
    outer loop
      vertex -0.612207 -9.73076 30
      vertex -0.627905 -9.98027 30
      vertex 0.627905 -9.98027 30
    endloop
  endfacet
  facet normal 0 0 1
    outer loop
      vertex -1.82697 -9.5773 30
      vertex -0.627905 -9.98027 30
      vertex -0.612207 -9.73076 30
    endloop
  endfacet
  facet normal 0 0 1
    outer loop
      vertex -1.82697 -9.5773 30
      vertex -1.87381 -9.82287 30
      vertex -0.627905 -9.98027 30
    endloop
  endfacet
  facet normal 0 0 1
    outer loop
      vertex -3.01292 -9.2728 30
      vertex -1.87381 -9.82287 30
      vertex -1.82697 -9.5773 30
    endloop
  endfacet
  facet normal 0 0 1
    outer loop
      vertex -3.01292 -9.2728 30
      vertex -3.09017 -9.51056 30
      vertex -1.87381 -9.82287 30
    endloop
  endfacet
  facet normal 0 0 1
    outer loop
      vertex -4.15135 -8.82206 30
      vertex -3.09017 -9.51056 30
      vertex -3.01292 -9.2728 30
    endloop
  endfacet
  facet normal 0 0 1
    outer loop
      vertex -4.15135 -8.82206 30
      vertex -4.25779 -9.04827 30
      vertex -3.09017 -9.51056 30
    endloop
  endfacet
  facet normal 0 0 1
    outer loop
      vertex -5.22431 -8.2322 30
      vertex -4.25779 -9.04827 30
      vertex -4.15135 -8.82206 30
    endloop
  endfacet
  facet normal 0 0 1
    outer loop
      vertex -5.22431 -8.2322 30
      vertex -5.35827 -8.44328 30
      vertex -4.25779 -9.04827 30
    endloop
  endfacet
  facet normal 0 0 1
    outer loop
      vertex -6.21488 -7.5125 30
      vertex -5.35827 -8.44328 30
      vertex -5.22431 -8.2322 30
    endloop
  endfacet
  facet normal 0 0 1
    outer loop
      vertex -6.21488 -7.5125 30
      vertex -6.37424 -7.70513 30
      vertex -5.35827 -8.44328 30
    endloop
  endfacet
  facet normal 0 0 1
    outer loop
      vertex -7.10744 -6.67433 30
      vertex -6.37424 -7.70513 30
      vertex -6.21488 -7.5125 30
    endloop
  endfacet
  facet normal 0 0 1
    outer loop
      vertex -7.10744 -6.67433 30
      vertex -7.28969 -6.84547 30
      vertex -6.37424 -7.70513 30
    endloop
  endfacet
  facet normal 0 0 1
    outer loop
      vertex -7.88792 -5.73091 30
      vertex -7.28969 -6.84547 30
      vertex -7.10744 -6.67433 30
    endloop
  endfacet
  facet normal 0 0 1
    outer loop
      vertex -7.88792 -5.73091 30
      vertex -8.09017 -5.87785 30
      vertex -7.28969 -6.84547 30
    endloop
  endfacet
  facet normal 0 0 1
    outer loop
      vertex -8.54399 -4.6971 30
      vertex -8.09017 -5.87785 30
      vertex -7.88792 -5.73091 30
    endloop
  endfacet
  facet normal 0 0 1
    outer loop
      vertex -8.54399 -4.6971 30
      vertex -8.76307 -4.81754 30
      vertex -8.09017 -5.87785 30
    endloop
  endfacet
  facet normal 0 0 1
    outer loop
      vertex -9.06532 -3.58921 30
      vertex -8.76307 -4.81754 30
      vertex -8.54399 -4.6971 30
    endloop
  endfacet
  facet normal 0 0 1
    outer loop
      vertex -9.06532 -3.58921 30
      vertex -9.29776 -3.68124 30
      vertex -8.76307 -4.81754 30
    endloop
  endfacet
  facet normal 0 0 1
    outer loop
      vertex -9.44369 -2.42473 30
      vertex -9.29776 -3.68124 30
      vertex -9.06532 -3.58921 30
    endloop
  endfacet
  facet normal 0 0 1
    outer loop
      vertex -9.68583 -2.4869 30
      vertex -9.44369 -2.42473 30
      vertex -9.67312 -1.222 30
    endloop
  endfacet
  facet normal 0 0 1
    outer loop
      vertex -9.44369 -2.42473 30
      vertex -9.68583 -2.4869 30
      vertex -9.29776 -3.68124 30
    endloop
  endfacet
  facet normal 0 0 1
    outer loop
      vertex -9.92115 -1.25333 30
      vertex -9.67312 -1.222 30
      vertex -9.75 0 30
    endloop
  endfacet
  facet normal 0 0 1
    outer loop
      vertex -10 0 30
      vertex -9.75 0 30
      vertex -9.92115 1.25333 30
    endloop
  endfacet
  facet normal 0 0 1
    outer loop
      vertex -9.67312 -1.222 30
      vertex -9.92115 -1.25333 30
      vertex -9.68583 -2.4869 30
    endloop
  endfacet
  facet normal 0 0 1
    outer loop
      vertex -9.75 0 30
      vertex -10 0 30
      vertex -9.92115 -1.25333 30
    endloop
  endfacet
  facet normal -0.587786 0.809017 0
    outer loop
      vertex -5.35827 8.44328 0
      vertex -6.37424 7.70513 30
      vertex -5.35827 8.44328 30
    endloop
  endfacet
  facet normal -0.587786 0.809017 0
    outer loop
      vertex -6.37424 7.70513 30
      vertex -5.35827 8.44328 0
      vertex -6.37424 7.70513 0
    endloop
  endfacet
  facet normal -0.24869 0.968583 0
    outer loop
      vertex -1.87381 9.82287 0
      vertex -3.09017 9.51056 30
      vertex -1.87381 9.82287 30
    endloop
  endfacet
  facet normal -0.24869 0.968583 0
    outer loop
      vertex -3.09017 9.51056 30
      vertex -1.87381 9.82287 0
      vertex -3.09017 9.51056 0
    endloop
  endfacet
  facet normal 0.998027 -0.062791 0
    outer loop
      vertex 9.92115 -1.25333 30
      vertex 10 0 0
      vertex 10 0 30
    endloop
  endfacet
  facet normal 0.998027 -0.062791 0
    outer loop
      vertex 10 0 0
      vertex 9.92115 -1.25333 30
      vertex 9.92115 -1.25333 0
    endloop
  endfacet
  facet normal 0.770513 -0.637424 0
    outer loop
      vertex 7.28969 -6.84547 30
      vertex 8.09017 -5.87785 0
      vertex 8.09017 -5.87785 30
    endloop
  endfacet
  facet normal 0.770513 -0.637424 0
    outer loop
      vertex 8.09017 -5.87785 0
      vertex 7.28969 -6.84547 30
      vertex 7.28969 -6.84547 0
    endloop
  endfacet
  facet normal 0.951057 -0.309017 0
    outer loop
      vertex 9.29776 -3.68124 30
      vertex 9.68583 -2.4869 0
      vertex 9.68583 -2.4869 30
    endloop
  endfacet
  facet normal 0.951057 -0.309017 0
    outer loop
      vertex 9.68583 -2.4869 0
      vertex 9.29776 -3.68124 30
      vertex 9.29776 -3.68124 0
    endloop
  endfacet
  facet normal 0.982287 -0.187381 0
    outer loop
      vertex 9.68583 -2.4869 30
      vertex 9.92115 -1.25333 0
      vertex 9.92115 -1.25333 30
    endloop
  endfacet
  facet normal 0.982287 -0.187381 0
    outer loop
      vertex 9.92115 -1.25333 0
      vertex 9.68583 -2.4869 30
      vertex 9.68583 -2.4869 0
    endloop
  endfacet
  facet normal -0.770513 -0.637424 0
    outer loop
      vertex -7.28969 -6.84547 0
      vertex -8.09017 -5.87785 30
      vertex -8.09017 -5.87785 0
    endloop
  endfacet
  facet normal -0.770513 -0.637424 0
    outer loop
      vertex -8.09017 -5.87785 30
      vertex -7.28969 -6.84547 0
      vertex -7.28969 -6.84547 30
    endloop
  endfacet
  facet normal 0 0 -1
    outer loop
      vertex 9.75 0 0
      vertex 10 0 0
      vertex 9.92115 -1.25333 0
    endloop
  endfacet
  facet normal 0 0 -1
    outer loop
      vertex 10 0 0
      vertex 9.75 0 0
      vertex 9.92115 1.25333 0
    endloop
  endfacet
  facet normal 0 0 -1
    outer loop
      vertex 9.67312 -1.222 0
      vertex 9.92115 -1.25333 0
      vertex 9.68583 -2.4869 0
    endloop
  endfacet
  facet normal 0 0 -1
    outer loop
      vertex 9.92115 -1.25333 0
      vertex 9.67312 -1.222 0
      vertex 9.75 0 0
    endloop
  endfacet
  facet normal 0 0 -1
    outer loop
      vertex 9.68583 -2.4869 0
      vertex 9.44369 -2.42473 0
      vertex 9.67312 -1.222 0
    endloop
  endfacet
  facet normal 0 0 -1
    outer loop
      vertex 9.29776 -3.68124 0
      vertex 9.44369 -2.42473 0
      vertex 9.68583 -2.4869 0
    endloop
  endfacet
  facet normal 0 0 -1
    outer loop
      vertex 9.29776 -3.68124 0
      vertex 9.06532 -3.58921 0
      vertex 9.44369 -2.42473 0
    endloop
  endfacet
  facet normal 0 0 -1
    outer loop
      vertex 8.76307 -4.81754 0
      vertex 9.06532 -3.58921 0
      vertex 9.29776 -3.68124 0
    endloop
  endfacet
  facet normal 0 0 -1
    outer loop
      vertex 8.76307 -4.81754 0
      vertex 8.54399 -4.6971 0
      vertex 9.06532 -3.58921 0
    endloop
  endfacet
  facet normal 0 0 -1
    outer loop
      vertex 8.09017 -5.87785 0
      vertex 8.54399 -4.6971 0
      vertex 8.76307 -4.81754 0
    endloop
  endfacet
  facet normal 0 0 -1
    outer loop
      vertex 8.09017 -5.87785 0
      vertex 7.88792 -5.73091 0
      vertex 8.54399 -4.6971 0
    endloop
  endfacet
  facet normal 0 0 -1
    outer loop
      vertex 7.28969 -6.84547 0
      vertex 7.88792 -5.73091 0
      vertex 8.09017 -5.87785 0
    endloop
  endfacet
  facet normal 0 0 -1
    outer loop
      vertex 7.28969 -6.84547 0
      vertex 7.10744 -6.67433 0
      vertex 7.88792 -5.73091 0
    endloop
  endfacet
  facet normal 0 0 -1
    outer loop
      vertex 6.37424 -7.70513 0
      vertex 7.10744 -6.67433 0
      vertex 7.28969 -6.84547 0
    endloop
  endfacet
  facet normal 0 0 -1
    outer loop
      vertex 6.37424 -7.70513 0
      vertex 6.21488 -7.5125 0
      vertex 7.10744 -6.67433 0
    endloop
  endfacet
  facet normal 0 0 -1
    outer loop
      vertex 5.35827 -8.44328 0
      vertex 6.21488 -7.5125 0
      vertex 6.37424 -7.70513 0
    endloop
  endfacet
  facet normal 0 0 -1
    outer loop
      vertex 5.35827 -8.44328 0
      vertex 5.22431 -8.2322 0
      vertex 6.21488 -7.5125 0
    endloop
  endfacet
  facet normal 0 0 -1
    outer loop
      vertex 4.25779 -9.04827 0
      vertex 5.22431 -8.2322 0
      vertex 5.35827 -8.44328 0
    endloop
  endfacet
  facet normal 0 0 -1
    outer loop
      vertex 4.25779 -9.04827 0
      vertex 4.15135 -8.82206 0
      vertex 5.22431 -8.2322 0
    endloop
  endfacet
  facet normal 0 0 -1
    outer loop
      vertex 3.09017 -9.51056 0
      vertex 4.15135 -8.82206 0
      vertex 4.25779 -9.04827 0
    endloop
  endfacet
  facet normal 0 0 -1
    outer loop
      vertex 3.09017 -9.51056 0
      vertex 3.01292 -9.2728 0
      vertex 4.15135 -8.82206 0
    endloop
  endfacet
  facet normal 0 0 -1
    outer loop
      vertex 1.87381 -9.82287 0
      vertex 3.01292 -9.2728 0
      vertex 3.09017 -9.51056 0
    endloop
  endfacet
  facet normal 0 0 -1
    outer loop
      vertex 1.87381 -9.82287 0
      vertex 1.82697 -9.5773 0
      vertex 3.01292 -9.2728 0
    endloop
  endfacet
  facet normal 0 0 -1
    outer loop
      vertex 0.627905 -9.98027 0
      vertex 1.82697 -9.5773 0
      vertex 1.87381 -9.82287 0
    endloop
  endfacet
  facet normal 0 0 -1
    outer loop
      vertex 0.627905 -9.98027 0
      vertex 0.612207 -9.73076 0
      vertex 1.82697 -9.5773 0
    endloop
  endfacet
  facet normal 0 0 -1
    outer loop
      vertex 0.627905 -9.98027 0
      vertex -0.612207 -9.73076 0
      vertex 0.612207 -9.73076 0
    endloop
  endfacet
  facet normal 0 0 -1
    outer loop
      vertex -0.627905 -9.98027 0
      vertex -0.612207 -9.73076 0
      vertex 0.627905 -9.98027 0
    endloop
  endfacet
  facet normal 0 0 -1
    outer loop
      vertex -0.627905 -9.98027 0
      vertex -1.82697 -9.5773 0
      vertex -0.612207 -9.73076 0
    endloop
  endfacet
  facet normal 0 0 -1
    outer loop
      vertex -1.87381 -9.82287 0
      vertex -1.82697 -9.5773 0
      vertex -0.627905 -9.98027 0
    endloop
  endfacet
  facet normal 0 0 -1
    outer loop
      vertex -1.87381 -9.82287 0
      vertex -3.01292 -9.2728 0
      vertex -1.82697 -9.5773 0
    endloop
  endfacet
  facet normal 0 0 -1
    outer loop
      vertex -3.09017 -9.51056 0
      vertex -3.01292 -9.2728 0
      vertex -1.87381 -9.82287 0
    endloop
  endfacet
  facet normal 0 0 -1
    outer loop
      vertex -3.09017 -9.51056 0
      vertex -4.15135 -8.82206 0
      vertex -3.01292 -9.2728 0
    endloop
  endfacet
  facet normal 0 0 -1
    outer loop
      vertex -4.25779 -9.04827 0
      vertex -4.15135 -8.82206 0
      vertex -3.09017 -9.51056 0
    endloop
  endfacet
  facet normal 0 0 -1
    outer loop
      vertex -4.25779 -9.04827 0
      vertex -5.22431 -8.2322 0
      vertex -4.15135 -8.82206 0
    endloop
  endfacet
  facet normal 0 0 -1
    outer loop
      vertex -5.35827 -8.44328 0
      vertex -5.22431 -8.2322 0
      vertex -4.25779 -9.04827 0
    endloop
  endfacet
  facet normal 0 0 -1
    outer loop
      vertex -5.35827 -8.44328 0
      vertex -6.21488 -7.5125 0
      vertex -5.22431 -8.2322 0
    endloop
  endfacet
  facet normal 0 0 -1
    outer loop
      vertex -6.37424 -7.70513 0
      vertex -6.21488 -7.5125 0
      vertex -5.35827 -8.44328 0
    endloop
  endfacet
  facet normal 0 0 -1
    outer loop
      vertex -6.37424 -7.70513 0
      vertex -7.10744 -6.67433 0
      vertex -6.21488 -7.5125 0
    endloop
  endfacet
  facet normal 0 0 -1
    outer loop
      vertex -7.28969 -6.84547 0
      vertex -7.10744 -6.67433 0
      vertex -6.37424 -7.70513 0
    endloop
  endfacet
  facet normal 0 0 -1
    outer loop
      vertex -7.28969 -6.84547 0
      vertex -7.88792 -5.73091 0
      vertex -7.10744 -6.67433 0
    endloop
  endfacet
  facet normal 0 0 -1
    outer loop
      vertex -8.09017 -5.87785 0
      vertex -7.88792 -5.73091 0
      vertex -7.28969 -6.84547 0
    endloop
  endfacet
  facet normal 0 0 -1
    outer loop
      vertex -8.09017 -5.87785 0
      vertex -8.54399 -4.6971 0
      vertex -7.88792 -5.73091 0
    endloop
  endfacet
  facet normal 0 0 -1
    outer loop
      vertex -8.76307 -4.81754 0
      vertex -8.54399 -4.6971 0
      vertex -8.09017 -5.87785 0
    endloop
  endfacet
  facet normal 0 0 -1
    outer loop
      vertex -8.76307 -4.81754 0
      vertex -9.06532 -3.58921 0
      vertex -8.54399 -4.6971 0
    endloop
  endfacet
  facet normal 0 0 -1
    outer loop
      vertex -9.29776 -3.68124 0
      vertex -9.06532 -3.58921 0
      vertex -8.76307 -4.81754 0
    endloop
  endfacet
  facet normal 0 0 -1
    outer loop
      vertex -9.29776 -3.68124 0
      vertex -9.44369 -2.42473 0
      vertex -9.06532 -3.58921 0
    endloop
  endfacet
  facet normal 0 0 -1
    outer loop
      vertex -9.68583 -2.4869 0
      vertex -9.44369 -2.42473 0
      vertex -9.29776 -3.68124 0
    endloop
  endfacet
  facet normal -0 0 -1
    outer loop
      vertex -9.44369 -2.42473 0
      vertex -9.68583 -2.4869 0
      vertex -9.67312 -1.222 0
    endloop
  endfacet
  facet normal 0 0 -1
    outer loop
      vertex -9.92115 -1.25333 0
      vertex -9.67312 -1.222 0
      vertex -9.68583 -2.4869 0
    endloop
  endfacet
  facet normal -0 0 -1
    outer loop
      vertex -9.67312 -1.222 0
      vertex -9.92115 -1.25333 0
      vertex -9.75 0 0
    endloop
  endfacet
  facet normal 0 0 -1
    outer loop
      vertex 9.67312 1.222 0
      vertex 9.92115 1.25333 0
      vertex 9.75 0 0
    endloop
  endfacet
  facet normal -0 0 -1
    outer loop
      vertex 9.92115 1.25333 0
      vertex 9.67312 1.222 0
      vertex 9.68583 2.4869 0
    endloop
  endfacet
  facet normal 0 0 -1
    outer loop
      vertex 9.44369 2.42473 0
      vertex 9.68583 2.4869 0
      vertex 9.67312 1.222 0
    endloop
  endfacet
  facet normal 0 0 -1
    outer loop
      vertex 9.44369 2.42473 0
      vertex 9.29776 3.68124 0
      vertex 9.68583 2.4869 0
    endloop
  endfacet
  facet normal 0 0 -1
    outer loop
      vertex 9.06532 3.58921 0
      vertex 9.29776 3.68124 0
      vertex 9.44369 2.42473 0
    endloop
  endfacet
  facet normal 0 0 -1
    outer loop
      vertex 9.06532 3.58921 0
      vertex 8.76307 4.81754 0
      vertex 9.29776 3.68124 0
    endloop
  endfacet
  facet normal 0 0 -1
    outer loop
      vertex 8.54399 4.6971 0
      vertex 8.76307 4.81754 0
      vertex 9.06532 3.58921 0
    endloop
  endfacet
  facet normal 0 0 -1
    outer loop
      vertex 8.54399 4.6971 0
      vertex 8.09017 5.87785 0
      vertex 8.76307 4.81754 0
    endloop
  endfacet
  facet normal 0 0 -1
    outer loop
      vertex 7.88792 5.73091 0
      vertex 8.09017 5.87785 0
      vertex 8.54399 4.6971 0
    endloop
  endfacet
  facet normal 0 0 -1
    outer loop
      vertex 7.88792 5.73091 0
      vertex 7.28969 6.84547 0
      vertex 8.09017 5.87785 0
    endloop
  endfacet
  facet normal 0 0 -1
    outer loop
      vertex 7.10744 6.67433 0
      vertex 7.28969 6.84547 0
      vertex 7.88792 5.73091 0
    endloop
  endfacet
  facet normal 0 0 -1
    outer loop
      vertex 7.10744 6.67433 0
      vertex 6.37424 7.70513 0
      vertex 7.28969 6.84547 0
    endloop
  endfacet
  facet normal 0 0 -1
    outer loop
      vertex 6.21488 7.5125 0
      vertex 6.37424 7.70513 0
      vertex 7.10744 6.67433 0
    endloop
  endfacet
  facet normal 0 0 -1
    outer loop
      vertex 6.21488 7.5125 0
      vertex 5.35827 8.44328 0
      vertex 6.37424 7.70513 0
    endloop
  endfacet
  facet normal 0 0 -1
    outer loop
      vertex 5.22431 8.2322 0
      vertex 5.35827 8.44328 0
      vertex 6.21488 7.5125 0
    endloop
  endfacet
  facet normal 0 0 -1
    outer loop
      vertex 5.22431 8.2322 0
      vertex 4.25779 9.04827 0
      vertex 5.35827 8.44328 0
    endloop
  endfacet
  facet normal 0 0 -1
    outer loop
      vertex 4.15135 8.82206 0
      vertex 4.25779 9.04827 0
      vertex 5.22431 8.2322 0
    endloop
  endfacet
  facet normal 0 0 -1
    outer loop
      vertex 4.15135 8.82206 0
      vertex 3.09017 9.51056 0
      vertex 4.25779 9.04827 0
    endloop
  endfacet
  facet normal 0 0 -1
    outer loop
      vertex 3.01292 9.2728 0
      vertex 3.09017 9.51056 0
      vertex 4.15135 8.82206 0
    endloop
  endfacet
  facet normal 0 0 -1
    outer loop
      vertex 3.01292 9.2728 0
      vertex 1.87381 9.82287 0
      vertex 3.09017 9.51056 0
    endloop
  endfacet
  facet normal 0 0 -1
    outer loop
      vertex 1.82697 9.5773 0
      vertex 1.87381 9.82287 0
      vertex 3.01292 9.2728 0
    endloop
  endfacet
  facet normal 0 0 -1
    outer loop
      vertex 1.82697 9.5773 0
      vertex 0.627905 9.98027 0
      vertex 1.87381 9.82287 0
    endloop
  endfacet
  facet normal 0 0 -1
    outer loop
      vertex 0.612207 9.73076 0
      vertex 0.627905 9.98027 0
      vertex 1.82697 9.5773 0
    endloop
  endfacet
  facet normal 0 0 -1
    outer loop
      vertex -0.612207 9.73076 0
      vertex 0.627905 9.98027 0
      vertex 0.612207 9.73076 0
    endloop
  endfacet
  facet normal 0 0 -1
    outer loop
      vertex -0.612207 9.73076 0
      vertex -0.627905 9.98027 0
      vertex 0.627905 9.98027 0
    endloop
  endfacet
  facet normal 0 0 -1
    outer loop
      vertex -1.82697 9.5773 0
      vertex -0.627905 9.98027 0
      vertex -0.612207 9.73076 0
    endloop
  endfacet
  facet normal 0 0 -1
    outer loop
      vertex -1.82697 9.5773 0
      vertex -1.87381 9.82287 0
      vertex -0.627905 9.98027 0
    endloop
  endfacet
  facet normal 0 0 -1
    outer loop
      vertex -3.01292 9.2728 0
      vertex -1.87381 9.82287 0
      vertex -1.82697 9.5773 0
    endloop
  endfacet
  facet normal 0 0 -1
    outer loop
      vertex -3.01292 9.2728 0
      vertex -3.09017 9.51056 0
      vertex -1.87381 9.82287 0
    endloop
  endfacet
  facet normal 0 0 -1
    outer loop
      vertex -4.15135 8.82206 0
      vertex -3.09017 9.51056 0
      vertex -3.01292 9.2728 0
    endloop
  endfacet
  facet normal 0 0 -1
    outer loop
      vertex -4.15135 8.82206 0
      vertex -4.25779 9.04827 0
      vertex -3.09017 9.51056 0
    endloop
  endfacet
  facet normal 0 0 -1
    outer loop
      vertex -5.22431 8.2322 0
      vertex -4.25779 9.04827 0
      vertex -4.15135 8.82206 0
    endloop
  endfacet
  facet normal 0 0 -1
    outer loop
      vertex -5.22431 8.2322 0
      vertex -5.35827 8.44328 0
      vertex -4.25779 9.04827 0
    endloop
  endfacet
  facet normal 0 0 -1
    outer loop
      vertex -6.21488 7.5125 0
      vertex -5.35827 8.44328 0
      vertex -5.22431 8.2322 0
    endloop
  endfacet
  facet normal 0 0 -1
    outer loop
      vertex -6.21488 7.5125 0
      vertex -6.37424 7.70513 0
      vertex -5.35827 8.44328 0
    endloop
  endfacet
  facet normal 0 0 -1
    outer loop
      vertex -7.10744 6.67433 0
      vertex -6.37424 7.70513 0
      vertex -6.21488 7.5125 0
    endloop
  endfacet
  facet normal 0 0 -1
    outer loop
      vertex -7.10744 6.67433 0
      vertex -7.28969 6.84547 0
      vertex -6.37424 7.70513 0
    endloop
  endfacet
  facet normal 0 0 -1
    outer loop
      vertex -7.88792 5.73091 0
      vertex -7.28969 6.84547 0
      vertex -7.10744 6.67433 0
    endloop
  endfacet
  facet normal 0 0 -1
    outer loop
      vertex -7.88792 5.73091 0
      vertex -8.09017 5.87785 0
      vertex -7.28969 6.84547 0
    endloop
  endfacet
  facet normal 0 0 -1
    outer loop
      vertex -8.54399 4.6971 0
      vertex -8.09017 5.87785 0
      vertex -7.88792 5.73091 0
    endloop
  endfacet
  facet normal 0 0 -1
    outer loop
      vertex -8.54399 4.6971 0
      vertex -8.76307 4.81754 0
      vertex -8.09017 5.87785 0
    endloop
  endfacet
  facet normal 0 0 -1
    outer loop
      vertex -9.06532 3.58921 0
      vertex -8.76307 4.81754 0
      vertex -8.54399 4.6971 0
    endloop
  endfacet
  facet normal 0 0 -1
    outer loop
      vertex -9.06532 3.58921 0
      vertex -9.29776 3.68124 0
      vertex -8.76307 4.81754 0
    endloop
  endfacet
  facet normal 0 0 -1
    outer loop
      vertex -9.44369 2.42473 0
      vertex -9.29776 3.68124 0
      vertex -9.06532 3.58921 0
    endloop
  endfacet
  facet normal 0 0 -1
    outer loop
      vertex -9.68583 2.4869 0
      vertex -9.44369 2.42473 0
      vertex -9.67312 1.222 0
    endloop
  endfacet
  facet normal 0 0 -1
    outer loop
      vertex -9.44369 2.42473 0
      vertex -9.68583 2.4869 0
      vertex -9.29776 3.68124 0
    endloop
  endfacet
  facet normal 0 0 -1
    outer loop
      vertex -9.92115 1.25333 0
      vertex -9.67312 1.222 0
      vertex -9.75 0 0
    endloop
  endfacet
  facet normal 0 0 -1
    outer loop
      vertex -10 0 0
      vertex -9.75 0 0
      vertex -9.92115 -1.25333 0
    endloop
  endfacet
  facet normal 0 0 -1
    outer loop
      vertex -9.67312 1.222 0
      vertex -9.92115 1.25333 0
      vertex -9.68583 2.4869 0
    endloop
  endfacet
  facet normal 0 0 -1
    outer loop
      vertex -9.75 0 0
      vertex -10 0 0
      vertex -9.92115 1.25333 0
    endloop
  endfacet
  facet normal 0.844328 -0.535826 0
    outer loop
      vertex 8.09017 -5.87785 30
      vertex 8.76307 -4.81754 0
      vertex 8.76307 -4.81754 30
    endloop
  endfacet
  facet normal 0.844328 -0.535826 0
    outer loop
      vertex 8.76307 -4.81754 0
      vertex 8.09017 -5.87785 30
      vertex 8.09017 -5.87785 0
    endloop
  endfacet
  facet normal -0.951057 -0.309017 0
    outer loop
      vertex -9.29776 -3.68124 0
      vertex -9.68583 -2.4869 30
      vertex -9.68583 -2.4869 0
    endloop
  endfacet
  facet normal -0.951057 -0.309017 0
    outer loop
      vertex -9.68583 -2.4869 30
      vertex -9.29776 -3.68124 0
      vertex -9.29776 -3.68124 30
    endloop
  endfacet
  facet normal -0.998027 -0.062791 0
    outer loop
      vertex -9.92115 -1.25333 0
      vertex -10 0 30
      vertex -10 0 0
    endloop
  endfacet
  facet normal -0.998027 -0.062791 0
    outer loop
      vertex -10 0 30
      vertex -9.92115 -1.25333 0
      vertex -9.92115 -1.25333 30
    endloop
  endfacet
  facet normal 0.368125 -0.929776 0
    outer loop
      vertex 3.09017 -9.51056 0
      vertex 4.25779 -9.04827 30
      vertex 3.09017 -9.51056 30
    endloop
  endfacet
  facet normal 0.368125 -0.929776 0
    outer loop
      vertex 4.25779 -9.04827 30
      vertex 3.09017 -9.51056 0
      vertex 4.25779 -9.04827 0
    endloop
  endfacet
  facet normal 0.24869 -0.968583 0
    outer loop
      vertex 1.87381 -9.82287 0
      vertex 3.09017 -9.51056 30
      vertex 1.87381 -9.82287 30
    endloop
  endfacet
  facet normal 0.24869 -0.968583 0
    outer loop
      vertex 3.09017 -9.51056 30
      vertex 1.87381 -9.82287 0
      vertex 3.09017 -9.51056 0
    endloop
  endfacet
  facet normal 0.684547 -0.728969 0
    outer loop
      vertex 6.37424 -7.70513 0
      vertex 7.28969 -6.84547 30
      vertex 6.37424 -7.70513 30
    endloop
  endfacet
  facet normal 0.684547 -0.728969 0
    outer loop
      vertex 7.28969 -6.84547 30
      vertex 6.37424 -7.70513 0
      vertex 7.28969 -6.84547 0
    endloop
  endfacet
  facet normal 0.587786 -0.809017 0
    outer loop
      vertex 5.35827 -8.44328 0
      vertex 6.37424 -7.70513 30
      vertex 5.35827 -8.44328 30
    endloop
  endfacet
  facet normal 0.587786 -0.809017 0
    outer loop
      vertex 6.37424 -7.70513 30
      vertex 5.35827 -8.44328 0
      vertex 6.37424 -7.70513 0
    endloop
  endfacet
  facet normal 0.481754 -0.876307 0
    outer loop
      vertex 4.25779 -9.04827 0
      vertex 5.35827 -8.44328 30
      vertex 4.25779 -9.04827 30
    endloop
  endfacet
  facet normal 0.481754 -0.876307 0
    outer loop
      vertex 5.35827 -8.44328 30
      vertex 4.25779 -9.04827 0
      vertex 5.35827 -8.44328 0
    endloop
  endfacet
  facet normal 0.904827 -0.425779 0
    outer loop
      vertex 8.76307 -4.81754 30
      vertex 9.29776 -3.68124 0
      vertex 9.29776 -3.68124 30
    endloop
  endfacet
  facet normal 0.904827 -0.425779 0
    outer loop
      vertex 9.29776 -3.68124 0
      vertex 8.76307 -4.81754 30
      vertex 8.76307 -4.81754 0
    endloop
  endfacet
  facet normal -0.368125 -0.929776 0
    outer loop
      vertex -4.25779 -9.04827 0
      vertex -3.09017 -9.51056 30
      vertex -4.25779 -9.04827 30
    endloop
  endfacet
  facet normal -0.368125 -0.929776 -0
    outer loop
      vertex -3.09017 -9.51056 30
      vertex -4.25779 -9.04827 0
      vertex -3.09017 -9.51056 0
    endloop
  endfacet
  facet normal -0.24869 -0.968583 0
    outer loop
      vertex -3.09017 -9.51056 0
      vertex -1.87381 -9.82287 30
      vertex -3.09017 -9.51056 30
    endloop
  endfacet
  facet normal -0.24869 -0.968583 -0
    outer loop
      vertex -1.87381 -9.82287 30
      vertex -3.09017 -9.51056 0
      vertex -1.87381 -9.82287 0
    endloop
  endfacet
  facet normal -0.844328 -0.535826 0
    outer loop
      vertex -8.09017 -5.87785 0
      vertex -8.76307 -4.81754 30
      vertex -8.76307 -4.81754 0
    endloop
  endfacet
  facet normal -0.844328 -0.535826 0
    outer loop
      vertex -8.76307 -4.81754 30
      vertex -8.09017 -5.87785 0
      vertex -8.09017 -5.87785 30
    endloop
  endfacet
  facet normal -0.904827 -0.425779 0
    outer loop
      vertex -8.76307 -4.81754 0
      vertex -9.29776 -3.68124 30
      vertex -9.29776 -3.68124 0
    endloop
  endfacet
  facet normal -0.904827 -0.425779 0
    outer loop
      vertex -9.29776 -3.68124 30
      vertex -8.76307 -4.81754 0
      vertex -8.76307 -4.81754 30
    endloop
  endfacet
  facet normal -0.982287 -0.187381 0
    outer loop
      vertex -9.68583 -2.4869 0
      vertex -9.92115 -1.25333 30
      vertex -9.92115 -1.25333 0
    endloop
  endfacet
  facet normal -0.982287 -0.187381 0
    outer loop
      vertex -9.92115 -1.25333 30
      vertex -9.68583 -2.4869 0
      vertex -9.68583 -2.4869 30
    endloop
  endfacet
  facet normal -0.481754 -0.876307 0
    outer loop
      vertex -5.35827 -8.44328 0
      vertex -4.25779 -9.04827 30
      vertex -5.35827 -8.44328 30
    endloop
  endfacet
  facet normal -0.481754 -0.876307 -0
    outer loop
      vertex -4.25779 -9.04827 30
      vertex -5.35827 -8.44328 0
      vertex -4.25779 -9.04827 0
    endloop
  endfacet
  facet normal -0.125333 -0.992115 0
    outer loop
      vertex -1.87381 -9.82287 0
      vertex -0.627905 -9.98027 30
      vertex -1.87381 -9.82287 30
    endloop
  endfacet
  facet normal -0.125333 -0.992115 -0
    outer loop
      vertex -0.627905 -9.98027 30
      vertex -1.87381 -9.82287 0
      vertex -0.627905 -9.98027 0
    endloop
  endfacet
  facet normal -0.587786 -0.809017 0
    outer loop
      vertex -6.37424 -7.70513 0
      vertex -5.35827 -8.44328 30
      vertex -6.37424 -7.70513 30
    endloop
  endfacet
  facet normal -0.587786 -0.809017 -0
    outer loop
      vertex -5.35827 -8.44328 30
      vertex -6.37424 -7.70513 0
      vertex -5.35827 -8.44328 0
    endloop
  endfacet
  facet normal -0.684547 -0.728969 0
    outer loop
      vertex -7.28969 -6.84547 0
      vertex -6.37424 -7.70513 30
      vertex -7.28969 -6.84547 30
    endloop
  endfacet
  facet normal -0.684547 -0.728969 -0
    outer loop
      vertex -6.37424 -7.70513 30
      vertex -7.28969 -6.84547 0
      vertex -6.37424 -7.70513 0
    endloop
  endfacet
  facet normal -0.844328 -0.535826 0
    outer loop
      vertex 8.54399 4.6971 0
      vertex 7.88792 5.73091 30
      vertex 7.88792 5.73091 0
    endloop
  endfacet
  facet normal -0.844328 -0.535826 0
    outer loop
      vertex 7.88792 5.73091 30
      vertex 8.54399 4.6971 0
      vertex 8.54399 4.6971 30
    endloop
  endfacet
  facet normal -0.368125 -0.929776 0
    outer loop
      vertex 3.01292 9.2728 0
      vertex 4.15135 8.82206 30
      vertex 3.01292 9.2728 30
    endloop
  endfacet
  facet normal -0.368125 -0.929776 -0
    outer loop
      vertex 4.15135 8.82206 30
      vertex 3.01292 9.2728 0
      vertex 4.15135 8.82206 0
    endloop
  endfacet
  facet normal 0.368125 -0.929776 0
    outer loop
      vertex -4.15135 8.82206 0
      vertex -3.01292 9.2728 30
      vertex -4.15135 8.82206 30
    endloop
  endfacet
  facet normal 0.368125 -0.929776 0
    outer loop
      vertex -3.01292 9.2728 30
      vertex -4.15135 8.82206 0
      vertex -3.01292 9.2728 0
    endloop
  endfacet
  facet normal 0.904827 -0.42578 0
    outer loop
      vertex -9.06532 3.58921 30
      vertex -8.54399 4.6971 0
      vertex -8.54399 4.6971 30
    endloop
  endfacet
  facet normal 0.904827 -0.42578 0
    outer loop
      vertex -8.54399 4.6971 0
      vertex -9.06532 3.58921 30
      vertex -9.06532 3.58921 0
    endloop
  endfacet
  facet normal -0.982287 0.187381 0
    outer loop
      vertex 9.44369 -2.42473 0
      vertex 9.67312 -1.222 30
      vertex 9.67312 -1.222 0
    endloop
  endfacet
  facet normal -0.982287 0.187381 0
    outer loop
      vertex 9.67312 -1.222 30
      vertex 9.44369 -2.42473 0
      vertex 9.44369 -2.42473 30
    endloop
  endfacet
  facet normal -0.982287 -0.187381 0
    outer loop
      vertex 9.67312 1.222 0
      vertex 9.44369 2.42473 30
      vertex 9.44369 2.42473 0
    endloop
  endfacet
  facet normal -0.982287 -0.187381 0
    outer loop
      vertex 9.44369 2.42473 30
      vertex 9.67312 1.222 0
      vertex 9.67312 1.222 30
    endloop
  endfacet
  facet normal 0 -1 0
    outer loop
      vertex -0.612207 9.73076 0
      vertex 0.612207 9.73076 30
      vertex -0.612207 9.73076 30
    endloop
  endfacet
  facet normal 0 -1 -0
    outer loop
      vertex 0.612207 9.73076 30
      vertex -0.612207 9.73076 0
      vertex 0.612207 9.73076 0
    endloop
  endfacet
  facet normal -0.587785 -0.809017 0
    outer loop
      vertex 5.22431 8.2322 0
      vertex 6.21488 7.5125 30
      vertex 5.22431 8.2322 30
    endloop
  endfacet
  facet normal -0.587785 -0.809017 -0
    outer loop
      vertex 6.21488 7.5125 30
      vertex 5.22431 8.2322 0
      vertex 6.21488 7.5125 0
    endloop
  endfacet
  facet normal 0.982287 -0.187381 0
    outer loop
      vertex -9.67312 1.222 30
      vertex -9.44369 2.42473 0
      vertex -9.44369 2.42473 30
    endloop
  endfacet
  facet normal 0.982287 -0.187381 0
    outer loop
      vertex -9.44369 2.42473 0
      vertex -9.67312 1.222 30
      vertex -9.67312 1.222 0
    endloop
  endfacet
  facet normal 0.770513 -0.637424 0
    outer loop
      vertex -7.88792 5.73091 30
      vertex -7.10744 6.67433 0
      vertex -7.10744 6.67433 30
    endloop
  endfacet
  facet normal 0.770513 -0.637424 0
    outer loop
      vertex -7.10744 6.67433 0
      vertex -7.88792 5.73091 30
      vertex -7.88792 5.73091 0
    endloop
  endfacet
  facet normal 0.24869 -0.968583 0
    outer loop
      vertex -3.01292 9.2728 0
      vertex -1.82697 9.5773 30
      vertex -3.01292 9.2728 30
    endloop
  endfacet
  facet normal 0.24869 -0.968583 0
    outer loop
      vertex -1.82697 9.5773 30
      vertex -3.01292 9.2728 0
      vertex -1.82697 9.5773 0
    endloop
  endfacet
  facet normal 0.684547 -0.728968 0
    outer loop
      vertex -7.10744 6.67433 0
      vertex -6.21488 7.5125 30
      vertex -7.10744 6.67433 30
    endloop
  endfacet
  facet normal 0.684547 -0.728968 0
    outer loop
      vertex -6.21488 7.5125 30
      vertex -7.10744 6.67433 0
      vertex -6.21488 7.5125 0
    endloop
  endfacet
  facet normal -0.998027 -0.0627911 0
    outer loop
      vertex 9.75 0 0
      vertex 9.67312 1.222 30
      vertex 9.67312 1.222 0
    endloop
  endfacet
  facet normal -0.998027 -0.0627911 0
    outer loop
      vertex 9.67312 1.222 30
      vertex 9.75 0 0
      vertex 9.75 0 30
    endloop
  endfacet
  facet normal -0.951056 0.309017 0
    outer loop
      vertex 9.06532 -3.58921 0
      vertex 9.44369 -2.42473 30
      vertex 9.44369 -2.42473 0
    endloop
  endfacet
  facet normal -0.951056 0.309017 0
    outer loop
      vertex 9.44369 -2.42473 30
      vertex 9.06532 -3.58921 0
      vertex 9.06532 -3.58921 30
    endloop
  endfacet
  facet normal -0.587785 0.809017 0
    outer loop
      vertex 6.21488 -7.5125 0
      vertex 5.22431 -8.2322 30
      vertex 6.21488 -7.5125 30
    endloop
  endfacet
  facet normal -0.587785 0.809017 0
    outer loop
      vertex 5.22431 -8.2322 30
      vertex 6.21488 -7.5125 0
      vertex 5.22431 -8.2322 0
    endloop
  endfacet
  facet normal -0.684547 -0.728968 0
    outer loop
      vertex 6.21488 7.5125 0
      vertex 7.10744 6.67433 30
      vertex 6.21488 7.5125 30
    endloop
  endfacet
  facet normal -0.684547 -0.728968 -0
    outer loop
      vertex 7.10744 6.67433 30
      vertex 6.21488 7.5125 0
      vertex 7.10744 6.67433 0
    endloop
  endfacet
  facet normal -0.24869 -0.968583 0
    outer loop
      vertex 1.82697 9.5773 0
      vertex 3.01292 9.2728 30
      vertex 1.82697 9.5773 30
    endloop
  endfacet
  facet normal -0.24869 -0.968583 -0
    outer loop
      vertex 3.01292 9.2728 30
      vertex 1.82697 9.5773 0
      vertex 3.01292 9.2728 0
    endloop
  endfacet
  facet normal -0.125334 -0.992115 0
    outer loop
      vertex 0.612207 9.73076 0
      vertex 1.82697 9.5773 30
      vertex 0.612207 9.73076 30
    endloop
  endfacet
  facet normal -0.125334 -0.992115 -0
    outer loop
      vertex 1.82697 9.5773 30
      vertex 0.612207 9.73076 0
      vertex 1.82697 9.5773 0
    endloop
  endfacet
  facet normal -0.481754 -0.876307 0
    outer loop
      vertex 4.15135 8.82206 0
      vertex 5.22431 8.2322 30
      vertex 4.15135 8.82206 30
    endloop
  endfacet
  facet normal -0.481754 -0.876307 -0
    outer loop
      vertex 5.22431 8.2322 30
      vertex 4.15135 8.82206 0
      vertex 5.22431 8.2322 0
    endloop
  endfacet
  facet normal 0.998027 -0.0627911 0
    outer loop
      vertex -9.75 0 30
      vertex -9.67312 1.222 0
      vertex -9.67312 1.222 30
    endloop
  endfacet
  facet normal 0.998027 -0.0627911 0
    outer loop
      vertex -9.67312 1.222 0
      vertex -9.75 0 30
      vertex -9.75 0 0
    endloop
  endfacet
  facet normal 0.951056 -0.309017 0
    outer loop
      vertex -9.44369 2.42473 30
      vertex -9.06532 3.58921 0
      vertex -9.06532 3.58921 30
    endloop
  endfacet
  facet normal 0.951056 -0.309017 0
    outer loop
      vertex -9.06532 3.58921 0
      vertex -9.44369 2.42473 30
      vertex -9.44369 2.42473 0
    endloop
  endfacet
  facet normal 0.844328 -0.535826 0
    outer loop
      vertex -8.54399 4.6971 30
      vertex -7.88792 5.73091 0
      vertex -7.88792 5.73091 30
    endloop
  endfacet
  facet normal 0.844328 -0.535826 0
    outer loop
      vertex -7.88792 5.73091 0
      vertex -8.54399 4.6971 30
      vertex -8.54399 4.6971 0
    endloop
  endfacet
  facet normal 0.125334 -0.992115 0
    outer loop
      vertex -1.82697 9.5773 0
      vertex -0.612207 9.73076 30
      vertex -1.82697 9.5773 30
    endloop
  endfacet
  facet normal 0.125334 -0.992115 0
    outer loop
      vertex -0.612207 9.73076 30
      vertex -1.82697 9.5773 0
      vertex -0.612207 9.73076 0
    endloop
  endfacet
  facet normal 0.587785 -0.809017 0
    outer loop
      vertex -6.21488 7.5125 0
      vertex -5.22431 8.2322 30
      vertex -6.21488 7.5125 30
    endloop
  endfacet
  facet normal 0.587785 -0.809017 0
    outer loop
      vertex -5.22431 8.2322 30
      vertex -6.21488 7.5125 0
      vertex -5.22431 8.2322 0
    endloop
  endfacet
  facet normal 0.481754 -0.876307 0
    outer loop
      vertex -5.22431 8.2322 0
      vertex -4.15135 8.82206 30
      vertex -5.22431 8.2322 30
    endloop
  endfacet
  facet normal 0.481754 -0.876307 0
    outer loop
      vertex -4.15135 8.82206 30
      vertex -5.22431 8.2322 0
      vertex -4.15135 8.82206 0
    endloop
  endfacet
  facet normal -0.998027 0.0627911 0
    outer loop
      vertex 9.67312 -1.222 0
      vertex 9.75 0 30
      vertex 9.75 0 0
    endloop
  endfacet
  facet normal -0.998027 0.0627911 0
    outer loop
      vertex 9.75 0 30
      vertex 9.67312 -1.222 0
      vertex 9.67312 -1.222 30
    endloop
  endfacet
  facet normal -0.844328 0.535826 0
    outer loop
      vertex 7.88792 -5.73091 0
      vertex 8.54399 -4.6971 30
      vertex 8.54399 -4.6971 0
    endloop
  endfacet
  facet normal -0.844328 0.535826 0
    outer loop
      vertex 8.54399 -4.6971 30
      vertex 7.88792 -5.73091 0
      vertex 7.88792 -5.73091 30
    endloop
  endfacet
  facet normal 0.904827 0.42578 0
    outer loop
      vertex -8.54399 -4.6971 30
      vertex -9.06532 -3.58921 0
      vertex -9.06532 -3.58921 30
    endloop
  endfacet
  facet normal 0.904827 0.42578 0
    outer loop
      vertex -9.06532 -3.58921 0
      vertex -8.54399 -4.6971 30
      vertex -8.54399 -4.6971 0
    endloop
  endfacet
  facet normal -0.684547 0.728968 0
    outer loop
      vertex 7.10744 -6.67433 0
      vertex 6.21488 -7.5125 30
      vertex 7.10744 -6.67433 30
    endloop
  endfacet
  facet normal -0.684547 0.728968 0
    outer loop
      vertex 6.21488 -7.5125 30
      vertex 7.10744 -6.67433 0
      vertex 6.21488 -7.5125 0
    endloop
  endfacet
  facet normal -0.904827 -0.42578 0
    outer loop
      vertex 9.06532 3.58921 0
      vertex 8.54399 4.6971 30
      vertex 8.54399 4.6971 0
    endloop
  endfacet
  facet normal -0.904827 -0.42578 0
    outer loop
      vertex 8.54399 4.6971 30
      vertex 9.06532 3.58921 0
      vertex 9.06532 3.58921 30
    endloop
  endfacet
  facet normal -0.951056 -0.309017 0
    outer loop
      vertex 9.44369 2.42473 0
      vertex 9.06532 3.58921 30
      vertex 9.06532 3.58921 0
    endloop
  endfacet
  facet normal -0.951056 -0.309017 0
    outer loop
      vertex 9.06532 3.58921 30
      vertex 9.44369 2.42473 0
      vertex 9.44369 2.42473 30
    endloop
  endfacet
  facet normal -0.770513 -0.637424 0
    outer loop
      vertex 7.88792 5.73091 0
      vertex 7.10744 6.67433 30
      vertex 7.10744 6.67433 0
    endloop
  endfacet
  facet normal -0.770513 -0.637424 0
    outer loop
      vertex 7.10744 6.67433 30
      vertex 7.88792 5.73091 0
      vertex 7.88792 5.73091 30
    endloop
  endfacet
  facet normal -0.904827 0.42578 0
    outer loop
      vertex 8.54399 -4.6971 0
      vertex 9.06532 -3.58921 30
      vertex 9.06532 -3.58921 0
    endloop
  endfacet
  facet normal -0.904827 0.42578 0
    outer loop
      vertex 9.06532 -3.58921 30
      vertex 8.54399 -4.6971 0
      vertex 8.54399 -4.6971 30
    endloop
  endfacet
  facet normal 0 1 -0
    outer loop
      vertex 0.612207 -9.73076 0
      vertex -0.612207 -9.73076 30
      vertex 0.612207 -9.73076 30
    endloop
  endfacet
  facet normal 0 1 0
    outer loop
      vertex -0.612207 -9.73076 30
      vertex 0.612207 -9.73076 0
      vertex -0.612207 -9.73076 0
    endloop
  endfacet
  facet normal 0.998027 0.0627911 0
    outer loop
      vertex -9.67312 -1.222 30
      vertex -9.75 0 0
      vertex -9.75 0 30
    endloop
  endfacet
  facet normal 0.998027 0.0627911 0
    outer loop
      vertex -9.75 0 0
      vertex -9.67312 -1.222 30
      vertex -9.67312 -1.222 0
    endloop
  endfacet
  facet normal 0.951056 0.309017 0
    outer loop
      vertex -9.06532 -3.58921 30
      vertex -9.44369 -2.42473 0
      vertex -9.44369 -2.42473 30
    endloop
  endfacet
  facet normal 0.951056 0.309017 0
    outer loop
      vertex -9.44369 -2.42473 0
      vertex -9.06532 -3.58921 30
      vertex -9.06532 -3.58921 0
    endloop
  endfacet
  facet normal -0.125334 0.992115 0
    outer loop
      vertex 1.82697 -9.5773 0
      vertex 0.612207 -9.73076 30
      vertex 1.82697 -9.5773 30
    endloop
  endfacet
  facet normal -0.125334 0.992115 0
    outer loop
      vertex 0.612207 -9.73076 30
      vertex 1.82697 -9.5773 0
      vertex 0.612207 -9.73076 0
    endloop
  endfacet
  facet normal -0.481754 0.876307 0
    outer loop
      vertex 5.22431 -8.2322 0
      vertex 4.15135 -8.82206 30
      vertex 5.22431 -8.2322 30
    endloop
  endfacet
  facet normal -0.481754 0.876307 0
    outer loop
      vertex 4.15135 -8.82206 30
      vertex 5.22431 -8.2322 0
      vertex 4.15135 -8.82206 0
    endloop
  endfacet
  facet normal -0.368125 0.929776 0
    outer loop
      vertex 4.15135 -8.82206 0
      vertex 3.01292 -9.2728 30
      vertex 4.15135 -8.82206 30
    endloop
  endfacet
  facet normal -0.368125 0.929776 0
    outer loop
      vertex 3.01292 -9.2728 30
      vertex 4.15135 -8.82206 0
      vertex 3.01292 -9.2728 0
    endloop
  endfacet
  facet normal -0.770513 0.637424 0
    outer loop
      vertex 7.10744 -6.67433 0
      vertex 7.88792 -5.73091 30
      vertex 7.88792 -5.73091 0
    endloop
  endfacet
  facet normal -0.770513 0.637424 0
    outer loop
      vertex 7.88792 -5.73091 30
      vertex 7.10744 -6.67433 0
      vertex 7.10744 -6.67433 30
    endloop
  endfacet
  facet normal 0.587785 0.809017 -0
    outer loop
      vertex -5.22431 -8.2322 0
      vertex -6.21488 -7.5125 30
      vertex -5.22431 -8.2322 30
    endloop
  endfacet
  facet normal 0.587785 0.809017 0
    outer loop
      vertex -6.21488 -7.5125 30
      vertex -5.22431 -8.2322 0
      vertex -6.21488 -7.5125 0
    endloop
  endfacet
  facet normal 0.24869 0.968583 -0
    outer loop
      vertex -1.82697 -9.5773 0
      vertex -3.01292 -9.2728 30
      vertex -1.82697 -9.5773 30
    endloop
  endfacet
  facet normal 0.24869 0.968583 0
    outer loop
      vertex -3.01292 -9.2728 30
      vertex -1.82697 -9.5773 0
      vertex -3.01292 -9.2728 0
    endloop
  endfacet
  facet normal 0.770513 0.637424 0
    outer loop
      vertex -7.10744 -6.67433 30
      vertex -7.88792 -5.73091 0
      vertex -7.88792 -5.73091 30
    endloop
  endfacet
  facet normal 0.770513 0.637424 0
    outer loop
      vertex -7.88792 -5.73091 0
      vertex -7.10744 -6.67433 30
      vertex -7.10744 -6.67433 0
    endloop
  endfacet
  facet normal 0.684547 0.728968 -0
    outer loop
      vertex -6.21488 -7.5125 0
      vertex -7.10744 -6.67433 30
      vertex -6.21488 -7.5125 30
    endloop
  endfacet
  facet normal 0.684547 0.728968 0
    outer loop
      vertex -7.10744 -6.67433 30
      vertex -6.21488 -7.5125 0
      vertex -7.10744 -6.67433 0
    endloop
  endfacet
  facet normal 0.982287 0.187381 0
    outer loop
      vertex -9.44369 -2.42473 30
      vertex -9.67312 -1.222 0
      vertex -9.67312 -1.222 30
    endloop
  endfacet
  facet normal 0.982287 0.187381 0
    outer loop
      vertex -9.67312 -1.222 0
      vertex -9.44369 -2.42473 30
      vertex -9.44369 -2.42473 0
    endloop
  endfacet
  facet normal -0.24869 0.968583 0
    outer loop
      vertex 3.01292 -9.2728 0
      vertex 1.82697 -9.5773 30
      vertex 3.01292 -9.2728 30
    endloop
  endfacet
  facet normal -0.24869 0.968583 0
    outer loop
      vertex 1.82697 -9.5773 30
      vertex 3.01292 -9.2728 0
      vertex 1.82697 -9.5773 0
    endloop
  endfacet
  facet normal 0.481754 0.876307 -0
    outer loop
      vertex -4.15135 -8.82206 0
      vertex -5.22431 -8.2322 30
      vertex -4.15135 -8.82206 30
    endloop
  endfacet
  facet normal 0.481754 0.876307 0
    outer loop
      vertex -5.22431 -8.2322 30
      vertex -4.15135 -8.82206 0
      vertex -5.22431 -8.2322 0
    endloop
  endfacet
  facet normal 0.125334 0.992115 -0
    outer loop
      vertex -0.612207 -9.73076 0
      vertex -1.82697 -9.5773 30
      vertex -0.612207 -9.73076 30
    endloop
  endfacet
  facet normal 0.125334 0.992115 0
    outer loop
      vertex -1.82697 -9.5773 30
      vertex -0.612207 -9.73076 0
      vertex -1.82697 -9.5773 0
    endloop
  endfacet
  facet normal 0.844328 0.535826 0
    outer loop
      vertex -7.88792 -5.73091 30
      vertex -8.54399 -4.6971 0
      vertex -8.54399 -4.6971 30
    endloop
  endfacet
  facet normal 0.844328 0.535826 0
    outer loop
      vertex -8.54399 -4.6971 0
      vertex -7.88792 -5.73091 30
      vertex -7.88792 -5.73091 0
    endloop
  endfacet
  facet normal 0.368125 0.929776 -0
    outer loop
      vertex -3.01292 -9.2728 0
      vertex -4.15135 -8.82206 30
      vertex -3.01292 -9.2728 30
    endloop
  endfacet
  facet normal 0.368125 0.929776 0
    outer loop
      vertex -4.15135 -8.82206 30
      vertex -3.01292 -9.2728 0
      vertex -4.15135 -8.82206 0
    endloop
  endfacet
endsolid OpenSCAD_Model
