solid OpenSCAD_Model
  facet normal 0.998027 0.062791 0
    outer loop
      vertex 10 0 30
      vertex 9.92115 1.25333 0
      vertex 9.92115 1.25333 30
    endloop
  endfacet
  facet normal 0.998027 0.062791 0
    outer loop
      vertex 9.92115 1.25333 0
      vertex 10 0 30
      vertex 10 0 0
    endloop
  endfacet
  facet normal -0.998027 0.062791 0
    outer loop
      vertex -10 0 0
      vertex -9.92115 1.25333 30
      vertex -9.92115 1.25333 0
    endloop
  endfacet
  facet normal -0.998027 0.062791 0
    outer loop
      vertex -9.92115 1.25333 30
      vertex -10 0 0
      vertex -10 0 30
    endloop
  endfacet
  facet normal 0 1 -0
    outer loop
      vertex 0.627905 9.98027 0
      vertex -0.627905 9.98027 30
      vertex 0.627905 9.98027 30
    endloop
  endfacet
  facet normal 0 1 0
    outer loop
      vertex -0.627905 9.98027 30
      vertex 0.627905 9.98027 0
      vertex -0.627905 9.98027 0
    endloop
  endfacet
  facet normal 0 -1 0
    outer loop
      vertex -0.627905 -9.98027 0
      vertex 0.627905 -9.98027 30
      vertex -0.627905 -9.98027 30
    endloop
  endfacet
  facet normal 0 -1 -0
    outer loop
      vertex 0.627905 -9.98027 30
      vertex -0.627905 -9.98027 0
      vertex 0.627905 -9.98027 0
    endloop
  endfacet
  facet normal 0.684547 0.728969 -0
    outer loop
      vertex 7.28969 6.84547 0
      vertex 6.37424 7.70513 30
      vertex 7.28969 6.84547 30
    endloop
  endfacet
  facet normal 0.684547 0.728969 0
    outer loop
      vertex 6.37424 7.70513 30
      vertex 7.28969 6.84547 0
      vertex 6.37424 7.70513 0
    endloop
  endfacet
  facet normal -0.684547 0.728969 0
    outer loop
      vertex -6.37424 7.70513 0
      vertex -7.28969 6.84547 30
      vertex -6.37424 7.70513 30
    endloop
  endfacet
  facet normal -0.684547 0.728969 0
    outer loop
      vertex -7.28969 6.84547 30
      vertex -6.37424 7.70513 0
      vertex -7.28969 6.84547 0
    endloop
  endfacet
  facet normal -0.368125 0.929776 0
    outer loop
      vertex -3.09017 9.51056 0
      vertex -4.25779 9.04827 30
      vertex -3.09017 9.51056 30
    endloop
  endfacet
  facet normal -0.368125 0.929776 0
    outer loop
      vertex -4.25779 9.04827 30
      vertex -3.09017 9.51056 0
      vertex -4.25779 9.04827 0
    endloop
  endfacet
  facet normal 0.904827 -0.425779 0
    outer loop
      vertex 8.76307 -4.81754 30
      vertex 9.29776 -3.68124 0
      vertex 9.29776 -3.68124 30
    endloop
  endfacet
  facet normal 0.904827 -0.425779 0
    outer loop
      vertex 9.29776 -3.68124 0
      vertex 8.76307 -4.81754 30
      vertex 8.76307 -4.81754 0
    endloop
  endfacet
  facet normal 0.904827 0.425779 0
    outer loop
      vertex 9.29776 3.68124 30
      vertex 8.76307 4.81754 0
      vertex 8.76307 4.81754 30
    endloop
  endfacet
  facet normal 0.904827 0.425779 0
    outer loop
      vertex 8.76307 4.81754 0
      vertex 9.29776 3.68124 30
      vertex 9.29776 3.68124 0
    endloop
  endfacet
  facet normal 0.844328 0.535826 0
    outer loop
      vertex 8.76307 4.81754 30
      vertex 8.09017 5.87785 0
      vertex 8.09017 5.87785 30
    endloop
  endfacet
  facet normal 0.844328 0.535826 0
    outer loop
      vertex 8.09017 5.87785 0
      vertex 8.76307 4.81754 30
      vertex 8.76307 4.81754 0
    endloop
  endfacet
  facet normal 0.368125 0.929776 -0
    outer loop
      vertex 4.25779 9.04827 0
      vertex 3.09017 9.51056 30
      vertex 4.25779 9.04827 30
    endloop
  endfacet
  facet normal 0.368125 0.929776 0
    outer loop
      vertex 3.09017 9.51056 30
      vertex 4.25779 9.04827 0
      vertex 3.09017 9.51056 0
    endloop
  endfacet
  facet normal 0.24869 0.968583 -0
    outer loop
      vertex 3.09017 9.51056 0
      vertex 1.87381 9.82287 30
      vertex 3.09017 9.51056 30
    endloop
  endfacet
  facet normal 0.24869 0.968583 0
    outer loop
      vertex 1.87381 9.82287 30
      vertex 3.09017 9.51056 0
      vertex 1.87381 9.82287 0
    endloop
  endfacet
  facet normal 0.481754 0.876307 -0
    outer loop
      vertex 5.35827 8.44328 0
      vertex 4.25779 9.04827 30
      vertex 5.35827 8.44328 30
    endloop
  endfacet
  facet normal 0.481754 0.876307 0
    outer loop
      vertex 4.25779 9.04827 30
      vertex 5.35827 8.44328 0
      vertex 4.25779 9.04827 0
    endloop
  endfacet
  facet normal -0.904827 0.425779 0
    outer loop
      vertex -9.29776 3.68124 0
      vertex -8.76307 4.81754 30
      vertex -8.76307 4.81754 0
    endloop
  endfacet
  facet normal -0.904827 0.425779 0
    outer loop
      vertex -8.76307 4.81754 30
      vertex -9.29776 3.68124 0
      vertex -9.29776 3.68124 30
    endloop
  endfacet
  facet normal -0.770513 0.637424 0
    outer loop
      vertex -8.09017 5.87785 0
      vertex -7.28969 6.84547 30
      vertex -7.28969 6.84547 0
    endloop
  endfacet
  facet normal -0.770513 0.637424 0
    outer loop
      vertex -7.28969 6.84547 30
      vertex -8.09017 5.87785 0
      vertex -8.09017 5.87785 30
    endloop
  endfacet
  facet normal -0.951057 0.309017 0
    outer loop
      vertex -9.68583 2.4869 0
      vertex -9.29776 3.68124 30
      vertex -9.29776 3.68124 0
    endloop
  endfacet
  facet normal -0.951057 0.309017 0
    outer loop
      vertex -9.29776 3.68124 30
      vertex -9.68583 2.4869 0
      vertex -9.68583 2.4869 30
    endloop
  endfacet
  facet normal -0.481754 0.876307 0
    outer loop
      vertex -4.25779 9.04827 0
      vertex -5.35827 8.44328 30
      vertex -4.25779 9.04827 30
    endloop
  endfacet
  facet normal -0.481754 0.876307 0
    outer loop
      vertex -5.35827 8.44328 30
      vertex -4.25779 9.04827 0
      vertex -5.35827 8.44328 0
    endloop
  endfacet
  facet normal -0.125333 0.992115 0
    outer loop
      vertex -0.627905 9.98027 0
      vertex -1.87381 9.82287 30
      vertex -0.627905 9.98027 30
    endloop
  endfacet
  facet normal -0.125333 0.992115 0
    outer loop
      vertex -1.87381 9.82287 30
      vertex -0.627905 9.98027 0
      vertex -1.87381 9.82287 0
    endloop
  endfacet
  facet normal 0.125333 -0.992115 0
    outer loop
      vertex 0.627905 -9.98027 0
      vertex 1.87381 -9.82287 30
      vertex 0.627905 -9.98027 30
    endloop
  endfacet
  facet normal 0.125333 -0.992115 0
    outer loop
      vertex 1.87381 -9.82287 30
      vertex 0.627905 -9.98027 0
      vertex 1.87381 -9.82287 0
    endloop
  endfacet
  facet normal 0.368125 -0.929776 0
    outer loop
      vertex 3.09017 -9.51056 0
      vertex 4.25779 -9.04827 30
      vertex 3.09017 -9.51056 30
    endloop
  endfacet
  facet normal 0.368125 -0.929776 0
    outer loop
      vertex 4.25779 -9.04827 30
      vertex 3.09017 -9.51056 0
      vertex 4.25779 -9.04827 0
    endloop
  endfacet
  facet normal 0.951057 0.309017 0
    outer loop
      vertex 9.68583 2.4869 30
      vertex 9.29776 3.68124 0
      vertex 9.29776 3.68124 30
    endloop
  endfacet
  facet normal 0.951057 0.309017 0
    outer loop
      vertex 9.29776 3.68124 0
      vertex 9.68583 2.4869 30
      vertex 9.68583 2.4869 0
    endloop
  endfacet
  facet normal 0.982287 0.187381 0
    outer loop
      vertex 9.92115 1.25333 30
      vertex 9.68583 2.4869 0
      vertex 9.68583 2.4869 30
    endloop
  endfacet
  facet normal 0.982287 0.187381 0
    outer loop
      vertex 9.68583 2.4869 0
      vertex 9.92115 1.25333 30
      vertex 9.92115 1.25333 0
    endloop
  endfacet
  facet normal 0.770513 0.637424 0
    outer loop
      vertex 8.09017 5.87785 30
      vertex 7.28969 6.84547 0
      vertex 7.28969 6.84547 30
    endloop
  endfacet
  facet normal 0.770513 0.637424 0
    outer loop
      vertex 7.28969 6.84547 0
      vertex 8.09017 5.87785 30
      vertex 8.09017 5.87785 0
    endloop
  endfacet
  facet normal 0.125333 0.992115 -0
    outer loop
      vertex 1.87381 9.82287 0
      vertex 0.627905 9.98027 30
      vertex 1.87381 9.82287 30
    endloop
  endfacet
  facet normal 0.125333 0.992115 0
    outer loop
      vertex 0.627905 9.98027 30
      vertex 1.87381 9.82287 0
      vertex 0.627905 9.98027 0
    endloop
  endfacet
  facet normal 0.587786 0.809017 -0
    outer loop
      vertex 6.37424 7.70513 0
      vertex 5.35827 8.44328 30
      vertex 6.37424 7.70513 30
    endloop
  endfacet
  facet normal 0.587786 0.809017 0
    outer loop
      vertex 5.35827 8.44328 30
      vertex 6.37424 7.70513 0
      vertex 5.35827 8.44328 0
    endloop
  endfacet
  facet normal -0.844328 0.535826 0
    outer loop
      vertex -8.76307 4.81754 0
      vertex -8.09017 5.87785 30
      vertex -8.09017 5.87785 0
    endloop
  endfacet
  facet normal -0.844328 0.535826 0
    outer loop
      vertex -8.09017 5.87785 30
      vertex -8.76307 4.81754 0
      vertex -8.76307 4.81754 30
    endloop
  endfacet
  facet normal -0.982287 0.187381 0
    outer loop
      vertex -9.92115 1.25333 0
      vertex -9.68583 2.4869 30
      vertex -9.68583 2.4869 0
    endloop
  endfacet
  facet normal -0.982287 0.187381 0
    outer loop
      vertex -9.68583 2.4869 30
      vertex -9.92115 1.25333 0
      vertex -9.92115 1.25333 30
    endloop
  endfacet
  facet normal 0 0 1
    outer loop
      vertex 9 0 30
      vertex 10 0 30
      vertex 9.92115 1.25333 30
    endloop
  endfacet
  facet normal 0 0 1
    outer loop
      vertex 8.92903 1.128 30
      vertex 9.92115 1.25333 30
      vertex 9.68583 2.4869 30
    endloop
  endfacet
  facet normal 0 0 1
    outer loop
      vertex 10 0 30
      vertex 9 0 30
      vertex 9.92115 -1.25333 30
    endloop
  endfacet
  facet normal 0 0 1
    outer loop
      vertex 8.71725 2.23821 30
      vertex 9.68583 2.4869 30
      vertex 9.29776 3.68124 30
    endloop
  endfacet
  facet normal -0 0 1
    outer loop
      vertex 8.92903 -1.128 30
      vertex 9.92115 -1.25333 30
      vertex 9 0 30
    endloop
  endfacet
  facet normal 0 0 1
    outer loop
      vertex 9.92115 -1.25333 30
      vertex 8.92903 -1.128 30
      vertex 9.68583 -2.4869 30
    endloop
  endfacet
  facet normal 0 0 1
    outer loop
      vertex 9.92115 1.25333 30
      vertex 8.92903 1.128 30
      vertex 9 0 30
    endloop
  endfacet
  facet normal 0 0 1
    outer loop
      vertex 8.36799 3.31312 30
      vertex 9.29776 3.68124 30
      vertex 8.76307 4.81754 30
    endloop
  endfacet
  facet normal 0 0 1
    outer loop
      vertex 9.68583 2.4869 30
      vertex 8.71725 2.23821 30
      vertex 8.92903 1.128 30
    endloop
  endfacet
  facet normal 0 0 1
    outer loop
      vertex 9.29776 3.68124 30
      vertex 8.36799 3.31312 30
      vertex 8.71725 2.23821 30
    endloop
  endfacet
  facet normal 0 0 1
    outer loop
      vertex 7.88676 4.33578 30
      vertex 8.76307 4.81754 30
      vertex 8.09017 5.87785 30
    endloop
  endfacet
  facet normal 0 0 1
    outer loop
      vertex 8.76307 4.81754 30
      vertex 7.88676 4.33578 30
      vertex 8.36799 3.31312 30
    endloop
  endfacet
  facet normal 0 0 1
    outer loop
      vertex 7.28115 5.29007 30
      vertex 8.09017 5.87785 30
      vertex 7.28969 6.84547 30
    endloop
  endfacet
  facet normal 0 0 1
    outer loop
      vertex 8.09017 5.87785 30
      vertex 7.28115 5.29007 30
      vertex 7.88676 4.33578 30
    endloop
  endfacet
  facet normal 0 0 1
    outer loop
      vertex 7.28969 6.84547 30
      vertex 6.56072 6.16092 30
      vertex 7.28115 5.29007 30
    endloop
  endfacet
  facet normal 0 0 1
    outer loop
      vertex 6.37424 7.70513 30
      vertex 6.56072 6.16092 30
      vertex 7.28969 6.84547 30
    endloop
  endfacet
  facet normal 0 0 1
    outer loop
      vertex 6.37424 7.70513 30
      vertex 5.73682 6.93462 30
      vertex 6.56072 6.16092 30
    endloop
  endfacet
  facet normal 0 0 1
    outer loop
      vertex 5.35827 8.44328 30
      vertex 5.73682 6.93462 30
      vertex 6.37424 7.70513 30
    endloop
  endfacet
  facet normal 0 0 1
    outer loop
      vertex 5.35827 8.44328 30
      vertex 4.82244 7.59895 30
      vertex 5.73682 6.93462 30
    endloop
  endfacet
  facet normal 0 0 1
    outer loop
      vertex 4.25779 9.04827 30
      vertex 4.82244 7.59895 30
      vertex 5.35827 8.44328 30
    endloop
  endfacet
  facet normal 0 0 1
    outer loop
      vertex 4.25779 9.04827 30
      vertex 3.83201 8.14344 30
      vertex 4.82244 7.59895 30
    endloop
  endfacet
  facet normal 0 0 1
    outer loop
      vertex 3.09017 9.51056 30
      vertex 3.83201 8.14344 30
      vertex 4.25779 9.04827 30
    endloop
  endfacet
  facet normal 0 0 1
    outer loop
      vertex 3.09017 9.51056 30
      vertex 2.78115 8.55951 30
      vertex 3.83201 8.14344 30
    endloop
  endfacet
  facet normal 0 0 1
    outer loop
      vertex 1.87381 9.82287 30
      vertex 2.78115 8.55951 30
      vertex 3.09017 9.51056 30
    endloop
  endfacet
  facet normal 0 0 1
    outer loop
      vertex 1.87381 9.82287 30
      vertex 1.68643 8.84058 30
      vertex 2.78115 8.55951 30
    endloop
  endfacet
  facet normal 0 0 1
    outer loop
      vertex 0.627905 9.98027 30
      vertex 1.68643 8.84058 30
      vertex 1.87381 9.82287 30
    endloop
  endfacet
  facet normal 0 0 1
    outer loop
      vertex 0.627905 9.98027 30
      vertex 0.565114 8.98224 30
      vertex 1.68643 8.84058 30
    endloop
  endfacet
  facet normal 0 0 1
    outer loop
      vertex 0.627905 9.98027 30
      vertex -0.565114 8.98224 30
      vertex 0.565114 8.98224 30
    endloop
  endfacet
  facet normal -0 0 1
    outer loop
      vertex -0.627905 9.98027 30
      vertex -0.565114 8.98224 30
      vertex 0.627905 9.98027 30
    endloop
  endfacet
  facet normal 0 0 1
    outer loop
      vertex -0.627905 9.98027 30
      vertex -1.68643 8.84058 30
      vertex -0.565114 8.98224 30
    endloop
  endfacet
  facet normal -0 0 1
    outer loop
      vertex -1.87381 9.82287 30
      vertex -1.68643 8.84058 30
      vertex -0.627905 9.98027 30
    endloop
  endfacet
  facet normal 0 0 1
    outer loop
      vertex -1.87381 9.82287 30
      vertex -2.78115 8.55951 30
      vertex -1.68643 8.84058 30
    endloop
  endfacet
  facet normal -0 0 1
    outer loop
      vertex -3.09017 9.51056 30
      vertex -2.78115 8.55951 30
      vertex -1.87381 9.82287 30
    endloop
  endfacet
  facet normal 0 0 1
    outer loop
      vertex -3.09017 9.51056 30
      vertex -3.83201 8.14344 30
      vertex -2.78115 8.55951 30
    endloop
  endfacet
  facet normal -0 0 1
    outer loop
      vertex -4.25779 9.04827 30
      vertex -3.83201 8.14344 30
      vertex -3.09017 9.51056 30
    endloop
  endfacet
  facet normal 0 0 1
    outer loop
      vertex -4.25779 9.04827 30
      vertex -4.82244 7.59895 30
      vertex -3.83201 8.14344 30
    endloop
  endfacet
  facet normal -0 0 1
    outer loop
      vertex -5.35827 8.44328 30
      vertex -4.82244 7.59895 30
      vertex -4.25779 9.04827 30
    endloop
  endfacet
  facet normal 0 0 1
    outer loop
      vertex -5.35827 8.44328 30
      vertex -5.73682 6.93462 30
      vertex -4.82244 7.59895 30
    endloop
  endfacet
  facet normal -0 0 1
    outer loop
      vertex -6.37424 7.70513 30
      vertex -5.73682 6.93462 30
      vertex -5.35827 8.44328 30
    endloop
  endfacet
  facet normal 0 0 1
    outer loop
      vertex -6.37424 7.70513 30
      vertex -6.56072 6.16092 30
      vertex -5.73682 6.93462 30
    endloop
  endfacet
  facet normal -0 0 1
    outer loop
      vertex -7.28969 6.84547 30
      vertex -6.56072 6.16092 30
      vertex -6.37424 7.70513 30
    endloop
  endfacet
  facet normal 0 0 1
    outer loop
      vertex -6.56072 6.16092 30
      vertex -7.28969 6.84547 30
      vertex -7.28115 5.29007 30
    endloop
  endfacet
  facet normal -0 0 1
    outer loop
      vertex -8.09017 5.87785 30
      vertex -7.28115 5.29007 30
      vertex -7.28969 6.84547 30
    endloop
  endfacet
  facet normal 0 0 1
    outer loop
      vertex -7.28115 5.29007 30
      vertex -8.09017 5.87785 30
      vertex -7.88676 4.33578 30
    endloop
  endfacet
  facet normal -0 0 1
    outer loop
      vertex -8.76307 4.81754 30
      vertex -7.88676 4.33578 30
      vertex -8.09017 5.87785 30
    endloop
  endfacet
  facet normal 0 0 1
    outer loop
      vertex -7.88676 4.33578 30
      vertex -8.76307 4.81754 30
      vertex -8.36799 3.31312 30
    endloop
  endfacet
  facet normal -0 0 1
    outer loop
      vertex -9.29776 3.68124 30
      vertex -8.36799 3.31312 30
      vertex -8.76307 4.81754 30
    endloop
  endfacet
  facet normal 0 0 1
    outer loop
      vertex -8.36799 3.31312 30
      vertex -9.29776 3.68124 30
      vertex -8.71725 2.23821 30
    endloop
  endfacet
  facet normal -0 0 1
    outer loop
      vertex -9.68583 2.4869 30
      vertex -8.71725 2.23821 30
      vertex -9.29776 3.68124 30
    endloop
  endfacet
  facet normal 0 0 1
    outer loop
      vertex -8.71725 2.23821 30
      vertex -9.68583 2.4869 30
      vertex -8.92903 1.128 30
    endloop
  endfacet
  facet normal -0 0 1
    outer loop
      vertex 8.71725 -2.23821 30
      vertex 9.68583 -2.4869 30
      vertex 8.92903 -1.128 30
    endloop
  endfacet
  facet normal 0 0 1
    outer loop
      vertex 9.68583 -2.4869 30
      vertex 8.71725 -2.23821 30
      vertex 9.29776 -3.68124 30
    endloop
  endfacet
  facet normal -0 0 1
    outer loop
      vertex 8.36799 -3.31312 30
      vertex 9.29776 -3.68124 30
      vertex 8.71725 -2.23821 30
    endloop
  endfacet
  facet normal 0 0 1
    outer loop
      vertex 9.29776 -3.68124 30
      vertex 8.36799 -3.31312 30
      vertex 8.76307 -4.81754 30
    endloop
  endfacet
  facet normal -0 0 1
    outer loop
      vertex 7.88676 -4.33578 30
      vertex 8.76307 -4.81754 30
      vertex 8.36799 -3.31312 30
    endloop
  endfacet
  facet normal 0 0 1
    outer loop
      vertex 8.76307 -4.81754 30
      vertex 7.88676 -4.33578 30
      vertex 8.09017 -5.87785 30
    endloop
  endfacet
  facet normal -0 0 1
    outer loop
      vertex 7.28115 -5.29007 30
      vertex 8.09017 -5.87785 30
      vertex 7.88676 -4.33578 30
    endloop
  endfacet
  facet normal 0 0 1
    outer loop
      vertex 8.09017 -5.87785 30
      vertex 7.28115 -5.29007 30
      vertex 7.28969 -6.84547 30
    endloop
  endfacet
  facet normal -0 0 1
    outer loop
      vertex 6.56072 -6.16092 30
      vertex 7.28969 -6.84547 30
      vertex 7.28115 -5.29007 30
    endloop
  endfacet
  facet normal 0 0 1
    outer loop
      vertex 6.56072 -6.16092 30
      vertex 6.37424 -7.70513 30
      vertex 7.28969 -6.84547 30
    endloop
  endfacet
  facet normal -0 0 1
    outer loop
      vertex 5.73682 -6.93462 30
      vertex 6.37424 -7.70513 30
      vertex 6.56072 -6.16092 30
    endloop
  endfacet
  facet normal 0 0 1
    outer loop
      vertex 5.73682 -6.93462 30
      vertex 5.35827 -8.44328 30
      vertex 6.37424 -7.70513 30
    endloop
  endfacet
  facet normal -0 0 1
    outer loop
      vertex 4.82244 -7.59895 30
      vertex 5.35827 -8.44328 30
      vertex 5.73682 -6.93462 30
    endloop
  endfacet
  facet normal 0 0 1
    outer loop
      vertex 4.82244 -7.59895 30
      vertex 4.25779 -9.04827 30
      vertex 5.35827 -8.44328 30
    endloop
  endfacet
  facet normal -0 0 1
    outer loop
      vertex 3.83201 -8.14344 30
      vertex 4.25779 -9.04827 30
      vertex 4.82244 -7.59895 30
    endloop
  endfacet
  facet normal 0 0 1
    outer loop
      vertex 3.83201 -8.14344 30
      vertex 3.09017 -9.51056 30
      vertex 4.25779 -9.04827 30
    endloop
  endfacet
  facet normal -0 0 1
    outer loop
      vertex 2.78115 -8.55951 30
      vertex 3.09017 -9.51056 30
      vertex 3.83201 -8.14344 30
    endloop
  endfacet
  facet normal 0 0 1
    outer loop
      vertex 2.78115 -8.55951 30
      vertex 1.87381 -9.82287 30
      vertex 3.09017 -9.51056 30
    endloop
  endfacet
  facet normal -0 0 1
    outer loop
      vertex 1.68643 -8.84058 30
      vertex 1.87381 -9.82287 30
      vertex 2.78115 -8.55951 30
    endloop
  endfacet
  facet normal 0 0 1
    outer loop
      vertex 1.68643 -8.84058 30
      vertex 0.627905 -9.98027 30
      vertex 1.87381 -9.82287 30
    endloop
  endfacet
  facet normal -0 0 1
    outer loop
      vertex 0.565114 -8.98224 30
      vertex 0.627905 -9.98027 30
      vertex 1.68643 -8.84058 30
    endloop
  endfacet
  facet normal -0 0 1
    outer loop
      vertex -0.565114 -8.98224 30
      vertex 0.627905 -9.98027 30
      vertex 0.565114 -8.98224 30
    endloop
  endfacet
  facet normal 0 0 1
    outer loop
      vertex -0.565114 -8.98224 30
      vertex -0.627905 -9.98027 30
      vertex 0.627905 -9.98027 30
    endloop
  endfacet
  facet normal 0 0 1
    outer loop
      vertex -1.68643 -8.84058 30
      vertex -0.627905 -9.98027 30
      vertex -0.565114 -8.98224 30
    endloop
  endfacet
  facet normal 0 0 1
    outer loop
      vertex -1.68643 -8.84058 30
      vertex -1.87381 -9.82287 30
      vertex -0.627905 -9.98027 30
    endloop
  endfacet
  facet normal 0 0 1
    outer loop
      vertex -2.78115 -8.55951 30
      vertex -1.87381 -9.82287 30
      vertex -1.68643 -8.84058 30
    endloop
  endfacet
  facet normal 0 0 1
    outer loop
      vertex -2.78115 -8.55951 30
      vertex -3.09017 -9.51056 30
      vertex -1.87381 -9.82287 30
    endloop
  endfacet
  facet normal 0 0 1
    outer loop
      vertex -3.83201 -8.14344 30
      vertex -3.09017 -9.51056 30
      vertex -2.78115 -8.55951 30
    endloop
  endfacet
  facet normal 0 0 1
    outer loop
      vertex -3.83201 -8.14344 30
      vertex -4.25779 -9.04827 30
      vertex -3.09017 -9.51056 30
    endloop
  endfacet
  facet normal 0 0 1
    outer loop
      vertex -4.82244 -7.59895 30
      vertex -4.25779 -9.04827 30
      vertex -3.83201 -8.14344 30
    endloop
  endfacet
  facet normal 0 0 1
    outer loop
      vertex -4.82244 -7.59895 30
      vertex -5.35827 -8.44328 30
      vertex -4.25779 -9.04827 30
    endloop
  endfacet
  facet normal 0 0 1
    outer loop
      vertex -5.73682 -6.93462 30
      vertex -5.35827 -8.44328 30
      vertex -4.82244 -7.59895 30
    endloop
  endfacet
  facet normal 0 0 1
    outer loop
      vertex -5.73682 -6.93462 30
      vertex -6.37424 -7.70513 30
      vertex -5.35827 -8.44328 30
    endloop
  endfacet
  facet normal 0 0 1
    outer loop
      vertex -6.56072 -6.16092 30
      vertex -6.37424 -7.70513 30
      vertex -5.73682 -6.93462 30
    endloop
  endfacet
  facet normal 0 0 1
    outer loop
      vertex -7.28969 -6.84547 30
      vertex -6.56072 -6.16092 30
      vertex -7.28115 -5.29007 30
    endloop
  endfacet
  facet normal 0 0 1
    outer loop
      vertex -6.56072 -6.16092 30
      vertex -7.28969 -6.84547 30
      vertex -6.37424 -7.70513 30
    endloop
  endfacet
  facet normal 0 0 1
    outer loop
      vertex -8.09017 -5.87785 30
      vertex -7.28115 -5.29007 30
      vertex -7.88676 -4.33578 30
    endloop
  endfacet
  facet normal 0 0 1
    outer loop
      vertex -7.28115 -5.29007 30
      vertex -8.09017 -5.87785 30
      vertex -7.28969 -6.84547 30
    endloop
  endfacet
  facet normal 0 0 1
    outer loop
      vertex -8.76307 -4.81754 30
      vertex -7.88676 -4.33578 30
      vertex -8.36799 -3.31312 30
    endloop
  endfacet
  facet normal 0 0 1
    outer loop
      vertex -9.29776 -3.68124 30
      vertex -8.36799 -3.31312 30
      vertex -8.71725 -2.23821 30
    endloop
  endfacet
  facet normal 0 0 1
    outer loop
      vertex -7.88676 -4.33578 30
      vertex -8.76307 -4.81754 30
      vertex -8.09017 -5.87785 30
    endloop
  endfacet
  facet normal 0 0 1
    outer loop
      vertex -9.68583 -2.4869 30
      vertex -8.71725 -2.23821 30
      vertex -8.92903 -1.128 30
    endloop
  endfacet
  facet normal 0 0 1
    outer loop
      vertex -9.92115 -1.25333 30
      vertex -8.92903 -1.128 30
      vertex -9 0 30
    endloop
  endfacet
  facet normal -0 0 1
    outer loop
      vertex -9.92115 1.25333 30
      vertex -8.92903 1.128 30
      vertex -9.68583 2.4869 30
    endloop
  endfacet
  facet normal 0 0 1
    outer loop
      vertex -8.36799 -3.31312 30
      vertex -9.29776 -3.68124 30
      vertex -8.76307 -4.81754 30
    endloop
  endfacet
  facet normal 0 0 1
    outer loop
      vertex -8.92903 1.128 30
      vertex -9.92115 1.25333 30
      vertex -9 0 30
    endloop
  endfacet
  facet normal 0 0 1
    outer loop
      vertex -8.71725 -2.23821 30
      vertex -9.68583 -2.4869 30
      vertex -9.29776 -3.68124 30
    endloop
  endfacet
  facet normal 0 0 1
    outer loop
      vertex -10 0 30
      vertex -9 0 30
      vertex -9.92115 1.25333 30
    endloop
  endfacet
  facet normal 0 0 1
    outer loop
      vertex -8.92903 -1.128 30
      vertex -9.92115 -1.25333 30
      vertex -9.68583 -2.4869 30
    endloop
  endfacet
  facet normal 0 0 1
    outer loop
      vertex -9 0 30
      vertex -10 0 30
      vertex -9.92115 -1.25333 30
    endloop
  endfacet
  facet normal -0.587786 0.809017 0
    outer loop
      vertex -5.35827 8.44328 0
      vertex -6.37424 7.70513 30
      vertex -5.35827 8.44328 30
    endloop
  endfacet
  facet normal -0.587786 0.809017 0
    outer loop
      vertex -6.37424 7.70513 30
      vertex -5.35827 8.44328 0
      vertex -6.37424 7.70513 0
    endloop
  endfacet
  facet normal -0.24869 0.968583 0
    outer loop
      vertex -1.87381 9.82287 0
      vertex -3.09017 9.51056 30
      vertex -1.87381 9.82287 30
    endloop
  endfacet
  facet normal -0.24869 0.968583 0
    outer loop
      vertex -3.09017 9.51056 30
      vertex -1.87381 9.82287 0
      vertex -3.09017 9.51056 0
    endloop
  endfacet
  facet normal 0.998027 -0.062791 0
    outer loop
      vertex 9.92115 -1.25333 30
      vertex 10 0 0
      vertex 10 0 30
    endloop
  endfacet
  facet normal 0.998027 -0.062791 0
    outer loop
      vertex 10 0 0
      vertex 9.92115 -1.25333 30
      vertex 9.92115 -1.25333 0
    endloop
  endfacet
  facet normal 0.770513 -0.637424 0
    outer loop
      vertex 7.28969 -6.84547 30
      vertex 8.09017 -5.87785 0
      vertex 8.09017 -5.87785 30
    endloop
  endfacet
  facet normal 0.770513 -0.637424 0
    outer loop
      vertex 8.09017 -5.87785 0
      vertex 7.28969 -6.84547 30
      vertex 7.28969 -6.84547 0
    endloop
  endfacet
  facet normal 0.951057 -0.309017 0
    outer loop
      vertex 9.29776 -3.68124 30
      vertex 9.68583 -2.4869 0
      vertex 9.68583 -2.4869 30
    endloop
  endfacet
  facet normal 0.951057 -0.309017 0
    outer loop
      vertex 9.68583 -2.4869 0
      vertex 9.29776 -3.68124 30
      vertex 9.29776 -3.68124 0
    endloop
  endfacet
  facet normal 0.982287 -0.187381 0
    outer loop
      vertex 9.68583 -2.4869 30
      vertex 9.92115 -1.25333 0
      vertex 9.92115 -1.25333 30
    endloop
  endfacet
  facet normal 0.982287 -0.187381 0
    outer loop
      vertex 9.92115 -1.25333 0
      vertex 9.68583 -2.4869 30
      vertex 9.68583 -2.4869 0
    endloop
  endfacet
  facet normal -0.770513 -0.637424 0
    outer loop
      vertex -7.28969 -6.84547 0
      vertex -8.09017 -5.87785 30
      vertex -8.09017 -5.87785 0
    endloop
  endfacet
  facet normal -0.770513 -0.637424 0
    outer loop
      vertex -8.09017 -5.87785 30
      vertex -7.28969 -6.84547 0
      vertex -7.28969 -6.84547 30
    endloop
  endfacet
  facet normal 0 0 -1
    outer loop
      vertex 9 0 0
      vertex 10 0 0
      vertex 9.92115 -1.25333 0
    endloop
  endfacet
  facet normal 0 0 -1
    outer loop
      vertex 8.92903 -1.128 0
      vertex 9.92115 -1.25333 0
      vertex 9.68583 -2.4869 0
    endloop
  endfacet
  facet normal 0 0 -1
    outer loop
      vertex 10 0 0
      vertex 9 0 0
      vertex 9.92115 1.25333 0
    endloop
  endfacet
  facet normal 0 0 -1
    outer loop
      vertex 8.71725 -2.23821 0
      vertex 9.68583 -2.4869 0
      vertex 9.29776 -3.68124 0
    endloop
  endfacet
  facet normal 0 0 -1
    outer loop
      vertex 8.92903 1.128 0
      vertex 9.92115 1.25333 0
      vertex 9 0 0
    endloop
  endfacet
  facet normal -0 0 -1
    outer loop
      vertex 9.92115 1.25333 0
      vertex 8.92903 1.128 0
      vertex 9.68583 2.4869 0
    endloop
  endfacet
  facet normal 0 0 -1
    outer loop
      vertex 9.92115 -1.25333 0
      vertex 8.92903 -1.128 0
      vertex 9 0 0
    endloop
  endfacet
  facet normal 0 0 -1
    outer loop
      vertex 8.36799 -3.31312 0
      vertex 9.29776 -3.68124 0
      vertex 8.76307 -4.81754 0
    endloop
  endfacet
  facet normal 0 0 -1
    outer loop
      vertex 9.68583 -2.4869 0
      vertex 8.71725 -2.23821 0
      vertex 8.92903 -1.128 0
    endloop
  endfacet
  facet normal 0 0 -1
    outer loop
      vertex 9.29776 -3.68124 0
      vertex 8.36799 -3.31312 0
      vertex 8.71725 -2.23821 0
    endloop
  endfacet
  facet normal 0 0 -1
    outer loop
      vertex 7.88676 -4.33578 0
      vertex 8.76307 -4.81754 0
      vertex 8.09017 -5.87785 0
    endloop
  endfacet
  facet normal 0 0 -1
    outer loop
      vertex 8.76307 -4.81754 0
      vertex 7.88676 -4.33578 0
      vertex 8.36799 -3.31312 0
    endloop
  endfacet
  facet normal 0 0 -1
    outer loop
      vertex 7.28115 -5.29007 0
      vertex 8.09017 -5.87785 0
      vertex 7.28969 -6.84547 0
    endloop
  endfacet
  facet normal 0 0 -1
    outer loop
      vertex 8.09017 -5.87785 0
      vertex 7.28115 -5.29007 0
      vertex 7.88676 -4.33578 0
    endloop
  endfacet
  facet normal 0 0 -1
    outer loop
      vertex 7.28969 -6.84547 0
      vertex 6.56072 -6.16092 0
      vertex 7.28115 -5.29007 0
    endloop
  endfacet
  facet normal 0 0 -1
    outer loop
      vertex 6.37424 -7.70513 0
      vertex 6.56072 -6.16092 0
      vertex 7.28969 -6.84547 0
    endloop
  endfacet
  facet normal 0 0 -1
    outer loop
      vertex 6.37424 -7.70513 0
      vertex 5.73682 -6.93462 0
      vertex 6.56072 -6.16092 0
    endloop
  endfacet
  facet normal 0 0 -1
    outer loop
      vertex 5.35827 -8.44328 0
      vertex 5.73682 -6.93462 0
      vertex 6.37424 -7.70513 0
    endloop
  endfacet
  facet normal 0 0 -1
    outer loop
      vertex 5.35827 -8.44328 0
      vertex 4.82244 -7.59895 0
      vertex 5.73682 -6.93462 0
    endloop
  endfacet
  facet normal 0 0 -1
    outer loop
      vertex 4.25779 -9.04827 0
      vertex 4.82244 -7.59895 0
      vertex 5.35827 -8.44328 0
    endloop
  endfacet
  facet normal 0 0 -1
    outer loop
      vertex 4.25779 -9.04827 0
      vertex 3.83201 -8.14344 0
      vertex 4.82244 -7.59895 0
    endloop
  endfacet
  facet normal 0 0 -1
    outer loop
      vertex 3.09017 -9.51056 0
      vertex 3.83201 -8.14344 0
      vertex 4.25779 -9.04827 0
    endloop
  endfacet
  facet normal 0 0 -1
    outer loop
      vertex 3.09017 -9.51056 0
      vertex 2.78115 -8.55951 0
      vertex 3.83201 -8.14344 0
    endloop
  endfacet
  facet normal 0 0 -1
    outer loop
      vertex 1.87381 -9.82287 0
      vertex 2.78115 -8.55951 0
      vertex 3.09017 -9.51056 0
    endloop
  endfacet
  facet normal 0 0 -1
    outer loop
      vertex 1.87381 -9.82287 0
      vertex 1.68643 -8.84058 0
      vertex 2.78115 -8.55951 0
    endloop
  endfacet
  facet normal 0 0 -1
    outer loop
      vertex 0.627905 -9.98027 0
      vertex 1.68643 -8.84058 0
      vertex 1.87381 -9.82287 0
    endloop
  endfacet
  facet normal 0 0 -1
    outer loop
      vertex 0.627905 -9.98027 0
      vertex 0.565114 -8.98224 0
      vertex 1.68643 -8.84058 0
    endloop
  endfacet
  facet normal 0 0 -1
    outer loop
      vertex 0.627905 -9.98027 0
      vertex -0.565114 -8.98224 0
      vertex 0.565114 -8.98224 0
    endloop
  endfacet
  facet normal 0 0 -1
    outer loop
      vertex -0.627905 -9.98027 0
      vertex -0.565114 -8.98224 0
      vertex 0.627905 -9.98027 0
    endloop
  endfacet
  facet normal 0 0 -1
    outer loop
      vertex -0.627905 -9.98027 0
      vertex -1.68643 -8.84058 0
      vertex -0.565114 -8.98224 0
    endloop
  endfacet
  facet normal 0 0 -1
    outer loop
      vertex -1.87381 -9.82287 0
      vertex -1.68643 -8.84058 0
      vertex -0.627905 -9.98027 0
    endloop
  endfacet
  facet normal 0 0 -1
    outer loop
      vertex -1.87381 -9.82287 0
      vertex -2.78115 -8.55951 0
      vertex -1.68643 -8.84058 0
    endloop
  endfacet
  facet normal 0 0 -1
    outer loop
      vertex -3.09017 -9.51056 0
      vertex -2.78115 -8.55951 0
      vertex -1.87381 -9.82287 0
    endloop
  endfacet
  facet normal 0 0 -1
    outer loop
      vertex -3.09017 -9.51056 0
      vertex -3.83201 -8.14344 0
      vertex -2.78115 -8.55951 0
    endloop
  endfacet
  facet normal 0 0 -1
    outer loop
      vertex -4.25779 -9.04827 0
      vertex -3.83201 -8.14344 0
      vertex -3.09017 -9.51056 0
    endloop
  endfacet
  facet normal 0 0 -1
    outer loop
      vertex -4.25779 -9.04827 0
      vertex -4.82244 -7.59895 0
      vertex -3.83201 -8.14344 0
    endloop
  endfacet
  facet normal 0 0 -1
    outer loop
      vertex -5.35827 -8.44328 0
      vertex -4.82244 -7.59895 0
      vertex -4.25779 -9.04827 0
    endloop
  endfacet
  facet normal 0 0 -1
    outer loop
      vertex -5.35827 -8.44328 0
      vertex -5.73682 -6.93462 0
      vertex -4.82244 -7.59895 0
    endloop
  endfacet
  facet normal 0 0 -1
    outer loop
      vertex -6.37424 -7.70513 0
      vertex -5.73682 -6.93462 0
      vertex -5.35827 -8.44328 0
    endloop
  endfacet
  facet normal 0 0 -1
    outer loop
      vertex -6.37424 -7.70513 0
      vertex -6.56072 -6.16092 0
      vertex -5.73682 -6.93462 0
    endloop
  endfacet
  facet normal 0 0 -1
    outer loop
      vertex -7.28969 -6.84547 0
      vertex -6.56072 -6.16092 0
      vertex -6.37424 -7.70513 0
    endloop
  endfacet
  facet normal -0 0 -1
    outer loop
      vertex -6.56072 -6.16092 0
      vertex -7.28969 -6.84547 0
      vertex -7.28115 -5.29007 0
    endloop
  endfacet
  facet normal 0 0 -1
    outer loop
      vertex -8.09017 -5.87785 0
      vertex -7.28115 -5.29007 0
      vertex -7.28969 -6.84547 0
    endloop
  endfacet
  facet normal -0 0 -1
    outer loop
      vertex -7.28115 -5.29007 0
      vertex -8.09017 -5.87785 0
      vertex -7.88676 -4.33578 0
    endloop
  endfacet
  facet normal 0 0 -1
    outer loop
      vertex -8.76307 -4.81754 0
      vertex -7.88676 -4.33578 0
      vertex -8.09017 -5.87785 0
    endloop
  endfacet
  facet normal -0 0 -1
    outer loop
      vertex -7.88676 -4.33578 0
      vertex -8.76307 -4.81754 0
      vertex -8.36799 -3.31312 0
    endloop
  endfacet
  facet normal 0 0 -1
    outer loop
      vertex -9.29776 -3.68124 0
      vertex -8.36799 -3.31312 0
      vertex -8.76307 -4.81754 0
    endloop
  endfacet
  facet normal -0 0 -1
    outer loop
      vertex -8.36799 -3.31312 0
      vertex -9.29776 -3.68124 0
      vertex -8.71725 -2.23821 0
    endloop
  endfacet
  facet normal 0 0 -1
    outer loop
      vertex -9.68583 -2.4869 0
      vertex -8.71725 -2.23821 0
      vertex -9.29776 -3.68124 0
    endloop
  endfacet
  facet normal -0 0 -1
    outer loop
      vertex -8.71725 -2.23821 0
      vertex -9.68583 -2.4869 0
      vertex -8.92903 -1.128 0
    endloop
  endfacet
  facet normal 0 0 -1
    outer loop
      vertex 8.71725 2.23821 0
      vertex 9.68583 2.4869 0
      vertex 8.92903 1.128 0
    endloop
  endfacet
  facet normal -0 0 -1
    outer loop
      vertex 9.68583 2.4869 0
      vertex 8.71725 2.23821 0
      vertex 9.29776 3.68124 0
    endloop
  endfacet
  facet normal 0 0 -1
    outer loop
      vertex 8.36799 3.31312 0
      vertex 9.29776 3.68124 0
      vertex 8.71725 2.23821 0
    endloop
  endfacet
  facet normal -0 0 -1
    outer loop
      vertex 9.29776 3.68124 0
      vertex 8.36799 3.31312 0
      vertex 8.76307 4.81754 0
    endloop
  endfacet
  facet normal 0 0 -1
    outer loop
      vertex 7.88676 4.33578 0
      vertex 8.76307 4.81754 0
      vertex 8.36799 3.31312 0
    endloop
  endfacet
  facet normal -0 0 -1
    outer loop
      vertex 8.76307 4.81754 0
      vertex 7.88676 4.33578 0
      vertex 8.09017 5.87785 0
    endloop
  endfacet
  facet normal 0 0 -1
    outer loop
      vertex 7.28115 5.29007 0
      vertex 8.09017 5.87785 0
      vertex 7.88676 4.33578 0
    endloop
  endfacet
  facet normal -0 0 -1
    outer loop
      vertex 8.09017 5.87785 0
      vertex 7.28115 5.29007 0
      vertex 7.28969 6.84547 0
    endloop
  endfacet
  facet normal 0 0 -1
    outer loop
      vertex 6.56072 6.16092 0
      vertex 7.28969 6.84547 0
      vertex 7.28115 5.29007 0
    endloop
  endfacet
  facet normal 0 0 -1
    outer loop
      vertex 6.56072 6.16092 0
      vertex 6.37424 7.70513 0
      vertex 7.28969 6.84547 0
    endloop
  endfacet
  facet normal 0 0 -1
    outer loop
      vertex 5.73682 6.93462 0
      vertex 6.37424 7.70513 0
      vertex 6.56072 6.16092 0
    endloop
  endfacet
  facet normal 0 0 -1
    outer loop
      vertex 5.73682 6.93462 0
      vertex 5.35827 8.44328 0
      vertex 6.37424 7.70513 0
    endloop
  endfacet
  facet normal 0 0 -1
    outer loop
      vertex 4.82244 7.59895 0
      vertex 5.35827 8.44328 0
      vertex 5.73682 6.93462 0
    endloop
  endfacet
  facet normal 0 0 -1
    outer loop
      vertex 4.82244 7.59895 0
      vertex 4.25779 9.04827 0
      vertex 5.35827 8.44328 0
    endloop
  endfacet
  facet normal 0 0 -1
    outer loop
      vertex 3.83201 8.14344 0
      vertex 4.25779 9.04827 0
      vertex 4.82244 7.59895 0
    endloop
  endfacet
  facet normal 0 0 -1
    outer loop
      vertex 3.83201 8.14344 0
      vertex 3.09017 9.51056 0
      vertex 4.25779 9.04827 0
    endloop
  endfacet
  facet normal 0 0 -1
    outer loop
      vertex 2.78115 8.55951 0
      vertex 3.09017 9.51056 0
      vertex 3.83201 8.14344 0
    endloop
  endfacet
  facet normal 0 0 -1
    outer loop
      vertex 2.78115 8.55951 0
      vertex 1.87381 9.82287 0
      vertex 3.09017 9.51056 0
    endloop
  endfacet
  facet normal 0 0 -1
    outer loop
      vertex 1.68643 8.84058 0
      vertex 1.87381 9.82287 0
      vertex 2.78115 8.55951 0
    endloop
  endfacet
  facet normal 0 0 -1
    outer loop
      vertex 1.68643 8.84058 0
      vertex 0.627905 9.98027 0
      vertex 1.87381 9.82287 0
    endloop
  endfacet
  facet normal 0 0 -1
    outer loop
      vertex 0.565114 8.98224 0
      vertex 0.627905 9.98027 0
      vertex 1.68643 8.84058 0
    endloop
  endfacet
  facet normal 0 0 -1
    outer loop
      vertex -0.565114 8.98224 0
      vertex 0.627905 9.98027 0
      vertex 0.565114 8.98224 0
    endloop
  endfacet
  facet normal 0 0 -1
    outer loop
      vertex -0.565114 8.98224 0
      vertex -0.627905 9.98027 0
      vertex 0.627905 9.98027 0
    endloop
  endfacet
  facet normal 0 0 -1
    outer loop
      vertex -1.68643 8.84058 0
      vertex -0.627905 9.98027 0
      vertex -0.565114 8.98224 0
    endloop
  endfacet
  facet normal 0 0 -1
    outer loop
      vertex -1.68643 8.84058 0
      vertex -1.87381 9.82287 0
      vertex -0.627905 9.98027 0
    endloop
  endfacet
  facet normal 0 0 -1
    outer loop
      vertex -2.78115 8.55951 0
      vertex -1.87381 9.82287 0
      vertex -1.68643 8.84058 0
    endloop
  endfacet
  facet normal 0 0 -1
    outer loop
      vertex -2.78115 8.55951 0
      vertex -3.09017 9.51056 0
      vertex -1.87381 9.82287 0
    endloop
  endfacet
  facet normal 0 0 -1
    outer loop
      vertex -3.83201 8.14344 0
      vertex -3.09017 9.51056 0
      vertex -2.78115 8.55951 0
    endloop
  endfacet
  facet normal 0 0 -1
    outer loop
      vertex -3.83201 8.14344 0
      vertex -4.25779 9.04827 0
      vertex -3.09017 9.51056 0
    endloop
  endfacet
  facet normal 0 0 -1
    outer loop
      vertex -4.82244 7.59895 0
      vertex -4.25779 9.04827 0
      vertex -3.83201 8.14344 0
    endloop
  endfacet
  facet normal 0 0 -1
    outer loop
      vertex -4.82244 7.59895 0
      vertex -5.35827 8.44328 0
      vertex -4.25779 9.04827 0
    endloop
  endfacet
  facet normal 0 0 -1
    outer loop
      vertex -5.73682 6.93462 0
      vertex -5.35827 8.44328 0
      vertex -4.82244 7.59895 0
    endloop
  endfacet
  facet normal 0 0 -1
    outer loop
      vertex -5.73682 6.93462 0
      vertex -6.37424 7.70513 0
      vertex -5.35827 8.44328 0
    endloop
  endfacet
  facet normal 0 0 -1
    outer loop
      vertex -6.56072 6.16092 0
      vertex -6.37424 7.70513 0
      vertex -5.73682 6.93462 0
    endloop
  endfacet
  facet normal 0 0 -1
    outer loop
      vertex -7.28969 6.84547 0
      vertex -6.56072 6.16092 0
      vertex -7.28115 5.29007 0
    endloop
  endfacet
  facet normal 0 0 -1
    outer loop
      vertex -6.56072 6.16092 0
      vertex -7.28969 6.84547 0
      vertex -6.37424 7.70513 0
    endloop
  endfacet
  facet normal 0 0 -1
    outer loop
      vertex -8.09017 5.87785 0
      vertex -7.28115 5.29007 0
      vertex -7.88676 4.33578 0
    endloop
  endfacet
  facet normal 0 0 -1
    outer loop
      vertex -7.28115 5.29007 0
      vertex -8.09017 5.87785 0
      vertex -7.28969 6.84547 0
    endloop
  endfacet
  facet normal 0 0 -1
    outer loop
      vertex -8.76307 4.81754 0
      vertex -7.88676 4.33578 0
      vertex -8.36799 3.31312 0
    endloop
  endfacet
  facet normal 0 0 -1
    outer loop
      vertex -9.29776 3.68124 0
      vertex -8.36799 3.31312 0
      vertex -8.71725 2.23821 0
    endloop
  endfacet
  facet normal 0 0 -1
    outer loop
      vertex -7.88676 4.33578 0
      vertex -8.76307 4.81754 0
      vertex -8.09017 5.87785 0
    endloop
  endfacet
  facet normal 0 0 -1
    outer loop
      vertex -9.68583 2.4869 0
      vertex -8.71725 2.23821 0
      vertex -8.92903 1.128 0
    endloop
  endfacet
  facet normal 0 0 -1
    outer loop
      vertex -9.92115 1.25333 0
      vertex -8.92903 1.128 0
      vertex -9 0 0
    endloop
  endfacet
  facet normal 0 0 -1
    outer loop
      vertex -9.92115 -1.25333 0
      vertex -8.92903 -1.128 0
      vertex -9.68583 -2.4869 0
    endloop
  endfacet
  facet normal 0 0 -1
    outer loop
      vertex -8.36799 3.31312 0
      vertex -9.29776 3.68124 0
      vertex -8.76307 4.81754 0
    endloop
  endfacet
  facet normal -0 0 -1
    outer loop
      vertex -8.92903 -1.128 0
      vertex -9.92115 -1.25333 0
      vertex -9 0 0
    endloop
  endfacet
  facet normal 0 0 -1
    outer loop
      vertex -8.71725 2.23821 0
      vertex -9.68583 2.4869 0
      vertex -9.29776 3.68124 0
    endloop
  endfacet
  facet normal 0 0 -1
    outer loop
      vertex -10 0 0
      vertex -9 0 0
      vertex -9.92115 -1.25333 0
    endloop
  endfacet
  facet normal 0 0 -1
    outer loop
      vertex -8.92903 1.128 0
      vertex -9.92115 1.25333 0
      vertex -9.68583 2.4869 0
    endloop
  endfacet
  facet normal 0 0 -1
    outer loop
      vertex -9 0 0
      vertex -10 0 0
      vertex -9.92115 1.25333 0
    endloop
  endfacet
  facet normal 0.844328 -0.535826 0
    outer loop
      vertex 8.09017 -5.87785 30
      vertex 8.76307 -4.81754 0
      vertex 8.76307 -4.81754 30
    endloop
  endfacet
  facet normal 0.844328 -0.535826 0
    outer loop
      vertex 8.76307 -4.81754 0
      vertex 8.09017 -5.87785 30
      vertex 8.09017 -5.87785 0
    endloop
  endfacet
  facet normal -0.951057 -0.309017 0
    outer loop
      vertex -9.29776 -3.68124 0
      vertex -9.68583 -2.4869 30
      vertex -9.68583 -2.4869 0
    endloop
  endfacet
  facet normal -0.951057 -0.309017 0
    outer loop
      vertex -9.68583 -2.4869 30
      vertex -9.29776 -3.68124 0
      vertex -9.29776 -3.68124 30
    endloop
  endfacet
  facet normal 0.24869 -0.968583 0
    outer loop
      vertex 1.87381 -9.82287 0
      vertex 3.09017 -9.51056 30
      vertex 1.87381 -9.82287 30
    endloop
  endfacet
  facet normal 0.24869 -0.968583 0
    outer loop
      vertex 3.09017 -9.51056 30
      vertex 1.87381 -9.82287 0
      vertex 3.09017 -9.51056 0
    endloop
  endfacet
  facet normal 0.684547 -0.728969 0
    outer loop
      vertex 6.37424 -7.70513 0
      vertex 7.28969 -6.84547 30
      vertex 6.37424 -7.70513 30
    endloop
  endfacet
  facet normal 0.684547 -0.728969 0
    outer loop
      vertex 7.28969 -6.84547 30
      vertex 6.37424 -7.70513 0
      vertex 7.28969 -6.84547 0
    endloop
  endfacet
  facet normal 0.587786 -0.809017 0
    outer loop
      vertex 5.35827 -8.44328 0
      vertex 6.37424 -7.70513 30
      vertex 5.35827 -8.44328 30
    endloop
  endfacet
  facet normal 0.587786 -0.809017 0
    outer loop
      vertex 6.37424 -7.70513 30
      vertex 5.35827 -8.44328 0
      vertex 6.37424 -7.70513 0
    endloop
  endfacet
  facet normal 0.481754 -0.876307 0
    outer loop
      vertex 4.25779 -9.04827 0
      vertex 5.35827 -8.44328 30
      vertex 4.25779 -9.04827 30
    endloop
  endfacet
  facet normal 0.481754 -0.876307 0
    outer loop
      vertex 5.35827 -8.44328 30
      vertex 4.25779 -9.04827 0
      vertex 5.35827 -8.44328 0
    endloop
  endfacet
  facet normal -0.125333 -0.992115 0
    outer loop
      vertex -1.87381 -9.82287 0
      vertex -0.627905 -9.98027 30
      vertex -1.87381 -9.82287 30
    endloop
  endfacet
  facet normal -0.125333 -0.992115 -0
    outer loop
      vertex -0.627905 -9.98027 30
      vertex -1.87381 -9.82287 0
      vertex -0.627905 -9.98027 0
    endloop
  endfacet
  facet normal -0.24869 -0.968583 0
    outer loop
      vertex -3.09017 -9.51056 0
      vertex -1.87381 -9.82287 30
      vertex -3.09017 -9.51056 30
    endloop
  endfacet
  facet normal -0.24869 -0.968583 -0
    outer loop
      vertex -1.87381 -9.82287 30
      vertex -3.09017 -9.51056 0
      vertex -1.87381 -9.82287 0
    endloop
  endfacet
  facet normal -0.844328 -0.535826 0
    outer loop
      vertex -8.09017 -5.87785 0
      vertex -8.76307 -4.81754 30
      vertex -8.76307 -4.81754 0
    endloop
  endfacet
  facet normal -0.844328 -0.535826 0
    outer loop
      vertex -8.76307 -4.81754 30
      vertex -8.09017 -5.87785 0
      vertex -8.09017 -5.87785 30
    endloop
  endfacet
  facet normal -0.904827 -0.425779 0
    outer loop
      vertex -8.76307 -4.81754 0
      vertex -9.29776 -3.68124 30
      vertex -9.29776 -3.68124 0
    endloop
  endfacet
  facet normal -0.904827 -0.425779 0
    outer loop
      vertex -9.29776 -3.68124 30
      vertex -8.76307 -4.81754 0
      vertex -8.76307 -4.81754 30
    endloop
  endfacet
  facet normal -0.982287 -0.187381 0
    outer loop
      vertex -9.68583 -2.4869 0
      vertex -9.92115 -1.25333 30
      vertex -9.92115 -1.25333 0
    endloop
  endfacet
  facet normal -0.982287 -0.187381 0
    outer loop
      vertex -9.92115 -1.25333 30
      vertex -9.68583 -2.4869 0
      vertex -9.68583 -2.4869 30
    endloop
  endfacet
  facet normal -0.998027 -0.062791 0
    outer loop
      vertex -9.92115 -1.25333 0
      vertex -10 0 30
      vertex -10 0 0
    endloop
  endfacet
  facet normal -0.998027 -0.062791 0
    outer loop
      vertex -10 0 30
      vertex -9.92115 -1.25333 0
      vertex -9.92115 -1.25333 30
    endloop
  endfacet
  facet normal -0.684547 -0.728969 0
    outer loop
      vertex -7.28969 -6.84547 0
      vertex -6.37424 -7.70513 30
      vertex -7.28969 -6.84547 30
    endloop
  endfacet
  facet normal -0.684547 -0.728969 -0
    outer loop
      vertex -6.37424 -7.70513 30
      vertex -7.28969 -6.84547 0
      vertex -6.37424 -7.70513 0
    endloop
  endfacet
  facet normal -0.481754 -0.876307 0
    outer loop
      vertex -5.35827 -8.44328 0
      vertex -4.25779 -9.04827 30
      vertex -5.35827 -8.44328 30
    endloop
  endfacet
  facet normal -0.481754 -0.876307 -0
    outer loop
      vertex -4.25779 -9.04827 30
      vertex -5.35827 -8.44328 0
      vertex -4.25779 -9.04827 0
    endloop
  endfacet
  facet normal -0.587786 -0.809017 0
    outer loop
      vertex -6.37424 -7.70513 0
      vertex -5.35827 -8.44328 30
      vertex -6.37424 -7.70513 30
    endloop
  endfacet
  facet normal -0.587786 -0.809017 -0
    outer loop
      vertex -5.35827 -8.44328 30
      vertex -6.37424 -7.70513 0
      vertex -5.35827 -8.44328 0
    endloop
  endfacet
  facet normal -0.368125 -0.929776 0
    outer loop
      vertex -4.25779 -9.04827 0
      vertex -3.09017 -9.51056 30
      vertex -4.25779 -9.04827 30
    endloop
  endfacet
  facet normal -0.368125 -0.929776 -0
    outer loop
      vertex -3.09017 -9.51056 30
      vertex -4.25779 -9.04827 0
      vertex -3.09017 -9.51056 0
    endloop
  endfacet
  facet normal -0.998027 -0.0627914 0
    outer loop
      vertex 9 0 0
      vertex 8.92903 1.128 30
      vertex 8.92903 1.128 0
    endloop
  endfacet
  facet normal -0.998027 -0.0627914 0
    outer loop
      vertex 8.92903 1.128 30
      vertex 9 0 0
      vertex 9 0 30
    endloop
  endfacet
  facet normal 0.998027 -0.0627914 0
    outer loop
      vertex -9 0 30
      vertex -8.92903 1.128 0
      vertex -8.92903 1.128 30
    endloop
  endfacet
  facet normal 0.998027 -0.0627914 0
    outer loop
      vertex -8.92903 1.128 0
      vertex -9 0 30
      vertex -9 0 0
    endloop
  endfacet
  facet normal 0 -1 0
    outer loop
      vertex -0.565114 8.98224 0
      vertex 0.565114 8.98224 30
      vertex -0.565114 8.98224 30
    endloop
  endfacet
  facet normal 0 -1 -0
    outer loop
      vertex 0.565114 8.98224 30
      vertex -0.565114 8.98224 0
      vertex 0.565114 8.98224 0
    endloop
  endfacet
  facet normal 0 1 -0
    outer loop
      vertex 0.565114 -8.98224 0
      vertex -0.565114 -8.98224 30
      vertex 0.565114 -8.98224 30
    endloop
  endfacet
  facet normal 0 1 0
    outer loop
      vertex -0.565114 -8.98224 30
      vertex 0.565114 -8.98224 0
      vertex -0.565114 -8.98224 0
    endloop
  endfacet
  facet normal -0.684547 -0.728968 0
    outer loop
      vertex 5.73682 6.93462 0
      vertex 6.56072 6.16092 30
      vertex 5.73682 6.93462 30
    endloop
  endfacet
  facet normal -0.684547 -0.728968 -0
    outer loop
      vertex 6.56072 6.16092 30
      vertex 5.73682 6.93462 0
      vertex 6.56072 6.16092 0
    endloop
  endfacet
  facet normal 0.684547 -0.728968 0
    outer loop
      vertex -6.56072 6.16092 0
      vertex -5.73682 6.93462 30
      vertex -6.56072 6.16092 30
    endloop
  endfacet
  facet normal 0.684547 -0.728968 0
    outer loop
      vertex -5.73682 6.93462 30
      vertex -6.56072 6.16092 0
      vertex -5.73682 6.93462 0
    endloop
  endfacet
  facet normal 0.368125 -0.929776 0
    outer loop
      vertex -3.83201 8.14344 0
      vertex -2.78115 8.55951 30
      vertex -3.83201 8.14344 30
    endloop
  endfacet
  facet normal 0.368125 -0.929776 0
    outer loop
      vertex -2.78115 8.55951 30
      vertex -3.83201 8.14344 0
      vertex -2.78115 8.55951 0
    endloop
  endfacet
  facet normal -0.951056 0.309017 0
    outer loop
      vertex 8.36799 -3.31312 0
      vertex 8.71725 -2.23821 30
      vertex 8.71725 -2.23821 0
    endloop
  endfacet
  facet normal -0.951056 0.309017 0
    outer loop
      vertex 8.71725 -2.23821 30
      vertex 8.36799 -3.31312 0
      vertex 8.36799 -3.31312 30
    endloop
  endfacet
  facet normal -0.904827 -0.425779 0
    outer loop
      vertex 8.36799 3.31312 0
      vertex 7.88676 4.33578 30
      vertex 7.88676 4.33578 0
    endloop
  endfacet
  facet normal -0.904827 -0.425779 0
    outer loop
      vertex 7.88676 4.33578 30
      vertex 8.36799 3.31312 0
      vertex 8.36799 3.31312 30
    endloop
  endfacet
  facet normal -0.982287 -0.187381 0
    outer loop
      vertex 8.92903 1.128 0
      vertex 8.71725 2.23821 30
      vertex 8.71725 2.23821 0
    endloop
  endfacet
  facet normal -0.982287 -0.187381 0
    outer loop
      vertex 8.71725 2.23821 30
      vertex 8.92903 1.128 0
      vertex 8.92903 1.128 30
    endloop
  endfacet
  facet normal -0.844328 -0.535827 0
    outer loop
      vertex 7.88676 4.33578 0
      vertex 7.28115 5.29007 30
      vertex 7.28115 5.29007 0
    endloop
  endfacet
  facet normal -0.844328 -0.535827 0
    outer loop
      vertex 7.28115 5.29007 30
      vertex 7.88676 4.33578 0
      vertex 7.88676 4.33578 30
    endloop
  endfacet
  facet normal -0.368125 -0.929776 0
    outer loop
      vertex 2.78115 8.55951 0
      vertex 3.83201 8.14344 30
      vertex 2.78115 8.55951 30
    endloop
  endfacet
  facet normal -0.368125 -0.929776 -0
    outer loop
      vertex 3.83201 8.14344 30
      vertex 2.78115 8.55951 0
      vertex 3.83201 8.14344 0
    endloop
  endfacet
  facet normal -0.24869 -0.968583 0
    outer loop
      vertex 1.68643 8.84058 0
      vertex 2.78115 8.55951 30
      vertex 1.68643 8.84058 30
    endloop
  endfacet
  facet normal -0.24869 -0.968583 -0
    outer loop
      vertex 2.78115 8.55951 30
      vertex 1.68643 8.84058 0
      vertex 2.78115 8.55951 0
    endloop
  endfacet
  facet normal -0.481754 -0.876307 0
    outer loop
      vertex 3.83201 8.14344 0
      vertex 4.82244 7.59895 30
      vertex 3.83201 8.14344 30
    endloop
  endfacet
  facet normal -0.481754 -0.876307 -0
    outer loop
      vertex 4.82244 7.59895 30
      vertex 3.83201 8.14344 0
      vertex 4.82244 7.59895 0
    endloop
  endfacet
  facet normal 0.904827 -0.425779 0
    outer loop
      vertex -8.36799 3.31312 30
      vertex -7.88676 4.33578 0
      vertex -7.88676 4.33578 30
    endloop
  endfacet
  facet normal 0.904827 -0.425779 0
    outer loop
      vertex -7.88676 4.33578 0
      vertex -8.36799 3.31312 30
      vertex -8.36799 3.31312 0
    endloop
  endfacet
  facet normal 0.951056 -0.309017 0
    outer loop
      vertex -8.71725 2.23821 30
      vertex -8.36799 3.31312 0
      vertex -8.36799 3.31312 30
    endloop
  endfacet
  facet normal 0.951056 -0.309017 0
    outer loop
      vertex -8.36799 3.31312 0
      vertex -8.71725 2.23821 30
      vertex -8.71725 2.23821 0
    endloop
  endfacet
  facet normal 0.24869 -0.968583 0
    outer loop
      vertex -2.78115 8.55951 0
      vertex -1.68643 8.84058 30
      vertex -2.78115 8.55951 30
    endloop
  endfacet
  facet normal 0.24869 -0.968583 0
    outer loop
      vertex -1.68643 8.84058 30
      vertex -2.78115 8.55951 0
      vertex -1.68643 8.84058 0
    endloop
  endfacet
  facet normal -0.125333 0.992115 0
    outer loop
      vertex 1.68643 -8.84058 0
      vertex 0.565114 -8.98224 30
      vertex 1.68643 -8.84058 30
    endloop
  endfacet
  facet normal -0.125333 0.992115 0
    outer loop
      vertex 0.565114 -8.98224 30
      vertex 1.68643 -8.84058 0
      vertex 0.565114 -8.98224 0
    endloop
  endfacet
  facet normal -0.951056 -0.309017 0
    outer loop
      vertex 8.71725 2.23821 0
      vertex 8.36799 3.31312 30
      vertex 8.36799 3.31312 0
    endloop
  endfacet
  facet normal -0.951056 -0.309017 0
    outer loop
      vertex 8.36799 3.31312 30
      vertex 8.71725 2.23821 0
      vertex 8.71725 2.23821 30
    endloop
  endfacet
  facet normal -0.770513 -0.637424 0
    outer loop
      vertex 7.28115 5.29007 0
      vertex 6.56072 6.16092 30
      vertex 6.56072 6.16092 0
    endloop
  endfacet
  facet normal -0.770513 -0.637424 0
    outer loop
      vertex 6.56072 6.16092 30
      vertex 7.28115 5.29007 0
      vertex 7.28115 5.29007 30
    endloop
  endfacet
  facet normal -0.125333 -0.992115 0
    outer loop
      vertex 0.565114 8.98224 0
      vertex 1.68643 8.84058 30
      vertex 0.565114 8.98224 30
    endloop
  endfacet
  facet normal -0.125333 -0.992115 -0
    outer loop
      vertex 1.68643 8.84058 30
      vertex 0.565114 8.98224 0
      vertex 1.68643 8.84058 0
    endloop
  endfacet
  facet normal -0.587785 -0.809017 0
    outer loop
      vertex 4.82244 7.59895 0
      vertex 5.73682 6.93462 30
      vertex 4.82244 7.59895 30
    endloop
  endfacet
  facet normal -0.587785 -0.809017 -0
    outer loop
      vertex 5.73682 6.93462 30
      vertex 4.82244 7.59895 0
      vertex 5.73682 6.93462 0
    endloop
  endfacet
  facet normal 0.844328 -0.535827 0
    outer loop
      vertex -7.88676 4.33578 30
      vertex -7.28115 5.29007 0
      vertex -7.28115 5.29007 30
    endloop
  endfacet
  facet normal 0.844328 -0.535827 0
    outer loop
      vertex -7.28115 5.29007 0
      vertex -7.88676 4.33578 30
      vertex -7.88676 4.33578 0
    endloop
  endfacet
  facet normal 0.770513 -0.637424 0
    outer loop
      vertex -7.28115 5.29007 30
      vertex -6.56072 6.16092 0
      vertex -6.56072 6.16092 30
    endloop
  endfacet
  facet normal 0.770513 -0.637424 0
    outer loop
      vertex -6.56072 6.16092 0
      vertex -7.28115 5.29007 30
      vertex -7.28115 5.29007 0
    endloop
  endfacet
  facet normal 0.982287 -0.187381 0
    outer loop
      vertex -8.92903 1.128 30
      vertex -8.71725 2.23821 0
      vertex -8.71725 2.23821 30
    endloop
  endfacet
  facet normal 0.982287 -0.187381 0
    outer loop
      vertex -8.71725 2.23821 0
      vertex -8.92903 1.128 30
      vertex -8.92903 1.128 0
    endloop
  endfacet
  facet normal 0.481754 -0.876307 0
    outer loop
      vertex -4.82244 7.59895 0
      vertex -3.83201 8.14344 30
      vertex -4.82244 7.59895 30
    endloop
  endfacet
  facet normal 0.481754 -0.876307 0
    outer loop
      vertex -3.83201 8.14344 30
      vertex -4.82244 7.59895 0
      vertex -3.83201 8.14344 0
    endloop
  endfacet
  facet normal 0.587785 -0.809017 0
    outer loop
      vertex -5.73682 6.93462 0
      vertex -4.82244 7.59895 30
      vertex -5.73682 6.93462 30
    endloop
  endfacet
  facet normal 0.587785 -0.809017 0
    outer loop
      vertex -4.82244 7.59895 30
      vertex -5.73682 6.93462 0
      vertex -4.82244 7.59895 0
    endloop
  endfacet
  facet normal 0.125333 -0.992115 0
    outer loop
      vertex -1.68643 8.84058 0
      vertex -0.565114 8.98224 30
      vertex -1.68643 8.84058 30
    endloop
  endfacet
  facet normal 0.125333 -0.992115 0
    outer loop
      vertex -0.565114 8.98224 30
      vertex -1.68643 8.84058 0
      vertex -0.565114 8.98224 0
    endloop
  endfacet
  facet normal -0.998027 0.0627914 0
    outer loop
      vertex 8.92903 -1.128 0
      vertex 9 0 30
      vertex 9 0 0
    endloop
  endfacet
  facet normal -0.998027 0.0627914 0
    outer loop
      vertex 9 0 30
      vertex 8.92903 -1.128 0
      vertex 8.92903 -1.128 30
    endloop
  endfacet
  facet normal -0.770513 0.637424 0
    outer loop
      vertex 6.56072 -6.16092 0
      vertex 7.28115 -5.29007 30
      vertex 7.28115 -5.29007 0
    endloop
  endfacet
  facet normal -0.770513 0.637424 0
    outer loop
      vertex 7.28115 -5.29007 30
      vertex 6.56072 -6.16092 0
      vertex 6.56072 -6.16092 30
    endloop
  endfacet
  facet normal -0.904827 0.425779 0
    outer loop
      vertex 7.88676 -4.33578 0
      vertex 8.36799 -3.31312 30
      vertex 8.36799 -3.31312 0
    endloop
  endfacet
  facet normal -0.904827 0.425779 0
    outer loop
      vertex 8.36799 -3.31312 30
      vertex 7.88676 -4.33578 0
      vertex 7.88676 -4.33578 30
    endloop
  endfacet
  facet normal -0.982287 0.187381 0
    outer loop
      vertex 8.71725 -2.23821 0
      vertex 8.92903 -1.128 30
      vertex 8.92903 -1.128 0
    endloop
  endfacet
  facet normal -0.982287 0.187381 0
    outer loop
      vertex 8.92903 -1.128 30
      vertex 8.71725 -2.23821 0
      vertex 8.71725 -2.23821 30
    endloop
  endfacet
  facet normal -0.684547 0.728968 0
    outer loop
      vertex 6.56072 -6.16092 0
      vertex 5.73682 -6.93462 30
      vertex 6.56072 -6.16092 30
    endloop
  endfacet
  facet normal -0.684547 0.728968 0
    outer loop
      vertex 5.73682 -6.93462 30
      vertex 6.56072 -6.16092 0
      vertex 5.73682 -6.93462 0
    endloop
  endfacet
  facet normal -0.844328 0.535827 0
    outer loop
      vertex 7.28115 -5.29007 0
      vertex 7.88676 -4.33578 30
      vertex 7.88676 -4.33578 0
    endloop
  endfacet
  facet normal -0.844328 0.535827 0
    outer loop
      vertex 7.88676 -4.33578 30
      vertex 7.28115 -5.29007 0
      vertex 7.28115 -5.29007 30
    endloop
  endfacet
  facet normal 0.24869 0.968583 -0
    outer loop
      vertex -1.68643 -8.84058 0
      vertex -2.78115 -8.55951 30
      vertex -1.68643 -8.84058 30
    endloop
  endfacet
  facet normal 0.24869 0.968583 0
    outer loop
      vertex -2.78115 -8.55951 30
      vertex -1.68643 -8.84058 0
      vertex -2.78115 -8.55951 0
    endloop
  endfacet
  facet normal 0.770513 0.637424 0
    outer loop
      vertex -6.56072 -6.16092 30
      vertex -7.28115 -5.29007 0
      vertex -7.28115 -5.29007 30
    endloop
  endfacet
  facet normal 0.770513 0.637424 0
    outer loop
      vertex -7.28115 -5.29007 0
      vertex -6.56072 -6.16092 30
      vertex -6.56072 -6.16092 0
    endloop
  endfacet
  facet normal 0.844328 0.535827 0
    outer loop
      vertex -7.28115 -5.29007 30
      vertex -7.88676 -4.33578 0
      vertex -7.88676 -4.33578 30
    endloop
  endfacet
  facet normal 0.844328 0.535827 0
    outer loop
      vertex -7.88676 -4.33578 0
      vertex -7.28115 -5.29007 30
      vertex -7.28115 -5.29007 0
    endloop
  endfacet
  facet normal 0.951056 0.309017 0
    outer loop
      vertex -8.36799 -3.31312 30
      vertex -8.71725 -2.23821 0
      vertex -8.71725 -2.23821 30
    endloop
  endfacet
  facet normal 0.951056 0.309017 0
    outer loop
      vertex -8.71725 -2.23821 0
      vertex -8.36799 -3.31312 30
      vertex -8.36799 -3.31312 0
    endloop
  endfacet
  facet normal -0.368125 0.929776 0
    outer loop
      vertex 3.83201 -8.14344 0
      vertex 2.78115 -8.55951 30
      vertex 3.83201 -8.14344 30
    endloop
  endfacet
  facet normal -0.368125 0.929776 0
    outer loop
      vertex 2.78115 -8.55951 30
      vertex 3.83201 -8.14344 0
      vertex 2.78115 -8.55951 0
    endloop
  endfacet
  facet normal -0.24869 0.968583 0
    outer loop
      vertex 2.78115 -8.55951 0
      vertex 1.68643 -8.84058 30
      vertex 2.78115 -8.55951 30
    endloop
  endfacet
  facet normal -0.24869 0.968583 0
    outer loop
      vertex 1.68643 -8.84058 30
      vertex 2.78115 -8.55951 0
      vertex 1.68643 -8.84058 0
    endloop
  endfacet
  facet normal 0.125333 0.992115 -0
    outer loop
      vertex -0.565114 -8.98224 0
      vertex -1.68643 -8.84058 30
      vertex -0.565114 -8.98224 30
    endloop
  endfacet
  facet normal 0.125333 0.992115 0
    outer loop
      vertex -1.68643 -8.84058 30
      vertex -0.565114 -8.98224 0
      vertex -1.68643 -8.84058 0
    endloop
  endfacet
  facet normal 0.368125 0.929776 -0
    outer loop
      vertex -2.78115 -8.55951 0
      vertex -3.83201 -8.14344 30
      vertex -2.78115 -8.55951 30
    endloop
  endfacet
  facet normal 0.368125 0.929776 0
    outer loop
      vertex -3.83201 -8.14344 30
      vertex -2.78115 -8.55951 0
      vertex -3.83201 -8.14344 0
    endloop
  endfacet
  facet normal 0.684547 0.728968 -0
    outer loop
      vertex -5.73682 -6.93462 0
      vertex -6.56072 -6.16092 30
      vertex -5.73682 -6.93462 30
    endloop
  endfacet
  facet normal 0.684547 0.728968 0
    outer loop
      vertex -6.56072 -6.16092 30
      vertex -5.73682 -6.93462 0
      vertex -6.56072 -6.16092 0
    endloop
  endfacet
  facet normal 0.904827 0.425779 0
    outer loop
      vertex -7.88676 -4.33578 30
      vertex -8.36799 -3.31312 0
      vertex -8.36799 -3.31312 30
    endloop
  endfacet
  facet normal 0.904827 0.425779 0
    outer loop
      vertex -8.36799 -3.31312 0
      vertex -7.88676 -4.33578 30
      vertex -7.88676 -4.33578 0
    endloop
  endfacet
  facet normal 0.982287 0.187381 0
    outer loop
      vertex -8.71725 -2.23821 30
      vertex -8.92903 -1.128 0
      vertex -8.92903 -1.128 30
    endloop
  endfacet
  facet normal 0.982287 0.187381 0
    outer loop
      vertex -8.92903 -1.128 0
      vertex -8.71725 -2.23821 30
      vertex -8.71725 -2.23821 0
    endloop
  endfacet
  facet normal 0.998027 0.0627914 0
    outer loop
      vertex -8.92903 -1.128 30
      vertex -9 0 0
      vertex -9 0 30
    endloop
  endfacet
  facet normal 0.998027 0.0627914 0
    outer loop
      vertex -9 0 0
      vertex -8.92903 -1.128 30
      vertex -8.92903 -1.128 0
    endloop
  endfacet
  facet normal -0.587785 0.809017 0
    outer loop
      vertex 5.73682 -6.93462 0
      vertex 4.82244 -7.59895 30
      vertex 5.73682 -6.93462 30
    endloop
  endfacet
  facet normal -0.587785 0.809017 0
    outer loop
      vertex 4.82244 -7.59895 30
      vertex 5.73682 -6.93462 0
      vertex 4.82244 -7.59895 0
    endloop
  endfacet
  facet normal -0.481754 0.876307 0
    outer loop
      vertex 4.82244 -7.59895 0
      vertex 3.83201 -8.14344 30
      vertex 4.82244 -7.59895 30
    endloop
  endfacet
  facet normal -0.481754 0.876307 0
    outer loop
      vertex 3.83201 -8.14344 30
      vertex 4.82244 -7.59895 0
      vertex 3.83201 -8.14344 0
    endloop
  endfacet
  facet normal 0.587785 0.809017 -0
    outer loop
      vertex -4.82244 -7.59895 0
      vertex -5.73682 -6.93462 30
      vertex -4.82244 -7.59895 30
    endloop
  endfacet
  facet normal 0.587785 0.809017 0
    outer loop
      vertex -5.73682 -6.93462 30
      vertex -4.82244 -7.59895 0
      vertex -5.73682 -6.93462 0
    endloop
  endfacet
  facet normal 0.481754 0.876307 -0
    outer loop
      vertex -3.83201 -8.14344 0
      vertex -4.82244 -7.59895 30
      vertex -3.83201 -8.14344 30
    endloop
  endfacet
  facet normal 0.481754 0.876307 0
    outer loop
      vertex -4.82244 -7.59895 30
      vertex -3.83201 -8.14344 0
      vertex -4.82244 -7.59895 0
    endloop
  endfacet
endsolid OpenSCAD_Model
