solid OpenSCAD_Model
  facet normal -0 0 1
    outer loop
      vertex 23.5 21.75 15.5
      vertex 23.5 3.5 15.5
      vertex 29.7434 21.75 15.5
    endloop
  endfacet
  facet normal 0.946164 -0.323688 0
    outer loop
      vertex 23.5 3.5 15.5
      vertex 29.7434 21.75 14.5
      vertex 29.7434 21.75 15.5
    endloop
  endfacet
  facet normal 0.946164 -0.323688 0
    outer loop
      vertex 29.7434 21.75 14.5
      vertex 23.5 3.5 15.5
      vertex 23.5 3.5 14.5
    endloop
  endfacet
  facet normal -0 0 -1
    outer loop
      vertex 29.7434 21.75 14.5
      vertex 23.5 3.5 14.5
      vertex 23.5 21.75 14.5
    endloop
  endfacet
  facet normal 0 0 1
    outer loop
      vertex -23.5 21.75 15.5
      vertex -29.7434 21.75 15.5
      vertex -23.5 3.5 15.5
    endloop
  endfacet
  facet normal 0 0 -1
    outer loop
      vertex -23.5 3.5 14.5
      vertex -29.7434 21.75 14.5
      vertex -23.5 21.75 14.5
    endloop
  endfacet
  facet normal -0.946164 -0.323688 0
    outer loop
      vertex -23.5 3.5 14.5
      vertex -29.7434 21.75 15.5
      vertex -29.7434 21.75 14.5
    endloop
  endfacet
  facet normal -0.946164 -0.323688 0
    outer loop
      vertex -29.7434 21.75 15.5
      vertex -23.5 3.5 14.5
      vertex -23.5 3.5 15.5
    endloop
  endfacet
  facet normal -1 0 0
    outer loop
      vertex -23.5 21.75 0
      vertex -23.5 3.5 14.5
      vertex -23.5 21.75 14.5
    endloop
  endfacet
  facet normal -1 0 0
    outer loop
      vertex -23.5 -23.5 9.90599
      vertex -23.5 3.5 14.5
      vertex -23.5 -23.5 0
    endloop
  endfacet
  facet normal -1 0 0
    outer loop
      vertex -23.5 -23.5 0
      vertex -23.5 3.5 14.5
      vertex -23.5 21.75 0
    endloop
  endfacet
  facet normal -1 0 0
    outer loop
      vertex -23.5 21.75 15.5
      vertex -23.5 11.3038 30
      vertex -23.5 21.75 30
    endloop
  endfacet
  facet normal -1 0 0
    outer loop
      vertex -23.5 3.5 15.5
      vertex -23.5 11.3038 30
      vertex -23.5 21.75 15.5
    endloop
  endfacet
  facet normal -1 -0 0
    outer loop
      vertex -23.5 3.5 14.5
      vertex -23.5 -23.5 9.90599
      vertex -23.5 3.5 15.5
    endloop
  endfacet
  facet normal -1 -0 0
    outer loop
      vertex -23.5 3.5 15.5
      vertex -23.5 -23.5 9.90599
      vertex -23.5 11.3038 30
    endloop
  endfacet
  facet normal 0 0 1
    outer loop
      vertex 27.3431 24.25 30
      vertex 23.5 21.75 30
      vertex 27.3431 21.75 30
    endloop
  endfacet
  facet normal 0 0 1
    outer loop
      vertex 23.5 21.75 30
      vertex 21.5 21.5 30
      vertex 23.5 11.3038 30
    endloop
  endfacet
  facet normal 0 0 1
    outer loop
      vertex 27.3431 24.25 30
      vertex 21.5 21.5 30
      vertex 23.5 21.75 30
    endloop
  endfacet
  facet normal 0 0 1
    outer loop
      vertex 27.3431 24.25 30
      vertex -21.5 21.5 30
      vertex 21.5 21.5 30
    endloop
  endfacet
  facet normal 0 0 1
    outer loop
      vertex -23.5 11.3038 30
      vertex -21.5 21.5 30
      vertex -23.5 21.75 30
    endloop
  endfacet
  facet normal -0 0 1
    outer loop
      vertex -27.3431 24.25 30
      vertex -21.5 21.5 30
      vertex 27.3431 24.25 30
    endloop
  endfacet
  facet normal 0 0 1
    outer loop
      vertex -21.5 21.5 30
      vertex -27.3431 24.25 30
      vertex -23.5 21.75 30
    endloop
  endfacet
  facet normal 0 0 1
    outer loop
      vertex -23.5 21.75 30
      vertex -27.3431 24.25 30
      vertex -27.3431 21.75 30
    endloop
  endfacet
  facet normal 0 0 1
    outer loop
      vertex 23.5 11.3038 30
      vertex 21.5 21.5 30
      vertex 21.5 11.3038 30
    endloop
  endfacet
  facet normal 0 0 1
    outer loop
      vertex -21.5 21.5 30
      vertex -23.5 11.3038 30
      vertex -21.5 11.3038 30
    endloop
  endfacet
  facet normal 1 0 0
    outer loop
      vertex 23.5 21.75 30
      vertex 23.5 20.5 23.1732
      vertex 23.5 21.75 23.1732
    endloop
  endfacet
  facet normal 1 0 0
    outer loop
      vertex 23.5 20.5 23.1732
      vertex 23.5 11.3038 30
      vertex 23.5 20.5 22.8268
    endloop
  endfacet
  facet normal 1 -0 0
    outer loop
      vertex 23.5 11.3038 30
      vertex 23.5 20.5 23.1732
      vertex 23.5 21.75 30
    endloop
  endfacet
  facet normal 1 -0 0
    outer loop
      vertex 23.5 20.5 22.8268
      vertex 23.5 21.75 15.5
      vertex 23.5 21.75 22.8268
    endloop
  endfacet
  facet normal 1 0 0
    outer loop
      vertex 23.5 3.5 15.5
      vertex 23.5 20.5 22.8268
      vertex 23.5 11.3038 30
    endloop
  endfacet
  facet normal 1 0 0
    outer loop
      vertex 23.5 20.5 22.8268
      vertex 23.5 3.5 15.5
      vertex 23.5 21.75 15.5
    endloop
  endfacet
  facet normal 1 0 0
    outer loop
      vertex 23.5 3.5 15.5
      vertex 23.5 -5 6
      vertex 23.5 3.5 14.5
    endloop
  endfacet
  facet normal 1 0 0
    outer loop
      vertex 23.5 -23.5 9.90599
      vertex 23.5 3.5 15.5
      vertex 23.5 11.3038 30
    endloop
  endfacet
  facet normal 1 0 0
    outer loop
      vertex 23.5 -23.5 0
      vertex 23.5 -5 6
      vertex 23.5 -23.5 9.90599
    endloop
  endfacet
  facet normal 1 0 0
    outer loop
      vertex 23.5 3.5 15.5
      vertex 23.5 -23.5 9.90599
      vertex 23.5 -5 6
    endloop
  endfacet
  facet normal 1 0 0
    outer loop
      vertex 23.5 21.75 14.5
      vertex 23.5 20.5 7.17321
      vertex 23.5 21.75 7.17321
    endloop
  endfacet
  facet normal 1 0 0
    outer loop
      vertex 23.5 20.5 7.17321
      vertex 23.5 5 6
      vertex 23.5 20.5 6.82679
    endloop
  endfacet
  facet normal 1 -0 0
    outer loop
      vertex 23.5 3.5 14.5
      vertex 23.5 20.5 7.17321
      vertex 23.5 21.75 14.5
    endloop
  endfacet
  facet normal 1 0 0
    outer loop
      vertex 23.5 20.5 7.17321
      vertex 23.5 3.5 14.5
      vertex 23.5 5 6
    endloop
  endfacet
  facet normal 1 0 0
    outer loop
      vertex 23.5 5 6
      vertex 23.5 3.5 14.5
      vertex 23.5 -5 6
    endloop
  endfacet
  facet normal 1 -0 0
    outer loop
      vertex 23.5 20.5 6.82679
      vertex 23.5 21.75 0
      vertex 23.5 21.75 6.82679
    endloop
  endfacet
  facet normal 1 0 0
    outer loop
      vertex 23.5 5 2
      vertex 23.5 20.5 6.82679
      vertex 23.5 5 6
    endloop
  endfacet
  facet normal 1 0 0
    outer loop
      vertex 23.5 20.5 6.82679
      vertex 23.5 5 2
      vertex 23.5 21.75 0
    endloop
  endfacet
  facet normal 1 -0 0
    outer loop
      vertex 23.5 -5 2
      vertex 23.5 21.75 0
      vertex 23.5 5 2
    endloop
  endfacet
  facet normal 1 0 0
    outer loop
      vertex 23.5 -5 2
      vertex 23.5 -23.5 0
      vertex 23.5 21.75 0
    endloop
  endfacet
  facet normal 1 0 0
    outer loop
      vertex 23.5 -5 6
      vertex 23.5 -23.5 0
      vertex 23.5 -5 2
    endloop
  endfacet
  facet normal 0 0 -1
    outer loop
      vertex -16.8856 14.7 0
      vertex -13.7032 6.10105 0
      vertex -14.6722 3.11868 0
    endloop
  endfacet
  facet normal 0 0 -1
    outer loop
      vertex -23.5 21.75 0
      vertex -14.6722 3.11868 0
      vertex -15 0 0
    endloop
  endfacet
  facet normal 0 0 -1
    outer loop
      vertex -13.7032 6.10105 0
      vertex -15.5 13.9 0
      vertex -14.1144 14.7 0
    endloop
  endfacet
  facet normal 0 0 -1
    outer loop
      vertex -16.3 -14.1144 0
      vertex -12.1353 -8.81678 0
      vertex -14.7 -14.1144 0
    endloop
  endfacet
  facet normal -0 0 -1
    outer loop
      vertex -12.1353 -8.81678 0
      vertex -16.3 -14.1144 0
      vertex -13.7032 -6.10105 0
    endloop
  endfacet
  facet normal -0 0 -1
    outer loop
      vertex -13.7032 -6.10105 0
      vertex -16.3 -14.1144 0
      vertex -14.6722 -3.11868 0
    endloop
  endfacet
  facet normal 0 0 -1
    outer loop
      vertex -17.1 -15.5 0
      vertex -14.6722 -3.11868 0
      vertex -16.3 -14.1144 0
    endloop
  endfacet
  facet normal 0 0 -1
    outer loop
      vertex -23.5 -23.5 0
      vertex -14.6722 -3.11868 0
      vertex -17.1 -15.5 0
    endloop
  endfacet
  facet normal 0 0 -1
    outer loop
      vertex -13.7032 6.10105 0
      vertex -16.8856 14.7 0
      vertex -15.5 13.9 0
    endloop
  endfacet
  facet normal 0 0 -1
    outer loop
      vertex -14.6722 3.11868 0
      vertex -23.5 21.75 0
      vertex -16.8856 14.7 0
    endloop
  endfacet
  facet normal -0 0 -1
    outer loop
      vertex -14.6722 -3.11868 0
      vertex -23.5 -23.5 0
      vertex -15 0 0
    endloop
  endfacet
  facet normal 0 0 -1
    outer loop
      vertex 16.8856 -14.7 0
      vertex 14.6722 -3.11868 0
      vertex 15 0 0
    endloop
  endfacet
  facet normal 0 0 -1
    outer loop
      vertex 12.1353 -8.81678 0
      vertex 15.5 -13.9 0
      vertex 14.1144 -14.7 0
    endloop
  endfacet
  facet normal 0 0 -1
    outer loop
      vertex 16.8856 -14.7 0
      vertex 13.7032 -6.10105 0
      vertex 14.6722 -3.11868 0
    endloop
  endfacet
  facet normal 0 0 -1
    outer loop
      vertex 15 0 0
      vertex 23.5 21.75 0
      vertex 23.5 -23.5 0
    endloop
  endfacet
  facet normal 0 0 -1
    outer loop
      vertex 16.8856 -14.7 0
      vertex 23.5 -23.5 0
      vertex 16.8856 -16.3 0
    endloop
  endfacet
  facet normal 0 0 -1
    outer loop
      vertex 23.5 -23.5 0
      vertex 15.5 -17.1 0
      vertex 16.8856 -16.3 0
    endloop
  endfacet
  facet normal 0 0 -1
    outer loop
      vertex 1.56793 -14.9178 0
      vertex 15.5 -17.1 0
      vertex 23.5 -23.5 0
    endloop
  endfacet
  facet normal 0 0 -1
    outer loop
      vertex 7.5 -12.9904 0
      vertex 14.1144 -14.7 0
      vertex 14.1144 -16.3 0
    endloop
  endfacet
  facet normal 0 0 -1
    outer loop
      vertex 15.5 -13.9 0
      vertex 12.1353 -8.81678 0
      vertex 13.7032 -6.10105 0
    endloop
  endfacet
  facet normal 0 0 -1
    outer loop
      vertex 14.1144 -14.7 0
      vertex 10.037 -11.1472 0
      vertex 12.1353 -8.81678 0
    endloop
  endfacet
  facet normal 0 0 -1
    outer loop
      vertex 14.1144 -14.7 0
      vertex 7.5 -12.9904 0
      vertex 10.037 -11.1472 0
    endloop
  endfacet
  facet normal 0 0 -1
    outer loop
      vertex 15.5 -17.1 0
      vertex 1.56793 -14.9178 0
      vertex 14.1144 -16.3 0
    endloop
  endfacet
  facet normal 0 0 -1
    outer loop
      vertex 14.1144 -16.3 0
      vertex 4.63525 -14.2658 0
      vertex 7.5 -12.9904 0
    endloop
  endfacet
  facet normal 0 0 -1
    outer loop
      vertex 14.1144 -16.3 0
      vertex 1.56793 -14.9178 0
      vertex 4.63525 -14.2658 0
    endloop
  endfacet
  facet normal 0 0 -1
    outer loop
      vertex 23.5 -23.5 0
      vertex -1.56793 -14.9178 0
      vertex 1.56793 -14.9178 0
    endloop
  endfacet
  facet normal 0 0 -1
    outer loop
      vertex -23.5 -23.5 0
      vertex -1.56793 -14.9178 0
      vertex 23.5 -23.5 0
    endloop
  endfacet
  facet normal -0 0 -1
    outer loop
      vertex -10.037 -11.1472 0
      vertex -14.7 -14.1144 0
      vertex -12.1353 -8.81678 0
    endloop
  endfacet
  facet normal 0 0 -1
    outer loop
      vertex -14.7 -14.1144 0
      vertex -10.037 -11.1472 0
      vertex -13.9 -15.5 0
    endloop
  endfacet
  facet normal -0 0 -1
    outer loop
      vertex -7.5 -12.9904 0
      vertex -13.9 -15.5 0
      vertex -10.037 -11.1472 0
    endloop
  endfacet
  facet normal -0 0 -1
    outer loop
      vertex -4.63525 -14.2658 0
      vertex -13.9 -15.5 0
      vertex -7.5 -12.9904 0
    endloop
  endfacet
  facet normal 0 -0 -1
    outer loop
      vertex -14.7 -16.8856 0
      vertex -1.56793 -14.9178 0
      vertex -23.5 -23.5 0
    endloop
  endfacet
  facet normal 0 0 -1
    outer loop
      vertex -4.63525 -14.2658 0
      vertex -14.7 -16.8856 0
      vertex -13.9 -15.5 0
    endloop
  endfacet
  facet normal -0 0 -1
    outer loop
      vertex -1.56793 -14.9178 0
      vertex -14.7 -16.8856 0
      vertex -4.63525 -14.2658 0
    endloop
  endfacet
  facet normal -0 0 -1
    outer loop
      vertex -16.3 -16.8856 0
      vertex -23.5 -23.5 0
      vertex -17.1 -15.5 0
    endloop
  endfacet
  facet normal -0 0 -1
    outer loop
      vertex -14.7 -16.8856 0
      vertex -23.5 -23.5 0
      vertex -16.3 -16.8856 0
    endloop
  endfacet
  facet normal 0 0 -1
    outer loop
      vertex 23.5 21.75 0
      vertex 27.3431 24.25 0
      vertex 27.3431 21.75 0
    endloop
  endfacet
  facet normal 0 0 -1
    outer loop
      vertex 16.3 16.8856 0
      vertex 23.5 21.75 0
      vertex 17.1 15.5 0
    endloop
  endfacet
  facet normal 0 0 -1
    outer loop
      vertex 14.7 16.8856 0
      vertex 23.5 21.75 0
      vertex 16.3 16.8856 0
    endloop
  endfacet
  facet normal 0 0 -1
    outer loop
      vertex 1.56793 14.9178 0
      vertex 23.5 21.75 0
      vertex 14.7 16.8856 0
    endloop
  endfacet
  facet normal 0 0 -1
    outer loop
      vertex 10.037 11.1472 0
      vertex 14.7 14.1144 0
      vertex 12.1353 8.81678 0
    endloop
  endfacet
  facet normal -0 0 -1
    outer loop
      vertex 14.7 14.1144 0
      vertex 10.037 11.1472 0
      vertex 13.9 15.5 0
    endloop
  endfacet
  facet normal 0 0 -1
    outer loop
      vertex 7.5 12.9904 0
      vertex 13.9 15.5 0
      vertex 10.037 11.1472 0
    endloop
  endfacet
  facet normal -0 0 -1
    outer loop
      vertex 13.9 15.5 0
      vertex 7.5 12.9904 0
      vertex 14.7 16.8856 0
    endloop
  endfacet
  facet normal 0 0 -1
    outer loop
      vertex 4.63525 14.2658 0
      vertex 14.7 16.8856 0
      vertex 7.5 12.9904 0
    endloop
  endfacet
  facet normal 0 0 -1
    outer loop
      vertex 1.56793 14.9178 0
      vertex 14.7 16.8856 0
      vertex 4.63525 14.2658 0
    endloop
  endfacet
  facet normal 0 0 -1
    outer loop
      vertex -1.56793 14.9178 0
      vertex 23.5 21.75 0
      vertex 1.56793 14.9178 0
    endloop
  endfacet
  facet normal 0 0 -1
    outer loop
      vertex -23.5 21.75 0
      vertex 23.5 21.75 0
      vertex -1.56793 14.9178 0
    endloop
  endfacet
  facet normal 0 0 -1
    outer loop
      vertex -14.1144 16.3 0
      vertex -1.56793 14.9178 0
      vertex -4.63525 14.2658 0
    endloop
  endfacet
  facet normal 0 0 -1
    outer loop
      vertex -14.1144 14.7 0
      vertex -12.1353 8.81678 0
      vertex -13.7032 6.10105 0
    endloop
  endfacet
  facet normal 0 0 -1
    outer loop
      vertex -14.1144 14.7 0
      vertex -10.037 11.1472 0
      vertex -12.1353 8.81678 0
    endloop
  endfacet
  facet normal 0 0 -1
    outer loop
      vertex -14.1144 14.7 0
      vertex -7.5 12.9904 0
      vertex -10.037 11.1472 0
    endloop
  endfacet
  facet normal 0 0 -1
    outer loop
      vertex -14.1144 16.3 0
      vertex -7.5 12.9904 0
      vertex -14.1144 14.7 0
    endloop
  endfacet
  facet normal 0 0 -1
    outer loop
      vertex -7.5 12.9904 0
      vertex -14.1144 16.3 0
      vertex -4.63525 14.2658 0
    endloop
  endfacet
  facet normal 0 0 -1
    outer loop
      vertex -1.56793 14.9178 0
      vertex -14.1144 16.3 0
      vertex -15.5 17.1 0
    endloop
  endfacet
  facet normal 0 0 -1
    outer loop
      vertex -1.56793 14.9178 0
      vertex -15.5 17.1 0
      vertex -23.5 21.75 0
    endloop
  endfacet
  facet normal -0 0 -1
    outer loop
      vertex -15 0 0
      vertex -23.5 -23.5 0
      vertex -23.5 21.75 0
    endloop
  endfacet
  facet normal 0 0 -1
    outer loop
      vertex -16.8856 14.7 0
      vertex -23.5 21.75 0
      vertex -16.8856 16.3 0
    endloop
  endfacet
  facet normal 0 0 -1
    outer loop
      vertex -23.5 21.75 0
      vertex -15.5 17.1 0
      vertex -16.8856 16.3 0
    endloop
  endfacet
  facet normal 0 0 -1
    outer loop
      vertex 23.5 21.75 0
      vertex -23.5 21.75 0
      vertex 27.3431 24.25 0
    endloop
  endfacet
  facet normal 0 0 -1
    outer loop
      vertex -27.3431 24.25 0
      vertex -23.5 21.75 0
      vertex -27.3431 21.75 0
    endloop
  endfacet
  facet normal 0 0 -1
    outer loop
      vertex -23.5 21.75 0
      vertex -27.3431 24.25 0
      vertex 27.3431 24.25 0
    endloop
  endfacet
  facet normal 0 0 -1
    outer loop
      vertex 15 0 0
      vertex 23.5 -23.5 0
      vertex 16.8856 -14.7 0
    endloop
  endfacet
  facet normal 0 0 -1
    outer loop
      vertex 14.6722 3.11868 0
      vertex 23.5 21.75 0
      vertex 15 0 0
    endloop
  endfacet
  facet normal 0 0 -1
    outer loop
      vertex 13.7032 -6.10105 0
      vertex 16.8856 -14.7 0
      vertex 15.5 -13.9 0
    endloop
  endfacet
  facet normal 0 0 -1
    outer loop
      vertex 23.5 21.75 0
      vertex 14.6722 3.11868 0
      vertex 17.1 15.5 0
    endloop
  endfacet
  facet normal 0 0 -1
    outer loop
      vertex 17.1 15.5 0
      vertex 14.6722 3.11868 0
      vertex 16.3 14.1144 0
    endloop
  endfacet
  facet normal 0 0 -1
    outer loop
      vertex 13.7032 6.10105 0
      vertex 16.3 14.1144 0
      vertex 14.6722 3.11868 0
    endloop
  endfacet
  facet normal 0 0 -1
    outer loop
      vertex 12.1353 8.81678 0
      vertex 16.3 14.1144 0
      vertex 13.7032 6.10105 0
    endloop
  endfacet
  facet normal -0 0 -1
    outer loop
      vertex 16.3 14.1144 0
      vertex 12.1353 8.81678 0
      vertex 14.7 14.1144 0
    endloop
  endfacet
  facet normal 0 -1 0
    outer loop
      vertex -23.5 -23.5 0
      vertex 23.5 -23.5 9.90599
      vertex -23.5 -23.5 9.90599
    endloop
  endfacet
  facet normal 0 -1 -0
    outer loop
      vertex 23.5 -23.5 9.90599
      vertex -23.5 -23.5 0
      vertex 23.5 -23.5 0
    endloop
  endfacet
  facet normal -1 0 0
    outer loop
      vertex -32 21.75 4.65685
      vertex -32 24.25 25.3431
      vertex -32 24.25 4.65685
    endloop
  endfacet
  facet normal -1 -0 0
    outer loop
      vertex -32 24.25 25.3431
      vertex -32 21.75 4.65685
      vertex -32 21.75 25.3431
    endloop
  endfacet
  facet normal 1 -0 0
    outer loop
      vertex 32 21.75 25.3431
      vertex 32 24.25 4.65685
      vertex 32 24.25 25.3431
    endloop
  endfacet
  facet normal 1 0 0
    outer loop
      vertex 32 24.25 4.65685
      vertex 32 21.75 25.3431
      vertex 32 21.75 4.65685
    endloop
  endfacet
  facet normal 0 1 0
    outer loop
      vertex -25.4 24.25 7
      vertex -25.4 24.25 23
      vertex 23.4 24.25 7
    endloop
  endfacet
  facet normal 0 1 0
    outer loop
      vertex -25.4 24.25 23
      vertex -25.4 24.25 7
      vertex -26.2 24.25 8.38564
    endloop
  endfacet
  facet normal 0 1 0
    outer loop
      vertex -27.3431 24.25 0
      vertex 23.4 24.25 7
      vertex 24.2 24.25 5.61436
    endloop
  endfacet
  facet normal 0 1 0
    outer loop
      vertex 23.4 24.25 7
      vertex -27.3431 24.25 0
      vertex -25.4 24.25 7
    endloop
  endfacet
  facet normal 0 1 -0
    outer loop
      vertex -25.4 24.25 23
      vertex -27.3431 24.25 30
      vertex 23.4 24.25 23
    endloop
  endfacet
  facet normal 0 1 0
    outer loop
      vertex -27.3431 24.25 30
      vertex -25.4 24.25 23
      vertex -26.2 24.25 24.3856
    endloop
  endfacet
  facet normal 0 1 -0
    outer loop
      vertex 24.2 24.25 8.38564
      vertex 23.4 24.25 23
      vertex 24.2 24.25 21.6144
    endloop
  endfacet
  facet normal 0 1 0
    outer loop
      vertex 23.4 24.25 7
      vertex 23.4 24.25 23
      vertex 24.2 24.25 8.38564
    endloop
  endfacet
  facet normal 0 1 0
    outer loop
      vertex 25.8 24.25 24.3856
      vertex 27.3431 24.25 30
      vertex 32 24.25 25.3431
    endloop
  endfacet
  facet normal 0 1 0
    outer loop
      vertex 27.3431 24.25 30
      vertex 24.2 24.25 24.3856
      vertex -27.3431 24.25 30
    endloop
  endfacet
  facet normal 0 1 0
    outer loop
      vertex 27.3431 24.25 30
      vertex 25.8 24.25 24.3856
      vertex 24.2 24.25 24.3856
    endloop
  endfacet
  facet normal 0 1 0
    outer loop
      vertex 32 24.25 25.3431
      vertex 26.6 24.25 23
      vertex 25.8 24.25 24.3856
    endloop
  endfacet
  facet normal 0 1 0
    outer loop
      vertex 32 24.25 25.3431
      vertex 25.8 24.25 21.6144
      vertex 26.6 24.25 23
    endloop
  endfacet
  facet normal 0 1 0
    outer loop
      vertex 24.2 24.25 8.38564
      vertex 24.2 24.25 21.6144
      vertex 25.8 24.25 21.6144
    endloop
  endfacet
  facet normal 0 1 0
    outer loop
      vertex 23.4 24.25 23
      vertex 23.4 24.25 7
      vertex -25.4 24.25 23
    endloop
  endfacet
  facet normal 0 1 0
    outer loop
      vertex 24.2 24.25 8.38564
      vertex 25.8 24.25 21.6144
      vertex 25.8 24.25 8.38564
    endloop
  endfacet
  facet normal 0 1 0
    outer loop
      vertex 32 24.25 25.3431
      vertex 25.8 24.25 8.38564
      vertex 25.8 24.25 21.6144
    endloop
  endfacet
  facet normal 0 1 -0
    outer loop
      vertex 32 24.25 4.65685
      vertex 25.8 24.25 8.38564
      vertex 32 24.25 25.3431
    endloop
  endfacet
  facet normal 0 1 0
    outer loop
      vertex 27.3431 24.25 0
      vertex 24.2 24.25 5.61436
      vertex 25.8 24.25 5.61436
    endloop
  endfacet
  facet normal 0 1 0
    outer loop
      vertex -25.4 24.25 7
      vertex -27.3431 24.25 0
      vertex -26.2 24.25 5.61436
    endloop
  endfacet
  facet normal 0 1 -0
    outer loop
      vertex 27.3431 24.25 0
      vertex 25.8 24.25 5.61436
      vertex 32 24.25 4.65685
    endloop
  endfacet
  facet normal 0 1 0
    outer loop
      vertex 26.6 24.25 7
      vertex 32 24.25 4.65685
      vertex 25.8 24.25 5.61436
    endloop
  endfacet
  facet normal 0 1 0
    outer loop
      vertex 25.8 24.25 8.38564
      vertex 32 24.25 4.65685
      vertex 26.6 24.25 7
    endloop
  endfacet
  facet normal 0 1 -0
    outer loop
      vertex 23.4 24.25 23
      vertex -27.3431 24.25 30
      vertex 24.2 24.25 24.3856
    endloop
  endfacet
  facet normal 0 1 0
    outer loop
      vertex -27.8 24.25 24.3856
      vertex -27.3431 24.25 30
      vertex -26.2 24.25 24.3856
    endloop
  endfacet
  facet normal 0 1 0
    outer loop
      vertex -27.3431 24.25 30
      vertex -27.8 24.25 24.3856
      vertex -32 24.25 25.3431
    endloop
  endfacet
  facet normal 0 1 -0
    outer loop
      vertex -28.6 24.25 23
      vertex -32 24.25 25.3431
      vertex -27.8 24.25 24.3856
    endloop
  endfacet
  facet normal 0 1 0
    outer loop
      vertex -27.8 24.25 21.6144
      vertex -32 24.25 25.3431
      vertex -28.6 24.25 23
    endloop
  endfacet
  facet normal 0 1 0
    outer loop
      vertex -25.4 24.25 23
      vertex -26.2 24.25 8.38564
      vertex -26.2 24.25 21.6144
    endloop
  endfacet
  facet normal 0 1 0
    outer loop
      vertex -26.2 24.25 21.6144
      vertex -26.2 24.25 8.38564
      vertex -27.8 24.25 21.6144
    endloop
  endfacet
  facet normal 0 1 0
    outer loop
      vertex -27.8 24.25 8.38564
      vertex -27.8 24.25 21.6144
      vertex -26.2 24.25 8.38564
    endloop
  endfacet
  facet normal 0 1 0
    outer loop
      vertex -27.8 24.25 21.6144
      vertex -27.8 24.25 8.38564
      vertex -32 24.25 25.3431
    endloop
  endfacet
  facet normal 0 1 0
    outer loop
      vertex -32 24.25 4.65685
      vertex -27.8 24.25 8.38564
      vertex -28.6 24.25 7
    endloop
  endfacet
  facet normal 0 1 0
    outer loop
      vertex -27.8 24.25 8.38564
      vertex -32 24.25 4.65685
      vertex -32 24.25 25.3431
    endloop
  endfacet
  facet normal 0 1 0
    outer loop
      vertex -27.8 24.25 5.61436
      vertex -32 24.25 4.65685
      vertex -28.6 24.25 7
    endloop
  endfacet
  facet normal 0 1 0
    outer loop
      vertex 24.2 24.25 5.61436
      vertex 27.3431 24.25 0
      vertex -27.3431 24.25 0
    endloop
  endfacet
  facet normal 0 1 0
    outer loop
      vertex -26.2 24.25 5.61436
      vertex -27.3431 24.25 0
      vertex -27.8 24.25 5.61436
    endloop
  endfacet
  facet normal 0 1 0
    outer loop
      vertex -27.8 24.25 5.61436
      vertex -27.3431 24.25 0
      vertex -32 24.25 4.65685
    endloop
  endfacet
  facet normal 0 -1 0
    outer loop
      vertex -32 21.75 25.3431
      vertex -28.6 21.75 23
      vertex -27.8 21.75 24.3856
    endloop
  endfacet
  facet normal 0 -1 0
    outer loop
      vertex -29.7434 21.75 15.5
      vertex -28.6 21.75 23
      vertex -32 21.75 25.3431
    endloop
  endfacet
  facet normal 0 -1 -0
    outer loop
      vertex -27.8 21.75 21.6144
      vertex -29.7434 21.75 15.5
      vertex -26.2 21.75 21.6144
    endloop
  endfacet
  facet normal 0 -1 -0
    outer loop
      vertex -28.6 21.75 23
      vertex -29.7434 21.75 15.5
      vertex -27.8 21.75 21.6144
    endloop
  endfacet
  facet normal 0 -1 0
    outer loop
      vertex -32 21.75 25.3431
      vertex -29.7434 21.75 14.5
      vertex -29.7434 21.75 15.5
    endloop
  endfacet
  facet normal 0 -1 0
    outer loop
      vertex -26.2 21.75 8.38564
      vertex -29.7434 21.75 14.5
      vertex -27.8 21.75 8.38564
    endloop
  endfacet
  facet normal 0 -1 0
    outer loop
      vertex -29.7434 21.75 14.5
      vertex -28.6 21.75 7
      vertex -27.8 21.75 8.38564
    endloop
  endfacet
  facet normal 0 -1 0
    outer loop
      vertex -32 21.75 4.65685
      vertex -29.7434 21.75 14.5
      vertex -32 21.75 25.3431
    endloop
  endfacet
  facet normal 0 -1 0
    outer loop
      vertex -27.3431 21.75 0
      vertex -27.8 21.75 5.61436
      vertex -32 21.75 4.65685
    endloop
  endfacet
  facet normal 0 -1 -0
    outer loop
      vertex -28.6 21.75 7
      vertex -32 21.75 4.65685
      vertex -27.8 21.75 5.61436
    endloop
  endfacet
  facet normal 0 -1 -0
    outer loop
      vertex -29.7434 21.75 14.5
      vertex -32 21.75 4.65685
      vertex -28.6 21.75 7
    endloop
  endfacet
  facet normal 0 -1 0
    outer loop
      vertex -27.8 21.75 24.3856
      vertex -27.3431 21.75 30
      vertex -32 21.75 25.3431
    endloop
  endfacet
  facet normal 0 -1 0
    outer loop
      vertex -26.2 21.75 24.3856
      vertex -27.3431 21.75 30
      vertex -27.8 21.75 24.3856
    endloop
  endfacet
  facet normal 0 -1 0
    outer loop
      vertex -27.3431 21.75 30
      vertex -26.2 21.75 24.3856
      vertex -23.5 21.75 30
    endloop
  endfacet
  facet normal 0 -1 0
    outer loop
      vertex -25.4 21.75 23
      vertex -23.5 21.75 30
      vertex -26.2 21.75 24.3856
    endloop
  endfacet
  facet normal 0 -1 0
    outer loop
      vertex -25.4 21.75 23
      vertex -23.5 21.75 15.5
      vertex -23.5 21.75 30
    endloop
  endfacet
  facet normal 0 -1 0
    outer loop
      vertex -26.2 21.75 21.6144
      vertex -23.5 21.75 15.5
      vertex -25.4 21.75 23
    endloop
  endfacet
  facet normal 0 -1 0
    outer loop
      vertex -23.5 21.75 15.5
      vertex -26.2 21.75 21.6144
      vertex -29.7434 21.75 15.5
    endloop
  endfacet
  facet normal 0 -1 0
    outer loop
      vertex -29.7434 21.75 14.5
      vertex -26.2 21.75 8.38564
      vertex -23.5 21.75 14.5
    endloop
  endfacet
  facet normal 0 -1 0
    outer loop
      vertex -25.4 21.75 7
      vertex -23.5 21.75 14.5
      vertex -26.2 21.75 8.38564
    endloop
  endfacet
  facet normal 0 -1 0
    outer loop
      vertex -27.8 21.75 5.61436
      vertex -27.3431 21.75 0
      vertex -26.2 21.75 5.61436
    endloop
  endfacet
  facet normal 0 -1 0
    outer loop
      vertex -23.5 21.75 0
      vertex -26.2 21.75 5.61436
      vertex -27.3431 21.75 0
    endloop
  endfacet
  facet normal 0 -1 0
    outer loop
      vertex -25.4 21.75 7
      vertex -23.5 21.75 0
      vertex -23.5 21.75 14.5
    endloop
  endfacet
  facet normal 0 -1 0
    outer loop
      vertex -26.2 21.75 5.61436
      vertex -23.5 21.75 0
      vertex -25.4 21.75 7
    endloop
  endfacet
  facet normal 0 -1 0
    outer loop
      vertex 23.5 21.75 0
      vertex 25.8 21.75 5.61436
      vertex 24.2 21.75 5.61436
    endloop
  endfacet
  facet normal 0 -1 0
    outer loop
      vertex 23.5 21.75 0
      vertex 24.2 21.75 5.61436
      vertex 23.5 21.75 6.82679
    endloop
  endfacet
  facet normal 0 -1 -0
    outer loop
      vertex 25.8 21.75 5.61436
      vertex 23.5 21.75 0
      vertex 27.3431 21.75 0
    endloop
  endfacet
  facet normal 0 -1 0
    outer loop
      vertex 25.8 21.75 5.61436
      vertex 27.3431 21.75 0
      vertex 32 21.75 4.65685
    endloop
  endfacet
  facet normal 0 -1 0
    outer loop
      vertex 25.8 21.75 8.38564
      vertex 23.5 21.75 14.5
      vertex 24.2 21.75 8.38564
    endloop
  endfacet
  facet normal -0 -1 0
    outer loop
      vertex 24.2 21.75 8.38564
      vertex 23.5 21.75 14.5
      vertex 23.5 21.75 7.17321
    endloop
  endfacet
  facet normal 0 -1 -0
    outer loop
      vertex 24.2 21.75 21.6144
      vertex 23.5 21.75 15.5
      vertex 25.8 21.75 21.6144
    endloop
  endfacet
  facet normal 0 -1 0
    outer loop
      vertex 23.5 21.75 15.5
      vertex 24.2 21.75 21.6144
      vertex 23.5 21.75 22.8268
    endloop
  endfacet
  facet normal 0 -1 0
    outer loop
      vertex 25.8 21.75 24.3856
      vertex 27.3431 21.75 30
      vertex 23.5 21.75 30
    endloop
  endfacet
  facet normal 0 -1 0
    outer loop
      vertex 25.8 21.75 24.3856
      vertex 23.5 21.75 30
      vertex 24.2 21.75 24.3856
    endloop
  endfacet
  facet normal -0 -1 0
    outer loop
      vertex 24.2 21.75 24.3856
      vertex 23.5 21.75 30
      vertex 23.5 21.75 23.1732
    endloop
  endfacet
  facet normal 0 -1 -0
    outer loop
      vertex 27.3431 21.75 30
      vertex 25.8 21.75 24.3856
      vertex 32 21.75 25.3431
    endloop
  endfacet
  facet normal 0 -1 0
    outer loop
      vertex 26.6 21.75 23
      vertex 32 21.75 25.3431
      vertex 25.8 21.75 24.3856
    endloop
  endfacet
  facet normal 0 -1 0
    outer loop
      vertex 29.7434 21.75 15.5
      vertex 26.6 21.75 23
      vertex 25.8 21.75 21.6144
    endloop
  endfacet
  facet normal 0 -1 0
    outer loop
      vertex 29.7434 21.75 15.5
      vertex 25.8 21.75 21.6144
      vertex 23.5 21.75 15.5
    endloop
  endfacet
  facet normal 0 -1 0
    outer loop
      vertex 26.6 21.75 23
      vertex 29.7434 21.75 15.5
      vertex 32 21.75 25.3431
    endloop
  endfacet
  facet normal 0 -1 0
    outer loop
      vertex 29.7434 21.75 14.5
      vertex 32 21.75 25.3431
      vertex 29.7434 21.75 15.5
    endloop
  endfacet
  facet normal 0 -1 0
    outer loop
      vertex 23.5 21.75 14.5
      vertex 25.8 21.75 8.38564
      vertex 29.7434 21.75 14.5
    endloop
  endfacet
  facet normal 0 -1 0
    outer loop
      vertex 26.6 21.75 7
      vertex 29.7434 21.75 14.5
      vertex 25.8 21.75 8.38564
    endloop
  endfacet
  facet normal 0 -1 0
    outer loop
      vertex 29.7434 21.75 14.5
      vertex 32 21.75 4.65685
      vertex 32 21.75 25.3431
    endloop
  endfacet
  facet normal 0 -1 0
    outer loop
      vertex 26.6 21.75 7
      vertex 32 21.75 4.65685
      vertex 29.7434 21.75 14.5
    endloop
  endfacet
  facet normal 0 -1 0
    outer loop
      vertex 32 21.75 4.65685
      vertex 26.6 21.75 7
      vertex 25.8 21.75 5.61436
    endloop
  endfacet
  facet normal -0.866025 0 -0.500001
    outer loop
      vertex -25.4 21.75 7
      vertex -26.2 24.25 8.38564
      vertex -25.4 24.25 7
    endloop
  endfacet
  facet normal -0.866025 -0 -0.500001
    outer loop
      vertex -26.2 24.25 8.38564
      vertex -25.4 21.75 7
      vertex -26.2 21.75 8.38564
    endloop
  endfacet
  facet normal 0 0 -1
    outer loop
      vertex -27.8 21.75 8.38564
      vertex -26.2 24.25 8.38564
      vertex -26.2 21.75 8.38564
    endloop
  endfacet
  facet normal -0 0 -1
    outer loop
      vertex -26.2 24.25 8.38564
      vertex -27.8 21.75 8.38564
      vertex -27.8 24.25 8.38564
    endloop
  endfacet
  facet normal -0 0 1
    outer loop
      vertex -27.8 24.25 5.61436
      vertex -26.2 21.75 5.61436
      vertex -26.2 24.25 5.61436
    endloop
  endfacet
  facet normal 0 0 1
    outer loop
      vertex -26.2 21.75 5.61436
      vertex -27.8 24.25 5.61436
      vertex -27.8 21.75 5.61436
    endloop
  endfacet
  facet normal 0.866026 0 -0.5
    outer loop
      vertex -27.8 21.75 8.38564
      vertex -28.6 24.25 7
      vertex -27.8 24.25 8.38564
    endloop
  endfacet
  facet normal 0.866026 0 -0.5
    outer loop
      vertex -28.6 24.25 7
      vertex -27.8 21.75 8.38564
      vertex -28.6 21.75 7
    endloop
  endfacet
  facet normal 0.866026 -0 0.5
    outer loop
      vertex -28.6 21.75 7
      vertex -27.8 24.25 5.61436
      vertex -28.6 24.25 7
    endloop
  endfacet
  facet normal 0.866026 0 0.5
    outer loop
      vertex -27.8 24.25 5.61436
      vertex -28.6 21.75 7
      vertex -27.8 21.75 5.61436
    endloop
  endfacet
  facet normal -0.866025 0 0.5
    outer loop
      vertex -26.2 21.75 5.61436
      vertex -25.4 24.25 7
      vertex -26.2 24.25 5.61436
    endloop
  endfacet
  facet normal -0.866025 0 0.5
    outer loop
      vertex -25.4 24.25 7
      vertex -26.2 21.75 5.61436
      vertex -25.4 21.75 7
    endloop
  endfacet
  facet normal -0.866025 0 -0.500001
    outer loop
      vertex -25.4 21.75 23
      vertex -26.2 24.25 24.3856
      vertex -25.4 24.25 23
    endloop
  endfacet
  facet normal -0.866025 -0 -0.500001
    outer loop
      vertex -26.2 24.25 24.3856
      vertex -25.4 21.75 23
      vertex -26.2 21.75 24.3856
    endloop
  endfacet
  facet normal 0 0 -1
    outer loop
      vertex -27.8 21.75 24.3856
      vertex -26.2 24.25 24.3856
      vertex -26.2 21.75 24.3856
    endloop
  endfacet
  facet normal -0 0 -1
    outer loop
      vertex -26.2 24.25 24.3856
      vertex -27.8 21.75 24.3856
      vertex -27.8 24.25 24.3856
    endloop
  endfacet
  facet normal -0 0 1
    outer loop
      vertex -27.8 24.25 21.6144
      vertex -26.2 21.75 21.6144
      vertex -26.2 24.25 21.6144
    endloop
  endfacet
  facet normal 0 0 1
    outer loop
      vertex -26.2 21.75 21.6144
      vertex -27.8 24.25 21.6144
      vertex -27.8 21.75 21.6144
    endloop
  endfacet
  facet normal 0.866025 0 -0.5
    outer loop
      vertex -27.8 21.75 24.3856
      vertex -28.6 24.25 23
      vertex -27.8 24.25 24.3856
    endloop
  endfacet
  facet normal 0.866025 0 -0.5
    outer loop
      vertex -28.6 24.25 23
      vertex -27.8 21.75 24.3856
      vertex -28.6 21.75 23
    endloop
  endfacet
  facet normal 0.866026 -0 0.5
    outer loop
      vertex -28.6 21.75 23
      vertex -27.8 24.25 21.6144
      vertex -28.6 24.25 23
    endloop
  endfacet
  facet normal 0.866026 0 0.5
    outer loop
      vertex -27.8 24.25 21.6144
      vertex -28.6 21.75 23
      vertex -27.8 21.75 21.6144
    endloop
  endfacet
  facet normal -0.866025 0 0.5
    outer loop
      vertex -26.2 21.75 21.6144
      vertex -25.4 24.25 23
      vertex -26.2 24.25 21.6144
    endloop
  endfacet
  facet normal -0.866025 0 0.5
    outer loop
      vertex -25.4 24.25 23
      vertex -26.2 21.75 21.6144
      vertex -25.4 21.75 23
    endloop
  endfacet
  facet normal -0.866026 0 -0.5
    outer loop
      vertex 26.6 21.75 7
      vertex 25.8 24.25 8.38564
      vertex 26.6 24.25 7
    endloop
  endfacet
  facet normal -0.866026 -0 -0.5
    outer loop
      vertex 25.8 24.25 8.38564
      vertex 26.6 21.75 7
      vertex 25.8 21.75 8.38564
    endloop
  endfacet
  facet normal 0 0 -1
    outer loop
      vertex 24.2 21.75 8.38564
      vertex 25.8 24.25 8.38564
      vertex 25.8 21.75 8.38564
    endloop
  endfacet
  facet normal -0 0 -1
    outer loop
      vertex 25.8 24.25 8.38564
      vertex 24.2 21.75 8.38564
      vertex 24.2 24.25 8.38564
    endloop
  endfacet
  facet normal -0 0 1
    outer loop
      vertex 24.2 24.25 5.61436
      vertex 25.8 21.75 5.61436
      vertex 25.8 24.25 5.61436
    endloop
  endfacet
  facet normal 0 0 1
    outer loop
      vertex 25.8 21.75 5.61436
      vertex 24.2 24.25 5.61436
      vertex 24.2 21.75 5.61436
    endloop
  endfacet
  facet normal 0.866025 0 -0.500001
    outer loop
      vertex 23.5 21.75 7.17321
      vertex 24.2 24.25 8.38564
      vertex 24.2 21.75 8.38564
    endloop
  endfacet
  facet normal 0.866025 -8.43026e-08 -0.500001
    outer loop
      vertex 24.2 24.25 8.38564
      vertex 23.5 21.75 7.17321
      vertex 23.4 24.25 7
    endloop
  endfacet
  facet normal 0.866026 0 -0.5
    outer loop
      vertex 23.4 20.5 7
      vertex 23.5 21.75 7.17321
      vertex 23.5 20.5 7.17321
    endloop
  endfacet
  facet normal 0.866026 0 -0.5
    outer loop
      vertex 23.5 21.75 7.17321
      vertex 23.4 20.5 7
      vertex 23.4 24.25 7
    endloop
  endfacet
  facet normal 0.866025 -6.04607e-08 0.5
    outer loop
      vertex 23.4 24.25 7
      vertex 23.5 21.75 6.82679
      vertex 24.2 24.25 5.61436
    endloop
  endfacet
  facet normal 0.866026 -0 0.5
    outer loop
      vertex 23.4 20.5 7
      vertex 23.5 21.75 6.82679
      vertex 23.4 24.25 7
    endloop
  endfacet
  facet normal 0.866026 0 0.5
    outer loop
      vertex 23.5 21.75 6.82679
      vertex 23.4 20.5 7
      vertex 23.5 20.5 6.82679
    endloop
  endfacet
  facet normal 0.866025 0 0.500001
    outer loop
      vertex 24.2 24.25 5.61436
      vertex 23.5 21.75 6.82679
      vertex 24.2 21.75 5.61436
    endloop
  endfacet
  facet normal 0 1 0
    outer loop
      vertex 23.5 20.5 7.17321
      vertex 23.5 20.5 6.82679
      vertex 23.4 20.5 7
    endloop
  endfacet
  facet normal -0.866026 0 0.5
    outer loop
      vertex 25.8 21.75 5.61436
      vertex 26.6 24.25 7
      vertex 25.8 24.25 5.61436
    endloop
  endfacet
  facet normal -0.866026 0 0.5
    outer loop
      vertex 26.6 24.25 7
      vertex 25.8 21.75 5.61436
      vertex 26.6 21.75 7
    endloop
  endfacet
  facet normal -0.866025 0 -0.5
    outer loop
      vertex 26.6 21.75 23
      vertex 25.8 24.25 24.3856
      vertex 26.6 24.25 23
    endloop
  endfacet
  facet normal -0.866025 -0 -0.5
    outer loop
      vertex 25.8 24.25 24.3856
      vertex 26.6 21.75 23
      vertex 25.8 21.75 24.3856
    endloop
  endfacet
  facet normal 0 0 -1
    outer loop
      vertex 24.2 21.75 24.3856
      vertex 25.8 24.25 24.3856
      vertex 25.8 21.75 24.3856
    endloop
  endfacet
  facet normal -0 0 -1
    outer loop
      vertex 25.8 24.25 24.3856
      vertex 24.2 21.75 24.3856
      vertex 24.2 24.25 24.3856
    endloop
  endfacet
  facet normal -0 0 1
    outer loop
      vertex 24.2 24.25 21.6144
      vertex 25.8 21.75 21.6144
      vertex 25.8 24.25 21.6144
    endloop
  endfacet
  facet normal 0 0 1
    outer loop
      vertex 25.8 21.75 21.6144
      vertex 24.2 24.25 21.6144
      vertex 24.2 21.75 21.6144
    endloop
  endfacet
  facet normal 0.866025 0 -0.500001
    outer loop
      vertex 23.5 21.75 23.1732
      vertex 24.2 24.25 24.3856
      vertex 24.2 21.75 24.3856
    endloop
  endfacet
  facet normal 0.866025 -2.03512e-07 -0.500001
    outer loop
      vertex 24.2 24.25 24.3856
      vertex 23.5 21.75 23.1732
      vertex 23.4 24.25 23
    endloop
  endfacet
  facet normal 0.866026 0 -0.499999
    outer loop
      vertex 23.4 20.5 23
      vertex 23.5 21.75 23.1732
      vertex 23.5 20.5 23.1732
    endloop
  endfacet
  facet normal 0.866026 0 -0.499999
    outer loop
      vertex 23.5 21.75 23.1732
      vertex 23.4 20.5 23
      vertex 23.4 24.25 23
    endloop
  endfacet
  facet normal 0.866025 -1.55828e-07 0.5
    outer loop
      vertex 23.4 24.25 23
      vertex 23.5 21.75 22.8268
      vertex 24.2 24.25 21.6144
    endloop
  endfacet
  facet normal 0.866026 -0 0.499999
    outer loop
      vertex 23.4 20.5 23
      vertex 23.5 21.75 22.8268
      vertex 23.4 24.25 23
    endloop
  endfacet
  facet normal 0.866026 0 0.499999
    outer loop
      vertex 23.5 21.75 22.8268
      vertex 23.4 20.5 23
      vertex 23.5 20.5 22.8268
    endloop
  endfacet
  facet normal 0.866025 0 0.500001
    outer loop
      vertex 24.2 24.25 21.6144
      vertex 23.5 21.75 22.8268
      vertex 24.2 21.75 21.6144
    endloop
  endfacet
  facet normal 0 1 0
    outer loop
      vertex 23.5 20.5 23.1732
      vertex 23.5 20.5 22.8268
      vertex 23.4 20.5 23
    endloop
  endfacet
  facet normal -0.866026 0 0.5
    outer loop
      vertex 25.8 21.75 21.6144
      vertex 26.6 24.25 23
      vertex 25.8 24.25 21.6144
    endloop
  endfacet
  facet normal -0.866026 0 0.5
    outer loop
      vertex 26.6 24.25 23
      vertex 25.8 21.75 21.6144
      vertex 26.6 21.75 23
    endloop
  endfacet
  facet normal -0.866025 -0.5 0
    outer loop
      vertex 17.1 15.5 0
      vertex 16.3 16.8856 2
      vertex 16.3 16.8856 0
    endloop
  endfacet
  facet normal -0.866025 -0.5 0
    outer loop
      vertex 16.3 16.8856 2
      vertex 17.1 15.5 0
      vertex 17.1 15.5 2
    endloop
  endfacet
  facet normal 0.866025 -0.5 0
    outer loop
      vertex 13.9 15.5 2
      vertex 14.7 16.8856 0
      vertex 14.7 16.8856 2
    endloop
  endfacet
  facet normal 0.866025 -0.5 0
    outer loop
      vertex 14.7 16.8856 0
      vertex 13.9 15.5 2
      vertex 13.9 15.5 0
    endloop
  endfacet
  facet normal 0 -1 0
    outer loop
      vertex 14.7 16.8856 0
      vertex 16.3 16.8856 2
      vertex 14.7 16.8856 2
    endloop
  endfacet
  facet normal 0 -1 -0
    outer loop
      vertex 16.3 16.8856 2
      vertex 14.7 16.8856 0
      vertex 16.3 16.8856 0
    endloop
  endfacet
  facet normal 0.866025 0.5 0
    outer loop
      vertex 14.7 14.1144 2
      vertex 13.9 15.5 0
      vertex 13.9 15.5 2
    endloop
  endfacet
  facet normal 0.866025 0.5 0
    outer loop
      vertex 13.9 15.5 0
      vertex 14.7 14.1144 2
      vertex 14.7 14.1144 0
    endloop
  endfacet
  facet normal -0.866026 0.5 0
    outer loop
      vertex 16.3 14.1144 0
      vertex 17.1 15.5 2
      vertex 17.1 15.5 0
    endloop
  endfacet
  facet normal -0.866026 0.5 0
    outer loop
      vertex 17.1 15.5 2
      vertex 16.3 14.1144 0
      vertex 16.3 14.1144 2
    endloop
  endfacet
  facet normal 0 1 -0
    outer loop
      vertex 16.3 14.1144 0
      vertex 14.7 14.1144 2
      vertex 16.3 14.1144 2
    endloop
  endfacet
  facet normal 0 1 0
    outer loop
      vertex 14.7 14.1144 2
      vertex 16.3 14.1144 0
      vertex 14.7 14.1144 0
    endloop
  endfacet
  facet normal 0.5 -0.866026 0
    outer loop
      vertex -16.8856 16.3 0
      vertex -15.5 17.1 2
      vertex -16.8856 16.3 2
    endloop
  endfacet
  facet normal 0.5 -0.866026 0
    outer loop
      vertex -15.5 17.1 2
      vertex -16.8856 16.3 0
      vertex -15.5 17.1 0
    endloop
  endfacet
  facet normal 1 -0 0
    outer loop
      vertex -16.8856 14.7 2
      vertex -16.8856 16.3 0
      vertex -16.8856 16.3 2
    endloop
  endfacet
  facet normal 1 0 0
    outer loop
      vertex -16.8856 16.3 0
      vertex -16.8856 14.7 2
      vertex -16.8856 14.7 0
    endloop
  endfacet
  facet normal 0.5 0.866025 -0
    outer loop
      vertex -15.5 13.9 0
      vertex -16.8856 14.7 2
      vertex -15.5 13.9 2
    endloop
  endfacet
  facet normal 0.5 0.866025 0
    outer loop
      vertex -16.8856 14.7 2
      vertex -15.5 13.9 0
      vertex -16.8856 14.7 0
    endloop
  endfacet
  facet normal -0.5 -0.866026 0
    outer loop
      vertex -15.5 17.1 0
      vertex -14.1144 16.3 2
      vertex -15.5 17.1 2
    endloop
  endfacet
  facet normal -0.5 -0.866026 -0
    outer loop
      vertex -14.1144 16.3 2
      vertex -15.5 17.1 0
      vertex -14.1144 16.3 0
    endloop
  endfacet
  facet normal -1 0 0
    outer loop
      vertex -14.1144 14.7 0
      vertex -14.1144 16.3 2
      vertex -14.1144 16.3 0
    endloop
  endfacet
  facet normal -1 -0 0
    outer loop
      vertex -14.1144 16.3 2
      vertex -14.1144 14.7 0
      vertex -14.1144 14.7 2
    endloop
  endfacet
  facet normal -0.5 0.866025 0
    outer loop
      vertex -14.1144 14.7 0
      vertex -15.5 13.9 2
      vertex -14.1144 14.7 2
    endloop
  endfacet
  facet normal -0.5 0.866025 0
    outer loop
      vertex -15.5 13.9 2
      vertex -14.1144 14.7 0
      vertex -15.5 13.9 0
    endloop
  endfacet
  facet normal 0.866026 0.5 0
    outer loop
      vertex -16.3 -16.8856 2
      vertex -17.1 -15.5 0
      vertex -17.1 -15.5 2
    endloop
  endfacet
  facet normal 0.866026 0.5 0
    outer loop
      vertex -17.1 -15.5 0
      vertex -16.3 -16.8856 2
      vertex -16.3 -16.8856 0
    endloop
  endfacet
  facet normal 0 1 -0
    outer loop
      vertex -14.7 -16.8856 0
      vertex -16.3 -16.8856 2
      vertex -14.7 -16.8856 2
    endloop
  endfacet
  facet normal 0 1 0
    outer loop
      vertex -16.3 -16.8856 2
      vertex -14.7 -16.8856 0
      vertex -16.3 -16.8856 0
    endloop
  endfacet
  facet normal -0.866025 0.5 0
    outer loop
      vertex -14.7 -16.8856 0
      vertex -13.9 -15.5 2
      vertex -13.9 -15.5 0
    endloop
  endfacet
  facet normal -0.866025 0.5 0
    outer loop
      vertex -13.9 -15.5 2
      vertex -14.7 -16.8856 0
      vertex -14.7 -16.8856 2
    endloop
  endfacet
  facet normal 0.866026 -0.5 0
    outer loop
      vertex -17.1 -15.5 2
      vertex -16.3 -14.1144 0
      vertex -16.3 -14.1144 2
    endloop
  endfacet
  facet normal 0.866026 -0.5 0
    outer loop
      vertex -16.3 -14.1144 0
      vertex -17.1 -15.5 2
      vertex -17.1 -15.5 0
    endloop
  endfacet
  facet normal 0 -1 0
    outer loop
      vertex -16.3 -14.1144 0
      vertex -14.7 -14.1144 2
      vertex -16.3 -14.1144 2
    endloop
  endfacet
  facet normal 0 -1 -0
    outer loop
      vertex -14.7 -14.1144 2
      vertex -16.3 -14.1144 0
      vertex -14.7 -14.1144 0
    endloop
  endfacet
  facet normal -0.866025 -0.5 0
    outer loop
      vertex -13.9 -15.5 0
      vertex -14.7 -14.1144 2
      vertex -14.7 -14.1144 0
    endloop
  endfacet
  facet normal -0.866025 -0.5 0
    outer loop
      vertex -14.7 -14.1144 2
      vertex -13.9 -15.5 0
      vertex -13.9 -15.5 2
    endloop
  endfacet
  facet normal -0.5 0.866026 0
    outer loop
      vertex 16.8856 -16.3 0
      vertex 15.5 -17.1 2
      vertex 16.8856 -16.3 2
    endloop
  endfacet
  facet normal -0.5 0.866026 0
    outer loop
      vertex 15.5 -17.1 2
      vertex 16.8856 -16.3 0
      vertex 15.5 -17.1 0
    endloop
  endfacet
  facet normal -0.5 -0.866025 0
    outer loop
      vertex 15.5 -13.9 0
      vertex 16.8856 -14.7 2
      vertex 15.5 -13.9 2
    endloop
  endfacet
  facet normal -0.5 -0.866025 -0
    outer loop
      vertex 16.8856 -14.7 2
      vertex 15.5 -13.9 0
      vertex 16.8856 -14.7 0
    endloop
  endfacet
  facet normal -1 0 0
    outer loop
      vertex 16.8856 -16.3 0
      vertex 16.8856 -14.7 2
      vertex 16.8856 -14.7 0
    endloop
  endfacet
  facet normal -1 -0 0
    outer loop
      vertex 16.8856 -14.7 2
      vertex 16.8856 -16.3 0
      vertex 16.8856 -16.3 2
    endloop
  endfacet
  facet normal 0.5 0.866026 -0
    outer loop
      vertex 15.5 -17.1 0
      vertex 14.1144 -16.3 2
      vertex 15.5 -17.1 2
    endloop
  endfacet
  facet normal 0.5 0.866026 0
    outer loop
      vertex 14.1144 -16.3 2
      vertex 15.5 -17.1 0
      vertex 14.1144 -16.3 0
    endloop
  endfacet
  facet normal 1 -0 0
    outer loop
      vertex 14.1144 -16.3 2
      vertex 14.1144 -14.7 0
      vertex 14.1144 -14.7 2
    endloop
  endfacet
  facet normal 1 0 0
    outer loop
      vertex 14.1144 -14.7 0
      vertex 14.1144 -16.3 2
      vertex 14.1144 -16.3 0
    endloop
  endfacet
  facet normal 0.5 -0.866025 0
    outer loop
      vertex 14.1144 -14.7 0
      vertex 15.5 -13.9 2
      vertex 14.1144 -14.7 2
    endloop
  endfacet
  facet normal 0.5 -0.866025 0
    outer loop
      vertex 15.5 -13.9 2
      vertex 14.1144 -14.7 0
      vertex 15.5 -13.9 0
    endloop
  endfacet
  facet normal 0.707107 -0 0.707107
    outer loop
      vertex 27.3431 21.75 30
      vertex 32 24.25 25.3431
      vertex 27.3431 24.25 30
    endloop
  endfacet
  facet normal 0.707107 0 0.707107
    outer loop
      vertex 32 24.25 25.3431
      vertex 27.3431 21.75 30
      vertex 32 21.75 25.3431
    endloop
  endfacet
  facet normal 0.707107 0 -0.707107
    outer loop
      vertex 27.3431 21.75 0
      vertex 32 24.25 4.65685
      vertex 32 21.75 4.65685
    endloop
  endfacet
  facet normal 0.707107 0 -0.707107
    outer loop
      vertex 32 24.25 4.65685
      vertex 27.3431 21.75 0
      vertex 27.3431 24.25 0
    endloop
  endfacet
  facet normal -0.707107 0 0.707107
    outer loop
      vertex -32 21.75 25.3431
      vertex -27.3431 24.25 30
      vertex -32 24.25 25.3431
    endloop
  endfacet
  facet normal -0.707107 0 0.707107
    outer loop
      vertex -27.3431 24.25 30
      vertex -32 21.75 25.3431
      vertex -27.3431 21.75 30
    endloop
  endfacet
  facet normal -0.707107 0 -0.707107
    outer loop
      vertex -32 21.75 4.65685
      vertex -27.3431 24.25 0
      vertex -27.3431 21.75 0
    endloop
  endfacet
  facet normal -0.707107 0 -0.707107
    outer loop
      vertex -27.3431 24.25 0
      vertex -32 21.75 4.65685
      vertex -32 24.25 4.65685
    endloop
  endfacet
  facet normal 1 -0 0
    outer loop
      vertex -21.5 11.3038 30
      vertex -21.5 21.5 2
      vertex -21.5 21.5 30
    endloop
  endfacet
  facet normal 1 -0 0
    outer loop
      vertex -21.5 -21.5 11.0607
      vertex -21.5 21.5 2
      vertex -21.5 11.3038 30
    endloop
  endfacet
  facet normal 1 0 0
    outer loop
      vertex -21.5 21.5 2
      vertex -21.5 -21.5 11.0607
      vertex -21.5 -21.5 2
    endloop
  endfacet
  facet normal -1 0 0
    outer loop
      vertex 21.5 -5 2
      vertex 21.5 -21.5 2
      vertex 21.5 -5 6
    endloop
  endfacet
  facet normal -1 0 0
    outer loop
      vertex 21.5 21.5 2
      vertex 21.5 11.3038 30
      vertex 21.5 21.5 30
    endloop
  endfacet
  facet normal -1 0 0
    outer loop
      vertex 21.5 5 6
      vertex 21.5 21.5 2
      vertex 21.5 5 2
    endloop
  endfacet
  facet normal -1 0 0
    outer loop
      vertex 21.5 21.5 2
      vertex 21.5 5 6
      vertex 21.5 11.3038 30
    endloop
  endfacet
  facet normal -1 0 0
    outer loop
      vertex 21.5 -5 6
      vertex 21.5 11.3038 30
      vertex 21.5 5 6
    endloop
  endfacet
  facet normal -1 0 0
    outer loop
      vertex 21.5 -21.5 11.0607
      vertex 21.5 -5 6
      vertex 21.5 -21.5 2
    endloop
  endfacet
  facet normal -1 0 0
    outer loop
      vertex 21.5 -5 6
      vertex 21.5 -21.5 11.0607
      vertex 21.5 11.3038 30
    endloop
  endfacet
  facet normal 0 -1 0
    outer loop
      vertex -21.5 21.5 2
      vertex 21.5 21.5 30
      vertex -21.5 21.5 30
    endloop
  endfacet
  facet normal 0 -1 -0
    outer loop
      vertex 21.5 21.5 30
      vertex -21.5 21.5 2
      vertex 21.5 21.5 2
    endloop
  endfacet
  facet normal 0 0 1
    outer loop
      vertex -16.3 -14.1144 2
      vertex -13.7032 -6.10105 2
      vertex -14.6722 -3.11868 2
    endloop
  endfacet
  facet normal 0 0 1
    outer loop
      vertex -13.7032 -6.10105 2
      vertex -14.7 -14.1144 2
      vertex -13.9 -15.5 2
    endloop
  endfacet
  facet normal 0 0 1
    outer loop
      vertex -21.5 -21.5 2
      vertex -14.6722 -3.11868 2
      vertex -15 0 2
    endloop
  endfacet
  facet normal 0 0 1
    outer loop
      vertex -14.6722 3.11868 2
      vertex -16.8856 14.7 2
      vertex -15 0 2
    endloop
  endfacet
  facet normal 0 0 1
    outer loop
      vertex -13.7032 -6.10105 2
      vertex -16.3 -14.1144 2
      vertex -14.7 -14.1144 2
    endloop
  endfacet
  facet normal 0 0 1
    outer loop
      vertex -21.5 21.5 2
      vertex -15 0 2
      vertex -16.8856 14.7 2
    endloop
  endfacet
  facet normal 0 0 1
    outer loop
      vertex -14.6722 -3.11868 2
      vertex -17.1 -15.5 2
      vertex -16.3 -14.1144 2
    endloop
  endfacet
  facet normal -0 0 1
    outer loop
      vertex -15.5 13.9 2
      vertex -12.1353 8.81678 2
      vertex -14.1144 14.7 2
    endloop
  endfacet
  facet normal 0 0 1
    outer loop
      vertex -12.1353 8.81678 2
      vertex -15.5 13.9 2
      vertex -13.7032 6.10105 2
    endloop
  endfacet
  facet normal 0 0 1
    outer loop
      vertex -16.8856 14.7 2
      vertex -13.7032 6.10105 2
      vertex -15.5 13.9 2
    endloop
  endfacet
  facet normal 0 0 1
    outer loop
      vertex -13.7032 6.10105 2
      vertex -16.8856 14.7 2
      vertex -14.6722 3.11868 2
    endloop
  endfacet
  facet normal 0 -0 1
    outer loop
      vertex 15 0 2
      vertex 21.5 5 2
      vertex 14.6722 3.11868 2
    endloop
  endfacet
  facet normal -0 0 1
    outer loop
      vertex 14.6722 -3.11868 2
      vertex 21.5 -5 2
      vertex 15 0 2
    endloop
  endfacet
  facet normal 0 0 1
    outer loop
      vertex 13.7032 -6.10105 2
      vertex 21.5 -5 2
      vertex 14.6722 -3.11868 2
    endloop
  endfacet
  facet normal 0 0 1
    outer loop
      vertex 12.1353 8.81678 2
      vertex 16.3 14.1144 2
      vertex 14.7 14.1144 2
    endloop
  endfacet
  facet normal 0 0 1
    outer loop
      vertex 21.5 5 2
      vertex 15 0 2
      vertex 21.5 -5 2
    endloop
  endfacet
  facet normal 0 0 1
    outer loop
      vertex 10.037 11.1472 2
      vertex 14.7 14.1144 2
      vertex 13.9 15.5 2
    endloop
  endfacet
  facet normal 0 0 1
    outer loop
      vertex 16.3 14.1144 2
      vertex 13.7032 6.10105 2
      vertex 14.6722 3.11868 2
    endloop
  endfacet
  facet normal -0 0 1
    outer loop
      vertex 17.1 15.5 2
      vertex 21.5 5 2
      vertex 21.5 21.5 2
    endloop
  endfacet
  facet normal -0 0 1
    outer loop
      vertex 16.3 14.1144 2
      vertex 21.5 5 2
      vertex 17.1 15.5 2
    endloop
  endfacet
  facet normal 0 0 1
    outer loop
      vertex 14.6722 3.11868 2
      vertex 21.5 5 2
      vertex 16.3 14.1144 2
    endloop
  endfacet
  facet normal 0 0 1
    outer loop
      vertex 21.5 21.5 2
      vertex 16.3 16.8856 2
      vertex 17.1 15.5 2
    endloop
  endfacet
  facet normal 0 0 1
    outer loop
      vertex 21.5 21.5 2
      vertex 14.7 16.8856 2
      vertex 16.3 16.8856 2
    endloop
  endfacet
  facet normal 0 0 1
    outer loop
      vertex 16.3 14.1144 2
      vertex 12.1353 8.81678 2
      vertex 13.7032 6.10105 2
    endloop
  endfacet
  facet normal 0 0 1
    outer loop
      vertex 14.7 14.1144 2
      vertex 10.037 11.1472 2
      vertex 12.1353 8.81678 2
    endloop
  endfacet
  facet normal 0 0 1
    outer loop
      vertex 7.5 12.9904 2
      vertex 13.9 15.5 2
      vertex 14.7 16.8856 2
    endloop
  endfacet
  facet normal 0 0 1
    outer loop
      vertex 13.9 15.5 2
      vertex 7.5 12.9904 2
      vertex 10.037 11.1472 2
    endloop
  endfacet
  facet normal 0 0 1
    outer loop
      vertex 1.56793 14.9178 2
      vertex 14.7 16.8856 2
      vertex 21.5 21.5 2
    endloop
  endfacet
  facet normal 0 0 1
    outer loop
      vertex 14.7 16.8856 2
      vertex 4.63525 14.2658 2
      vertex 7.5 12.9904 2
    endloop
  endfacet
  facet normal 0 0 1
    outer loop
      vertex 14.7 16.8856 2
      vertex 1.56793 14.9178 2
      vertex 4.63525 14.2658 2
    endloop
  endfacet
  facet normal 0 0 1
    outer loop
      vertex 21.5 21.5 2
      vertex -1.56793 14.9178 2
      vertex 1.56793 14.9178 2
    endloop
  endfacet
  facet normal -0 0 1
    outer loop
      vertex -21.5 21.5 2
      vertex -1.56793 14.9178 2
      vertex 21.5 21.5 2
    endloop
  endfacet
  facet normal 0 0 1
    outer loop
      vertex -10.037 11.1472 2
      vertex -14.1144 14.7 2
      vertex -12.1353 8.81678 2
    endloop
  endfacet
  facet normal 0 0 1
    outer loop
      vertex -7.5 12.9904 2
      vertex -14.1144 14.7 2
      vertex -10.037 11.1472 2
    endloop
  endfacet
  facet normal -0 0 1
    outer loop
      vertex -14.1144 14.7 2
      vertex -7.5 12.9904 2
      vertex -14.1144 16.3 2
    endloop
  endfacet
  facet normal 0 0 1
    outer loop
      vertex -4.63525 14.2658 2
      vertex -14.1144 16.3 2
      vertex -7.5 12.9904 2
    endloop
  endfacet
  facet normal -0 -0 1
    outer loop
      vertex -15.5 17.1 2
      vertex -1.56793 14.9178 2
      vertex -21.5 21.5 2
    endloop
  endfacet
  facet normal 0 0 1
    outer loop
      vertex -1.56793 14.9178 2
      vertex -14.1144 16.3 2
      vertex -4.63525 14.2658 2
    endloop
  endfacet
  facet normal 0 0 1
    outer loop
      vertex -21.5 21.5 2
      vertex -16.8856 14.7 2
      vertex -16.8856 16.3 2
    endloop
  endfacet
  facet normal 0 0 1
    outer loop
      vertex -15 0 2
      vertex -21.5 21.5 2
      vertex -21.5 -21.5 2
    endloop
  endfacet
  facet normal 0 0 1
    outer loop
      vertex -15.5 17.1 2
      vertex -21.5 21.5 2
      vertex -16.8856 16.3 2
    endloop
  endfacet
  facet normal -0 -0 1
    outer loop
      vertex -14.1144 16.3 2
      vertex -1.56793 14.9178 2
      vertex -15.5 17.1 2
    endloop
  endfacet
  facet normal -0 0 1
    outer loop
      vertex 21.5 5 2
      vertex 23.5 -5 2
      vertex 23.5 5 2
    endloop
  endfacet
  facet normal 0 0 1
    outer loop
      vertex 23.5 -5 2
      vertex 21.5 5 2
      vertex 21.5 -5 2
    endloop
  endfacet
  facet normal 0 0 1
    outer loop
      vertex 21.5 -5 2
      vertex 16.8856 -14.7 2
      vertex 21.5 -21.5 2
    endloop
  endfacet
  facet normal -0 0 1
    outer loop
      vertex 16.8856 -16.3 2
      vertex 21.5 -21.5 2
      vertex 16.8856 -14.7 2
    endloop
  endfacet
  facet normal -0 0 1
    outer loop
      vertex 15.5 -17.1 2
      vertex 21.5 -21.5 2
      vertex 16.8856 -16.3 2
    endloop
  endfacet
  facet normal 0 0 1
    outer loop
      vertex 1.56793 -14.9178 2
      vertex 15.5 -17.1 2
      vertex 14.1144 -16.3 2
    endloop
  endfacet
  facet normal -0 0 1
    outer loop
      vertex 10.037 -11.1472 2
      vertex 14.1144 -14.7 2
      vertex 12.1353 -8.81678 2
    endloop
  endfacet
  facet normal -0 0 1
    outer loop
      vertex 7.5 -12.9904 2
      vertex 14.1144 -14.7 2
      vertex 10.037 -11.1472 2
    endloop
  endfacet
  facet normal 0 0 1
    outer loop
      vertex 14.1144 -14.7 2
      vertex 7.5 -12.9904 2
      vertex 14.1144 -16.3 2
    endloop
  endfacet
  facet normal -0 0 1
    outer loop
      vertex 4.63525 -14.2658 2
      vertex 14.1144 -16.3 2
      vertex 7.5 -12.9904 2
    endloop
  endfacet
  facet normal -0 0 1
    outer loop
      vertex 1.56793 -14.9178 2
      vertex 14.1144 -16.3 2
      vertex 4.63525 -14.2658 2
    endloop
  endfacet
  facet normal 0 0 1
    outer loop
      vertex 15.5 -17.1 2
      vertex 1.56793 -14.9178 2
      vertex 21.5 -21.5 2
    endloop
  endfacet
  facet normal -0 0 1
    outer loop
      vertex -1.56793 -14.9178 2
      vertex 21.5 -21.5 2
      vertex 1.56793 -14.9178 2
    endloop
  endfacet
  facet normal 0 0 1
    outer loop
      vertex -14.7 -16.8856 2
      vertex -1.56793 -14.9178 2
      vertex -4.63525 -14.2658 2
    endloop
  endfacet
  facet normal 0 0 1
    outer loop
      vertex -13.9 -15.5 2
      vertex -12.1353 -8.81678 2
      vertex -13.7032 -6.10105 2
    endloop
  endfacet
  facet normal 0 0 1
    outer loop
      vertex -13.9 -15.5 2
      vertex -10.037 -11.1472 2
      vertex -12.1353 -8.81678 2
    endloop
  endfacet
  facet normal 0 0 1
    outer loop
      vertex -13.9 -15.5 2
      vertex -7.5 -12.9904 2
      vertex -10.037 -11.1472 2
    endloop
  endfacet
  facet normal 0 0 1
    outer loop
      vertex -13.9 -15.5 2
      vertex -4.63525 -14.2658 2
      vertex -7.5 -12.9904 2
    endloop
  endfacet
  facet normal 0 0 1
    outer loop
      vertex -14.7 -16.8856 2
      vertex -4.63525 -14.2658 2
      vertex -13.9 -15.5 2
    endloop
  endfacet
  facet normal 0 0 1
    outer loop
      vertex -1.56793 -14.9178 2
      vertex -14.7 -16.8856 2
      vertex -21.5 -21.5 2
    endloop
  endfacet
  facet normal 0 0 1
    outer loop
      vertex -21.5 -21.5 2
      vertex -14.7 -16.8856 2
      vertex -16.3 -16.8856 2
    endloop
  endfacet
  facet normal 0 0 1
    outer loop
      vertex -1.56793 -14.9178 2
      vertex -21.5 -21.5 2
      vertex 21.5 -21.5 2
    endloop
  endfacet
  facet normal 0 0 1
    outer loop
      vertex -17.1 -15.5 2
      vertex -21.5 -21.5 2
      vertex -16.3 -16.8856 2
    endloop
  endfacet
  facet normal 0 0 1
    outer loop
      vertex -14.6722 -3.11868 2
      vertex -21.5 -21.5 2
      vertex -17.1 -15.5 2
    endloop
  endfacet
  facet normal 0 -0 1
    outer loop
      vertex 15.5 -13.9 2
      vertex 21.5 -5 2
      vertex 13.7032 -6.10105 2
    endloop
  endfacet
  facet normal 0 0 1
    outer loop
      vertex 21.5 -5 2
      vertex 15.5 -13.9 2
      vertex 16.8856 -14.7 2
    endloop
  endfacet
  facet normal 0 0 1
    outer loop
      vertex 15.5 -13.9 2
      vertex 12.1353 -8.81678 2
      vertex 14.1144 -14.7 2
    endloop
  endfacet
  facet normal -0 0 1
    outer loop
      vertex 12.1353 -8.81678 2
      vertex 15.5 -13.9 2
      vertex 13.7032 -6.10105 2
    endloop
  endfacet
  facet normal 0 1 -0
    outer loop
      vertex 21.5 -21.5 2
      vertex -21.5 -21.5 11.0607
      vertex 21.5 -21.5 11.0607
    endloop
  endfacet
  facet normal 0 1 0
    outer loop
      vertex -21.5 -21.5 11.0607
      vertex 21.5 -21.5 2
      vertex -21.5 -21.5 2
    endloop
  endfacet
  facet normal 0 0 -1
    outer loop
      vertex 21.5 -5 6
      vertex 23.5 5 6
      vertex 23.5 -5 6
    endloop
  endfacet
  facet normal -0 0 -1
    outer loop
      vertex 23.5 5 6
      vertex 21.5 -5 6
      vertex 21.5 5 6
    endloop
  endfacet
  facet normal 0 -1 0
    outer loop
      vertex 21.5 5 2
      vertex 23.5 5 6
      vertex 21.5 5 6
    endloop
  endfacet
  facet normal 0 -1 -0
    outer loop
      vertex 23.5 5 6
      vertex 21.5 5 2
      vertex 23.5 5 2
    endloop
  endfacet
  facet normal 0 1 -0
    outer loop
      vertex 23.5 -5 2
      vertex 21.5 -5 6
      vertex 23.5 -5 6
    endloop
  endfacet
  facet normal 0 1 0
    outer loop
      vertex 21.5 -5 6
      vertex 23.5 -5 2
      vertex 21.5 -5 2
    endloop
  endfacet
  facet normal -0.866025 -0.5 0
    outer loop
      vertex 13.7032 6.10105 0
      vertex 12.1353 8.81678 2
      vertex 12.1353 8.81678 0
    endloop
  endfacet
  facet normal -0.866025 -0.5 0
    outer loop
      vertex 12.1353 8.81678 2
      vertex 13.7032 6.10105 0
      vertex 13.7032 6.10105 2
    endloop
  endfacet
  facet normal -0.743145 -0.669131 0
    outer loop
      vertex 12.1353 8.81678 0
      vertex 10.037 11.1472 2
      vertex 10.037 11.1472 0
    endloop
  endfacet
  facet normal -0.743145 -0.669131 0
    outer loop
      vertex 10.037 11.1472 2
      vertex 12.1353 8.81678 0
      vertex 12.1353 8.81678 2
    endloop
  endfacet
  facet normal -0.406737 -0.913545 0
    outer loop
      vertex 4.63525 14.2658 0
      vertex 7.5 12.9904 2
      vertex 4.63525 14.2658 2
    endloop
  endfacet
  facet normal -0.406737 -0.913545 -0
    outer loop
      vertex 7.5 12.9904 2
      vertex 4.63525 14.2658 0
      vertex 7.5 12.9904 0
    endloop
  endfacet
  facet normal 0.207912 -0.978148 0
    outer loop
      vertex -4.63525 14.2658 0
      vertex -1.56793 14.9178 2
      vertex -4.63525 14.2658 2
    endloop
  endfacet
  facet normal 0.207912 -0.978148 0
    outer loop
      vertex -1.56793 14.9178 2
      vertex -4.63525 14.2658 0
      vertex -1.56793 14.9178 0
    endloop
  endfacet
  facet normal 0.866025 -0.5 0
    outer loop
      vertex -13.7032 6.10105 2
      vertex -12.1353 8.81678 0
      vertex -12.1353 8.81678 2
    endloop
  endfacet
  facet normal 0.866025 -0.5 0
    outer loop
      vertex -12.1353 8.81678 0
      vertex -13.7032 6.10105 2
      vertex -13.7032 6.10105 0
    endloop
  endfacet
  facet normal -0.994522 0.104529 0
    outer loop
      vertex 14.6722 -3.11868 0
      vertex 15 0 2
      vertex 15 0 0
    endloop
  endfacet
  facet normal -0.994522 0.104529 0
    outer loop
      vertex 15 0 2
      vertex 14.6722 -3.11868 0
      vertex 14.6722 -3.11868 2
    endloop
  endfacet
  facet normal -0.951057 -0.309017 0
    outer loop
      vertex 14.6722 3.11868 0
      vertex 13.7032 6.10105 2
      vertex 13.7032 6.10105 0
    endloop
  endfacet
  facet normal -0.951057 -0.309017 0
    outer loop
      vertex 13.7032 6.10105 2
      vertex 14.6722 3.11868 0
      vertex 14.6722 3.11868 2
    endloop
  endfacet
  facet normal 0 -1 0
    outer loop
      vertex -1.56793 14.9178 0
      vertex 1.56793 14.9178 2
      vertex -1.56793 14.9178 2
    endloop
  endfacet
  facet normal 0 -1 -0
    outer loop
      vertex 1.56793 14.9178 2
      vertex -1.56793 14.9178 0
      vertex 1.56793 14.9178 0
    endloop
  endfacet
  facet normal -0.587785 -0.809017 0
    outer loop
      vertex 7.5 12.9904 0
      vertex 10.037 11.1472 2
      vertex 7.5 12.9904 2
    endloop
  endfacet
  facet normal -0.587785 -0.809017 -0
    outer loop
      vertex 10.037 11.1472 2
      vertex 7.5 12.9904 0
      vertex 10.037 11.1472 0
    endloop
  endfacet
  facet normal 0.994522 -0.104529 0
    outer loop
      vertex -15 0 2
      vertex -14.6722 3.11868 0
      vertex -14.6722 3.11868 2
    endloop
  endfacet
  facet normal 0.994522 -0.104529 0
    outer loop
      vertex -14.6722 3.11868 0
      vertex -15 0 2
      vertex -15 0 0
    endloop
  endfacet
  facet normal 0.743145 -0.669131 0
    outer loop
      vertex -12.1353 8.81678 2
      vertex -10.037 11.1472 0
      vertex -10.037 11.1472 2
    endloop
  endfacet
  facet normal 0.743145 -0.669131 0
    outer loop
      vertex -10.037 11.1472 0
      vertex -12.1353 8.81678 2
      vertex -12.1353 8.81678 0
    endloop
  endfacet
  facet normal 0.406737 -0.913545 0
    outer loop
      vertex -7.5 12.9904 0
      vertex -4.63525 14.2658 2
      vertex -7.5 12.9904 2
    endloop
  endfacet
  facet normal 0.406737 -0.913545 0
    outer loop
      vertex -4.63525 14.2658 2
      vertex -7.5 12.9904 0
      vertex -4.63525 14.2658 0
    endloop
  endfacet
  facet normal 0.587785 -0.809017 0
    outer loop
      vertex -10.037 11.1472 0
      vertex -7.5 12.9904 2
      vertex -10.037 11.1472 2
    endloop
  endfacet
  facet normal 0.587785 -0.809017 0
    outer loop
      vertex -7.5 12.9904 2
      vertex -10.037 11.1472 0
      vertex -7.5 12.9904 0
    endloop
  endfacet
  facet normal -0.994522 -0.104529 0
    outer loop
      vertex 15 0 0
      vertex 14.6722 3.11868 2
      vertex 14.6722 3.11868 0
    endloop
  endfacet
  facet normal -0.994522 -0.104529 0
    outer loop
      vertex 14.6722 3.11868 2
      vertex 15 0 0
      vertex 15 0 2
    endloop
  endfacet
  facet normal -0.951057 0.309017 0
    outer loop
      vertex 13.7032 -6.10105 0
      vertex 14.6722 -3.11868 2
      vertex 14.6722 -3.11868 0
    endloop
  endfacet
  facet normal -0.951057 0.309017 0
    outer loop
      vertex 14.6722 -3.11868 2
      vertex 13.7032 -6.10105 0
      vertex 13.7032 -6.10105 2
    endloop
  endfacet
  facet normal 0.587785 0.809017 -0
    outer loop
      vertex -7.5 -12.9904 0
      vertex -10.037 -11.1472 2
      vertex -7.5 -12.9904 2
    endloop
  endfacet
  facet normal 0.587785 0.809017 0
    outer loop
      vertex -10.037 -11.1472 2
      vertex -7.5 -12.9904 0
      vertex -10.037 -11.1472 0
    endloop
  endfacet
  facet normal 0.866025 0.5 0
    outer loop
      vertex -12.1353 -8.81678 2
      vertex -13.7032 -6.10105 0
      vertex -13.7032 -6.10105 2
    endloop
  endfacet
  facet normal 0.866025 0.5 0
    outer loop
      vertex -13.7032 -6.10105 0
      vertex -12.1353 -8.81678 2
      vertex -12.1353 -8.81678 0
    endloop
  endfacet
  facet normal -0.587785 0.809017 0
    outer loop
      vertex 10.037 -11.1472 0
      vertex 7.5 -12.9904 2
      vertex 10.037 -11.1472 2
    endloop
  endfacet
  facet normal -0.587785 0.809017 0
    outer loop
      vertex 7.5 -12.9904 2
      vertex 10.037 -11.1472 0
      vertex 7.5 -12.9904 0
    endloop
  endfacet
  facet normal -0.207912 -0.978148 0
    outer loop
      vertex 1.56793 14.9178 0
      vertex 4.63525 14.2658 2
      vertex 1.56793 14.9178 2
    endloop
  endfacet
  facet normal -0.207912 -0.978148 -0
    outer loop
      vertex 4.63525 14.2658 2
      vertex 1.56793 14.9178 0
      vertex 4.63525 14.2658 0
    endloop
  endfacet
  facet normal 0.951057 -0.309017 0
    outer loop
      vertex -14.6722 3.11868 2
      vertex -13.7032 6.10105 0
      vertex -13.7032 6.10105 2
    endloop
  endfacet
  facet normal 0.951057 -0.309017 0
    outer loop
      vertex -13.7032 6.10105 0
      vertex -14.6722 3.11868 2
      vertex -14.6722 3.11868 0
    endloop
  endfacet
  facet normal -0.866025 0.5 0
    outer loop
      vertex 12.1353 -8.81678 0
      vertex 13.7032 -6.10105 2
      vertex 13.7032 -6.10105 0
    endloop
  endfacet
  facet normal -0.866025 0.5 0
    outer loop
      vertex 13.7032 -6.10105 2
      vertex 12.1353 -8.81678 0
      vertex 12.1353 -8.81678 2
    endloop
  endfacet
  facet normal 0.994522 0.104529 0
    outer loop
      vertex -14.6722 -3.11868 2
      vertex -15 0 0
      vertex -15 0 2
    endloop
  endfacet
  facet normal 0.994522 0.104529 0
    outer loop
      vertex -15 0 0
      vertex -14.6722 -3.11868 2
      vertex -14.6722 -3.11868 0
    endloop
  endfacet
  facet normal 0.743145 0.669131 0
    outer loop
      vertex -10.037 -11.1472 2
      vertex -12.1353 -8.81678 0
      vertex -12.1353 -8.81678 2
    endloop
  endfacet
  facet normal 0.743145 0.669131 0
    outer loop
      vertex -12.1353 -8.81678 0
      vertex -10.037 -11.1472 2
      vertex -10.037 -11.1472 0
    endloop
  endfacet
  facet normal -0.207912 0.978148 0
    outer loop
      vertex 4.63525 -14.2658 0
      vertex 1.56793 -14.9178 2
      vertex 4.63525 -14.2658 2
    endloop
  endfacet
  facet normal -0.207912 0.978148 0
    outer loop
      vertex 1.56793 -14.9178 2
      vertex 4.63525 -14.2658 0
      vertex 1.56793 -14.9178 0
    endloop
  endfacet
  facet normal -0.406737 0.913545 0
    outer loop
      vertex 7.5 -12.9904 0
      vertex 4.63525 -14.2658 2
      vertex 7.5 -12.9904 2
    endloop
  endfacet
  facet normal -0.406737 0.913545 0
    outer loop
      vertex 4.63525 -14.2658 2
      vertex 7.5 -12.9904 0
      vertex 4.63525 -14.2658 0
    endloop
  endfacet
  facet normal 0 1 -0
    outer loop
      vertex 1.56793 -14.9178 0
      vertex -1.56793 -14.9178 2
      vertex 1.56793 -14.9178 2
    endloop
  endfacet
  facet normal 0 1 0
    outer loop
      vertex -1.56793 -14.9178 2
      vertex 1.56793 -14.9178 0
      vertex -1.56793 -14.9178 0
    endloop
  endfacet
  facet normal 0.207912 0.978148 -0
    outer loop
      vertex -1.56793 -14.9178 0
      vertex -4.63525 -14.2658 2
      vertex -1.56793 -14.9178 2
    endloop
  endfacet
  facet normal 0.207912 0.978148 0
    outer loop
      vertex -4.63525 -14.2658 2
      vertex -1.56793 -14.9178 0
      vertex -4.63525 -14.2658 0
    endloop
  endfacet
  facet normal 0.951057 0.309017 0
    outer loop
      vertex -13.7032 -6.10105 2
      vertex -14.6722 -3.11868 0
      vertex -14.6722 -3.11868 2
    endloop
  endfacet
  facet normal 0.951057 0.309017 0
    outer loop
      vertex -14.6722 -3.11868 0
      vertex -13.7032 -6.10105 2
      vertex -13.7032 -6.10105 0
    endloop
  endfacet
  facet normal -0.743145 0.669131 0
    outer loop
      vertex 10.037 -11.1472 0
      vertex 12.1353 -8.81678 2
      vertex 12.1353 -8.81678 0
    endloop
  endfacet
  facet normal -0.743145 0.669131 0
    outer loop
      vertex 12.1353 -8.81678 2
      vertex 10.037 -11.1472 0
      vertex 10.037 -11.1472 2
    endloop
  endfacet
  facet normal 0.406737 0.913545 -0
    outer loop
      vertex -4.63525 -14.2658 0
      vertex -7.5 -12.9904 2
      vertex -4.63525 -14.2658 2
    endloop
  endfacet
  facet normal 0.406737 0.913545 0
    outer loop
      vertex -7.5 -12.9904 2
      vertex -4.63525 -14.2658 0
      vertex -7.5 -12.9904 0
    endloop
  endfacet
  facet normal 0 -0.5 0.866025
    outer loop
      vertex -21.5 11.3038 30
      vertex -23.5 11.3038 30
      vertex -21.5 -21.5 11.0607
    endloop
  endfacet
  facet normal 0 -0.5 0.866025
    outer loop
      vertex 21.5 -21.5 11.0607
      vertex 23.5 11.3038 30
      vertex 21.5 11.3038 30
    endloop
  endfacet
  facet normal -1.15726e-07 -0.5 0.866025
    outer loop
      vertex 23.5 11.3038 30
      vertex 21.5 -21.5 11.0607
      vertex 23.5 -23.5 9.90599
    endloop
  endfacet
  facet normal 0 -0.5 0.866025
    outer loop
      vertex -21.5 -21.5 11.0607
      vertex 23.5 -23.5 9.90599
      vertex 21.5 -21.5 11.0607
    endloop
  endfacet
  facet normal 0 -0.5 0.866025
    outer loop
      vertex -21.5 -21.5 11.0607
      vertex -23.5 -23.5 9.90599
      vertex 23.5 -23.5 9.90599
    endloop
  endfacet
  facet normal 1.15726e-07 -0.5 0.866025
    outer loop
      vertex -23.5 -23.5 9.90599
      vertex -21.5 -21.5 11.0607
      vertex -23.5 11.3038 30
    endloop
  endfacet
endsolid OpenSCAD_Model
