solid OpenSCAD_Model
  facet normal -0 0 -1
    outer loop
      vertex 30 21.1 14.5
      vertex 22.1 2.1 14.5
      vertex 22.1 21.1 14.5
    endloop
  endfacet
  facet normal 0.923364 -0.383925 0
    outer loop
      vertex 22.1 2.1 15.5
      vertex 30 21.1 14.5
      vertex 30 21.1 15.5
    endloop
  endfacet
  facet normal 0.923364 -0.383925 0
    outer loop
      vertex 30 21.1 14.5
      vertex 22.1 2.1 15.5
      vertex 22.1 2.1 14.5
    endloop
  endfacet
  facet normal -0 0 1
    outer loop
      vertex 22.1 21.1 15.5
      vertex 22.1 2.1 15.5
      vertex 30 21.1 15.5
    endloop
  endfacet
  facet normal 0 1 0
    outer loop
      vertex -24.4 22.1 7
      vertex -24.4 22.1 23
      vertex 24.4 22.1 7
    endloop
  endfacet
  facet normal 0 1 0
    outer loop
      vertex -24.4 22.1 23
      vertex -24.4 22.1 7
      vertex -25.2 22.1 8.38564
    endloop
  endfacet
  facet normal 0 1 0
    outer loop
      vertex 25.3431 22.1 0
      vertex 24.4 22.1 7
      vertex 25.2 22.1 5.61436
    endloop
  endfacet
  facet normal 0 1 0
    outer loop
      vertex 24.4 22.1 7
      vertex 25.3431 22.1 0
      vertex -24.4 22.1 7
    endloop
  endfacet
  facet normal 0 1 -0
    outer loop
      vertex -24.4 22.1 23
      vertex -25.3431 22.1 30
      vertex 24.4 22.1 23
    endloop
  endfacet
  facet normal 0 1 0
    outer loop
      vertex -25.3431 22.1 30
      vertex -24.4 22.1 23
      vertex -25.2 22.1 24.3856
    endloop
  endfacet
  facet normal 0 1 -0
    outer loop
      vertex 25.2 22.1 8.38564
      vertex 24.4 22.1 23
      vertex 25.2 22.1 21.6144
    endloop
  endfacet
  facet normal 0 1 0
    outer loop
      vertex 24.4 22.1 7
      vertex 24.4 22.1 23
      vertex 25.2 22.1 8.38564
    endloop
  endfacet
  facet normal 0 1 -0
    outer loop
      vertex 26.8 22.1 24.3856
      vertex 25.3431 22.1 30
      vertex 30.6 22.1 24.7431
    endloop
  endfacet
  facet normal 0 1 0
    outer loop
      vertex 24.4 22.1 23
      vertex 25.3431 22.1 30
      vertex 25.2 22.1 24.3856
    endloop
  endfacet
  facet normal 0 1 0
    outer loop
      vertex 25.3431 22.1 30
      vertex 26.8 22.1 24.3856
      vertex 25.2 22.1 24.3856
    endloop
  endfacet
  facet normal 0 1 0
    outer loop
      vertex 30.6 22.1 24.7431
      vertex 27.6 22.1 23
      vertex 26.8 22.1 24.3856
    endloop
  endfacet
  facet normal 0 1 0
    outer loop
      vertex 30.6 22.1 24.7431
      vertex 26.8 22.1 21.6144
      vertex 27.6 22.1 23
    endloop
  endfacet
  facet normal 0 1 0
    outer loop
      vertex 25.2 22.1 8.38564
      vertex 25.2 22.1 21.6144
      vertex 26.8 22.1 21.6144
    endloop
  endfacet
  facet normal 0 1 0
    outer loop
      vertex 24.4 22.1 23
      vertex 24.4 22.1 7
      vertex -24.4 22.1 23
    endloop
  endfacet
  facet normal 0 1 0
    outer loop
      vertex 25.2 22.1 8.38564
      vertex 26.8 22.1 21.6144
      vertex 26.8 22.1 8.38564
    endloop
  endfacet
  facet normal 0 1 0
    outer loop
      vertex 30.6 22.1 24.7431
      vertex 26.8 22.1 8.38564
      vertex 26.8 22.1 21.6144
    endloop
  endfacet
  facet normal 0 1 -0
    outer loop
      vertex 30.6 22.1 5.25685
      vertex 26.8 22.1 8.38564
      vertex 30.6 22.1 24.7431
    endloop
  endfacet
  facet normal 0 1 -0
    outer loop
      vertex 25.3431 22.1 0
      vertex 25.2 22.1 5.61436
      vertex 26.8 22.1 5.61436
    endloop
  endfacet
  facet normal 0 1 0
    outer loop
      vertex -25.3431 22.1 0
      vertex -24.4 22.1 7
      vertex 25.3431 22.1 0
    endloop
  endfacet
  facet normal 0 1 0
    outer loop
      vertex 25.3431 22.1 0
      vertex 26.8 22.1 5.61436
      vertex 30.6 22.1 5.25685
    endloop
  endfacet
  facet normal 0 1 0
    outer loop
      vertex 27.6 22.1 7
      vertex 30.6 22.1 5.25685
      vertex 26.8 22.1 5.61436
    endloop
  endfacet
  facet normal 0 1 0
    outer loop
      vertex 26.8 22.1 8.38564
      vertex 30.6 22.1 5.25685
      vertex 27.6 22.1 7
    endloop
  endfacet
  facet normal 0 1 0
    outer loop
      vertex 25.3431 22.1 30
      vertex 24.4 22.1 23
      vertex -25.3431 22.1 30
    endloop
  endfacet
  facet normal 0 1 0
    outer loop
      vertex -26.8 22.1 24.3856
      vertex -25.3431 22.1 30
      vertex -25.2 22.1 24.3856
    endloop
  endfacet
  facet normal 0 1 0
    outer loop
      vertex -25.3431 22.1 30
      vertex -26.8 22.1 24.3856
      vertex -30.6 22.1 24.7431
    endloop
  endfacet
  facet normal 0 1 -0
    outer loop
      vertex -27.6 22.1 23
      vertex -30.6 22.1 24.7431
      vertex -26.8 22.1 24.3856
    endloop
  endfacet
  facet normal 0 1 0
    outer loop
      vertex -26.8 22.1 21.6144
      vertex -30.6 22.1 24.7431
      vertex -27.6 22.1 23
    endloop
  endfacet
  facet normal 0 1 0
    outer loop
      vertex -24.4 22.1 23
      vertex -25.2 22.1 8.38564
      vertex -25.2 22.1 21.6144
    endloop
  endfacet
  facet normal 0 1 0
    outer loop
      vertex -25.2 22.1 21.6144
      vertex -25.2 22.1 8.38564
      vertex -26.8 22.1 21.6144
    endloop
  endfacet
  facet normal 0 1 0
    outer loop
      vertex -26.8 22.1 8.38564
      vertex -26.8 22.1 21.6144
      vertex -25.2 22.1 8.38564
    endloop
  endfacet
  facet normal 0 1 0
    outer loop
      vertex -26.8 22.1 21.6144
      vertex -26.8 22.1 8.38564
      vertex -30.6 22.1 24.7431
    endloop
  endfacet
  facet normal 0 1 0
    outer loop
      vertex -30.6 22.1 5.25685
      vertex -26.8 22.1 8.38564
      vertex -27.6 22.1 7
    endloop
  endfacet
  facet normal 0 1 0
    outer loop
      vertex -26.8 22.1 8.38564
      vertex -30.6 22.1 5.25685
      vertex -30.6 22.1 24.7431
    endloop
  endfacet
  facet normal 0 1 0
    outer loop
      vertex -26.8 22.1 5.61436
      vertex -30.6 22.1 5.25685
      vertex -27.6 22.1 7
    endloop
  endfacet
  facet normal 0 1 0
    outer loop
      vertex -24.4 22.1 7
      vertex -25.3431 22.1 0
      vertex -25.2 22.1 5.61436
    endloop
  endfacet
  facet normal 0 1 0
    outer loop
      vertex -25.2 22.1 5.61436
      vertex -25.3431 22.1 0
      vertex -26.8 22.1 5.61436
    endloop
  endfacet
  facet normal 0 1 0
    outer loop
      vertex -26.8 22.1 5.61436
      vertex -25.3431 22.1 0
      vertex -30.6 22.1 5.25685
    endloop
  endfacet
  facet normal 0 0 1
    outer loop
      vertex -22.1 21.1 15.5
      vertex -30 21.1 15.5
      vertex -22.1 2.1 15.5
    endloop
  endfacet
  facet normal -0.923364 -0.383925 0
    outer loop
      vertex -22.1 2.1 14.5
      vertex -30 21.1 15.5
      vertex -30 21.1 14.5
    endloop
  endfacet
  facet normal -0.923364 -0.383925 0
    outer loop
      vertex -30 21.1 15.5
      vertex -22.1 2.1 14.5
      vertex -22.1 2.1 15.5
    endloop
  endfacet
  facet normal 0 0 -1
    outer loop
      vertex -22.1 2.1 14.5
      vertex -30 21.1 14.5
      vertex -22.1 21.1 14.5
    endloop
  endfacet
  facet normal -1 0 0
    outer loop
      vertex -22.1 21.1 0
      vertex -22.1 2.1 14.5
      vertex -22.1 21.1 14.5
    endloop
  endfacet
  facet normal -1 0 0
    outer loop
      vertex -22.1 -22.1 9.90599
      vertex -22.1 2.1 14.5
      vertex -22.1 -22.1 0
    endloop
  endfacet
  facet normal -1 0 0
    outer loop
      vertex -22.1 -22.1 0
      vertex -22.1 2.1 14.5
      vertex -22.1 21.1 0
    endloop
  endfacet
  facet normal -1 0 0
    outer loop
      vertex -22.1 21.1 15.5
      vertex -22.1 12.7038 30
      vertex -22.1 21.1 30
    endloop
  endfacet
  facet normal -1 0 0
    outer loop
      vertex -22.1 2.1 15.5
      vertex -22.1 12.7038 30
      vertex -22.1 21.1 15.5
    endloop
  endfacet
  facet normal -1 -0 0
    outer loop
      vertex -22.1 2.1 14.5
      vertex -22.1 -22.1 9.90599
      vertex -22.1 2.1 15.5
    endloop
  endfacet
  facet normal -1 -0 0
    outer loop
      vertex -22.1 2.1 15.5
      vertex -22.1 -22.1 9.90599
      vertex -22.1 12.7038 30
    endloop
  endfacet
  facet normal 0 0 1
    outer loop
      vertex 25.3431 22.1 30
      vertex 22.1 21.1 30
      vertex 25.3431 21.1 30
    endloop
  endfacet
  facet normal 0 0 1
    outer loop
      vertex 22.1 21.1 30
      vertex 21.1 21.1 30
      vertex 22.1 12.7038 30
    endloop
  endfacet
  facet normal 0 0 1
    outer loop
      vertex 25.3431 22.1 30
      vertex 21.1 21.1 30
      vertex 22.1 21.1 30
    endloop
  endfacet
  facet normal 0 0 1
    outer loop
      vertex 25.3431 22.1 30
      vertex -21.1 21.1 30
      vertex 21.1 21.1 30
    endloop
  endfacet
  facet normal 0 0 1
    outer loop
      vertex -21.1 21.1 30
      vertex -22.1 21.1 30
      vertex -21.1 12.7038 30
    endloop
  endfacet
  facet normal -0 0 1
    outer loop
      vertex -25.3431 22.1 30
      vertex -21.1 21.1 30
      vertex 25.3431 22.1 30
    endloop
  endfacet
  facet normal 0 0 1
    outer loop
      vertex -21.1 21.1 30
      vertex -25.3431 22.1 30
      vertex -22.1 21.1 30
    endloop
  endfacet
  facet normal 0 0 1
    outer loop
      vertex -22.1 21.1 30
      vertex -25.3431 22.1 30
      vertex -25.3431 21.1 30
    endloop
  endfacet
  facet normal 0 0 1
    outer loop
      vertex 22.1 12.7038 30
      vertex 21.1 21.1 30
      vertex 21.1 12.7038 30
    endloop
  endfacet
  facet normal 0 0 1
    outer loop
      vertex -21.1 12.7038 30
      vertex -22.1 21.1 30
      vertex -22.1 12.7038 30
    endloop
  endfacet
  facet normal 1 -0 0
    outer loop
      vertex 22.1 12.7038 30
      vertex 22.1 21.1 15.5
      vertex 22.1 21.1 30
    endloop
  endfacet
  facet normal 1 0 0
    outer loop
      vertex 22.1 12.7038 30
      vertex 22.1 2.1 15.5
      vertex 22.1 21.1 15.5
    endloop
  endfacet
  facet normal 1 0 0
    outer loop
      vertex 22.1 2.1 15.5
      vertex 22.1 -5 6
      vertex 22.1 2.1 14.5
    endloop
  endfacet
  facet normal 1 0 0
    outer loop
      vertex 22.1 -22.1 9.90599
      vertex 22.1 2.1 15.5
      vertex 22.1 12.7038 30
    endloop
  endfacet
  facet normal 1 0 0
    outer loop
      vertex 22.1 -22.1 0
      vertex 22.1 -5 6
      vertex 22.1 -22.1 9.90599
    endloop
  endfacet
  facet normal 1 0 0
    outer loop
      vertex 22.1 2.1 15.5
      vertex 22.1 -22.1 9.90599
      vertex 22.1 -5 6
    endloop
  endfacet
  facet normal 1 0 0
    outer loop
      vertex 22.1 21.1 14.5
      vertex 22.1 5 6
      vertex 22.1 21.1 0
    endloop
  endfacet
  facet normal 1 -0 0
    outer loop
      vertex 22.1 2.1 14.5
      vertex 22.1 5 6
      vertex 22.1 21.1 14.5
    endloop
  endfacet
  facet normal 1 0 0
    outer loop
      vertex 22.1 5 6
      vertex 22.1 2.1 14.5
      vertex 22.1 -5 6
    endloop
  endfacet
  facet normal 1 -0 0
    outer loop
      vertex 22.1 5 2
      vertex 22.1 21.1 0
      vertex 22.1 5 6
    endloop
  endfacet
  facet normal 1 -0 0
    outer loop
      vertex 22.1 -5 2
      vertex 22.1 21.1 0
      vertex 22.1 5 2
    endloop
  endfacet
  facet normal 1 0 0
    outer loop
      vertex 22.1 -5 2
      vertex 22.1 -22.1 0
      vertex 22.1 21.1 0
    endloop
  endfacet
  facet normal 1 0 0
    outer loop
      vertex 22.1 -5 6
      vertex 22.1 -22.1 0
      vertex 22.1 -5 2
    endloop
  endfacet
  facet normal 0 0 -1
    outer loop
      vertex -16.8856 14.7 0
      vertex -13.7032 6.10105 0
      vertex -14.6722 3.11868 0
    endloop
  endfacet
  facet normal 0 0 -1
    outer loop
      vertex -22.1 21.1 0
      vertex -14.6722 3.11868 0
      vertex -15 0 0
    endloop
  endfacet
  facet normal 0 0 -1
    outer loop
      vertex -13.7032 6.10105 0
      vertex -15.5 13.9 0
      vertex -14.1144 14.7 0
    endloop
  endfacet
  facet normal 0 0 -1
    outer loop
      vertex -16.3 -14.1144 0
      vertex -12.1353 -8.81678 0
      vertex -14.7 -14.1144 0
    endloop
  endfacet
  facet normal -0 0 -1
    outer loop
      vertex -12.1353 -8.81678 0
      vertex -16.3 -14.1144 0
      vertex -13.7032 -6.10105 0
    endloop
  endfacet
  facet normal -0 0 -1
    outer loop
      vertex -13.7032 -6.10105 0
      vertex -16.3 -14.1144 0
      vertex -14.6722 -3.11868 0
    endloop
  endfacet
  facet normal 0 0 -1
    outer loop
      vertex -17.1 -15.5 0
      vertex -14.6722 -3.11868 0
      vertex -16.3 -14.1144 0
    endloop
  endfacet
  facet normal 0 0 -1
    outer loop
      vertex -22.1 -22.1 0
      vertex -14.6722 -3.11868 0
      vertex -17.1 -15.5 0
    endloop
  endfacet
  facet normal 0 0 -1
    outer loop
      vertex -13.7032 6.10105 0
      vertex -16.8856 14.7 0
      vertex -15.5 13.9 0
    endloop
  endfacet
  facet normal 0 0 -1
    outer loop
      vertex -14.6722 3.11868 0
      vertex -22.1 21.1 0
      vertex -16.8856 14.7 0
    endloop
  endfacet
  facet normal -0 0 -1
    outer loop
      vertex -14.6722 -3.11868 0
      vertex -22.1 -22.1 0
      vertex -15 0 0
    endloop
  endfacet
  facet normal 0 0 -1
    outer loop
      vertex 16.8856 -14.7 0
      vertex 14.6722 -3.11868 0
      vertex 15 0 0
    endloop
  endfacet
  facet normal 0 0 -1
    outer loop
      vertex 12.1353 -8.81678 0
      vertex 15.5 -13.9 0
      vertex 14.1144 -14.7 0
    endloop
  endfacet
  facet normal 0 0 -1
    outer loop
      vertex 16.8856 -14.7 0
      vertex 13.7032 -6.10105 0
      vertex 14.6722 -3.11868 0
    endloop
  endfacet
  facet normal 0 0 -1
    outer loop
      vertex 15 0 0
      vertex 22.1 21.1 0
      vertex 22.1 -22.1 0
    endloop
  endfacet
  facet normal 0 0 -1
    outer loop
      vertex 16.8856 -14.7 0
      vertex 22.1 -22.1 0
      vertex 16.8856 -16.3 0
    endloop
  endfacet
  facet normal 0 0 -1
    outer loop
      vertex 22.1 -22.1 0
      vertex 15.5 -17.1 0
      vertex 16.8856 -16.3 0
    endloop
  endfacet
  facet normal 0 0 -1
    outer loop
      vertex 1.56793 -14.9178 0
      vertex 15.5 -17.1 0
      vertex 22.1 -22.1 0
    endloop
  endfacet
  facet normal 0 0 -1
    outer loop
      vertex 7.5 -12.9904 0
      vertex 14.1144 -14.7 0
      vertex 14.1144 -16.3 0
    endloop
  endfacet
  facet normal 0 0 -1
    outer loop
      vertex 15.5 -13.9 0
      vertex 12.1353 -8.81678 0
      vertex 13.7032 -6.10105 0
    endloop
  endfacet
  facet normal 0 0 -1
    outer loop
      vertex 14.1144 -14.7 0
      vertex 10.037 -11.1472 0
      vertex 12.1353 -8.81678 0
    endloop
  endfacet
  facet normal 0 0 -1
    outer loop
      vertex 14.1144 -14.7 0
      vertex 7.5 -12.9904 0
      vertex 10.037 -11.1472 0
    endloop
  endfacet
  facet normal 0 0 -1
    outer loop
      vertex 15.5 -17.1 0
      vertex 1.56793 -14.9178 0
      vertex 14.1144 -16.3 0
    endloop
  endfacet
  facet normal 0 0 -1
    outer loop
      vertex 14.1144 -16.3 0
      vertex 4.63525 -14.2658 0
      vertex 7.5 -12.9904 0
    endloop
  endfacet
  facet normal 0 0 -1
    outer loop
      vertex 14.1144 -16.3 0
      vertex 1.56793 -14.9178 0
      vertex 4.63525 -14.2658 0
    endloop
  endfacet
  facet normal 0 0 -1
    outer loop
      vertex 22.1 -22.1 0
      vertex -1.56793 -14.9178 0
      vertex 1.56793 -14.9178 0
    endloop
  endfacet
  facet normal 0 0 -1
    outer loop
      vertex -22.1 -22.1 0
      vertex -1.56793 -14.9178 0
      vertex 22.1 -22.1 0
    endloop
  endfacet
  facet normal -0 0 -1
    outer loop
      vertex -10.037 -11.1472 0
      vertex -14.7 -14.1144 0
      vertex -12.1353 -8.81678 0
    endloop
  endfacet
  facet normal 0 0 -1
    outer loop
      vertex -14.7 -14.1144 0
      vertex -10.037 -11.1472 0
      vertex -13.9 -15.5 0
    endloop
  endfacet
  facet normal -0 0 -1
    outer loop
      vertex -7.5 -12.9904 0
      vertex -13.9 -15.5 0
      vertex -10.037 -11.1472 0
    endloop
  endfacet
  facet normal -0 0 -1
    outer loop
      vertex -4.63525 -14.2658 0
      vertex -13.9 -15.5 0
      vertex -7.5 -12.9904 0
    endloop
  endfacet
  facet normal 0 -0 -1
    outer loop
      vertex -14.7 -16.8856 0
      vertex -1.56793 -14.9178 0
      vertex -22.1 -22.1 0
    endloop
  endfacet
  facet normal 0 0 -1
    outer loop
      vertex -4.63525 -14.2658 0
      vertex -14.7 -16.8856 0
      vertex -13.9 -15.5 0
    endloop
  endfacet
  facet normal -0 0 -1
    outer loop
      vertex -1.56793 -14.9178 0
      vertex -14.7 -16.8856 0
      vertex -4.63525 -14.2658 0
    endloop
  endfacet
  facet normal -0 0 -1
    outer loop
      vertex -16.3 -16.8856 0
      vertex -22.1 -22.1 0
      vertex -17.1 -15.5 0
    endloop
  endfacet
  facet normal -0 0 -1
    outer loop
      vertex -14.7 -16.8856 0
      vertex -22.1 -22.1 0
      vertex -16.3 -16.8856 0
    endloop
  endfacet
  facet normal 0 0 -1
    outer loop
      vertex 22.1 21.1 0
      vertex 25.3431 22.1 0
      vertex 25.3431 21.1 0
    endloop
  endfacet
  facet normal 0 0 -1
    outer loop
      vertex 16.3 16.8856 0
      vertex 22.1 21.1 0
      vertex 17.1 15.5 0
    endloop
  endfacet
  facet normal 0 0 -1
    outer loop
      vertex 14.7 16.8856 0
      vertex 22.1 21.1 0
      vertex 16.3 16.8856 0
    endloop
  endfacet
  facet normal 0 0 -1
    outer loop
      vertex 10.037 11.1472 0
      vertex 14.7 14.1144 0
      vertex 12.1353 8.81678 0
    endloop
  endfacet
  facet normal -0 0 -1
    outer loop
      vertex 14.7 14.1144 0
      vertex 10.037 11.1472 0
      vertex 13.9 15.5 0
    endloop
  endfacet
  facet normal 0 0 -1
    outer loop
      vertex 7.5 12.9904 0
      vertex 13.9 15.5 0
      vertex 10.037 11.1472 0
    endloop
  endfacet
  facet normal -0 0 -1
    outer loop
      vertex 13.9 15.5 0
      vertex 7.5 12.9904 0
      vertex 14.7 16.8856 0
    endloop
  endfacet
  facet normal 0 0 -1
    outer loop
      vertex 4.63525 14.2658 0
      vertex 14.7 16.8856 0
      vertex 7.5 12.9904 0
    endloop
  endfacet
  facet normal 0 0 -1
    outer loop
      vertex 1.56793 14.9178 0
      vertex 14.7 16.8856 0
      vertex 4.63525 14.2658 0
    endloop
  endfacet
  facet normal -0 0 -1
    outer loop
      vertex 14.7 16.8856 0
      vertex 1.56793 14.9178 0
      vertex 22.1 21.1 0
    endloop
  endfacet
  facet normal 0 0 -1
    outer loop
      vertex -22.1 21.1 0
      vertex 22.1 21.1 0
      vertex 1.56793 14.9178 0
    endloop
  endfacet
  facet normal 0 0 -1
    outer loop
      vertex -22.1 21.1 0
      vertex 1.56793 14.9178 0
      vertex -1.56793 14.9178 0
    endloop
  endfacet
  facet normal 0 0 -1
    outer loop
      vertex -14.1144 16.3 0
      vertex -1.56793 14.9178 0
      vertex -4.63525 14.2658 0
    endloop
  endfacet
  facet normal 0 0 -1
    outer loop
      vertex -14.1144 14.7 0
      vertex -12.1353 8.81678 0
      vertex -13.7032 6.10105 0
    endloop
  endfacet
  facet normal 0 0 -1
    outer loop
      vertex -14.1144 14.7 0
      vertex -10.037 11.1472 0
      vertex -12.1353 8.81678 0
    endloop
  endfacet
  facet normal 0 0 -1
    outer loop
      vertex -14.1144 14.7 0
      vertex -7.5 12.9904 0
      vertex -10.037 11.1472 0
    endloop
  endfacet
  facet normal 0 0 -1
    outer loop
      vertex -14.1144 16.3 0
      vertex -7.5 12.9904 0
      vertex -14.1144 14.7 0
    endloop
  endfacet
  facet normal 0 0 -1
    outer loop
      vertex -7.5 12.9904 0
      vertex -14.1144 16.3 0
      vertex -4.63525 14.2658 0
    endloop
  endfacet
  facet normal 0 0 -1
    outer loop
      vertex -1.56793 14.9178 0
      vertex -14.1144 16.3 0
      vertex -15.5 17.1 0
    endloop
  endfacet
  facet normal 0 0 -1
    outer loop
      vertex -1.56793 14.9178 0
      vertex -15.5 17.1 0
      vertex -22.1 21.1 0
    endloop
  endfacet
  facet normal -0 0 -1
    outer loop
      vertex -15 0 0
      vertex -22.1 -22.1 0
      vertex -22.1 21.1 0
    endloop
  endfacet
  facet normal 0 0 -1
    outer loop
      vertex -16.8856 14.7 0
      vertex -22.1 21.1 0
      vertex -16.8856 16.3 0
    endloop
  endfacet
  facet normal 0 0 -1
    outer loop
      vertex -22.1 21.1 0
      vertex -15.5 17.1 0
      vertex -16.8856 16.3 0
    endloop
  endfacet
  facet normal 0 0 -1
    outer loop
      vertex 22.1 21.1 0
      vertex -22.1 21.1 0
      vertex 25.3431 22.1 0
    endloop
  endfacet
  facet normal 0 0 -1
    outer loop
      vertex -25.3431 22.1 0
      vertex -22.1 21.1 0
      vertex -25.3431 21.1 0
    endloop
  endfacet
  facet normal 0 0 -1
    outer loop
      vertex -22.1 21.1 0
      vertex -25.3431 22.1 0
      vertex 25.3431 22.1 0
    endloop
  endfacet
  facet normal 0 0 -1
    outer loop
      vertex 15 0 0
      vertex 22.1 -22.1 0
      vertex 16.8856 -14.7 0
    endloop
  endfacet
  facet normal 0 0 -1
    outer loop
      vertex 14.6722 3.11868 0
      vertex 22.1 21.1 0
      vertex 15 0 0
    endloop
  endfacet
  facet normal 0 0 -1
    outer loop
      vertex 13.7032 -6.10105 0
      vertex 16.8856 -14.7 0
      vertex 15.5 -13.9 0
    endloop
  endfacet
  facet normal 0 0 -1
    outer loop
      vertex 22.1 21.1 0
      vertex 14.6722 3.11868 0
      vertex 17.1 15.5 0
    endloop
  endfacet
  facet normal 0 0 -1
    outer loop
      vertex 17.1 15.5 0
      vertex 14.6722 3.11868 0
      vertex 16.3 14.1144 0
    endloop
  endfacet
  facet normal 0 0 -1
    outer loop
      vertex 13.7032 6.10105 0
      vertex 16.3 14.1144 0
      vertex 14.6722 3.11868 0
    endloop
  endfacet
  facet normal 0 0 -1
    outer loop
      vertex 12.1353 8.81678 0
      vertex 16.3 14.1144 0
      vertex 13.7032 6.10105 0
    endloop
  endfacet
  facet normal -0 0 -1
    outer loop
      vertex 16.3 14.1144 0
      vertex 12.1353 8.81678 0
      vertex 14.7 14.1144 0
    endloop
  endfacet
  facet normal 0 -1 0
    outer loop
      vertex -22.1 -22.1 0
      vertex 22.1 -22.1 9.90599
      vertex -22.1 -22.1 9.90599
    endloop
  endfacet
  facet normal 0 -1 -0
    outer loop
      vertex 22.1 -22.1 9.90599
      vertex -22.1 -22.1 0
      vertex 22.1 -22.1 0
    endloop
  endfacet
  facet normal -1 0 0
    outer loop
      vertex -30.6 21.1 5.25685
      vertex -30.6 22.1 24.7431
      vertex -30.6 22.1 5.25685
    endloop
  endfacet
  facet normal -1 -0 0
    outer loop
      vertex -30.6 22.1 24.7431
      vertex -30.6 21.1 5.25685
      vertex -30.6 21.1 24.7431
    endloop
  endfacet
  facet normal 1 -0 0
    outer loop
      vertex 30.6 21.1 24.7431
      vertex 30.6 22.1 5.25685
      vertex 30.6 22.1 24.7431
    endloop
  endfacet
  facet normal 1 0 0
    outer loop
      vertex 30.6 22.1 5.25685
      vertex 30.6 21.1 24.7431
      vertex 30.6 21.1 5.25685
    endloop
  endfacet
  facet normal 0 -1 0
    outer loop
      vertex -30.6 21.1 24.7431
      vertex -27.6 21.1 23
      vertex -26.8 21.1 24.3856
    endloop
  endfacet
  facet normal 0 -1 0
    outer loop
      vertex -30 21.1 15.5
      vertex -27.6 21.1 23
      vertex -30.6 21.1 24.7431
    endloop
  endfacet
  facet normal 0 -1 0
    outer loop
      vertex -22.1 21.1 15.5
      vertex -26.8 21.1 21.6144
      vertex -30 21.1 15.5
    endloop
  endfacet
  facet normal 0 -1 -0
    outer loop
      vertex -27.6 21.1 23
      vertex -30 21.1 15.5
      vertex -26.8 21.1 21.6144
    endloop
  endfacet
  facet normal 0 -1 0
    outer loop
      vertex -30.6 21.1 24.7431
      vertex -30 21.1 14.5
      vertex -30 21.1 15.5
    endloop
  endfacet
  facet normal 0 -1 0
    outer loop
      vertex -30 21.1 14.5
      vertex -26.8 21.1 8.38564
      vertex -22.1 21.1 14.5
    endloop
  endfacet
  facet normal 0 -1 0
    outer loop
      vertex -30 21.1 14.5
      vertex -27.6 21.1 7
      vertex -26.8 21.1 8.38564
    endloop
  endfacet
  facet normal 0 -1 0
    outer loop
      vertex -25.3431 21.1 0
      vertex -26.8 21.1 5.61436
      vertex -30.6 21.1 5.25685
    endloop
  endfacet
  facet normal 0 -1 -0
    outer loop
      vertex -27.6 21.1 7
      vertex -30.6 21.1 5.25685
      vertex -26.8 21.1 5.61436
    endloop
  endfacet
  facet normal 0 -1 -0
    outer loop
      vertex -30 21.1 14.5
      vertex -30.6 21.1 5.25685
      vertex -27.6 21.1 7
    endloop
  endfacet
  facet normal 0 -1 0
    outer loop
      vertex -30.6 21.1 5.25685
      vertex -30 21.1 14.5
      vertex -30.6 21.1 24.7431
    endloop
  endfacet
  facet normal 0 -1 0
    outer loop
      vertex -26.8 21.1 24.3856
      vertex -25.3431 21.1 30
      vertex -30.6 21.1 24.7431
    endloop
  endfacet
  facet normal 0 -1 0
    outer loop
      vertex -25.2 21.1 24.3856
      vertex -25.3431 21.1 30
      vertex -26.8 21.1 24.3856
    endloop
  endfacet
  facet normal 0 -1 0
    outer loop
      vertex -25.3431 21.1 30
      vertex -25.2 21.1 24.3856
      vertex -22.1 21.1 30
    endloop
  endfacet
  facet normal 0 -1 0
    outer loop
      vertex -24.4 21.1 23
      vertex -22.1 21.1 30
      vertex -25.2 21.1 24.3856
    endloop
  endfacet
  facet normal 0 -1 0
    outer loop
      vertex -24.4 21.1 23
      vertex -22.1 21.1 15.5
      vertex -22.1 21.1 30
    endloop
  endfacet
  facet normal 0 -1 0
    outer loop
      vertex -25.2 21.1 21.6144
      vertex -22.1 21.1 15.5
      vertex -24.4 21.1 23
    endloop
  endfacet
  facet normal 0 -1 0
    outer loop
      vertex -26.8 21.1 21.6144
      vertex -22.1 21.1 15.5
      vertex -25.2 21.1 21.6144
    endloop
  endfacet
  facet normal 0 -1 0
    outer loop
      vertex -25.2 21.1 8.38564
      vertex -22.1 21.1 14.5
      vertex -26.8 21.1 8.38564
    endloop
  endfacet
  facet normal 0 -1 0
    outer loop
      vertex -24.4 21.1 7
      vertex -22.1 21.1 14.5
      vertex -25.2 21.1 8.38564
    endloop
  endfacet
  facet normal 0 -1 0
    outer loop
      vertex -26.8 21.1 5.61436
      vertex -25.3431 21.1 0
      vertex -25.2 21.1 5.61436
    endloop
  endfacet
  facet normal 0 -1 0
    outer loop
      vertex -22.1 21.1 0
      vertex -25.2 21.1 5.61436
      vertex -25.3431 21.1 0
    endloop
  endfacet
  facet normal 0 -1 0
    outer loop
      vertex -25.2 21.1 5.61436
      vertex -22.1 21.1 0
      vertex -24.4 21.1 7
    endloop
  endfacet
  facet normal 0 -1 0
    outer loop
      vertex -24.4 21.1 7
      vertex -22.1 21.1 0
      vertex -22.1 21.1 14.5
    endloop
  endfacet
  facet normal 0 -1 0
    outer loop
      vertex 26.8 21.1 8.38564
      vertex 22.1 21.1 14.5
      vertex 25.2 21.1 8.38564
    endloop
  endfacet
  facet normal 0 -1 0
    outer loop
      vertex 22.1 21.1 14.5
      vertex 24.4 21.1 7
      vertex 25.2 21.1 8.38564
    endloop
  endfacet
  facet normal 0 -1 0
    outer loop
      vertex 25.3431 21.1 0
      vertex 26.8 21.1 5.61436
      vertex 25.2 21.1 5.61436
    endloop
  endfacet
  facet normal 0 -1 0
    outer loop
      vertex 22.1 21.1 0
      vertex 24.4 21.1 7
      vertex 22.1 21.1 14.5
    endloop
  endfacet
  facet normal 0 -1 0
    outer loop
      vertex 22.1 21.1 0
      vertex 25.2 21.1 5.61436
      vertex 24.4 21.1 7
    endloop
  endfacet
  facet normal 0 -1 0
    outer loop
      vertex 25.3431 21.1 0
      vertex 25.2 21.1 5.61436
      vertex 22.1 21.1 0
    endloop
  endfacet
  facet normal 0 -1 -0
    outer loop
      vertex 26.8 21.1 5.61436
      vertex 25.3431 21.1 0
      vertex 30.6 21.1 5.25685
    endloop
  endfacet
  facet normal 0 -1 0
    outer loop
      vertex 25.2 21.1 24.3856
      vertex 25.3431 21.1 30
      vertex 22.1 21.1 30
    endloop
  endfacet
  facet normal 0 -1 -0
    outer loop
      vertex 25.3431 21.1 30
      vertex 25.2 21.1 24.3856
      vertex 26.8 21.1 24.3856
    endloop
  endfacet
  facet normal 0 -1 0
    outer loop
      vertex 22.1 21.1 30
      vertex 24.4 21.1 23
      vertex 25.2 21.1 24.3856
    endloop
  endfacet
  facet normal 0 -1 -0
    outer loop
      vertex 25.2 21.1 21.6144
      vertex 22.1 21.1 15.5
      vertex 26.8 21.1 21.6144
    endloop
  endfacet
  facet normal 0 -1 -0
    outer loop
      vertex 24.4 21.1 23
      vertex 22.1 21.1 15.5
      vertex 25.2 21.1 21.6144
    endloop
  endfacet
  facet normal 0 -1 0
    outer loop
      vertex 22.1 21.1 15.5
      vertex 24.4 21.1 23
      vertex 22.1 21.1 30
    endloop
  endfacet
  facet normal 0 -1 0
    outer loop
      vertex 25.3431 21.1 30
      vertex 26.8 21.1 24.3856
      vertex 30.6 21.1 24.7431
    endloop
  endfacet
  facet normal 0 -1 0
    outer loop
      vertex 27.6 21.1 23
      vertex 30.6 21.1 24.7431
      vertex 26.8 21.1 24.3856
    endloop
  endfacet
  facet normal 0 -1 0
    outer loop
      vertex 30 21.1 15.5
      vertex 27.6 21.1 23
      vertex 26.8 21.1 21.6144
    endloop
  endfacet
  facet normal 0 -1 0
    outer loop
      vertex 30 21.1 15.5
      vertex 26.8 21.1 21.6144
      vertex 22.1 21.1 15.5
    endloop
  endfacet
  facet normal 0 -1 0
    outer loop
      vertex 27.6 21.1 23
      vertex 30 21.1 15.5
      vertex 30.6 21.1 24.7431
    endloop
  endfacet
  facet normal 0 -1 0
    outer loop
      vertex 30 21.1 14.5
      vertex 30.6 21.1 24.7431
      vertex 30 21.1 15.5
    endloop
  endfacet
  facet normal 0 -1 0
    outer loop
      vertex 22.1 21.1 14.5
      vertex 26.8 21.1 8.38564
      vertex 30 21.1 14.5
    endloop
  endfacet
  facet normal 0 -1 0
    outer loop
      vertex 27.6 21.1 7
      vertex 30 21.1 14.5
      vertex 26.8 21.1 8.38564
    endloop
  endfacet
  facet normal 0 -1 0
    outer loop
      vertex 30 21.1 14.5
      vertex 30.6 21.1 5.25685
      vertex 30.6 21.1 24.7431
    endloop
  endfacet
  facet normal 0 -1 0
    outer loop
      vertex 27.6 21.1 7
      vertex 30.6 21.1 5.25685
      vertex 30 21.1 14.5
    endloop
  endfacet
  facet normal 0 -1 0
    outer loop
      vertex 30.6 21.1 5.25685
      vertex 27.6 21.1 7
      vertex 26.8 21.1 5.61436
    endloop
  endfacet
  facet normal -0.866025 0 -0.500001
    outer loop
      vertex -24.4 21.1 7
      vertex -25.2 22.1 8.38564
      vertex -24.4 22.1 7
    endloop
  endfacet
  facet normal -0.866025 -0 -0.500001
    outer loop
      vertex -25.2 22.1 8.38564
      vertex -24.4 21.1 7
      vertex -25.2 21.1 8.38564
    endloop
  endfacet
  facet normal 0 0 -1
    outer loop
      vertex -26.8 21.1 8.38564
      vertex -25.2 22.1 8.38564
      vertex -25.2 21.1 8.38564
    endloop
  endfacet
  facet normal -0 0 -1
    outer loop
      vertex -25.2 22.1 8.38564
      vertex -26.8 21.1 8.38564
      vertex -26.8 22.1 8.38564
    endloop
  endfacet
  facet normal -0 0 1
    outer loop
      vertex -26.8 22.1 5.61436
      vertex -25.2 21.1 5.61436
      vertex -25.2 22.1 5.61436
    endloop
  endfacet
  facet normal 0 0 1
    outer loop
      vertex -25.2 21.1 5.61436
      vertex -26.8 22.1 5.61436
      vertex -26.8 21.1 5.61436
    endloop
  endfacet
  facet normal 0.866026 0 -0.5
    outer loop
      vertex -26.8 21.1 8.38564
      vertex -27.6 22.1 7
      vertex -26.8 22.1 8.38564
    endloop
  endfacet
  facet normal 0.866026 0 -0.5
    outer loop
      vertex -27.6 22.1 7
      vertex -26.8 21.1 8.38564
      vertex -27.6 21.1 7
    endloop
  endfacet
  facet normal 0.866026 -0 0.5
    outer loop
      vertex -27.6 21.1 7
      vertex -26.8 22.1 5.61436
      vertex -27.6 22.1 7
    endloop
  endfacet
  facet normal 0.866026 0 0.5
    outer loop
      vertex -26.8 22.1 5.61436
      vertex -27.6 21.1 7
      vertex -26.8 21.1 5.61436
    endloop
  endfacet
  facet normal -0.866025 0 0.5
    outer loop
      vertex -25.2 21.1 5.61436
      vertex -24.4 22.1 7
      vertex -25.2 22.1 5.61436
    endloop
  endfacet
  facet normal -0.866025 0 0.5
    outer loop
      vertex -24.4 22.1 7
      vertex -25.2 21.1 5.61436
      vertex -24.4 21.1 7
    endloop
  endfacet
  facet normal -0.866025 0 -0.500001
    outer loop
      vertex -24.4 21.1 23
      vertex -25.2 22.1 24.3856
      vertex -24.4 22.1 23
    endloop
  endfacet
  facet normal -0.866025 -0 -0.500001
    outer loop
      vertex -25.2 22.1 24.3856
      vertex -24.4 21.1 23
      vertex -25.2 21.1 24.3856
    endloop
  endfacet
  facet normal 0 0 -1
    outer loop
      vertex -26.8 21.1 24.3856
      vertex -25.2 22.1 24.3856
      vertex -25.2 21.1 24.3856
    endloop
  endfacet
  facet normal -0 0 -1
    outer loop
      vertex -25.2 22.1 24.3856
      vertex -26.8 21.1 24.3856
      vertex -26.8 22.1 24.3856
    endloop
  endfacet
  facet normal -0 0 1
    outer loop
      vertex -26.8 22.1 21.6144
      vertex -25.2 21.1 21.6144
      vertex -25.2 22.1 21.6144
    endloop
  endfacet
  facet normal 0 0 1
    outer loop
      vertex -25.2 21.1 21.6144
      vertex -26.8 22.1 21.6144
      vertex -26.8 21.1 21.6144
    endloop
  endfacet
  facet normal 0.866025 0 -0.5
    outer loop
      vertex -26.8 21.1 24.3856
      vertex -27.6 22.1 23
      vertex -26.8 22.1 24.3856
    endloop
  endfacet
  facet normal 0.866025 0 -0.5
    outer loop
      vertex -27.6 22.1 23
      vertex -26.8 21.1 24.3856
      vertex -27.6 21.1 23
    endloop
  endfacet
  facet normal 0.866026 -0 0.5
    outer loop
      vertex -27.6 21.1 23
      vertex -26.8 22.1 21.6144
      vertex -27.6 22.1 23
    endloop
  endfacet
  facet normal 0.866026 0 0.5
    outer loop
      vertex -26.8 22.1 21.6144
      vertex -27.6 21.1 23
      vertex -26.8 21.1 21.6144
    endloop
  endfacet
  facet normal -0.866025 0 0.5
    outer loop
      vertex -25.2 21.1 21.6144
      vertex -24.4 22.1 23
      vertex -25.2 22.1 21.6144
    endloop
  endfacet
  facet normal -0.866025 0 0.5
    outer loop
      vertex -24.4 22.1 23
      vertex -25.2 21.1 21.6144
      vertex -24.4 21.1 23
    endloop
  endfacet
  facet normal -0.866026 0 -0.5
    outer loop
      vertex 27.6 21.1 7
      vertex 26.8 22.1 8.38564
      vertex 27.6 22.1 7
    endloop
  endfacet
  facet normal -0.866026 -0 -0.5
    outer loop
      vertex 26.8 22.1 8.38564
      vertex 27.6 21.1 7
      vertex 26.8 21.1 8.38564
    endloop
  endfacet
  facet normal 0 0 -1
    outer loop
      vertex 25.2 21.1 8.38564
      vertex 26.8 22.1 8.38564
      vertex 26.8 21.1 8.38564
    endloop
  endfacet
  facet normal -0 0 -1
    outer loop
      vertex 26.8 22.1 8.38564
      vertex 25.2 21.1 8.38564
      vertex 25.2 22.1 8.38564
    endloop
  endfacet
  facet normal -0 0 1
    outer loop
      vertex 25.2 22.1 5.61436
      vertex 26.8 21.1 5.61436
      vertex 26.8 22.1 5.61436
    endloop
  endfacet
  facet normal 0 0 1
    outer loop
      vertex 26.8 21.1 5.61436
      vertex 25.2 22.1 5.61436
      vertex 25.2 21.1 5.61436
    endloop
  endfacet
  facet normal 0.866025 0 -0.500001
    outer loop
      vertex 25.2 21.1 8.38564
      vertex 24.4 22.1 7
      vertex 25.2 22.1 8.38564
    endloop
  endfacet
  facet normal 0.866025 0 -0.500001
    outer loop
      vertex 24.4 22.1 7
      vertex 25.2 21.1 8.38564
      vertex 24.4 21.1 7
    endloop
  endfacet
  facet normal 0.866025 -0 0.5
    outer loop
      vertex 24.4 21.1 7
      vertex 25.2 22.1 5.61436
      vertex 24.4 22.1 7
    endloop
  endfacet
  facet normal 0.866025 0 0.5
    outer loop
      vertex 25.2 22.1 5.61436
      vertex 24.4 21.1 7
      vertex 25.2 21.1 5.61436
    endloop
  endfacet
  facet normal -0.866026 0 0.5
    outer loop
      vertex 26.8 21.1 5.61436
      vertex 27.6 22.1 7
      vertex 26.8 22.1 5.61436
    endloop
  endfacet
  facet normal -0.866026 0 0.5
    outer loop
      vertex 27.6 22.1 7
      vertex 26.8 21.1 5.61436
      vertex 27.6 21.1 7
    endloop
  endfacet
  facet normal -0.866025 0 -0.5
    outer loop
      vertex 27.6 21.1 23
      vertex 26.8 22.1 24.3856
      vertex 27.6 22.1 23
    endloop
  endfacet
  facet normal -0.866025 -0 -0.5
    outer loop
      vertex 26.8 22.1 24.3856
      vertex 27.6 21.1 23
      vertex 26.8 21.1 24.3856
    endloop
  endfacet
  facet normal 0 0 -1
    outer loop
      vertex 25.2 21.1 24.3856
      vertex 26.8 22.1 24.3856
      vertex 26.8 21.1 24.3856
    endloop
  endfacet
  facet normal -0 0 -1
    outer loop
      vertex 26.8 22.1 24.3856
      vertex 25.2 21.1 24.3856
      vertex 25.2 22.1 24.3856
    endloop
  endfacet
  facet normal -0 0 1
    outer loop
      vertex 25.2 22.1 21.6144
      vertex 26.8 21.1 21.6144
      vertex 26.8 22.1 21.6144
    endloop
  endfacet
  facet normal 0 0 1
    outer loop
      vertex 26.8 21.1 21.6144
      vertex 25.2 22.1 21.6144
      vertex 25.2 21.1 21.6144
    endloop
  endfacet
  facet normal 0.866025 0 -0.500001
    outer loop
      vertex 25.2 21.1 24.3856
      vertex 24.4 22.1 23
      vertex 25.2 22.1 24.3856
    endloop
  endfacet
  facet normal 0.866025 0 -0.500001
    outer loop
      vertex 24.4 22.1 23
      vertex 25.2 21.1 24.3856
      vertex 24.4 21.1 23
    endloop
  endfacet
  facet normal 0.866025 -0 0.5
    outer loop
      vertex 24.4 21.1 23
      vertex 25.2 22.1 21.6144
      vertex 24.4 22.1 23
    endloop
  endfacet
  facet normal 0.866025 0 0.5
    outer loop
      vertex 25.2 22.1 21.6144
      vertex 24.4 21.1 23
      vertex 25.2 21.1 21.6144
    endloop
  endfacet
  facet normal -0.866026 0 0.5
    outer loop
      vertex 26.8 21.1 21.6144
      vertex 27.6 22.1 23
      vertex 26.8 22.1 21.6144
    endloop
  endfacet
  facet normal -0.866026 0 0.5
    outer loop
      vertex 27.6 22.1 23
      vertex 26.8 21.1 21.6144
      vertex 27.6 21.1 23
    endloop
  endfacet
  facet normal -0.866025 -0.5 0
    outer loop
      vertex 17.1 15.5 0
      vertex 16.3 16.8856 2
      vertex 16.3 16.8856 0
    endloop
  endfacet
  facet normal -0.866025 -0.5 0
    outer loop
      vertex 16.3 16.8856 2
      vertex 17.1 15.5 0
      vertex 17.1 15.5 2
    endloop
  endfacet
  facet normal 0.866025 -0.5 0
    outer loop
      vertex 13.9 15.5 2
      vertex 14.7 16.8856 0
      vertex 14.7 16.8856 2
    endloop
  endfacet
  facet normal 0.866025 -0.5 0
    outer loop
      vertex 14.7 16.8856 0
      vertex 13.9 15.5 2
      vertex 13.9 15.5 0
    endloop
  endfacet
  facet normal 0 -1 0
    outer loop
      vertex 14.7 16.8856 0
      vertex 16.3 16.8856 2
      vertex 14.7 16.8856 2
    endloop
  endfacet
  facet normal 0 -1 -0
    outer loop
      vertex 16.3 16.8856 2
      vertex 14.7 16.8856 0
      vertex 16.3 16.8856 0
    endloop
  endfacet
  facet normal 0.866025 0.5 0
    outer loop
      vertex 14.7 14.1144 2
      vertex 13.9 15.5 0
      vertex 13.9 15.5 2
    endloop
  endfacet
  facet normal 0.866025 0.5 0
    outer loop
      vertex 13.9 15.5 0
      vertex 14.7 14.1144 2
      vertex 14.7 14.1144 0
    endloop
  endfacet
  facet normal -0.866026 0.5 0
    outer loop
      vertex 16.3 14.1144 0
      vertex 17.1 15.5 2
      vertex 17.1 15.5 0
    endloop
  endfacet
  facet normal -0.866026 0.5 0
    outer loop
      vertex 17.1 15.5 2
      vertex 16.3 14.1144 0
      vertex 16.3 14.1144 2
    endloop
  endfacet
  facet normal 0 1 -0
    outer loop
      vertex 16.3 14.1144 0
      vertex 14.7 14.1144 2
      vertex 16.3 14.1144 2
    endloop
  endfacet
  facet normal 0 1 0
    outer loop
      vertex 14.7 14.1144 2
      vertex 16.3 14.1144 0
      vertex 14.7 14.1144 0
    endloop
  endfacet
  facet normal 0.5 -0.866026 0
    outer loop
      vertex -16.8856 16.3 0
      vertex -15.5 17.1 2
      vertex -16.8856 16.3 2
    endloop
  endfacet
  facet normal 0.5 -0.866026 0
    outer loop
      vertex -15.5 17.1 2
      vertex -16.8856 16.3 0
      vertex -15.5 17.1 0
    endloop
  endfacet
  facet normal 1 -0 0
    outer loop
      vertex -16.8856 14.7 2
      vertex -16.8856 16.3 0
      vertex -16.8856 16.3 2
    endloop
  endfacet
  facet normal 1 0 0
    outer loop
      vertex -16.8856 16.3 0
      vertex -16.8856 14.7 2
      vertex -16.8856 14.7 0
    endloop
  endfacet
  facet normal 0.5 0.866025 -0
    outer loop
      vertex -15.5 13.9 0
      vertex -16.8856 14.7 2
      vertex -15.5 13.9 2
    endloop
  endfacet
  facet normal 0.5 0.866025 0
    outer loop
      vertex -16.8856 14.7 2
      vertex -15.5 13.9 0
      vertex -16.8856 14.7 0
    endloop
  endfacet
  facet normal -0.5 -0.866026 0
    outer loop
      vertex -15.5 17.1 0
      vertex -14.1144 16.3 2
      vertex -15.5 17.1 2
    endloop
  endfacet
  facet normal -0.5 -0.866026 -0
    outer loop
      vertex -14.1144 16.3 2
      vertex -15.5 17.1 0
      vertex -14.1144 16.3 0
    endloop
  endfacet
  facet normal -1 0 0
    outer loop
      vertex -14.1144 14.7 0
      vertex -14.1144 16.3 2
      vertex -14.1144 16.3 0
    endloop
  endfacet
  facet normal -1 -0 0
    outer loop
      vertex -14.1144 16.3 2
      vertex -14.1144 14.7 0
      vertex -14.1144 14.7 2
    endloop
  endfacet
  facet normal -0.5 0.866025 0
    outer loop
      vertex -14.1144 14.7 0
      vertex -15.5 13.9 2
      vertex -14.1144 14.7 2
    endloop
  endfacet
  facet normal -0.5 0.866025 0
    outer loop
      vertex -15.5 13.9 2
      vertex -14.1144 14.7 0
      vertex -15.5 13.9 0
    endloop
  endfacet
  facet normal 0.866026 0.5 0
    outer loop
      vertex -16.3 -16.8856 2
      vertex -17.1 -15.5 0
      vertex -17.1 -15.5 2
    endloop
  endfacet
  facet normal 0.866026 0.5 0
    outer loop
      vertex -17.1 -15.5 0
      vertex -16.3 -16.8856 2
      vertex -16.3 -16.8856 0
    endloop
  endfacet
  facet normal 0 1 -0
    outer loop
      vertex -14.7 -16.8856 0
      vertex -16.3 -16.8856 2
      vertex -14.7 -16.8856 2
    endloop
  endfacet
  facet normal 0 1 0
    outer loop
      vertex -16.3 -16.8856 2
      vertex -14.7 -16.8856 0
      vertex -16.3 -16.8856 0
    endloop
  endfacet
  facet normal -0.866025 0.5 0
    outer loop
      vertex -14.7 -16.8856 0
      vertex -13.9 -15.5 2
      vertex -13.9 -15.5 0
    endloop
  endfacet
  facet normal -0.866025 0.5 0
    outer loop
      vertex -13.9 -15.5 2
      vertex -14.7 -16.8856 0
      vertex -14.7 -16.8856 2
    endloop
  endfacet
  facet normal 0.866026 -0.5 0
    outer loop
      vertex -17.1 -15.5 2
      vertex -16.3 -14.1144 0
      vertex -16.3 -14.1144 2
    endloop
  endfacet
  facet normal 0.866026 -0.5 0
    outer loop
      vertex -16.3 -14.1144 0
      vertex -17.1 -15.5 2
      vertex -17.1 -15.5 0
    endloop
  endfacet
  facet normal 0 -1 0
    outer loop
      vertex -16.3 -14.1144 0
      vertex -14.7 -14.1144 2
      vertex -16.3 -14.1144 2
    endloop
  endfacet
  facet normal 0 -1 -0
    outer loop
      vertex -14.7 -14.1144 2
      vertex -16.3 -14.1144 0
      vertex -14.7 -14.1144 0
    endloop
  endfacet
  facet normal -0.866025 -0.5 0
    outer loop
      vertex -13.9 -15.5 0
      vertex -14.7 -14.1144 2
      vertex -14.7 -14.1144 0
    endloop
  endfacet
  facet normal -0.866025 -0.5 0
    outer loop
      vertex -14.7 -14.1144 2
      vertex -13.9 -15.5 0
      vertex -13.9 -15.5 2
    endloop
  endfacet
  facet normal -0.5 0.866026 0
    outer loop
      vertex 16.8856 -16.3 0
      vertex 15.5 -17.1 2
      vertex 16.8856 -16.3 2
    endloop
  endfacet
  facet normal -0.5 0.866026 0
    outer loop
      vertex 15.5 -17.1 2
      vertex 16.8856 -16.3 0
      vertex 15.5 -17.1 0
    endloop
  endfacet
  facet normal -0.5 -0.866025 0
    outer loop
      vertex 15.5 -13.9 0
      vertex 16.8856 -14.7 2
      vertex 15.5 -13.9 2
    endloop
  endfacet
  facet normal -0.5 -0.866025 -0
    outer loop
      vertex 16.8856 -14.7 2
      vertex 15.5 -13.9 0
      vertex 16.8856 -14.7 0
    endloop
  endfacet
  facet normal -1 0 0
    outer loop
      vertex 16.8856 -16.3 0
      vertex 16.8856 -14.7 2
      vertex 16.8856 -14.7 0
    endloop
  endfacet
  facet normal -1 -0 0
    outer loop
      vertex 16.8856 -14.7 2
      vertex 16.8856 -16.3 0
      vertex 16.8856 -16.3 2
    endloop
  endfacet
  facet normal 0.5 0.866026 -0
    outer loop
      vertex 15.5 -17.1 0
      vertex 14.1144 -16.3 2
      vertex 15.5 -17.1 2
    endloop
  endfacet
  facet normal 0.5 0.866026 0
    outer loop
      vertex 14.1144 -16.3 2
      vertex 15.5 -17.1 0
      vertex 14.1144 -16.3 0
    endloop
  endfacet
  facet normal 1 -0 0
    outer loop
      vertex 14.1144 -16.3 2
      vertex 14.1144 -14.7 0
      vertex 14.1144 -14.7 2
    endloop
  endfacet
  facet normal 1 0 0
    outer loop
      vertex 14.1144 -14.7 0
      vertex 14.1144 -16.3 2
      vertex 14.1144 -16.3 0
    endloop
  endfacet
  facet normal 0.5 -0.866025 0
    outer loop
      vertex 14.1144 -14.7 0
      vertex 15.5 -13.9 2
      vertex 14.1144 -14.7 2
    endloop
  endfacet
  facet normal 0.5 -0.866025 0
    outer loop
      vertex 15.5 -13.9 2
      vertex 14.1144 -14.7 0
      vertex 15.5 -13.9 0
    endloop
  endfacet
  facet normal 0.707107 -0 0.707107
    outer loop
      vertex 25.3431 21.1 30
      vertex 30.6 22.1 24.7431
      vertex 25.3431 22.1 30
    endloop
  endfacet
  facet normal 0.707107 0 0.707107
    outer loop
      vertex 30.6 22.1 24.7431
      vertex 25.3431 21.1 30
      vertex 30.6 21.1 24.7431
    endloop
  endfacet
  facet normal 0.707107 0 -0.707107
    outer loop
      vertex 30.6 21.1 5.25685
      vertex 25.3431 22.1 0
      vertex 30.6 22.1 5.25685
    endloop
  endfacet
  facet normal 0.707107 0 -0.707107
    outer loop
      vertex 25.3431 22.1 0
      vertex 30.6 21.1 5.25685
      vertex 25.3431 21.1 0
    endloop
  endfacet
  facet normal -0.707107 0 0.707107
    outer loop
      vertex -30.6 21.1 24.7431
      vertex -25.3431 22.1 30
      vertex -30.6 22.1 24.7431
    endloop
  endfacet
  facet normal -0.707107 0 0.707107
    outer loop
      vertex -25.3431 22.1 30
      vertex -30.6 21.1 24.7431
      vertex -25.3431 21.1 30
    endloop
  endfacet
  facet normal -0.707107 0 -0.707107
    outer loop
      vertex -25.3431 21.1 0
      vertex -30.6 22.1 5.25685
      vertex -25.3431 22.1 0
    endloop
  endfacet
  facet normal -0.707107 -0 -0.707107
    outer loop
      vertex -30.6 22.1 5.25685
      vertex -25.3431 21.1 0
      vertex -30.6 21.1 5.25685
    endloop
  endfacet
  facet normal 1 -0 0
    outer loop
      vertex -21.1 12.7038 30
      vertex -21.1 21.1 2
      vertex -21.1 21.1 30
    endloop
  endfacet
  facet normal 1 -0 0
    outer loop
      vertex -21.1 -21.1 10.4833
      vertex -21.1 21.1 2
      vertex -21.1 12.7038 30
    endloop
  endfacet
  facet normal 1 0 0
    outer loop
      vertex -21.1 21.1 2
      vertex -21.1 -21.1 10.4833
      vertex -21.1 -21.1 2
    endloop
  endfacet
  facet normal -1 0 0
    outer loop
      vertex 21.1 -5 2
      vertex 21.1 -21.1 2
      vertex 21.1 -5 6
    endloop
  endfacet
  facet normal -1 0 0
    outer loop
      vertex 21.1 21.1 2
      vertex 21.1 12.7038 30
      vertex 21.1 21.1 30
    endloop
  endfacet
  facet normal -1 0 0
    outer loop
      vertex 21.1 5 6
      vertex 21.1 21.1 2
      vertex 21.1 5 2
    endloop
  endfacet
  facet normal -1 0 0
    outer loop
      vertex 21.1 21.1 2
      vertex 21.1 5 6
      vertex 21.1 12.7038 30
    endloop
  endfacet
  facet normal -1 0 0
    outer loop
      vertex 21.1 -5 6
      vertex 21.1 12.7038 30
      vertex 21.1 5 6
    endloop
  endfacet
  facet normal -1 0 0
    outer loop
      vertex 21.1 -21.1 10.4833
      vertex 21.1 -5 6
      vertex 21.1 -21.1 2
    endloop
  endfacet
  facet normal -1 0 0
    outer loop
      vertex 21.1 -5 6
      vertex 21.1 -21.1 10.4833
      vertex 21.1 12.7038 30
    endloop
  endfacet
  facet normal 0 -1 0
    outer loop
      vertex -21.1 21.1 2
      vertex 21.1 21.1 30
      vertex -21.1 21.1 30
    endloop
  endfacet
  facet normal 0 -1 -0
    outer loop
      vertex 21.1 21.1 30
      vertex -21.1 21.1 2
      vertex 21.1 21.1 2
    endloop
  endfacet
  facet normal 0 0 1
    outer loop
      vertex -16.3 -14.1144 2
      vertex -13.7032 -6.10105 2
      vertex -14.6722 -3.11868 2
    endloop
  endfacet
  facet normal 0 0 1
    outer loop
      vertex -13.7032 -6.10105 2
      vertex -14.7 -14.1144 2
      vertex -13.9 -15.5 2
    endloop
  endfacet
  facet normal 0 0 1
    outer loop
      vertex -21.1 -21.1 2
      vertex -14.6722 -3.11868 2
      vertex -15 0 2
    endloop
  endfacet
  facet normal 0 0 1
    outer loop
      vertex -14.6722 3.11868 2
      vertex -16.8856 14.7 2
      vertex -15 0 2
    endloop
  endfacet
  facet normal 0 0 1
    outer loop
      vertex -13.7032 -6.10105 2
      vertex -16.3 -14.1144 2
      vertex -14.7 -14.1144 2
    endloop
  endfacet
  facet normal 0 0 1
    outer loop
      vertex -21.1 21.1 2
      vertex -15 0 2
      vertex -16.8856 14.7 2
    endloop
  endfacet
  facet normal 0 0 1
    outer loop
      vertex -14.6722 -3.11868 2
      vertex -17.1 -15.5 2
      vertex -16.3 -14.1144 2
    endloop
  endfacet
  facet normal -0 0 1
    outer loop
      vertex -15.5 13.9 2
      vertex -12.1353 8.81678 2
      vertex -14.1144 14.7 2
    endloop
  endfacet
  facet normal 0 0 1
    outer loop
      vertex -12.1353 8.81678 2
      vertex -15.5 13.9 2
      vertex -13.7032 6.10105 2
    endloop
  endfacet
  facet normal 0 0 1
    outer loop
      vertex -16.8856 14.7 2
      vertex -13.7032 6.10105 2
      vertex -15.5 13.9 2
    endloop
  endfacet
  facet normal 0 0 1
    outer loop
      vertex -13.7032 6.10105 2
      vertex -16.8856 14.7 2
      vertex -14.6722 3.11868 2
    endloop
  endfacet
  facet normal 0 -0 1
    outer loop
      vertex 15 0 2
      vertex 21.1 5 2
      vertex 14.6722 3.11868 2
    endloop
  endfacet
  facet normal -0 0 1
    outer loop
      vertex 14.6722 -3.11868 2
      vertex 21.1 -5 2
      vertex 15 0 2
    endloop
  endfacet
  facet normal 0 0 1
    outer loop
      vertex 13.7032 -6.10105 2
      vertex 21.1 -5 2
      vertex 14.6722 -3.11868 2
    endloop
  endfacet
  facet normal 0 0 1
    outer loop
      vertex 12.1353 8.81678 2
      vertex 16.3 14.1144 2
      vertex 14.7 14.1144 2
    endloop
  endfacet
  facet normal 0 0 1
    outer loop
      vertex 21.1 5 2
      vertex 15 0 2
      vertex 21.1 -5 2
    endloop
  endfacet
  facet normal 0 0 1
    outer loop
      vertex 10.037 11.1472 2
      vertex 14.7 14.1144 2
      vertex 13.9 15.5 2
    endloop
  endfacet
  facet normal 0 0 1
    outer loop
      vertex 16.3 14.1144 2
      vertex 13.7032 6.10105 2
      vertex 14.6722 3.11868 2
    endloop
  endfacet
  facet normal -0 0 1
    outer loop
      vertex 17.1 15.5 2
      vertex 21.1 5 2
      vertex 21.1 21.1 2
    endloop
  endfacet
  facet normal -0 0 1
    outer loop
      vertex 16.3 14.1144 2
      vertex 21.1 5 2
      vertex 17.1 15.5 2
    endloop
  endfacet
  facet normal 0 0 1
    outer loop
      vertex 14.6722 3.11868 2
      vertex 21.1 5 2
      vertex 16.3 14.1144 2
    endloop
  endfacet
  facet normal 0 0 1
    outer loop
      vertex 21.1 21.1 2
      vertex 16.3 16.8856 2
      vertex 17.1 15.5 2
    endloop
  endfacet
  facet normal 0 0 1
    outer loop
      vertex 21.1 21.1 2
      vertex 14.7 16.8856 2
      vertex 16.3 16.8856 2
    endloop
  endfacet
  facet normal 0 0 1
    outer loop
      vertex 16.3 14.1144 2
      vertex 12.1353 8.81678 2
      vertex 13.7032 6.10105 2
    endloop
  endfacet
  facet normal 0 0 1
    outer loop
      vertex 14.7 14.1144 2
      vertex 10.037 11.1472 2
      vertex 12.1353 8.81678 2
    endloop
  endfacet
  facet normal 0 0 1
    outer loop
      vertex 7.5 12.9904 2
      vertex 13.9 15.5 2
      vertex 14.7 16.8856 2
    endloop
  endfacet
  facet normal 0 0 1
    outer loop
      vertex 13.9 15.5 2
      vertex 7.5 12.9904 2
      vertex 10.037 11.1472 2
    endloop
  endfacet
  facet normal 0 0 1
    outer loop
      vertex 1.56793 14.9178 2
      vertex 14.7 16.8856 2
      vertex 21.1 21.1 2
    endloop
  endfacet
  facet normal 0 0 1
    outer loop
      vertex 14.7 16.8856 2
      vertex 4.63525 14.2658 2
      vertex 7.5 12.9904 2
    endloop
  endfacet
  facet normal 0 0 1
    outer loop
      vertex 14.7 16.8856 2
      vertex 1.56793 14.9178 2
      vertex 4.63525 14.2658 2
    endloop
  endfacet
  facet normal 0 0 1
    outer loop
      vertex 21.1 21.1 2
      vertex -1.56793 14.9178 2
      vertex 1.56793 14.9178 2
    endloop
  endfacet
  facet normal -0 0 1
    outer loop
      vertex -21.1 21.1 2
      vertex -1.56793 14.9178 2
      vertex 21.1 21.1 2
    endloop
  endfacet
  facet normal 0 0 1
    outer loop
      vertex -10.037 11.1472 2
      vertex -14.1144 14.7 2
      vertex -12.1353 8.81678 2
    endloop
  endfacet
  facet normal 0 0 1
    outer loop
      vertex -7.5 12.9904 2
      vertex -14.1144 14.7 2
      vertex -10.037 11.1472 2
    endloop
  endfacet
  facet normal -0 0 1
    outer loop
      vertex -14.1144 14.7 2
      vertex -7.5 12.9904 2
      vertex -14.1144 16.3 2
    endloop
  endfacet
  facet normal 0 0 1
    outer loop
      vertex -4.63525 14.2658 2
      vertex -14.1144 16.3 2
      vertex -7.5 12.9904 2
    endloop
  endfacet
  facet normal -0 -0 1
    outer loop
      vertex -15.5 17.1 2
      vertex -1.56793 14.9178 2
      vertex -21.1 21.1 2
    endloop
  endfacet
  facet normal 0 0 1
    outer loop
      vertex -1.56793 14.9178 2
      vertex -14.1144 16.3 2
      vertex -4.63525 14.2658 2
    endloop
  endfacet
  facet normal 0 0 1
    outer loop
      vertex -21.1 21.1 2
      vertex -16.8856 14.7 2
      vertex -16.8856 16.3 2
    endloop
  endfacet
  facet normal 0 0 1
    outer loop
      vertex -15 0 2
      vertex -21.1 21.1 2
      vertex -21.1 -21.1 2
    endloop
  endfacet
  facet normal 0 0 1
    outer loop
      vertex -15.5 17.1 2
      vertex -21.1 21.1 2
      vertex -16.8856 16.3 2
    endloop
  endfacet
  facet normal -0 -0 1
    outer loop
      vertex -14.1144 16.3 2
      vertex -1.56793 14.9178 2
      vertex -15.5 17.1 2
    endloop
  endfacet
  facet normal -0 0 1
    outer loop
      vertex 21.1 5 2
      vertex 22.1 -5 2
      vertex 22.1 5 2
    endloop
  endfacet
  facet normal 0 0 1
    outer loop
      vertex 22.1 -5 2
      vertex 21.1 5 2
      vertex 21.1 -5 2
    endloop
  endfacet
  facet normal 0 0 1
    outer loop
      vertex 21.1 -5 2
      vertex 16.8856 -14.7 2
      vertex 21.1 -21.1 2
    endloop
  endfacet
  facet normal -0 0 1
    outer loop
      vertex 16.8856 -16.3 2
      vertex 21.1 -21.1 2
      vertex 16.8856 -14.7 2
    endloop
  endfacet
  facet normal -0 0 1
    outer loop
      vertex 15.5 -17.1 2
      vertex 21.1 -21.1 2
      vertex 16.8856 -16.3 2
    endloop
  endfacet
  facet normal 0 0 1
    outer loop
      vertex 1.56793 -14.9178 2
      vertex 15.5 -17.1 2
      vertex 14.1144 -16.3 2
    endloop
  endfacet
  facet normal -0 0 1
    outer loop
      vertex 10.037 -11.1472 2
      vertex 14.1144 -14.7 2
      vertex 12.1353 -8.81678 2
    endloop
  endfacet
  facet normal -0 0 1
    outer loop
      vertex 7.5 -12.9904 2
      vertex 14.1144 -14.7 2
      vertex 10.037 -11.1472 2
    endloop
  endfacet
  facet normal 0 0 1
    outer loop
      vertex 14.1144 -14.7 2
      vertex 7.5 -12.9904 2
      vertex 14.1144 -16.3 2
    endloop
  endfacet
  facet normal -0 0 1
    outer loop
      vertex 4.63525 -14.2658 2
      vertex 14.1144 -16.3 2
      vertex 7.5 -12.9904 2
    endloop
  endfacet
  facet normal -0 0 1
    outer loop
      vertex 1.56793 -14.9178 2
      vertex 14.1144 -16.3 2
      vertex 4.63525 -14.2658 2
    endloop
  endfacet
  facet normal 0 0 1
    outer loop
      vertex 15.5 -17.1 2
      vertex 1.56793 -14.9178 2
      vertex 21.1 -21.1 2
    endloop
  endfacet
  facet normal -0 0 1
    outer loop
      vertex -1.56793 -14.9178 2
      vertex 21.1 -21.1 2
      vertex 1.56793 -14.9178 2
    endloop
  endfacet
  facet normal 0 0 1
    outer loop
      vertex -14.7 -16.8856 2
      vertex -1.56793 -14.9178 2
      vertex -4.63525 -14.2658 2
    endloop
  endfacet
  facet normal 0 0 1
    outer loop
      vertex -13.9 -15.5 2
      vertex -12.1353 -8.81678 2
      vertex -13.7032 -6.10105 2
    endloop
  endfacet
  facet normal 0 0 1
    outer loop
      vertex -13.9 -15.5 2
      vertex -10.037 -11.1472 2
      vertex -12.1353 -8.81678 2
    endloop
  endfacet
  facet normal 0 0 1
    outer loop
      vertex -13.9 -15.5 2
      vertex -7.5 -12.9904 2
      vertex -10.037 -11.1472 2
    endloop
  endfacet
  facet normal 0 0 1
    outer loop
      vertex -13.9 -15.5 2
      vertex -4.63525 -14.2658 2
      vertex -7.5 -12.9904 2
    endloop
  endfacet
  facet normal 0 0 1
    outer loop
      vertex -14.7 -16.8856 2
      vertex -4.63525 -14.2658 2
      vertex -13.9 -15.5 2
    endloop
  endfacet
  facet normal 0 0 1
    outer loop
      vertex -1.56793 -14.9178 2
      vertex -14.7 -16.8856 2
      vertex -21.1 -21.1 2
    endloop
  endfacet
  facet normal 0 0 1
    outer loop
      vertex -21.1 -21.1 2
      vertex -14.7 -16.8856 2
      vertex -16.3 -16.8856 2
    endloop
  endfacet
  facet normal 0 0 1
    outer loop
      vertex -1.56793 -14.9178 2
      vertex -21.1 -21.1 2
      vertex 21.1 -21.1 2
    endloop
  endfacet
  facet normal 0 0 1
    outer loop
      vertex -17.1 -15.5 2
      vertex -21.1 -21.1 2
      vertex -16.3 -16.8856 2
    endloop
  endfacet
  facet normal 0 0 1
    outer loop
      vertex -14.6722 -3.11868 2
      vertex -21.1 -21.1 2
      vertex -17.1 -15.5 2
    endloop
  endfacet
  facet normal 0 -0 1
    outer loop
      vertex 15.5 -13.9 2
      vertex 21.1 -5 2
      vertex 13.7032 -6.10105 2
    endloop
  endfacet
  facet normal 0 0 1
    outer loop
      vertex 21.1 -5 2
      vertex 15.5 -13.9 2
      vertex 16.8856 -14.7 2
    endloop
  endfacet
  facet normal 0 0 1
    outer loop
      vertex 15.5 -13.9 2
      vertex 12.1353 -8.81678 2
      vertex 14.1144 -14.7 2
    endloop
  endfacet
  facet normal -0 0 1
    outer loop
      vertex 12.1353 -8.81678 2
      vertex 15.5 -13.9 2
      vertex 13.7032 -6.10105 2
    endloop
  endfacet
  facet normal 0 1 -0
    outer loop
      vertex 21.1 -21.1 2
      vertex -21.1 -21.1 10.4833
      vertex 21.1 -21.1 10.4833
    endloop
  endfacet
  facet normal 0 1 0
    outer loop
      vertex -21.1 -21.1 10.4833
      vertex 21.1 -21.1 2
      vertex -21.1 -21.1 2
    endloop
  endfacet
  facet normal 0 0 -1
    outer loop
      vertex 21.1 -5 6
      vertex 22.1 5 6
      vertex 22.1 -5 6
    endloop
  endfacet
  facet normal -0 0 -1
    outer loop
      vertex 22.1 5 6
      vertex 21.1 -5 6
      vertex 21.1 5 6
    endloop
  endfacet
  facet normal 0 -1 0
    outer loop
      vertex 21.1 5 2
      vertex 22.1 5 6
      vertex 21.1 5 6
    endloop
  endfacet
  facet normal 0 -1 -0
    outer loop
      vertex 22.1 5 6
      vertex 21.1 5 2
      vertex 22.1 5 2
    endloop
  endfacet
  facet normal 0 1 -0
    outer loop
      vertex 22.1 -5 2
      vertex 21.1 -5 6
      vertex 22.1 -5 6
    endloop
  endfacet
  facet normal 0 1 0
    outer loop
      vertex 21.1 -5 6
      vertex 22.1 -5 2
      vertex 21.1 -5 2
    endloop
  endfacet
  facet normal -0.994522 -0.104529 0
    outer loop
      vertex 15 0 0
      vertex 14.6722 3.11868 2
      vertex 14.6722 3.11868 0
    endloop
  endfacet
  facet normal -0.994522 -0.104529 0
    outer loop
      vertex 14.6722 3.11868 2
      vertex 15 0 0
      vertex 15 0 2
    endloop
  endfacet
  facet normal 0.994522 -0.104529 0
    outer loop
      vertex -15 0 2
      vertex -14.6722 3.11868 0
      vertex -14.6722 3.11868 2
    endloop
  endfacet
  facet normal 0.994522 -0.104529 0
    outer loop
      vertex -14.6722 3.11868 0
      vertex -15 0 2
      vertex -15 0 0
    endloop
  endfacet
  facet normal 0 -1 0
    outer loop
      vertex -1.56793 14.9178 0
      vertex 1.56793 14.9178 2
      vertex -1.56793 14.9178 2
    endloop
  endfacet
  facet normal 0 -1 -0
    outer loop
      vertex 1.56793 14.9178 2
      vertex -1.56793 14.9178 0
      vertex 1.56793 14.9178 0
    endloop
  endfacet
  facet normal 0 1 -0
    outer loop
      vertex 1.56793 -14.9178 0
      vertex -1.56793 -14.9178 2
      vertex 1.56793 -14.9178 2
    endloop
  endfacet
  facet normal 0 1 0
    outer loop
      vertex -1.56793 -14.9178 2
      vertex 1.56793 -14.9178 0
      vertex -1.56793 -14.9178 0
    endloop
  endfacet
  facet normal -0.743145 -0.669131 0
    outer loop
      vertex 12.1353 8.81678 0
      vertex 10.037 11.1472 2
      vertex 10.037 11.1472 0
    endloop
  endfacet
  facet normal -0.743145 -0.669131 0
    outer loop
      vertex 10.037 11.1472 2
      vertex 12.1353 8.81678 0
      vertex 12.1353 8.81678 2
    endloop
  endfacet
  facet normal 0.587785 -0.809017 0
    outer loop
      vertex -10.037 11.1472 0
      vertex -7.5 12.9904 2
      vertex -10.037 11.1472 2
    endloop
  endfacet
  facet normal 0.587785 -0.809017 0
    outer loop
      vertex -7.5 12.9904 2
      vertex -10.037 11.1472 0
      vertex -7.5 12.9904 0
    endloop
  endfacet
  facet normal 0.207912 -0.978148 0
    outer loop
      vertex -4.63525 14.2658 0
      vertex -1.56793 14.9178 2
      vertex -4.63525 14.2658 2
    endloop
  endfacet
  facet normal 0.207912 -0.978148 0
    outer loop
      vertex -1.56793 14.9178 2
      vertex -4.63525 14.2658 0
      vertex -1.56793 14.9178 0
    endloop
  endfacet
  facet normal -0.951057 0.309017 0
    outer loop
      vertex 13.7032 -6.10105 0
      vertex 14.6722 -3.11868 2
      vertex 14.6722 -3.11868 0
    endloop
  endfacet
  facet normal -0.951057 0.309017 0
    outer loop
      vertex 14.6722 -3.11868 2
      vertex 13.7032 -6.10105 0
      vertex 13.7032 -6.10105 2
    endloop
  endfacet
  facet normal -0.866025 -0.5 0
    outer loop
      vertex 13.7032 6.10105 0
      vertex 12.1353 8.81678 2
      vertex 12.1353 8.81678 0
    endloop
  endfacet
  facet normal -0.866025 -0.5 0
    outer loop
      vertex 12.1353 8.81678 2
      vertex 13.7032 6.10105 0
      vertex 13.7032 6.10105 2
    endloop
  endfacet
  facet normal -0.951057 -0.309017 0
    outer loop
      vertex 14.6722 3.11868 0
      vertex 13.7032 6.10105 2
      vertex 13.7032 6.10105 0
    endloop
  endfacet
  facet normal -0.951057 -0.309017 0
    outer loop
      vertex 13.7032 6.10105 2
      vertex 14.6722 3.11868 0
      vertex 14.6722 3.11868 2
    endloop
  endfacet
  facet normal -0.406737 -0.913545 0
    outer loop
      vertex 4.63525 14.2658 0
      vertex 7.5 12.9904 2
      vertex 4.63525 14.2658 2
    endloop
  endfacet
  facet normal -0.406737 -0.913545 -0
    outer loop
      vertex 7.5 12.9904 2
      vertex 4.63525 14.2658 0
      vertex 7.5 12.9904 0
    endloop
  endfacet
  facet normal -0.207912 -0.978148 0
    outer loop
      vertex 1.56793 14.9178 0
      vertex 4.63525 14.2658 2
      vertex 1.56793 14.9178 2
    endloop
  endfacet
  facet normal -0.207912 -0.978148 -0
    outer loop
      vertex 4.63525 14.2658 2
      vertex 1.56793 14.9178 0
      vertex 4.63525 14.2658 0
    endloop
  endfacet
  facet normal -0.587785 -0.809017 0
    outer loop
      vertex 7.5 12.9904 0
      vertex 10.037 11.1472 2
      vertex 7.5 12.9904 2
    endloop
  endfacet
  facet normal -0.587785 -0.809017 -0
    outer loop
      vertex 10.037 11.1472 2
      vertex 7.5 12.9904 0
      vertex 10.037 11.1472 0
    endloop
  endfacet
  facet normal 0.866025 -0.5 0
    outer loop
      vertex -13.7032 6.10105 2
      vertex -12.1353 8.81678 0
      vertex -12.1353 8.81678 2
    endloop
  endfacet
  facet normal 0.866025 -0.5 0
    outer loop
      vertex -12.1353 8.81678 0
      vertex -13.7032 6.10105 2
      vertex -13.7032 6.10105 0
    endloop
  endfacet
  facet normal 0.743145 -0.669131 0
    outer loop
      vertex -12.1353 8.81678 2
      vertex -10.037 11.1472 0
      vertex -10.037 11.1472 2
    endloop
  endfacet
  facet normal 0.743145 -0.669131 0
    outer loop
      vertex -10.037 11.1472 0
      vertex -12.1353 8.81678 2
      vertex -12.1353 8.81678 0
    endloop
  endfacet
  facet normal 0.951057 -0.309017 0
    outer loop
      vertex -14.6722 3.11868 2
      vertex -13.7032 6.10105 0
      vertex -13.7032 6.10105 2
    endloop
  endfacet
  facet normal 0.951057 -0.309017 0
    outer loop
      vertex -13.7032 6.10105 0
      vertex -14.6722 3.11868 2
      vertex -14.6722 3.11868 0
    endloop
  endfacet
  facet normal 0.406737 -0.913545 0
    outer loop
      vertex -7.5 12.9904 0
      vertex -4.63525 14.2658 2
      vertex -7.5 12.9904 2
    endloop
  endfacet
  facet normal 0.406737 -0.913545 0
    outer loop
      vertex -4.63525 14.2658 2
      vertex -7.5 12.9904 0
      vertex -4.63525 14.2658 0
    endloop
  endfacet
  facet normal -0.994522 0.104529 0
    outer loop
      vertex 14.6722 -3.11868 0
      vertex 15 0 2
      vertex 15 0 0
    endloop
  endfacet
  facet normal -0.994522 0.104529 0
    outer loop
      vertex 15 0 2
      vertex 14.6722 -3.11868 0
      vertex 14.6722 -3.11868 2
    endloop
  endfacet
  facet normal -0.207912 0.978148 0
    outer loop
      vertex 4.63525 -14.2658 0
      vertex 1.56793 -14.9178 2
      vertex 4.63525 -14.2658 2
    endloop
  endfacet
  facet normal -0.207912 0.978148 0
    outer loop
      vertex 1.56793 -14.9178 2
      vertex 4.63525 -14.2658 0
      vertex 1.56793 -14.9178 0
    endloop
  endfacet
  facet normal -0.866025 0.5 0
    outer loop
      vertex 12.1353 -8.81678 0
      vertex 13.7032 -6.10105 2
      vertex 13.7032 -6.10105 0
    endloop
  endfacet
  facet normal -0.866025 0.5 0
    outer loop
      vertex 13.7032 -6.10105 2
      vertex 12.1353 -8.81678 0
      vertex 12.1353 -8.81678 2
    endloop
  endfacet
  facet normal 0.587785 0.809017 -0
    outer loop
      vertex -7.5 -12.9904 0
      vertex -10.037 -11.1472 2
      vertex -7.5 -12.9904 2
    endloop
  endfacet
  facet normal 0.587785 0.809017 0
    outer loop
      vertex -10.037 -11.1472 2
      vertex -7.5 -12.9904 0
      vertex -10.037 -11.1472 0
    endloop
  endfacet
  facet normal 0.866025 0.5 0
    outer loop
      vertex -12.1353 -8.81678 2
      vertex -13.7032 -6.10105 0
      vertex -13.7032 -6.10105 2
    endloop
  endfacet
  facet normal 0.866025 0.5 0
    outer loop
      vertex -13.7032 -6.10105 0
      vertex -12.1353 -8.81678 2
      vertex -12.1353 -8.81678 0
    endloop
  endfacet
  facet normal 0.743145 0.669131 0
    outer loop
      vertex -10.037 -11.1472 2
      vertex -12.1353 -8.81678 0
      vertex -12.1353 -8.81678 2
    endloop
  endfacet
  facet normal 0.743145 0.669131 0
    outer loop
      vertex -12.1353 -8.81678 0
      vertex -10.037 -11.1472 2
      vertex -10.037 -11.1472 0
    endloop
  endfacet
  facet normal -0.587785 0.809017 0
    outer loop
      vertex 10.037 -11.1472 0
      vertex 7.5 -12.9904 2
      vertex 10.037 -11.1472 2
    endloop
  endfacet
  facet normal -0.587785 0.809017 0
    outer loop
      vertex 7.5 -12.9904 2
      vertex 10.037 -11.1472 0
      vertex 7.5 -12.9904 0
    endloop
  endfacet
  facet normal -0.406737 0.913545 0
    outer loop
      vertex 7.5 -12.9904 0
      vertex 4.63525 -14.2658 2
      vertex 7.5 -12.9904 2
    endloop
  endfacet
  facet normal -0.406737 0.913545 0
    outer loop
      vertex 4.63525 -14.2658 2
      vertex 7.5 -12.9904 0
      vertex 4.63525 -14.2658 0
    endloop
  endfacet
  facet normal 0.207912 0.978148 -0
    outer loop
      vertex -1.56793 -14.9178 0
      vertex -4.63525 -14.2658 2
      vertex -1.56793 -14.9178 2
    endloop
  endfacet
  facet normal 0.207912 0.978148 0
    outer loop
      vertex -4.63525 -14.2658 2
      vertex -1.56793 -14.9178 0
      vertex -4.63525 -14.2658 0
    endloop
  endfacet
  facet normal 0.951057 0.309017 0
    outer loop
      vertex -13.7032 -6.10105 2
      vertex -14.6722 -3.11868 0
      vertex -14.6722 -3.11868 2
    endloop
  endfacet
  facet normal 0.951057 0.309017 0
    outer loop
      vertex -14.6722 -3.11868 0
      vertex -13.7032 -6.10105 2
      vertex -13.7032 -6.10105 0
    endloop
  endfacet
  facet normal 0.994522 0.104529 0
    outer loop
      vertex -14.6722 -3.11868 2
      vertex -15 0 0
      vertex -15 0 2
    endloop
  endfacet
  facet normal 0.994522 0.104529 0
    outer loop
      vertex -15 0 0
      vertex -14.6722 -3.11868 2
      vertex -14.6722 -3.11868 0
    endloop
  endfacet
  facet normal -0.743145 0.669131 0
    outer loop
      vertex 10.037 -11.1472 0
      vertex 12.1353 -8.81678 2
      vertex 12.1353 -8.81678 0
    endloop
  endfacet
  facet normal -0.743145 0.669131 0
    outer loop
      vertex 12.1353 -8.81678 2
      vertex 10.037 -11.1472 0
      vertex 10.037 -11.1472 2
    endloop
  endfacet
  facet normal 0.406737 0.913545 -0
    outer loop
      vertex -4.63525 -14.2658 0
      vertex -7.5 -12.9904 2
      vertex -4.63525 -14.2658 2
    endloop
  endfacet
  facet normal 0.406737 0.913545 0
    outer loop
      vertex -7.5 -12.9904 2
      vertex -4.63525 -14.2658 0
      vertex -7.5 -12.9904 0
    endloop
  endfacet
  facet normal 0 -0.5 0.866025
    outer loop
      vertex -21.1 12.7038 30
      vertex -22.1 12.7038 30
      vertex -21.1 -21.1 10.4833
    endloop
  endfacet
  facet normal 0 -0.5 0.866025
    outer loop
      vertex 21.1 -21.1 10.4833
      vertex 22.1 12.7038 30
      vertex 21.1 12.7038 30
    endloop
  endfacet
  facet normal 2.83526e-07 -0.5 0.866025
    outer loop
      vertex 22.1 12.7038 30
      vertex 21.1 -21.1 10.4833
      vertex 22.1 -22.1 9.90599
    endloop
  endfacet
  facet normal 0 -0.5 0.866025
    outer loop
      vertex -21.1 -21.1 10.4833
      vertex 22.1 -22.1 9.90599
      vertex 21.1 -21.1 10.4833
    endloop
  endfacet
  facet normal 0 -0.5 0.866025
    outer loop
      vertex -21.1 -21.1 10.4833
      vertex -22.1 -22.1 9.90599
      vertex 22.1 -22.1 9.90599
    endloop
  endfacet
  facet normal -2.83526e-07 -0.5 0.866025
    outer loop
      vertex -22.1 -22.1 9.90599
      vertex -21.1 -21.1 10.4833
      vertex -22.1 12.7038 30
    endloop
  endfacet
endsolid OpenSCAD_Model
