  0
SECTION
  2
BLOCKS
  0
ENDSEC
  0
SECTION
  2
ENTITIES
  0
LINE
  8
0
 10
-3
 20
-2
 11
3
 21
-2
  0
LINE
  8
0
 10
3
 20
-2
 11
3
 21
-8
  0
LINE
  8
0
 10
3
 20
-8
 11
5
 21
-8
  0
LINE
  8
0
 10
5
 20
-8
 11
5
 21
0
  0
LINE
  8
0
 10
5
 20
0
 11
4.92657
 21
0.463516
  0
LINE
  8
0
 10
4.92657
 20
0.463516
 11
4.71352
 21
0.881668
  0
LINE
  8
0
 10
4.71352
 20
0.881668
 11
4.38167
 21
1.21352
  0
LINE
  8
0
 10
4.38167
 20
1.21352
 11
-13.5305
 21
18.0225
  0
LINE
  8
0
 10
-13.5305
 20
18.0225
 11
-14.2274
 21
18.3776
  0
LINE
  8
0
 10
-14.2274
 20
18.3776
 11
-15
 21
18.5
  0
LINE
  8
0
 10
-15
 20
18.5
 11
-15.7725
 21
18.3776
  0
LINE
  8
0
 10
-15.7725
 20
18.3776
 11
-16.4695
 21
18.0225
  0
LINE
  8
0
 10
-16.4695
 20
18.0225
 11
-17.0225
 21
17.4695
  0
LINE
  8
0
 10
-17.0225
 20
17.4695
 11
-17.3776
 21
16.7725
  0
LINE
  8
0
 10
-17.3776
 20
16.7725
 11
-17.5
 21
16
  0
LINE
  8
0
 10
-17.5
 20
16
 11
-17.3776
 21
15.2274
  0
LINE
  8
0
 10
-17.3776
 20
15.2274
 11
-17.0225
 21
14.5305
  0
LINE
  8
0
 10
-17.0225
 20
14.5305
 11
-5
 21
-0.522964
  0
LINE
  8
0
 10
-5
 20
-0.522964
 11
-5
 21
-8
  0
LINE
  8
0
 10
-5
 20
-8
 11
-3
 21
-8
  0
LINE
  8
0
 10
-3
 20
-8
 11
-3
 21
-2
  0
LINE
  8
0
 10
-15.4635
 20
14.5734
 11
-15.8817
 21
14.7865
  0
LINE
  8
0
 10
-15.8817
 20
14.7865
 11
-16.2135
 21
15.1183
  0
LINE
  8
0
 10
-16.2135
 20
15.1183
 11
-16.4266
 21
15.5365
  0
LINE
  8
0
 10
-16.4266
 20
15.5365
 11
-16.5
 21
16
  0
LINE
  8
0
 10
-16.5
 20
16
 11
-16.4266
 21
16.4635
  0
LINE
  8
0
 10
-16.4266
 20
16.4635
 11
-16.2135
 21
16.8817
  0
LINE
  8
0
 10
-16.2135
 20
16.8817
 11
-15.8817
 21
17.2135
  0
LINE
  8
0
 10
-15.8817
 20
17.2135
 11
-15.4635
 21
17.4266
  0
LINE
  8
0
 10
-15.4635
 20
17.4266
 11
-15
 21
17.5
  0
LINE
  8
0
 10
-15
 20
17.5
 11
-14.5365
 21
17.4266
  0
LINE
  8
0
 10
-14.5365
 20
17.4266
 11
-14.1183
 21
17.2135
  0
LINE
  8
0
 10
-14.1183
 20
17.2135
 11
-13.7865
 21
16.8817
  0
LINE
  8
0
 10
-13.7865
 20
16.8817
 11
-13.5734
 21
16.4635
  0
LINE
  8
0
 10
-13.5734
 20
16.4635
 11
-13.5
 21
16
  0
LINE
  8
0
 10
-13.5
 20
16
 11
-13.5734
 21
15.5365
  0
LINE
  8
0
 10
-13.5734
 20
15.5365
 11
-13.7865
 21
15.1183
  0
LINE
  8
0
 10
-13.7865
 20
15.1183
 11
-14.1183
 21
14.7865
  0
LINE
  8
0
 10
-14.1183
 20
14.7865
 11
-14.5365
 21
14.5734
  0
LINE
  8
0
 10
-14.5365
 20
14.5734
 11
-15
 21
14.5
  0
LINE
  8
0
 10
-15
 20
14.5
 11
-15.4635
 21
14.5734
  0
LINE
  8
0
 10
-2.46352
 20
0.57341
 11
-2.88167
 21
0.786469
  0
LINE
  8
0
 10
-2.88167
 20
0.786469
 11
-3.21352
 21
1.11832
  0
LINE
  8
0
 10
-3.21352
 20
1.11832
 11
-3.42657
 21
1.53647
  0
LINE
  8
0
 10
-3.42657
 20
1.53647
 11
-3.5
 21
2
  0
LINE
  8
0
 10
-3.5
 20
2
 11
-3.42657
 21
2.46352
  0
LINE
  8
0
 10
-3.42657
 20
2.46352
 11
-3.21352
 21
2.88167
  0
LINE
  8
0
 10
-3.21352
 20
2.88167
 11
-2.88167
 21
3.21352
  0
LINE
  8
0
 10
-2.88167
 20
3.21352
 11
-2.46352
 21
3.42657
  0
LINE
  8
0
 10
-2.46352
 20
3.42657
 11
-2
 21
3.5
  0
LINE
  8
0
 10
-2
 20
3.5
 11
-1.53647
 21
3.42657
  0
LINE
  8
0
 10
-1.53647
 20
3.42657
 11
-1.11832
 21
3.21352
  0
LINE
  8
0
 10
-1.11832
 20
3.21352
 11
-0.786469
 21
2.88167
  0
LINE
  8
0
 10
-0.786469
 20
2.88167
 11
-0.57341
 21
2.46352
  0
LINE
  8
0
 10
-0.57341
 20
2.46352
 11
-0.5
 21
2
  0
LINE
  8
0
 10
-0.5
 20
2
 11
-0.57341
 21
1.53647
  0
LINE
  8
0
 10
-0.57341
 20
1.53647
 11
-0.786469
 21
1.11832
  0
LINE
  8
0
 10
-0.786469
 20
1.11832
 11
-1.11832
 21
0.786469
  0
LINE
  8
0
 10
-1.11832
 20
0.786469
 11
-1.53647
 21
0.57341
  0
LINE
  8
0
 10
-1.53647
 20
0.57341
 11
-2
 21
0.5
  0
LINE
  8
0
 10
-2
 20
0.5
 11
-2.46352
 21
0.57341
  0
ENDSEC
  0
SECTION
  2
OBJECTS
  0
DICTIONARY
  0
ENDSEC
  0
EOF
