solid OpenSCAD_Model
  facet normal -0.195091 0 -0.980785
    outer loop
      vertex -21.9134 -7.3 0.380603
      vertex -20 -5.3 0
      vertex -20 -7.3 0
    endloop
  endfacet
  facet normal -0.195091 0 -0.980785
    outer loop
      vertex -20 -5.3 0
      vertex -21.9134 -7.3 0.380603
      vertex -21.9134 -5.3 0.380603
    endloop
  endfacet
  facet normal -0.980785 0 0.195091
    outer loop
      vertex -25 -7.3 5
      vertex -24.6194 -5.3 6.91342
      vertex -25 -5.3 5
    endloop
  endfacet
  facet normal -0.980785 0 0.195091
    outer loop
      vertex -24.6194 -5.3 6.91342
      vertex -25 -7.3 5
      vertex -24.6194 -7.3 6.91342
    endloop
  endfacet
  facet normal -0.55557 0 -0.83147
    outer loop
      vertex -23.5355 -7.3 1.46447
      vertex -21.9134 -5.3 0.380603
      vertex -21.9134 -7.3 0.380603
    endloop
  endfacet
  facet normal -0.55557 0 -0.83147
    outer loop
      vertex -21.9134 -5.3 0.380603
      vertex -23.5355 -7.3 1.46447
      vertex -23.5355 -5.3 1.46447
    endloop
  endfacet
  facet normal -0.980785 0 -0.195091
    outer loop
      vertex -24.6194 -7.3 3.08658
      vertex -25 -5.3 5
      vertex -24.6194 -5.3 3.08658
    endloop
  endfacet
  facet normal -0.980785 -0 -0.195091
    outer loop
      vertex -25 -5.3 5
      vertex -24.6194 -7.3 3.08658
      vertex -25 -7.3 5
    endloop
  endfacet
  facet normal -0.55557 0 0.83147
    outer loop
      vertex -23.5355 -5.3 8.53553
      vertex -21.9134 -7.3 9.6194
      vertex -21.9134 -5.3 9.6194
    endloop
  endfacet
  facet normal -0.55557 0 0.83147
    outer loop
      vertex -21.9134 -7.3 9.6194
      vertex -23.5355 -5.3 8.53553
      vertex -23.5355 -7.3 8.53553
    endloop
  endfacet
  facet normal -0.195091 0 0.980785
    outer loop
      vertex -21.9134 -5.3 9.6194
      vertex -20 -7.3 10
      vertex -20 -5.3 10
    endloop
  endfacet
  facet normal -0.195091 0 0.980785
    outer loop
      vertex -20 -7.3 10
      vertex -21.9134 -5.3 9.6194
      vertex -21.9134 -7.3 9.6194
    endloop
  endfacet
  facet normal -0.83147 0 0.55557
    outer loop
      vertex -24.6194 -7.3 6.91342
      vertex -23.5355 -5.3 8.53553
      vertex -24.6194 -5.3 6.91342
    endloop
  endfacet
  facet normal -0.83147 0 0.55557
    outer loop
      vertex -23.5355 -5.3 8.53553
      vertex -24.6194 -7.3 6.91342
      vertex -23.5355 -7.3 8.53553
    endloop
  endfacet
  facet normal 0 -1 0
    outer loop
      vertex -21.9134 -7.3 9.6194
      vertex -20.9698 -7.3 6.33488
      vertex -20 -7.3 6.65
    endloop
  endfacet
  facet normal 0 -1 0
    outer loop
      vertex -23.5355 -7.3 8.53553
      vertex -21.5692 -7.3 5.50988
      vertex -20.9698 -7.3 6.33488
    endloop
  endfacet
  facet normal 0 -1 0
    outer loop
      vertex -25 -7.3 5
      vertex -21.5692 -7.3 5.50988
      vertex -24.6194 -7.3 6.91342
    endloop
  endfacet
  facet normal 0 -1 0
    outer loop
      vertex -25 -7.3 5
      vertex -21.5692 -7.3 4.49012
      vertex -21.5692 -7.3 5.50988
    endloop
  endfacet
  facet normal 0 -1 0
    outer loop
      vertex -24.6194 -7.3 3.08658
      vertex -21.5692 -7.3 4.49012
      vertex -25 -7.3 5
    endloop
  endfacet
  facet normal 0 -1 -0
    outer loop
      vertex -21.5692 -7.3 4.49012
      vertex -23.5355 -7.3 1.46447
      vertex -20.9698 -7.3 3.66512
    endloop
  endfacet
  facet normal 0 -1 0
    outer loop
      vertex -23.5355 -7.3 1.46447
      vertex -21.5692 -7.3 4.49012
      vertex -24.6194 -7.3 3.08658
    endloop
  endfacet
  facet normal 0 -1 0
    outer loop
      vertex -20 -7.3 6.65
      vertex -20 -7.3 10
      vertex -21.9134 -7.3 9.6194
    endloop
  endfacet
  facet normal 0 -1 0
    outer loop
      vertex -20.9698 -7.3 6.33488
      vertex -21.9134 -7.3 9.6194
      vertex -23.5355 -7.3 8.53553
    endloop
  endfacet
  facet normal 0 -1 0
    outer loop
      vertex -21.5692 -7.3 5.50988
      vertex -23.5355 -7.3 8.53553
      vertex -24.6194 -7.3 6.91342
    endloop
  endfacet
  facet normal 0 -1 0
    outer loop
      vertex -20 -7.3 10
      vertex -20 -7.3 6.65
      vertex -19.0302 -7.3 6.33488
    endloop
  endfacet
  facet normal 0 -1 0
    outer loop
      vertex -20 -7.3 10
      vertex -19.0302 -7.3 6.33488
      vertex -8 -7.3 10
    endloop
  endfacet
  facet normal 0 -1 0
    outer loop
      vertex -18.4308 -7.3 5.50988
      vertex -8 -7.3 10
      vertex -19.0302 -7.3 6.33488
    endloop
  endfacet
  facet normal 0 -1 0
    outer loop
      vertex -18.4308 -7.3 4.49012
      vertex -8 -7.3 10
      vertex -18.4308 -7.3 5.50988
    endloop
  endfacet
  facet normal 0 -1 0
    outer loop
      vertex -8 -7.3 0
      vertex -18.4308 -7.3 4.49012
      vertex -19.0302 -7.3 3.66512
    endloop
  endfacet
  facet normal 0 -1 0
    outer loop
      vertex -21.9134 -7.3 0.380603
      vertex -20.9698 -7.3 3.66512
      vertex -23.5355 -7.3 1.46447
    endloop
  endfacet
  facet normal 0 -1 -0
    outer loop
      vertex -20.9698 -7.3 3.66512
      vertex -21.9134 -7.3 0.380603
      vertex -20 -7.3 3.35
    endloop
  endfacet
  facet normal 0 -1 0
    outer loop
      vertex -20 -7.3 0
      vertex -20 -7.3 3.35
      vertex -21.9134 -7.3 0.380603
    endloop
  endfacet
  facet normal 0 -1 0
    outer loop
      vertex -20 -7.3 3.35
      vertex -20 -7.3 0
      vertex -19.0302 -7.3 3.66512
    endloop
  endfacet
  facet normal 0 -1 0
    outer loop
      vertex -8 -7.3 0
      vertex -19.0302 -7.3 3.66512
      vertex -20 -7.3 0
    endloop
  endfacet
  facet normal 0 -1 0
    outer loop
      vertex -18.4308 -7.3 4.49012
      vertex -8 -7.3 0
      vertex -8 -7.3 10
    endloop
  endfacet
  facet normal 0 -1 0
    outer loop
      vertex -5 -7.3 0
      vertex 17 -7.3 10
      vertex -5 -7.3 10
    endloop
  endfacet
  facet normal 0 -1 -0
    outer loop
      vertex 17 -7.3 10
      vertex -5 -7.3 0
      vertex 17 -7.3 0
    endloop
  endfacet
  facet normal 0 1 0
    outer loop
      vertex 25 -5.3 15.8802
      vertex 17 -5.3 10
      vertex 17 -5.3 15.8802
    endloop
  endfacet
  facet normal 0 1 -0
    outer loop
      vertex -18.4308 -5.3 5.50988
      vertex -20 -5.3 10
      vertex 17 -5.3 10
    endloop
  endfacet
  facet normal -0 1 0
    outer loop
      vertex -20 -5.3 6.65
      vertex -20 -5.3 10
      vertex -19.0302 -5.3 6.33488
    endloop
  endfacet
  facet normal 0 1 0
    outer loop
      vertex -20 -5.3 10
      vertex -20 -5.3 6.65
      vertex -21.9134 -5.3 9.6194
    endloop
  endfacet
  facet normal 0 1 0
    outer loop
      vertex -21.9134 -5.3 9.6194
      vertex -20.9698 -5.3 6.33488
      vertex -23.5355 -5.3 8.53553
    endloop
  endfacet
  facet normal 0 1 -0
    outer loop
      vertex -20.9698 -5.3 6.33488
      vertex -21.9134 -5.3 9.6194
      vertex -20 -5.3 6.65
    endloop
  endfacet
  facet normal 0 1 0
    outer loop
      vertex -20 -5.3 10
      vertex -18.4308 -5.3 5.50988
      vertex -19.0302 -5.3 6.33488
    endloop
  endfacet
  facet normal 0 1 0
    outer loop
      vertex 17 -5.3 10
      vertex -18.4308 -5.3 4.49012
      vertex -18.4308 -5.3 5.50988
    endloop
  endfacet
  facet normal 0 1 0
    outer loop
      vertex -20 -5.3 0
      vertex -18.4308 -5.3 4.49012
      vertex 17 -5.3 10
    endloop
  endfacet
  facet normal 0 1 0
    outer loop
      vertex -18.4308 -5.3 4.49012
      vertex -20 -5.3 0
      vertex -19.0302 -5.3 3.66512
    endloop
  endfacet
  facet normal 0 1 0
    outer loop
      vertex -21.5692 -5.3 4.49012
      vertex -23.5355 -5.3 1.46447
      vertex -24.6194 -5.3 3.08658
    endloop
  endfacet
  facet normal 0 1 0
    outer loop
      vertex -19.0302 -5.3 3.66512
      vertex -20 -5.3 0
      vertex -20 -5.3 3.35
    endloop
  endfacet
  facet normal -0 1 0
    outer loop
      vertex -21.9134 -5.3 0.380603
      vertex -20 -5.3 3.35
      vertex -20 -5.3 0
    endloop
  endfacet
  facet normal 0 1 -0
    outer loop
      vertex 25 -5.3 0
      vertex 17 -5.3 10
      vertex 25 -5.3 15.8802
    endloop
  endfacet
  facet normal 0 1 0
    outer loop
      vertex -20 -5.3 0
      vertex 17 -5.3 10
      vertex 25 -5.3 0
    endloop
  endfacet
  facet normal 0 1 0
    outer loop
      vertex -20.9698 -5.3 3.66512
      vertex -21.9134 -5.3 0.380603
      vertex -23.5355 -5.3 1.46447
    endloop
  endfacet
  facet normal 0 1 -0
    outer loop
      vertex -21.5692 -5.3 5.50988
      vertex -23.5355 -5.3 8.53553
      vertex -20.9698 -5.3 6.33488
    endloop
  endfacet
  facet normal 0 1 0
    outer loop
      vertex -23.5355 -5.3 8.53553
      vertex -21.5692 -5.3 5.50988
      vertex -24.6194 -5.3 6.91342
    endloop
  endfacet
  facet normal 0 1 0
    outer loop
      vertex -21.5692 -5.3 5.50988
      vertex -25 -5.3 5
      vertex -24.6194 -5.3 6.91342
    endloop
  endfacet
  facet normal 0 1 -0
    outer loop
      vertex -21.5692 -5.3 4.49012
      vertex -25 -5.3 5
      vertex -21.5692 -5.3 5.50988
    endloop
  endfacet
  facet normal 0 1 0
    outer loop
      vertex -23.5355 -5.3 1.46447
      vertex -21.5692 -5.3 4.49012
      vertex -20.9698 -5.3 3.66512
    endloop
  endfacet
  facet normal 0 1 0
    outer loop
      vertex -21.5692 -5.3 4.49012
      vertex -24.6194 -5.3 3.08658
      vertex -25 -5.3 5
    endloop
  endfacet
  facet normal 0 1 0
    outer loop
      vertex -21.9134 -5.3 0.380603
      vertex -20.9698 -5.3 3.66512
      vertex -20 -5.3 3.35
    endloop
  endfacet
  facet normal -0.83147 0 -0.55557
    outer loop
      vertex -23.5355 -7.3 1.46447
      vertex -24.6194 -5.3 3.08658
      vertex -23.5355 -5.3 1.46447
    endloop
  endfacet
  facet normal -0.83147 -0 -0.55557
    outer loop
      vertex -24.6194 -5.3 3.08658
      vertex -23.5355 -7.3 1.46447
      vertex -24.6194 -7.3 3.08658
    endloop
  endfacet
  facet normal 0 0 1
    outer loop
      vertex 17 -5.3 10
      vertex -5 -7.3 10
      vertex 17 -7.3 10
    endloop
  endfacet
  facet normal 0 0 1
    outer loop
      vertex -5 -7.3 10
      vertex -8 -7.3 10
      vertex -5 -12.7 10
    endloop
  endfacet
  facet normal -0 0 1
    outer loop
      vertex -20 -5.3 10
      vertex -5 -7.3 10
      vertex 17 -5.3 10
    endloop
  endfacet
  facet normal 0 0 1
    outer loop
      vertex -5 -7.3 10
      vertex -20 -5.3 10
      vertex -8 -7.3 10
    endloop
  endfacet
  facet normal 0 0 1
    outer loop
      vertex -8 -7.3 10
      vertex -20 -5.3 10
      vertex -20 -7.3 10
    endloop
  endfacet
  facet normal -0 0 1
    outer loop
      vertex -5 -12.7 10
      vertex 17 -14.7 10
      vertex 17 -12.7 10
    endloop
  endfacet
  facet normal 0 0 1
    outer loop
      vertex -8 -12.7 10
      vertex -5 -12.7 10
      vertex -8 -7.3 10
    endloop
  endfacet
  facet normal 0 0 1
    outer loop
      vertex -20 -14.7 10
      vertex -5 -12.7 10
      vertex -8 -12.7 10
    endloop
  endfacet
  facet normal 0 0 1
    outer loop
      vertex -20 -14.7 10
      vertex -8 -12.7 10
      vertex -20 -12.7 10
    endloop
  endfacet
  facet normal 0 0 1
    outer loop
      vertex -5 -12.7 10
      vertex -20 -14.7 10
      vertex 17 -14.7 10
    endloop
  endfacet
  facet normal 0 0 -1
    outer loop
      vertex 25 -14.7 0
      vertex 22 -12.75 0
      vertex 25 -5.3 0
    endloop
  endfacet
  facet normal 0 0 -1
    outer loop
      vertex 25 -14.7 0
      vertex 20 -12.75 0
      vertex 22 -12.75 0
    endloop
  endfacet
  facet normal 0 0 -1
    outer loop
      vertex 20 -12.75 0
      vertex 17 -12.7 0
      vertex 20 -7.25 0
    endloop
  endfacet
  facet normal 0 0 -1
    outer loop
      vertex 25 -14.7 0
      vertex 17 -12.7 0
      vertex 20 -12.75 0
    endloop
  endfacet
  facet normal 0 0 -1
    outer loop
      vertex 25 -14.7 0
      vertex -5 -12.7 0
      vertex 17 -12.7 0
    endloop
  endfacet
  facet normal 0 0 -1
    outer loop
      vertex -5 -12.7 0
      vertex -8 -12.7 0
      vertex -5 -7.3 0
    endloop
  endfacet
  facet normal 0 0 -1
    outer loop
      vertex -20 -14.7 0
      vertex -5 -12.7 0
      vertex 25 -14.7 0
    endloop
  endfacet
  facet normal -0 0 -1
    outer loop
      vertex -5 -12.7 0
      vertex -20 -14.7 0
      vertex -8 -12.7 0
    endloop
  endfacet
  facet normal -0 0 -1
    outer loop
      vertex -8 -12.7 0
      vertex -20 -14.7 0
      vertex -20 -12.7 0
    endloop
  endfacet
  facet normal 0 0 -1
    outer loop
      vertex 22 -7.25 0
      vertex 25 -5.3 0
      vertex 22 -12.75 0
    endloop
  endfacet
  facet normal 0 0 -1
    outer loop
      vertex 20 -7.25 0
      vertex 25 -5.3 0
      vertex 22 -7.25 0
    endloop
  endfacet
  facet normal 0 0 -1
    outer loop
      vertex 17 -7.3 0
      vertex 20 -7.25 0
      vertex 17 -12.7 0
    endloop
  endfacet
  facet normal 0 0 -1
    outer loop
      vertex 17 -7.3 0
      vertex 25 -5.3 0
      vertex 20 -7.25 0
    endloop
  endfacet
  facet normal 0 0 -1
    outer loop
      vertex -5 -7.3 0
      vertex 25 -5.3 0
      vertex 17 -7.3 0
    endloop
  endfacet
  facet normal 0 0 -1
    outer loop
      vertex -8 -7.3 0
      vertex -5 -7.3 0
      vertex -8 -12.7 0
    endloop
  endfacet
  facet normal 0 0 -1
    outer loop
      vertex -20 -5.3 0
      vertex -5 -7.3 0
      vertex -8 -7.3 0
    endloop
  endfacet
  facet normal 0 0 -1
    outer loop
      vertex -20 -5.3 0
      vertex -8 -7.3 0
      vertex -20 -7.3 0
    endloop
  endfacet
  facet normal 0 0 -1
    outer loop
      vertex -5 -7.3 0
      vertex -20 -5.3 0
      vertex 25 -5.3 0
    endloop
  endfacet
  facet normal 1 0 0
    outer loop
      vertex 25 -8.70557 5.94046
      vertex 25 -5.3 15.8802
      vertex 25 -8.70557 12.0595
    endloop
  endfacet
  facet normal 1 0 0
    outer loop
      vertex 25 -5.3 15.8802
      vertex 25 -8.70557 5.94046
      vertex 25 -8.4 5
    endloop
  endfacet
  facet normal 1 -0 0
    outer loop
      vertex 25 -9.50557 11.4783
      vertex 25 -8.70557 5.94046
      vertex 25 -8.70557 12.0595
    endloop
  endfacet
  facet normal 1 0 0
    outer loop
      vertex 25 -9.50557 11.4783
      vertex 25 -9.50557 6.52169
      vertex 25 -8.70557 5.94046
    endloop
  endfacet
  facet normal 1 -0 0
    outer loop
      vertex 25 -10.4944 11.4783
      vertex 25 -9.50557 6.52169
      vertex 25 -9.50557 11.4783
    endloop
  endfacet
  facet normal 1 0 0
    outer loop
      vertex 25 -10.4944 11.4783
      vertex 25 -10.4944 6.52169
      vertex 25 -9.50557 6.52169
    endloop
  endfacet
  facet normal 1 0 0
    outer loop
      vertex 25 -11.2944 12.0595
      vertex 25 -10.4944 6.52169
      vertex 25 -10.4944 11.4783
    endloop
  endfacet
  facet normal 1 0 0
    outer loop
      vertex 25 -11.2944 12.0595
      vertex 25 -11.2944 5.94046
      vertex 25 -10.4944 6.52169
    endloop
  endfacet
  facet normal 1 0 0
    outer loop
      vertex 25 -14.7 15.8802
      vertex 25 -11.2944 12.0595
      vertex 25 -11.6 13
    endloop
  endfacet
  facet normal 1 0 0
    outer loop
      vertex 25 -11.2944 12.0595
      vertex 25 -14.7 15.8802
      vertex 25 -11.2944 5.94046
    endloop
  endfacet
  facet normal 1 0 0
    outer loop
      vertex 25 -5.3 15.8802
      vertex 25 -8.70557 13.9405
      vertex 25 -8.4 13
    endloop
  endfacet
  facet normal 1 0 0
    outer loop
      vertex 25 -5.3 15.8802
      vertex 25 -9.50557 14.5217
      vertex 25 -8.70557 13.9405
    endloop
  endfacet
  facet normal 1 0 0
    outer loop
      vertex 25 -8.21985 18.8
      vertex 25 -10.4944 14.5217
      vertex 25 -9.50557 14.5217
    endloop
  endfacet
  facet normal 1 -0 0
    outer loop
      vertex 25 -11.7802 18.8
      vertex 25 -10.4944 14.5217
      vertex 25 -8.21985 18.8
    endloop
  endfacet
  facet normal 1 0 0
    outer loop
      vertex 25 -11.2944 13.9405
      vertex 25 -14.7 15.8802
      vertex 25 -11.6 13
    endloop
  endfacet
  facet normal 1 0 0
    outer loop
      vertex 25 -10.4944 14.5217
      vertex 25 -14.7 15.8802
      vertex 25 -11.2944 13.9405
    endloop
  endfacet
  facet normal 1 -0 0
    outer loop
      vertex 25 -14.7 15.8802
      vertex 25 -10.4944 14.5217
      vertex 25 -11.7802 18.8
    endloop
  endfacet
  facet normal 1 0 0
    outer loop
      vertex 25 -9.50557 14.5217
      vertex 25 -5.3 15.8802
      vertex 25 -8.21985 18.8
    endloop
  endfacet
  facet normal 1 0 0
    outer loop
      vertex 25 -8.70557 12.0595
      vertex 25 -5.3 15.8802
      vertex 25 -8.4 13
    endloop
  endfacet
  facet normal 1 0 0
    outer loop
      vertex 25 -5.3 15.8802
      vertex 25 -8.4 5
      vertex 25 -5.3 0
    endloop
  endfacet
  facet normal 1 -0 0
    outer loop
      vertex 25 -8.70557 4.05954
      vertex 25 -5.3 0
      vertex 25 -8.4 5
    endloop
  endfacet
  facet normal 1 -0 0
    outer loop
      vertex 25 -9.50557 3.47831
      vertex 25 -5.3 0
      vertex 25 -8.70557 4.05954
    endloop
  endfacet
  facet normal 1 -0 0
    outer loop
      vertex 25 -10.4944 3.47831
      vertex 25 -5.3 0
      vertex 25 -9.50557 3.47831
    endloop
  endfacet
  facet normal 1 0 0
    outer loop
      vertex 25 -11.2944 5.94046
      vertex 25 -14.7 15.8802
      vertex 25 -11.6 5
    endloop
  endfacet
  facet normal 1 0 0
    outer loop
      vertex 25 -10.4944 3.47831
      vertex 25 -14.7 0
      vertex 25 -5.3 0
    endloop
  endfacet
  facet normal 1 0 0
    outer loop
      vertex 25 -11.2944 4.05954
      vertex 25 -14.7 0
      vertex 25 -10.4944 3.47831
    endloop
  endfacet
  facet normal 1 0 0
    outer loop
      vertex 25 -11.6 5
      vertex 25 -14.7 0
      vertex 25 -11.2944 4.05954
    endloop
  endfacet
  facet normal 1 0 0
    outer loop
      vertex 25 -14.7 0
      vertex 25 -11.6 5
      vertex 25 -14.7 15.8802
    endloop
  endfacet
  facet normal -0.195091 0 -0.980785
    outer loop
      vertex -21.9134 -14.7 0.380603
      vertex -20 -12.7 0
      vertex -20 -14.7 0
    endloop
  endfacet
  facet normal -0.195091 0 -0.980785
    outer loop
      vertex -20 -12.7 0
      vertex -21.9134 -14.7 0.380603
      vertex -21.9134 -12.7 0.380603
    endloop
  endfacet
  facet normal -0.980785 0 0.195091
    outer loop
      vertex -25 -14.7 5
      vertex -24.6194 -12.7 6.91342
      vertex -25 -12.7 5
    endloop
  endfacet
  facet normal -0.980785 0 0.195091
    outer loop
      vertex -24.6194 -12.7 6.91342
      vertex -25 -14.7 5
      vertex -24.6194 -14.7 6.91342
    endloop
  endfacet
  facet normal -0.55557 0 -0.83147
    outer loop
      vertex -23.5355 -14.7 1.46447
      vertex -21.9134 -12.7 0.380603
      vertex -21.9134 -14.7 0.380603
    endloop
  endfacet
  facet normal -0.55557 0 -0.83147
    outer loop
      vertex -21.9134 -12.7 0.380603
      vertex -23.5355 -14.7 1.46447
      vertex -23.5355 -12.7 1.46447
    endloop
  endfacet
  facet normal -0.980785 0 -0.195091
    outer loop
      vertex -24.6194 -14.7 3.08658
      vertex -25 -12.7 5
      vertex -24.6194 -12.7 3.08658
    endloop
  endfacet
  facet normal -0.980785 -0 -0.195091
    outer loop
      vertex -25 -12.7 5
      vertex -24.6194 -14.7 3.08658
      vertex -25 -14.7 5
    endloop
  endfacet
  facet normal -0.55557 0 0.83147
    outer loop
      vertex -23.5355 -12.7 8.53553
      vertex -21.9134 -14.7 9.6194
      vertex -21.9134 -12.7 9.6194
    endloop
  endfacet
  facet normal -0.55557 0 0.83147
    outer loop
      vertex -21.9134 -14.7 9.6194
      vertex -23.5355 -12.7 8.53553
      vertex -23.5355 -14.7 8.53553
    endloop
  endfacet
  facet normal -0.195091 0 0.980785
    outer loop
      vertex -21.9134 -12.7 9.6194
      vertex -20 -14.7 10
      vertex -20 -12.7 10
    endloop
  endfacet
  facet normal -0.195091 0 0.980785
    outer loop
      vertex -20 -14.7 10
      vertex -21.9134 -12.7 9.6194
      vertex -21.9134 -14.7 9.6194
    endloop
  endfacet
  facet normal -0.83147 0 0.55557
    outer loop
      vertex -24.6194 -14.7 6.91342
      vertex -23.5355 -12.7 8.53553
      vertex -24.6194 -12.7 6.91342
    endloop
  endfacet
  facet normal -0.83147 0 0.55557
    outer loop
      vertex -23.5355 -12.7 8.53553
      vertex -24.6194 -14.7 6.91342
      vertex -23.5355 -14.7 8.53553
    endloop
  endfacet
  facet normal 0 1 -0
    outer loop
      vertex -19.0302 -12.7 6.33488
      vertex -20 -12.7 10
      vertex -8 -12.7 10
    endloop
  endfacet
  facet normal -0 1 0
    outer loop
      vertex -20 -12.7 6.65
      vertex -20 -12.7 10
      vertex -19.0302 -12.7 6.33488
    endloop
  endfacet
  facet normal 0 1 -0
    outer loop
      vertex -20.9698 -12.7 6.33488
      vertex -21.9134 -12.7 9.6194
      vertex -20 -12.7 6.65
    endloop
  endfacet
  facet normal 0 1 0
    outer loop
      vertex -21.9134 -12.7 9.6194
      vertex -20.9698 -12.7 6.33488
      vertex -23.5355 -12.7 8.53553
    endloop
  endfacet
  facet normal 0 1 0
    outer loop
      vertex -20 -12.7 10
      vertex -20 -12.7 6.65
      vertex -21.9134 -12.7 9.6194
    endloop
  endfacet
  facet normal 0 1 0
    outer loop
      vertex -8 -12.7 10
      vertex -18.4308 -12.7 5.50988
      vertex -19.0302 -12.7 6.33488
    endloop
  endfacet
  facet normal 0 1 0
    outer loop
      vertex -8 -12.7 10
      vertex -18.4308 -12.7 4.49012
      vertex -18.4308 -12.7 5.50988
    endloop
  endfacet
  facet normal 0 1 -0
    outer loop
      vertex -8 -12.7 0
      vertex -18.4308 -12.7 4.49012
      vertex -8 -12.7 10
    endloop
  endfacet
  facet normal 0 1 0
    outer loop
      vertex -21.5692 -12.7 4.49012
      vertex -23.5355 -12.7 1.46447
      vertex -24.6194 -12.7 3.08658
    endloop
  endfacet
  facet normal 0 1 0
    outer loop
      vertex -20 -12.7 0
      vertex -20 -12.7 3.35
      vertex -19.0302 -12.7 3.66512
    endloop
  endfacet
  facet normal 0 1 0
    outer loop
      vertex -20.9698 -12.7 3.66512
      vertex -21.9134 -12.7 0.380603
      vertex -23.5355 -12.7 1.46447
    endloop
  endfacet
  facet normal 0 1 0
    outer loop
      vertex -18.4308 -12.7 4.49012
      vertex -8 -12.7 0
      vertex -19.0302 -12.7 3.66512
    endloop
  endfacet
  facet normal 0 1 0
    outer loop
      vertex -19.0302 -12.7 3.66512
      vertex -8 -12.7 0
      vertex -20 -12.7 0
    endloop
  endfacet
  facet normal 0 1 0
    outer loop
      vertex -20 -12.7 3.35
      vertex -20 -12.7 0
      vertex -21.9134 -12.7 0.380603
    endloop
  endfacet
  facet normal 0 1 -0
    outer loop
      vertex -21.5692 -12.7 5.50988
      vertex -23.5355 -12.7 8.53553
      vertex -20.9698 -12.7 6.33488
    endloop
  endfacet
  facet normal 0 1 0
    outer loop
      vertex -23.5355 -12.7 8.53553
      vertex -21.5692 -12.7 5.50988
      vertex -24.6194 -12.7 6.91342
    endloop
  endfacet
  facet normal 0 1 0
    outer loop
      vertex -21.5692 -12.7 5.50988
      vertex -25 -12.7 5
      vertex -24.6194 -12.7 6.91342
    endloop
  endfacet
  facet normal 0 1 -0
    outer loop
      vertex -21.5692 -12.7 4.49012
      vertex -25 -12.7 5
      vertex -21.5692 -12.7 5.50988
    endloop
  endfacet
  facet normal 0 1 0
    outer loop
      vertex -23.5355 -12.7 1.46447
      vertex -21.5692 -12.7 4.49012
      vertex -20.9698 -12.7 3.66512
    endloop
  endfacet
  facet normal 0 1 0
    outer loop
      vertex -21.5692 -12.7 4.49012
      vertex -24.6194 -12.7 3.08658
      vertex -25 -12.7 5
    endloop
  endfacet
  facet normal 0 1 0
    outer loop
      vertex -21.9134 -12.7 0.380603
      vertex -20.9698 -12.7 3.66512
      vertex -20 -12.7 3.35
    endloop
  endfacet
  facet normal 0 1 -0
    outer loop
      vertex 17 -12.7 0
      vertex -5 -12.7 10
      vertex 17 -12.7 10
    endloop
  endfacet
  facet normal 0 1 0
    outer loop
      vertex -5 -12.7 10
      vertex 17 -12.7 0
      vertex -5 -12.7 0
    endloop
  endfacet
  facet normal 0 -1 0
    outer loop
      vertex -20 -14.7 6.65
      vertex -20 -14.7 10
      vertex -21.9134 -14.7 9.6194
    endloop
  endfacet
  facet normal 0 -1 0
    outer loop
      vertex 17 -14.7 10
      vertex 25 -14.7 15.8802
      vertex 17 -14.7 15.8802
    endloop
  endfacet
  facet normal 0 -1 0
    outer loop
      vertex -20.9698 -14.7 6.33488
      vertex -21.9134 -14.7 9.6194
      vertex -23.5355 -14.7 8.53553
    endloop
  endfacet
  facet normal 0 -1 0
    outer loop
      vertex -21.5692 -14.7 5.50988
      vertex -23.5355 -14.7 8.53553
      vertex -24.6194 -14.7 6.91342
    endloop
  endfacet
  facet normal 0 -1 0
    outer loop
      vertex -20 -14.7 10
      vertex -20 -14.7 6.65
      vertex -19.0302 -14.7 6.33488
    endloop
  endfacet
  facet normal 0 -1 0
    outer loop
      vertex -18.4308 -14.7 5.50988
      vertex -20 -14.7 10
      vertex -19.0302 -14.7 6.33488
    endloop
  endfacet
  facet normal 0 -1 0
    outer loop
      vertex -20 -14.7 10
      vertex -18.4308 -14.7 5.50988
      vertex 17 -14.7 10
    endloop
  endfacet
  facet normal 0 -1 0
    outer loop
      vertex -18.4308 -14.7 4.49012
      vertex 17 -14.7 10
      vertex -18.4308 -14.7 5.50988
    endloop
  endfacet
  facet normal 0 -1 0
    outer loop
      vertex -20 -14.7 0
      vertex -18.4308 -14.7 4.49012
      vertex -19.0302 -14.7 3.66512
    endloop
  endfacet
  facet normal 0 -1 0
    outer loop
      vertex -20 -14.7 0
      vertex -19.0302 -14.7 3.66512
      vertex -20 -14.7 3.35
    endloop
  endfacet
  facet normal 0 -1 0
    outer loop
      vertex -21.9134 -14.7 0.380603
      vertex -20.9698 -14.7 3.66512
      vertex -23.5355 -14.7 1.46447
    endloop
  endfacet
  facet normal 0 -1 -0
    outer loop
      vertex -20.9698 -14.7 3.66512
      vertex -21.9134 -14.7 0.380603
      vertex -20 -14.7 3.35
    endloop
  endfacet
  facet normal 0 -1 -0
    outer loop
      vertex -20 -14.7 3.35
      vertex -21.9134 -14.7 0.380603
      vertex -20 -14.7 0
    endloop
  endfacet
  facet normal 0 -1 -0
    outer loop
      vertex -18.4308 -14.7 4.49012
      vertex -20 -14.7 0
      vertex 17 -14.7 10
    endloop
  endfacet
  facet normal 0 -1 0
    outer loop
      vertex 17 -14.7 10
      vertex 25 -14.7 0
      vertex 25 -14.7 15.8802
    endloop
  endfacet
  facet normal 0 -1 0
    outer loop
      vertex 25 -14.7 0
      vertex 17 -14.7 10
      vertex -20 -14.7 0
    endloop
  endfacet
  facet normal 0 -1 0
    outer loop
      vertex -21.9134 -14.7 9.6194
      vertex -20.9698 -14.7 6.33488
      vertex -20 -14.7 6.65
    endloop
  endfacet
  facet normal 0 -1 0
    outer loop
      vertex -23.5355 -14.7 8.53553
      vertex -21.5692 -14.7 5.50988
      vertex -20.9698 -14.7 6.33488
    endloop
  endfacet
  facet normal 0 -1 0
    outer loop
      vertex -25 -14.7 5
      vertex -21.5692 -14.7 5.50988
      vertex -24.6194 -14.7 6.91342
    endloop
  endfacet
  facet normal 0 -1 0
    outer loop
      vertex -25 -14.7 5
      vertex -21.5692 -14.7 4.49012
      vertex -21.5692 -14.7 5.50988
    endloop
  endfacet
  facet normal 0 -1 0
    outer loop
      vertex -24.6194 -14.7 3.08658
      vertex -21.5692 -14.7 4.49012
      vertex -25 -14.7 5
    endloop
  endfacet
  facet normal 0 -1 -0
    outer loop
      vertex -21.5692 -14.7 4.49012
      vertex -23.5355 -14.7 1.46447
      vertex -20.9698 -14.7 3.66512
    endloop
  endfacet
  facet normal 0 -1 0
    outer loop
      vertex -23.5355 -14.7 1.46447
      vertex -21.5692 -14.7 4.49012
      vertex -24.6194 -14.7 3.08658
    endloop
  endfacet
  facet normal -0.83147 0 -0.55557
    outer loop
      vertex -23.5355 -14.7 1.46447
      vertex -24.6194 -12.7 3.08658
      vertex -23.5355 -12.7 1.46447
    endloop
  endfacet
  facet normal -0.83147 -0 -0.55557
    outer loop
      vertex -24.6194 -12.7 3.08658
      vertex -23.5355 -14.7 1.46447
      vertex -24.6194 -14.7 3.08658
    endloop
  endfacet
  facet normal -0 0 1
    outer loop
      vertex 17 -8.21985 18.8
      vertex 25 -11.7802 18.8
      vertex 25 -8.21985 18.8
    endloop
  endfacet
  facet normal 0 0 1
    outer loop
      vertex 25 -11.7802 18.8
      vertex 17 -8.21985 18.8
      vertex 17 -11.7802 18.8
    endloop
  endfacet
  facet normal -1 0 0
    outer loop
      vertex 17 -9.50557 6.52169
      vertex 17 -7.3 10
      vertex 17 -8.70557 5.94046
    endloop
  endfacet
  facet normal -1 0 0
    outer loop
      vertex 17 -7.3 10
      vertex 17 -8.70557 12.0595
      vertex 17 -8.4 13
    endloop
  endfacet
  facet normal -1 0 0
    outer loop
      vertex 17 -9.50557 11.4783
      vertex 17 -7.3 10
      vertex 17 -9.50557 6.52169
    endloop
  endfacet
  facet normal -1 0 0
    outer loop
      vertex 17 -7.3 10
      vertex 17 -9.50557 11.4783
      vertex 17 -8.70557 12.0595
    endloop
  endfacet
  facet normal -1 0 0
    outer loop
      vertex 17 -10.4944 6.52169
      vertex 17 -9.50557 11.4783
      vertex 17 -9.50557 6.52169
    endloop
  endfacet
  facet normal -1 0 0
    outer loop
      vertex 17 -10.4944 6.52169
      vertex 17 -10.4944 11.4783
      vertex 17 -9.50557 11.4783
    endloop
  endfacet
  facet normal -1 0 0
    outer loop
      vertex 17 -12.7 10
      vertex 17 -10.4944 6.52169
      vertex 17 -11.2944 5.94046
    endloop
  endfacet
  facet normal -1 0 0
    outer loop
      vertex 17 -10.4944 6.52169
      vertex 17 -12.7 10
      vertex 17 -10.4944 11.4783
    endloop
  endfacet
  facet normal -1 0 0
    outer loop
      vertex 17 -12.7 10
      vertex 17 -11.2944 5.94046
      vertex 17 -11.6 5
    endloop
  endfacet
  facet normal -1 -0 0
    outer loop
      vertex 17 -10.4944 11.4783
      vertex 17 -12.7 10
      vertex 17 -11.2944 12.0595
    endloop
  endfacet
  facet normal -1 0 0
    outer loop
      vertex 17 -8.4 5
      vertex 17 -7.3 10
      vertex 17 -7.3 0
    endloop
  endfacet
  facet normal -1 0 0
    outer loop
      vertex 17 -8.70557 5.94046
      vertex 17 -7.3 10
      vertex 17 -8.4 5
    endloop
  endfacet
  facet normal -1 0 0
    outer loop
      vertex 17 -7.3 0
      vertex 17 -8.70557 4.05954
      vertex 17 -8.4 5
    endloop
  endfacet
  facet normal -1 0 0
    outer loop
      vertex 17 -7.3 0
      vertex 17 -9.50557 3.47831
      vertex 17 -8.70557 4.05954
    endloop
  endfacet
  facet normal -1 0 0
    outer loop
      vertex 17 -7.3 0
      vertex 17 -10.4944 3.47831
      vertex 17 -9.50557 3.47831
    endloop
  endfacet
  facet normal -1 0 0
    outer loop
      vertex 17 -12.7 0
      vertex 17 -10.4944 3.47831
      vertex 17 -7.3 0
    endloop
  endfacet
  facet normal -1 -0 0
    outer loop
      vertex 17 -11.2944 12.0595
      vertex 17 -12.7 10
      vertex 17 -11.6 13
    endloop
  endfacet
  facet normal -1 -0 0
    outer loop
      vertex 17 -10.4944 3.47831
      vertex 17 -12.7 0
      vertex 17 -11.2944 4.05954
    endloop
  endfacet
  facet normal -1 0 0
    outer loop
      vertex 17 -12.7 0
      vertex 17 -11.6 5
      vertex 17 -11.2944 4.05954
    endloop
  endfacet
  facet normal -1 0 0
    outer loop
      vertex 17 -12.7 10
      vertex 17 -11.6 5
      vertex 17 -12.7 0
    endloop
  endfacet
  facet normal -1 0 0
    outer loop
      vertex 17 -14.7 10
      vertex 17 -11.6 13
      vertex 17 -12.7 10
    endloop
  endfacet
  facet normal -1 -0 0
    outer loop
      vertex 17 -11.6 13
      vertex 17 -14.7 10
      vertex 17 -14.7 15.8802
    endloop
  endfacet
  facet normal -1 0 0
    outer loop
      vertex 17 -11.6 13
      vertex 17 -14.7 15.8802
      vertex 17 -11.7802 18.8
    endloop
  endfacet
  facet normal -1 0 0
    outer loop
      vertex 17 -7.3 10
      vertex 17 -5.3 15.8802
      vertex 17 -5.3 10
    endloop
  endfacet
  facet normal -1 -0 0
    outer loop
      vertex 17 -5.3 15.8802
      vertex 17 -7.3 10
      vertex 17 -8.21985 18.8
    endloop
  endfacet
  facet normal -1 0 0
    outer loop
      vertex 17 -7.3 10
      vertex 17 -8.4 13
      vertex 17 -8.21985 18.8
    endloop
  endfacet
  facet normal -1 0 0
    outer loop
      vertex 17 -8.70557 13.9405
      vertex 17 -8.21985 18.8
      vertex 17 -8.4 13
    endloop
  endfacet
  facet normal -1 0 0
    outer loop
      vertex 17 -9.50557 14.5217
      vertex 17 -8.21985 18.8
      vertex 17 -8.70557 13.9405
    endloop
  endfacet
  facet normal -1 0 0
    outer loop
      vertex 17 -10.4944 14.5217
      vertex 17 -8.21985 18.8
      vertex 17 -9.50557 14.5217
    endloop
  endfacet
  facet normal -1 0 0
    outer loop
      vertex 17 -11.7802 18.8
      vertex 17 -10.4944 14.5217
      vertex 17 -11.2944 13.9405
    endloop
  endfacet
  facet normal -1 0 0
    outer loop
      vertex 17 -10.4944 14.5217
      vertex 17 -11.7802 18.8
      vertex 17 -8.21985 18.8
    endloop
  endfacet
  facet normal -1 0 0
    outer loop
      vertex 17 -11.7802 18.8
      vertex 17 -11.2944 13.9405
      vertex 17 -11.6 13
    endloop
  endfacet
  facet normal -1 0 0
    outer loop
      vertex -8 -12.7 0
      vertex -8 -7.3 10
      vertex -8 -7.3 0
    endloop
  endfacet
  facet normal -1 -0 0
    outer loop
      vertex -8 -7.3 10
      vertex -8 -12.7 0
      vertex -8 -12.7 10
    endloop
  endfacet
  facet normal 1 -0 0
    outer loop
      vertex -5 -12.7 10
      vertex -5 -7.3 0
      vertex -5 -7.3 10
    endloop
  endfacet
  facet normal 1 0 0
    outer loop
      vertex -5 -7.3 0
      vertex -5 -12.7 10
      vertex -5 -12.7 0
    endloop
  endfacet
  facet normal 0 -0.951057 -0.309017
    outer loop
      vertex 22 -8.4 5
      vertex 25 -8.70557 5.94046
      vertex 22 -8.70557 5.94046
    endloop
  endfacet
  facet normal 0 -0.951057 -0.309017
    outer loop
      vertex 25 -8.70557 5.94046
      vertex 22 -8.4 5
      vertex 25 -8.4 5
    endloop
  endfacet
  facet normal 0 -0.951057 -0.309017
    outer loop
      vertex 17 -8.4 5
      vertex 20 -8.70557 5.94046
      vertex 17 -8.70557 5.94046
    endloop
  endfacet
  facet normal 0 -0.951057 -0.309017
    outer loop
      vertex 20 -8.70557 5.94046
      vertex 17 -8.4 5
      vertex 20 -8.4 5
    endloop
  endfacet
  facet normal 0 -0.587785 -0.809017
    outer loop
      vertex 22 -9.50557 6.52169
      vertex 25 -8.70557 5.94046
      vertex 25 -9.50557 6.52169
    endloop
  endfacet
  facet normal -0 -0.587785 -0.809017
    outer loop
      vertex 25 -8.70557 5.94046
      vertex 22 -9.50557 6.52169
      vertex 22 -8.70557 5.94046
    endloop
  endfacet
  facet normal 0 -0.587785 -0.809017
    outer loop
      vertex 17 -9.50557 6.52169
      vertex 20 -8.70557 5.94046
      vertex 20 -9.50557 6.52169
    endloop
  endfacet
  facet normal -0 -0.587785 -0.809017
    outer loop
      vertex 20 -8.70557 5.94046
      vertex 17 -9.50557 6.52169
      vertex 17 -8.70557 5.94046
    endloop
  endfacet
  facet normal 0 0.951057 -0.309017
    outer loop
      vertex 25 -11.6 5
      vertex 22 -11.2944 5.94046
      vertex 25 -11.2944 5.94046
    endloop
  endfacet
  facet normal 0 0.951057 -0.309017
    outer loop
      vertex 22 -11.2944 5.94046
      vertex 25 -11.6 5
      vertex 22 -11.6 5
    endloop
  endfacet
  facet normal 0 0.951057 -0.309017
    outer loop
      vertex 20 -11.6 5
      vertex 17 -11.2944 5.94046
      vertex 20 -11.2944 5.94046
    endloop
  endfacet
  facet normal 0 0.951057 -0.309017
    outer loop
      vertex 17 -11.2944 5.94046
      vertex 20 -11.6 5
      vertex 17 -11.6 5
    endloop
  endfacet
  facet normal 0 0 -1
    outer loop
      vertex 22 -10.4944 6.52169
      vertex 25 -9.50557 6.52169
      vertex 25 -10.4944 6.52169
    endloop
  endfacet
  facet normal -0 0 -1
    outer loop
      vertex 25 -9.50557 6.52169
      vertex 22 -10.4944 6.52169
      vertex 22 -9.50557 6.52169
    endloop
  endfacet
  facet normal 0 0 -1
    outer loop
      vertex 17 -10.4944 6.52169
      vertex 20 -9.50557 6.52169
      vertex 20 -10.4944 6.52169
    endloop
  endfacet
  facet normal -0 0 -1
    outer loop
      vertex 20 -9.50557 6.52169
      vertex 17 -10.4944 6.52169
      vertex 17 -9.50557 6.52169
    endloop
  endfacet
  facet normal -0 0 1
    outer loop
      vertex 22 -9.50557 3.47831
      vertex 25 -10.4944 3.47831
      vertex 25 -9.50557 3.47831
    endloop
  endfacet
  facet normal 0 0 1
    outer loop
      vertex 25 -10.4944 3.47831
      vertex 22 -9.50557 3.47831
      vertex 22 -10.4944 3.47831
    endloop
  endfacet
  facet normal -0 0 1
    outer loop
      vertex 17 -9.50557 3.47831
      vertex 20 -10.4944 3.47831
      vertex 20 -9.50557 3.47831
    endloop
  endfacet
  facet normal 0 0 1
    outer loop
      vertex 20 -10.4944 3.47831
      vertex 17 -9.50557 3.47831
      vertex 17 -10.4944 3.47831
    endloop
  endfacet
  facet normal 0 0.587785 -0.809017
    outer loop
      vertex 22 -11.2944 5.94046
      vertex 25 -10.4944 6.52169
      vertex 25 -11.2944 5.94046
    endloop
  endfacet
  facet normal 0 0.587785 -0.809017
    outer loop
      vertex 25 -10.4944 6.52169
      vertex 22 -11.2944 5.94046
      vertex 22 -10.4944 6.52169
    endloop
  endfacet
  facet normal 0 0.587785 -0.809017
    outer loop
      vertex 17 -11.2944 5.94046
      vertex 20 -10.4944 6.52169
      vertex 20 -11.2944 5.94046
    endloop
  endfacet
  facet normal 0 0.587785 -0.809017
    outer loop
      vertex 20 -10.4944 6.52169
      vertex 17 -11.2944 5.94046
      vertex 17 -10.4944 6.52169
    endloop
  endfacet
  facet normal 0 0.951057 0.309017
    outer loop
      vertex 25 -11.2944 4.05954
      vertex 22 -11.6 5
      vertex 25 -11.6 5
    endloop
  endfacet
  facet normal 0 0.951057 0.309017
    outer loop
      vertex 22 -11.6 5
      vertex 25 -11.2944 4.05954
      vertex 22 -11.2944 4.05954
    endloop
  endfacet
  facet normal 0 0.951057 0.309017
    outer loop
      vertex 20 -11.2944 4.05954
      vertex 17 -11.6 5
      vertex 20 -11.6 5
    endloop
  endfacet
  facet normal 0 0.951057 0.309017
    outer loop
      vertex 17 -11.6 5
      vertex 20 -11.2944 4.05954
      vertex 17 -11.2944 4.05954
    endloop
  endfacet
  facet normal -0 0.587785 0.809017
    outer loop
      vertex 22 -10.4944 3.47831
      vertex 25 -11.2944 4.05954
      vertex 25 -10.4944 3.47831
    endloop
  endfacet
  facet normal 0 0.587785 0.809017
    outer loop
      vertex 25 -11.2944 4.05954
      vertex 22 -10.4944 3.47831
      vertex 22 -11.2944 4.05954
    endloop
  endfacet
  facet normal -0 0.587785 0.809017
    outer loop
      vertex 17 -10.4944 3.47831
      vertex 20 -11.2944 4.05954
      vertex 20 -10.4944 3.47831
    endloop
  endfacet
  facet normal 0 0.587785 0.809017
    outer loop
      vertex 20 -11.2944 4.05954
      vertex 17 -10.4944 3.47831
      vertex 17 -11.2944 4.05954
    endloop
  endfacet
  facet normal 0 -0.587785 0.809017
    outer loop
      vertex 22 -8.70557 4.05954
      vertex 25 -9.50557 3.47831
      vertex 25 -8.70557 4.05954
    endloop
  endfacet
  facet normal 0 -0.587785 0.809017
    outer loop
      vertex 25 -9.50557 3.47831
      vertex 22 -8.70557 4.05954
      vertex 22 -9.50557 3.47831
    endloop
  endfacet
  facet normal 0 -0.587785 0.809017
    outer loop
      vertex 17 -8.70557 4.05954
      vertex 20 -9.50557 3.47831
      vertex 20 -8.70557 4.05954
    endloop
  endfacet
  facet normal 0 -0.587785 0.809017
    outer loop
      vertex 20 -9.50557 3.47831
      vertex 17 -8.70557 4.05954
      vertex 17 -9.50557 3.47831
    endloop
  endfacet
  facet normal 0 -0.951057 0.309017
    outer loop
      vertex 22 -8.70557 4.05954
      vertex 25 -8.4 5
      vertex 22 -8.4 5
    endloop
  endfacet
  facet normal 0 -0.951057 0.309017
    outer loop
      vertex 25 -8.4 5
      vertex 22 -8.70557 4.05954
      vertex 25 -8.70557 4.05954
    endloop
  endfacet
  facet normal 0 -0.951057 0.309017
    outer loop
      vertex 17 -8.70557 4.05954
      vertex 20 -8.4 5
      vertex 17 -8.4 5
    endloop
  endfacet
  facet normal 0 -0.951057 0.309017
    outer loop
      vertex 20 -8.4 5
      vertex 17 -8.70557 4.05954
      vertex 20 -8.70557 4.05954
    endloop
  endfacet
  facet normal 0 -0.951057 -0.309017
    outer loop
      vertex 17 -8.4 13
      vertex 25 -8.70557 13.9405
      vertex 17 -8.70557 13.9405
    endloop
  endfacet
  facet normal 0 -0.951057 -0.309017
    outer loop
      vertex 25 -8.70557 13.9405
      vertex 17 -8.4 13
      vertex 25 -8.4 13
    endloop
  endfacet
  facet normal 0 -0.587785 -0.809017
    outer loop
      vertex 17 -9.50557 14.5217
      vertex 25 -8.70557 13.9405
      vertex 25 -9.50557 14.5217
    endloop
  endfacet
  facet normal -0 -0.587785 -0.809017
    outer loop
      vertex 25 -8.70557 13.9405
      vertex 17 -9.50557 14.5217
      vertex 17 -8.70557 13.9405
    endloop
  endfacet
  facet normal 0 0.951057 -0.309017
    outer loop
      vertex 25 -11.6 13
      vertex 17 -11.2944 13.9405
      vertex 25 -11.2944 13.9405
    endloop
  endfacet
  facet normal 0 0.951057 -0.309017
    outer loop
      vertex 17 -11.2944 13.9405
      vertex 25 -11.6 13
      vertex 17 -11.6 13
    endloop
  endfacet
  facet normal 0 0.951057 0.309016
    outer loop
      vertex 25 -11.2944 12.0595
      vertex 17 -11.6 13
      vertex 25 -11.6 13
    endloop
  endfacet
  facet normal 0 0.951057 0.309016
    outer loop
      vertex 17 -11.6 13
      vertex 25 -11.2944 12.0595
      vertex 17 -11.2944 12.0595
    endloop
  endfacet
  facet normal -0 0.587785 0.809017
    outer loop
      vertex 17 -10.4944 11.4783
      vertex 25 -11.2944 12.0595
      vertex 25 -10.4944 11.4783
    endloop
  endfacet
  facet normal 0 0.587785 0.809017
    outer loop
      vertex 25 -11.2944 12.0595
      vertex 17 -10.4944 11.4783
      vertex 17 -11.2944 12.0595
    endloop
  endfacet
  facet normal -0 0 1
    outer loop
      vertex 17 -9.50557 11.4783
      vertex 25 -10.4944 11.4783
      vertex 25 -9.50557 11.4783
    endloop
  endfacet
  facet normal 0 0 1
    outer loop
      vertex 25 -10.4944 11.4783
      vertex 17 -9.50557 11.4783
      vertex 17 -10.4944 11.4783
    endloop
  endfacet
  facet normal 0 -0.587785 0.809017
    outer loop
      vertex 17 -8.70557 12.0595
      vertex 25 -9.50557 11.4783
      vertex 25 -8.70557 12.0595
    endloop
  endfacet
  facet normal 0 -0.587785 0.809017
    outer loop
      vertex 25 -9.50557 11.4783
      vertex 17 -8.70557 12.0595
      vertex 17 -9.50557 11.4783
    endloop
  endfacet
  facet normal 0 -0.951057 0.309016
    outer loop
      vertex 17 -8.70557 12.0595
      vertex 25 -8.4 13
      vertex 17 -8.4 13
    endloop
  endfacet
  facet normal 0 -0.951057 0.309016
    outer loop
      vertex 25 -8.4 13
      vertex 17 -8.70557 12.0595
      vertex 25 -8.70557 12.0595
    endloop
  endfacet
  facet normal 0 0 -1
    outer loop
      vertex 17 -10.4944 14.5217
      vertex 25 -9.50557 14.5217
      vertex 25 -10.4944 14.5217
    endloop
  endfacet
  facet normal -0 0 -1
    outer loop
      vertex 25 -9.50557 14.5217
      vertex 17 -10.4944 14.5217
      vertex 17 -9.50557 14.5217
    endloop
  endfacet
  facet normal 0 0.587785 -0.809017
    outer loop
      vertex 17 -11.2944 13.9405
      vertex 25 -10.4944 14.5217
      vertex 25 -11.2944 13.9405
    endloop
  endfacet
  facet normal 0 0.587785 -0.809017
    outer loop
      vertex 25 -10.4944 14.5217
      vertex 17 -11.2944 13.9405
      vertex 17 -10.4944 14.5217
    endloop
  endfacet
  facet normal 0 0.707107 0.707107
    outer loop
      vertex 25 -5.3 15.8802
      vertex 17 -8.21985 18.8
      vertex 25 -8.21985 18.8
    endloop
  endfacet
  facet normal 0 0.707107 0.707107
    outer loop
      vertex 17 -8.21985 18.8
      vertex 25 -5.3 15.8802
      vertex 17 -5.3 15.8802
    endloop
  endfacet
  facet normal 0 -0.707107 0.707107
    outer loop
      vertex 17 -14.7 15.8802
      vertex 25 -11.7802 18.8
      vertex 17 -11.7802 18.8
    endloop
  endfacet
  facet normal 0 -0.707107 0.707107
    outer loop
      vertex 25 -11.7802 18.8
      vertex 17 -14.7 15.8802
      vertex 25 -14.7 15.8802
    endloop
  endfacet
  facet normal 0.309017 0 0.951057
    outer loop
      vertex -20.9698 -12.7 3.66512
      vertex -20 -14.7 3.35
      vertex -20 -12.7 3.35
    endloop
  endfacet
  facet normal 0.309017 0 0.951057
    outer loop
      vertex -20 -14.7 3.35
      vertex -20.9698 -12.7 3.66512
      vertex -20.9698 -14.7 3.66512
    endloop
  endfacet
  facet normal 0.309017 0 0.951057
    outer loop
      vertex -20.9698 -5.3 3.66512
      vertex -20 -7.3 3.35
      vertex -20 -5.3 3.35
    endloop
  endfacet
  facet normal 0.309017 0 0.951057
    outer loop
      vertex -20 -7.3 3.35
      vertex -20.9698 -5.3 3.66512
      vertex -20.9698 -7.3 3.66512
    endloop
  endfacet
  facet normal -0.309017 0 -0.951057
    outer loop
      vertex -20 -14.7 6.65
      vertex -19.0302 -12.7 6.33488
      vertex -19.0302 -14.7 6.33488
    endloop
  endfacet
  facet normal -0.309017 0 -0.951057
    outer loop
      vertex -19.0302 -12.7 6.33488
      vertex -20 -14.7 6.65
      vertex -20 -12.7 6.65
    endloop
  endfacet
  facet normal -0.309016 0 -0.951057
    outer loop
      vertex -20 -7.3 6.65
      vertex -19.0302 -5.3 6.33488
      vertex -19.0302 -7.3 6.33488
    endloop
  endfacet
  facet normal -0.309016 0 -0.951057
    outer loop
      vertex -19.0302 -5.3 6.33488
      vertex -20 -7.3 6.65
      vertex -20 -5.3 6.65
    endloop
  endfacet
  facet normal 0.809017 0 -0.587785
    outer loop
      vertex -20.9698 -14.7 6.33488
      vertex -21.5692 -12.7 5.50988
      vertex -20.9698 -12.7 6.33488
    endloop
  endfacet
  facet normal 0.809017 0 -0.587785
    outer loop
      vertex -21.5692 -12.7 5.50988
      vertex -20.9698 -14.7 6.33488
      vertex -21.5692 -14.7 5.50988
    endloop
  endfacet
  facet normal 0.809017 0 -0.587785
    outer loop
      vertex -20.9698 -7.3 6.33488
      vertex -21.5692 -5.3 5.50988
      vertex -20.9698 -5.3 6.33488
    endloop
  endfacet
  facet normal 0.809017 0 -0.587785
    outer loop
      vertex -21.5692 -5.3 5.50988
      vertex -20.9698 -7.3 6.33488
      vertex -21.5692 -7.3 5.50988
    endloop
  endfacet
  facet normal 0.809017 -0 0.587785
    outer loop
      vertex -21.5692 -14.7 4.49012
      vertex -20.9698 -12.7 3.66512
      vertex -21.5692 -12.7 4.49012
    endloop
  endfacet
  facet normal 0.809017 0 0.587785
    outer loop
      vertex -20.9698 -12.7 3.66512
      vertex -21.5692 -14.7 4.49012
      vertex -20.9698 -14.7 3.66512
    endloop
  endfacet
  facet normal 0.809017 -0 0.587785
    outer loop
      vertex -21.5692 -7.3 4.49012
      vertex -20.9698 -5.3 3.66512
      vertex -21.5692 -5.3 4.49012
    endloop
  endfacet
  facet normal 0.809017 0 0.587785
    outer loop
      vertex -20.9698 -5.3 3.66512
      vertex -21.5692 -7.3 4.49012
      vertex -20.9698 -7.3 3.66512
    endloop
  endfacet
  facet normal 0.309017 0 -0.951057
    outer loop
      vertex -20.9698 -14.7 6.33488
      vertex -20 -12.7 6.65
      vertex -20 -14.7 6.65
    endloop
  endfacet
  facet normal 0.309017 0 -0.951057
    outer loop
      vertex -20 -12.7 6.65
      vertex -20.9698 -14.7 6.33488
      vertex -20.9698 -12.7 6.33488
    endloop
  endfacet
  facet normal 0.309017 0 -0.951057
    outer loop
      vertex -20.9698 -7.3 6.33488
      vertex -20 -5.3 6.65
      vertex -20 -7.3 6.65
    endloop
  endfacet
  facet normal 0.309017 0 -0.951057
    outer loop
      vertex -20 -5.3 6.65
      vertex -20.9698 -7.3 6.33488
      vertex -20.9698 -5.3 6.33488
    endloop
  endfacet
  facet normal -0.309017 0 0.951057
    outer loop
      vertex -20 -12.7 3.35
      vertex -19.0302 -14.7 3.66512
      vertex -19.0302 -12.7 3.66512
    endloop
  endfacet
  facet normal -0.309017 0 0.951057
    outer loop
      vertex -19.0302 -14.7 3.66512
      vertex -20 -12.7 3.35
      vertex -20 -14.7 3.35
    endloop
  endfacet
  facet normal -0.309016 0 0.951057
    outer loop
      vertex -20 -5.3 3.35
      vertex -19.0302 -7.3 3.66512
      vertex -19.0302 -5.3 3.66512
    endloop
  endfacet
  facet normal -0.309016 0 0.951057
    outer loop
      vertex -19.0302 -7.3 3.66512
      vertex -20 -5.3 3.35
      vertex -20 -7.3 3.35
    endloop
  endfacet
  facet normal -0.809016 0 0.587786
    outer loop
      vertex -19.0302 -14.7 3.66512
      vertex -18.4308 -12.7 4.49012
      vertex -19.0302 -12.7 3.66512
    endloop
  endfacet
  facet normal -0.809016 0 0.587786
    outer loop
      vertex -18.4308 -12.7 4.49012
      vertex -19.0302 -14.7 3.66512
      vertex -18.4308 -14.7 4.49012
    endloop
  endfacet
  facet normal -0.809017 0 0.587785
    outer loop
      vertex -19.0302 -7.3 3.66512
      vertex -18.4308 -5.3 4.49012
      vertex -19.0302 -5.3 3.66512
    endloop
  endfacet
  facet normal -0.809017 0 0.587785
    outer loop
      vertex -18.4308 -5.3 4.49012
      vertex -19.0302 -7.3 3.66512
      vertex -18.4308 -7.3 4.49012
    endloop
  endfacet
  facet normal 1 -0 0
    outer loop
      vertex -21.5692 -14.7 5.50988
      vertex -21.5692 -12.7 4.49012
      vertex -21.5692 -12.7 5.50988
    endloop
  endfacet
  facet normal 1 0 0
    outer loop
      vertex -21.5692 -12.7 4.49012
      vertex -21.5692 -14.7 5.50988
      vertex -21.5692 -14.7 4.49012
    endloop
  endfacet
  facet normal 1 -0 0
    outer loop
      vertex -21.5692 -7.3 5.50988
      vertex -21.5692 -5.3 4.49012
      vertex -21.5692 -5.3 5.50988
    endloop
  endfacet
  facet normal 1 0 0
    outer loop
      vertex -21.5692 -5.3 4.49012
      vertex -21.5692 -7.3 5.50988
      vertex -21.5692 -7.3 4.49012
    endloop
  endfacet
  facet normal -0.809016 0 -0.587786
    outer loop
      vertex -18.4308 -14.7 5.50988
      vertex -19.0302 -12.7 6.33488
      vertex -18.4308 -12.7 5.50988
    endloop
  endfacet
  facet normal -0.809016 -0 -0.587786
    outer loop
      vertex -19.0302 -12.7 6.33488
      vertex -18.4308 -14.7 5.50988
      vertex -19.0302 -14.7 6.33488
    endloop
  endfacet
  facet normal -0.809017 0 -0.587785
    outer loop
      vertex -18.4308 -7.3 5.50988
      vertex -19.0302 -5.3 6.33488
      vertex -18.4308 -5.3 5.50988
    endloop
  endfacet
  facet normal -0.809017 -0 -0.587785
    outer loop
      vertex -19.0302 -5.3 6.33488
      vertex -18.4308 -7.3 5.50988
      vertex -19.0302 -7.3 6.33488
    endloop
  endfacet
  facet normal -1 0 0
    outer loop
      vertex -18.4308 -14.7 4.49012
      vertex -18.4308 -12.7 5.50988
      vertex -18.4308 -12.7 4.49012
    endloop
  endfacet
  facet normal -1 -0 0
    outer loop
      vertex -18.4308 -12.7 5.50988
      vertex -18.4308 -14.7 4.49012
      vertex -18.4308 -14.7 5.50988
    endloop
  endfacet
  facet normal -1 0 0
    outer loop
      vertex -18.4308 -7.3 4.49012
      vertex -18.4308 -5.3 5.50988
      vertex -18.4308 -5.3 4.49012
    endloop
  endfacet
  facet normal -1 -0 0
    outer loop
      vertex -18.4308 -5.3 5.50988
      vertex -18.4308 -7.3 4.49012
      vertex -18.4308 -7.3 5.50988
    endloop
  endfacet
  facet normal 0 1 -0
    outer loop
      vertex 22 -12.75 0
      vertex 20 -12.75 7.75
      vertex 22 -12.75 7.75
    endloop
  endfacet
  facet normal 0 1 0
    outer loop
      vertex 20 -12.75 7.75
      vertex 22 -12.75 0
      vertex 20 -12.75 0
    endloop
  endfacet
  facet normal 0 0 -1
    outer loop
      vertex 20 -12.75 7.75
      vertex 22 -7.25 7.75
      vertex 22 -12.75 7.75
    endloop
  endfacet
  facet normal -0 0 -1
    outer loop
      vertex 22 -7.25 7.75
      vertex 20 -12.75 7.75
      vertex 20 -7.25 7.75
    endloop
  endfacet
  facet normal 0 -1 0
    outer loop
      vertex 20 -7.25 0
      vertex 22 -7.25 7.75
      vertex 20 -7.25 7.75
    endloop
  endfacet
  facet normal 0 -1 -0
    outer loop
      vertex 22 -7.25 7.75
      vertex 20 -7.25 0
      vertex 22 -7.25 0
    endloop
  endfacet
  facet normal 1 0 0
    outer loop
      vertex 20 -7.25 7.75
      vertex 20 -8.4 5
      vertex 20 -7.25 0
    endloop
  endfacet
  facet normal 1 0 0
    outer loop
      vertex 20 -7.25 7.75
      vertex 20 -8.70557 5.94046
      vertex 20 -8.4 5
    endloop
  endfacet
  facet normal 1 0 0
    outer loop
      vertex 20 -7.25 7.75
      vertex 20 -9.50557 6.52169
      vertex 20 -8.70557 5.94046
    endloop
  endfacet
  facet normal 1 0 0
    outer loop
      vertex 20 -7.25 7.75
      vertex 20 -10.4944 6.52169
      vertex 20 -9.50557 6.52169
    endloop
  endfacet
  facet normal 1 0 0
    outer loop
      vertex 20 -11.2944 5.94046
      vertex 20 -12.75 7.75
      vertex 20 -11.6 5
    endloop
  endfacet
  facet normal 1 0 0
    outer loop
      vertex 20 -10.4944 6.52169
      vertex 20 -12.75 7.75
      vertex 20 -11.2944 5.94046
    endloop
  endfacet
  facet normal 1 -0 0
    outer loop
      vertex 20 -12.75 7.75
      vertex 20 -10.4944 6.52169
      vertex 20 -7.25 7.75
    endloop
  endfacet
  facet normal 1 -0 0
    outer loop
      vertex 20 -8.70557 4.05954
      vertex 20 -7.25 0
      vertex 20 -8.4 5
    endloop
  endfacet
  facet normal 1 -0 0
    outer loop
      vertex 20 -9.50557 3.47831
      vertex 20 -7.25 0
      vertex 20 -8.70557 4.05954
    endloop
  endfacet
  facet normal 1 -0 0
    outer loop
      vertex 20 -10.4944 3.47831
      vertex 20 -7.25 0
      vertex 20 -9.50557 3.47831
    endloop
  endfacet
  facet normal 1 0 0
    outer loop
      vertex 20 -12.75 0
      vertex 20 -10.4944 3.47831
      vertex 20 -11.2944 4.05954
    endloop
  endfacet
  facet normal 1 0 0
    outer loop
      vertex 20 -12.75 0
      vertex 20 -11.6 5
      vertex 20 -12.75 7.75
    endloop
  endfacet
  facet normal 1 0 0
    outer loop
      vertex 20 -10.4944 3.47831
      vertex 20 -12.75 0
      vertex 20 -7.25 0
    endloop
  endfacet
  facet normal 1 0 0
    outer loop
      vertex 20 -11.6 5
      vertex 20 -12.75 0
      vertex 20 -11.2944 4.05954
    endloop
  endfacet
  facet normal -1 0 0
    outer loop
      vertex 22 -7.25 0
      vertex 22 -8.4 5
      vertex 22 -7.25 7.75
    endloop
  endfacet
  facet normal -1 0 0
    outer loop
      vertex 22 -7.25 0
      vertex 22 -8.70557 4.05954
      vertex 22 -8.4 5
    endloop
  endfacet
  facet normal -1 0 0
    outer loop
      vertex 22 -7.25 0
      vertex 22 -9.50557 3.47831
      vertex 22 -8.70557 4.05954
    endloop
  endfacet
  facet normal -1 0 0
    outer loop
      vertex 22 -7.25 0
      vertex 22 -10.4944 3.47831
      vertex 22 -9.50557 3.47831
    endloop
  endfacet
  facet normal -1 0 0
    outer loop
      vertex 22 -12.75 0
      vertex 22 -10.4944 3.47831
      vertex 22 -7.25 0
    endloop
  endfacet
  facet normal -1 -0 0
    outer loop
      vertex 22 -11.2944 4.05954
      vertex 22 -12.75 0
      vertex 22 -11.6 5
    endloop
  endfacet
  facet normal -1 -0 0
    outer loop
      vertex 22 -10.4944 3.47831
      vertex 22 -12.75 0
      vertex 22 -11.2944 4.05954
    endloop
  endfacet
  facet normal -1 0 0
    outer loop
      vertex 22 -8.70557 5.94046
      vertex 22 -7.25 7.75
      vertex 22 -8.4 5
    endloop
  endfacet
  facet normal -1 0 0
    outer loop
      vertex 22 -9.50557 6.52169
      vertex 22 -7.25 7.75
      vertex 22 -8.70557 5.94046
    endloop
  endfacet
  facet normal -1 0 0
    outer loop
      vertex 22 -10.4944 6.52169
      vertex 22 -7.25 7.75
      vertex 22 -9.50557 6.52169
    endloop
  endfacet
  facet normal -1 0 0
    outer loop
      vertex 22 -10.4944 6.52169
      vertex 22 -12.75 7.75
      vertex 22 -7.25 7.75
    endloop
  endfacet
  facet normal -1 0 0
    outer loop
      vertex 22 -11.2944 5.94046
      vertex 22 -12.75 7.75
      vertex 22 -10.4944 6.52169
    endloop
  endfacet
  facet normal -1 0 0
    outer loop
      vertex 22 -11.6 5
      vertex 22 -12.75 7.75
      vertex 22 -11.2944 5.94046
    endloop
  endfacet
  facet normal -1 0 0
    outer loop
      vertex 22 -12.75 7.75
      vertex 22 -11.6 5
      vertex 22 -12.75 0
    endloop
  endfacet
  facet normal 0.707107 0.707107 -0
    outer loop
      vertex 13.85 11.7302 2.005
      vertex 10.8802 14.7 4
      vertex 13.85 11.7302 4
    endloop
  endfacet
  facet normal 0.707107 0.707107 0
    outer loop
      vertex 10.8802 14.7 4
      vertex 13.85 11.7302 2.005
      vertex 10.8802 14.7 2.005
    endloop
  endfacet
  facet normal -0.707107 0.707107 0
    outer loop
      vertex -10.8802 14.7 2.005
      vertex -13.85 11.7302 4
      vertex -10.8802 14.7 4
    endloop
  endfacet
  facet normal -0.707107 0.707107 0
    outer loop
      vertex -13.85 11.7302 4
      vertex -10.8802 14.7 2.005
      vertex -13.85 11.7302 2.005
    endloop
  endfacet
  facet normal 0.707107 -0.707107 0
    outer loop
      vertex 10.8802 5.3 2.005
      vertex 13.85 8.26985 4
      vertex 10.8802 5.3 4
    endloop
  endfacet
  facet normal 0.707107 -0.707107 0
    outer loop
      vertex 13.85 8.26985 4
      vertex 10.8802 5.3 2.005
      vertex 13.85 8.26985 2.005
    endloop
  endfacet
  facet normal -0.707107 -0.707107 0
    outer loop
      vertex -13.85 8.26985 2.005
      vertex -10.8802 5.3 4
      vertex -13.85 8.26985 4
    endloop
  endfacet
  facet normal -0.707107 -0.707107 -0
    outer loop
      vertex -10.8802 5.3 4
      vertex -13.85 8.26985 2.005
      vertex -10.8802 5.3 2.005
    endloop
  endfacet
  facet normal -1 0 0
    outer loop
      vertex -13.85 8.26985 2.005
      vertex -13.85 11.7302 4
      vertex -13.85 11.7302 2.005
    endloop
  endfacet
  facet normal -1 -0 0
    outer loop
      vertex -13.85 11.7302 4
      vertex -13.85 8.26985 2.005
      vertex -13.85 8.26985 4
    endloop
  endfacet
  facet normal 0 0 1
    outer loop
      vertex 10.8802 14.7 4
      vertex 13.85 8.26985 4
      vertex 13.85 11.7302 4
    endloop
  endfacet
  facet normal 0 0 1
    outer loop
      vertex 10.8802 14.7 4
      vertex 10.8802 5.3 4
      vertex 13.85 8.26985 4
    endloop
  endfacet
  facet normal 0 0 1
    outer loop
      vertex 10.8802 14.7 4
      vertex 1.52169 10.4944 4
      vertex 10.8802 5.3 4
    endloop
  endfacet
  facet normal 0 0 1
    outer loop
      vertex 10.8802 14.7 4
      vertex 0.940456 11.2944 4
      vertex 1.52169 10.4944 4
    endloop
  endfacet
  facet normal 0 0 1
    outer loop
      vertex 10.8802 14.7 4
      vertex 0 11.6 4
      vertex 0.940456 11.2944 4
    endloop
  endfacet
  facet normal 0 0 1
    outer loop
      vertex -1.52169 10.4944 4
      vertex -6.47831 10.4944 4
      vertex -1.52169 9.50557 4
    endloop
  endfacet
  facet normal 0 0 1
    outer loop
      vertex -0.940456 11.2944 4
      vertex -6.47831 10.4944 4
      vertex -1.52169 10.4944 4
    endloop
  endfacet
  facet normal 0 0 1
    outer loop
      vertex -10.8802 14.7 4
      vertex -0.940456 11.2944 4
      vertex 0 11.6 4
    endloop
  endfacet
  facet normal -0 0 1
    outer loop
      vertex -10.8802 14.7 4
      vertex 0 11.6 4
      vertex 10.8802 14.7 4
    endloop
  endfacet
  facet normal 0 0 1
    outer loop
      vertex -0.940456 11.2944 4
      vertex -7.05954 11.2944 4
      vertex -6.47831 10.4944 4
    endloop
  endfacet
  facet normal 0 0 1
    outer loop
      vertex -0.940456 11.2944 4
      vertex -10.8802 14.7 4
      vertex -7.05954 11.2944 4
    endloop
  endfacet
  facet normal -0 0 1
    outer loop
      vertex -13.85 11.7302 4
      vertex -9.52169 10.4944 4
      vertex -10.8802 14.7 4
    endloop
  endfacet
  facet normal 0 0 1
    outer loop
      vertex -8.94046 11.2944 4
      vertex -10.8802 14.7 4
      vertex -9.52169 10.4944 4
    endloop
  endfacet
  facet normal 0 0 1
    outer loop
      vertex -8 11.6 4
      vertex -10.8802 14.7 4
      vertex -8.94046 11.2944 4
    endloop
  endfacet
  facet normal 0 0 1
    outer loop
      vertex -7.05954 11.2944 4
      vertex -10.8802 14.7 4
      vertex -8 11.6 4
    endloop
  endfacet
  facet normal -0 0 1
    outer loop
      vertex 1.52169 9.50557 4
      vertex 10.8802 5.3 4
      vertex 1.52169 10.4944 4
    endloop
  endfacet
  facet normal -0 0 1
    outer loop
      vertex 0.940456 8.70557 4
      vertex 10.8802 5.3 4
      vertex 1.52169 9.50557 4
    endloop
  endfacet
  facet normal -0 0 1
    outer loop
      vertex 0 8.4 4
      vertex 10.8802 5.3 4
      vertex 0.940456 8.70557 4
    endloop
  endfacet
  facet normal 0 0 1
    outer loop
      vertex -6.47831 9.50557 4
      vertex -1.52169 9.50557 4
      vertex -6.47831 10.4944 4
    endloop
  endfacet
  facet normal 0 0 1
    outer loop
      vertex -1.52169 9.50557 4
      vertex -6.47831 9.50557 4
      vertex -0.940456 8.70557 4
    endloop
  endfacet
  facet normal 0 0 1
    outer loop
      vertex -7.05954 8.70557 4
      vertex -0.940456 8.70557 4
      vertex -6.47831 9.50557 4
    endloop
  endfacet
  facet normal 0 0 1
    outer loop
      vertex -10.8802 5.3 4
      vertex -0.940456 8.70557 4
      vertex -7.05954 8.70557 4
    endloop
  endfacet
  facet normal 0 0 1
    outer loop
      vertex -0.940456 8.70557 4
      vertex -10.8802 5.3 4
      vertex 0 8.4 4
    endloop
  endfacet
  facet normal 0 0 1
    outer loop
      vertex -10.8802 5.3 4
      vertex -7.05954 8.70557 4
      vertex -8 8.4 4
    endloop
  endfacet
  facet normal 0 0 1
    outer loop
      vertex 0 8.4 4
      vertex -10.8802 5.3 4
      vertex 10.8802 5.3 4
    endloop
  endfacet
  facet normal 0 0 1
    outer loop
      vertex -8.94046 8.70557 4
      vertex -10.8802 5.3 4
      vertex -8 8.4 4
    endloop
  endfacet
  facet normal 0 0 1
    outer loop
      vertex -9.52169 9.50557 4
      vertex -10.8802 5.3 4
      vertex -8.94046 8.70557 4
    endloop
  endfacet
  facet normal 0 0 1
    outer loop
      vertex -9.52169 10.4944 4
      vertex -13.85 11.7302 4
      vertex -9.52169 9.50557 4
    endloop
  endfacet
  facet normal 0 0 1
    outer loop
      vertex -13.85 8.26985 4
      vertex -9.52169 9.50557 4
      vertex -13.85 11.7302 4
    endloop
  endfacet
  facet normal 0 0 1
    outer loop
      vertex -9.52169 9.50557 4
      vertex -13.85 8.26985 4
      vertex -10.8802 5.3 4
    endloop
  endfacet
  facet normal 1 -0 0
    outer loop
      vertex 13.85 8.26985 4
      vertex 13.85 11.7302 2.005
      vertex 13.85 11.7302 4
    endloop
  endfacet
  facet normal 1 0 0
    outer loop
      vertex 13.85 11.7302 2.005
      vertex 13.85 8.26985 4
      vertex 13.85 8.26985 2.005
    endloop
  endfacet
  facet normal 0 1 -0
    outer loop
      vertex 10.8802 14.7 2.005
      vertex -10.8802 14.7 4
      vertex 10.8802 14.7 4
    endloop
  endfacet
  facet normal 0 1 0
    outer loop
      vertex -10.8802 14.7 4
      vertex 10.8802 14.7 2.005
      vertex -10.8802 14.7 2.005
    endloop
  endfacet
  facet normal 0 -1 0
    outer loop
      vertex -10.8802 5.3 2.005
      vertex 10.8802 5.3 4
      vertex -10.8802 5.3 4
    endloop
  endfacet
  facet normal 0 -1 -0
    outer loop
      vertex 10.8802 5.3 4
      vertex -10.8802 5.3 2.005
      vertex 10.8802 5.3 2.005
    endloop
  endfacet
  facet normal 0.923879 0.382684 0
    outer loop
      vertex 15.7648 15.147 2.005
      vertex 15.5151 15.75 -0.00499916
      vertex 15.5151 15.75 2.005
    endloop
  endfacet
  facet normal 0.923879 0.382684 0
    outer loop
      vertex 15.5151 15.75 -0.00499916
      vertex 15.7648 15.147 2.005
      vertex 15.7648 15.147 -0.00499916
    endloop
  endfacet
  facet normal 0.991445 -0.130527 0
    outer loop
      vertex 15.7648 4.85295 2.005
      vertex 15.85 5.5 -0.00499916
      vertex 15.85 5.5 2.005
    endloop
  endfacet
  facet normal 0.991445 -0.130527 0
    outer loop
      vertex 15.85 5.5 -0.00499916
      vertex 15.7648 4.85295 2.005
      vertex 15.7648 4.85295 -0.00499916
    endloop
  endfacet
  facet normal -0.991445 -0.130527 0
    outer loop
      vertex -15.7648 4.85295 -0.00499916
      vertex -15.85 5.5 2.005
      vertex -15.85 5.5 -0.00499916
    endloop
  endfacet
  facet normal -0.991445 -0.130527 0
    outer loop
      vertex -15.85 5.5 2.005
      vertex -15.7648 4.85295 -0.00499916
      vertex -15.7648 4.85295 2.005
    endloop
  endfacet
  facet normal 0 1 -0
    outer loop
      vertex 13.35 17 -0.00499916
      vertex -13.35 17 2.005
      vertex 13.35 17 2.005
    endloop
  endfacet
  facet normal 0 1 0
    outer loop
      vertex -13.35 17 2.005
      vertex 13.35 17 -0.00499916
      vertex -13.35 17 -0.00499916
    endloop
  endfacet
  facet normal 0.991445 0.130527 0
    outer loop
      vertex 15.85 14.5 2.005
      vertex 15.7648 15.147 -0.00499916
      vertex 15.7648 15.147 2.005
    endloop
  endfacet
  facet normal 0.991445 0.130527 0
    outer loop
      vertex 15.7648 15.147 -0.00499916
      vertex 15.85 14.5 2.005
      vertex 15.85 14.5 -0.00499916
    endloop
  endfacet
  facet normal 0 -1 0
    outer loop
      vertex -13.35 3 -0.00499916
      vertex 13.35 3 2.005
      vertex -13.35 3 2.005
    endloop
  endfacet
  facet normal 0 -1 -0
    outer loop
      vertex 13.35 3 2.005
      vertex -13.35 3 -0.00499916
      vertex 13.35 3 -0.00499916
    endloop
  endfacet
  facet normal -0.130527 -0.991445 0
    outer loop
      vertex -13.997 3.08519 -0.00499916
      vertex -13.35 3 2.005
      vertex -13.997 3.08519 2.005
    endloop
  endfacet
  facet normal -0.130527 -0.991445 -0
    outer loop
      vertex -13.35 3 2.005
      vertex -13.997 3.08519 -0.00499916
      vertex -13.35 3 -0.00499916
    endloop
  endfacet
  facet normal -0.130527 0.991445 0
    outer loop
      vertex -13.35 17 -0.00499916
      vertex -13.997 16.9148 2.005
      vertex -13.35 17 2.005
    endloop
  endfacet
  facet normal -0.130527 0.991445 0
    outer loop
      vertex -13.997 16.9148 2.005
      vertex -13.35 17 -0.00499916
      vertex -13.997 16.9148 -0.00499916
    endloop
  endfacet
  facet normal -1 0 0
    outer loop
      vertex -15.85 5.5 -0.00499916
      vertex -15.85 14.5 2.005
      vertex -15.85 14.5 -0.00499916
    endloop
  endfacet
  facet normal -1 -0 0
    outer loop
      vertex -15.85 14.5 2.005
      vertex -15.85 5.5 -0.00499916
      vertex -15.85 5.5 2.005
    endloop
  endfacet
  facet normal -0.608759 0.793355 0
    outer loop
      vertex -14.6 16.6651 -0.00499916
      vertex -15.1178 16.2678 2.005
      vertex -14.6 16.6651 2.005
    endloop
  endfacet
  facet normal -0.608759 0.793355 0
    outer loop
      vertex -15.1178 16.2678 2.005
      vertex -14.6 16.6651 -0.00499916
      vertex -15.1178 16.2678 -0.00499916
    endloop
  endfacet
  facet normal 0.793354 0.60876 0
    outer loop
      vertex 15.5151 15.75 2.005
      vertex 15.1178 16.2678 -0.00499916
      vertex 15.1178 16.2678 2.005
    endloop
  endfacet
  facet normal 0.793354 0.60876 0
    outer loop
      vertex 15.1178 16.2678 -0.00499916
      vertex 15.5151 15.75 2.005
      vertex 15.5151 15.75 -0.00499916
    endloop
  endfacet
  facet normal 1 -0 0
    outer loop
      vertex 15.85 5.5 2.005
      vertex 15.85 14.5 -0.00499916
      vertex 15.85 14.5 2.005
    endloop
  endfacet
  facet normal 1 0 0
    outer loop
      vertex 15.85 14.5 -0.00499916
      vertex 15.85 5.5 2.005
      vertex 15.85 5.5 -0.00499916
    endloop
  endfacet
  facet normal 0.130527 -0.991445 0
    outer loop
      vertex 13.35 3 -0.00499916
      vertex 13.997 3.08519 2.005
      vertex 13.35 3 2.005
    endloop
  endfacet
  facet normal 0.130527 -0.991445 0
    outer loop
      vertex 13.997 3.08519 2.005
      vertex 13.35 3 -0.00499916
      vertex 13.997 3.08519 -0.00499916
    endloop
  endfacet
  facet normal -0.608761 -0.793354 0
    outer loop
      vertex -15.1178 3.73223 -0.00499916
      vertex -14.6 3.33494 2.005
      vertex -15.1178 3.73223 2.005
    endloop
  endfacet
  facet normal -0.608761 -0.793354 -0
    outer loop
      vertex -14.6 3.33494 2.005
      vertex -15.1178 3.73223 -0.00499916
      vertex -14.6 3.33494 -0.00499916
    endloop
  endfacet
  facet normal -0.923879 -0.382684 0
    outer loop
      vertex -15.5151 4.25 -0.00499916
      vertex -15.7648 4.85295 2.005
      vertex -15.7648 4.85295 -0.00499916
    endloop
  endfacet
  facet normal -0.923879 -0.382684 0
    outer loop
      vertex -15.7648 4.85295 2.005
      vertex -15.5151 4.25 -0.00499916
      vertex -15.5151 4.25 2.005
    endloop
  endfacet
  facet normal -0.991445 0.130527 0
    outer loop
      vertex -15.85 14.5 -0.00499916
      vertex -15.7648 15.147 2.005
      vertex -15.7648 15.147 -0.00499916
    endloop
  endfacet
  facet normal -0.991445 0.130527 0
    outer loop
      vertex -15.7648 15.147 2.005
      vertex -15.85 14.5 -0.00499916
      vertex -15.85 14.5 2.005
    endloop
  endfacet
  facet normal 0 0 -1
    outer loop
      vertex 13.35 3 -0.00499916
      vertex 15.85 5.5 -0.00499916
      vertex 15.7648 4.85295 -0.00499916
    endloop
  endfacet
  facet normal 0 0 -1
    outer loop
      vertex 1.52169 9.50557 -0.00499916
      vertex 15.85 5.5 -0.00499916
      vertex 13.35 3 -0.00499916
    endloop
  endfacet
  facet normal 0 0 -1
    outer loop
      vertex 13.35 3 -0.00499916
      vertex 15.7648 4.85295 -0.00499916
      vertex 15.5151 4.25 -0.00499916
    endloop
  endfacet
  facet normal 0 0 -1
    outer loop
      vertex 15.85 5.5 -0.00499916
      vertex 1.52169 9.50557 -0.00499916
      vertex 15.85 14.5 -0.00499916
    endloop
  endfacet
  facet normal 0 0 -1
    outer loop
      vertex 13.35 3 -0.00499916
      vertex 15.5151 4.25 -0.00499916
      vertex 15.1178 3.73223 -0.00499916
    endloop
  endfacet
  facet normal 0 0 -1
    outer loop
      vertex 15.85 14.5 -0.00499916
      vertex 13.35 17 -0.00499916
      vertex 15.7648 15.147 -0.00499916
    endloop
  endfacet
  facet normal 0 0 -1
    outer loop
      vertex 13.35 3 -0.00499916
      vertex 15.1178 3.73223 -0.00499916
      vertex 14.6 3.33494 -0.00499916
    endloop
  endfacet
  facet normal 0 0 -1
    outer loop
      vertex 15.7648 15.147 -0.00499916
      vertex 13.35 17 -0.00499916
      vertex 15.5151 15.75 -0.00499916
    endloop
  endfacet
  facet normal 0 0 -1
    outer loop
      vertex 13.35 3 -0.00499916
      vertex 14.6 3.33494 -0.00499916
      vertex 13.997 3.08519 -0.00499916
    endloop
  endfacet
  facet normal 0 0 -1
    outer loop
      vertex 15.5151 15.75 -0.00499916
      vertex 13.35 17 -0.00499916
      vertex 15.1178 16.2678 -0.00499916
    endloop
  endfacet
  facet normal 0 0 -1
    outer loop
      vertex 15.1178 16.2678 -0.00499916
      vertex 13.35 17 -0.00499916
      vertex 14.6 16.6651 -0.00499916
    endloop
  endfacet
  facet normal 0 0 -1
    outer loop
      vertex 14.6 16.6651 -0.00499916
      vertex 13.35 17 -0.00499916
      vertex 13.997 16.9148 -0.00499916
    endloop
  endfacet
  facet normal 0 0 -1
    outer loop
      vertex 1.52169 10.4944 -0.00499916
      vertex 15.85 14.5 -0.00499916
      vertex 1.52169 9.50557 -0.00499916
    endloop
  endfacet
  facet normal 0 0 -1
    outer loop
      vertex 13.35 3 -0.00499916
      vertex 0.940456 8.70557 -0.00499916
      vertex 1.52169 9.50557 -0.00499916
    endloop
  endfacet
  facet normal 0 0 -1
    outer loop
      vertex 13.35 3 -0.00499916
      vertex 0 8.4 -0.00499916
      vertex 0.940456 8.70557 -0.00499916
    endloop
  endfacet
  facet normal 0 0 -1
    outer loop
      vertex -13.35 3 -0.00499916
      vertex 0 8.4 -0.00499916
      vertex 13.35 3 -0.00499916
    endloop
  endfacet
  facet normal 0 0 -1
    outer loop
      vertex -1.52169 9.50557 -0.00499916
      vertex -6.47831 9.50557 -0.00499916
      vertex -1.52169 10.4944 -0.00499916
    endloop
  endfacet
  facet normal 0 0 -1
    outer loop
      vertex -0.940456 8.70557 -0.00499916
      vertex -6.47831 9.50557 -0.00499916
      vertex -1.52169 9.50557 -0.00499916
    endloop
  endfacet
  facet normal -0 0 -1
    outer loop
      vertex 0 8.4 -0.00499916
      vertex -13.35 3 -0.00499916
      vertex -0.940456 8.70557 -0.00499916
    endloop
  endfacet
  facet normal 0 0 -1
    outer loop
      vertex -0.940456 8.70557 -0.00499916
      vertex -7.05954 8.70557 -0.00499916
      vertex -6.47831 9.50557 -0.00499916
    endloop
  endfacet
  facet normal -0 0 -1
    outer loop
      vertex -0.940456 8.70557 -0.00499916
      vertex -13.35 3 -0.00499916
      vertex -7.05954 8.70557 -0.00499916
    endloop
  endfacet
  facet normal -0 0 -1
    outer loop
      vertex -8.94046 8.70557 -0.00499916
      vertex -15.85 5.5 -0.00499916
      vertex -9.52169 9.50557 -0.00499916
    endloop
  endfacet
  facet normal 0 0 -1
    outer loop
      vertex -15.85 5.5 -0.00499916
      vertex -8.94046 8.70557 -0.00499916
      vertex -13.35 3 -0.00499916
    endloop
  endfacet
  facet normal -0 0 -1
    outer loop
      vertex -8 8.4 -0.00499916
      vertex -13.35 3 -0.00499916
      vertex -8.94046 8.70557 -0.00499916
    endloop
  endfacet
  facet normal 0 0 -1
    outer loop
      vertex -7.05954 8.70557 -0.00499916
      vertex -13.35 3 -0.00499916
      vertex -8 8.4 -0.00499916
    endloop
  endfacet
  facet normal -0 0 -1
    outer loop
      vertex 15.85 14.5 -0.00499916
      vertex 1.52169 10.4944 -0.00499916
      vertex 13.35 17 -0.00499916
    endloop
  endfacet
  facet normal 0 0 -1
    outer loop
      vertex 0.940456 11.2944 -0.00499916
      vertex 13.35 17 -0.00499916
      vertex 1.52169 10.4944 -0.00499916
    endloop
  endfacet
  facet normal 0 0 -1
    outer loop
      vertex 0 11.6 -0.00499916
      vertex 13.35 17 -0.00499916
      vertex 0.940456 11.2944 -0.00499916
    endloop
  endfacet
  facet normal 0 0 -1
    outer loop
      vertex -13.35 17 -0.00499916
      vertex 0 11.6 -0.00499916
      vertex -0.940456 11.2944 -0.00499916
    endloop
  endfacet
  facet normal 0 0 -1
    outer loop
      vertex -6.47831 10.4944 -0.00499916
      vertex -1.52169 10.4944 -0.00499916
      vertex -6.47831 9.50557 -0.00499916
    endloop
  endfacet
  facet normal 0 0 -1
    outer loop
      vertex -1.52169 10.4944 -0.00499916
      vertex -6.47831 10.4944 -0.00499916
      vertex -0.940456 11.2944 -0.00499916
    endloop
  endfacet
  facet normal 0 0 -1
    outer loop
      vertex -7.05954 11.2944 -0.00499916
      vertex -0.940456 11.2944 -0.00499916
      vertex -6.47831 10.4944 -0.00499916
    endloop
  endfacet
  facet normal 0 0 -1
    outer loop
      vertex -13.35 17 -0.00499916
      vertex -0.940456 11.2944 -0.00499916
      vertex -7.05954 11.2944 -0.00499916
    endloop
  endfacet
  facet normal 0 0 -1
    outer loop
      vertex -13.35 17 -0.00499916
      vertex -7.05954 11.2944 -0.00499916
      vertex -8 11.6 -0.00499916
    endloop
  endfacet
  facet normal 0 0 -1
    outer loop
      vertex 0 11.6 -0.00499916
      vertex -13.35 17 -0.00499916
      vertex 13.35 17 -0.00499916
    endloop
  endfacet
  facet normal 0 0 -1
    outer loop
      vertex -8.94046 11.2944 -0.00499916
      vertex -13.35 17 -0.00499916
      vertex -8 11.6 -0.00499916
    endloop
  endfacet
  facet normal 0 0 -1
    outer loop
      vertex -15.85 14.5 -0.00499916
      vertex -8.94046 11.2944 -0.00499916
      vertex -9.52169 10.4944 -0.00499916
    endloop
  endfacet
  facet normal -0 0 -1
    outer loop
      vertex -9.52169 9.50557 -0.00499916
      vertex -15.85 5.5 -0.00499916
      vertex -9.52169 10.4944 -0.00499916
    endloop
  endfacet
  facet normal 0 0 -1
    outer loop
      vertex -15.85 5.5 -0.00499916
      vertex -13.35 3 -0.00499916
      vertex -13.997 3.08519 -0.00499916
    endloop
  endfacet
  facet normal 0 0 -1
    outer loop
      vertex -15.85 14.5 -0.00499916
      vertex -9.52169 10.4944 -0.00499916
      vertex -15.85 5.5 -0.00499916
    endloop
  endfacet
  facet normal 0 0 -1
    outer loop
      vertex -13.35 17 -0.00499916
      vertex -15.85 14.5 -0.00499916
      vertex -13.997 16.9148 -0.00499916
    endloop
  endfacet
  facet normal 0 0 -1
    outer loop
      vertex -15.85 5.5 -0.00499916
      vertex -13.997 3.08519 -0.00499916
      vertex -14.6 3.33494 -0.00499916
    endloop
  endfacet
  facet normal 0 0 -1
    outer loop
      vertex -15.85 5.5 -0.00499916
      vertex -14.6 3.33494 -0.00499916
      vertex -15.1178 3.73223 -0.00499916
    endloop
  endfacet
  facet normal 0 0 -1
    outer loop
      vertex -8.94046 11.2944 -0.00499916
      vertex -15.85 14.5 -0.00499916
      vertex -13.35 17 -0.00499916
    endloop
  endfacet
  facet normal 0 0 -1
    outer loop
      vertex -15.85 5.5 -0.00499916
      vertex -15.1178 3.73223 -0.00499916
      vertex -15.5151 4.25 -0.00499916
    endloop
  endfacet
  facet normal 0 0 -1
    outer loop
      vertex -13.997 16.9148 -0.00499916
      vertex -15.85 14.5 -0.00499916
      vertex -14.6 16.6651 -0.00499916
    endloop
  endfacet
  facet normal 0 0 -1
    outer loop
      vertex -15.85 5.5 -0.00499916
      vertex -15.5151 4.25 -0.00499916
      vertex -15.7648 4.85295 -0.00499916
    endloop
  endfacet
  facet normal 0 0 -1
    outer loop
      vertex -14.6 16.6651 -0.00499916
      vertex -15.85 14.5 -0.00499916
      vertex -15.1178 16.2678 -0.00499916
    endloop
  endfacet
  facet normal 0 0 -1
    outer loop
      vertex -15.1178 16.2678 -0.00499916
      vertex -15.85 14.5 -0.00499916
      vertex -15.5151 15.75 -0.00499916
    endloop
  endfacet
  facet normal 0 0 -1
    outer loop
      vertex -15.5151 15.75 -0.00499916
      vertex -15.85 14.5 -0.00499916
      vertex -15.7648 15.147 -0.00499916
    endloop
  endfacet
  facet normal -0.793354 0.60876 0
    outer loop
      vertex -15.5151 15.75 -0.00499916
      vertex -15.1178 16.2678 2.005
      vertex -15.1178 16.2678 -0.00499916
    endloop
  endfacet
  facet normal -0.793354 0.60876 0
    outer loop
      vertex -15.1178 16.2678 2.005
      vertex -15.5151 15.75 -0.00499916
      vertex -15.5151 15.75 2.005
    endloop
  endfacet
  facet normal -0.382685 0.923879 0
    outer loop
      vertex -13.997 16.9148 -0.00499916
      vertex -14.6 16.6651 2.005
      vertex -13.997 16.9148 2.005
    endloop
  endfacet
  facet normal -0.382685 0.923879 0
    outer loop
      vertex -14.6 16.6651 2.005
      vertex -13.997 16.9148 -0.00499916
      vertex -14.6 16.6651 -0.00499916
    endloop
  endfacet
  facet normal -0.923879 0.382684 0
    outer loop
      vertex -15.7648 15.147 -0.00499916
      vertex -15.5151 15.75 2.005
      vertex -15.5151 15.75 -0.00499916
    endloop
  endfacet
  facet normal -0.923879 0.382684 0
    outer loop
      vertex -15.5151 15.75 2.005
      vertex -15.7648 15.147 -0.00499916
      vertex -15.7648 15.147 2.005
    endloop
  endfacet
  facet normal 0.92388 -0.382683 0
    outer loop
      vertex 15.5151 4.25 2.005
      vertex 15.7648 4.85295 -0.00499916
      vertex 15.7648 4.85295 2.005
    endloop
  endfacet
  facet normal 0.92388 -0.382683 0
    outer loop
      vertex 15.7648 4.85295 -0.00499916
      vertex 15.5151 4.25 2.005
      vertex 15.5151 4.25 -0.00499916
    endloop
  endfacet
  facet normal 0.382683 -0.92388 0
    outer loop
      vertex 13.997 3.08519 -0.00499916
      vertex 14.6 3.33494 2.005
      vertex 13.997 3.08519 2.005
    endloop
  endfacet
  facet normal 0.382683 -0.92388 0
    outer loop
      vertex 14.6 3.33494 2.005
      vertex 13.997 3.08519 -0.00499916
      vertex 14.6 3.33494 -0.00499916
    endloop
  endfacet
  facet normal -0.382683 -0.92388 0
    outer loop
      vertex -14.6 3.33494 -0.00499916
      vertex -13.997 3.08519 2.005
      vertex -14.6 3.33494 2.005
    endloop
  endfacet
  facet normal -0.382683 -0.92388 -0
    outer loop
      vertex -13.997 3.08519 2.005
      vertex -14.6 3.33494 -0.00499916
      vertex -13.997 3.08519 -0.00499916
    endloop
  endfacet
  facet normal -0.793354 -0.60876 0
    outer loop
      vertex -15.1178 3.73223 -0.00499916
      vertex -15.5151 4.25 2.005
      vertex -15.5151 4.25 -0.00499916
    endloop
  endfacet
  facet normal -0.793354 -0.60876 0
    outer loop
      vertex -15.5151 4.25 2.005
      vertex -15.1178 3.73223 -0.00499916
      vertex -15.1178 3.73223 2.005
    endloop
  endfacet
  facet normal 0.130527 0.991445 -0
    outer loop
      vertex 13.997 16.9148 -0.00499916
      vertex 13.35 17 2.005
      vertex 13.997 16.9148 2.005
    endloop
  endfacet
  facet normal 0.130527 0.991445 0
    outer loop
      vertex 13.35 17 2.005
      vertex 13.997 16.9148 -0.00499916
      vertex 13.35 17 -0.00499916
    endloop
  endfacet
  facet normal 0.382684 0.923879 -0
    outer loop
      vertex 14.6 16.6651 -0.00499916
      vertex 13.997 16.9148 2.005
      vertex 14.6 16.6651 2.005
    endloop
  endfacet
  facet normal 0.382684 0.923879 0
    outer loop
      vertex 13.997 16.9148 2.005
      vertex 14.6 16.6651 -0.00499916
      vertex 13.997 16.9148 -0.00499916
    endloop
  endfacet
  facet normal -0 0 1
    outer loop
      vertex 10.8802 14.7 2.005
      vertex 15.85 14.5 2.005
      vertex 15.7648 15.147 2.005
    endloop
  endfacet
  facet normal 0 0 1
    outer loop
      vertex 15.85 14.5 2.005
      vertex 13.85 11.7302 2.005
      vertex 15.85 5.5 2.005
    endloop
  endfacet
  facet normal 0 0 1
    outer loop
      vertex 10.8802 14.7 2.005
      vertex 15.7648 15.147 2.005
      vertex 15.5151 15.75 2.005
    endloop
  endfacet
  facet normal -0 0 1
    outer loop
      vertex 13.85 8.26985 2.005
      vertex 15.85 5.5 2.005
      vertex 13.85 11.7302 2.005
    endloop
  endfacet
  facet normal 0 0 1
    outer loop
      vertex 10.8802 14.7 2.005
      vertex 15.5151 15.75 2.005
      vertex 15.1178 16.2678 2.005
    endloop
  endfacet
  facet normal 0 0 1
    outer loop
      vertex 10.8802 5.3 2.005
      vertex 15.85 5.5 2.005
      vertex 13.85 8.26985 2.005
    endloop
  endfacet
  facet normal 0 0 1
    outer loop
      vertex 10.8802 14.7 2.005
      vertex 15.1178 16.2678 2.005
      vertex 14.6 16.6651 2.005
    endloop
  endfacet
  facet normal 0 0 1
    outer loop
      vertex 15.85 5.5 2.005
      vertex 10.8802 5.3 2.005
      vertex 15.7648 4.85295 2.005
    endloop
  endfacet
  facet normal 0 0 1
    outer loop
      vertex 10.8802 14.7 2.005
      vertex 14.6 16.6651 2.005
      vertex 13.997 16.9148 2.005
    endloop
  endfacet
  facet normal 0 0 1
    outer loop
      vertex 15.7648 4.85295 2.005
      vertex 10.8802 5.3 2.005
      vertex 15.5151 4.25 2.005
    endloop
  endfacet
  facet normal 0 0 1
    outer loop
      vertex 15.5151 4.25 2.005
      vertex 10.8802 5.3 2.005
      vertex 15.1178 3.73223 2.005
    endloop
  endfacet
  facet normal 0 0 1
    outer loop
      vertex 10.8802 14.7 2.005
      vertex 13.997 16.9148 2.005
      vertex 13.35 17 2.005
    endloop
  endfacet
  facet normal 0 0 1
    outer loop
      vertex 15.85 14.5 2.005
      vertex 10.8802 14.7 2.005
      vertex 13.85 11.7302 2.005
    endloop
  endfacet
  facet normal 0 0 1
    outer loop
      vertex 13.35 17 2.005
      vertex -10.8802 14.7 2.005
      vertex 10.8802 14.7 2.005
    endloop
  endfacet
  facet normal -0 0 1
    outer loop
      vertex -13.35 17 2.005
      vertex -10.8802 14.7 2.005
      vertex 13.35 17 2.005
    endloop
  endfacet
  facet normal 0 0 1
    outer loop
      vertex -15.85 14.5 2.005
      vertex -10.8802 14.7 2.005
      vertex -13.35 17 2.005
    endloop
  endfacet
  facet normal 0 0 1
    outer loop
      vertex -10.8802 14.7 2.005
      vertex -15.85 14.5 2.005
      vertex -13.85 11.7302 2.005
    endloop
  endfacet
  facet normal 0 0 1
    outer loop
      vertex -15.85 14.5 2.005
      vertex -13.35 17 2.005
      vertex -13.997 16.9148 2.005
    endloop
  endfacet
  facet normal 0 0 1
    outer loop
      vertex 15.1178 3.73223 2.005
      vertex 10.8802 5.3 2.005
      vertex 14.6 3.33494 2.005
    endloop
  endfacet
  facet normal 0 0 1
    outer loop
      vertex 14.6 3.33494 2.005
      vertex 10.8802 5.3 2.005
      vertex 13.997 3.08519 2.005
    endloop
  endfacet
  facet normal 0 0 1
    outer loop
      vertex 13.997 3.08519 2.005
      vertex 10.8802 5.3 2.005
      vertex 13.35 3 2.005
    endloop
  endfacet
  facet normal -0 0 1
    outer loop
      vertex -10.8802 5.3 2.005
      vertex 13.35 3 2.005
      vertex 10.8802 5.3 2.005
    endloop
  endfacet
  facet normal 0 0 1
    outer loop
      vertex -10.8802 5.3 2.005
      vertex -13.35 3 2.005
      vertex 13.35 3 2.005
    endloop
  endfacet
  facet normal -0 0 1
    outer loop
      vertex -15.85 5.5 2.005
      vertex -10.8802 5.3 2.005
      vertex -13.85 8.26985 2.005
    endloop
  endfacet
  facet normal 0 0 1
    outer loop
      vertex -10.8802 5.3 2.005
      vertex -15.85 5.5 2.005
      vertex -13.35 3 2.005
    endloop
  endfacet
  facet normal 0 0 1
    outer loop
      vertex -13.85 11.7302 2.005
      vertex -15.85 14.5 2.005
      vertex -13.85 8.26985 2.005
    endloop
  endfacet
  facet normal 0 0 1
    outer loop
      vertex -15.85 14.5 2.005
      vertex -13.997 16.9148 2.005
      vertex -14.6 16.6651 2.005
    endloop
  endfacet
  facet normal 0 0 1
    outer loop
      vertex -15.85 5.5 2.005
      vertex -13.85 8.26985 2.005
      vertex -15.85 14.5 2.005
    endloop
  endfacet
  facet normal 0 0 1
    outer loop
      vertex -15.85 14.5 2.005
      vertex -14.6 16.6651 2.005
      vertex -15.1178 16.2678 2.005
    endloop
  endfacet
  facet normal 0 0 1
    outer loop
      vertex -13.35 3 2.005
      vertex -15.85 5.5 2.005
      vertex -13.997 3.08519 2.005
    endloop
  endfacet
  facet normal 0 0 1
    outer loop
      vertex -15.85 14.5 2.005
      vertex -15.1178 16.2678 2.005
      vertex -15.5151 15.75 2.005
    endloop
  endfacet
  facet normal 0 0 1
    outer loop
      vertex -13.997 3.08519 2.005
      vertex -15.85 5.5 2.005
      vertex -14.6 3.33494 2.005
    endloop
  endfacet
  facet normal 0 0 1
    outer loop
      vertex -15.85 14.5 2.005
      vertex -15.5151 15.75 2.005
      vertex -15.7648 15.147 2.005
    endloop
  endfacet
  facet normal 0 0 1
    outer loop
      vertex -14.6 3.33494 2.005
      vertex -15.85 5.5 2.005
      vertex -15.1178 3.73223 2.005
    endloop
  endfacet
  facet normal 0 0 1
    outer loop
      vertex -15.1178 3.73223 2.005
      vertex -15.85 5.5 2.005
      vertex -15.5151 4.25 2.005
    endloop
  endfacet
  facet normal 0 0 1
    outer loop
      vertex -15.5151 4.25 2.005
      vertex -15.85 5.5 2.005
      vertex -15.7648 4.85295 2.005
    endloop
  endfacet
  facet normal 0.608761 -0.793354 0
    outer loop
      vertex 14.6 3.33494 -0.00499916
      vertex 15.1178 3.73223 2.005
      vertex 14.6 3.33494 2.005
    endloop
  endfacet
  facet normal 0.608761 -0.793354 0
    outer loop
      vertex 15.1178 3.73223 2.005
      vertex 14.6 3.33494 -0.00499916
      vertex 15.1178 3.73223 -0.00499916
    endloop
  endfacet
  facet normal 0.60876 0.793354 -0
    outer loop
      vertex 15.1178 16.2678 -0.00499916
      vertex 14.6 16.6651 2.005
      vertex 15.1178 16.2678 2.005
    endloop
  endfacet
  facet normal 0.60876 0.793354 0
    outer loop
      vertex 14.6 16.6651 2.005
      vertex 15.1178 16.2678 -0.00499916
      vertex 14.6 16.6651 -0.00499916
    endloop
  endfacet
  facet normal 0.793354 -0.608761 0
    outer loop
      vertex 15.1178 3.73223 2.005
      vertex 15.5151 4.25 -0.00499916
      vertex 15.5151 4.25 2.005
    endloop
  endfacet
  facet normal 0.793354 -0.608761 0
    outer loop
      vertex 15.5151 4.25 -0.00499916
      vertex 15.1178 3.73223 2.005
      vertex 15.1178 3.73223 -0.00499916
    endloop
  endfacet
  facet normal 0.309017 -0.951057 0
    outer loop
      vertex -0.940456 11.2944 -0.00499916
      vertex 0 11.6 4
      vertex -0.940456 11.2944 4
    endloop
  endfacet
  facet normal 0.309017 -0.951057 0
    outer loop
      vertex 0 11.6 4
      vertex -0.940456 11.2944 -0.00499916
      vertex 0 11.6 -0.00499916
    endloop
  endfacet
  facet normal 1 -0 0
    outer loop
      vertex -1.52169 9.50557 4
      vertex -1.52169 10.4944 -0.00499916
      vertex -1.52169 10.4944 4
    endloop
  endfacet
  facet normal 1 0 0
    outer loop
      vertex -1.52169 10.4944 -0.00499916
      vertex -1.52169 9.50557 4
      vertex -1.52169 9.50557 -0.00499916
    endloop
  endfacet
  facet normal 0.809017 -0.587785 0
    outer loop
      vertex -1.52169 10.4944 4
      vertex -0.940456 11.2944 -0.00499916
      vertex -0.940456 11.2944 4
    endloop
  endfacet
  facet normal 0.809017 -0.587785 0
    outer loop
      vertex -0.940456 11.2944 -0.00499916
      vertex -1.52169 10.4944 4
      vertex -1.52169 10.4944 -0.00499916
    endloop
  endfacet
  facet normal 0.809017 0.587785 0
    outer loop
      vertex -0.940456 8.70557 4
      vertex -1.52169 9.50557 -0.00499916
      vertex -1.52169 9.50557 4
    endloop
  endfacet
  facet normal 0.809017 0.587785 0
    outer loop
      vertex -1.52169 9.50557 -0.00499916
      vertex -0.940456 8.70557 4
      vertex -0.940456 8.70557 -0.00499916
    endloop
  endfacet
  facet normal 0.309017 0.951057 -0
    outer loop
      vertex 0 8.4 -0.00499916
      vertex -0.940456 8.70557 4
      vertex 0 8.4 4
    endloop
  endfacet
  facet normal 0.309017 0.951057 0
    outer loop
      vertex -0.940456 8.70557 4
      vertex 0 8.4 -0.00499916
      vertex -0.940456 8.70557 -0.00499916
    endloop
  endfacet
  facet normal -0.309017 -0.951057 0
    outer loop
      vertex 0 11.6 -0.00499916
      vertex 0.940456 11.2944 4
      vertex 0 11.6 4
    endloop
  endfacet
  facet normal -0.309017 -0.951057 -0
    outer loop
      vertex 0.940456 11.2944 4
      vertex 0 11.6 -0.00499916
      vertex 0.940456 11.2944 -0.00499916
    endloop
  endfacet
  facet normal -0.309017 0.951057 0
    outer loop
      vertex 0.940456 8.70557 -0.00499916
      vertex 0 8.4 4
      vertex 0.940456 8.70557 4
    endloop
  endfacet
  facet normal -0.309017 0.951057 0
    outer loop
      vertex 0 8.4 4
      vertex 0.940456 8.70557 -0.00499916
      vertex 0 8.4 -0.00499916
    endloop
  endfacet
  facet normal -0.809017 -0.587785 0
    outer loop
      vertex 1.52169 10.4944 -0.00499916
      vertex 0.940456 11.2944 4
      vertex 0.940456 11.2944 -0.00499916
    endloop
  endfacet
  facet normal -0.809017 -0.587785 0
    outer loop
      vertex 0.940456 11.2944 4
      vertex 1.52169 10.4944 -0.00499916
      vertex 1.52169 10.4944 4
    endloop
  endfacet
  facet normal -0.809017 0.587785 0
    outer loop
      vertex 0.940456 8.70557 -0.00499916
      vertex 1.52169 9.50557 4
      vertex 1.52169 9.50557 -0.00499916
    endloop
  endfacet
  facet normal -0.809017 0.587785 0
    outer loop
      vertex 1.52169 9.50557 4
      vertex 0.940456 8.70557 -0.00499916
      vertex 0.940456 8.70557 4
    endloop
  endfacet
  facet normal -1 0 0
    outer loop
      vertex 1.52169 9.50557 -0.00499916
      vertex 1.52169 10.4944 4
      vertex 1.52169 10.4944 -0.00499916
    endloop
  endfacet
  facet normal -1 -0 0
    outer loop
      vertex 1.52169 10.4944 4
      vertex 1.52169 9.50557 -0.00499916
      vertex 1.52169 9.50557 4
    endloop
  endfacet
  facet normal 0.309017 -0.951057 0
    outer loop
      vertex -8.94046 11.2944 -0.00499916
      vertex -8 11.6 4
      vertex -8.94046 11.2944 4
    endloop
  endfacet
  facet normal 0.309017 -0.951057 0
    outer loop
      vertex -8 11.6 4
      vertex -8.94046 11.2944 -0.00499916
      vertex -8 11.6 -0.00499916
    endloop
  endfacet
  facet normal 0.809017 0.587785 0
    outer loop
      vertex -8.94046 8.70557 4
      vertex -9.52169 9.50557 -0.00499916
      vertex -9.52169 9.50557 4
    endloop
  endfacet
  facet normal 0.809017 0.587785 0
    outer loop
      vertex -9.52169 9.50557 -0.00499916
      vertex -8.94046 8.70557 4
      vertex -8.94046 8.70557 -0.00499916
    endloop
  endfacet
  facet normal 0.809017 -0.587785 0
    outer loop
      vertex -9.52169 10.4944 4
      vertex -8.94046 11.2944 -0.00499916
      vertex -8.94046 11.2944 4
    endloop
  endfacet
  facet normal 0.809017 -0.587785 0
    outer loop
      vertex -8.94046 11.2944 -0.00499916
      vertex -9.52169 10.4944 4
      vertex -9.52169 10.4944 -0.00499916
    endloop
  endfacet
  facet normal 0.309017 0.951057 -0
    outer loop
      vertex -8 8.4 -0.00499916
      vertex -8.94046 8.70557 4
      vertex -8 8.4 4
    endloop
  endfacet
  facet normal 0.309017 0.951057 0
    outer loop
      vertex -8.94046 8.70557 4
      vertex -8 8.4 -0.00499916
      vertex -8.94046 8.70557 -0.00499916
    endloop
  endfacet
  facet normal -0.309016 -0.951057 0
    outer loop
      vertex -8 11.6 -0.00499916
      vertex -7.05954 11.2944 4
      vertex -8 11.6 4
    endloop
  endfacet
  facet normal -0.309016 -0.951057 -0
    outer loop
      vertex -7.05954 11.2944 4
      vertex -8 11.6 -0.00499916
      vertex -7.05954 11.2944 -0.00499916
    endloop
  endfacet
  facet normal 1 -0 0
    outer loop
      vertex -9.52169 9.50557 4
      vertex -9.52169 10.4944 -0.00499916
      vertex -9.52169 10.4944 4
    endloop
  endfacet
  facet normal 1 0 0
    outer loop
      vertex -9.52169 10.4944 -0.00499916
      vertex -9.52169 9.50557 4
      vertex -9.52169 9.50557 -0.00499916
    endloop
  endfacet
  facet normal -0.309016 0.951057 0
    outer loop
      vertex -7.05954 8.70557 -0.00499916
      vertex -8 8.4 4
      vertex -7.05954 8.70557 4
    endloop
  endfacet
  facet normal -0.309016 0.951057 0
    outer loop
      vertex -8 8.4 4
      vertex -7.05954 8.70557 -0.00499916
      vertex -8 8.4 -0.00499916
    endloop
  endfacet
  facet normal -0.809017 0.587785 0
    outer loop
      vertex -7.05954 8.70557 -0.00499916
      vertex -6.47831 9.50557 4
      vertex -6.47831 9.50557 -0.00499916
    endloop
  endfacet
  facet normal -0.809017 0.587785 0
    outer loop
      vertex -6.47831 9.50557 4
      vertex -7.05954 8.70557 -0.00499916
      vertex -7.05954 8.70557 4
    endloop
  endfacet
  facet normal -0.809017 -0.587785 0
    outer loop
      vertex -6.47831 10.4944 -0.00499916
      vertex -7.05954 11.2944 4
      vertex -7.05954 11.2944 -0.00499916
    endloop
  endfacet
  facet normal -0.809017 -0.587785 0
    outer loop
      vertex -7.05954 11.2944 4
      vertex -6.47831 10.4944 -0.00499916
      vertex -6.47831 10.4944 4
    endloop
  endfacet
  facet normal -1 0 0
    outer loop
      vertex -6.47831 9.50557 -0.00499916
      vertex -6.47831 10.4944 4
      vertex -6.47831 10.4944 -0.00499916
    endloop
  endfacet
  facet normal -1 -0 0
    outer loop
      vertex -6.47831 10.4944 4
      vertex -6.47831 9.50557 -0.00499916
      vertex -6.47831 9.50557 4
    endloop
  endfacet
endsolid OpenSCAD_Model
