  0
SECTION
  2
BLOCKS
  0
ENDSEC
  0
SECTION
  2
ENTITIES
  0
LINE
  8
0
 10
105.874
 20
-110.486
 11
106.368
 21
-110.424
  0
LINE
  8
0
 10
106.368
 20
-110.424
 11
106.854
 21
-110.313
  0
LINE
  8
0
 10
106.854
 20
-110.313
 11
107.327
 21
-110.154
  0
LINE
  8
0
 10
107.327
 20
-110.154
 11
107.781
 21
-109.949
  0
LINE
  8
0
 10
107.781
 20
-109.949
 11
108.213
 21
-109.7
  0
LINE
  8
0
 10
108.213
 20
-109.7
 11
108.617
 21
-109.409
  0
LINE
  8
0
 10
108.617
 20
-109.409
 11
108.991
 21
-109.079
  0
LINE
  8
0
 10
108.991
 20
-109.079
 11
109.33
 21
-108.714
  0
LINE
  8
0
 10
109.33
 20
-108.714
 11
109.631
 21
-108.317
  0
LINE
  8
0
 10
109.631
 20
-108.317
 11
109.891
 21
-107.891
  0
LINE
  8
0
 10
109.891
 20
-107.891
 11
110.107
 21
-107.442
  0
LINE
  8
0
 10
110.107
 20
-107.442
 11
110.278
 21
-106.974
  0
LINE
  8
0
 10
110.278
 20
-106.974
 11
110.401
 21
-106.491
  0
LINE
  8
0
 10
110.401
 20
-106.491
 11
110.475
 21
-105.998
  0
LINE
  8
0
 10
110.475
 20
-105.998
 11
110.5
 21
-105.5
  0
LINE
  8
0
 10
110.5
 20
-105.5
 11
110.5
 21
105.5
  0
LINE
  8
0
 10
110.5
 20
105.5
 11
110.475
 21
105.998
  0
LINE
  8
0
 10
110.475
 20
105.998
 11
110.401
 21
106.491
  0
LINE
  8
0
 10
110.401
 20
106.491
 11
110.278
 21
106.974
  0
LINE
  8
0
 10
110.278
 20
106.974
 11
110.107
 21
107.442
  0
LINE
  8
0
 10
110.107
 20
107.442
 11
109.891
 21
107.891
  0
LINE
  8
0
 10
109.891
 20
107.891
 11
109.631
 21
108.317
  0
LINE
  8
0
 10
109.631
 20
108.317
 11
109.33
 21
108.714
  0
LINE
  8
0
 10
109.33
 20
108.714
 11
108.991
 21
109.079
  0
LINE
  8
0
 10
108.991
 20
109.079
 11
108.617
 21
109.409
  0
LINE
  8
0
 10
108.617
 20
109.409
 11
108.213
 21
109.7
  0
LINE
  8
0
 10
108.213
 20
109.7
 11
107.781
 21
109.949
  0
LINE
  8
0
 10
107.781
 20
109.949
 11
107.327
 21
110.154
  0
LINE
  8
0
 10
107.327
 20
110.154
 11
106.854
 21
110.313
  0
LINE
  8
0
 10
106.854
 20
110.313
 11
106.368
 21
110.424
  0
LINE
  8
0
 10
106.368
 20
110.424
 11
105.874
 21
110.486
  0
LINE
  8
0
 10
105.874
 20
110.486
 11
105.375
 21
110.498
  0
LINE
  8
0
 10
105.375
 20
110.498
 11
-105.625
 21
110.498
  0
LINE
  8
0
 10
-105.625
 20
110.498
 11
-106.122
 21
110.461
  0
LINE
  8
0
 10
-106.122
 20
110.461
 11
-106.613
 21
110.375
  0
LINE
  8
0
 10
-106.613
 20
110.375
 11
-107.092
 21
110.24
  0
LINE
  8
0
 10
-107.092
 20
110.24
 11
-107.556
 21
110.058
  0
LINE
  8
0
 10
-107.556
 20
110.058
 11
-108
 21
109.83
  0
LINE
  8
0
 10
-108
 20
109.83
 11
-108.419
 21
109.56
  0
LINE
  8
0
 10
-108.419
 20
109.56
 11
-108.808
 21
109.249
  0
LINE
  8
0
 10
-108.808
 20
109.249
 11
-109.165
 21
108.901
  0
LINE
  8
0
 10
-109.165
 20
108.901
 11
-109.486
 21
108.519
  0
LINE
  8
0
 10
-109.486
 20
108.519
 11
-109.766
 21
108.107
  0
LINE
  8
0
 10
-109.766
 20
108.107
 11
-110.005
 21
107.669
  0
LINE
  8
0
 10
-110.005
 20
107.669
 11
-110.198
 21
107.21
  0
LINE
  8
0
 10
-110.198
 20
107.21
 11
-110.345
 21
106.734
  0
LINE
  8
0
 10
-110.345
 20
106.734
 11
-110.444
 21
106.245
  0
LINE
  8
0
 10
-110.444
 20
106.245
 11
-110.494
 21
105.749
  0
LINE
  8
0
 10
-110.494
 20
105.749
 11
-110.494
 21
-105.749
  0
LINE
  8
0
 10
-110.494
 20
-105.749
 11
-110.444
 21
-106.245
  0
LINE
  8
0
 10
-110.444
 20
-106.245
 11
-110.345
 21
-106.734
  0
LINE
  8
0
 10
-110.345
 20
-106.734
 11
-110.198
 21
-107.21
  0
LINE
  8
0
 10
-110.198
 20
-107.21
 11
-110.005
 21
-107.669
  0
LINE
  8
0
 10
-110.005
 20
-107.669
 11
-109.766
 21
-108.107
  0
LINE
  8
0
 10
-109.766
 20
-108.107
 11
-109.486
 21
-108.519
  0
LINE
  8
0
 10
-109.486
 20
-108.519
 11
-109.165
 21
-108.901
  0
LINE
  8
0
 10
-109.165
 20
-108.901
 11
-108.808
 21
-109.249
  0
LINE
  8
0
 10
-108.808
 20
-109.249
 11
-108.419
 21
-109.56
  0
LINE
  8
0
 10
-108.419
 20
-109.56
 11
-108
 21
-109.83
  0
LINE
  8
0
 10
-108
 20
-109.83
 11
-107.556
 21
-110.058
  0
LINE
  8
0
 10
-107.556
 20
-110.058
 11
-107.092
 21
-110.24
  0
LINE
  8
0
 10
-107.092
 20
-110.24
 11
-106.613
 21
-110.375
  0
LINE
  8
0
 10
-106.613
 20
-110.375
 11
-106.122
 21
-110.461
  0
LINE
  8
0
 10
-106.122
 20
-110.461
 11
-105.625
 21
-110.498
  0
LINE
  8
0
 10
-105.625
 20
-110.498
 11
105.375
 21
-110.498
  0
LINE
  8
0
 10
105.375
 20
-110.498
 11
105.874
 21
-110.486
  0
LINE
  8
0
 10
105.144
 20
103.94
 11
104.7
 21
104.114
  0
LINE
  8
0
 10
104.7
 20
104.114
 11
104.327
 21
104.412
  0
LINE
  8
0
 10
104.327
 20
104.412
 11
104.058
 21
104.806
  0
LINE
  8
0
 10
104.058
 20
104.806
 11
103.918
 21
105.262
  0
LINE
  8
0
 10
103.918
 20
105.262
 11
103.918
 21
105.738
  0
LINE
  8
0
 10
103.918
 20
105.738
 11
104.058
 21
106.194
  0
LINE
  8
0
 10
104.058
 20
106.194
 11
104.327
 21
106.588
  0
LINE
  8
0
 10
104.327
 20
106.588
 11
104.7
 21
106.886
  0
LINE
  8
0
 10
104.7
 20
106.886
 11
105.144
 21
107.06
  0
LINE
  8
0
 10
105.144
 20
107.06
 11
105.62
 21
107.096
  0
LINE
  8
0
 10
105.62
 20
107.096
 11
106.085
 21
106.989
  0
LINE
  8
0
 10
106.085
 20
106.989
 11
106.498
 21
106.751
  0
LINE
  8
0
 10
106.498
 20
106.751
 11
106.822
 21
106.401
  0
LINE
  8
0
 10
106.822
 20
106.401
 11
107.029
 21
105.972
  0
LINE
  8
0
 10
107.029
 20
105.972
 11
107.1
 21
105.5
  0
LINE
  8
0
 10
107.1
 20
105.5
 11
107.029
 21
105.028
  0
LINE
  8
0
 10
107.029
 20
105.028
 11
106.822
 21
104.599
  0
LINE
  8
0
 10
106.822
 20
104.599
 11
106.498
 21
104.249
  0
LINE
  8
0
 10
106.498
 20
104.249
 11
106.085
 21
104.011
  0
LINE
  8
0
 10
106.085
 20
104.011
 11
105.62
 21
103.904
  0
LINE
  8
0
 10
105.62
 20
103.904
 11
105.144
 21
103.94
  0
LINE
  8
0
 10
-105.856
 20
103.94
 11
-106.3
 21
104.114
  0
LINE
  8
0
 10
-106.3
 20
104.114
 11
-106.673
 21
104.412
  0
LINE
  8
0
 10
-106.673
 20
104.412
 11
-106.942
 21
104.806
  0
LINE
  8
0
 10
-106.942
 20
104.806
 11
-107.082
 21
105.262
  0
LINE
  8
0
 10
-107.082
 20
105.262
 11
-107.082
 21
105.738
  0
LINE
  8
0
 10
-107.082
 20
105.738
 11
-106.942
 21
106.194
  0
LINE
  8
0
 10
-106.942
 20
106.194
 11
-106.673
 21
106.588
  0
LINE
  8
0
 10
-106.673
 20
106.588
 11
-106.3
 21
106.886
  0
LINE
  8
0
 10
-106.3
 20
106.886
 11
-105.856
 21
107.06
  0
LINE
  8
0
 10
-105.856
 20
107.06
 11
-105.38
 21
107.096
  0
LINE
  8
0
 10
-105.38
 20
107.096
 11
-104.915
 21
106.989
  0
LINE
  8
0
 10
-104.915
 20
106.989
 11
-104.502
 21
106.751
  0
LINE
  8
0
 10
-104.502
 20
106.751
 11
-104.178
 21
106.401
  0
LINE
  8
0
 10
-104.178
 20
106.401
 11
-103.971
 21
105.972
  0
LINE
  8
0
 10
-103.971
 20
105.972
 11
-103.9
 21
105.5
  0
LINE
  8
0
 10
-103.9
 20
105.5
 11
-103.971
 21
105.028
  0
LINE
  8
0
 10
-103.971
 20
105.028
 11
-104.178
 21
104.599
  0
LINE
  8
0
 10
-104.178
 20
104.599
 11
-104.502
 21
104.249
  0
LINE
  8
0
 10
-104.502
 20
104.249
 11
-104.915
 21
104.011
  0
LINE
  8
0
 10
-104.915
 20
104.011
 11
-105.38
 21
103.904
  0
LINE
  8
0
 10
-105.38
 20
103.904
 11
-105.856
 21
103.94
  0
LINE
  8
0
 10
64.3767
 20
45.0078
 11
63.8784
 21
45.0252
  0
LINE
  8
0
 10
63.8784
 20
45.0252
 11
63.3805
 21
45.0525
  0
LINE
  8
0
 10
63.3805
 20
45.0525
 11
62.8832
 21
45.0898
  0
LINE
  8
0
 10
62.8832
 20
45.0898
 11
62.3868
 21
45.1369
  0
LINE
  8
0
 10
62.3868
 20
45.1369
 11
61.8914
 21
45.194
  0
LINE
  8
0
 10
61.8914
 20
45.194
 11
61.3973
 21
45.261
  0
LINE
  8
0
 10
61.3973
 20
45.261
 11
60.9045
 21
45.3377
  0
LINE
  8
0
 10
60.9045
 20
45.3377
 11
60.4135
 21
45.4243
  0
LINE
  8
0
 10
60.4135
 20
45.4243
 11
59.9242
 21
45.5207
  0
LINE
  8
0
 10
59.9242
 20
45.5207
 11
59.437
 21
45.6268
  0
LINE
  8
0
 10
59.437
 20
45.6268
 11
58.952
 21
45.7426
  0
LINE
  8
0
 10
58.952
 20
45.7426
 11
58.4693
 21
45.8681
  0
LINE
  8
0
 10
58.4693
 20
45.8681
 11
57.9893
 21
46.0031
  0
LINE
  8
0
 10
57.9893
 20
46.0031
 11
57.5121
 21
46.1477
  0
LINE
  8
0
 10
57.5121
 20
46.1477
 11
57.0378
 21
46.3018
  0
LINE
  8
0
 10
57.0378
 20
46.3018
 11
56.5667
 21
46.4653
  0
LINE
  8
0
 10
56.5667
 20
46.4653
 11
56.099
 21
46.6382
  0
LINE
  8
0
 10
56.099
 20
46.6382
 11
55.6348
 21
46.8204
  0
LINE
  8
0
 10
55.6348
 20
46.8204
 11
55.1744
 21
47.0118
  0
LINE
  8
0
 10
55.1744
 20
47.0118
 11
54.7178
 21
47.2123
  0
LINE
  8
0
 10
54.7178
 20
47.2123
 11
54.2654
 21
47.422
  0
LINE
  8
0
 10
54.2654
 20
47.422
 11
53.8172
 21
47.6406
  0
LINE
  8
0
 10
53.8172
 20
47.6406
 11
53.3734
 21
47.8681
  0
LINE
  8
0
 10
53.3734
 20
47.8681
 11
52.9343
 21
48.1044
  0
LINE
  8
0
 10
52.9343
 20
48.1044
 11
52.5
 21
48.3493
  0
LINE
  8
0
 10
52.5
 20
48.3493
 11
52.0706
 21
48.603
  0
LINE
  8
0
 10
52.0706
 20
48.603
 11
51.6465
 21
48.8651
  0
LINE
  8
0
 10
51.6465
 20
48.8651
 11
51.2276
 21
49.1357
  0
LINE
  8
0
 10
51.2276
 20
49.1357
 11
50.8142
 21
49.4145
  0
LINE
  8
0
 10
50.8142
 20
49.4145
 11
50.4064
 21
49.7015
  0
LINE
  8
0
 10
50.4064
 20
49.7015
 11
50.0044
 21
49.9967
  0
LINE
  8
0
 10
50.0044
 20
49.9967
 11
49.6085
 21
50.2997
  0
LINE
  8
0
 10
49.6085
 20
50.2997
 11
49.2186
 21
50.6106
  0
LINE
  8
0
 10
49.2186
 20
50.6106
 11
48.835
 21
50.9293
  0
LINE
  8
0
 10
48.835
 20
50.9293
 11
48.4578
 21
51.2555
  0
LINE
  8
0
 10
48.4578
 20
51.2555
 11
48.0873
 21
51.5891
  0
LINE
  8
0
 10
48.0873
 20
51.5891
 11
47.7234
 21
51.9301
  0
LINE
  8
0
 10
47.7234
 20
51.9301
 11
47.3665
 21
52.2783
  0
LINE
  8
0
 10
47.3665
 20
52.2783
 11
47.0165
 21
52.6335
  0
LINE
  8
0
 10
47.0165
 20
52.6335
 11
46.6737
 21
52.9957
  0
LINE
  8
0
 10
46.6737
 20
52.9957
 11
46.3382
 21
53.3646
  0
LINE
  8
0
 10
46.3382
 20
53.3646
 11
46.0101
 21
53.7401
  0
LINE
  8
0
 10
46.0101
 20
53.7401
 11
45.6896
 21
54.1221
  0
LINE
  8
0
 10
45.6896
 20
54.1221
 11
45.3767
 21
54.5104
  0
LINE
  8
0
 10
45.3767
 20
54.5104
 11
45.0717
 21
54.9049
  0
LINE
  8
0
 10
45.0717
 20
54.9049
 11
44.7746
 21
55.3054
  0
LINE
  8
0
 10
44.7746
 20
55.3054
 11
44.4855
 21
55.7117
  0
LINE
  8
0
 10
44.4855
 20
55.7117
 11
44.2046
 21
56.1237
  0
LINE
  8
0
 10
44.2046
 20
56.1237
 11
43.932
 21
56.5412
  0
LINE
  8
0
 10
43.932
 20
56.5412
 11
43.6677
 21
56.9641
  0
LINE
  8
0
 10
43.6677
 20
56.9641
 11
43.412
 21
57.3922
  0
LINE
  8
0
 10
43.412
 20
57.3922
 11
43.1648
 21
57.8253
  0
LINE
  8
0
 10
43.1648
 20
57.8253
 11
42.9263
 21
58.2632
  0
LINE
  8
0
 10
42.9263
 20
58.2632
 11
42.6966
 21
58.7058
  0
LINE
  8
0
 10
42.6966
 20
58.7058
 11
42.4758
 21
59.1529
  0
LINE
  8
0
 10
42.4758
 20
59.1529
 11
42.2639
 21
59.6043
  0
LINE
  8
0
 10
42.2639
 20
59.6043
 11
42.0611
 21
60.0599
  0
LINE
  8
0
 10
42.0611
 20
60.0599
 11
41.8674
 21
60.5194
  0
LINE
  8
0
 10
41.8674
 20
60.5194
 11
41.6829
 21
60.9826
  0
LINE
  8
0
 10
41.6829
 20
60.9826
 11
41.5077
 21
61.4495
  0
LINE
  8
0
 10
41.5077
 20
61.4495
 11
41.3418
 21
61.9198
  0
LINE
  8
0
 10
41.3418
 20
61.9198
 11
41.1853
 21
62.3932
  0
LINE
  8
0
 10
41.1853
 20
62.3932
 11
41.0384
 21
62.8697
  0
LINE
  8
0
 10
41.0384
 20
62.8697
 11
40.9009
 21
63.3491
  0
LINE
  8
0
 10
40.9009
 20
63.3491
 11
40.7731
 21
63.8311
  0
LINE
  8
0
 10
40.7731
 20
63.8311
 11
40.6548
 21
64.3155
  0
LINE
  8
0
 10
40.6548
 20
64.3155
 11
40.5463
 21
64.8022
  0
LINE
  8
0
 10
40.5463
 20
64.8022
 11
40.4475
 21
65.291
  0
LINE
  8
0
 10
40.4475
 20
65.291
 11
40.3585
 21
65.7816
  0
LINE
  8
0
 10
40.3585
 20
65.7816
 11
40.2792
 21
66.2739
  0
LINE
  8
0
 10
40.2792
 20
66.2739
 11
40.2098
 21
66.7677
  0
LINE
  8
0
 10
40.2098
 20
66.7677
 11
40.1503
 21
67.2628
  0
LINE
  8
0
 10
40.1503
 20
67.2628
 11
40.1006
 21
67.759
  0
LINE
  8
0
 10
40.1006
 20
67.759
 11
40.0609
 21
68.2561
  0
LINE
  8
0
 10
40.0609
 20
68.2561
 11
40.0311
 21
68.7538
  0
LINE
  8
0
 10
40.0311
 20
68.7538
 11
40.0112
 21
69.2521
  0
LINE
  8
0
 10
40.0112
 20
69.2521
 11
40.0012
 21
69.7507
  0
LINE
  8
0
 10
40.0012
 20
69.7507
 11
40.0012
 21
70.2493
  0
LINE
  8
0
 10
40.0012
 20
70.2493
 11
40.0112
 21
70.7479
  0
LINE
  8
0
 10
40.0112
 20
70.7479
 11
40.0311
 21
71.2461
  0
LINE
  8
0
 10
40.0311
 20
71.2461
 11
40.0609
 21
71.7439
  0
LINE
  8
0
 10
40.0609
 20
71.7439
 11
40.1006
 21
72.241
  0
LINE
  8
0
 10
40.1006
 20
72.241
 11
40.1503
 21
72.7372
  0
LINE
  8
0
 10
40.1503
 20
72.7372
 11
40.2098
 21
73.2322
  0
LINE
  8
0
 10
40.2098
 20
73.2322
 11
40.2792
 21
73.726
  0
LINE
  8
0
 10
40.2792
 20
73.726
 11
40.3585
 21
74.2184
  0
LINE
  8
0
 10
40.3585
 20
74.2184
 11
40.4475
 21
74.709
  0
LINE
  8
0
 10
40.4475
 20
74.709
 11
40.5463
 21
75.1978
  0
LINE
  8
0
 10
40.5463
 20
75.1978
 11
40.6548
 21
75.6845
  0
LINE
  8
0
 10
40.6548
 20
75.6845
 11
40.7731
 21
76.1689
  0
LINE
  8
0
 10
40.7731
 20
76.1689
 11
40.9009
 21
76.6509
  0
LINE
  8
0
 10
40.9009
 20
76.6509
 11
41.0384
 21
77.1302
  0
LINE
  8
0
 10
41.0384
 20
77.1302
 11
41.1853
 21
77.6068
  0
LINE
  8
0
 10
41.1853
 20
77.6068
 11
41.3418
 21
78.0802
  0
LINE
  8
0
 10
41.3418
 20
78.0802
 11
41.5077
 21
78.5505
  0
LINE
  8
0
 10
41.5077
 20
78.5505
 11
41.6829
 21
79.0173
  0
LINE
  8
0
 10
41.6829
 20
79.0173
 11
41.8674
 21
79.4806
  0
LINE
  8
0
 10
41.8674
 20
79.4806
 11
42.0611
 21
79.9401
  0
LINE
  8
0
 10
42.0611
 20
79.9401
 11
42.2639
 21
80.3957
  0
LINE
  8
0
 10
42.2639
 20
80.3957
 11
42.4758
 21
80.8471
  0
LINE
  8
0
 10
42.4758
 20
80.8471
 11
42.6966
 21
81.2942
  0
LINE
  8
0
 10
42.6966
 20
81.2942
 11
42.9263
 21
81.7368
  0
LINE
  8
0
 10
42.9263
 20
81.7368
 11
43.1648
 21
82.1747
  0
LINE
  8
0
 10
43.1648
 20
82.1747
 11
43.412
 21
82.6078
  0
LINE
  8
0
 10
43.412
 20
82.6078
 11
43.6677
 21
83.0359
  0
LINE
  8
0
 10
43.6677
 20
83.0359
 11
43.932
 21
83.4588
  0
LINE
  8
0
 10
43.932
 20
83.4588
 11
44.2046
 21
83.8763
  0
LINE
  8
0
 10
44.2046
 20
83.8763
 11
44.4855
 21
84.2883
  0
LINE
  8
0
 10
44.4855
 20
84.2883
 11
44.7746
 21
84.6946
  0
LINE
  8
0
 10
44.7746
 20
84.6946
 11
45.0717
 21
85.0951
  0
LINE
  8
0
 10
45.0717
 20
85.0951
 11
45.3767
 21
85.4896
  0
LINE
  8
0
 10
45.3767
 20
85.4896
 11
45.6896
 21
85.8779
  0
LINE
  8
0
 10
45.6896
 20
85.8779
 11
46.0101
 21
86.2599
  0
LINE
  8
0
 10
46.0101
 20
86.2599
 11
46.3382
 21
86.6354
  0
LINE
  8
0
 10
46.3382
 20
86.6354
 11
46.6737
 21
87.0043
  0
LINE
  8
0
 10
46.6737
 20
87.0043
 11
47.0165
 21
87.3665
  0
LINE
  8
0
 10
47.0165
 20
87.3665
 11
47.3665
 21
87.7217
  0
LINE
  8
0
 10
47.3665
 20
87.7217
 11
47.7234
 21
88.0699
  0
LINE
  8
0
 10
47.7234
 20
88.0699
 11
48.0873
 21
88.4109
  0
LINE
  8
0
 10
48.0873
 20
88.4109
 11
48.4578
 21
88.7445
  0
LINE
  8
0
 10
48.4578
 20
88.7445
 11
48.835
 21
89.0707
  0
LINE
  8
0
 10
48.835
 20
89.0707
 11
49.2186
 21
89.3894
  0
LINE
  8
0
 10
49.2186
 20
89.3894
 11
49.6085
 21
89.7003
  0
LINE
  8
0
 10
49.6085
 20
89.7003
 11
50.0044
 21
90.0033
  0
LINE
  8
0
 10
50.0044
 20
90.0033
 11
50.4064
 21
90.2984
  0
LINE
  8
0
 10
50.4064
 20
90.2984
 11
50.8142
 21
90.5855
  0
LINE
  8
0
 10
50.8142
 20
90.5855
 11
51.2276
 21
90.8643
  0
LINE
  8
0
 10
51.2276
 20
90.8643
 11
51.6465
 21
91.1349
  0
LINE
  8
0
 10
51.6465
 20
91.1349
 11
52.0706
 21
91.397
  0
LINE
  8
0
 10
52.0706
 20
91.397
 11
52.5
 21
91.6506
  0
LINE
  8
0
 10
52.5
 20
91.6506
 11
52.9343
 21
91.8956
  0
LINE
  8
0
 10
52.9343
 20
91.8956
 11
53.3734
 21
92.1319
  0
LINE
  8
0
 10
53.3734
 20
92.1319
 11
53.8172
 21
92.3594
  0
LINE
  8
0
 10
53.8172
 20
92.3594
 11
54.2654
 21
92.578
  0
LINE
  8
0
 10
54.2654
 20
92.578
 11
54.7178
 21
92.7876
  0
LINE
  8
0
 10
54.7178
 20
92.7876
 11
55.1744
 21
92.9882
  0
LINE
  8
0
 10
55.1744
 20
92.9882
 11
55.6348
 21
93.1796
  0
LINE
  8
0
 10
55.6348
 20
93.1796
 11
56.099
 21
93.3618
  0
LINE
  8
0
 10
56.099
 20
93.3618
 11
56.5667
 21
93.5347
  0
LINE
  8
0
 10
56.5667
 20
93.5347
 11
57.0378
 21
93.6982
  0
LINE
  8
0
 10
57.0378
 20
93.6982
 11
57.5121
 21
93.8523
  0
LINE
  8
0
 10
57.5121
 20
93.8523
 11
57.9893
 21
93.9969
  0
LINE
  8
0
 10
57.9893
 20
93.9969
 11
58.4693
 21
94.1319
  0
LINE
  8
0
 10
58.4693
 20
94.1319
 11
58.952
 21
94.2574
  0
LINE
  8
0
 10
58.952
 20
94.2574
 11
59.437
 21
94.3732
  0
LINE
  8
0
 10
59.437
 20
94.3732
 11
59.9242
 21
94.4793
  0
LINE
  8
0
 10
59.9242
 20
94.4793
 11
60.4135
 21
94.5757
  0
LINE
  8
0
 10
60.4135
 20
94.5757
 11
60.9045
 21
94.6623
  0
LINE
  8
0
 10
60.9045
 20
94.6623
 11
61.3973
 21
94.739
  0
LINE
  8
0
 10
61.3973
 20
94.739
 11
61.8914
 21
94.806
  0
LINE
  8
0
 10
61.8914
 20
94.806
 11
62.3868
 21
94.863
  0
LINE
  8
0
 10
62.3868
 20
94.863
 11
62.8832
 21
94.9102
  0
LINE
  8
0
 10
62.8832
 20
94.9102
 11
63.3805
 21
94.9475
  0
LINE
  8
0
 10
63.3805
 20
94.9475
 11
63.8784
 21
94.9748
  0
LINE
  8
0
 10
63.8784
 20
94.9748
 11
64.3767
 21
94.9922
  0
LINE
  8
0
 10
64.3767
 20
94.9922
 11
64.8753
 21
94.9997
  0
LINE
  8
0
 10
64.8753
 20
94.9997
 11
65.374
 21
94.9972
  0
LINE
  8
0
 10
65.374
 20
94.9972
 11
65.8725
 21
94.9848
  0
LINE
  8
0
 10
65.8725
 20
94.9848
 11
66.3706
 21
94.9624
  0
LINE
  8
0
 10
66.3706
 20
94.9624
 11
66.8682
 21
94.9301
  0
LINE
  8
0
 10
66.8682
 20
94.9301
 11
67.3651
 21
94.8879
  0
LINE
  8
0
 10
67.3651
 20
94.8879
 11
67.861
 21
94.8357
  0
LINE
  8
0
 10
67.861
 20
94.8357
 11
68.3558
 21
94.7737
  0
LINE
  8
0
 10
68.3558
 20
94.7737
 11
68.8493
 21
94.7019
  0
LINE
  8
0
 10
68.8493
 20
94.7019
 11
69.3412
 21
94.6202
  0
LINE
  8
0
 10
69.3412
 20
94.6202
 11
69.8314
 21
94.5287
  0
LINE
  8
0
 10
69.8314
 20
94.5287
 11
70.3197
 21
94.4275
  0
LINE
  8
0
 10
70.3197
 20
94.4275
 11
70.8058
 21
94.3165
  0
LINE
  8
0
 10
70.8058
 20
94.3165
 11
71.2897
 21
94.1959
  0
LINE
  8
0
 10
71.2897
 20
94.1959
 11
71.771
 21
94.0656
  0
LINE
  8
0
 10
71.771
 20
94.0656
 11
72.2496
 21
93.9258
  0
LINE
  8
0
 10
72.2496
 20
93.9258
 11
72.7254
 21
93.7764
  0
LINE
  8
0
 10
72.7254
 20
93.7764
 11
73.1981
 21
93.6176
  0
LINE
  8
0
 10
73.1981
 20
93.6176
 11
73.6675
 21
93.4494
  0
LINE
  8
0
 10
73.6675
 20
93.4494
 11
74.1335
 21
93.2718
  0
LINE
  8
0
 10
74.1335
 20
93.2718
 11
74.5959
 21
93.085
  0
LINE
  8
0
 10
74.5959
 20
93.085
 11
75.0544
 21
92.8891
  0
LINE
  8
0
 10
75.0544
 20
92.8891
 11
75.5089
 21
92.684
  0
LINE
  8
0
 10
75.5089
 20
92.684
 11
75.9593
 21
92.4698
  0
LINE
  8
0
 10
75.9593
 20
92.4698
 11
76.4053
 21
92.2468
  0
LINE
  8
0
 10
76.4053
 20
92.2468
 11
76.8467
 21
92.0149
  0
LINE
  8
0
 10
76.8467
 20
92.0149
 11
77.2834
 21
91.7742
  0
LINE
  8
0
 10
77.2834
 20
91.7742
 11
77.7153
 21
91.5249
  0
LINE
  8
0
 10
77.7153
 20
91.5249
 11
78.1421
 21
91.267
  0
LINE
  8
0
 10
78.1421
 20
91.267
 11
78.5636
 21
91.0006
  0
LINE
  8
0
 10
78.5636
 20
91.0006
 11
78.9798
 21
90.7259
  0
LINE
  8
0
 10
78.9798
 20
90.7259
 11
79.3904
 21
90.443
  0
LINE
  8
0
 10
79.3904
 20
90.443
 11
79.7953
 21
90.1519
  0
LINE
  8
0
 10
79.7953
 20
90.1519
 11
80.1943
 21
89.8528
  0
LINE
  8
0
 10
80.1943
 20
89.8528
 11
80.5872
 21
89.5458
  0
LINE
  8
0
 10
80.5872
 20
89.5458
 11
80.974
 21
89.231
  0
LINE
  8
0
 10
80.974
 20
89.231
 11
81.3544
 21
88.9086
  0
LINE
  8
0
 10
81.3544
 20
88.9086
 11
81.7283
 21
88.5786
  0
LINE
  8
0
 10
81.7283
 20
88.5786
 11
82.0955
 21
88.2413
  0
LINE
  8
0
 10
82.0955
 20
88.2413
 11
82.4559
 21
87.8967
  0
LINE
  8
0
 10
82.4559
 20
87.8967
 11
82.8094
 21
87.5449
  0
LINE
  8
0
 10
82.8094
 20
87.5449
 11
83.1558
 21
87.1862
  0
LINE
  8
0
 10
83.1558
 20
87.1862
 11
83.495
 21
86.8207
  0
LINE
  8
0
 10
83.495
 20
86.8207
 11
83.8268
 21
86.4485
  0
LINE
  8
0
 10
83.8268
 20
86.4485
 11
84.1511
 21
86.0697
  0
LINE
  8
0
 10
84.1511
 20
86.0697
 11
84.4678
 21
85.6845
  0
LINE
  8
0
 10
84.4678
 20
85.6845
 11
84.7768
 21
85.2931
  0
LINE
  8
0
 10
84.7768
 20
85.2931
 11
85.0779
 21
84.8956
  0
LINE
  8
0
 10
85.0779
 20
84.8956
 11
85.371
 21
84.4922
  0
LINE
  8
0
 10
85.371
 20
84.4922
 11
85.656
 21
84.083
  0
LINE
  8
0
 10
85.656
 20
84.083
 11
85.9327
 21
83.6682
  0
LINE
  8
0
 10
85.9327
 20
83.6682
 11
86.2012
 21
83.248
  0
LINE
  8
0
 10
86.2012
 20
83.248
 11
86.4612
 21
82.8225
  0
LINE
  8
0
 10
86.4612
 20
82.8225
 11
86.7127
 21
82.3919
  0
LINE
  8
0
 10
86.7127
 20
82.3919
 11
86.9555
 21
81.9563
  0
LINE
  8
0
 10
86.9555
 20
81.9563
 11
87.1896
 21
81.5161
  0
LINE
  8
0
 10
87.1896
 20
81.5161
 11
87.4149
 21
81.0712
  0
LINE
  8
0
 10
87.4149
 20
81.0712
 11
87.6313
 21
80.6219
  0
LINE
  8
0
 10
87.6313
 20
80.6219
 11
87.8386
 21
80.1684
  0
LINE
  8
0
 10
87.8386
 20
80.1684
 11
88.0369
 21
79.7109
  0
LINE
  8
0
 10
88.0369
 20
79.7109
 11
88.226
 21
79.2495
  0
LINE
  8
0
 10
88.226
 20
79.2495
 11
88.4059
 21
78.7844
  0
LINE
  8
0
 10
88.4059
 20
78.7844
 11
88.5764
 21
78.3158
  0
LINE
  8
0
 10
88.5764
 20
78.3158
 11
88.7376
 21
77.8439
  0
LINE
  8
0
 10
88.7376
 20
77.8439
 11
88.8893
 21
77.3689
  0
LINE
  8
0
 10
88.8893
 20
77.3689
 11
89.0315
 21
76.8909
  0
LINE
  8
0
 10
89.0315
 20
76.8909
 11
89.1642
 21
76.4102
  0
LINE
  8
0
 10
89.1642
 20
76.4102
 11
89.2872
 21
75.927
  0
LINE
  8
0
 10
89.2872
 20
75.927
 11
89.4006
 21
75.4414
  0
LINE
  8
0
 10
89.4006
 20
75.4414
 11
89.5043
 21
74.9536
  0
LINE
  8
0
 10
89.5043
 20
74.9536
 11
89.5982
 21
74.4639
  0
LINE
  8
0
 10
89.5982
 20
74.4639
 11
89.6824
 21
73.9724
  0
LINE
  8
0
 10
89.6824
 20
73.9724
 11
89.7567
 21
73.4793
  0
LINE
  8
0
 10
89.7567
 20
73.4793
 11
89.8212
 21
72.9848
  0
LINE
  8
0
 10
89.8212
 20
72.9848
 11
89.8758
 21
72.4892
  0
LINE
  8
0
 10
89.8758
 20
72.4892
 11
89.9205
 21
71.9925
  0
LINE
  8
0
 10
89.9205
 20
71.9925
 11
89.9552
 21
71.4951
  0
LINE
  8
0
 10
89.9552
 20
71.4951
 11
89.9801
 21
70.9971
  0
LINE
  8
0
 10
89.9801
 20
70.9971
 11
89.995
 21
70.4986
  0
LINE
  8
0
 10
89.995
 20
70.4986
 11
90
 21
70
  0
LINE
  8
0
 10
90
 20
70
 11
89.995
 21
69.5014
  0
LINE
  8
0
 10
89.995
 20
69.5014
 11
89.9801
 21
69.0029
  0
LINE
  8
0
 10
89.9801
 20
69.0029
 11
89.9552
 21
68.5049
  0
LINE
  8
0
 10
89.9552
 20
68.5049
 11
89.9205
 21
68.0074
  0
LINE
  8
0
 10
89.9205
 20
68.0074
 11
89.8758
 21
67.5108
  0
LINE
  8
0
 10
89.8758
 20
67.5108
 11
89.8212
 21
67.0151
  0
LINE
  8
0
 10
89.8212
 20
67.0151
 11
89.7567
 21
66.5207
  0
LINE
  8
0
 10
89.7567
 20
66.5207
 11
89.6824
 21
66.0276
  0
LINE
  8
0
 10
89.6824
 20
66.0276
 11
89.5982
 21
65.5361
  0
LINE
  8
0
 10
89.5982
 20
65.5361
 11
89.5043
 21
65.0463
  0
LINE
  8
0
 10
89.5043
 20
65.0463
 11
89.4006
 21
64.5586
  0
LINE
  8
0
 10
89.4006
 20
64.5586
 11
89.2872
 21
64.073
  0
LINE
  8
0
 10
89.2872
 20
64.073
 11
89.1642
 21
63.5898
  0
LINE
  8
0
 10
89.1642
 20
63.5898
 11
89.0315
 21
63.1091
  0
LINE
  8
0
 10
89.0315
 20
63.1091
 11
88.8893
 21
62.6311
  0
LINE
  8
0
 10
88.8893
 20
62.6311
 11
88.7376
 21
62.1561
  0
LINE
  8
0
 10
88.7376
 20
62.1561
 11
88.5764
 21
61.6842
  0
LINE
  8
0
 10
88.5764
 20
61.6842
 11
88.4059
 21
61.2156
  0
LINE
  8
0
 10
88.4059
 20
61.2156
 11
88.226
 21
60.7505
  0
LINE
  8
0
 10
88.226
 20
60.7505
 11
88.0369
 21
60.2891
  0
LINE
  8
0
 10
88.0369
 20
60.2891
 11
87.8386
 21
59.8316
  0
LINE
  8
0
 10
87.8386
 20
59.8316
 11
87.6313
 21
59.3781
  0
LINE
  8
0
 10
87.6313
 20
59.3781
 11
87.4149
 21
58.9288
  0
LINE
  8
0
 10
87.4149
 20
58.9288
 11
87.1896
 21
58.4839
  0
LINE
  8
0
 10
87.1896
 20
58.4839
 11
86.9555
 21
58.0436
  0
LINE
  8
0
 10
86.9555
 20
58.0436
 11
86.7127
 21
57.6081
  0
LINE
  8
0
 10
86.7127
 20
57.6081
 11
86.4612
 21
57.1775
  0
LINE
  8
0
 10
86.4612
 20
57.1775
 11
86.2012
 21
56.752
  0
LINE
  8
0
 10
86.2012
 20
56.752
 11
85.9327
 21
56.3318
  0
LINE
  8
0
 10
85.9327
 20
56.3318
 11
85.656
 21
55.917
  0
LINE
  8
0
 10
85.656
 20
55.917
 11
85.371
 21
55.5078
  0
LINE
  8
0
 10
85.371
 20
55.5078
 11
85.0779
 21
55.1044
  0
LINE
  8
0
 10
85.0779
 20
55.1044
 11
84.7768
 21
54.7069
  0
LINE
  8
0
 10
84.7768
 20
54.7069
 11
84.4678
 21
54.3155
  0
LINE
  8
0
 10
84.4678
 20
54.3155
 11
84.1511
 21
53.9303
  0
LINE
  8
0
 10
84.1511
 20
53.9303
 11
83.8268
 21
53.5515
  0
LINE
  8
0
 10
83.8268
 20
53.5515
 11
83.495
 21
53.1793
  0
LINE
  8
0
 10
83.495
 20
53.1793
 11
83.1558
 21
52.8138
  0
LINE
  8
0
 10
83.1558
 20
52.8138
 11
82.8094
 21
52.455
  0
LINE
  8
0
 10
82.8094
 20
52.455
 11
82.4559
 21
52.1033
  0
LINE
  8
0
 10
82.4559
 20
52.1033
 11
82.0955
 21
51.7587
  0
LINE
  8
0
 10
82.0955
 20
51.7587
 11
81.7283
 21
51.4214
  0
LINE
  8
0
 10
81.7283
 20
51.4214
 11
81.3544
 21
51.0914
  0
LINE
  8
0
 10
81.3544
 20
51.0914
 11
80.974
 21
50.769
  0
LINE
  8
0
 10
80.974
 20
50.769
 11
80.5872
 21
50.4542
  0
LINE
  8
0
 10
80.5872
 20
50.4542
 11
80.1943
 21
50.1472
  0
LINE
  8
0
 10
80.1943
 20
50.1472
 11
79.7953
 21
49.8481
  0
LINE
  8
0
 10
79.7953
 20
49.8481
 11
79.3904
 21
49.557
  0
LINE
  8
0
 10
79.3904
 20
49.557
 11
78.9798
 21
49.274
  0
LINE
  8
0
 10
78.9798
 20
49.274
 11
78.5636
 21
48.9993
  0
LINE
  8
0
 10
78.5636
 20
48.9993
 11
78.1421
 21
48.733
  0
LINE
  8
0
 10
78.1421
 20
48.733
 11
77.7153
 21
48.4751
  0
LINE
  8
0
 10
77.7153
 20
48.4751
 11
77.2834
 21
48.2258
  0
LINE
  8
0
 10
77.2834
 20
48.2258
 11
76.8467
 21
47.9851
  0
LINE
  8
0
 10
76.8467
 20
47.9851
 11
76.4053
 21
47.7532
  0
LINE
  8
0
 10
76.4053
 20
47.7532
 11
75.9593
 21
47.5301
  0
LINE
  8
0
 10
75.9593
 20
47.5301
 11
75.5089
 21
47.316
  0
LINE
  8
0
 10
75.5089
 20
47.316
 11
75.0544
 21
47.1109
  0
LINE
  8
0
 10
75.0544
 20
47.1109
 11
74.5959
 21
46.9149
  0
LINE
  8
0
 10
74.5959
 20
46.9149
 11
74.1335
 21
46.7281
  0
LINE
  8
0
 10
74.1335
 20
46.7281
 11
73.6675
 21
46.5506
  0
LINE
  8
0
 10
73.6675
 20
46.5506
 11
73.1981
 21
46.3824
  0
LINE
  8
0
 10
73.1981
 20
46.3824
 11
72.7254
 21
46.2236
  0
LINE
  8
0
 10
72.7254
 20
46.2236
 11
72.2496
 21
46.0742
  0
LINE
  8
0
 10
72.2496
 20
46.0742
 11
71.771
 21
45.9344
  0
LINE
  8
0
 10
71.771
 20
45.9344
 11
71.2897
 21
45.8041
  0
LINE
  8
0
 10
71.2897
 20
45.8041
 11
70.8058
 21
45.6835
  0
LINE
  8
0
 10
70.8058
 20
45.6835
 11
70.3197
 21
45.5725
  0
LINE
  8
0
 10
70.3197
 20
45.5725
 11
69.8314
 21
45.4713
  0
LINE
  8
0
 10
69.8314
 20
45.4713
 11
69.3412
 21
45.3798
  0
LINE
  8
0
 10
69.3412
 20
45.3798
 11
68.8493
 21
45.2981
  0
LINE
  8
0
 10
68.8493
 20
45.2981
 11
68.3558
 21
45.2262
  0
LINE
  8
0
 10
68.3558
 20
45.2262
 11
67.861
 21
45.1642
  0
LINE
  8
0
 10
67.861
 20
45.1642
 11
67.3651
 21
45.1121
  0
LINE
  8
0
 10
67.3651
 20
45.1121
 11
66.8682
 21
45.0699
  0
LINE
  8
0
 10
66.8682
 20
45.0699
 11
66.3706
 21
45.0376
  0
LINE
  8
0
 10
66.3706
 20
45.0376
 11
65.8725
 21
45.0152
  0
LINE
  8
0
 10
65.8725
 20
45.0152
 11
65.374
 21
45.0028
  0
LINE
  8
0
 10
65.374
 20
45.0028
 11
64.8753
 21
45.0003
  0
LINE
  8
0
 10
64.8753
 20
45.0003
 11
64.3767
 21
45.0078
  0
LINE
  8
0
 10
-0.62326
 20
45.0078
 11
-1.12161
 21
45.0252
  0
LINE
  8
0
 10
-1.12161
 20
45.0252
 11
-1.61952
 21
45.0525
  0
LINE
  8
0
 10
-1.61952
 20
45.0525
 11
-2.11679
 21
45.0898
  0
LINE
  8
0
 10
-2.11679
 20
45.0898
 11
-2.6132
 21
45.1369
  0
LINE
  8
0
 10
-2.6132
 20
45.1369
 11
-3.10858
 21
45.194
  0
LINE
  8
0
 10
-3.10858
 20
45.194
 11
-3.60272
 21
45.261
  0
LINE
  8
0
 10
-3.60272
 20
45.261
 11
-4.09544
 21
45.3377
  0
LINE
  8
0
 10
-4.09544
 20
45.3377
 11
-4.58652
 21
45.4243
  0
LINE
  8
0
 10
-4.58652
 20
45.4243
 11
-5.07578
 21
45.5207
  0
LINE
  8
0
 10
-5.07578
 20
45.5207
 11
-5.56302
 21
45.6268
  0
LINE
  8
0
 10
-5.56302
 20
45.6268
 11
-6.04803
 21
45.7426
  0
LINE
  8
0
 10
-6.04803
 20
45.7426
 11
-6.53065
 21
45.8681
  0
LINE
  8
0
 10
-6.53065
 20
45.8681
 11
-7.01068
 21
46.0031
  0
LINE
  8
0
 10
-7.01068
 20
46.0031
 11
-7.48792
 21
46.1477
  0
LINE
  8
0
 10
-7.48792
 20
46.1477
 11
-7.96216
 21
46.3018
  0
LINE
  8
0
 10
-7.96216
 20
46.3018
 11
-8.43324
 21
46.4653
  0
LINE
  8
0
 10
-8.43324
 20
46.4653
 11
-8.90097
 21
46.6382
  0
LINE
  8
0
 10
-8.90097
 20
46.6382
 11
-9.36516
 21
46.8204
  0
LINE
  8
0
 10
-9.36516
 20
46.8204
 11
-9.82562
 21
47.0118
  0
LINE
  8
0
 10
-9.82562
 20
47.0118
 11
-10.2822
 21
47.2123
  0
LINE
  8
0
 10
-10.2822
 20
47.2123
 11
-10.7346
 21
47.422
  0
LINE
  8
0
 10
-10.7346
 20
47.422
 11
-11.1828
 21
47.6406
  0
LINE
  8
0
 10
-11.1828
 20
47.6406
 11
-11.6266
 21
47.8681
  0
LINE
  8
0
 10
-11.6266
 20
47.8681
 11
-12.0657
 21
48.1044
  0
LINE
  8
0
 10
-12.0657
 20
48.1044
 11
-12.5
 21
48.3493
  0
LINE
  8
0
 10
-12.5
 20
48.3493
 11
-12.9293
 21
48.603
  0
LINE
  8
0
 10
-12.9293
 20
48.603
 11
-13.3535
 21
48.8651
  0
LINE
  8
0
 10
-13.3535
 20
48.8651
 11
-13.7724
 21
49.1357
  0
LINE
  8
0
 10
-13.7724
 20
49.1357
 11
-14.1858
 21
49.4145
  0
LINE
  8
0
 10
-14.1858
 20
49.4145
 11
-14.5936
 21
49.7015
  0
LINE
  8
0
 10
-14.5936
 20
49.7015
 11
-14.9955
 21
49.9967
  0
LINE
  8
0
 10
-14.9955
 20
49.9967
 11
-15.3915
 21
50.2997
  0
LINE
  8
0
 10
-15.3915
 20
50.2997
 11
-15.7814
 21
50.6106
  0
LINE
  8
0
 10
-15.7814
 20
50.6106
 11
-16.165
 21
50.9293
  0
LINE
  8
0
 10
-16.165
 20
50.9293
 11
-16.5421
 21
51.2555
  0
LINE
  8
0
 10
-16.5421
 20
51.2555
 11
-16.9127
 21
51.5891
  0
LINE
  8
0
 10
-16.9127
 20
51.5891
 11
-17.2766
 21
51.9301
  0
LINE
  8
0
 10
-17.2766
 20
51.9301
 11
-17.6335
 21
52.2783
  0
LINE
  8
0
 10
-17.6335
 20
52.2783
 11
-17.9835
 21
52.6335
  0
LINE
  8
0
 10
-17.9835
 20
52.6335
 11
-18.3263
 21
52.9957
  0
LINE
  8
0
 10
-18.3263
 20
52.9957
 11
-18.6618
 21
53.3646
  0
LINE
  8
0
 10
-18.6618
 20
53.3646
 11
-18.9899
 21
53.7401
  0
LINE
  8
0
 10
-18.9899
 20
53.7401
 11
-19.3104
 21
54.1221
  0
LINE
  8
0
 10
-19.3104
 20
54.1221
 11
-19.6233
 21
54.5104
  0
LINE
  8
0
 10
-19.6233
 20
54.5104
 11
-19.9283
 21
54.9049
  0
LINE
  8
0
 10
-19.9283
 20
54.9049
 11
-20.2254
 21
55.3054
  0
LINE
  8
0
 10
-20.2254
 20
55.3054
 11
-20.5145
 21
55.7117
  0
LINE
  8
0
 10
-20.5145
 20
55.7117
 11
-20.7954
 21
56.1237
  0
LINE
  8
0
 10
-20.7954
 20
56.1237
 11
-21.068
 21
56.5412
  0
LINE
  8
0
 10
-21.068
 20
56.5412
 11
-21.3323
 21
56.9641
  0
LINE
  8
0
 10
-21.3323
 20
56.9641
 11
-21.588
 21
57.3922
  0
LINE
  8
0
 10
-21.588
 20
57.3922
 11
-21.8352
 21
57.8253
  0
LINE
  8
0
 10
-21.8352
 20
57.8253
 11
-22.0737
 21
58.2632
  0
LINE
  8
0
 10
-22.0737
 20
58.2632
 11
-22.3034
 21
58.7058
  0
LINE
  8
0
 10
-22.3034
 20
58.7058
 11
-22.5242
 21
59.1529
  0
LINE
  8
0
 10
-22.5242
 20
59.1529
 11
-22.7361
 21
59.6043
  0
LINE
  8
0
 10
-22.7361
 20
59.6043
 11
-22.9389
 21
60.0599
  0
LINE
  8
0
 10
-22.9389
 20
60.0599
 11
-23.1326
 21
60.5194
  0
LINE
  8
0
 10
-23.1326
 20
60.5194
 11
-23.3171
 21
60.9826
  0
LINE
  8
0
 10
-23.3171
 20
60.9826
 11
-23.4923
 21
61.4495
  0
LINE
  8
0
 10
-23.4923
 20
61.4495
 11
-23.6582
 21
61.9198
  0
LINE
  8
0
 10
-23.6582
 20
61.9198
 11
-23.8146
 21
62.3932
  0
LINE
  8
0
 10
-23.8146
 20
62.3932
 11
-23.9616
 21
62.8697
  0
LINE
  8
0
 10
-23.9616
 20
62.8697
 11
-24.0991
 21
63.3491
  0
LINE
  8
0
 10
-24.0991
 20
63.3491
 11
-24.2269
 21
63.8311
  0
LINE
  8
0
 10
-24.2269
 20
63.8311
 11
-24.3452
 21
64.3155
  0
LINE
  8
0
 10
-24.3452
 20
64.3155
 11
-24.4537
 21
64.8022
  0
LINE
  8
0
 10
-24.4537
 20
64.8022
 11
-24.5525
 21
65.291
  0
LINE
  8
0
 10
-24.5525
 20
65.291
 11
-24.6415
 21
65.7816
  0
LINE
  8
0
 10
-24.6415
 20
65.7816
 11
-24.7208
 21
66.2739
  0
LINE
  8
0
 10
-24.7208
 20
66.2739
 11
-24.7902
 21
66.7677
  0
LINE
  8
0
 10
-24.7902
 20
66.7677
 11
-24.8497
 21
67.2628
  0
LINE
  8
0
 10
-24.8497
 20
67.2628
 11
-24.8994
 21
67.759
  0
LINE
  8
0
 10
-24.8994
 20
67.759
 11
-24.9391
 21
68.2561
  0
LINE
  8
0
 10
-24.9391
 20
68.2561
 11
-24.9689
 21
68.7538
  0
LINE
  8
0
 10
-24.9689
 20
68.7538
 11
-24.9888
 21
69.2521
  0
LINE
  8
0
 10
-24.9888
 20
69.2521
 11
-24.9987
 21
69.7507
  0
LINE
  8
0
 10
-24.9987
 20
69.7507
 11
-24.9987
 21
70.2493
  0
LINE
  8
0
 10
-24.9987
 20
70.2493
 11
-24.9888
 21
70.7479
  0
LINE
  8
0
 10
-24.9888
 20
70.7479
 11
-24.9689
 21
71.2461
  0
LINE
  8
0
 10
-24.9689
 20
71.2461
 11
-24.9391
 21
71.7439
  0
LINE
  8
0
 10
-24.9391
 20
71.7439
 11
-24.8994
 21
72.241
  0
LINE
  8
0
 10
-24.8994
 20
72.241
 11
-24.8497
 21
72.7372
  0
LINE
  8
0
 10
-24.8497
 20
72.7372
 11
-24.7902
 21
73.2322
  0
LINE
  8
0
 10
-24.7902
 20
73.2322
 11
-24.7208
 21
73.726
  0
LINE
  8
0
 10
-24.7208
 20
73.726
 11
-24.6415
 21
74.2184
  0
LINE
  8
0
 10
-24.6415
 20
74.2184
 11
-24.5525
 21
74.709
  0
LINE
  8
0
 10
-24.5525
 20
74.709
 11
-24.4537
 21
75.1978
  0
LINE
  8
0
 10
-24.4537
 20
75.1978
 11
-24.3452
 21
75.6845
  0
LINE
  8
0
 10
-24.3452
 20
75.6845
 11
-24.2269
 21
76.1689
  0
LINE
  8
0
 10
-24.2269
 20
76.1689
 11
-24.0991
 21
76.6509
  0
LINE
  8
0
 10
-24.0991
 20
76.6509
 11
-23.9616
 21
77.1302
  0
LINE
  8
0
 10
-23.9616
 20
77.1302
 11
-23.8146
 21
77.6068
  0
LINE
  8
0
 10
-23.8146
 20
77.6068
 11
-23.6582
 21
78.0802
  0
LINE
  8
0
 10
-23.6582
 20
78.0802
 11
-23.4923
 21
78.5505
  0
LINE
  8
0
 10
-23.4923
 20
78.5505
 11
-23.3171
 21
79.0173
  0
LINE
  8
0
 10
-23.3171
 20
79.0173
 11
-23.1326
 21
79.4806
  0
LINE
  8
0
 10
-23.1326
 20
79.4806
 11
-22.9389
 21
79.9401
  0
LINE
  8
0
 10
-22.9389
 20
79.9401
 11
-22.7361
 21
80.3957
  0
LINE
  8
0
 10
-22.7361
 20
80.3957
 11
-22.5242
 21
80.8471
  0
LINE
  8
0
 10
-22.5242
 20
80.8471
 11
-22.3034
 21
81.2942
  0
LINE
  8
0
 10
-22.3034
 20
81.2942
 11
-22.0737
 21
81.7368
  0
LINE
  8
0
 10
-22.0737
 20
81.7368
 11
-21.8352
 21
82.1747
  0
LINE
  8
0
 10
-21.8352
 20
82.1747
 11
-21.588
 21
82.6078
  0
LINE
  8
0
 10
-21.588
 20
82.6078
 11
-21.3323
 21
83.0359
  0
LINE
  8
0
 10
-21.3323
 20
83.0359
 11
-21.068
 21
83.4588
  0
LINE
  8
0
 10
-21.068
 20
83.4588
 11
-20.7954
 21
83.8763
  0
LINE
  8
0
 10
-20.7954
 20
83.8763
 11
-20.5145
 21
84.2883
  0
LINE
  8
0
 10
-20.5145
 20
84.2883
 11
-20.2254
 21
84.6946
  0
LINE
  8
0
 10
-20.2254
 20
84.6946
 11
-19.9283
 21
85.0951
  0
LINE
  8
0
 10
-19.9283
 20
85.0951
 11
-19.6233
 21
85.4896
  0
LINE
  8
0
 10
-19.6233
 20
85.4896
 11
-19.3104
 21
85.8779
  0
LINE
  8
0
 10
-19.3104
 20
85.8779
 11
-18.9899
 21
86.2599
  0
LINE
  8
0
 10
-18.9899
 20
86.2599
 11
-18.6618
 21
86.6354
  0
LINE
  8
0
 10
-18.6618
 20
86.6354
 11
-18.3263
 21
87.0043
  0
LINE
  8
0
 10
-18.3263
 20
87.0043
 11
-17.9835
 21
87.3665
  0
LINE
  8
0
 10
-17.9835
 20
87.3665
 11
-17.6335
 21
87.7217
  0
LINE
  8
0
 10
-17.6335
 20
87.7217
 11
-17.2766
 21
88.0699
  0
LINE
  8
0
 10
-17.2766
 20
88.0699
 11
-16.9127
 21
88.4109
  0
LINE
  8
0
 10
-16.9127
 20
88.4109
 11
-16.5421
 21
88.7445
  0
LINE
  8
0
 10
-16.5421
 20
88.7445
 11
-16.165
 21
89.0707
  0
LINE
  8
0
 10
-16.165
 20
89.0707
 11
-15.7814
 21
89.3894
  0
LINE
  8
0
 10
-15.7814
 20
89.3894
 11
-15.3915
 21
89.7003
  0
LINE
  8
0
 10
-15.3915
 20
89.7003
 11
-14.9955
 21
90.0033
  0
LINE
  8
0
 10
-14.9955
 20
90.0033
 11
-14.5936
 21
90.2984
  0
LINE
  8
0
 10
-14.5936
 20
90.2984
 11
-14.1858
 21
90.5855
  0
LINE
  8
0
 10
-14.1858
 20
90.5855
 11
-13.7724
 21
90.8643
  0
LINE
  8
0
 10
-13.7724
 20
90.8643
 11
-13.3535
 21
91.1349
  0
LINE
  8
0
 10
-13.3535
 20
91.1349
 11
-12.9293
 21
91.397
  0
LINE
  8
0
 10
-12.9293
 20
91.397
 11
-12.5
 21
91.6506
  0
LINE
  8
0
 10
-12.5
 20
91.6506
 11
-12.0657
 21
91.8956
  0
LINE
  8
0
 10
-12.0657
 20
91.8956
 11
-11.6266
 21
92.1319
  0
LINE
  8
0
 10
-11.6266
 20
92.1319
 11
-11.1828
 21
92.3594
  0
LINE
  8
0
 10
-11.1828
 20
92.3594
 11
-10.7346
 21
92.578
  0
LINE
  8
0
 10
-10.7346
 20
92.578
 11
-10.2822
 21
92.7876
  0
LINE
  8
0
 10
-10.2822
 20
92.7876
 11
-9.82562
 21
92.9882
  0
LINE
  8
0
 10
-9.82562
 20
92.9882
 11
-9.36516
 21
93.1796
  0
LINE
  8
0
 10
-9.36516
 20
93.1796
 11
-8.90097
 21
93.3618
  0
LINE
  8
0
 10
-8.90097
 20
93.3618
 11
-8.43324
 21
93.5347
  0
LINE
  8
0
 10
-8.43324
 20
93.5347
 11
-7.96216
 21
93.6982
  0
LINE
  8
0
 10
-7.96216
 20
93.6982
 11
-7.48792
 21
93.8523
  0
LINE
  8
0
 10
-7.48792
 20
93.8523
 11
-7.01068
 21
93.9969
  0
LINE
  8
0
 10
-7.01068
 20
93.9969
 11
-6.53065
 21
94.1319
  0
LINE
  8
0
 10
-6.53065
 20
94.1319
 11
-6.04803
 21
94.2574
  0
LINE
  8
0
 10
-6.04803
 20
94.2574
 11
-5.56302
 21
94.3732
  0
LINE
  8
0
 10
-5.56302
 20
94.3732
 11
-5.07578
 21
94.4793
  0
LINE
  8
0
 10
-5.07578
 20
94.4793
 11
-4.58652
 21
94.5757
  0
LINE
  8
0
 10
-4.58652
 20
94.5757
 11
-4.09544
 21
94.6623
  0
LINE
  8
0
 10
-4.09544
 20
94.6623
 11
-3.60272
 21
94.739
  0
LINE
  8
0
 10
-3.60272
 20
94.739
 11
-3.10858
 21
94.806
  0
LINE
  8
0
 10
-3.10858
 20
94.806
 11
-2.6132
 21
94.863
  0
LINE
  8
0
 10
-2.6132
 20
94.863
 11
-2.11679
 21
94.9102
  0
LINE
  8
0
 10
-2.11679
 20
94.9102
 11
-1.61952
 21
94.9475
  0
LINE
  8
0
 10
-1.61952
 20
94.9475
 11
-1.12161
 21
94.9748
  0
LINE
  8
0
 10
-1.12161
 20
94.9748
 11
-0.62326
 21
94.9922
  0
LINE
  8
0
 10
-0.62326
 20
94.9922
 11
-0.124664
 21
94.9997
  0
LINE
  8
0
 10
-0.124664
 20
94.9997
 11
0.373978
 21
94.9972
  0
LINE
  8
0
 10
0.373978
 20
94.9972
 11
0.872482
 21
94.9848
  0
LINE
  8
0
 10
0.872482
 20
94.9848
 11
1.37064
 21
94.9624
  0
LINE
  8
0
 10
1.37064
 20
94.9624
 11
1.86824
 21
94.9301
  0
LINE
  8
0
 10
1.86824
 20
94.9301
 11
2.36511
 21
94.8879
  0
LINE
  8
0
 10
2.36511
 20
94.8879
 11
2.86104
 21
94.8357
  0
LINE
  8
0
 10
2.86104
 20
94.8357
 11
3.35582
 21
94.7737
  0
LINE
  8
0
 10
3.35582
 20
94.7737
 11
3.84927
 21
94.7019
  0
LINE
  8
0
 10
3.84927
 20
94.7019
 11
4.3412
 21
94.6202
  0
LINE
  8
0
 10
4.3412
 20
94.6202
 11
4.83139
 21
94.5287
  0
LINE
  8
0
 10
4.83139
 20
94.5287
 11
5.31966
 21
94.4275
  0
LINE
  8
0
 10
5.31966
 20
94.4275
 11
5.80582
 21
94.3165
  0
LINE
  8
0
 10
5.80582
 20
94.3165
 11
6.28966
 21
94.1959
  0
LINE
  8
0
 10
6.28966
 20
94.1959
 11
6.77101
 21
94.0656
  0
LINE
  8
0
 10
6.77101
 20
94.0656
 11
7.24965
 21
93.9258
  0
LINE
  8
0
 10
7.24965
 20
93.9258
 11
7.72542
 21
93.7764
  0
LINE
  8
0
 10
7.72542
 20
93.7764
 11
8.1981
 21
93.6176
  0
LINE
  8
0
 10
8.1981
 20
93.6176
 11
8.66754
 21
93.4494
  0
LINE
  8
0
 10
8.66754
 20
93.4494
 11
9.13351
 21
93.2718
  0
LINE
  8
0
 10
9.13351
 20
93.2718
 11
9.59587
 21
93.085
  0
LINE
  8
0
 10
9.59587
 20
93.085
 11
10.0544
 21
92.8891
  0
LINE
  8
0
 10
10.0544
 20
92.8891
 11
10.5089
 21
92.684
  0
LINE
  8
0
 10
10.5089
 20
92.684
 11
10.9593
 21
92.4698
  0
LINE
  8
0
 10
10.9593
 20
92.4698
 11
11.4053
 21
92.2468
  0
LINE
  8
0
 10
11.4053
 20
92.2468
 11
11.8467
 21
92.0149
  0
LINE
  8
0
 10
11.8467
 20
92.0149
 11
12.2834
 21
91.7742
  0
LINE
  8
0
 10
12.2834
 20
91.7742
 11
12.7153
 21
91.5249
  0
LINE
  8
0
 10
12.7153
 20
91.5249
 11
13.1421
 21
91.267
  0
LINE
  8
0
 10
13.1421
 20
91.267
 11
13.5636
 21
91.0006
  0
LINE
  8
0
 10
13.5636
 20
91.0006
 11
13.9798
 21
90.7259
  0
LINE
  8
0
 10
13.9798
 20
90.7259
 11
14.3904
 21
90.443
  0
LINE
  8
0
 10
14.3904
 20
90.443
 11
14.7953
 21
90.1519
  0
LINE
  8
0
 10
14.7953
 20
90.1519
 11
15.1943
 21
89.8528
  0
LINE
  8
0
 10
15.1943
 20
89.8528
 11
15.5872
 21
89.5458
  0
LINE
  8
0
 10
15.5872
 20
89.5458
 11
15.974
 21
89.231
  0
LINE
  8
0
 10
15.974
 20
89.231
 11
16.3544
 21
88.9086
  0
LINE
  8
0
 10
16.3544
 20
88.9086
 11
16.7283
 21
88.5786
  0
LINE
  8
0
 10
16.7283
 20
88.5786
 11
17.0955
 21
88.2413
  0
LINE
  8
0
 10
17.0955
 20
88.2413
 11
17.4559
 21
87.8967
  0
LINE
  8
0
 10
17.4559
 20
87.8967
 11
17.8094
 21
87.5449
  0
LINE
  8
0
 10
17.8094
 20
87.5449
 11
18.1558
 21
87.1862
  0
LINE
  8
0
 10
18.1558
 20
87.1862
 11
18.495
 21
86.8207
  0
LINE
  8
0
 10
18.495
 20
86.8207
 11
18.8268
 21
86.4485
  0
LINE
  8
0
 10
18.8268
 20
86.4485
 11
19.1511
 21
86.0697
  0
LINE
  8
0
 10
19.1511
 20
86.0697
 11
19.4678
 21
85.6845
  0
LINE
  8
0
 10
19.4678
 20
85.6845
 11
19.7768
 21
85.2931
  0
LINE
  8
0
 10
19.7768
 20
85.2931
 11
20.0779
 21
84.8956
  0
LINE
  8
0
 10
20.0779
 20
84.8956
 11
20.371
 21
84.4922
  0
LINE
  8
0
 10
20.371
 20
84.4922
 11
20.656
 21
84.083
  0
LINE
  8
0
 10
20.656
 20
84.083
 11
20.9327
 21
83.6682
  0
LINE
  8
0
 10
20.9327
 20
83.6682
 11
21.2012
 21
83.248
  0
LINE
  8
0
 10
21.2012
 20
83.248
 11
21.4612
 21
82.8225
  0
LINE
  8
0
 10
21.4612
 20
82.8225
 11
21.7127
 21
82.3919
  0
LINE
  8
0
 10
21.7127
 20
82.3919
 11
21.9555
 21
81.9563
  0
LINE
  8
0
 10
21.9555
 20
81.9563
 11
22.1896
 21
81.5161
  0
LINE
  8
0
 10
22.1896
 20
81.5161
 11
22.4149
 21
81.0712
  0
LINE
  8
0
 10
22.4149
 20
81.0712
 11
22.6313
 21
80.6219
  0
LINE
  8
0
 10
22.6313
 20
80.6219
 11
22.8386
 21
80.1684
  0
LINE
  8
0
 10
22.8386
 20
80.1684
 11
23.0369
 21
79.7109
  0
LINE
  8
0
 10
23.0369
 20
79.7109
 11
23.226
 21
79.2495
  0
LINE
  8
0
 10
23.226
 20
79.2495
 11
23.4059
 21
78.7844
  0
LINE
  8
0
 10
23.4059
 20
78.7844
 11
23.5764
 21
78.3158
  0
LINE
  8
0
 10
23.5764
 20
78.3158
 11
23.7376
 21
77.8439
  0
LINE
  8
0
 10
23.7376
 20
77.8439
 11
23.8893
 21
77.3689
  0
LINE
  8
0
 10
23.8893
 20
77.3689
 11
24.0315
 21
76.8909
  0
LINE
  8
0
 10
24.0315
 20
76.8909
 11
24.1642
 21
76.4102
  0
LINE
  8
0
 10
24.1642
 20
76.4102
 11
24.2872
 21
75.927
  0
LINE
  8
0
 10
24.2872
 20
75.927
 11
24.4006
 21
75.4414
  0
LINE
  8
0
 10
24.4006
 20
75.4414
 11
24.5043
 21
74.9536
  0
LINE
  8
0
 10
24.5043
 20
74.9536
 11
24.5982
 21
74.4639
  0
LINE
  8
0
 10
24.5982
 20
74.4639
 11
24.6824
 21
73.9724
  0
LINE
  8
0
 10
24.6824
 20
73.9724
 11
24.7567
 21
73.4793
  0
LINE
  8
0
 10
24.7567
 20
73.4793
 11
24.8212
 21
72.9848
  0
LINE
  8
0
 10
24.8212
 20
72.9848
 11
24.8758
 21
72.4892
  0
LINE
  8
0
 10
24.8758
 20
72.4892
 11
24.9205
 21
71.9925
  0
LINE
  8
0
 10
24.9205
 20
71.9925
 11
24.9552
 21
71.4951
  0
LINE
  8
0
 10
24.9552
 20
71.4951
 11
24.9801
 21
70.9971
  0
LINE
  8
0
 10
24.9801
 20
70.9971
 11
24.995
 21
70.4986
  0
LINE
  8
0
 10
24.995
 20
70.4986
 11
25
 21
70
  0
LINE
  8
0
 10
25
 20
70
 11
24.995
 21
69.5014
  0
LINE
  8
0
 10
24.995
 20
69.5014
 11
24.9801
 21
69.0029
  0
LINE
  8
0
 10
24.9801
 20
69.0029
 11
24.9552
 21
68.5049
  0
LINE
  8
0
 10
24.9552
 20
68.5049
 11
24.9205
 21
68.0074
  0
LINE
  8
0
 10
24.9205
 20
68.0074
 11
24.8758
 21
67.5108
  0
LINE
  8
0
 10
24.8758
 20
67.5108
 11
24.8212
 21
67.0151
  0
LINE
  8
0
 10
24.8212
 20
67.0151
 11
24.7567
 21
66.5207
  0
LINE
  8
0
 10
24.7567
 20
66.5207
 11
24.6824
 21
66.0276
  0
LINE
  8
0
 10
24.6824
 20
66.0276
 11
24.5982
 21
65.5361
  0
LINE
  8
0
 10
24.5982
 20
65.5361
 11
24.5043
 21
65.0463
  0
LINE
  8
0
 10
24.5043
 20
65.0463
 11
24.4006
 21
64.5586
  0
LINE
  8
0
 10
24.4006
 20
64.5586
 11
24.2872
 21
64.073
  0
LINE
  8
0
 10
24.2872
 20
64.073
 11
24.1642
 21
63.5898
  0
LINE
  8
0
 10
24.1642
 20
63.5898
 11
24.0315
 21
63.1091
  0
LINE
  8
0
 10
24.0315
 20
63.1091
 11
23.8893
 21
62.6311
  0
LINE
  8
0
 10
23.8893
 20
62.6311
 11
23.7376
 21
62.1561
  0
LINE
  8
0
 10
23.7376
 20
62.1561
 11
23.5764
 21
61.6842
  0
LINE
  8
0
 10
23.5764
 20
61.6842
 11
23.4059
 21
61.2156
  0
LINE
  8
0
 10
23.4059
 20
61.2156
 11
23.226
 21
60.7505
  0
LINE
  8
0
 10
23.226
 20
60.7505
 11
23.0369
 21
60.2891
  0
LINE
  8
0
 10
23.0369
 20
60.2891
 11
22.8386
 21
59.8316
  0
LINE
  8
0
 10
22.8386
 20
59.8316
 11
22.6313
 21
59.3781
  0
LINE
  8
0
 10
22.6313
 20
59.3781
 11
22.4149
 21
58.9288
  0
LINE
  8
0
 10
22.4149
 20
58.9288
 11
22.1896
 21
58.4839
  0
LINE
  8
0
 10
22.1896
 20
58.4839
 11
21.9555
 21
58.0436
  0
LINE
  8
0
 10
21.9555
 20
58.0436
 11
21.7127
 21
57.6081
  0
LINE
  8
0
 10
21.7127
 20
57.6081
 11
21.4612
 21
57.1775
  0
LINE
  8
0
 10
21.4612
 20
57.1775
 11
21.2012
 21
56.752
  0
LINE
  8
0
 10
21.2012
 20
56.752
 11
20.9327
 21
56.3318
  0
LINE
  8
0
 10
20.9327
 20
56.3318
 11
20.656
 21
55.917
  0
LINE
  8
0
 10
20.656
 20
55.917
 11
20.371
 21
55.5078
  0
LINE
  8
0
 10
20.371
 20
55.5078
 11
20.0779
 21
55.1044
  0
LINE
  8
0
 10
20.0779
 20
55.1044
 11
19.7768
 21
54.7069
  0
LINE
  8
0
 10
19.7768
 20
54.7069
 11
19.4678
 21
54.3155
  0
LINE
  8
0
 10
19.4678
 20
54.3155
 11
19.1511
 21
53.9303
  0
LINE
  8
0
 10
19.1511
 20
53.9303
 11
18.8268
 21
53.5515
  0
LINE
  8
0
 10
18.8268
 20
53.5515
 11
18.495
 21
53.1793
  0
LINE
  8
0
 10
18.495
 20
53.1793
 11
18.1558
 21
52.8138
  0
LINE
  8
0
 10
18.1558
 20
52.8138
 11
17.8094
 21
52.455
  0
LINE
  8
0
 10
17.8094
 20
52.455
 11
17.4559
 21
52.1033
  0
LINE
  8
0
 10
17.4559
 20
52.1033
 11
17.0955
 21
51.7587
  0
LINE
  8
0
 10
17.0955
 20
51.7587
 11
16.7283
 21
51.4214
  0
LINE
  8
0
 10
16.7283
 20
51.4214
 11
16.3544
 21
51.0914
  0
LINE
  8
0
 10
16.3544
 20
51.0914
 11
15.974
 21
50.769
  0
LINE
  8
0
 10
15.974
 20
50.769
 11
15.5872
 21
50.4542
  0
LINE
  8
0
 10
15.5872
 20
50.4542
 11
15.1943
 21
50.1472
  0
LINE
  8
0
 10
15.1943
 20
50.1472
 11
14.7953
 21
49.8481
  0
LINE
  8
0
 10
14.7953
 20
49.8481
 11
14.3904
 21
49.557
  0
LINE
  8
0
 10
14.3904
 20
49.557
 11
13.9798
 21
49.274
  0
LINE
  8
0
 10
13.9798
 20
49.274
 11
13.5636
 21
48.9993
  0
LINE
  8
0
 10
13.5636
 20
48.9993
 11
13.1421
 21
48.733
  0
LINE
  8
0
 10
13.1421
 20
48.733
 11
12.7153
 21
48.4751
  0
LINE
  8
0
 10
12.7153
 20
48.4751
 11
12.2834
 21
48.2258
  0
LINE
  8
0
 10
12.2834
 20
48.2258
 11
11.8467
 21
47.9851
  0
LINE
  8
0
 10
11.8467
 20
47.9851
 11
11.4053
 21
47.7532
  0
LINE
  8
0
 10
11.4053
 20
47.7532
 11
10.9593
 21
47.5301
  0
LINE
  8
0
 10
10.9593
 20
47.5301
 11
10.5089
 21
47.316
  0
LINE
  8
0
 10
10.5089
 20
47.316
 11
10.0544
 21
47.1109
  0
LINE
  8
0
 10
10.0544
 20
47.1109
 11
9.59587
 21
46.9149
  0
LINE
  8
0
 10
9.59587
 20
46.9149
 11
9.13351
 21
46.7281
  0
LINE
  8
0
 10
9.13351
 20
46.7281
 11
8.66754
 21
46.5506
  0
LINE
  8
0
 10
8.66754
 20
46.5506
 11
8.1981
 21
46.3824
  0
LINE
  8
0
 10
8.1981
 20
46.3824
 11
7.72542
 21
46.2236
  0
LINE
  8
0
 10
7.72542
 20
46.2236
 11
7.24965
 21
46.0742
  0
LINE
  8
0
 10
7.24965
 20
46.0742
 11
6.77101
 21
45.9344
  0
LINE
  8
0
 10
6.77101
 20
45.9344
 11
6.28966
 21
45.8041
  0
LINE
  8
0
 10
6.28966
 20
45.8041
 11
5.80582
 21
45.6835
  0
LINE
  8
0
 10
5.80582
 20
45.6835
 11
5.31966
 21
45.5725
  0
LINE
  8
0
 10
5.31966
 20
45.5725
 11
4.83139
 21
45.4713
  0
LINE
  8
0
 10
4.83139
 20
45.4713
 11
4.3412
 21
45.3798
  0
LINE
  8
0
 10
4.3412
 20
45.3798
 11
3.84927
 21
45.2981
  0
LINE
  8
0
 10
3.84927
 20
45.2981
 11
3.35582
 21
45.2262
  0
LINE
  8
0
 10
3.35582
 20
45.2262
 11
2.86104
 21
45.1642
  0
LINE
  8
0
 10
2.86104
 20
45.1642
 11
2.36511
 21
45.1121
  0
LINE
  8
0
 10
2.36511
 20
45.1121
 11
1.86824
 21
45.0699
  0
LINE
  8
0
 10
1.86824
 20
45.0699
 11
1.37064
 21
45.0376
  0
LINE
  8
0
 10
1.37064
 20
45.0376
 11
0.872482
 21
45.0152
  0
LINE
  8
0
 10
0.872482
 20
45.0152
 11
0.373978
 21
45.0028
  0
LINE
  8
0
 10
0.373978
 20
45.0028
 11
-0.124664
 21
45.0003
  0
LINE
  8
0
 10
-0.124664
 20
45.0003
 11
-0.62326
 21
45.0078
  0
LINE
  8
0
 10
-65.6233
 20
45.0078
 11
-66.1216
 21
45.0252
  0
LINE
  8
0
 10
-66.1216
 20
45.0252
 11
-66.6195
 21
45.0525
  0
LINE
  8
0
 10
-66.6195
 20
45.0525
 11
-67.1168
 21
45.0898
  0
LINE
  8
0
 10
-67.1168
 20
45.0898
 11
-67.6132
 21
45.1369
  0
LINE
  8
0
 10
-67.6132
 20
45.1369
 11
-68.1086
 21
45.194
  0
LINE
  8
0
 10
-68.1086
 20
45.194
 11
-68.6027
 21
45.261
  0
LINE
  8
0
 10
-68.6027
 20
45.261
 11
-69.0954
 21
45.3377
  0
LINE
  8
0
 10
-69.0954
 20
45.3377
 11
-69.5865
 21
45.4243
  0
LINE
  8
0
 10
-69.5865
 20
45.4243
 11
-70.0758
 21
45.5207
  0
LINE
  8
0
 10
-70.0758
 20
45.5207
 11
-70.563
 21
45.6268
  0
LINE
  8
0
 10
-70.563
 20
45.6268
 11
-71.048
 21
45.7426
  0
LINE
  8
0
 10
-71.048
 20
45.7426
 11
-71.5307
 21
45.8681
  0
LINE
  8
0
 10
-71.5307
 20
45.8681
 11
-72.0107
 21
46.0031
  0
LINE
  8
0
 10
-72.0107
 20
46.0031
 11
-72.4879
 21
46.1477
  0
LINE
  8
0
 10
-72.4879
 20
46.1477
 11
-72.9622
 21
46.3018
  0
LINE
  8
0
 10
-72.9622
 20
46.3018
 11
-73.4332
 21
46.4653
  0
LINE
  8
0
 10
-73.4332
 20
46.4653
 11
-73.901
 21
46.6382
  0
LINE
  8
0
 10
-73.901
 20
46.6382
 11
-74.3652
 21
46.8204
  0
LINE
  8
0
 10
-74.3652
 20
46.8204
 11
-74.8256
 21
47.0118
  0
LINE
  8
0
 10
-74.8256
 20
47.0118
 11
-75.2822
 21
47.2123
  0
LINE
  8
0
 10
-75.2822
 20
47.2123
 11
-75.7346
 21
47.422
  0
LINE
  8
0
 10
-75.7346
 20
47.422
 11
-76.1828
 21
47.6406
  0
LINE
  8
0
 10
-76.1828
 20
47.6406
 11
-76.6266
 21
47.8681
  0
LINE
  8
0
 10
-76.6266
 20
47.8681
 11
-77.0657
 21
48.1044
  0
LINE
  8
0
 10
-77.0657
 20
48.1044
 11
-77.5
 21
48.3493
  0
LINE
  8
0
 10
-77.5
 20
48.3493
 11
-77.9293
 21
48.603
  0
LINE
  8
0
 10
-77.9293
 20
48.603
 11
-78.3535
 21
48.8651
  0
LINE
  8
0
 10
-78.3535
 20
48.8651
 11
-78.7724
 21
49.1357
  0
LINE
  8
0
 10
-78.7724
 20
49.1357
 11
-79.1858
 21
49.4145
  0
LINE
  8
0
 10
-79.1858
 20
49.4145
 11
-79.5936
 21
49.7015
  0
LINE
  8
0
 10
-79.5936
 20
49.7015
 11
-79.9955
 21
49.9967
  0
LINE
  8
0
 10
-79.9955
 20
49.9967
 11
-80.3915
 21
50.2997
  0
LINE
  8
0
 10
-80.3915
 20
50.2997
 11
-80.7814
 21
50.6106
  0
LINE
  8
0
 10
-80.7814
 20
50.6106
 11
-81.165
 21
50.9293
  0
LINE
  8
0
 10
-81.165
 20
50.9293
 11
-81.5421
 21
51.2555
  0
LINE
  8
0
 10
-81.5421
 20
51.2555
 11
-81.9127
 21
51.5891
  0
LINE
  8
0
 10
-81.9127
 20
51.5891
 11
-82.2766
 21
51.9301
  0
LINE
  8
0
 10
-82.2766
 20
51.9301
 11
-82.6335
 21
52.2783
  0
LINE
  8
0
 10
-82.6335
 20
52.2783
 11
-82.9835
 21
52.6335
  0
LINE
  8
0
 10
-82.9835
 20
52.6335
 11
-83.3263
 21
52.9957
  0
LINE
  8
0
 10
-83.3263
 20
52.9957
 11
-83.6618
 21
53.3646
  0
LINE
  8
0
 10
-83.6618
 20
53.3646
 11
-83.9899
 21
53.7401
  0
LINE
  8
0
 10
-83.9899
 20
53.7401
 11
-84.3104
 21
54.1221
  0
LINE
  8
0
 10
-84.3104
 20
54.1221
 11
-84.6233
 21
54.5104
  0
LINE
  8
0
 10
-84.6233
 20
54.5104
 11
-84.9283
 21
54.9049
  0
LINE
  8
0
 10
-84.9283
 20
54.9049
 11
-85.2254
 21
55.3054
  0
LINE
  8
0
 10
-85.2254
 20
55.3054
 11
-85.5145
 21
55.7117
  0
LINE
  8
0
 10
-85.5145
 20
55.7117
 11
-85.7954
 21
56.1237
  0
LINE
  8
0
 10
-85.7954
 20
56.1237
 11
-86.068
 21
56.5412
  0
LINE
  8
0
 10
-86.068
 20
56.5412
 11
-86.3323
 21
56.9641
  0
LINE
  8
0
 10
-86.3323
 20
56.9641
 11
-86.588
 21
57.3922
  0
LINE
  8
0
 10
-86.588
 20
57.3922
 11
-86.8352
 21
57.8253
  0
LINE
  8
0
 10
-86.8352
 20
57.8253
 11
-87.0737
 21
58.2632
  0
LINE
  8
0
 10
-87.0737
 20
58.2632
 11
-87.3034
 21
58.7058
  0
LINE
  8
0
 10
-87.3034
 20
58.7058
 11
-87.5242
 21
59.1529
  0
LINE
  8
0
 10
-87.5242
 20
59.1529
 11
-87.7361
 21
59.6043
  0
LINE
  8
0
 10
-87.7361
 20
59.6043
 11
-87.9389
 21
60.0599
  0
LINE
  8
0
 10
-87.9389
 20
60.0599
 11
-88.1326
 21
60.5194
  0
LINE
  8
0
 10
-88.1326
 20
60.5194
 11
-88.3171
 21
60.9826
  0
LINE
  8
0
 10
-88.3171
 20
60.9826
 11
-88.4923
 21
61.4495
  0
LINE
  8
0
 10
-88.4923
 20
61.4495
 11
-88.6582
 21
61.9198
  0
LINE
  8
0
 10
-88.6582
 20
61.9198
 11
-88.8146
 21
62.3932
  0
LINE
  8
0
 10
-88.8146
 20
62.3932
 11
-88.9616
 21
62.8697
  0
LINE
  8
0
 10
-88.9616
 20
62.8697
 11
-89.0991
 21
63.3491
  0
LINE
  8
0
 10
-89.0991
 20
63.3491
 11
-89.2269
 21
63.8311
  0
LINE
  8
0
 10
-89.2269
 20
63.8311
 11
-89.3452
 21
64.3155
  0
LINE
  8
0
 10
-89.3452
 20
64.3155
 11
-89.4537
 21
64.8022
  0
LINE
  8
0
 10
-89.4537
 20
64.8022
 11
-89.5525
 21
65.291
  0
LINE
  8
0
 10
-89.5525
 20
65.291
 11
-89.6415
 21
65.7816
  0
LINE
  8
0
 10
-89.6415
 20
65.7816
 11
-89.7208
 21
66.2739
  0
LINE
  8
0
 10
-89.7208
 20
66.2739
 11
-89.7902
 21
66.7677
  0
LINE
  8
0
 10
-89.7902
 20
66.7677
 11
-89.8497
 21
67.2628
  0
LINE
  8
0
 10
-89.8497
 20
67.2628
 11
-89.8994
 21
67.759
  0
LINE
  8
0
 10
-89.8994
 20
67.759
 11
-89.9391
 21
68.2561
  0
LINE
  8
0
 10
-89.9391
 20
68.2561
 11
-89.9689
 21
68.7538
  0
LINE
  8
0
 10
-89.9689
 20
68.7538
 11
-89.9888
 21
69.2521
  0
LINE
  8
0
 10
-89.9888
 20
69.2521
 11
-89.9987
 21
69.7507
  0
LINE
  8
0
 10
-89.9987
 20
69.7507
 11
-89.9987
 21
70.2493
  0
LINE
  8
0
 10
-89.9987
 20
70.2493
 11
-89.9888
 21
70.7479
  0
LINE
  8
0
 10
-89.9888
 20
70.7479
 11
-89.9689
 21
71.2461
  0
LINE
  8
0
 10
-89.9689
 20
71.2461
 11
-89.9391
 21
71.7439
  0
LINE
  8
0
 10
-89.9391
 20
71.7439
 11
-89.8994
 21
72.241
  0
LINE
  8
0
 10
-89.8994
 20
72.241
 11
-89.8497
 21
72.7372
  0
LINE
  8
0
 10
-89.8497
 20
72.7372
 11
-89.7902
 21
73.2322
  0
LINE
  8
0
 10
-89.7902
 20
73.2322
 11
-89.7208
 21
73.726
  0
LINE
  8
0
 10
-89.7208
 20
73.726
 11
-89.6415
 21
74.2184
  0
LINE
  8
0
 10
-89.6415
 20
74.2184
 11
-89.5525
 21
74.709
  0
LINE
  8
0
 10
-89.5525
 20
74.709
 11
-89.4537
 21
75.1978
  0
LINE
  8
0
 10
-89.4537
 20
75.1978
 11
-89.3452
 21
75.6845
  0
LINE
  8
0
 10
-89.3452
 20
75.6845
 11
-89.2269
 21
76.1689
  0
LINE
  8
0
 10
-89.2269
 20
76.1689
 11
-89.0991
 21
76.6509
  0
LINE
  8
0
 10
-89.0991
 20
76.6509
 11
-88.9616
 21
77.1302
  0
LINE
  8
0
 10
-88.9616
 20
77.1302
 11
-88.8146
 21
77.6068
  0
LINE
  8
0
 10
-88.8146
 20
77.6068
 11
-88.6582
 21
78.0802
  0
LINE
  8
0
 10
-88.6582
 20
78.0802
 11
-88.4923
 21
78.5505
  0
LINE
  8
0
 10
-88.4923
 20
78.5505
 11
-88.3171
 21
79.0173
  0
LINE
  8
0
 10
-88.3171
 20
79.0173
 11
-88.1326
 21
79.4806
  0
LINE
  8
0
 10
-88.1326
 20
79.4806
 11
-87.9389
 21
79.9401
  0
LINE
  8
0
 10
-87.9389
 20
79.9401
 11
-87.7361
 21
80.3957
  0
LINE
  8
0
 10
-87.7361
 20
80.3957
 11
-87.5242
 21
80.8471
  0
LINE
  8
0
 10
-87.5242
 20
80.8471
 11
-87.3034
 21
81.2942
  0
LINE
  8
0
 10
-87.3034
 20
81.2942
 11
-87.0737
 21
81.7368
  0
LINE
  8
0
 10
-87.0737
 20
81.7368
 11
-86.8352
 21
82.1747
  0
LINE
  8
0
 10
-86.8352
 20
82.1747
 11
-86.588
 21
82.6078
  0
LINE
  8
0
 10
-86.588
 20
82.6078
 11
-86.3323
 21
83.0359
  0
LINE
  8
0
 10
-86.3323
 20
83.0359
 11
-86.068
 21
83.4588
  0
LINE
  8
0
 10
-86.068
 20
83.4588
 11
-85.7954
 21
83.8763
  0
LINE
  8
0
 10
-85.7954
 20
83.8763
 11
-85.5145
 21
84.2883
  0
LINE
  8
0
 10
-85.5145
 20
84.2883
 11
-85.2254
 21
84.6946
  0
LINE
  8
0
 10
-85.2254
 20
84.6946
 11
-84.9283
 21
85.0951
  0
LINE
  8
0
 10
-84.9283
 20
85.0951
 11
-84.6233
 21
85.4896
  0
LINE
  8
0
 10
-84.6233
 20
85.4896
 11
-84.3104
 21
85.8779
  0
LINE
  8
0
 10
-84.3104
 20
85.8779
 11
-83.9899
 21
86.2599
  0
LINE
  8
0
 10
-83.9899
 20
86.2599
 11
-83.6618
 21
86.6354
  0
LINE
  8
0
 10
-83.6618
 20
86.6354
 11
-83.3263
 21
87.0043
  0
LINE
  8
0
 10
-83.3263
 20
87.0043
 11
-82.9835
 21
87.3665
  0
LINE
  8
0
 10
-82.9835
 20
87.3665
 11
-82.6335
 21
87.7217
  0
LINE
  8
0
 10
-82.6335
 20
87.7217
 11
-82.2766
 21
88.0699
  0
LINE
  8
0
 10
-82.2766
 20
88.0699
 11
-81.9127
 21
88.4109
  0
LINE
  8
0
 10
-81.9127
 20
88.4109
 11
-81.5421
 21
88.7445
  0
LINE
  8
0
 10
-81.5421
 20
88.7445
 11
-81.165
 21
89.0707
  0
LINE
  8
0
 10
-81.165
 20
89.0707
 11
-80.7814
 21
89.3894
  0
LINE
  8
0
 10
-80.7814
 20
89.3894
 11
-80.3915
 21
89.7003
  0
LINE
  8
0
 10
-80.3915
 20
89.7003
 11
-79.9955
 21
90.0033
  0
LINE
  8
0
 10
-79.9955
 20
90.0033
 11
-79.5936
 21
90.2984
  0
LINE
  8
0
 10
-79.5936
 20
90.2984
 11
-79.1858
 21
90.5855
  0
LINE
  8
0
 10
-79.1858
 20
90.5855
 11
-78.7724
 21
90.8643
  0
LINE
  8
0
 10
-78.7724
 20
90.8643
 11
-78.3535
 21
91.1349
  0
LINE
  8
0
 10
-78.3535
 20
91.1349
 11
-77.9293
 21
91.397
  0
LINE
  8
0
 10
-77.9293
 20
91.397
 11
-77.5
 21
91.6506
  0
LINE
  8
0
 10
-77.5
 20
91.6506
 11
-77.0657
 21
91.8956
  0
LINE
  8
0
 10
-77.0657
 20
91.8956
 11
-76.6266
 21
92.1319
  0
LINE
  8
0
 10
-76.6266
 20
92.1319
 11
-76.1828
 21
92.3594
  0
LINE
  8
0
 10
-76.1828
 20
92.3594
 11
-75.7346
 21
92.578
  0
LINE
  8
0
 10
-75.7346
 20
92.578
 11
-75.2822
 21
92.7876
  0
LINE
  8
0
 10
-75.2822
 20
92.7876
 11
-74.8256
 21
92.9882
  0
LINE
  8
0
 10
-74.8256
 20
92.9882
 11
-74.3652
 21
93.1796
  0
LINE
  8
0
 10
-74.3652
 20
93.1796
 11
-73.901
 21
93.3618
  0
LINE
  8
0
 10
-73.901
 20
93.3618
 11
-73.4332
 21
93.5347
  0
LINE
  8
0
 10
-73.4332
 20
93.5347
 11
-72.9622
 21
93.6982
  0
LINE
  8
0
 10
-72.9622
 20
93.6982
 11
-72.4879
 21
93.8523
  0
LINE
  8
0
 10
-72.4879
 20
93.8523
 11
-72.0107
 21
93.9969
  0
LINE
  8
0
 10
-72.0107
 20
93.9969
 11
-71.5307
 21
94.1319
  0
LINE
  8
0
 10
-71.5307
 20
94.1319
 11
-71.048
 21
94.2574
  0
LINE
  8
0
 10
-71.048
 20
94.2574
 11
-70.563
 21
94.3732
  0
LINE
  8
0
 10
-70.563
 20
94.3732
 11
-70.0758
 21
94.4793
  0
LINE
  8
0
 10
-70.0758
 20
94.4793
 11
-69.5865
 21
94.5757
  0
LINE
  8
0
 10
-69.5865
 20
94.5757
 11
-69.0954
 21
94.6623
  0
LINE
  8
0
 10
-69.0954
 20
94.6623
 11
-68.6027
 21
94.739
  0
LINE
  8
0
 10
-68.6027
 20
94.739
 11
-68.1086
 21
94.806
  0
LINE
  8
0
 10
-68.1086
 20
94.806
 11
-67.6132
 21
94.863
  0
LINE
  8
0
 10
-67.6132
 20
94.863
 11
-67.1168
 21
94.9102
  0
LINE
  8
0
 10
-67.1168
 20
94.9102
 11
-66.6195
 21
94.9475
  0
LINE
  8
0
 10
-66.6195
 20
94.9475
 11
-66.1216
 21
94.9748
  0
LINE
  8
0
 10
-66.1216
 20
94.9748
 11
-65.6233
 21
94.9922
  0
LINE
  8
0
 10
-65.6233
 20
94.9922
 11
-65.1247
 21
94.9997
  0
LINE
  8
0
 10
-65.1247
 20
94.9997
 11
-64.626
 21
94.9972
  0
LINE
  8
0
 10
-64.626
 20
94.9972
 11
-64.1275
 21
94.9848
  0
LINE
  8
0
 10
-64.1275
 20
94.9848
 11
-63.6293
 21
94.9624
  0
LINE
  8
0
 10
-63.6293
 20
94.9624
 11
-63.1317
 21
94.9301
  0
LINE
  8
0
 10
-63.1317
 20
94.9301
 11
-62.6349
 21
94.8879
  0
LINE
  8
0
 10
-62.6349
 20
94.8879
 11
-62.1389
 21
94.8357
  0
LINE
  8
0
 10
-62.1389
 20
94.8357
 11
-61.6442
 21
94.7737
  0
LINE
  8
0
 10
-61.6442
 20
94.7737
 11
-61.1507
 21
94.7019
  0
LINE
  8
0
 10
-61.1507
 20
94.7019
 11
-60.6588
 21
94.6202
  0
LINE
  8
0
 10
-60.6588
 20
94.6202
 11
-60.1686
 21
94.5287
  0
LINE
  8
0
 10
-60.1686
 20
94.5287
 11
-59.6803
 21
94.4275
  0
LINE
  8
0
 10
-59.6803
 20
94.4275
 11
-59.1942
 21
94.3165
  0
LINE
  8
0
 10
-59.1942
 20
94.3165
 11
-58.7103
 21
94.1959
  0
LINE
  8
0
 10
-58.7103
 20
94.1959
 11
-58.229
 21
94.0656
  0
LINE
  8
0
 10
-58.229
 20
94.0656
 11
-57.7503
 21
93.9258
  0
LINE
  8
0
 10
-57.7503
 20
93.9258
 11
-57.2746
 21
93.7764
  0
LINE
  8
0
 10
-57.2746
 20
93.7764
 11
-56.8019
 21
93.6176
  0
LINE
  8
0
 10
-56.8019
 20
93.6176
 11
-56.3324
 21
93.4494
  0
LINE
  8
0
 10
-56.3324
 20
93.4494
 11
-55.8665
 21
93.2718
  0
LINE
  8
0
 10
-55.8665
 20
93.2718
 11
-55.4041
 21
93.085
  0
LINE
  8
0
 10
-55.4041
 20
93.085
 11
-54.9456
 21
92.8891
  0
LINE
  8
0
 10
-54.9456
 20
92.8891
 11
-54.4911
 21
92.684
  0
LINE
  8
0
 10
-54.4911
 20
92.684
 11
-54.0407
 21
92.4698
  0
LINE
  8
0
 10
-54.0407
 20
92.4698
 11
-53.5947
 21
92.2468
  0
LINE
  8
0
 10
-53.5947
 20
92.2468
 11
-53.1533
 21
92.0149
  0
LINE
  8
0
 10
-53.1533
 20
92.0149
 11
-52.7165
 21
91.7742
  0
LINE
  8
0
 10
-52.7165
 20
91.7742
 11
-52.2847
 21
91.5249
  0
LINE
  8
0
 10
-52.2847
 20
91.5249
 11
-51.8579
 21
91.267
  0
LINE
  8
0
 10
-51.8579
 20
91.267
 11
-51.4363
 21
91.0006
  0
LINE
  8
0
 10
-51.4363
 20
91.0006
 11
-51.0202
 21
90.7259
  0
LINE
  8
0
 10
-51.0202
 20
90.7259
 11
-50.6096
 21
90.443
  0
LINE
  8
0
 10
-50.6096
 20
90.443
 11
-50.2047
 21
90.1519
  0
LINE
  8
0
 10
-50.2047
 20
90.1519
 11
-49.8057
 21
89.8528
  0
LINE
  8
0
 10
-49.8057
 20
89.8528
 11
-49.4128
 21
89.5458
  0
LINE
  8
0
 10
-49.4128
 20
89.5458
 11
-49.026
 21
89.231
  0
LINE
  8
0
 10
-49.026
 20
89.231
 11
-48.6456
 21
88.9086
  0
LINE
  8
0
 10
-48.6456
 20
88.9086
 11
-48.2717
 21
88.5786
  0
LINE
  8
0
 10
-48.2717
 20
88.5786
 11
-47.9045
 21
88.2413
  0
LINE
  8
0
 10
-47.9045
 20
88.2413
 11
-47.5441
 21
87.8967
  0
LINE
  8
0
 10
-47.5441
 20
87.8967
 11
-47.1906
 21
87.5449
  0
LINE
  8
0
 10
-47.1906
 20
87.5449
 11
-46.8442
 21
87.1862
  0
LINE
  8
0
 10
-46.8442
 20
87.1862
 11
-46.505
 21
86.8207
  0
LINE
  8
0
 10
-46.505
 20
86.8207
 11
-46.1732
 21
86.4485
  0
LINE
  8
0
 10
-46.1732
 20
86.4485
 11
-45.8489
 21
86.0697
  0
LINE
  8
0
 10
-45.8489
 20
86.0697
 11
-45.5322
 21
85.6845
  0
LINE
  8
0
 10
-45.5322
 20
85.6845
 11
-45.2232
 21
85.2931
  0
LINE
  8
0
 10
-45.2232
 20
85.2931
 11
-44.9221
 21
84.8956
  0
LINE
  8
0
 10
-44.9221
 20
84.8956
 11
-44.629
 21
84.4922
  0
LINE
  8
0
 10
-44.629
 20
84.4922
 11
-44.344
 21
84.083
  0
LINE
  8
0
 10
-44.344
 20
84.083
 11
-44.0672
 21
83.6682
  0
LINE
  8
0
 10
-44.0672
 20
83.6682
 11
-43.7988
 21
83.248
  0
LINE
  8
0
 10
-43.7988
 20
83.248
 11
-43.5388
 21
82.8225
  0
LINE
  8
0
 10
-43.5388
 20
82.8225
 11
-43.2873
 21
82.3919
  0
LINE
  8
0
 10
-43.2873
 20
82.3919
 11
-43.0444
 21
81.9563
  0
LINE
  8
0
 10
-43.0444
 20
81.9563
 11
-42.8103
 21
81.5161
  0
LINE
  8
0
 10
-42.8103
 20
81.5161
 11
-42.5851
 21
81.0712
  0
LINE
  8
0
 10
-42.5851
 20
81.0712
 11
-42.3687
 21
80.6219
  0
LINE
  8
0
 10
-42.3687
 20
80.6219
 11
-42.1614
 21
80.1684
  0
LINE
  8
0
 10
-42.1614
 20
80.1684
 11
-41.9631
 21
79.7109
  0
LINE
  8
0
 10
-41.9631
 20
79.7109
 11
-41.774
 21
79.2495
  0
LINE
  8
0
 10
-41.774
 20
79.2495
 11
-41.5941
 21
78.7844
  0
LINE
  8
0
 10
-41.5941
 20
78.7844
 11
-41.4236
 21
78.3158
  0
LINE
  8
0
 10
-41.4236
 20
78.3158
 11
-41.2624
 21
77.8439
  0
LINE
  8
0
 10
-41.2624
 20
77.8439
 11
-41.1107
 21
77.3689
  0
LINE
  8
0
 10
-41.1107
 20
77.3689
 11
-40.9684
 21
76.8909
  0
LINE
  8
0
 10
-40.9684
 20
76.8909
 11
-40.8358
 21
76.4102
  0
LINE
  8
0
 10
-40.8358
 20
76.4102
 11
-40.7127
 21
75.927
  0
LINE
  8
0
 10
-40.7127
 20
75.927
 11
-40.5993
 21
75.4414
  0
LINE
  8
0
 10
-40.5993
 20
75.4414
 11
-40.4957
 21
74.9536
  0
LINE
  8
0
 10
-40.4957
 20
74.9536
 11
-40.4017
 21
74.4639
  0
LINE
  8
0
 10
-40.4017
 20
74.4639
 11
-40.3176
 21
73.9724
  0
LINE
  8
0
 10
-40.3176
 20
73.9724
 11
-40.2433
 21
73.4793
  0
LINE
  8
0
 10
-40.2433
 20
73.4793
 11
-40.1788
 21
72.9848
  0
LINE
  8
0
 10
-40.1788
 20
72.9848
 11
-40.1242
 21
72.4892
  0
LINE
  8
0
 10
-40.1242
 20
72.4892
 11
-40.0795
 21
71.9925
  0
LINE
  8
0
 10
-40.0795
 20
71.9925
 11
-40.0447
 21
71.4951
  0
LINE
  8
0
 10
-40.0447
 20
71.4951
 11
-40.0199
 21
70.9971
  0
LINE
  8
0
 10
-40.0199
 20
70.9971
 11
-40.005
 21
70.4986
  0
LINE
  8
0
 10
-40.005
 20
70.4986
 11
-40
 21
70
  0
LINE
  8
0
 10
-40
 20
70
 11
-40.005
 21
69.5014
  0
LINE
  8
0
 10
-40.005
 20
69.5014
 11
-40.0199
 21
69.0029
  0
LINE
  8
0
 10
-40.0199
 20
69.0029
 11
-40.0447
 21
68.5049
  0
LINE
  8
0
 10
-40.0447
 20
68.5049
 11
-40.0795
 21
68.0074
  0
LINE
  8
0
 10
-40.0795
 20
68.0074
 11
-40.1242
 21
67.5108
  0
LINE
  8
0
 10
-40.1242
 20
67.5108
 11
-40.1788
 21
67.0151
  0
LINE
  8
0
 10
-40.1788
 20
67.0151
 11
-40.2433
 21
66.5207
  0
LINE
  8
0
 10
-40.2433
 20
66.5207
 11
-40.3176
 21
66.0276
  0
LINE
  8
0
 10
-40.3176
 20
66.0276
 11
-40.4017
 21
65.5361
  0
LINE
  8
0
 10
-40.4017
 20
65.5361
 11
-40.4957
 21
65.0463
  0
LINE
  8
0
 10
-40.4957
 20
65.0463
 11
-40.5993
 21
64.5586
  0
LINE
  8
0
 10
-40.5993
 20
64.5586
 11
-40.7127
 21
64.073
  0
LINE
  8
0
 10
-40.7127
 20
64.073
 11
-40.8358
 21
63.5898
  0
LINE
  8
0
 10
-40.8358
 20
63.5898
 11
-40.9684
 21
63.1091
  0
LINE
  8
0
 10
-40.9684
 20
63.1091
 11
-41.1107
 21
62.6311
  0
LINE
  8
0
 10
-41.1107
 20
62.6311
 11
-41.2624
 21
62.1561
  0
LINE
  8
0
 10
-41.2624
 20
62.1561
 11
-41.4236
 21
61.6842
  0
LINE
  8
0
 10
-41.4236
 20
61.6842
 11
-41.5941
 21
61.2156
  0
LINE
  8
0
 10
-41.5941
 20
61.2156
 11
-41.774
 21
60.7505
  0
LINE
  8
0
 10
-41.774
 20
60.7505
 11
-41.9631
 21
60.2891
  0
LINE
  8
0
 10
-41.9631
 20
60.2891
 11
-42.1614
 21
59.8316
  0
LINE
  8
0
 10
-42.1614
 20
59.8316
 11
-42.3687
 21
59.3781
  0
LINE
  8
0
 10
-42.3687
 20
59.3781
 11
-42.5851
 21
58.9288
  0
LINE
  8
0
 10
-42.5851
 20
58.9288
 11
-42.8103
 21
58.4839
  0
LINE
  8
0
 10
-42.8103
 20
58.4839
 11
-43.0444
 21
58.0436
  0
LINE
  8
0
 10
-43.0444
 20
58.0436
 11
-43.2873
 21
57.6081
  0
LINE
  8
0
 10
-43.2873
 20
57.6081
 11
-43.5388
 21
57.1775
  0
LINE
  8
0
 10
-43.5388
 20
57.1775
 11
-43.7988
 21
56.752
  0
LINE
  8
0
 10
-43.7988
 20
56.752
 11
-44.0672
 21
56.3318
  0
LINE
  8
0
 10
-44.0672
 20
56.3318
 11
-44.344
 21
55.917
  0
LINE
  8
0
 10
-44.344
 20
55.917
 11
-44.629
 21
55.5078
  0
LINE
  8
0
 10
-44.629
 20
55.5078
 11
-44.9221
 21
55.1044
  0
LINE
  8
0
 10
-44.9221
 20
55.1044
 11
-45.2232
 21
54.7069
  0
LINE
  8
0
 10
-45.2232
 20
54.7069
 11
-45.5322
 21
54.3155
  0
LINE
  8
0
 10
-45.5322
 20
54.3155
 11
-45.8489
 21
53.9303
  0
LINE
  8
0
 10
-45.8489
 20
53.9303
 11
-46.1732
 21
53.5515
  0
LINE
  8
0
 10
-46.1732
 20
53.5515
 11
-46.505
 21
53.1793
  0
LINE
  8
0
 10
-46.505
 20
53.1793
 11
-46.8442
 21
52.8138
  0
LINE
  8
0
 10
-46.8442
 20
52.8138
 11
-47.1906
 21
52.455
  0
LINE
  8
0
 10
-47.1906
 20
52.455
 11
-47.5441
 21
52.1033
  0
LINE
  8
0
 10
-47.5441
 20
52.1033
 11
-47.9045
 21
51.7587
  0
LINE
  8
0
 10
-47.9045
 20
51.7587
 11
-48.2717
 21
51.4214
  0
LINE
  8
0
 10
-48.2717
 20
51.4214
 11
-48.6456
 21
51.0914
  0
LINE
  8
0
 10
-48.6456
 20
51.0914
 11
-49.026
 21
50.769
  0
LINE
  8
0
 10
-49.026
 20
50.769
 11
-49.4128
 21
50.4542
  0
LINE
  8
0
 10
-49.4128
 20
50.4542
 11
-49.8057
 21
50.1472
  0
LINE
  8
0
 10
-49.8057
 20
50.1472
 11
-50.2047
 21
49.8481
  0
LINE
  8
0
 10
-50.2047
 20
49.8481
 11
-50.6096
 21
49.557
  0
LINE
  8
0
 10
-50.6096
 20
49.557
 11
-51.0202
 21
49.274
  0
LINE
  8
0
 10
-51.0202
 20
49.274
 11
-51.4363
 21
48.9993
  0
LINE
  8
0
 10
-51.4363
 20
48.9993
 11
-51.8579
 21
48.733
  0
LINE
  8
0
 10
-51.8579
 20
48.733
 11
-52.2847
 21
48.4751
  0
LINE
  8
0
 10
-52.2847
 20
48.4751
 11
-52.7165
 21
48.2258
  0
LINE
  8
0
 10
-52.7165
 20
48.2258
 11
-53.1533
 21
47.9851
  0
LINE
  8
0
 10
-53.1533
 20
47.9851
 11
-53.5947
 21
47.7532
  0
LINE
  8
0
 10
-53.5947
 20
47.7532
 11
-54.0407
 21
47.5301
  0
LINE
  8
0
 10
-54.0407
 20
47.5301
 11
-54.4911
 21
47.316
  0
LINE
  8
0
 10
-54.4911
 20
47.316
 11
-54.9456
 21
47.1109
  0
LINE
  8
0
 10
-54.9456
 20
47.1109
 11
-55.4041
 21
46.9149
  0
LINE
  8
0
 10
-55.4041
 20
46.9149
 11
-55.8665
 21
46.7281
  0
LINE
  8
0
 10
-55.8665
 20
46.7281
 11
-56.3324
 21
46.5506
  0
LINE
  8
0
 10
-56.3324
 20
46.5506
 11
-56.8019
 21
46.3824
  0
LINE
  8
0
 10
-56.8019
 20
46.3824
 11
-57.2746
 21
46.2236
  0
LINE
  8
0
 10
-57.2746
 20
46.2236
 11
-57.7503
 21
46.0742
  0
LINE
  8
0
 10
-57.7503
 20
46.0742
 11
-58.229
 21
45.9344
  0
LINE
  8
0
 10
-58.229
 20
45.9344
 11
-58.7103
 21
45.8041
  0
LINE
  8
0
 10
-58.7103
 20
45.8041
 11
-59.1942
 21
45.6835
  0
LINE
  8
0
 10
-59.1942
 20
45.6835
 11
-59.6803
 21
45.5725
  0
LINE
  8
0
 10
-59.6803
 20
45.5725
 11
-60.1686
 21
45.4713
  0
LINE
  8
0
 10
-60.1686
 20
45.4713
 11
-60.6588
 21
45.3798
  0
LINE
  8
0
 10
-60.6588
 20
45.3798
 11
-61.1507
 21
45.2981
  0
LINE
  8
0
 10
-61.1507
 20
45.2981
 11
-61.6442
 21
45.2262
  0
LINE
  8
0
 10
-61.6442
 20
45.2262
 11
-62.1389
 21
45.1642
  0
LINE
  8
0
 10
-62.1389
 20
45.1642
 11
-62.6349
 21
45.1121
  0
LINE
  8
0
 10
-62.6349
 20
45.1121
 11
-63.1317
 21
45.0699
  0
LINE
  8
0
 10
-63.1317
 20
45.0699
 11
-63.6293
 21
45.0376
  0
LINE
  8
0
 10
-63.6293
 20
45.0376
 11
-64.1275
 21
45.0152
  0
LINE
  8
0
 10
-64.1275
 20
45.0152
 11
-64.626
 21
45.0028
  0
LINE
  8
0
 10
-64.626
 20
45.0028
 11
-65.1247
 21
45.0003
  0
LINE
  8
0
 10
-65.1247
 20
45.0003
 11
-65.6233
 21
45.0078
  0
LINE
  8
0
 10
94.894
 20
32.4401
 11
94.45
 21
32.6144
  0
LINE
  8
0
 10
94.45
 20
32.6144
 11
94.0771
 21
32.9117
  0
LINE
  8
0
 10
94.0771
 20
32.9117
 11
93.8084
 21
33.3058
  0
LINE
  8
0
 10
93.8084
 20
33.3058
 11
93.6679
 21
33.7615
  0
LINE
  8
0
 10
93.6679
 20
33.7615
 11
93.6679
 21
34.2385
  0
LINE
  8
0
 10
93.6679
 20
34.2385
 11
93.8084
 21
34.6942
  0
LINE
  8
0
 10
93.8084
 20
34.6942
 11
94.0771
 21
35.0883
  0
LINE
  8
0
 10
94.0771
 20
35.0883
 11
94.45
 21
35.3856
  0
LINE
  8
0
 10
94.45
 20
35.3856
 11
94.894
 21
35.5599
  0
LINE
  8
0
 10
94.894
 20
35.5599
 11
95.3696
 21
35.5955
  0
LINE
  8
0
 10
95.3696
 20
35.5955
 11
95.8345
 21
35.4894
  0
LINE
  8
0
 10
95.8345
 20
35.4894
 11
96.2476
 21
35.2509
  0
LINE
  8
0
 10
96.2476
 20
35.2509
 11
96.572
 21
34.9013
  0
LINE
  8
0
 10
96.572
 20
34.9013
 11
96.7789
 21
34.4716
  0
LINE
  8
0
 10
96.7789
 20
34.4716
 11
96.85
 21
34
  0
LINE
  8
0
 10
96.85
 20
34
 11
96.7789
 21
33.5284
  0
LINE
  8
0
 10
96.7789
 20
33.5284
 11
96.572
 21
33.0987
  0
LINE
  8
0
 10
96.572
 20
33.0987
 11
96.2476
 21
32.7491
  0
LINE
  8
0
 10
96.2476
 20
32.7491
 11
95.8345
 21
32.5106
  0
LINE
  8
0
 10
95.8345
 20
32.5106
 11
95.3696
 21
32.4045
  0
LINE
  8
0
 10
95.3696
 20
32.4045
 11
94.894
 21
32.4401
  0
LINE
  8
0
 10
74.894
 20
32.4401
 11
74.45
 21
32.6144
  0
LINE
  8
0
 10
74.45
 20
32.6144
 11
74.0771
 21
32.9117
  0
LINE
  8
0
 10
74.0771
 20
32.9117
 11
73.8085
 21
33.3058
  0
LINE
  8
0
 10
73.8085
 20
33.3058
 11
73.6679
 21
33.7615
  0
LINE
  8
0
 10
73.6679
 20
33.7615
 11
73.6679
 21
34.2385
  0
LINE
  8
0
 10
73.6679
 20
34.2385
 11
73.8085
 21
34.6942
  0
LINE
  8
0
 10
73.8085
 20
34.6942
 11
74.0771
 21
35.0883
  0
LINE
  8
0
 10
74.0771
 20
35.0883
 11
74.45
 21
35.3856
  0
LINE
  8
0
 10
74.45
 20
35.3856
 11
74.894
 21
35.5599
  0
LINE
  8
0
 10
74.894
 20
35.5599
 11
75.3696
 21
35.5955
  0
LINE
  8
0
 10
75.3696
 20
35.5955
 11
75.8345
 21
35.4894
  0
LINE
  8
0
 10
75.8345
 20
35.4894
 11
76.2476
 21
35.2509
  0
LINE
  8
0
 10
76.2476
 20
35.2509
 11
76.572
 21
34.9013
  0
LINE
  8
0
 10
76.572
 20
34.9013
 11
76.7789
 21
34.4716
  0
LINE
  8
0
 10
76.7789
 20
34.4716
 11
76.85
 21
34
  0
LINE
  8
0
 10
76.85
 20
34
 11
76.7789
 21
33.5284
  0
LINE
  8
0
 10
76.7789
 20
33.5284
 11
76.572
 21
33.0987
  0
LINE
  8
0
 10
76.572
 20
33.0987
 11
76.2476
 21
32.7491
  0
LINE
  8
0
 10
76.2476
 20
32.7491
 11
75.8345
 21
32.5106
  0
LINE
  8
0
 10
75.8345
 20
32.5106
 11
75.3696
 21
32.4045
  0
LINE
  8
0
 10
75.3696
 20
32.4045
 11
74.894
 21
32.4401
  0
LINE
  8
0
 10
-75.606
 20
32.4401
 11
-76.05
 21
32.6144
  0
LINE
  8
0
 10
-76.05
 20
32.6144
 11
-76.4229
 21
32.9117
  0
LINE
  8
0
 10
-76.4229
 20
32.9117
 11
-76.6916
 21
33.3058
  0
LINE
  8
0
 10
-76.6916
 20
33.3058
 11
-76.8321
 21
33.7615
  0
LINE
  8
0
 10
-76.8321
 20
33.7615
 11
-76.8321
 21
34.2385
  0
LINE
  8
0
 10
-76.8321
 20
34.2385
 11
-76.6916
 21
34.6942
  0
LINE
  8
0
 10
-76.6916
 20
34.6942
 11
-76.4229
 21
35.0883
  0
LINE
  8
0
 10
-76.4229
 20
35.0883
 11
-76.05
 21
35.3856
  0
LINE
  8
0
 10
-76.05
 20
35.3856
 11
-75.606
 21
35.5599
  0
LINE
  8
0
 10
-75.606
 20
35.5599
 11
-75.1304
 21
35.5955
  0
LINE
  8
0
 10
-75.1304
 20
35.5955
 11
-74.6655
 21
35.4894
  0
LINE
  8
0
 10
-74.6655
 20
35.4894
 11
-74.2524
 21
35.2509
  0
LINE
  8
0
 10
-74.2524
 20
35.2509
 11
-73.928
 21
34.9013
  0
LINE
  8
0
 10
-73.928
 20
34.9013
 11
-73.7211
 21
34.4716
  0
LINE
  8
0
 10
-73.7211
 20
34.4716
 11
-73.65
 21
34
  0
LINE
  8
0
 10
-73.65
 20
34
 11
-73.7211
 21
33.5284
  0
LINE
  8
0
 10
-73.7211
 20
33.5284
 11
-73.928
 21
33.0987
  0
LINE
  8
0
 10
-73.928
 20
33.0987
 11
-74.2524
 21
32.7491
  0
LINE
  8
0
 10
-74.2524
 20
32.7491
 11
-74.6655
 21
32.5106
  0
LINE
  8
0
 10
-74.6655
 20
32.5106
 11
-75.1304
 21
32.4045
  0
LINE
  8
0
 10
-75.1304
 20
32.4045
 11
-75.606
 21
32.4401
  0
LINE
  8
0
 10
-95.606
 20
32.4401
 11
-96.05
 21
32.6144
  0
LINE
  8
0
 10
-96.05
 20
32.6144
 11
-96.4229
 21
32.9117
  0
LINE
  8
0
 10
-96.4229
 20
32.9117
 11
-96.6915
 21
33.3058
  0
LINE
  8
0
 10
-96.6915
 20
33.3058
 11
-96.8321
 21
33.7615
  0
LINE
  8
0
 10
-96.8321
 20
33.7615
 11
-96.8321
 21
34.2385
  0
LINE
  8
0
 10
-96.8321
 20
34.2385
 11
-96.6915
 21
34.6942
  0
LINE
  8
0
 10
-96.6915
 20
34.6942
 11
-96.4229
 21
35.0883
  0
LINE
  8
0
 10
-96.4229
 20
35.0883
 11
-96.05
 21
35.3856
  0
LINE
  8
0
 10
-96.05
 20
35.3856
 11
-95.606
 21
35.5599
  0
LINE
  8
0
 10
-95.606
 20
35.5599
 11
-95.1304
 21
35.5955
  0
LINE
  8
0
 10
-95.1304
 20
35.5955
 11
-94.6655
 21
35.4894
  0
LINE
  8
0
 10
-94.6655
 20
35.4894
 11
-94.2524
 21
35.2509
  0
LINE
  8
0
 10
-94.2524
 20
35.2509
 11
-93.928
 21
34.9013
  0
LINE
  8
0
 10
-93.928
 20
34.9013
 11
-93.7211
 21
34.4716
  0
LINE
  8
0
 10
-93.7211
 20
34.4716
 11
-93.65
 21
34
  0
LINE
  8
0
 10
-93.65
 20
34
 11
-93.7211
 21
33.5284
  0
LINE
  8
0
 10
-93.7211
 20
33.5284
 11
-93.928
 21
33.0987
  0
LINE
  8
0
 10
-93.928
 20
33.0987
 11
-94.2524
 21
32.7491
  0
LINE
  8
0
 10
-94.2524
 20
32.7491
 11
-94.6655
 21
32.5106
  0
LINE
  8
0
 10
-94.6655
 20
32.5106
 11
-95.1304
 21
32.4045
  0
LINE
  8
0
 10
-95.1304
 20
32.4045
 11
-95.606
 21
32.4401
  0
LINE
  8
0
 10
39.8753
 20
-24.9997
 11
39.3767
 21
-24.9922
  0
LINE
  8
0
 10
39.3767
 20
-24.9922
 11
38.8784
 21
-24.9748
  0
LINE
  8
0
 10
38.8784
 20
-24.9748
 11
38.3805
 21
-24.9475
  0
LINE
  8
0
 10
38.3805
 20
-24.9475
 11
37.8832
 21
-24.9102
  0
LINE
  8
0
 10
37.8832
 20
-24.9102
 11
37.3868
 21
-24.863
  0
LINE
  8
0
 10
37.3868
 20
-24.863
 11
36.8914
 21
-24.806
  0
LINE
  8
0
 10
36.8914
 20
-24.806
 11
36.3973
 21
-24.739
  0
LINE
  8
0
 10
36.3973
 20
-24.739
 11
35.9045
 21
-24.6623
  0
LINE
  8
0
 10
35.9045
 20
-24.6623
 11
35.4135
 21
-24.5757
  0
LINE
  8
0
 10
35.4135
 20
-24.5757
 11
34.9242
 21
-24.4793
  0
LINE
  8
0
 10
34.9242
 20
-24.4793
 11
34.437
 21
-24.3732
  0
LINE
  8
0
 10
34.437
 20
-24.3732
 11
33.952
 21
-24.2574
  0
LINE
  8
0
 10
33.952
 20
-24.2574
 11
33.4693
 21
-24.1319
  0
LINE
  8
0
 10
33.4693
 20
-24.1319
 11
32.9893
 21
-23.9969
  0
LINE
  8
0
 10
32.9893
 20
-23.9969
 11
32.5121
 21
-23.8523
  0
LINE
  8
0
 10
32.5121
 20
-23.8523
 11
32.0378
 21
-23.6982
  0
LINE
  8
0
 10
32.0378
 20
-23.6982
 11
31.5667
 21
-23.5347
  0
LINE
  8
0
 10
31.5667
 20
-23.5347
 11
31.099
 21
-23.3618
  0
LINE
  8
0
 10
31.099
 20
-23.3618
 11
30.6348
 21
-23.1796
  0
LINE
  8
0
 10
30.6348
 20
-23.1796
 11
30.1744
 21
-22.9882
  0
LINE
  8
0
 10
30.1744
 20
-22.9882
 11
29.7178
 21
-22.7876
  0
LINE
  8
0
 10
29.7178
 20
-22.7876
 11
29.2654
 21
-22.578
  0
LINE
  8
0
 10
29.2654
 20
-22.578
 11
28.8172
 21
-22.3594
  0
LINE
  8
0
 10
28.8172
 20
-22.3594
 11
28.3734
 21
-22.1319
  0
LINE
  8
0
 10
28.3734
 20
-22.1319
 11
27.9343
 21
-21.8956
  0
LINE
  8
0
 10
27.9343
 20
-21.8956
 11
27.5
 21
-21.6506
  0
LINE
  8
0
 10
27.5
 20
-21.6506
 11
27.0706
 21
-21.397
  0
LINE
  8
0
 10
27.0706
 20
-21.397
 11
26.6465
 21
-21.1349
  0
LINE
  8
0
 10
26.6465
 20
-21.1349
 11
26.2276
 21
-20.8643
  0
LINE
  8
0
 10
26.2276
 20
-20.8643
 11
25.8142
 21
-20.5855
  0
LINE
  8
0
 10
25.8142
 20
-20.5855
 11
25.4064
 21
-20.2984
  0
LINE
  8
0
 10
25.4064
 20
-20.2984
 11
25.0044
 21
-20.0033
  0
LINE
  8
0
 10
25.0044
 20
-20.0033
 11
24.6085
 21
-19.7003
  0
LINE
  8
0
 10
24.6085
 20
-19.7003
 11
24.2186
 21
-19.3894
  0
LINE
  8
0
 10
24.2186
 20
-19.3894
 11
23.835
 21
-19.0707
  0
LINE
  8
0
 10
23.835
 20
-19.0707
 11
23.4578
 21
-18.7445
  0
LINE
  8
0
 10
23.4578
 20
-18.7445
 11
23.0873
 21
-18.4109
  0
LINE
  8
0
 10
23.0873
 20
-18.4109
 11
22.7234
 21
-18.0699
  0
LINE
  8
0
 10
22.7234
 20
-18.0699
 11
22.3665
 21
-17.7217
  0
LINE
  8
0
 10
22.3665
 20
-17.7217
 11
22.0165
 21
-17.3665
  0
LINE
  8
0
 10
22.0165
 20
-17.3665
 11
21.6737
 21
-17.0043
  0
LINE
  8
0
 10
21.6737
 20
-17.0043
 11
21.3382
 21
-16.6354
  0
LINE
  8
0
 10
21.3382
 20
-16.6354
 11
21.0101
 21
-16.2599
  0
LINE
  8
0
 10
21.0101
 20
-16.2599
 11
20.6896
 21
-15.8779
  0
LINE
  8
0
 10
20.6896
 20
-15.8779
 11
20.3767
 21
-15.4896
  0
LINE
  8
0
 10
20.3767
 20
-15.4896
 11
20.0717
 21
-15.0951
  0
LINE
  8
0
 10
20.0717
 20
-15.0951
 11
19.7746
 21
-14.6946
  0
LINE
  8
0
 10
19.7746
 20
-14.6946
 11
19.4855
 21
-14.2883
  0
LINE
  8
0
 10
19.4855
 20
-14.2883
 11
19.2046
 21
-13.8763
  0
LINE
  8
0
 10
19.2046
 20
-13.8763
 11
18.932
 21
-13.4588
  0
LINE
  8
0
 10
18.932
 20
-13.4588
 11
18.6677
 21
-13.0359
  0
LINE
  8
0
 10
18.6677
 20
-13.0359
 11
18.412
 21
-12.6078
  0
LINE
  8
0
 10
18.412
 20
-12.6078
 11
18.1648
 21
-12.1747
  0
LINE
  8
0
 10
18.1648
 20
-12.1747
 11
17.9263
 21
-11.7368
  0
LINE
  8
0
 10
17.9263
 20
-11.7368
 11
17.6966
 21
-11.2942
  0
LINE
  8
0
 10
17.6966
 20
-11.2942
 11
17.4758
 21
-10.8471
  0
LINE
  8
0
 10
17.4758
 20
-10.8471
 11
17.2639
 21
-10.3957
  0
LINE
  8
0
 10
17.2639
 20
-10.3957
 11
17.0611
 21
-9.94012
  0
LINE
  8
0
 10
17.0611
 20
-9.94012
 11
16.8674
 21
-9.48062
  0
LINE
  8
0
 10
16.8674
 20
-9.48062
 11
16.6829
 21
-9.01735
  0
LINE
  8
0
 10
16.6829
 20
-9.01735
 11
16.5077
 21
-8.55049
  0
LINE
  8
0
 10
16.5077
 20
-8.55049
 11
16.3418
 21
-8.08023
  0
LINE
  8
0
 10
16.3418
 20
-8.08023
 11
16.1853
 21
-7.60675
  0
LINE
  8
0
 10
16.1853
 20
-7.60675
 11
16.0384
 21
-7.13025
  0
LINE
  8
0
 10
16.0384
 20
-7.13025
 11
15.9009
 21
-6.65091
  0
LINE
  8
0
 10
15.9009
 20
-6.65091
 11
15.7731
 21
-6.16893
  0
LINE
  8
0
 10
15.7731
 20
-6.16893
 11
15.6548
 21
-5.68449
  0
LINE
  8
0
 10
15.6548
 20
-5.68449
 11
15.5463
 21
-5.19778
  0
LINE
  8
0
 10
15.5463
 20
-5.19778
 11
15.4475
 21
-4.70901
  0
LINE
  8
0
 10
15.4475
 20
-4.70901
 11
15.3585
 21
-4.21837
  0
LINE
  8
0
 10
15.3585
 20
-4.21837
 11
15.2792
 21
-3.72604
  0
LINE
  8
0
 10
15.2792
 20
-3.72604
 11
15.2098
 21
-3.23224
  0
LINE
  8
0
 10
15.2098
 20
-3.23224
 11
15.1503
 21
-2.73715
  0
LINE
  8
0
 10
15.1503
 20
-2.73715
 11
15.1006
 21
-2.24098
  0
LINE
  8
0
 10
15.1006
 20
-2.24098
 11
15.0609
 21
-1.74391
  0
LINE
  8
0
 10
15.0609
 20
-1.74391
 11
15.0311
 21
-1.24614
  0
LINE
  8
0
 10
15.0311
 20
-1.24614
 11
15.0112
 21
-0.747879
  0
LINE
  8
0
 10
15.0112
 20
-0.747879
 11
15.0012
 21
-0.249329
  0
LINE
  8
0
 10
15.0012
 20
-0.249329
 11
15.0012
 21
0.249329
  0
LINE
  8
0
 10
15.0012
 20
0.249329
 11
15.0112
 21
0.747879
  0
LINE
  8
0
 10
15.0112
 20
0.747879
 11
15.0311
 21
1.24614
  0
LINE
  8
0
 10
15.0311
 20
1.24614
 11
15.0609
 21
1.74391
  0
LINE
  8
0
 10
15.0609
 20
1.74391
 11
15.1006
 21
2.24098
  0
LINE
  8
0
 10
15.1006
 20
2.24098
 11
15.1503
 21
2.73715
  0
LINE
  8
0
 10
15.1503
 20
2.73715
 11
15.2098
 21
3.23224
  0
LINE
  8
0
 10
15.2098
 20
3.23224
 11
15.2792
 21
3.72604
  0
LINE
  8
0
 10
15.2792
 20
3.72604
 11
15.3585
 21
4.21837
  0
LINE
  8
0
 10
15.3585
 20
4.21837
 11
15.4475
 21
4.70901
  0
LINE
  8
0
 10
15.4475
 20
4.70901
 11
15.5463
 21
5.19778
  0
LINE
  8
0
 10
15.5463
 20
5.19778
 11
15.6548
 21
5.68449
  0
LINE
  8
0
 10
15.6548
 20
5.68449
 11
15.7731
 21
6.16893
  0
LINE
  8
0
 10
15.7731
 20
6.16893
 11
15.9009
 21
6.65091
  0
LINE
  8
0
 10
15.9009
 20
6.65091
 11
16.0384
 21
7.13025
  0
LINE
  8
0
 10
16.0384
 20
7.13025
 11
16.1853
 21
7.60675
  0
LINE
  8
0
 10
16.1853
 20
7.60675
 11
16.3418
 21
8.08023
  0
LINE
  8
0
 10
16.3418
 20
8.08023
 11
16.5077
 21
8.55049
  0
LINE
  8
0
 10
16.5077
 20
8.55049
 11
16.6829
 21
9.01735
  0
LINE
  8
0
 10
16.6829
 20
9.01735
 11
16.8674
 21
9.48062
  0
LINE
  8
0
 10
16.8674
 20
9.48062
 11
17.0611
 21
9.94012
  0
LINE
  8
0
 10
17.0611
 20
9.94012
 11
17.2639
 21
10.3957
  0
LINE
  8
0
 10
17.2639
 20
10.3957
 11
17.4758
 21
10.8471
  0
LINE
  8
0
 10
17.4758
 20
10.8471
 11
17.6966
 21
11.2942
  0
LINE
  8
0
 10
17.6966
 20
11.2942
 11
17.9263
 21
11.7368
  0
LINE
  8
0
 10
17.9263
 20
11.7368
 11
18.1648
 21
12.1747
  0
LINE
  8
0
 10
18.1648
 20
12.1747
 11
18.412
 21
12.6078
  0
LINE
  8
0
 10
18.412
 20
12.6078
 11
18.6677
 21
13.0359
  0
LINE
  8
0
 10
18.6677
 20
13.0359
 11
18.932
 21
13.4588
  0
LINE
  8
0
 10
18.932
 20
13.4588
 11
19.2046
 21
13.8763
  0
LINE
  8
0
 10
19.2046
 20
13.8763
 11
19.4855
 21
14.2883
  0
LINE
  8
0
 10
19.4855
 20
14.2883
 11
19.7746
 21
14.6946
  0
LINE
  8
0
 10
19.7746
 20
14.6946
 11
20.0717
 21
15.0951
  0
LINE
  8
0
 10
20.0717
 20
15.0951
 11
20.3767
 21
15.4896
  0
LINE
  8
0
 10
20.3767
 20
15.4896
 11
20.6896
 21
15.8779
  0
LINE
  8
0
 10
20.6896
 20
15.8779
 11
21.0101
 21
16.2599
  0
LINE
  8
0
 10
21.0101
 20
16.2599
 11
21.3382
 21
16.6354
  0
LINE
  8
0
 10
21.3382
 20
16.6354
 11
21.6737
 21
17.0043
  0
LINE
  8
0
 10
21.6737
 20
17.0043
 11
22.0165
 21
17.3665
  0
LINE
  8
0
 10
22.0165
 20
17.3665
 11
22.3665
 21
17.7217
  0
LINE
  8
0
 10
22.3665
 20
17.7217
 11
22.7234
 21
18.0699
  0
LINE
  8
0
 10
22.7234
 20
18.0699
 11
23.0873
 21
18.4109
  0
LINE
  8
0
 10
23.0873
 20
18.4109
 11
23.4578
 21
18.7445
  0
LINE
  8
0
 10
23.4578
 20
18.7445
 11
23.835
 21
19.0707
  0
LINE
  8
0
 10
23.835
 20
19.0707
 11
24.2186
 21
19.3894
  0
LINE
  8
0
 10
24.2186
 20
19.3894
 11
24.6085
 21
19.7003
  0
LINE
  8
0
 10
24.6085
 20
19.7003
 11
25.0044
 21
20.0033
  0
LINE
  8
0
 10
25.0044
 20
20.0033
 11
25.4064
 21
20.2984
  0
LINE
  8
0
 10
25.4064
 20
20.2984
 11
25.8142
 21
20.5855
  0
LINE
  8
0
 10
25.8142
 20
20.5855
 11
26.2276
 21
20.8643
  0
LINE
  8
0
 10
26.2276
 20
20.8643
 11
26.6465
 21
21.1349
  0
LINE
  8
0
 10
26.6465
 20
21.1349
 11
27.0706
 21
21.397
  0
LINE
  8
0
 10
27.0706
 20
21.397
 11
27.5
 21
21.6506
  0
LINE
  8
0
 10
27.5
 20
21.6506
 11
27.9343
 21
21.8956
  0
LINE
  8
0
 10
27.9343
 20
21.8956
 11
28.3734
 21
22.1319
  0
LINE
  8
0
 10
28.3734
 20
22.1319
 11
28.8172
 21
22.3594
  0
LINE
  8
0
 10
28.8172
 20
22.3594
 11
29.2654
 21
22.578
  0
LINE
  8
0
 10
29.2654
 20
22.578
 11
29.7178
 21
22.7876
  0
LINE
  8
0
 10
29.7178
 20
22.7876
 11
30.1744
 21
22.9882
  0
LINE
  8
0
 10
30.1744
 20
22.9882
 11
30.6348
 21
23.1796
  0
LINE
  8
0
 10
30.6348
 20
23.1796
 11
31.099
 21
23.3618
  0
LINE
  8
0
 10
31.099
 20
23.3618
 11
31.5667
 21
23.5347
  0
LINE
  8
0
 10
31.5667
 20
23.5347
 11
32.0378
 21
23.6982
  0
LINE
  8
0
 10
32.0378
 20
23.6982
 11
32.5121
 21
23.8523
  0
LINE
  8
0
 10
32.5121
 20
23.8523
 11
32.9893
 21
23.9969
  0
LINE
  8
0
 10
32.9893
 20
23.9969
 11
33.4693
 21
24.1319
  0
LINE
  8
0
 10
33.4693
 20
24.1319
 11
33.952
 21
24.2574
  0
LINE
  8
0
 10
33.952
 20
24.2574
 11
34.437
 21
24.3732
  0
LINE
  8
0
 10
34.437
 20
24.3732
 11
34.9242
 21
24.4793
  0
LINE
  8
0
 10
34.9242
 20
24.4793
 11
35.4135
 21
24.5757
  0
LINE
  8
0
 10
35.4135
 20
24.5757
 11
35.9045
 21
24.6623
  0
LINE
  8
0
 10
35.9045
 20
24.6623
 11
36.3973
 21
24.739
  0
LINE
  8
0
 10
36.3973
 20
24.739
 11
36.8914
 21
24.806
  0
LINE
  8
0
 10
36.8914
 20
24.806
 11
37.3868
 21
24.863
  0
LINE
  8
0
 10
37.3868
 20
24.863
 11
37.8832
 21
24.9102
  0
LINE
  8
0
 10
37.8832
 20
24.9102
 11
38.3805
 21
24.9475
  0
LINE
  8
0
 10
38.3805
 20
24.9475
 11
38.8784
 21
24.9748
  0
LINE
  8
0
 10
38.8784
 20
24.9748
 11
39.3767
 21
24.9922
  0
LINE
  8
0
 10
39.3767
 20
24.9922
 11
39.8753
 21
24.9997
  0
LINE
  8
0
 10
39.8753
 20
24.9997
 11
69.8753
 21
24.9997
  0
LINE
  8
0
 10
69.8753
 20
24.9997
 11
70.374
 21
24.9972
  0
LINE
  8
0
 10
70.374
 20
24.9972
 11
70.8725
 21
24.9848
  0
LINE
  8
0
 10
70.8725
 20
24.9848
 11
71.3706
 21
24.9624
  0
LINE
  8
0
 10
71.3706
 20
24.9624
 11
71.8682
 21
24.9301
  0
LINE
  8
0
 10
71.8682
 20
24.9301
 11
72.3651
 21
24.8879
  0
LINE
  8
0
 10
72.3651
 20
24.8879
 11
72.861
 21
24.8357
  0
LINE
  8
0
 10
72.861
 20
24.8357
 11
73.3558
 21
24.7737
  0
LINE
  8
0
 10
73.3558
 20
24.7737
 11
73.8493
 21
24.7019
  0
LINE
  8
0
 10
73.8493
 20
24.7019
 11
74.3412
 21
24.6202
  0
LINE
  8
0
 10
74.3412
 20
24.6202
 11
74.8314
 21
24.5287
  0
LINE
  8
0
 10
74.8314
 20
24.5287
 11
75.3197
 21
24.4275
  0
LINE
  8
0
 10
75.3197
 20
24.4275
 11
75.8058
 21
24.3165
  0
LINE
  8
0
 10
75.8058
 20
24.3165
 11
76.2897
 21
24.1959
  0
LINE
  8
0
 10
76.2897
 20
24.1959
 11
76.771
 21
24.0656
  0
LINE
  8
0
 10
76.771
 20
24.0656
 11
77.2496
 21
23.9258
  0
LINE
  8
0
 10
77.2496
 20
23.9258
 11
77.7254
 21
23.7764
  0
LINE
  8
0
 10
77.7254
 20
23.7764
 11
78.1981
 21
23.6176
  0
LINE
  8
0
 10
78.1981
 20
23.6176
 11
78.6675
 21
23.4494
  0
LINE
  8
0
 10
78.6675
 20
23.4494
 11
79.1335
 21
23.2718
  0
LINE
  8
0
 10
79.1335
 20
23.2718
 11
79.5959
 21
23.085
  0
LINE
  8
0
 10
79.5959
 20
23.085
 11
80.0544
 21
22.8891
  0
LINE
  8
0
 10
80.0544
 20
22.8891
 11
80.5089
 21
22.684
  0
LINE
  8
0
 10
80.5089
 20
22.684
 11
80.9593
 21
22.4698
  0
LINE
  8
0
 10
80.9593
 20
22.4698
 11
81.4053
 21
22.2468
  0
LINE
  8
0
 10
81.4053
 20
22.2468
 11
81.8467
 21
22.0149
  0
LINE
  8
0
 10
81.8467
 20
22.0149
 11
82.2834
 21
21.7742
  0
LINE
  8
0
 10
82.2834
 20
21.7742
 11
82.7153
 21
21.5249
  0
LINE
  8
0
 10
82.7153
 20
21.5249
 11
83.1421
 21
21.267
  0
LINE
  8
0
 10
83.1421
 20
21.267
 11
83.5636
 21
21.0006
  0
LINE
  8
0
 10
83.5636
 20
21.0006
 11
83.9798
 21
20.7259
  0
LINE
  8
0
 10
83.9798
 20
20.7259
 11
84.3904
 21
20.443
  0
LINE
  8
0
 10
84.3904
 20
20.443
 11
84.7953
 21
20.1519
  0
LINE
  8
0
 10
84.7953
 20
20.1519
 11
85.1943
 21
19.8528
  0
LINE
  8
0
 10
85.1943
 20
19.8528
 11
85.5872
 21
19.5458
  0
LINE
  8
0
 10
85.5872
 20
19.5458
 11
85.974
 21
19.231
  0
LINE
  8
0
 10
85.974
 20
19.231
 11
86.3544
 21
18.9086
  0
LINE
  8
0
 10
86.3544
 20
18.9086
 11
86.7283
 21
18.5786
  0
LINE
  8
0
 10
86.7283
 20
18.5786
 11
87.0955
 21
18.2413
  0
LINE
  8
0
 10
87.0955
 20
18.2413
 11
87.4559
 21
17.8967
  0
LINE
  8
0
 10
87.4559
 20
17.8967
 11
87.8094
 21
17.5449
  0
LINE
  8
0
 10
87.8094
 20
17.5449
 11
88.1558
 21
17.1862
  0
LINE
  8
0
 10
88.1558
 20
17.1862
 11
88.495
 21
16.8207
  0
LINE
  8
0
 10
88.495
 20
16.8207
 11
88.8268
 21
16.4485
  0
LINE
  8
0
 10
88.8268
 20
16.4485
 11
89.1511
 21
16.0697
  0
LINE
  8
0
 10
89.1511
 20
16.0697
 11
89.4678
 21
15.6845
  0
LINE
  8
0
 10
89.4678
 20
15.6845
 11
89.7768
 21
15.2931
  0
LINE
  8
0
 10
89.7768
 20
15.2931
 11
90.0779
 21
14.8956
  0
LINE
  8
0
 10
90.0779
 20
14.8956
 11
90.371
 21
14.4922
  0
LINE
  8
0
 10
90.371
 20
14.4922
 11
90.656
 21
14.083
  0
LINE
  8
0
 10
90.656
 20
14.083
 11
90.9327
 21
13.6682
  0
LINE
  8
0
 10
90.9327
 20
13.6682
 11
91.2012
 21
13.248
  0
LINE
  8
0
 10
91.2012
 20
13.248
 11
91.4612
 21
12.8225
  0
LINE
  8
0
 10
91.4612
 20
12.8225
 11
91.7127
 21
12.3919
  0
LINE
  8
0
 10
91.7127
 20
12.3919
 11
91.9555
 21
11.9563
  0
LINE
  8
0
 10
91.9555
 20
11.9563
 11
92.1896
 21
11.5161
  0
LINE
  8
0
 10
92.1896
 20
11.5161
 11
92.4149
 21
11.0712
  0
LINE
  8
0
 10
92.4149
 20
11.0712
 11
92.6313
 21
10.6219
  0
LINE
  8
0
 10
92.6313
 20
10.6219
 11
92.8386
 21
10.1684
  0
LINE
  8
0
 10
92.8386
 20
10.1684
 11
93.0369
 21
9.71086
  0
LINE
  8
0
 10
93.0369
 20
9.71086
 11
93.226
 21
9.24945
  0
LINE
  8
0
 10
93.226
 20
9.24945
 11
93.4059
 21
8.78436
  0
LINE
  8
0
 10
93.4059
 20
8.78436
 11
93.5764
 21
8.31578
  0
LINE
  8
0
 10
93.5764
 20
8.31578
 11
93.7376
 21
7.84389
  0
LINE
  8
0
 10
93.7376
 20
7.84389
 11
93.8893
 21
7.36887
  0
LINE
  8
0
 10
93.8893
 20
7.36887
 11
94.0315
 21
6.89093
  0
LINE
  8
0
 10
94.0315
 20
6.89093
 11
94.1642
 21
6.41023
  0
LINE
  8
0
 10
94.1642
 20
6.41023
 11
94.2872
 21
5.927
  0
LINE
  8
0
 10
94.2872
 20
5.927
 11
94.4006
 21
5.44141
  0
LINE
  8
0
 10
94.4006
 20
5.44141
 11
94.5043
 21
4.95364
  0
LINE
  8
0
 10
94.5043
 20
4.95364
 11
94.5982
 21
4.46391
  0
LINE
  8
0
 10
94.5982
 20
4.46391
 11
94.6824
 21
3.97241
  0
LINE
  8
0
 10
94.6824
 20
3.97241
 11
94.7567
 21
3.47932
  0
LINE
  8
0
 10
94.7567
 20
3.47932
 11
94.8212
 21
2.98485
  0
LINE
  8
0
 10
94.8212
 20
2.98485
 11
94.8758
 21
2.48918
  0
LINE
  8
0
 10
94.8758
 20
2.48918
 11
94.9205
 21
1.99254
  0
LINE
  8
0
 10
94.9205
 20
1.99254
 11
94.9552
 21
1.4951
  0
LINE
  8
0
 10
94.9552
 20
1.4951
 11
94.9801
 21
0.997055
  0
LINE
  8
0
 10
94.9801
 20
0.997055
 11
94.995
 21
0.498627
  0
LINE
  8
0
 10
94.995
 20
0.498627
 11
95
 21
0
  0
LINE
  8
0
 10
95
 20
0
 11
94.995
 21
-0.498627
  0
LINE
  8
0
 10
94.995
 20
-0.498627
 11
94.9801
 21
-0.997055
  0
LINE
  8
0
 10
94.9801
 20
-0.997055
 11
94.9552
 21
-1.4951
  0
LINE
  8
0
 10
94.9552
 20
-1.4951
 11
94.9205
 21
-1.99254
  0
LINE
  8
0
 10
94.9205
 20
-1.99254
 11
94.8758
 21
-2.48918
  0
LINE
  8
0
 10
94.8758
 20
-2.48918
 11
94.8212
 21
-2.98485
  0
LINE
  8
0
 10
94.8212
 20
-2.98485
 11
94.7567
 21
-3.47932
  0
LINE
  8
0
 10
94.7567
 20
-3.47932
 11
94.6824
 21
-3.97241
  0
LINE
  8
0
 10
94.6824
 20
-3.97241
 11
94.5982
 21
-4.46391
  0
LINE
  8
0
 10
94.5982
 20
-4.46391
 11
94.5043
 21
-4.95364
  0
LINE
  8
0
 10
94.5043
 20
-4.95364
 11
94.4006
 21
-5.44141
  0
LINE
  8
0
 10
94.4006
 20
-5.44141
 11
94.2872
 21
-5.927
  0
LINE
  8
0
 10
94.2872
 20
-5.927
 11
94.1642
 21
-6.41023
  0
LINE
  8
0
 10
94.1642
 20
-6.41023
 11
94.0315
 21
-6.89093
  0
LINE
  8
0
 10
94.0315
 20
-6.89093
 11
93.8893
 21
-7.36887
  0
LINE
  8
0
 10
93.8893
 20
-7.36887
 11
93.7376
 21
-7.84389
  0
LINE
  8
0
 10
93.7376
 20
-7.84389
 11
93.5764
 21
-8.31578
  0
LINE
  8
0
 10
93.5764
 20
-8.31578
 11
93.4059
 21
-8.78436
  0
LINE
  8
0
 10
93.4059
 20
-8.78436
 11
93.226
 21
-9.24945
  0
LINE
  8
0
 10
93.226
 20
-9.24945
 11
93.0369
 21
-9.71086
  0
LINE
  8
0
 10
93.0369
 20
-9.71086
 11
92.8386
 21
-10.1684
  0
LINE
  8
0
 10
92.8386
 20
-10.1684
 11
92.6313
 21
-10.6219
  0
LINE
  8
0
 10
92.6313
 20
-10.6219
 11
92.4149
 21
-11.0712
  0
LINE
  8
0
 10
92.4149
 20
-11.0712
 11
92.1896
 21
-11.5161
  0
LINE
  8
0
 10
92.1896
 20
-11.5161
 11
91.9555
 21
-11.9563
  0
LINE
  8
0
 10
91.9555
 20
-11.9563
 11
91.7127
 21
-12.3919
  0
LINE
  8
0
 10
91.7127
 20
-12.3919
 11
91.4612
 21
-12.8225
  0
LINE
  8
0
 10
91.4612
 20
-12.8225
 11
91.2012
 21
-13.248
  0
LINE
  8
0
 10
91.2012
 20
-13.248
 11
90.9327
 21
-13.6682
  0
LINE
  8
0
 10
90.9327
 20
-13.6682
 11
90.656
 21
-14.083
  0
LINE
  8
0
 10
90.656
 20
-14.083
 11
90.371
 21
-14.4922
  0
LINE
  8
0
 10
90.371
 20
-14.4922
 11
90.0779
 21
-14.8956
  0
LINE
  8
0
 10
90.0779
 20
-14.8956
 11
89.7768
 21
-15.2931
  0
LINE
  8
0
 10
89.7768
 20
-15.2931
 11
89.4678
 21
-15.6845
  0
LINE
  8
0
 10
89.4678
 20
-15.6845
 11
89.1511
 21
-16.0697
  0
LINE
  8
0
 10
89.1511
 20
-16.0697
 11
88.8268
 21
-16.4485
  0
LINE
  8
0
 10
88.8268
 20
-16.4485
 11
88.495
 21
-16.8207
  0
LINE
  8
0
 10
88.495
 20
-16.8207
 11
88.1558
 21
-17.1862
  0
LINE
  8
0
 10
88.1558
 20
-17.1862
 11
87.8094
 21
-17.5449
  0
LINE
  8
0
 10
87.8094
 20
-17.5449
 11
87.4559
 21
-17.8967
  0
LINE
  8
0
 10
87.4559
 20
-17.8967
 11
87.0955
 21
-18.2413
  0
LINE
  8
0
 10
87.0955
 20
-18.2413
 11
86.7283
 21
-18.5786
  0
LINE
  8
0
 10
86.7283
 20
-18.5786
 11
86.3544
 21
-18.9086
  0
LINE
  8
0
 10
86.3544
 20
-18.9086
 11
85.974
 21
-19.231
  0
LINE
  8
0
 10
85.974
 20
-19.231
 11
85.5872
 21
-19.5458
  0
LINE
  8
0
 10
85.5872
 20
-19.5458
 11
85.1943
 21
-19.8528
  0
LINE
  8
0
 10
85.1943
 20
-19.8528
 11
84.7953
 21
-20.1519
  0
LINE
  8
0
 10
84.7953
 20
-20.1519
 11
84.3904
 21
-20.443
  0
LINE
  8
0
 10
84.3904
 20
-20.443
 11
83.9798
 21
-20.7259
  0
LINE
  8
0
 10
83.9798
 20
-20.7259
 11
83.5636
 21
-21.0006
  0
LINE
  8
0
 10
83.5636
 20
-21.0006
 11
83.1421
 21
-21.267
  0
LINE
  8
0
 10
83.1421
 20
-21.267
 11
82.7153
 21
-21.5249
  0
LINE
  8
0
 10
82.7153
 20
-21.5249
 11
82.2834
 21
-21.7742
  0
LINE
  8
0
 10
82.2834
 20
-21.7742
 11
81.8467
 21
-22.0149
  0
LINE
  8
0
 10
81.8467
 20
-22.0149
 11
81.4053
 21
-22.2468
  0
LINE
  8
0
 10
81.4053
 20
-22.2468
 11
80.9593
 21
-22.4698
  0
LINE
  8
0
 10
80.9593
 20
-22.4698
 11
80.5089
 21
-22.684
  0
LINE
  8
0
 10
80.5089
 20
-22.684
 11
80.0544
 21
-22.8891
  0
LINE
  8
0
 10
80.0544
 20
-22.8891
 11
79.5959
 21
-23.085
  0
LINE
  8
0
 10
79.5959
 20
-23.085
 11
79.1335
 21
-23.2718
  0
LINE
  8
0
 10
79.1335
 20
-23.2718
 11
78.6675
 21
-23.4494
  0
LINE
  8
0
 10
78.6675
 20
-23.4494
 11
78.1981
 21
-23.6176
  0
LINE
  8
0
 10
78.1981
 20
-23.6176
 11
77.7254
 21
-23.7764
  0
LINE
  8
0
 10
77.7254
 20
-23.7764
 11
77.2496
 21
-23.9258
  0
LINE
  8
0
 10
77.2496
 20
-23.9258
 11
76.771
 21
-24.0656
  0
LINE
  8
0
 10
76.771
 20
-24.0656
 11
76.2897
 21
-24.1959
  0
LINE
  8
0
 10
76.2897
 20
-24.1959
 11
75.8058
 21
-24.3165
  0
LINE
  8
0
 10
75.8058
 20
-24.3165
 11
75.3197
 21
-24.4275
  0
LINE
  8
0
 10
75.3197
 20
-24.4275
 11
74.8314
 21
-24.5287
  0
LINE
  8
0
 10
74.8314
 20
-24.5287
 11
74.3412
 21
-24.6202
  0
LINE
  8
0
 10
74.3412
 20
-24.6202
 11
73.8493
 21
-24.7019
  0
LINE
  8
0
 10
73.8493
 20
-24.7019
 11
73.3558
 21
-24.7737
  0
LINE
  8
0
 10
73.3558
 20
-24.7737
 11
72.861
 21
-24.8357
  0
LINE
  8
0
 10
72.861
 20
-24.8357
 11
72.3651
 21
-24.8879
  0
LINE
  8
0
 10
72.3651
 20
-24.8879
 11
71.8682
 21
-24.9301
  0
LINE
  8
0
 10
71.8682
 20
-24.9301
 11
71.3706
 21
-24.9624
  0
LINE
  8
0
 10
71.3706
 20
-24.9624
 11
70.8725
 21
-24.9848
  0
LINE
  8
0
 10
70.8725
 20
-24.9848
 11
70.374
 21
-24.9972
  0
LINE
  8
0
 10
70.374
 20
-24.9972
 11
69.8753
 21
-24.9997
  0
LINE
  8
0
 10
69.8753
 20
-24.9997
 11
39.8753
 21
-24.9997
  0
LINE
  8
0
 10
-70.1247
 20
-24.9997
 11
-70.6233
 21
-24.9922
  0
LINE
  8
0
 10
-70.6233
 20
-24.9922
 11
-71.1216
 21
-24.9748
  0
LINE
  8
0
 10
-71.1216
 20
-24.9748
 11
-71.6195
 21
-24.9475
  0
LINE
  8
0
 10
-71.6195
 20
-24.9475
 11
-72.1168
 21
-24.9102
  0
LINE
  8
0
 10
-72.1168
 20
-24.9102
 11
-72.6132
 21
-24.863
  0
LINE
  8
0
 10
-72.6132
 20
-24.863
 11
-73.1086
 21
-24.806
  0
LINE
  8
0
 10
-73.1086
 20
-24.806
 11
-73.6027
 21
-24.739
  0
LINE
  8
0
 10
-73.6027
 20
-24.739
 11
-74.0954
 21
-24.6623
  0
LINE
  8
0
 10
-74.0954
 20
-24.6623
 11
-74.5865
 21
-24.5757
  0
LINE
  8
0
 10
-74.5865
 20
-24.5757
 11
-75.0758
 21
-24.4793
  0
LINE
  8
0
 10
-75.0758
 20
-24.4793
 11
-75.563
 21
-24.3732
  0
LINE
  8
0
 10
-75.563
 20
-24.3732
 11
-76.048
 21
-24.2574
  0
LINE
  8
0
 10
-76.048
 20
-24.2574
 11
-76.5307
 21
-24.1319
  0
LINE
  8
0
 10
-76.5307
 20
-24.1319
 11
-77.0107
 21
-23.9969
  0
LINE
  8
0
 10
-77.0107
 20
-23.9969
 11
-77.4879
 21
-23.8523
  0
LINE
  8
0
 10
-77.4879
 20
-23.8523
 11
-77.9622
 21
-23.6982
  0
LINE
  8
0
 10
-77.9622
 20
-23.6982
 11
-78.4332
 21
-23.5347
  0
LINE
  8
0
 10
-78.4332
 20
-23.5347
 11
-78.901
 21
-23.3618
  0
LINE
  8
0
 10
-78.901
 20
-23.3618
 11
-79.3652
 21
-23.1796
  0
LINE
  8
0
 10
-79.3652
 20
-23.1796
 11
-79.8256
 21
-22.9882
  0
LINE
  8
0
 10
-79.8256
 20
-22.9882
 11
-80.2822
 21
-22.7876
  0
LINE
  8
0
 10
-80.2822
 20
-22.7876
 11
-80.7346
 21
-22.578
  0
LINE
  8
0
 10
-80.7346
 20
-22.578
 11
-81.1828
 21
-22.3594
  0
LINE
  8
0
 10
-81.1828
 20
-22.3594
 11
-81.6266
 21
-22.1319
  0
LINE
  8
0
 10
-81.6266
 20
-22.1319
 11
-82.0657
 21
-21.8956
  0
LINE
  8
0
 10
-82.0657
 20
-21.8956
 11
-82.5
 21
-21.6506
  0
LINE
  8
0
 10
-82.5
 20
-21.6506
 11
-82.9293
 21
-21.397
  0
LINE
  8
0
 10
-82.9293
 20
-21.397
 11
-83.3535
 21
-21.1349
  0
LINE
  8
0
 10
-83.3535
 20
-21.1349
 11
-83.7724
 21
-20.8643
  0
LINE
  8
0
 10
-83.7724
 20
-20.8643
 11
-84.1858
 21
-20.5855
  0
LINE
  8
0
 10
-84.1858
 20
-20.5855
 11
-84.5936
 21
-20.2984
  0
LINE
  8
0
 10
-84.5936
 20
-20.2984
 11
-84.9955
 21
-20.0033
  0
LINE
  8
0
 10
-84.9955
 20
-20.0033
 11
-85.3915
 21
-19.7003
  0
LINE
  8
0
 10
-85.3915
 20
-19.7003
 11
-85.7814
 21
-19.3894
  0
LINE
  8
0
 10
-85.7814
 20
-19.3894
 11
-86.165
 21
-19.0707
  0
LINE
  8
0
 10
-86.165
 20
-19.0707
 11
-86.5421
 21
-18.7445
  0
LINE
  8
0
 10
-86.5421
 20
-18.7445
 11
-86.9127
 21
-18.4109
  0
LINE
  8
0
 10
-86.9127
 20
-18.4109
 11
-87.2766
 21
-18.0699
  0
LINE
  8
0
 10
-87.2766
 20
-18.0699
 11
-87.6335
 21
-17.7217
  0
LINE
  8
0
 10
-87.6335
 20
-17.7217
 11
-87.9835
 21
-17.3665
  0
LINE
  8
0
 10
-87.9835
 20
-17.3665
 11
-88.3263
 21
-17.0043
  0
LINE
  8
0
 10
-88.3263
 20
-17.0043
 11
-88.6618
 21
-16.6354
  0
LINE
  8
0
 10
-88.6618
 20
-16.6354
 11
-88.9899
 21
-16.2599
  0
LINE
  8
0
 10
-88.9899
 20
-16.2599
 11
-89.3104
 21
-15.8779
  0
LINE
  8
0
 10
-89.3104
 20
-15.8779
 11
-89.6233
 21
-15.4896
  0
LINE
  8
0
 10
-89.6233
 20
-15.4896
 11
-89.9283
 21
-15.0951
  0
LINE
  8
0
 10
-89.9283
 20
-15.0951
 11
-90.2254
 21
-14.6946
  0
LINE
  8
0
 10
-90.2254
 20
-14.6946
 11
-90.5145
 21
-14.2883
  0
LINE
  8
0
 10
-90.5145
 20
-14.2883
 11
-90.7954
 21
-13.8763
  0
LINE
  8
0
 10
-90.7954
 20
-13.8763
 11
-91.068
 21
-13.4588
  0
LINE
  8
0
 10
-91.068
 20
-13.4588
 11
-91.3323
 21
-13.0359
  0
LINE
  8
0
 10
-91.3323
 20
-13.0359
 11
-91.588
 21
-12.6078
  0
LINE
  8
0
 10
-91.588
 20
-12.6078
 11
-91.8352
 21
-12.1747
  0
LINE
  8
0
 10
-91.8352
 20
-12.1747
 11
-92.0737
 21
-11.7368
  0
LINE
  8
0
 10
-92.0737
 20
-11.7368
 11
-92.3034
 21
-11.2942
  0
LINE
  8
0
 10
-92.3034
 20
-11.2942
 11
-92.5242
 21
-10.8471
  0
LINE
  8
0
 10
-92.5242
 20
-10.8471
 11
-92.7361
 21
-10.3957
  0
LINE
  8
0
 10
-92.7361
 20
-10.3957
 11
-92.9389
 21
-9.94012
  0
LINE
  8
0
 10
-92.9389
 20
-9.94012
 11
-93.1326
 21
-9.48062
  0
LINE
  8
0
 10
-93.1326
 20
-9.48062
 11
-93.3171
 21
-9.01735
  0
LINE
  8
0
 10
-93.3171
 20
-9.01735
 11
-93.4923
 21
-8.55049
  0
LINE
  8
0
 10
-93.4923
 20
-8.55049
 11
-93.6582
 21
-8.08023
  0
LINE
  8
0
 10
-93.6582
 20
-8.08023
 11
-93.8146
 21
-7.60675
  0
LINE
  8
0
 10
-93.8146
 20
-7.60675
 11
-93.9616
 21
-7.13025
  0
LINE
  8
0
 10
-93.9616
 20
-7.13025
 11
-94.0991
 21
-6.65091
  0
LINE
  8
0
 10
-94.0991
 20
-6.65091
 11
-94.2269
 21
-6.16893
  0
LINE
  8
0
 10
-94.2269
 20
-6.16893
 11
-94.3452
 21
-5.68449
  0
LINE
  8
0
 10
-94.3452
 20
-5.68449
 11
-94.4537
 21
-5.19778
  0
LINE
  8
0
 10
-94.4537
 20
-5.19778
 11
-94.5525
 21
-4.70901
  0
LINE
  8
0
 10
-94.5525
 20
-4.70901
 11
-94.6415
 21
-4.21837
  0
LINE
  8
0
 10
-94.6415
 20
-4.21837
 11
-94.7208
 21
-3.72604
  0
LINE
  8
0
 10
-94.7208
 20
-3.72604
 11
-94.7902
 21
-3.23224
  0
LINE
  8
0
 10
-94.7902
 20
-3.23224
 11
-94.8497
 21
-2.73715
  0
LINE
  8
0
 10
-94.8497
 20
-2.73715
 11
-94.8994
 21
-2.24098
  0
LINE
  8
0
 10
-94.8994
 20
-2.24098
 11
-94.9391
 21
-1.74391
  0
LINE
  8
0
 10
-94.9391
 20
-1.74391
 11
-94.9689
 21
-1.24614
  0
LINE
  8
0
 10
-94.9689
 20
-1.24614
 11
-94.9888
 21
-0.747879
  0
LINE
  8
0
 10
-94.9888
 20
-0.747879
 11
-94.9987
 21
-0.249329
  0
LINE
  8
0
 10
-94.9987
 20
-0.249329
 11
-94.9987
 21
0.249329
  0
LINE
  8
0
 10
-94.9987
 20
0.249329
 11
-94.9888
 21
0.747879
  0
LINE
  8
0
 10
-94.9888
 20
0.747879
 11
-94.9689
 21
1.24614
  0
LINE
  8
0
 10
-94.9689
 20
1.24614
 11
-94.9391
 21
1.74391
  0
LINE
  8
0
 10
-94.9391
 20
1.74391
 11
-94.8994
 21
2.24098
  0
LINE
  8
0
 10
-94.8994
 20
2.24098
 11
-94.8497
 21
2.73715
  0
LINE
  8
0
 10
-94.8497
 20
2.73715
 11
-94.7902
 21
3.23224
  0
LINE
  8
0
 10
-94.7902
 20
3.23224
 11
-94.7208
 21
3.72604
  0
LINE
  8
0
 10
-94.7208
 20
3.72604
 11
-94.6415
 21
4.21837
  0
LINE
  8
0
 10
-94.6415
 20
4.21837
 11
-94.5525
 21
4.70901
  0
LINE
  8
0
 10
-94.5525
 20
4.70901
 11
-94.4537
 21
5.19778
  0
LINE
  8
0
 10
-94.4537
 20
5.19778
 11
-94.3452
 21
5.68449
  0
LINE
  8
0
 10
-94.3452
 20
5.68449
 11
-94.2269
 21
6.16893
  0
LINE
  8
0
 10
-94.2269
 20
6.16893
 11
-94.0991
 21
6.65091
  0
LINE
  8
0
 10
-94.0991
 20
6.65091
 11
-93.9616
 21
7.13025
  0
LINE
  8
0
 10
-93.9616
 20
7.13025
 11
-93.8146
 21
7.60675
  0
LINE
  8
0
 10
-93.8146
 20
7.60675
 11
-93.6582
 21
8.08023
  0
LINE
  8
0
 10
-93.6582
 20
8.08023
 11
-93.4923
 21
8.55049
  0
LINE
  8
0
 10
-93.4923
 20
8.55049
 11
-93.3171
 21
9.01735
  0
LINE
  8
0
 10
-93.3171
 20
9.01735
 11
-93.1326
 21
9.48062
  0
LINE
  8
0
 10
-93.1326
 20
9.48062
 11
-92.9389
 21
9.94012
  0
LINE
  8
0
 10
-92.9389
 20
9.94012
 11
-92.7361
 21
10.3957
  0
LINE
  8
0
 10
-92.7361
 20
10.3957
 11
-92.5242
 21
10.8471
  0
LINE
  8
0
 10
-92.5242
 20
10.8471
 11
-92.3034
 21
11.2942
  0
LINE
  8
0
 10
-92.3034
 20
11.2942
 11
-92.0737
 21
11.7368
  0
LINE
  8
0
 10
-92.0737
 20
11.7368
 11
-91.8352
 21
12.1747
  0
LINE
  8
0
 10
-91.8352
 20
12.1747
 11
-91.588
 21
12.6078
  0
LINE
  8
0
 10
-91.588
 20
12.6078
 11
-91.3323
 21
13.0359
  0
LINE
  8
0
 10
-91.3323
 20
13.0359
 11
-91.068
 21
13.4588
  0
LINE
  8
0
 10
-91.068
 20
13.4588
 11
-90.7954
 21
13.8763
  0
LINE
  8
0
 10
-90.7954
 20
13.8763
 11
-90.5145
 21
14.2883
  0
LINE
  8
0
 10
-90.5145
 20
14.2883
 11
-90.2254
 21
14.6946
  0
LINE
  8
0
 10
-90.2254
 20
14.6946
 11
-89.9283
 21
15.0951
  0
LINE
  8
0
 10
-89.9283
 20
15.0951
 11
-89.6233
 21
15.4896
  0
LINE
  8
0
 10
-89.6233
 20
15.4896
 11
-89.3104
 21
15.8779
  0
LINE
  8
0
 10
-89.3104
 20
15.8779
 11
-88.9899
 21
16.2599
  0
LINE
  8
0
 10
-88.9899
 20
16.2599
 11
-88.6618
 21
16.6354
  0
LINE
  8
0
 10
-88.6618
 20
16.6354
 11
-88.3263
 21
17.0043
  0
LINE
  8
0
 10
-88.3263
 20
17.0043
 11
-87.9835
 21
17.3665
  0
LINE
  8
0
 10
-87.9835
 20
17.3665
 11
-87.6335
 21
17.7217
  0
LINE
  8
0
 10
-87.6335
 20
17.7217
 11
-87.2766
 21
18.0699
  0
LINE
  8
0
 10
-87.2766
 20
18.0699
 11
-86.9127
 21
18.4109
  0
LINE
  8
0
 10
-86.9127
 20
18.4109
 11
-86.5421
 21
18.7445
  0
LINE
  8
0
 10
-86.5421
 20
18.7445
 11
-86.165
 21
19.0707
  0
LINE
  8
0
 10
-86.165
 20
19.0707
 11
-85.7814
 21
19.3894
  0
LINE
  8
0
 10
-85.7814
 20
19.3894
 11
-85.3915
 21
19.7003
  0
LINE
  8
0
 10
-85.3915
 20
19.7003
 11
-84.9955
 21
20.0033
  0
LINE
  8
0
 10
-84.9955
 20
20.0033
 11
-84.5936
 21
20.2984
  0
LINE
  8
0
 10
-84.5936
 20
20.2984
 11
-84.1858
 21
20.5855
  0
LINE
  8
0
 10
-84.1858
 20
20.5855
 11
-83.7724
 21
20.8643
  0
LINE
  8
0
 10
-83.7724
 20
20.8643
 11
-83.3535
 21
21.1349
  0
LINE
  8
0
 10
-83.3535
 20
21.1349
 11
-82.9293
 21
21.397
  0
LINE
  8
0
 10
-82.9293
 20
21.397
 11
-82.5
 21
21.6506
  0
LINE
  8
0
 10
-82.5
 20
21.6506
 11
-82.0657
 21
21.8956
  0
LINE
  8
0
 10
-82.0657
 20
21.8956
 11
-81.6266
 21
22.1319
  0
LINE
  8
0
 10
-81.6266
 20
22.1319
 11
-81.1828
 21
22.3594
  0
LINE
  8
0
 10
-81.1828
 20
22.3594
 11
-80.7346
 21
22.578
  0
LINE
  8
0
 10
-80.7346
 20
22.578
 11
-80.2822
 21
22.7876
  0
LINE
  8
0
 10
-80.2822
 20
22.7876
 11
-79.8256
 21
22.9882
  0
LINE
  8
0
 10
-79.8256
 20
22.9882
 11
-79.3652
 21
23.1796
  0
LINE
  8
0
 10
-79.3652
 20
23.1796
 11
-78.901
 21
23.3618
  0
LINE
  8
0
 10
-78.901
 20
23.3618
 11
-78.4332
 21
23.5347
  0
LINE
  8
0
 10
-78.4332
 20
23.5347
 11
-77.9622
 21
23.6982
  0
LINE
  8
0
 10
-77.9622
 20
23.6982
 11
-77.4879
 21
23.8523
  0
LINE
  8
0
 10
-77.4879
 20
23.8523
 11
-77.0107
 21
23.9969
  0
LINE
  8
0
 10
-77.0107
 20
23.9969
 11
-76.5307
 21
24.1319
  0
LINE
  8
0
 10
-76.5307
 20
24.1319
 11
-76.048
 21
24.2574
  0
LINE
  8
0
 10
-76.048
 20
24.2574
 11
-75.563
 21
24.3732
  0
LINE
  8
0
 10
-75.563
 20
24.3732
 11
-75.0758
 21
24.4793
  0
LINE
  8
0
 10
-75.0758
 20
24.4793
 11
-74.5865
 21
24.5757
  0
LINE
  8
0
 10
-74.5865
 20
24.5757
 11
-74.0954
 21
24.6623
  0
LINE
  8
0
 10
-74.0954
 20
24.6623
 11
-73.6027
 21
24.739
  0
LINE
  8
0
 10
-73.6027
 20
24.739
 11
-73.1086
 21
24.806
  0
LINE
  8
0
 10
-73.1086
 20
24.806
 11
-72.6132
 21
24.863
  0
LINE
  8
0
 10
-72.6132
 20
24.863
 11
-72.1168
 21
24.9102
  0
LINE
  8
0
 10
-72.1168
 20
24.9102
 11
-71.6195
 21
24.9475
  0
LINE
  8
0
 10
-71.6195
 20
24.9475
 11
-71.1216
 21
24.9748
  0
LINE
  8
0
 10
-71.1216
 20
24.9748
 11
-70.6233
 21
24.9922
  0
LINE
  8
0
 10
-70.6233
 20
24.9922
 11
-70.1247
 21
24.9997
  0
LINE
  8
0
 10
-70.1247
 20
24.9997
 11
-40.1247
 21
24.9997
  0
LINE
  8
0
 10
-40.1247
 20
24.9997
 11
-39.626
 21
24.9972
  0
LINE
  8
0
 10
-39.626
 20
24.9972
 11
-39.1275
 21
24.9848
  0
LINE
  8
0
 10
-39.1275
 20
24.9848
 11
-38.6293
 21
24.9624
  0
LINE
  8
0
 10
-38.6293
 20
24.9624
 11
-38.1317
 21
24.9301
  0
LINE
  8
0
 10
-38.1317
 20
24.9301
 11
-37.6349
 21
24.8879
  0
LINE
  8
0
 10
-37.6349
 20
24.8879
 11
-37.1389
 21
24.8357
  0
LINE
  8
0
 10
-37.1389
 20
24.8357
 11
-36.6442
 21
24.7737
  0
LINE
  8
0
 10
-36.6442
 20
24.7737
 11
-36.1507
 21
24.7019
  0
LINE
  8
0
 10
-36.1507
 20
24.7019
 11
-35.6588
 21
24.6202
  0
LINE
  8
0
 10
-35.6588
 20
24.6202
 11
-35.1686
 21
24.5287
  0
LINE
  8
0
 10
-35.1686
 20
24.5287
 11
-34.6803
 21
24.4275
  0
LINE
  8
0
 10
-34.6803
 20
24.4275
 11
-34.1942
 21
24.3165
  0
LINE
  8
0
 10
-34.1942
 20
24.3165
 11
-33.7103
 21
24.1959
  0
LINE
  8
0
 10
-33.7103
 20
24.1959
 11
-33.229
 21
24.0656
  0
LINE
  8
0
 10
-33.229
 20
24.0656
 11
-32.7503
 21
23.9258
  0
LINE
  8
0
 10
-32.7503
 20
23.9258
 11
-32.2746
 21
23.7764
  0
LINE
  8
0
 10
-32.2746
 20
23.7764
 11
-31.8019
 21
23.6176
  0
LINE
  8
0
 10
-31.8019
 20
23.6176
 11
-31.3324
 21
23.4494
  0
LINE
  8
0
 10
-31.3324
 20
23.4494
 11
-30.8665
 21
23.2718
  0
LINE
  8
0
 10
-30.8665
 20
23.2718
 11
-30.4041
 21
23.085
  0
LINE
  8
0
 10
-30.4041
 20
23.085
 11
-29.9456
 21
22.8891
  0
LINE
  8
0
 10
-29.9456
 20
22.8891
 11
-29.4911
 21
22.684
  0
LINE
  8
0
 10
-29.4911
 20
22.684
 11
-29.0407
 21
22.4698
  0
LINE
  8
0
 10
-29.0407
 20
22.4698
 11
-28.5947
 21
22.2468
  0
LINE
  8
0
 10
-28.5947
 20
22.2468
 11
-28.1533
 21
22.0149
  0
LINE
  8
0
 10
-28.1533
 20
22.0149
 11
-27.7165
 21
21.7742
  0
LINE
  8
0
 10
-27.7165
 20
21.7742
 11
-27.2847
 21
21.5249
  0
LINE
  8
0
 10
-27.2847
 20
21.5249
 11
-26.8579
 21
21.267
  0
LINE
  8
0
 10
-26.8579
 20
21.267
 11
-26.4363
 21
21.0006
  0
LINE
  8
0
 10
-26.4363
 20
21.0006
 11
-26.0202
 21
20.7259
  0
LINE
  8
0
 10
-26.0202
 20
20.7259
 11
-25.6096
 21
20.443
  0
LINE
  8
0
 10
-25.6096
 20
20.443
 11
-25.2047
 21
20.1519
  0
LINE
  8
0
 10
-25.2047
 20
20.1519
 11
-24.8057
 21
19.8528
  0
LINE
  8
0
 10
-24.8057
 20
19.8528
 11
-24.4128
 21
19.5458
  0
LINE
  8
0
 10
-24.4128
 20
19.5458
 11
-24.026
 21
19.231
  0
LINE
  8
0
 10
-24.026
 20
19.231
 11
-23.6456
 21
18.9086
  0
LINE
  8
0
 10
-23.6456
 20
18.9086
 11
-23.2717
 21
18.5786
  0
LINE
  8
0
 10
-23.2717
 20
18.5786
 11
-22.9045
 21
18.2413
  0
LINE
  8
0
 10
-22.9045
 20
18.2413
 11
-22.5441
 21
17.8967
  0
LINE
  8
0
 10
-22.5441
 20
17.8967
 11
-22.1906
 21
17.5449
  0
LINE
  8
0
 10
-22.1906
 20
17.5449
 11
-21.8442
 21
17.1862
  0
LINE
  8
0
 10
-21.8442
 20
17.1862
 11
-21.505
 21
16.8207
  0
LINE
  8
0
 10
-21.505
 20
16.8207
 11
-21.1732
 21
16.4485
  0
LINE
  8
0
 10
-21.1732
 20
16.4485
 11
-20.8489
 21
16.0697
  0
LINE
  8
0
 10
-20.8489
 20
16.0697
 11
-20.5322
 21
15.6845
  0
LINE
  8
0
 10
-20.5322
 20
15.6845
 11
-20.2232
 21
15.2931
  0
LINE
  8
0
 10
-20.2232
 20
15.2931
 11
-19.9221
 21
14.8956
  0
LINE
  8
0
 10
-19.9221
 20
14.8956
 11
-19.629
 21
14.4922
  0
LINE
  8
0
 10
-19.629
 20
14.4922
 11
-19.344
 21
14.083
  0
LINE
  8
0
 10
-19.344
 20
14.083
 11
-19.0672
 21
13.6682
  0
LINE
  8
0
 10
-19.0672
 20
13.6682
 11
-18.7988
 21
13.248
  0
LINE
  8
0
 10
-18.7988
 20
13.248
 11
-18.5388
 21
12.8225
  0
LINE
  8
0
 10
-18.5388
 20
12.8225
 11
-18.2873
 21
12.3919
  0
LINE
  8
0
 10
-18.2873
 20
12.3919
 11
-18.0444
 21
11.9563
  0
LINE
  8
0
 10
-18.0444
 20
11.9563
 11
-17.8103
 21
11.5161
  0
LINE
  8
0
 10
-17.8103
 20
11.5161
 11
-17.5851
 21
11.0712
  0
LINE
  8
0
 10
-17.5851
 20
11.0712
 11
-17.3687
 21
10.6219
  0
LINE
  8
0
 10
-17.3687
 20
10.6219
 11
-17.1614
 21
10.1684
  0
LINE
  8
0
 10
-17.1614
 20
10.1684
 11
-16.9631
 21
9.71086
  0
LINE
  8
0
 10
-16.9631
 20
9.71086
 11
-16.774
 21
9.24945
  0
LINE
  8
0
 10
-16.774
 20
9.24945
 11
-16.5941
 21
8.78436
  0
LINE
  8
0
 10
-16.5941
 20
8.78436
 11
-16.4236
 21
8.31578
  0
LINE
  8
0
 10
-16.4236
 20
8.31578
 11
-16.2624
 21
7.84389
  0
LINE
  8
0
 10
-16.2624
 20
7.84389
 11
-16.1107
 21
7.36887
  0
LINE
  8
0
 10
-16.1107
 20
7.36887
 11
-15.9684
 21
6.89093
  0
LINE
  8
0
 10
-15.9684
 20
6.89093
 11
-15.8358
 21
6.41023
  0
LINE
  8
0
 10
-15.8358
 20
6.41023
 11
-15.7127
 21
5.927
  0
LINE
  8
0
 10
-15.7127
 20
5.927
 11
-15.5993
 21
5.44141
  0
LINE
  8
0
 10
-15.5993
 20
5.44141
 11
-15.4957
 21
4.95364
  0
LINE
  8
0
 10
-15.4957
 20
4.95364
 11
-15.4017
 21
4.46391
  0
LINE
  8
0
 10
-15.4017
 20
4.46391
 11
-15.3176
 21
3.97241
  0
LINE
  8
0
 10
-15.3176
 20
3.97241
 11
-15.2433
 21
3.47932
  0
LINE
  8
0
 10
-15.2433
 20
3.47932
 11
-15.1788
 21
2.98485
  0
LINE
  8
0
 10
-15.1788
 20
2.98485
 11
-15.1242
 21
2.48918
  0
LINE
  8
0
 10
-15.1242
 20
2.48918
 11
-15.0795
 21
1.99254
  0
LINE
  8
0
 10
-15.0795
 20
1.99254
 11
-15.0447
 21
1.4951
  0
LINE
  8
0
 10
-15.0447
 20
1.4951
 11
-15.0199
 21
0.997055
  0
LINE
  8
0
 10
-15.0199
 20
0.997055
 11
-15.005
 21
0.498627
  0
LINE
  8
0
 10
-15.005
 20
0.498627
 11
-15
 21
0
  0
LINE
  8
0
 10
-15
 20
0
 11
-15.005
 21
-0.498627
  0
LINE
  8
0
 10
-15.005
 20
-0.498627
 11
-15.0199
 21
-0.997055
  0
LINE
  8
0
 10
-15.0199
 20
-0.997055
 11
-15.0447
 21
-1.4951
  0
LINE
  8
0
 10
-15.0447
 20
-1.4951
 11
-15.0795
 21
-1.99254
  0
LINE
  8
0
 10
-15.0795
 20
-1.99254
 11
-15.1242
 21
-2.48918
  0
LINE
  8
0
 10
-15.1242
 20
-2.48918
 11
-15.1788
 21
-2.98485
  0
LINE
  8
0
 10
-15.1788
 20
-2.98485
 11
-15.2433
 21
-3.47932
  0
LINE
  8
0
 10
-15.2433
 20
-3.47932
 11
-15.3176
 21
-3.97241
  0
LINE
  8
0
 10
-15.3176
 20
-3.97241
 11
-15.4017
 21
-4.46391
  0
LINE
  8
0
 10
-15.4017
 20
-4.46391
 11
-15.4957
 21
-4.95364
  0
LINE
  8
0
 10
-15.4957
 20
-4.95364
 11
-15.5993
 21
-5.44141
  0
LINE
  8
0
 10
-15.5993
 20
-5.44141
 11
-15.7127
 21
-5.927
  0
LINE
  8
0
 10
-15.7127
 20
-5.927
 11
-15.8358
 21
-6.41023
  0
LINE
  8
0
 10
-15.8358
 20
-6.41023
 11
-15.9684
 21
-6.89093
  0
LINE
  8
0
 10
-15.9684
 20
-6.89093
 11
-16.1107
 21
-7.36887
  0
LINE
  8
0
 10
-16.1107
 20
-7.36887
 11
-16.2624
 21
-7.84389
  0
LINE
  8
0
 10
-16.2624
 20
-7.84389
 11
-16.4236
 21
-8.31578
  0
LINE
  8
0
 10
-16.4236
 20
-8.31578
 11
-16.5941
 21
-8.78436
  0
LINE
  8
0
 10
-16.5941
 20
-8.78436
 11
-16.774
 21
-9.24945
  0
LINE
  8
0
 10
-16.774
 20
-9.24945
 11
-16.9631
 21
-9.71086
  0
LINE
  8
0
 10
-16.9631
 20
-9.71086
 11
-17.1614
 21
-10.1684
  0
LINE
  8
0
 10
-17.1614
 20
-10.1684
 11
-17.3687
 21
-10.6219
  0
LINE
  8
0
 10
-17.3687
 20
-10.6219
 11
-17.5851
 21
-11.0712
  0
LINE
  8
0
 10
-17.5851
 20
-11.0712
 11
-17.8103
 21
-11.5161
  0
LINE
  8
0
 10
-17.8103
 20
-11.5161
 11
-18.0444
 21
-11.9563
  0
LINE
  8
0
 10
-18.0444
 20
-11.9563
 11
-18.2873
 21
-12.3919
  0
LINE
  8
0
 10
-18.2873
 20
-12.3919
 11
-18.5388
 21
-12.8225
  0
LINE
  8
0
 10
-18.5388
 20
-12.8225
 11
-18.7988
 21
-13.248
  0
LINE
  8
0
 10
-18.7988
 20
-13.248
 11
-19.0672
 21
-13.6682
  0
LINE
  8
0
 10
-19.0672
 20
-13.6682
 11
-19.344
 21
-14.083
  0
LINE
  8
0
 10
-19.344
 20
-14.083
 11
-19.629
 21
-14.4922
  0
LINE
  8
0
 10
-19.629
 20
-14.4922
 11
-19.9221
 21
-14.8956
  0
LINE
  8
0
 10
-19.9221
 20
-14.8956
 11
-20.2232
 21
-15.2931
  0
LINE
  8
0
 10
-20.2232
 20
-15.2931
 11
-20.5322
 21
-15.6845
  0
LINE
  8
0
 10
-20.5322
 20
-15.6845
 11
-20.8489
 21
-16.0697
  0
LINE
  8
0
 10
-20.8489
 20
-16.0697
 11
-21.1732
 21
-16.4485
  0
LINE
  8
0
 10
-21.1732
 20
-16.4485
 11
-21.505
 21
-16.8207
  0
LINE
  8
0
 10
-21.505
 20
-16.8207
 11
-21.8442
 21
-17.1862
  0
LINE
  8
0
 10
-21.8442
 20
-17.1862
 11
-22.1906
 21
-17.5449
  0
LINE
  8
0
 10
-22.1906
 20
-17.5449
 11
-22.5441
 21
-17.8967
  0
LINE
  8
0
 10
-22.5441
 20
-17.8967
 11
-22.9045
 21
-18.2413
  0
LINE
  8
0
 10
-22.9045
 20
-18.2413
 11
-23.2717
 21
-18.5786
  0
LINE
  8
0
 10
-23.2717
 20
-18.5786
 11
-23.6456
 21
-18.9086
  0
LINE
  8
0
 10
-23.6456
 20
-18.9086
 11
-24.026
 21
-19.231
  0
LINE
  8
0
 10
-24.026
 20
-19.231
 11
-24.4128
 21
-19.5458
  0
LINE
  8
0
 10
-24.4128
 20
-19.5458
 11
-24.8057
 21
-19.8528
  0
LINE
  8
0
 10
-24.8057
 20
-19.8528
 11
-25.2047
 21
-20.1519
  0
LINE
  8
0
 10
-25.2047
 20
-20.1519
 11
-25.6096
 21
-20.443
  0
LINE
  8
0
 10
-25.6096
 20
-20.443
 11
-26.0202
 21
-20.7259
  0
LINE
  8
0
 10
-26.0202
 20
-20.7259
 11
-26.4363
 21
-21.0006
  0
LINE
  8
0
 10
-26.4363
 20
-21.0006
 11
-26.8579
 21
-21.267
  0
LINE
  8
0
 10
-26.8579
 20
-21.267
 11
-27.2847
 21
-21.5249
  0
LINE
  8
0
 10
-27.2847
 20
-21.5249
 11
-27.7165
 21
-21.7742
  0
LINE
  8
0
 10
-27.7165
 20
-21.7742
 11
-28.1533
 21
-22.0149
  0
LINE
  8
0
 10
-28.1533
 20
-22.0149
 11
-28.5947
 21
-22.2468
  0
LINE
  8
0
 10
-28.5947
 20
-22.2468
 11
-29.0407
 21
-22.4698
  0
LINE
  8
0
 10
-29.0407
 20
-22.4698
 11
-29.4911
 21
-22.684
  0
LINE
  8
0
 10
-29.4911
 20
-22.684
 11
-29.9456
 21
-22.8891
  0
LINE
  8
0
 10
-29.9456
 20
-22.8891
 11
-30.4041
 21
-23.085
  0
LINE
  8
0
 10
-30.4041
 20
-23.085
 11
-30.8665
 21
-23.2718
  0
LINE
  8
0
 10
-30.8665
 20
-23.2718
 11
-31.3324
 21
-23.4494
  0
LINE
  8
0
 10
-31.3324
 20
-23.4494
 11
-31.8019
 21
-23.6176
  0
LINE
  8
0
 10
-31.8019
 20
-23.6176
 11
-32.2746
 21
-23.7764
  0
LINE
  8
0
 10
-32.2746
 20
-23.7764
 11
-32.7503
 21
-23.9258
  0
LINE
  8
0
 10
-32.7503
 20
-23.9258
 11
-33.229
 21
-24.0656
  0
LINE
  8
0
 10
-33.229
 20
-24.0656
 11
-33.7103
 21
-24.1959
  0
LINE
  8
0
 10
-33.7103
 20
-24.1959
 11
-34.1942
 21
-24.3165
  0
LINE
  8
0
 10
-34.1942
 20
-24.3165
 11
-34.6803
 21
-24.4275
  0
LINE
  8
0
 10
-34.6803
 20
-24.4275
 11
-35.1686
 21
-24.5287
  0
LINE
  8
0
 10
-35.1686
 20
-24.5287
 11
-35.6588
 21
-24.6202
  0
LINE
  8
0
 10
-35.6588
 20
-24.6202
 11
-36.1507
 21
-24.7019
  0
LINE
  8
0
 10
-36.1507
 20
-24.7019
 11
-36.6442
 21
-24.7737
  0
LINE
  8
0
 10
-36.6442
 20
-24.7737
 11
-37.1389
 21
-24.8357
  0
LINE
  8
0
 10
-37.1389
 20
-24.8357
 11
-37.6349
 21
-24.8879
  0
LINE
  8
0
 10
-37.6349
 20
-24.8879
 11
-38.1317
 21
-24.9301
  0
LINE
  8
0
 10
-38.1317
 20
-24.9301
 11
-38.6293
 21
-24.9624
  0
LINE
  8
0
 10
-38.6293
 20
-24.9624
 11
-39.1275
 21
-24.9848
  0
LINE
  8
0
 10
-39.1275
 20
-24.9848
 11
-39.626
 21
-24.9972
  0
LINE
  8
0
 10
-39.626
 20
-24.9972
 11
-40.1247
 21
-24.9997
  0
LINE
  8
0
 10
-40.1247
 20
-24.9997
 11
-70.1247
 21
-24.9997
  0
LINE
  8
0
 10
-0.356033
 20
18.4401
 11
-0.799988
 21
18.6143
  0
LINE
  8
0
 10
-0.799988
 20
18.6143
 11
-1.17288
 21
18.9117
  0
LINE
  8
0
 10
-1.17288
 20
18.9117
 11
-1.44154
 21
19.3058
  0
LINE
  8
0
 10
-1.44154
 20
19.3058
 11
-1.58212
 21
19.7615
  0
LINE
  8
0
 10
-1.58212
 20
19.7615
 11
-1.58212
 21
20.2385
  0
LINE
  8
0
 10
-1.58212
 20
20.2385
 11
-1.44154
 21
20.6942
  0
LINE
  8
0
 10
-1.44154
 20
20.6942
 11
-1.17288
 21
21.0883
  0
LINE
  8
0
 10
-1.17288
 20
21.0883
 11
-0.799988
 21
21.3856
  0
LINE
  8
0
 10
-0.799988
 20
21.3856
 11
-0.356033
 21
21.5599
  0
LINE
  8
0
 10
-0.356033
 20
21.5599
 11
0.119568
 21
21.5955
  0
LINE
  8
0
 10
0.119568
 20
21.5955
 11
0.584534
 21
21.4894
  0
LINE
  8
0
 10
0.584534
 20
21.4894
 11
0.997574
 21
21.2509
  0
LINE
  8
0
 10
0.997574
 20
21.2509
 11
1.32198
 21
20.9013
  0
LINE
  8
0
 10
1.32198
 20
20.9013
 11
1.52892
 21
20.4716
  0
LINE
  8
0
 10
1.52892
 20
20.4716
 11
1.59999
 21
20
  0
LINE
  8
0
 10
1.59999
 20
20
 11
1.52892
 21
19.5284
  0
LINE
  8
0
 10
1.52892
 20
19.5284
 11
1.32198
 21
19.0987
  0
LINE
  8
0
 10
1.32198
 20
19.0987
 11
0.997574
 21
18.7491
  0
LINE
  8
0
 10
0.997574
 20
18.7491
 11
0.584534
 21
18.5106
  0
LINE
  8
0
 10
0.584534
 20
18.5106
 11
0.119568
 21
18.4045
  0
LINE
  8
0
 10
0.119568
 20
18.4045
 11
-0.356033
 21
18.4401
  0
LINE
  8
0
 10
-0.356033
 20
-21.5599
 11
-0.799988
 21
-21.3856
  0
LINE
  8
0
 10
-0.799988
 20
-21.3856
 11
-1.17288
 21
-21.0883
  0
LINE
  8
0
 10
-1.17288
 20
-21.0883
 11
-1.44154
 21
-20.6942
  0
LINE
  8
0
 10
-1.44154
 20
-20.6942
 11
-1.58212
 21
-20.2385
  0
LINE
  8
0
 10
-1.58212
 20
-20.2385
 11
-1.58212
 21
-19.7615
  0
LINE
  8
0
 10
-1.58212
 20
-19.7615
 11
-1.44154
 21
-19.3058
  0
LINE
  8
0
 10
-1.44154
 20
-19.3058
 11
-1.17288
 21
-18.9117
  0
LINE
  8
0
 10
-1.17288
 20
-18.9117
 11
-0.799988
 21
-18.6143
  0
LINE
  8
0
 10
-0.799988
 20
-18.6143
 11
-0.356033
 21
-18.4401
  0
LINE
  8
0
 10
-0.356033
 20
-18.4401
 11
0.119568
 21
-18.4045
  0
LINE
  8
0
 10
0.119568
 20
-18.4045
 11
0.584534
 21
-18.5106
  0
LINE
  8
0
 10
0.584534
 20
-18.5106
 11
0.997574
 21
-18.7491
  0
LINE
  8
0
 10
0.997574
 20
-18.7491
 11
1.32198
 21
-19.0987
  0
LINE
  8
0
 10
1.32198
 20
-19.0987
 11
1.52892
 21
-19.5284
  0
LINE
  8
0
 10
1.52892
 20
-19.5284
 11
1.59999
 21
-20
  0
LINE
  8
0
 10
1.59999
 20
-20
 11
1.52892
 21
-20.4716
  0
LINE
  8
0
 10
1.52892
 20
-20.4716
 11
1.32198
 21
-20.9013
  0
LINE
  8
0
 10
1.32198
 20
-20.9013
 11
0.997574
 21
-21.2509
  0
LINE
  8
0
 10
0.997574
 20
-21.2509
 11
0.584534
 21
-21.4894
  0
LINE
  8
0
 10
0.584534
 20
-21.4894
 11
0.119568
 21
-21.5955
  0
LINE
  8
0
 10
0.119568
 20
-21.5955
 11
-0.356033
 21
-21.5599
  0
LINE
  8
0
 10
74.894
 20
-36.5599
 11
74.45
 21
-36.3856
  0
LINE
  8
0
 10
74.45
 20
-36.3856
 11
74.0771
 21
-36.0883
  0
LINE
  8
0
 10
74.0771
 20
-36.0883
 11
73.8085
 21
-35.6942
  0
LINE
  8
0
 10
73.8085
 20
-35.6942
 11
73.6679
 21
-35.2385
  0
LINE
  8
0
 10
73.6679
 20
-35.2385
 11
73.6679
 21
-34.7615
  0
LINE
  8
0
 10
73.6679
 20
-34.7615
 11
73.8085
 21
-34.3058
  0
LINE
  8
0
 10
73.8085
 20
-34.3058
 11
74.0771
 21
-33.9117
  0
LINE
  8
0
 10
74.0771
 20
-33.9117
 11
74.45
 21
-33.6144
  0
LINE
  8
0
 10
74.45
 20
-33.6144
 11
74.894
 21
-33.4401
  0
LINE
  8
0
 10
74.894
 20
-33.4401
 11
75.3696
 21
-33.4045
  0
LINE
  8
0
 10
75.3696
 20
-33.4045
 11
75.8345
 21
-33.5106
  0
LINE
  8
0
 10
75.8345
 20
-33.5106
 11
76.2476
 21
-33.7491
  0
LINE
  8
0
 10
76.2476
 20
-33.7491
 11
76.572
 21
-34.0987
  0
LINE
  8
0
 10
76.572
 20
-34.0987
 11
76.7789
 21
-34.5284
  0
LINE
  8
0
 10
76.7789
 20
-34.5284
 11
76.85
 21
-35
  0
LINE
  8
0
 10
76.85
 20
-35
 11
76.7789
 21
-35.4716
  0
LINE
  8
0
 10
76.7789
 20
-35.4716
 11
76.572
 21
-35.9013
  0
LINE
  8
0
 10
76.572
 20
-35.9013
 11
76.2476
 21
-36.2509
  0
LINE
  8
0
 10
76.2476
 20
-36.2509
 11
75.8345
 21
-36.4894
  0
LINE
  8
0
 10
75.8345
 20
-36.4894
 11
75.3696
 21
-36.5955
  0
LINE
  8
0
 10
75.3696
 20
-36.5955
 11
74.894
 21
-36.5599
  0
LINE
  8
0
 10
-75.606
 20
-36.5599
 11
-76.05
 21
-36.3856
  0
LINE
  8
0
 10
-76.05
 20
-36.3856
 11
-76.4229
 21
-36.0883
  0
LINE
  8
0
 10
-76.4229
 20
-36.0883
 11
-76.6916
 21
-35.6942
  0
LINE
  8
0
 10
-76.6916
 20
-35.6942
 11
-76.8321
 21
-35.2385
  0
LINE
  8
0
 10
-76.8321
 20
-35.2385
 11
-76.8321
 21
-34.7615
  0
LINE
  8
0
 10
-76.8321
 20
-34.7615
 11
-76.6916
 21
-34.3058
  0
LINE
  8
0
 10
-76.6916
 20
-34.3058
 11
-76.4229
 21
-33.9117
  0
LINE
  8
0
 10
-76.4229
 20
-33.9117
 11
-76.05
 21
-33.6144
  0
LINE
  8
0
 10
-76.05
 20
-33.6144
 11
-75.606
 21
-33.4401
  0
LINE
  8
0
 10
-75.606
 20
-33.4401
 11
-75.1304
 21
-33.4045
  0
LINE
  8
0
 10
-75.1304
 20
-33.4045
 11
-74.6655
 21
-33.5106
  0
LINE
  8
0
 10
-74.6655
 20
-33.5106
 11
-74.2524
 21
-33.7491
  0
LINE
  8
0
 10
-74.2524
 20
-33.7491
 11
-73.928
 21
-34.0987
  0
LINE
  8
0
 10
-73.928
 20
-34.0987
 11
-73.7211
 21
-34.5284
  0
LINE
  8
0
 10
-73.7211
 20
-34.5284
 11
-73.65
 21
-35
  0
LINE
  8
0
 10
-73.65
 20
-35
 11
-73.7211
 21
-35.4716
  0
LINE
  8
0
 10
-73.7211
 20
-35.4716
 11
-73.928
 21
-35.9013
  0
LINE
  8
0
 10
-73.928
 20
-35.9013
 11
-74.2524
 21
-36.2509
  0
LINE
  8
0
 10
-74.2524
 20
-36.2509
 11
-74.6655
 21
-36.4894
  0
LINE
  8
0
 10
-74.6655
 20
-36.4894
 11
-75.1304
 21
-36.5955
  0
LINE
  8
0
 10
-75.1304
 20
-36.5955
 11
-75.606
 21
-36.5599
  0
LINE
  8
0
 10
-95.606
 20
-36.5599
 11
-96.05
 21
-36.3856
  0
LINE
  8
0
 10
-96.05
 20
-36.3856
 11
-96.4229
 21
-36.0883
  0
LINE
  8
0
 10
-96.4229
 20
-36.0883
 11
-96.6915
 21
-35.6942
  0
LINE
  8
0
 10
-96.6915
 20
-35.6942
 11
-96.8321
 21
-35.2385
  0
LINE
  8
0
 10
-96.8321
 20
-35.2385
 11
-96.8321
 21
-34.7615
  0
LINE
  8
0
 10
-96.8321
 20
-34.7615
 11
-96.6915
 21
-34.3058
  0
LINE
  8
0
 10
-96.6915
 20
-34.3058
 11
-96.4229
 21
-33.9117
  0
LINE
  8
0
 10
-96.4229
 20
-33.9117
 11
-96.05
 21
-33.6144
  0
LINE
  8
0
 10
-96.05
 20
-33.6144
 11
-95.606
 21
-33.4401
  0
LINE
  8
0
 10
-95.606
 20
-33.4401
 11
-95.1304
 21
-33.4045
  0
LINE
  8
0
 10
-95.1304
 20
-33.4045
 11
-94.6655
 21
-33.5106
  0
LINE
  8
0
 10
-94.6655
 20
-33.5106
 11
-94.2524
 21
-33.7491
  0
LINE
  8
0
 10
-94.2524
 20
-33.7491
 11
-93.928
 21
-34.0987
  0
LINE
  8
0
 10
-93.928
 20
-34.0987
 11
-93.7211
 21
-34.5284
  0
LINE
  8
0
 10
-93.7211
 20
-34.5284
 11
-93.65
 21
-35
  0
LINE
  8
0
 10
-93.65
 20
-35
 11
-93.7211
 21
-35.4716
  0
LINE
  8
0
 10
-93.7211
 20
-35.4716
 11
-93.928
 21
-35.9013
  0
LINE
  8
0
 10
-93.928
 20
-35.9013
 11
-94.2524
 21
-36.2509
  0
LINE
  8
0
 10
-94.2524
 20
-36.2509
 11
-94.6655
 21
-36.4894
  0
LINE
  8
0
 10
-94.6655
 20
-36.4894
 11
-95.1304
 21
-36.5955
  0
LINE
  8
0
 10
-95.1304
 20
-36.5955
 11
-95.606
 21
-36.5599
  0
LINE
  8
0
 10
94.894
 20
-36.5599
 11
94.45
 21
-36.3856
  0
LINE
  8
0
 10
94.45
 20
-36.3856
 11
94.0771
 21
-36.0883
  0
LINE
  8
0
 10
94.0771
 20
-36.0883
 11
93.8084
 21
-35.6942
  0
LINE
  8
0
 10
93.8084
 20
-35.6942
 11
93.6679
 21
-35.2385
  0
LINE
  8
0
 10
93.6679
 20
-35.2385
 11
93.6679
 21
-34.7615
  0
LINE
  8
0
 10
93.6679
 20
-34.7615
 11
93.8084
 21
-34.3058
  0
LINE
  8
0
 10
93.8084
 20
-34.3058
 11
94.0771
 21
-33.9117
  0
LINE
  8
0
 10
94.0771
 20
-33.9117
 11
94.45
 21
-33.6144
  0
LINE
  8
0
 10
94.45
 20
-33.6144
 11
94.894
 21
-33.4401
  0
LINE
  8
0
 10
94.894
 20
-33.4401
 11
95.3696
 21
-33.4045
  0
LINE
  8
0
 10
95.3696
 20
-33.4045
 11
95.8345
 21
-33.5106
  0
LINE
  8
0
 10
95.8345
 20
-33.5106
 11
96.2476
 21
-33.7491
  0
LINE
  8
0
 10
96.2476
 20
-33.7491
 11
96.572
 21
-34.0987
  0
LINE
  8
0
 10
96.572
 20
-34.0987
 11
96.7789
 21
-34.5284
  0
LINE
  8
0
 10
96.7789
 20
-34.5284
 11
96.85
 21
-35
  0
LINE
  8
0
 10
96.85
 20
-35
 11
96.7789
 21
-35.4716
  0
LINE
  8
0
 10
96.7789
 20
-35.4716
 11
96.572
 21
-35.9013
  0
LINE
  8
0
 10
96.572
 20
-35.9013
 11
96.2476
 21
-36.2509
  0
LINE
  8
0
 10
96.2476
 20
-36.2509
 11
95.8345
 21
-36.4894
  0
LINE
  8
0
 10
95.8345
 20
-36.4894
 11
95.3696
 21
-36.5955
  0
LINE
  8
0
 10
95.3696
 20
-36.5955
 11
94.894
 21
-36.5599
  0
LINE
  8
0
 10
-65.6233
 20
-94.9922
 11
-66.1216
 21
-94.9748
  0
LINE
  8
0
 10
-66.1216
 20
-94.9748
 11
-66.6195
 21
-94.9475
  0
LINE
  8
0
 10
-66.6195
 20
-94.9475
 11
-67.1168
 21
-94.9102
  0
LINE
  8
0
 10
-67.1168
 20
-94.9102
 11
-67.6132
 21
-94.863
  0
LINE
  8
0
 10
-67.6132
 20
-94.863
 11
-68.1086
 21
-94.806
  0
LINE
  8
0
 10
-68.1086
 20
-94.806
 11
-68.6027
 21
-94.739
  0
LINE
  8
0
 10
-68.6027
 20
-94.739
 11
-69.0954
 21
-94.6623
  0
LINE
  8
0
 10
-69.0954
 20
-94.6623
 11
-69.5865
 21
-94.5757
  0
LINE
  8
0
 10
-69.5865
 20
-94.5757
 11
-70.0758
 21
-94.4793
  0
LINE
  8
0
 10
-70.0758
 20
-94.4793
 11
-70.563
 21
-94.3732
  0
LINE
  8
0
 10
-70.563
 20
-94.3732
 11
-71.048
 21
-94.2574
  0
LINE
  8
0
 10
-71.048
 20
-94.2574
 11
-71.5307
 21
-94.1319
  0
LINE
  8
0
 10
-71.5307
 20
-94.1319
 11
-72.0107
 21
-93.9969
  0
LINE
  8
0
 10
-72.0107
 20
-93.9969
 11
-72.4879
 21
-93.8523
  0
LINE
  8
0
 10
-72.4879
 20
-93.8523
 11
-72.9622
 21
-93.6982
  0
LINE
  8
0
 10
-72.9622
 20
-93.6982
 11
-73.4332
 21
-93.5347
  0
LINE
  8
0
 10
-73.4332
 20
-93.5347
 11
-73.901
 21
-93.3618
  0
LINE
  8
0
 10
-73.901
 20
-93.3618
 11
-74.3652
 21
-93.1796
  0
LINE
  8
0
 10
-74.3652
 20
-93.1796
 11
-74.8256
 21
-92.9882
  0
LINE
  8
0
 10
-74.8256
 20
-92.9882
 11
-75.2822
 21
-92.7876
  0
LINE
  8
0
 10
-75.2822
 20
-92.7876
 11
-75.7346
 21
-92.578
  0
LINE
  8
0
 10
-75.7346
 20
-92.578
 11
-76.1828
 21
-92.3594
  0
LINE
  8
0
 10
-76.1828
 20
-92.3594
 11
-76.6266
 21
-92.1319
  0
LINE
  8
0
 10
-76.6266
 20
-92.1319
 11
-77.0657
 21
-91.8956
  0
LINE
  8
0
 10
-77.0657
 20
-91.8956
 11
-77.5
 21
-91.6506
  0
LINE
  8
0
 10
-77.5
 20
-91.6506
 11
-77.9293
 21
-91.397
  0
LINE
  8
0
 10
-77.9293
 20
-91.397
 11
-78.3535
 21
-91.1349
  0
LINE
  8
0
 10
-78.3535
 20
-91.1349
 11
-78.7724
 21
-90.8643
  0
LINE
  8
0
 10
-78.7724
 20
-90.8643
 11
-79.1858
 21
-90.5855
  0
LINE
  8
0
 10
-79.1858
 20
-90.5855
 11
-79.5936
 21
-90.2984
  0
LINE
  8
0
 10
-79.5936
 20
-90.2984
 11
-79.9955
 21
-90.0033
  0
LINE
  8
0
 10
-79.9955
 20
-90.0033
 11
-80.3915
 21
-89.7003
  0
LINE
  8
0
 10
-80.3915
 20
-89.7003
 11
-80.7814
 21
-89.3894
  0
LINE
  8
0
 10
-80.7814
 20
-89.3894
 11
-81.165
 21
-89.0707
  0
LINE
  8
0
 10
-81.165
 20
-89.0707
 11
-81.5421
 21
-88.7445
  0
LINE
  8
0
 10
-81.5421
 20
-88.7445
 11
-81.9127
 21
-88.4109
  0
LINE
  8
0
 10
-81.9127
 20
-88.4109
 11
-82.2766
 21
-88.0699
  0
LINE
  8
0
 10
-82.2766
 20
-88.0699
 11
-82.6335
 21
-87.7217
  0
LINE
  8
0
 10
-82.6335
 20
-87.7217
 11
-82.9835
 21
-87.3665
  0
LINE
  8
0
 10
-82.9835
 20
-87.3665
 11
-83.3263
 21
-87.0043
  0
LINE
  8
0
 10
-83.3263
 20
-87.0043
 11
-83.6618
 21
-86.6354
  0
LINE
  8
0
 10
-83.6618
 20
-86.6354
 11
-83.9899
 21
-86.2599
  0
LINE
  8
0
 10
-83.9899
 20
-86.2599
 11
-84.3104
 21
-85.8779
  0
LINE
  8
0
 10
-84.3104
 20
-85.8779
 11
-84.6233
 21
-85.4896
  0
LINE
  8
0
 10
-84.6233
 20
-85.4896
 11
-84.9283
 21
-85.0951
  0
LINE
  8
0
 10
-84.9283
 20
-85.0951
 11
-85.2254
 21
-84.6946
  0
LINE
  8
0
 10
-85.2254
 20
-84.6946
 11
-85.5145
 21
-84.2883
  0
LINE
  8
0
 10
-85.5145
 20
-84.2883
 11
-85.7954
 21
-83.8763
  0
LINE
  8
0
 10
-85.7954
 20
-83.8763
 11
-86.068
 21
-83.4588
  0
LINE
  8
0
 10
-86.068
 20
-83.4588
 11
-86.3323
 21
-83.0359
  0
LINE
  8
0
 10
-86.3323
 20
-83.0359
 11
-86.588
 21
-82.6078
  0
LINE
  8
0
 10
-86.588
 20
-82.6078
 11
-86.8352
 21
-82.1747
  0
LINE
  8
0
 10
-86.8352
 20
-82.1747
 11
-87.0737
 21
-81.7368
  0
LINE
  8
0
 10
-87.0737
 20
-81.7368
 11
-87.3034
 21
-81.2942
  0
LINE
  8
0
 10
-87.3034
 20
-81.2942
 11
-87.5242
 21
-80.8471
  0
LINE
  8
0
 10
-87.5242
 20
-80.8471
 11
-87.7361
 21
-80.3957
  0
LINE
  8
0
 10
-87.7361
 20
-80.3957
 11
-87.9389
 21
-79.9401
  0
LINE
  8
0
 10
-87.9389
 20
-79.9401
 11
-88.1326
 21
-79.4806
  0
LINE
  8
0
 10
-88.1326
 20
-79.4806
 11
-88.3171
 21
-79.0173
  0
LINE
  8
0
 10
-88.3171
 20
-79.0173
 11
-88.4923
 21
-78.5505
  0
LINE
  8
0
 10
-88.4923
 20
-78.5505
 11
-88.6582
 21
-78.0802
  0
LINE
  8
0
 10
-88.6582
 20
-78.0802
 11
-88.8146
 21
-77.6068
  0
LINE
  8
0
 10
-88.8146
 20
-77.6068
 11
-88.9616
 21
-77.1302
  0
LINE
  8
0
 10
-88.9616
 20
-77.1302
 11
-89.0991
 21
-76.6509
  0
LINE
  8
0
 10
-89.0991
 20
-76.6509
 11
-89.2269
 21
-76.1689
  0
LINE
  8
0
 10
-89.2269
 20
-76.1689
 11
-89.3452
 21
-75.6845
  0
LINE
  8
0
 10
-89.3452
 20
-75.6845
 11
-89.4537
 21
-75.1978
  0
LINE
  8
0
 10
-89.4537
 20
-75.1978
 11
-89.5525
 21
-74.709
  0
LINE
  8
0
 10
-89.5525
 20
-74.709
 11
-89.6415
 21
-74.2184
  0
LINE
  8
0
 10
-89.6415
 20
-74.2184
 11
-89.7208
 21
-73.726
  0
LINE
  8
0
 10
-89.7208
 20
-73.726
 11
-89.7902
 21
-73.2322
  0
LINE
  8
0
 10
-89.7902
 20
-73.2322
 11
-89.8497
 21
-72.7372
  0
LINE
  8
0
 10
-89.8497
 20
-72.7372
 11
-89.8994
 21
-72.241
  0
LINE
  8
0
 10
-89.8994
 20
-72.241
 11
-89.9391
 21
-71.7439
  0
LINE
  8
0
 10
-89.9391
 20
-71.7439
 11
-89.9689
 21
-71.2461
  0
LINE
  8
0
 10
-89.9689
 20
-71.2461
 11
-89.9888
 21
-70.7479
  0
LINE
  8
0
 10
-89.9888
 20
-70.7479
 11
-89.9987
 21
-70.2493
  0
LINE
  8
0
 10
-89.9987
 20
-70.2493
 11
-89.9987
 21
-69.7507
  0
LINE
  8
0
 10
-89.9987
 20
-69.7507
 11
-89.9888
 21
-69.2521
  0
LINE
  8
0
 10
-89.9888
 20
-69.2521
 11
-89.9689
 21
-68.7538
  0
LINE
  8
0
 10
-89.9689
 20
-68.7538
 11
-89.9391
 21
-68.2561
  0
LINE
  8
0
 10
-89.9391
 20
-68.2561
 11
-89.8994
 21
-67.759
  0
LINE
  8
0
 10
-89.8994
 20
-67.759
 11
-89.8497
 21
-67.2628
  0
LINE
  8
0
 10
-89.8497
 20
-67.2628
 11
-89.7902
 21
-66.7677
  0
LINE
  8
0
 10
-89.7902
 20
-66.7677
 11
-89.7208
 21
-66.2739
  0
LINE
  8
0
 10
-89.7208
 20
-66.2739
 11
-89.6415
 21
-65.7816
  0
LINE
  8
0
 10
-89.6415
 20
-65.7816
 11
-89.5525
 21
-65.291
  0
LINE
  8
0
 10
-89.5525
 20
-65.291
 11
-89.4537
 21
-64.8022
  0
LINE
  8
0
 10
-89.4537
 20
-64.8022
 11
-89.3452
 21
-64.3155
  0
LINE
  8
0
 10
-89.3452
 20
-64.3155
 11
-89.2269
 21
-63.8311
  0
LINE
  8
0
 10
-89.2269
 20
-63.8311
 11
-89.0991
 21
-63.3491
  0
LINE
  8
0
 10
-89.0991
 20
-63.3491
 11
-88.9616
 21
-62.8697
  0
LINE
  8
0
 10
-88.9616
 20
-62.8697
 11
-88.8146
 21
-62.3932
  0
LINE
  8
0
 10
-88.8146
 20
-62.3932
 11
-88.6582
 21
-61.9198
  0
LINE
  8
0
 10
-88.6582
 20
-61.9198
 11
-88.4923
 21
-61.4495
  0
LINE
  8
0
 10
-88.4923
 20
-61.4495
 11
-88.3171
 21
-60.9826
  0
LINE
  8
0
 10
-88.3171
 20
-60.9826
 11
-88.1326
 21
-60.5194
  0
LINE
  8
0
 10
-88.1326
 20
-60.5194
 11
-87.9389
 21
-60.0599
  0
LINE
  8
0
 10
-87.9389
 20
-60.0599
 11
-87.7361
 21
-59.6043
  0
LINE
  8
0
 10
-87.7361
 20
-59.6043
 11
-87.5242
 21
-59.1529
  0
LINE
  8
0
 10
-87.5242
 20
-59.1529
 11
-87.3034
 21
-58.7058
  0
LINE
  8
0
 10
-87.3034
 20
-58.7058
 11
-87.0737
 21
-58.2632
  0
LINE
  8
0
 10
-87.0737
 20
-58.2632
 11
-86.8352
 21
-57.8253
  0
LINE
  8
0
 10
-86.8352
 20
-57.8253
 11
-86.588
 21
-57.3922
  0
LINE
  8
0
 10
-86.588
 20
-57.3922
 11
-86.3323
 21
-56.9641
  0
LINE
  8
0
 10
-86.3323
 20
-56.9641
 11
-86.068
 21
-56.5412
  0
LINE
  8
0
 10
-86.068
 20
-56.5412
 11
-85.7954
 21
-56.1237
  0
LINE
  8
0
 10
-85.7954
 20
-56.1237
 11
-85.5145
 21
-55.7117
  0
LINE
  8
0
 10
-85.5145
 20
-55.7117
 11
-85.2254
 21
-55.3054
  0
LINE
  8
0
 10
-85.2254
 20
-55.3054
 11
-84.9283
 21
-54.9049
  0
LINE
  8
0
 10
-84.9283
 20
-54.9049
 11
-84.6233
 21
-54.5104
  0
LINE
  8
0
 10
-84.6233
 20
-54.5104
 11
-84.3104
 21
-54.1221
  0
LINE
  8
0
 10
-84.3104
 20
-54.1221
 11
-83.9899
 21
-53.7401
  0
LINE
  8
0
 10
-83.9899
 20
-53.7401
 11
-83.6618
 21
-53.3646
  0
LINE
  8
0
 10
-83.6618
 20
-53.3646
 11
-83.3263
 21
-52.9957
  0
LINE
  8
0
 10
-83.3263
 20
-52.9957
 11
-82.9835
 21
-52.6335
  0
LINE
  8
0
 10
-82.9835
 20
-52.6335
 11
-82.6335
 21
-52.2783
  0
LINE
  8
0
 10
-82.6335
 20
-52.2783
 11
-82.2766
 21
-51.9301
  0
LINE
  8
0
 10
-82.2766
 20
-51.9301
 11
-81.9127
 21
-51.5891
  0
LINE
  8
0
 10
-81.9127
 20
-51.5891
 11
-81.5421
 21
-51.2555
  0
LINE
  8
0
 10
-81.5421
 20
-51.2555
 11
-81.165
 21
-50.9293
  0
LINE
  8
0
 10
-81.165
 20
-50.9293
 11
-80.7814
 21
-50.6106
  0
LINE
  8
0
 10
-80.7814
 20
-50.6106
 11
-80.3915
 21
-50.2997
  0
LINE
  8
0
 10
-80.3915
 20
-50.2997
 11
-79.9955
 21
-49.9967
  0
LINE
  8
0
 10
-79.9955
 20
-49.9967
 11
-79.5936
 21
-49.7015
  0
LINE
  8
0
 10
-79.5936
 20
-49.7015
 11
-79.1858
 21
-49.4145
  0
LINE
  8
0
 10
-79.1858
 20
-49.4145
 11
-78.7724
 21
-49.1357
  0
LINE
  8
0
 10
-78.7724
 20
-49.1357
 11
-78.3535
 21
-48.8651
  0
LINE
  8
0
 10
-78.3535
 20
-48.8651
 11
-77.9293
 21
-48.603
  0
LINE
  8
0
 10
-77.9293
 20
-48.603
 11
-77.5
 21
-48.3493
  0
LINE
  8
0
 10
-77.5
 20
-48.3493
 11
-77.0657
 21
-48.1044
  0
LINE
  8
0
 10
-77.0657
 20
-48.1044
 11
-76.6266
 21
-47.8681
  0
LINE
  8
0
 10
-76.6266
 20
-47.8681
 11
-76.1828
 21
-47.6406
  0
LINE
  8
0
 10
-76.1828
 20
-47.6406
 11
-75.7346
 21
-47.422
  0
LINE
  8
0
 10
-75.7346
 20
-47.422
 11
-75.2822
 21
-47.2123
  0
LINE
  8
0
 10
-75.2822
 20
-47.2123
 11
-74.8256
 21
-47.0118
  0
LINE
  8
0
 10
-74.8256
 20
-47.0118
 11
-74.3652
 21
-46.8204
  0
LINE
  8
0
 10
-74.3652
 20
-46.8204
 11
-73.901
 21
-46.6382
  0
LINE
  8
0
 10
-73.901
 20
-46.6382
 11
-73.4332
 21
-46.4653
  0
LINE
  8
0
 10
-73.4332
 20
-46.4653
 11
-72.9622
 21
-46.3018
  0
LINE
  8
0
 10
-72.9622
 20
-46.3018
 11
-72.4879
 21
-46.1477
  0
LINE
  8
0
 10
-72.4879
 20
-46.1477
 11
-72.0107
 21
-46.0031
  0
LINE
  8
0
 10
-72.0107
 20
-46.0031
 11
-71.5307
 21
-45.8681
  0
LINE
  8
0
 10
-71.5307
 20
-45.8681
 11
-71.048
 21
-45.7426
  0
LINE
  8
0
 10
-71.048
 20
-45.7426
 11
-70.563
 21
-45.6268
  0
LINE
  8
0
 10
-70.563
 20
-45.6268
 11
-70.0758
 21
-45.5207
  0
LINE
  8
0
 10
-70.0758
 20
-45.5207
 11
-69.5865
 21
-45.4243
  0
LINE
  8
0
 10
-69.5865
 20
-45.4243
 11
-69.0954
 21
-45.3377
  0
LINE
  8
0
 10
-69.0954
 20
-45.3377
 11
-68.6027
 21
-45.261
  0
LINE
  8
0
 10
-68.6027
 20
-45.261
 11
-68.1086
 21
-45.194
  0
LINE
  8
0
 10
-68.1086
 20
-45.194
 11
-67.6132
 21
-45.1369
  0
LINE
  8
0
 10
-67.6132
 20
-45.1369
 11
-67.1168
 21
-45.0898
  0
LINE
  8
0
 10
-67.1168
 20
-45.0898
 11
-66.6195
 21
-45.0525
  0
LINE
  8
0
 10
-66.6195
 20
-45.0525
 11
-66.1216
 21
-45.0252
  0
LINE
  8
0
 10
-66.1216
 20
-45.0252
 11
-65.6233
 21
-45.0078
  0
LINE
  8
0
 10
-65.6233
 20
-45.0078
 11
-65.1247
 21
-45.0003
  0
LINE
  8
0
 10
-65.1247
 20
-45.0003
 11
-64.626
 21
-45.0028
  0
LINE
  8
0
 10
-64.626
 20
-45.0028
 11
-64.1275
 21
-45.0152
  0
LINE
  8
0
 10
-64.1275
 20
-45.0152
 11
-63.6293
 21
-45.0376
  0
LINE
  8
0
 10
-63.6293
 20
-45.0376
 11
-63.1317
 21
-45.0699
  0
LINE
  8
0
 10
-63.1317
 20
-45.0699
 11
-62.6349
 21
-45.1121
  0
LINE
  8
0
 10
-62.6349
 20
-45.1121
 11
-62.1389
 21
-45.1642
  0
LINE
  8
0
 10
-62.1389
 20
-45.1642
 11
-61.6442
 21
-45.2262
  0
LINE
  8
0
 10
-61.6442
 20
-45.2262
 11
-61.1507
 21
-45.2981
  0
LINE
  8
0
 10
-61.1507
 20
-45.2981
 11
-60.6588
 21
-45.3798
  0
LINE
  8
0
 10
-60.6588
 20
-45.3798
 11
-60.1686
 21
-45.4713
  0
LINE
  8
0
 10
-60.1686
 20
-45.4713
 11
-59.6803
 21
-45.5725
  0
LINE
  8
0
 10
-59.6803
 20
-45.5725
 11
-59.1942
 21
-45.6835
  0
LINE
  8
0
 10
-59.1942
 20
-45.6835
 11
-58.7103
 21
-45.8041
  0
LINE
  8
0
 10
-58.7103
 20
-45.8041
 11
-58.229
 21
-45.9344
  0
LINE
  8
0
 10
-58.229
 20
-45.9344
 11
-57.7503
 21
-46.0742
  0
LINE
  8
0
 10
-57.7503
 20
-46.0742
 11
-57.2746
 21
-46.2236
  0
LINE
  8
0
 10
-57.2746
 20
-46.2236
 11
-56.8019
 21
-46.3824
  0
LINE
  8
0
 10
-56.8019
 20
-46.3824
 11
-56.3324
 21
-46.5506
  0
LINE
  8
0
 10
-56.3324
 20
-46.5506
 11
-55.8665
 21
-46.7281
  0
LINE
  8
0
 10
-55.8665
 20
-46.7281
 11
-55.4041
 21
-46.9149
  0
LINE
  8
0
 10
-55.4041
 20
-46.9149
 11
-54.9456
 21
-47.1109
  0
LINE
  8
0
 10
-54.9456
 20
-47.1109
 11
-54.4911
 21
-47.316
  0
LINE
  8
0
 10
-54.4911
 20
-47.316
 11
-54.0407
 21
-47.5301
  0
LINE
  8
0
 10
-54.0407
 20
-47.5301
 11
-53.5947
 21
-47.7532
  0
LINE
  8
0
 10
-53.5947
 20
-47.7532
 11
-53.1533
 21
-47.9851
  0
LINE
  8
0
 10
-53.1533
 20
-47.9851
 11
-52.7165
 21
-48.2258
  0
LINE
  8
0
 10
-52.7165
 20
-48.2258
 11
-52.2847
 21
-48.4751
  0
LINE
  8
0
 10
-52.2847
 20
-48.4751
 11
-51.8579
 21
-48.733
  0
LINE
  8
0
 10
-51.8579
 20
-48.733
 11
-51.4363
 21
-48.9993
  0
LINE
  8
0
 10
-51.4363
 20
-48.9993
 11
-51.0202
 21
-49.274
  0
LINE
  8
0
 10
-51.0202
 20
-49.274
 11
-50.6096
 21
-49.557
  0
LINE
  8
0
 10
-50.6096
 20
-49.557
 11
-50.2047
 21
-49.8481
  0
LINE
  8
0
 10
-50.2047
 20
-49.8481
 11
-49.8057
 21
-50.1472
  0
LINE
  8
0
 10
-49.8057
 20
-50.1472
 11
-49.4128
 21
-50.4542
  0
LINE
  8
0
 10
-49.4128
 20
-50.4542
 11
-49.026
 21
-50.769
  0
LINE
  8
0
 10
-49.026
 20
-50.769
 11
-48.6456
 21
-51.0914
  0
LINE
  8
0
 10
-48.6456
 20
-51.0914
 11
-48.2717
 21
-51.4214
  0
LINE
  8
0
 10
-48.2717
 20
-51.4214
 11
-47.9045
 21
-51.7587
  0
LINE
  8
0
 10
-47.9045
 20
-51.7587
 11
-47.5441
 21
-52.1033
  0
LINE
  8
0
 10
-47.5441
 20
-52.1033
 11
-47.1906
 21
-52.455
  0
LINE
  8
0
 10
-47.1906
 20
-52.455
 11
-46.8442
 21
-52.8138
  0
LINE
  8
0
 10
-46.8442
 20
-52.8138
 11
-46.505
 21
-53.1793
  0
LINE
  8
0
 10
-46.505
 20
-53.1793
 11
-46.1732
 21
-53.5515
  0
LINE
  8
0
 10
-46.1732
 20
-53.5515
 11
-45.8489
 21
-53.9303
  0
LINE
  8
0
 10
-45.8489
 20
-53.9303
 11
-45.5322
 21
-54.3155
  0
LINE
  8
0
 10
-45.5322
 20
-54.3155
 11
-45.2232
 21
-54.7069
  0
LINE
  8
0
 10
-45.2232
 20
-54.7069
 11
-44.9221
 21
-55.1044
  0
LINE
  8
0
 10
-44.9221
 20
-55.1044
 11
-44.629
 21
-55.5078
  0
LINE
  8
0
 10
-44.629
 20
-55.5078
 11
-44.344
 21
-55.917
  0
LINE
  8
0
 10
-44.344
 20
-55.917
 11
-44.0672
 21
-56.3318
  0
LINE
  8
0
 10
-44.0672
 20
-56.3318
 11
-43.7988
 21
-56.752
  0
LINE
  8
0
 10
-43.7988
 20
-56.752
 11
-43.5388
 21
-57.1775
  0
LINE
  8
0
 10
-43.5388
 20
-57.1775
 11
-43.2873
 21
-57.6081
  0
LINE
  8
0
 10
-43.2873
 20
-57.6081
 11
-43.0444
 21
-58.0436
  0
LINE
  8
0
 10
-43.0444
 20
-58.0436
 11
-42.8103
 21
-58.4839
  0
LINE
  8
0
 10
-42.8103
 20
-58.4839
 11
-42.5851
 21
-58.9288
  0
LINE
  8
0
 10
-42.5851
 20
-58.9288
 11
-42.3687
 21
-59.3781
  0
LINE
  8
0
 10
-42.3687
 20
-59.3781
 11
-42.1614
 21
-59.8316
  0
LINE
  8
0
 10
-42.1614
 20
-59.8316
 11
-41.9631
 21
-60.2891
  0
LINE
  8
0
 10
-41.9631
 20
-60.2891
 11
-41.774
 21
-60.7505
  0
LINE
  8
0
 10
-41.774
 20
-60.7505
 11
-41.5941
 21
-61.2156
  0
LINE
  8
0
 10
-41.5941
 20
-61.2156
 11
-41.4236
 21
-61.6842
  0
LINE
  8
0
 10
-41.4236
 20
-61.6842
 11
-41.2624
 21
-62.1561
  0
LINE
  8
0
 10
-41.2624
 20
-62.1561
 11
-41.1107
 21
-62.6311
  0
LINE
  8
0
 10
-41.1107
 20
-62.6311
 11
-40.9684
 21
-63.1091
  0
LINE
  8
0
 10
-40.9684
 20
-63.1091
 11
-40.8358
 21
-63.5898
  0
LINE
  8
0
 10
-40.8358
 20
-63.5898
 11
-40.7127
 21
-64.073
  0
LINE
  8
0
 10
-40.7127
 20
-64.073
 11
-40.5993
 21
-64.5586
  0
LINE
  8
0
 10
-40.5993
 20
-64.5586
 11
-40.4957
 21
-65.0463
  0
LINE
  8
0
 10
-40.4957
 20
-65.0463
 11
-40.4017
 21
-65.5361
  0
LINE
  8
0
 10
-40.4017
 20
-65.5361
 11
-40.3176
 21
-66.0276
  0
LINE
  8
0
 10
-40.3176
 20
-66.0276
 11
-40.2433
 21
-66.5207
  0
LINE
  8
0
 10
-40.2433
 20
-66.5207
 11
-40.1788
 21
-67.0151
  0
LINE
  8
0
 10
-40.1788
 20
-67.0151
 11
-40.1242
 21
-67.5108
  0
LINE
  8
0
 10
-40.1242
 20
-67.5108
 11
-40.0795
 21
-68.0074
  0
LINE
  8
0
 10
-40.0795
 20
-68.0074
 11
-40.0447
 21
-68.5049
  0
LINE
  8
0
 10
-40.0447
 20
-68.5049
 11
-40.0199
 21
-69.0029
  0
LINE
  8
0
 10
-40.0199
 20
-69.0029
 11
-40.005
 21
-69.5014
  0
LINE
  8
0
 10
-40.005
 20
-69.5014
 11
-40
 21
-70
  0
LINE
  8
0
 10
-40
 20
-70
 11
-40.005
 21
-70.4986
  0
LINE
  8
0
 10
-40.005
 20
-70.4986
 11
-40.0199
 21
-70.9971
  0
LINE
  8
0
 10
-40.0199
 20
-70.9971
 11
-40.0447
 21
-71.4951
  0
LINE
  8
0
 10
-40.0447
 20
-71.4951
 11
-40.0795
 21
-71.9925
  0
LINE
  8
0
 10
-40.0795
 20
-71.9925
 11
-40.1242
 21
-72.4892
  0
LINE
  8
0
 10
-40.1242
 20
-72.4892
 11
-40.1788
 21
-72.9848
  0
LINE
  8
0
 10
-40.1788
 20
-72.9848
 11
-40.2433
 21
-73.4793
  0
LINE
  8
0
 10
-40.2433
 20
-73.4793
 11
-40.3176
 21
-73.9724
  0
LINE
  8
0
 10
-40.3176
 20
-73.9724
 11
-40.4017
 21
-74.4639
  0
LINE
  8
0
 10
-40.4017
 20
-74.4639
 11
-40.4957
 21
-74.9536
  0
LINE
  8
0
 10
-40.4957
 20
-74.9536
 11
-40.5993
 21
-75.4414
  0
LINE
  8
0
 10
-40.5993
 20
-75.4414
 11
-40.7127
 21
-75.927
  0
LINE
  8
0
 10
-40.7127
 20
-75.927
 11
-40.8358
 21
-76.4102
  0
LINE
  8
0
 10
-40.8358
 20
-76.4102
 11
-40.9684
 21
-76.8909
  0
LINE
  8
0
 10
-40.9684
 20
-76.8909
 11
-41.1107
 21
-77.3689
  0
LINE
  8
0
 10
-41.1107
 20
-77.3689
 11
-41.2624
 21
-77.8439
  0
LINE
  8
0
 10
-41.2624
 20
-77.8439
 11
-41.4236
 21
-78.3158
  0
LINE
  8
0
 10
-41.4236
 20
-78.3158
 11
-41.5941
 21
-78.7844
  0
LINE
  8
0
 10
-41.5941
 20
-78.7844
 11
-41.774
 21
-79.2495
  0
LINE
  8
0
 10
-41.774
 20
-79.2495
 11
-41.9631
 21
-79.7109
  0
LINE
  8
0
 10
-41.9631
 20
-79.7109
 11
-42.1614
 21
-80.1684
  0
LINE
  8
0
 10
-42.1614
 20
-80.1684
 11
-42.3687
 21
-80.6219
  0
LINE
  8
0
 10
-42.3687
 20
-80.6219
 11
-42.5851
 21
-81.0712
  0
LINE
  8
0
 10
-42.5851
 20
-81.0712
 11
-42.8103
 21
-81.5161
  0
LINE
  8
0
 10
-42.8103
 20
-81.5161
 11
-43.0444
 21
-81.9563
  0
LINE
  8
0
 10
-43.0444
 20
-81.9563
 11
-43.2873
 21
-82.3919
  0
LINE
  8
0
 10
-43.2873
 20
-82.3919
 11
-43.5388
 21
-82.8225
  0
LINE
  8
0
 10
-43.5388
 20
-82.8225
 11
-43.7988
 21
-83.248
  0
LINE
  8
0
 10
-43.7988
 20
-83.248
 11
-44.0672
 21
-83.6682
  0
LINE
  8
0
 10
-44.0672
 20
-83.6682
 11
-44.344
 21
-84.083
  0
LINE
  8
0
 10
-44.344
 20
-84.083
 11
-44.629
 21
-84.4922
  0
LINE
  8
0
 10
-44.629
 20
-84.4922
 11
-44.9221
 21
-84.8956
  0
LINE
  8
0
 10
-44.9221
 20
-84.8956
 11
-45.2232
 21
-85.2931
  0
LINE
  8
0
 10
-45.2232
 20
-85.2931
 11
-45.5322
 21
-85.6845
  0
LINE
  8
0
 10
-45.5322
 20
-85.6845
 11
-45.8489
 21
-86.0697
  0
LINE
  8
0
 10
-45.8489
 20
-86.0697
 11
-46.1732
 21
-86.4485
  0
LINE
  8
0
 10
-46.1732
 20
-86.4485
 11
-46.505
 21
-86.8207
  0
LINE
  8
0
 10
-46.505
 20
-86.8207
 11
-46.8442
 21
-87.1862
  0
LINE
  8
0
 10
-46.8442
 20
-87.1862
 11
-47.1906
 21
-87.5449
  0
LINE
  8
0
 10
-47.1906
 20
-87.5449
 11
-47.5441
 21
-87.8967
  0
LINE
  8
0
 10
-47.5441
 20
-87.8967
 11
-47.9045
 21
-88.2413
  0
LINE
  8
0
 10
-47.9045
 20
-88.2413
 11
-48.2717
 21
-88.5786
  0
LINE
  8
0
 10
-48.2717
 20
-88.5786
 11
-48.6456
 21
-88.9086
  0
LINE
  8
0
 10
-48.6456
 20
-88.9086
 11
-49.026
 21
-89.231
  0
LINE
  8
0
 10
-49.026
 20
-89.231
 11
-49.4128
 21
-89.5458
  0
LINE
  8
0
 10
-49.4128
 20
-89.5458
 11
-49.8057
 21
-89.8528
  0
LINE
  8
0
 10
-49.8057
 20
-89.8528
 11
-50.2047
 21
-90.1519
  0
LINE
  8
0
 10
-50.2047
 20
-90.1519
 11
-50.6096
 21
-90.443
  0
LINE
  8
0
 10
-50.6096
 20
-90.443
 11
-51.0202
 21
-90.7259
  0
LINE
  8
0
 10
-51.0202
 20
-90.7259
 11
-51.4363
 21
-91.0006
  0
LINE
  8
0
 10
-51.4363
 20
-91.0006
 11
-51.8579
 21
-91.267
  0
LINE
  8
0
 10
-51.8579
 20
-91.267
 11
-52.2847
 21
-91.5249
  0
LINE
  8
0
 10
-52.2847
 20
-91.5249
 11
-52.7165
 21
-91.7742
  0
LINE
  8
0
 10
-52.7165
 20
-91.7742
 11
-53.1533
 21
-92.0149
  0
LINE
  8
0
 10
-53.1533
 20
-92.0149
 11
-53.5947
 21
-92.2468
  0
LINE
  8
0
 10
-53.5947
 20
-92.2468
 11
-54.0407
 21
-92.4698
  0
LINE
  8
0
 10
-54.0407
 20
-92.4698
 11
-54.4911
 21
-92.684
  0
LINE
  8
0
 10
-54.4911
 20
-92.684
 11
-54.9456
 21
-92.8891
  0
LINE
  8
0
 10
-54.9456
 20
-92.8891
 11
-55.4041
 21
-93.085
  0
LINE
  8
0
 10
-55.4041
 20
-93.085
 11
-55.8665
 21
-93.2718
  0
LINE
  8
0
 10
-55.8665
 20
-93.2718
 11
-56.3324
 21
-93.4494
  0
LINE
  8
0
 10
-56.3324
 20
-93.4494
 11
-56.8019
 21
-93.6176
  0
LINE
  8
0
 10
-56.8019
 20
-93.6176
 11
-57.2746
 21
-93.7764
  0
LINE
  8
0
 10
-57.2746
 20
-93.7764
 11
-57.7503
 21
-93.9258
  0
LINE
  8
0
 10
-57.7503
 20
-93.9258
 11
-58.229
 21
-94.0656
  0
LINE
  8
0
 10
-58.229
 20
-94.0656
 11
-58.7103
 21
-94.1959
  0
LINE
  8
0
 10
-58.7103
 20
-94.1959
 11
-59.1942
 21
-94.3165
  0
LINE
  8
0
 10
-59.1942
 20
-94.3165
 11
-59.6803
 21
-94.4275
  0
LINE
  8
0
 10
-59.6803
 20
-94.4275
 11
-60.1686
 21
-94.5287
  0
LINE
  8
0
 10
-60.1686
 20
-94.5287
 11
-60.6588
 21
-94.6202
  0
LINE
  8
0
 10
-60.6588
 20
-94.6202
 11
-61.1507
 21
-94.7019
  0
LINE
  8
0
 10
-61.1507
 20
-94.7019
 11
-61.6442
 21
-94.7737
  0
LINE
  8
0
 10
-61.6442
 20
-94.7737
 11
-62.1389
 21
-94.8357
  0
LINE
  8
0
 10
-62.1389
 20
-94.8357
 11
-62.6349
 21
-94.8879
  0
LINE
  8
0
 10
-62.6349
 20
-94.8879
 11
-63.1317
 21
-94.9301
  0
LINE
  8
0
 10
-63.1317
 20
-94.9301
 11
-63.6293
 21
-94.9624
  0
LINE
  8
0
 10
-63.6293
 20
-94.9624
 11
-64.1275
 21
-94.9848
  0
LINE
  8
0
 10
-64.1275
 20
-94.9848
 11
-64.626
 21
-94.9972
  0
LINE
  8
0
 10
-64.626
 20
-94.9972
 11
-65.1247
 21
-94.9997
  0
LINE
  8
0
 10
-65.1247
 20
-94.9997
 11
-65.6233
 21
-94.9922
  0
LINE
  8
0
 10
-0.62326
 20
-94.9922
 11
-1.12161
 21
-94.9748
  0
LINE
  8
0
 10
-1.12161
 20
-94.9748
 11
-1.61952
 21
-94.9475
  0
LINE
  8
0
 10
-1.61952
 20
-94.9475
 11
-2.11679
 21
-94.9102
  0
LINE
  8
0
 10
-2.11679
 20
-94.9102
 11
-2.6132
 21
-94.863
  0
LINE
  8
0
 10
-2.6132
 20
-94.863
 11
-3.10858
 21
-94.806
  0
LINE
  8
0
 10
-3.10858
 20
-94.806
 11
-3.60272
 21
-94.739
  0
LINE
  8
0
 10
-3.60272
 20
-94.739
 11
-4.09544
 21
-94.6623
  0
LINE
  8
0
 10
-4.09544
 20
-94.6623
 11
-4.58652
 21
-94.5757
  0
LINE
  8
0
 10
-4.58652
 20
-94.5757
 11
-5.07578
 21
-94.4793
  0
LINE
  8
0
 10
-5.07578
 20
-94.4793
 11
-5.56302
 21
-94.3732
  0
LINE
  8
0
 10
-5.56302
 20
-94.3732
 11
-6.04803
 21
-94.2574
  0
LINE
  8
0
 10
-6.04803
 20
-94.2574
 11
-6.53065
 21
-94.1319
  0
LINE
  8
0
 10
-6.53065
 20
-94.1319
 11
-7.01068
 21
-93.9969
  0
LINE
  8
0
 10
-7.01068
 20
-93.9969
 11
-7.48792
 21
-93.8523
  0
LINE
  8
0
 10
-7.48792
 20
-93.8523
 11
-7.96216
 21
-93.6982
  0
LINE
  8
0
 10
-7.96216
 20
-93.6982
 11
-8.43324
 21
-93.5347
  0
LINE
  8
0
 10
-8.43324
 20
-93.5347
 11
-8.90097
 21
-93.3618
  0
LINE
  8
0
 10
-8.90097
 20
-93.3618
 11
-9.36516
 21
-93.1796
  0
LINE
  8
0
 10
-9.36516
 20
-93.1796
 11
-9.82562
 21
-92.9882
  0
LINE
  8
0
 10
-9.82562
 20
-92.9882
 11
-10.2822
 21
-92.7876
  0
LINE
  8
0
 10
-10.2822
 20
-92.7876
 11
-10.7346
 21
-92.578
  0
LINE
  8
0
 10
-10.7346
 20
-92.578
 11
-11.1828
 21
-92.3594
  0
LINE
  8
0
 10
-11.1828
 20
-92.3594
 11
-11.6266
 21
-92.1319
  0
LINE
  8
0
 10
-11.6266
 20
-92.1319
 11
-12.0657
 21
-91.8956
  0
LINE
  8
0
 10
-12.0657
 20
-91.8956
 11
-12.5
 21
-91.6506
  0
LINE
  8
0
 10
-12.5
 20
-91.6506
 11
-12.9293
 21
-91.397
  0
LINE
  8
0
 10
-12.9293
 20
-91.397
 11
-13.3535
 21
-91.1349
  0
LINE
  8
0
 10
-13.3535
 20
-91.1349
 11
-13.7724
 21
-90.8643
  0
LINE
  8
0
 10
-13.7724
 20
-90.8643
 11
-14.1858
 21
-90.5855
  0
LINE
  8
0
 10
-14.1858
 20
-90.5855
 11
-14.5936
 21
-90.2984
  0
LINE
  8
0
 10
-14.5936
 20
-90.2984
 11
-14.9955
 21
-90.0033
  0
LINE
  8
0
 10
-14.9955
 20
-90.0033
 11
-15.3915
 21
-89.7003
  0
LINE
  8
0
 10
-15.3915
 20
-89.7003
 11
-15.7814
 21
-89.3894
  0
LINE
  8
0
 10
-15.7814
 20
-89.3894
 11
-16.165
 21
-89.0707
  0
LINE
  8
0
 10
-16.165
 20
-89.0707
 11
-16.5421
 21
-88.7445
  0
LINE
  8
0
 10
-16.5421
 20
-88.7445
 11
-16.9127
 21
-88.4109
  0
LINE
  8
0
 10
-16.9127
 20
-88.4109
 11
-17.2766
 21
-88.0699
  0
LINE
  8
0
 10
-17.2766
 20
-88.0699
 11
-17.6335
 21
-87.7217
  0
LINE
  8
0
 10
-17.6335
 20
-87.7217
 11
-17.9835
 21
-87.3665
  0
LINE
  8
0
 10
-17.9835
 20
-87.3665
 11
-18.3263
 21
-87.0043
  0
LINE
  8
0
 10
-18.3263
 20
-87.0043
 11
-18.6618
 21
-86.6354
  0
LINE
  8
0
 10
-18.6618
 20
-86.6354
 11
-18.9899
 21
-86.2599
  0
LINE
  8
0
 10
-18.9899
 20
-86.2599
 11
-19.3104
 21
-85.8779
  0
LINE
  8
0
 10
-19.3104
 20
-85.8779
 11
-19.6233
 21
-85.4896
  0
LINE
  8
0
 10
-19.6233
 20
-85.4896
 11
-19.9283
 21
-85.0951
  0
LINE
  8
0
 10
-19.9283
 20
-85.0951
 11
-20.2254
 21
-84.6946
  0
LINE
  8
0
 10
-20.2254
 20
-84.6946
 11
-20.5145
 21
-84.2883
  0
LINE
  8
0
 10
-20.5145
 20
-84.2883
 11
-20.7954
 21
-83.8763
  0
LINE
  8
0
 10
-20.7954
 20
-83.8763
 11
-21.068
 21
-83.4588
  0
LINE
  8
0
 10
-21.068
 20
-83.4588
 11
-21.3323
 21
-83.0359
  0
LINE
  8
0
 10
-21.3323
 20
-83.0359
 11
-21.588
 21
-82.6078
  0
LINE
  8
0
 10
-21.588
 20
-82.6078
 11
-21.8352
 21
-82.1747
  0
LINE
  8
0
 10
-21.8352
 20
-82.1747
 11
-22.0737
 21
-81.7368
  0
LINE
  8
0
 10
-22.0737
 20
-81.7368
 11
-22.3034
 21
-81.2942
  0
LINE
  8
0
 10
-22.3034
 20
-81.2942
 11
-22.5242
 21
-80.8471
  0
LINE
  8
0
 10
-22.5242
 20
-80.8471
 11
-22.7361
 21
-80.3957
  0
LINE
  8
0
 10
-22.7361
 20
-80.3957
 11
-22.9389
 21
-79.9401
  0
LINE
  8
0
 10
-22.9389
 20
-79.9401
 11
-23.1326
 21
-79.4806
  0
LINE
  8
0
 10
-23.1326
 20
-79.4806
 11
-23.3171
 21
-79.0173
  0
LINE
  8
0
 10
-23.3171
 20
-79.0173
 11
-23.4923
 21
-78.5505
  0
LINE
  8
0
 10
-23.4923
 20
-78.5505
 11
-23.6582
 21
-78.0802
  0
LINE
  8
0
 10
-23.6582
 20
-78.0802
 11
-23.8146
 21
-77.6068
  0
LINE
  8
0
 10
-23.8146
 20
-77.6068
 11
-23.9616
 21
-77.1302
  0
LINE
  8
0
 10
-23.9616
 20
-77.1302
 11
-24.0991
 21
-76.6509
  0
LINE
  8
0
 10
-24.0991
 20
-76.6509
 11
-24.2269
 21
-76.1689
  0
LINE
  8
0
 10
-24.2269
 20
-76.1689
 11
-24.3452
 21
-75.6845
  0
LINE
  8
0
 10
-24.3452
 20
-75.6845
 11
-24.4537
 21
-75.1978
  0
LINE
  8
0
 10
-24.4537
 20
-75.1978
 11
-24.5525
 21
-74.709
  0
LINE
  8
0
 10
-24.5525
 20
-74.709
 11
-24.6415
 21
-74.2184
  0
LINE
  8
0
 10
-24.6415
 20
-74.2184
 11
-24.7208
 21
-73.726
  0
LINE
  8
0
 10
-24.7208
 20
-73.726
 11
-24.7902
 21
-73.2322
  0
LINE
  8
0
 10
-24.7902
 20
-73.2322
 11
-24.8497
 21
-72.7372
  0
LINE
  8
0
 10
-24.8497
 20
-72.7372
 11
-24.8994
 21
-72.241
  0
LINE
  8
0
 10
-24.8994
 20
-72.241
 11
-24.9391
 21
-71.7439
  0
LINE
  8
0
 10
-24.9391
 20
-71.7439
 11
-24.9689
 21
-71.2461
  0
LINE
  8
0
 10
-24.9689
 20
-71.2461
 11
-24.9888
 21
-70.7479
  0
LINE
  8
0
 10
-24.9888
 20
-70.7479
 11
-24.9987
 21
-70.2493
  0
LINE
  8
0
 10
-24.9987
 20
-70.2493
 11
-24.9987
 21
-69.7507
  0
LINE
  8
0
 10
-24.9987
 20
-69.7507
 11
-24.9888
 21
-69.2521
  0
LINE
  8
0
 10
-24.9888
 20
-69.2521
 11
-24.9689
 21
-68.7538
  0
LINE
  8
0
 10
-24.9689
 20
-68.7538
 11
-24.9391
 21
-68.2561
  0
LINE
  8
0
 10
-24.9391
 20
-68.2561
 11
-24.8994
 21
-67.759
  0
LINE
  8
0
 10
-24.8994
 20
-67.759
 11
-24.8497
 21
-67.2628
  0
LINE
  8
0
 10
-24.8497
 20
-67.2628
 11
-24.7902
 21
-66.7677
  0
LINE
  8
0
 10
-24.7902
 20
-66.7677
 11
-24.7208
 21
-66.2739
  0
LINE
  8
0
 10
-24.7208
 20
-66.2739
 11
-24.6415
 21
-65.7816
  0
LINE
  8
0
 10
-24.6415
 20
-65.7816
 11
-24.5525
 21
-65.291
  0
LINE
  8
0
 10
-24.5525
 20
-65.291
 11
-24.4537
 21
-64.8022
  0
LINE
  8
0
 10
-24.4537
 20
-64.8022
 11
-24.3452
 21
-64.3155
  0
LINE
  8
0
 10
-24.3452
 20
-64.3155
 11
-24.2269
 21
-63.8311
  0
LINE
  8
0
 10
-24.2269
 20
-63.8311
 11
-24.0991
 21
-63.3491
  0
LINE
  8
0
 10
-24.0991
 20
-63.3491
 11
-23.9616
 21
-62.8697
  0
LINE
  8
0
 10
-23.9616
 20
-62.8697
 11
-23.8146
 21
-62.3932
  0
LINE
  8
0
 10
-23.8146
 20
-62.3932
 11
-23.6582
 21
-61.9198
  0
LINE
  8
0
 10
-23.6582
 20
-61.9198
 11
-23.4923
 21
-61.4495
  0
LINE
  8
0
 10
-23.4923
 20
-61.4495
 11
-23.3171
 21
-60.9826
  0
LINE
  8
0
 10
-23.3171
 20
-60.9826
 11
-23.1326
 21
-60.5194
  0
LINE
  8
0
 10
-23.1326
 20
-60.5194
 11
-22.9389
 21
-60.0599
  0
LINE
  8
0
 10
-22.9389
 20
-60.0599
 11
-22.7361
 21
-59.6043
  0
LINE
  8
0
 10
-22.7361
 20
-59.6043
 11
-22.5242
 21
-59.1529
  0
LINE
  8
0
 10
-22.5242
 20
-59.1529
 11
-22.3034
 21
-58.7058
  0
LINE
  8
0
 10
-22.3034
 20
-58.7058
 11
-22.0737
 21
-58.2632
  0
LINE
  8
0
 10
-22.0737
 20
-58.2632
 11
-21.8352
 21
-57.8253
  0
LINE
  8
0
 10
-21.8352
 20
-57.8253
 11
-21.588
 21
-57.3922
  0
LINE
  8
0
 10
-21.588
 20
-57.3922
 11
-21.3323
 21
-56.9641
  0
LINE
  8
0
 10
-21.3323
 20
-56.9641
 11
-21.068
 21
-56.5412
  0
LINE
  8
0
 10
-21.068
 20
-56.5412
 11
-20.7954
 21
-56.1237
  0
LINE
  8
0
 10
-20.7954
 20
-56.1237
 11
-20.5145
 21
-55.7117
  0
LINE
  8
0
 10
-20.5145
 20
-55.7117
 11
-20.2254
 21
-55.3054
  0
LINE
  8
0
 10
-20.2254
 20
-55.3054
 11
-19.9283
 21
-54.9049
  0
LINE
  8
0
 10
-19.9283
 20
-54.9049
 11
-19.6233
 21
-54.5104
  0
LINE
  8
0
 10
-19.6233
 20
-54.5104
 11
-19.3104
 21
-54.1221
  0
LINE
  8
0
 10
-19.3104
 20
-54.1221
 11
-18.9899
 21
-53.7401
  0
LINE
  8
0
 10
-18.9899
 20
-53.7401
 11
-18.6618
 21
-53.3646
  0
LINE
  8
0
 10
-18.6618
 20
-53.3646
 11
-18.3263
 21
-52.9957
  0
LINE
  8
0
 10
-18.3263
 20
-52.9957
 11
-17.9835
 21
-52.6335
  0
LINE
  8
0
 10
-17.9835
 20
-52.6335
 11
-17.6335
 21
-52.2783
  0
LINE
  8
0
 10
-17.6335
 20
-52.2783
 11
-17.2766
 21
-51.9301
  0
LINE
  8
0
 10
-17.2766
 20
-51.9301
 11
-16.9127
 21
-51.5891
  0
LINE
  8
0
 10
-16.9127
 20
-51.5891
 11
-16.5421
 21
-51.2555
  0
LINE
  8
0
 10
-16.5421
 20
-51.2555
 11
-16.165
 21
-50.9293
  0
LINE
  8
0
 10
-16.165
 20
-50.9293
 11
-15.7814
 21
-50.6106
  0
LINE
  8
0
 10
-15.7814
 20
-50.6106
 11
-15.3915
 21
-50.2997
  0
LINE
  8
0
 10
-15.3915
 20
-50.2997
 11
-14.9955
 21
-49.9967
  0
LINE
  8
0
 10
-14.9955
 20
-49.9967
 11
-14.5936
 21
-49.7015
  0
LINE
  8
0
 10
-14.5936
 20
-49.7015
 11
-14.1858
 21
-49.4145
  0
LINE
  8
0
 10
-14.1858
 20
-49.4145
 11
-13.7724
 21
-49.1357
  0
LINE
  8
0
 10
-13.7724
 20
-49.1357
 11
-13.3535
 21
-48.8651
  0
LINE
  8
0
 10
-13.3535
 20
-48.8651
 11
-12.9293
 21
-48.603
  0
LINE
  8
0
 10
-12.9293
 20
-48.603
 11
-12.5
 21
-48.3493
  0
LINE
  8
0
 10
-12.5
 20
-48.3493
 11
-12.0657
 21
-48.1044
  0
LINE
  8
0
 10
-12.0657
 20
-48.1044
 11
-11.6266
 21
-47.8681
  0
LINE
  8
0
 10
-11.6266
 20
-47.8681
 11
-11.1828
 21
-47.6406
  0
LINE
  8
0
 10
-11.1828
 20
-47.6406
 11
-10.7346
 21
-47.422
  0
LINE
  8
0
 10
-10.7346
 20
-47.422
 11
-10.2822
 21
-47.2123
  0
LINE
  8
0
 10
-10.2822
 20
-47.2123
 11
-9.82562
 21
-47.0118
  0
LINE
  8
0
 10
-9.82562
 20
-47.0118
 11
-9.36516
 21
-46.8204
  0
LINE
  8
0
 10
-9.36516
 20
-46.8204
 11
-8.90097
 21
-46.6382
  0
LINE
  8
0
 10
-8.90097
 20
-46.6382
 11
-8.43324
 21
-46.4653
  0
LINE
  8
0
 10
-8.43324
 20
-46.4653
 11
-7.96216
 21
-46.3018
  0
LINE
  8
0
 10
-7.96216
 20
-46.3018
 11
-7.48792
 21
-46.1477
  0
LINE
  8
0
 10
-7.48792
 20
-46.1477
 11
-7.01068
 21
-46.0031
  0
LINE
  8
0
 10
-7.01068
 20
-46.0031
 11
-6.53065
 21
-45.8681
  0
LINE
  8
0
 10
-6.53065
 20
-45.8681
 11
-6.04803
 21
-45.7426
  0
LINE
  8
0
 10
-6.04803
 20
-45.7426
 11
-5.56302
 21
-45.6268
  0
LINE
  8
0
 10
-5.56302
 20
-45.6268
 11
-5.07578
 21
-45.5207
  0
LINE
  8
0
 10
-5.07578
 20
-45.5207
 11
-4.58652
 21
-45.4243
  0
LINE
  8
0
 10
-4.58652
 20
-45.4243
 11
-4.09544
 21
-45.3377
  0
LINE
  8
0
 10
-4.09544
 20
-45.3377
 11
-3.60272
 21
-45.261
  0
LINE
  8
0
 10
-3.60272
 20
-45.261
 11
-3.10858
 21
-45.194
  0
LINE
  8
0
 10
-3.10858
 20
-45.194
 11
-2.6132
 21
-45.1369
  0
LINE
  8
0
 10
-2.6132
 20
-45.1369
 11
-2.11679
 21
-45.0898
  0
LINE
  8
0
 10
-2.11679
 20
-45.0898
 11
-1.61952
 21
-45.0525
  0
LINE
  8
0
 10
-1.61952
 20
-45.0525
 11
-1.12161
 21
-45.0252
  0
LINE
  8
0
 10
-1.12161
 20
-45.0252
 11
-0.62326
 21
-45.0078
  0
LINE
  8
0
 10
-0.62326
 20
-45.0078
 11
-0.124664
 21
-45.0003
  0
LINE
  8
0
 10
-0.124664
 20
-45.0003
 11
0.373978
 21
-45.0028
  0
LINE
  8
0
 10
0.373978
 20
-45.0028
 11
0.872482
 21
-45.0152
  0
LINE
  8
0
 10
0.872482
 20
-45.0152
 11
1.37064
 21
-45.0376
  0
LINE
  8
0
 10
1.37064
 20
-45.0376
 11
1.86824
 21
-45.0699
  0
LINE
  8
0
 10
1.86824
 20
-45.0699
 11
2.36511
 21
-45.1121
  0
LINE
  8
0
 10
2.36511
 20
-45.1121
 11
2.86104
 21
-45.1642
  0
LINE
  8
0
 10
2.86104
 20
-45.1642
 11
3.35582
 21
-45.2262
  0
LINE
  8
0
 10
3.35582
 20
-45.2262
 11
3.84927
 21
-45.2981
  0
LINE
  8
0
 10
3.84927
 20
-45.2981
 11
4.3412
 21
-45.3798
  0
LINE
  8
0
 10
4.3412
 20
-45.3798
 11
4.83139
 21
-45.4713
  0
LINE
  8
0
 10
4.83139
 20
-45.4713
 11
5.31966
 21
-45.5725
  0
LINE
  8
0
 10
5.31966
 20
-45.5725
 11
5.80582
 21
-45.6835
  0
LINE
  8
0
 10
5.80582
 20
-45.6835
 11
6.28966
 21
-45.8041
  0
LINE
  8
0
 10
6.28966
 20
-45.8041
 11
6.77101
 21
-45.9344
  0
LINE
  8
0
 10
6.77101
 20
-45.9344
 11
7.24965
 21
-46.0742
  0
LINE
  8
0
 10
7.24965
 20
-46.0742
 11
7.72542
 21
-46.2236
  0
LINE
  8
0
 10
7.72542
 20
-46.2236
 11
8.1981
 21
-46.3824
  0
LINE
  8
0
 10
8.1981
 20
-46.3824
 11
8.66754
 21
-46.5506
  0
LINE
  8
0
 10
8.66754
 20
-46.5506
 11
9.13351
 21
-46.7281
  0
LINE
  8
0
 10
9.13351
 20
-46.7281
 11
9.59587
 21
-46.9149
  0
LINE
  8
0
 10
9.59587
 20
-46.9149
 11
10.0544
 21
-47.1109
  0
LINE
  8
0
 10
10.0544
 20
-47.1109
 11
10.5089
 21
-47.316
  0
LINE
  8
0
 10
10.5089
 20
-47.316
 11
10.9593
 21
-47.5301
  0
LINE
  8
0
 10
10.9593
 20
-47.5301
 11
11.4053
 21
-47.7532
  0
LINE
  8
0
 10
11.4053
 20
-47.7532
 11
11.8467
 21
-47.9851
  0
LINE
  8
0
 10
11.8467
 20
-47.9851
 11
12.2834
 21
-48.2258
  0
LINE
  8
0
 10
12.2834
 20
-48.2258
 11
12.7153
 21
-48.4751
  0
LINE
  8
0
 10
12.7153
 20
-48.4751
 11
13.1421
 21
-48.733
  0
LINE
  8
0
 10
13.1421
 20
-48.733
 11
13.5636
 21
-48.9993
  0
LINE
  8
0
 10
13.5636
 20
-48.9993
 11
13.9798
 21
-49.274
  0
LINE
  8
0
 10
13.9798
 20
-49.274
 11
14.3904
 21
-49.557
  0
LINE
  8
0
 10
14.3904
 20
-49.557
 11
14.7953
 21
-49.8481
  0
LINE
  8
0
 10
14.7953
 20
-49.8481
 11
15.1943
 21
-50.1472
  0
LINE
  8
0
 10
15.1943
 20
-50.1472
 11
15.5872
 21
-50.4542
  0
LINE
  8
0
 10
15.5872
 20
-50.4542
 11
15.974
 21
-50.769
  0
LINE
  8
0
 10
15.974
 20
-50.769
 11
16.3544
 21
-51.0914
  0
LINE
  8
0
 10
16.3544
 20
-51.0914
 11
16.7283
 21
-51.4214
  0
LINE
  8
0
 10
16.7283
 20
-51.4214
 11
17.0955
 21
-51.7587
  0
LINE
  8
0
 10
17.0955
 20
-51.7587
 11
17.4559
 21
-52.1033
  0
LINE
  8
0
 10
17.4559
 20
-52.1033
 11
17.8094
 21
-52.455
  0
LINE
  8
0
 10
17.8094
 20
-52.455
 11
18.1558
 21
-52.8138
  0
LINE
  8
0
 10
18.1558
 20
-52.8138
 11
18.495
 21
-53.1793
  0
LINE
  8
0
 10
18.495
 20
-53.1793
 11
18.8268
 21
-53.5515
  0
LINE
  8
0
 10
18.8268
 20
-53.5515
 11
19.1511
 21
-53.9303
  0
LINE
  8
0
 10
19.1511
 20
-53.9303
 11
19.4678
 21
-54.3155
  0
LINE
  8
0
 10
19.4678
 20
-54.3155
 11
19.7768
 21
-54.7069
  0
LINE
  8
0
 10
19.7768
 20
-54.7069
 11
20.0779
 21
-55.1044
  0
LINE
  8
0
 10
20.0779
 20
-55.1044
 11
20.371
 21
-55.5078
  0
LINE
  8
0
 10
20.371
 20
-55.5078
 11
20.656
 21
-55.917
  0
LINE
  8
0
 10
20.656
 20
-55.917
 11
20.9327
 21
-56.3318
  0
LINE
  8
0
 10
20.9327
 20
-56.3318
 11
21.2012
 21
-56.752
  0
LINE
  8
0
 10
21.2012
 20
-56.752
 11
21.4612
 21
-57.1775
  0
LINE
  8
0
 10
21.4612
 20
-57.1775
 11
21.7127
 21
-57.6081
  0
LINE
  8
0
 10
21.7127
 20
-57.6081
 11
21.9555
 21
-58.0436
  0
LINE
  8
0
 10
21.9555
 20
-58.0436
 11
22.1896
 21
-58.4839
  0
LINE
  8
0
 10
22.1896
 20
-58.4839
 11
22.4149
 21
-58.9288
  0
LINE
  8
0
 10
22.4149
 20
-58.9288
 11
22.6313
 21
-59.3781
  0
LINE
  8
0
 10
22.6313
 20
-59.3781
 11
22.8386
 21
-59.8316
  0
LINE
  8
0
 10
22.8386
 20
-59.8316
 11
23.0369
 21
-60.2891
  0
LINE
  8
0
 10
23.0369
 20
-60.2891
 11
23.226
 21
-60.7505
  0
LINE
  8
0
 10
23.226
 20
-60.7505
 11
23.4059
 21
-61.2156
  0
LINE
  8
0
 10
23.4059
 20
-61.2156
 11
23.5764
 21
-61.6842
  0
LINE
  8
0
 10
23.5764
 20
-61.6842
 11
23.7376
 21
-62.1561
  0
LINE
  8
0
 10
23.7376
 20
-62.1561
 11
23.8893
 21
-62.6311
  0
LINE
  8
0
 10
23.8893
 20
-62.6311
 11
24.0315
 21
-63.1091
  0
LINE
  8
0
 10
24.0315
 20
-63.1091
 11
24.1642
 21
-63.5898
  0
LINE
  8
0
 10
24.1642
 20
-63.5898
 11
24.2872
 21
-64.073
  0
LINE
  8
0
 10
24.2872
 20
-64.073
 11
24.4006
 21
-64.5586
  0
LINE
  8
0
 10
24.4006
 20
-64.5586
 11
24.5043
 21
-65.0463
  0
LINE
  8
0
 10
24.5043
 20
-65.0463
 11
24.5982
 21
-65.5361
  0
LINE
  8
0
 10
24.5982
 20
-65.5361
 11
24.6824
 21
-66.0276
  0
LINE
  8
0
 10
24.6824
 20
-66.0276
 11
24.7567
 21
-66.5207
  0
LINE
  8
0
 10
24.7567
 20
-66.5207
 11
24.8212
 21
-67.0151
  0
LINE
  8
0
 10
24.8212
 20
-67.0151
 11
24.8758
 21
-67.5108
  0
LINE
  8
0
 10
24.8758
 20
-67.5108
 11
24.9205
 21
-68.0074
  0
LINE
  8
0
 10
24.9205
 20
-68.0074
 11
24.9552
 21
-68.5049
  0
LINE
  8
0
 10
24.9552
 20
-68.5049
 11
24.9801
 21
-69.0029
  0
LINE
  8
0
 10
24.9801
 20
-69.0029
 11
24.995
 21
-69.5014
  0
LINE
  8
0
 10
24.995
 20
-69.5014
 11
25
 21
-70
  0
LINE
  8
0
 10
25
 20
-70
 11
24.995
 21
-70.4986
  0
LINE
  8
0
 10
24.995
 20
-70.4986
 11
24.9801
 21
-70.9971
  0
LINE
  8
0
 10
24.9801
 20
-70.9971
 11
24.9552
 21
-71.4951
  0
LINE
  8
0
 10
24.9552
 20
-71.4951
 11
24.9205
 21
-71.9925
  0
LINE
  8
0
 10
24.9205
 20
-71.9925
 11
24.8758
 21
-72.4892
  0
LINE
  8
0
 10
24.8758
 20
-72.4892
 11
24.8212
 21
-72.9848
  0
LINE
  8
0
 10
24.8212
 20
-72.9848
 11
24.7567
 21
-73.4793
  0
LINE
  8
0
 10
24.7567
 20
-73.4793
 11
24.6824
 21
-73.9724
  0
LINE
  8
0
 10
24.6824
 20
-73.9724
 11
24.5982
 21
-74.4639
  0
LINE
  8
0
 10
24.5982
 20
-74.4639
 11
24.5043
 21
-74.9536
  0
LINE
  8
0
 10
24.5043
 20
-74.9536
 11
24.4006
 21
-75.4414
  0
LINE
  8
0
 10
24.4006
 20
-75.4414
 11
24.2872
 21
-75.927
  0
LINE
  8
0
 10
24.2872
 20
-75.927
 11
24.1642
 21
-76.4102
  0
LINE
  8
0
 10
24.1642
 20
-76.4102
 11
24.0315
 21
-76.8909
  0
LINE
  8
0
 10
24.0315
 20
-76.8909
 11
23.8893
 21
-77.3689
  0
LINE
  8
0
 10
23.8893
 20
-77.3689
 11
23.7376
 21
-77.8439
  0
LINE
  8
0
 10
23.7376
 20
-77.8439
 11
23.5764
 21
-78.3158
  0
LINE
  8
0
 10
23.5764
 20
-78.3158
 11
23.4059
 21
-78.7844
  0
LINE
  8
0
 10
23.4059
 20
-78.7844
 11
23.226
 21
-79.2495
  0
LINE
  8
0
 10
23.226
 20
-79.2495
 11
23.0369
 21
-79.7109
  0
LINE
  8
0
 10
23.0369
 20
-79.7109
 11
22.8386
 21
-80.1684
  0
LINE
  8
0
 10
22.8386
 20
-80.1684
 11
22.6313
 21
-80.6219
  0
LINE
  8
0
 10
22.6313
 20
-80.6219
 11
22.4149
 21
-81.0712
  0
LINE
  8
0
 10
22.4149
 20
-81.0712
 11
22.1896
 21
-81.5161
  0
LINE
  8
0
 10
22.1896
 20
-81.5161
 11
21.9555
 21
-81.9563
  0
LINE
  8
0
 10
21.9555
 20
-81.9563
 11
21.7127
 21
-82.3919
  0
LINE
  8
0
 10
21.7127
 20
-82.3919
 11
21.4612
 21
-82.8225
  0
LINE
  8
0
 10
21.4612
 20
-82.8225
 11
21.2012
 21
-83.248
  0
LINE
  8
0
 10
21.2012
 20
-83.248
 11
20.9327
 21
-83.6682
  0
LINE
  8
0
 10
20.9327
 20
-83.6682
 11
20.656
 21
-84.083
  0
LINE
  8
0
 10
20.656
 20
-84.083
 11
20.371
 21
-84.4922
  0
LINE
  8
0
 10
20.371
 20
-84.4922
 11
20.0779
 21
-84.8956
  0
LINE
  8
0
 10
20.0779
 20
-84.8956
 11
19.7768
 21
-85.2931
  0
LINE
  8
0
 10
19.7768
 20
-85.2931
 11
19.4678
 21
-85.6845
  0
LINE
  8
0
 10
19.4678
 20
-85.6845
 11
19.1511
 21
-86.0697
  0
LINE
  8
0
 10
19.1511
 20
-86.0697
 11
18.8268
 21
-86.4485
  0
LINE
  8
0
 10
18.8268
 20
-86.4485
 11
18.495
 21
-86.8207
  0
LINE
  8
0
 10
18.495
 20
-86.8207
 11
18.1558
 21
-87.1862
  0
LINE
  8
0
 10
18.1558
 20
-87.1862
 11
17.8094
 21
-87.5449
  0
LINE
  8
0
 10
17.8094
 20
-87.5449
 11
17.4559
 21
-87.8967
  0
LINE
  8
0
 10
17.4559
 20
-87.8967
 11
17.0955
 21
-88.2413
  0
LINE
  8
0
 10
17.0955
 20
-88.2413
 11
16.7283
 21
-88.5786
  0
LINE
  8
0
 10
16.7283
 20
-88.5786
 11
16.3544
 21
-88.9086
  0
LINE
  8
0
 10
16.3544
 20
-88.9086
 11
15.974
 21
-89.231
  0
LINE
  8
0
 10
15.974
 20
-89.231
 11
15.5872
 21
-89.5458
  0
LINE
  8
0
 10
15.5872
 20
-89.5458
 11
15.1943
 21
-89.8528
  0
LINE
  8
0
 10
15.1943
 20
-89.8528
 11
14.7953
 21
-90.1519
  0
LINE
  8
0
 10
14.7953
 20
-90.1519
 11
14.3904
 21
-90.443
  0
LINE
  8
0
 10
14.3904
 20
-90.443
 11
13.9798
 21
-90.7259
  0
LINE
  8
0
 10
13.9798
 20
-90.7259
 11
13.5636
 21
-91.0006
  0
LINE
  8
0
 10
13.5636
 20
-91.0006
 11
13.1421
 21
-91.267
  0
LINE
  8
0
 10
13.1421
 20
-91.267
 11
12.7153
 21
-91.5249
  0
LINE
  8
0
 10
12.7153
 20
-91.5249
 11
12.2834
 21
-91.7742
  0
LINE
  8
0
 10
12.2834
 20
-91.7742
 11
11.8467
 21
-92.0149
  0
LINE
  8
0
 10
11.8467
 20
-92.0149
 11
11.4053
 21
-92.2468
  0
LINE
  8
0
 10
11.4053
 20
-92.2468
 11
10.9593
 21
-92.4698
  0
LINE
  8
0
 10
10.9593
 20
-92.4698
 11
10.5089
 21
-92.684
  0
LINE
  8
0
 10
10.5089
 20
-92.684
 11
10.0544
 21
-92.8891
  0
LINE
  8
0
 10
10.0544
 20
-92.8891
 11
9.59587
 21
-93.085
  0
LINE
  8
0
 10
9.59587
 20
-93.085
 11
9.13351
 21
-93.2718
  0
LINE
  8
0
 10
9.13351
 20
-93.2718
 11
8.66754
 21
-93.4494
  0
LINE
  8
0
 10
8.66754
 20
-93.4494
 11
8.1981
 21
-93.6176
  0
LINE
  8
0
 10
8.1981
 20
-93.6176
 11
7.72542
 21
-93.7764
  0
LINE
  8
0
 10
7.72542
 20
-93.7764
 11
7.24965
 21
-93.9258
  0
LINE
  8
0
 10
7.24965
 20
-93.9258
 11
6.77101
 21
-94.0656
  0
LINE
  8
0
 10
6.77101
 20
-94.0656
 11
6.28966
 21
-94.1959
  0
LINE
  8
0
 10
6.28966
 20
-94.1959
 11
5.80582
 21
-94.3165
  0
LINE
  8
0
 10
5.80582
 20
-94.3165
 11
5.31966
 21
-94.4275
  0
LINE
  8
0
 10
5.31966
 20
-94.4275
 11
4.83139
 21
-94.5287
  0
LINE
  8
0
 10
4.83139
 20
-94.5287
 11
4.3412
 21
-94.6202
  0
LINE
  8
0
 10
4.3412
 20
-94.6202
 11
3.84927
 21
-94.7019
  0
LINE
  8
0
 10
3.84927
 20
-94.7019
 11
3.35582
 21
-94.7737
  0
LINE
  8
0
 10
3.35582
 20
-94.7737
 11
2.86104
 21
-94.8357
  0
LINE
  8
0
 10
2.86104
 20
-94.8357
 11
2.36511
 21
-94.8879
  0
LINE
  8
0
 10
2.36511
 20
-94.8879
 11
1.86824
 21
-94.9301
  0
LINE
  8
0
 10
1.86824
 20
-94.9301
 11
1.37064
 21
-94.9624
  0
LINE
  8
0
 10
1.37064
 20
-94.9624
 11
0.872482
 21
-94.9848
  0
LINE
  8
0
 10
0.872482
 20
-94.9848
 11
0.373978
 21
-94.9972
  0
LINE
  8
0
 10
0.373978
 20
-94.9972
 11
-0.124664
 21
-94.9997
  0
LINE
  8
0
 10
-0.124664
 20
-94.9997
 11
-0.62326
 21
-94.9922
  0
LINE
  8
0
 10
64.3767
 20
-94.9922
 11
63.8784
 21
-94.9748
  0
LINE
  8
0
 10
63.8784
 20
-94.9748
 11
63.3805
 21
-94.9475
  0
LINE
  8
0
 10
63.3805
 20
-94.9475
 11
62.8832
 21
-94.9102
  0
LINE
  8
0
 10
62.8832
 20
-94.9102
 11
62.3868
 21
-94.863
  0
LINE
  8
0
 10
62.3868
 20
-94.863
 11
61.8914
 21
-94.806
  0
LINE
  8
0
 10
61.8914
 20
-94.806
 11
61.3973
 21
-94.739
  0
LINE
  8
0
 10
61.3973
 20
-94.739
 11
60.9045
 21
-94.6623
  0
LINE
  8
0
 10
60.9045
 20
-94.6623
 11
60.4135
 21
-94.5757
  0
LINE
  8
0
 10
60.4135
 20
-94.5757
 11
59.9242
 21
-94.4793
  0
LINE
  8
0
 10
59.9242
 20
-94.4793
 11
59.437
 21
-94.3732
  0
LINE
  8
0
 10
59.437
 20
-94.3732
 11
58.952
 21
-94.2574
  0
LINE
  8
0
 10
58.952
 20
-94.2574
 11
58.4693
 21
-94.1319
  0
LINE
  8
0
 10
58.4693
 20
-94.1319
 11
57.9893
 21
-93.9969
  0
LINE
  8
0
 10
57.9893
 20
-93.9969
 11
57.5121
 21
-93.8523
  0
LINE
  8
0
 10
57.5121
 20
-93.8523
 11
57.0378
 21
-93.6982
  0
LINE
  8
0
 10
57.0378
 20
-93.6982
 11
56.5667
 21
-93.5347
  0
LINE
  8
0
 10
56.5667
 20
-93.5347
 11
56.099
 21
-93.3618
  0
LINE
  8
0
 10
56.099
 20
-93.3618
 11
55.6348
 21
-93.1796
  0
LINE
  8
0
 10
55.6348
 20
-93.1796
 11
55.1744
 21
-92.9882
  0
LINE
  8
0
 10
55.1744
 20
-92.9882
 11
54.7178
 21
-92.7876
  0
LINE
  8
0
 10
54.7178
 20
-92.7876
 11
54.2654
 21
-92.578
  0
LINE
  8
0
 10
54.2654
 20
-92.578
 11
53.8172
 21
-92.3594
  0
LINE
  8
0
 10
53.8172
 20
-92.3594
 11
53.3734
 21
-92.1319
  0
LINE
  8
0
 10
53.3734
 20
-92.1319
 11
52.9343
 21
-91.8956
  0
LINE
  8
0
 10
52.9343
 20
-91.8956
 11
52.5
 21
-91.6506
  0
LINE
  8
0
 10
52.5
 20
-91.6506
 11
52.0706
 21
-91.397
  0
LINE
  8
0
 10
52.0706
 20
-91.397
 11
51.6465
 21
-91.1349
  0
LINE
  8
0
 10
51.6465
 20
-91.1349
 11
51.2276
 21
-90.8643
  0
LINE
  8
0
 10
51.2276
 20
-90.8643
 11
50.8142
 21
-90.5855
  0
LINE
  8
0
 10
50.8142
 20
-90.5855
 11
50.4064
 21
-90.2984
  0
LINE
  8
0
 10
50.4064
 20
-90.2984
 11
50.0044
 21
-90.0033
  0
LINE
  8
0
 10
50.0044
 20
-90.0033
 11
49.6085
 21
-89.7003
  0
LINE
  8
0
 10
49.6085
 20
-89.7003
 11
49.2186
 21
-89.3894
  0
LINE
  8
0
 10
49.2186
 20
-89.3894
 11
48.835
 21
-89.0707
  0
LINE
  8
0
 10
48.835
 20
-89.0707
 11
48.4578
 21
-88.7445
  0
LINE
  8
0
 10
48.4578
 20
-88.7445
 11
48.0873
 21
-88.4109
  0
LINE
  8
0
 10
48.0873
 20
-88.4109
 11
47.7234
 21
-88.0699
  0
LINE
  8
0
 10
47.7234
 20
-88.0699
 11
47.3665
 21
-87.7217
  0
LINE
  8
0
 10
47.3665
 20
-87.7217
 11
47.0165
 21
-87.3665
  0
LINE
  8
0
 10
47.0165
 20
-87.3665
 11
46.6737
 21
-87.0043
  0
LINE
  8
0
 10
46.6737
 20
-87.0043
 11
46.3382
 21
-86.6354
  0
LINE
  8
0
 10
46.3382
 20
-86.6354
 11
46.0101
 21
-86.2599
  0
LINE
  8
0
 10
46.0101
 20
-86.2599
 11
45.6896
 21
-85.8779
  0
LINE
  8
0
 10
45.6896
 20
-85.8779
 11
45.3767
 21
-85.4896
  0
LINE
  8
0
 10
45.3767
 20
-85.4896
 11
45.0717
 21
-85.0951
  0
LINE
  8
0
 10
45.0717
 20
-85.0951
 11
44.7746
 21
-84.6946
  0
LINE
  8
0
 10
44.7746
 20
-84.6946
 11
44.4855
 21
-84.2883
  0
LINE
  8
0
 10
44.4855
 20
-84.2883
 11
44.2046
 21
-83.8763
  0
LINE
  8
0
 10
44.2046
 20
-83.8763
 11
43.932
 21
-83.4588
  0
LINE
  8
0
 10
43.932
 20
-83.4588
 11
43.6677
 21
-83.0359
  0
LINE
  8
0
 10
43.6677
 20
-83.0359
 11
43.412
 21
-82.6078
  0
LINE
  8
0
 10
43.412
 20
-82.6078
 11
43.1648
 21
-82.1747
  0
LINE
  8
0
 10
43.1648
 20
-82.1747
 11
42.9263
 21
-81.7368
  0
LINE
  8
0
 10
42.9263
 20
-81.7368
 11
42.6966
 21
-81.2942
  0
LINE
  8
0
 10
42.6966
 20
-81.2942
 11
42.4758
 21
-80.8471
  0
LINE
  8
0
 10
42.4758
 20
-80.8471
 11
42.2639
 21
-80.3957
  0
LINE
  8
0
 10
42.2639
 20
-80.3957
 11
42.0611
 21
-79.9401
  0
LINE
  8
0
 10
42.0611
 20
-79.9401
 11
41.8674
 21
-79.4806
  0
LINE
  8
0
 10
41.8674
 20
-79.4806
 11
41.6829
 21
-79.0173
  0
LINE
  8
0
 10
41.6829
 20
-79.0173
 11
41.5077
 21
-78.5505
  0
LINE
  8
0
 10
41.5077
 20
-78.5505
 11
41.3418
 21
-78.0802
  0
LINE
  8
0
 10
41.3418
 20
-78.0802
 11
41.1853
 21
-77.6068
  0
LINE
  8
0
 10
41.1853
 20
-77.6068
 11
41.0384
 21
-77.1302
  0
LINE
  8
0
 10
41.0384
 20
-77.1302
 11
40.9009
 21
-76.6509
  0
LINE
  8
0
 10
40.9009
 20
-76.6509
 11
40.7731
 21
-76.1689
  0
LINE
  8
0
 10
40.7731
 20
-76.1689
 11
40.6548
 21
-75.6845
  0
LINE
  8
0
 10
40.6548
 20
-75.6845
 11
40.5463
 21
-75.1978
  0
LINE
  8
0
 10
40.5463
 20
-75.1978
 11
40.4475
 21
-74.709
  0
LINE
  8
0
 10
40.4475
 20
-74.709
 11
40.3585
 21
-74.2184
  0
LINE
  8
0
 10
40.3585
 20
-74.2184
 11
40.2792
 21
-73.726
  0
LINE
  8
0
 10
40.2792
 20
-73.726
 11
40.2098
 21
-73.2322
  0
LINE
  8
0
 10
40.2098
 20
-73.2322
 11
40.1503
 21
-72.7372
  0
LINE
  8
0
 10
40.1503
 20
-72.7372
 11
40.1006
 21
-72.241
  0
LINE
  8
0
 10
40.1006
 20
-72.241
 11
40.0609
 21
-71.7439
  0
LINE
  8
0
 10
40.0609
 20
-71.7439
 11
40.0311
 21
-71.2461
  0
LINE
  8
0
 10
40.0311
 20
-71.2461
 11
40.0112
 21
-70.7479
  0
LINE
  8
0
 10
40.0112
 20
-70.7479
 11
40.0012
 21
-70.2493
  0
LINE
  8
0
 10
40.0012
 20
-70.2493
 11
40.0012
 21
-69.7507
  0
LINE
  8
0
 10
40.0012
 20
-69.7507
 11
40.0112
 21
-69.2521
  0
LINE
  8
0
 10
40.0112
 20
-69.2521
 11
40.0311
 21
-68.7538
  0
LINE
  8
0
 10
40.0311
 20
-68.7538
 11
40.0609
 21
-68.2561
  0
LINE
  8
0
 10
40.0609
 20
-68.2561
 11
40.1006
 21
-67.759
  0
LINE
  8
0
 10
40.1006
 20
-67.759
 11
40.1503
 21
-67.2628
  0
LINE
  8
0
 10
40.1503
 20
-67.2628
 11
40.2098
 21
-66.7677
  0
LINE
  8
0
 10
40.2098
 20
-66.7677
 11
40.2792
 21
-66.2739
  0
LINE
  8
0
 10
40.2792
 20
-66.2739
 11
40.3585
 21
-65.7816
  0
LINE
  8
0
 10
40.3585
 20
-65.7816
 11
40.4475
 21
-65.291
  0
LINE
  8
0
 10
40.4475
 20
-65.291
 11
40.5463
 21
-64.8022
  0
LINE
  8
0
 10
40.5463
 20
-64.8022
 11
40.6548
 21
-64.3155
  0
LINE
  8
0
 10
40.6548
 20
-64.3155
 11
40.7731
 21
-63.8311
  0
LINE
  8
0
 10
40.7731
 20
-63.8311
 11
40.9009
 21
-63.3491
  0
LINE
  8
0
 10
40.9009
 20
-63.3491
 11
41.0384
 21
-62.8697
  0
LINE
  8
0
 10
41.0384
 20
-62.8697
 11
41.1853
 21
-62.3932
  0
LINE
  8
0
 10
41.1853
 20
-62.3932
 11
41.3418
 21
-61.9198
  0
LINE
  8
0
 10
41.3418
 20
-61.9198
 11
41.5077
 21
-61.4495
  0
LINE
  8
0
 10
41.5077
 20
-61.4495
 11
41.6829
 21
-60.9826
  0
LINE
  8
0
 10
41.6829
 20
-60.9826
 11
41.8674
 21
-60.5194
  0
LINE
  8
0
 10
41.8674
 20
-60.5194
 11
42.0611
 21
-60.0599
  0
LINE
  8
0
 10
42.0611
 20
-60.0599
 11
42.2639
 21
-59.6043
  0
LINE
  8
0
 10
42.2639
 20
-59.6043
 11
42.4758
 21
-59.1529
  0
LINE
  8
0
 10
42.4758
 20
-59.1529
 11
42.6966
 21
-58.7058
  0
LINE
  8
0
 10
42.6966
 20
-58.7058
 11
42.9263
 21
-58.2632
  0
LINE
  8
0
 10
42.9263
 20
-58.2632
 11
43.1648
 21
-57.8253
  0
LINE
  8
0
 10
43.1648
 20
-57.8253
 11
43.412
 21
-57.3922
  0
LINE
  8
0
 10
43.412
 20
-57.3922
 11
43.6677
 21
-56.9641
  0
LINE
  8
0
 10
43.6677
 20
-56.9641
 11
43.932
 21
-56.5412
  0
LINE
  8
0
 10
43.932
 20
-56.5412
 11
44.2046
 21
-56.1237
  0
LINE
  8
0
 10
44.2046
 20
-56.1237
 11
44.4855
 21
-55.7117
  0
LINE
  8
0
 10
44.4855
 20
-55.7117
 11
44.7746
 21
-55.3054
  0
LINE
  8
0
 10
44.7746
 20
-55.3054
 11
45.0717
 21
-54.9049
  0
LINE
  8
0
 10
45.0717
 20
-54.9049
 11
45.3767
 21
-54.5104
  0
LINE
  8
0
 10
45.3767
 20
-54.5104
 11
45.6896
 21
-54.1221
  0
LINE
  8
0
 10
45.6896
 20
-54.1221
 11
46.0101
 21
-53.7401
  0
LINE
  8
0
 10
46.0101
 20
-53.7401
 11
46.3382
 21
-53.3646
  0
LINE
  8
0
 10
46.3382
 20
-53.3646
 11
46.6737
 21
-52.9957
  0
LINE
  8
0
 10
46.6737
 20
-52.9957
 11
47.0165
 21
-52.6335
  0
LINE
  8
0
 10
47.0165
 20
-52.6335
 11
47.3665
 21
-52.2783
  0
LINE
  8
0
 10
47.3665
 20
-52.2783
 11
47.7234
 21
-51.9301
  0
LINE
  8
0
 10
47.7234
 20
-51.9301
 11
48.0873
 21
-51.5891
  0
LINE
  8
0
 10
48.0873
 20
-51.5891
 11
48.4578
 21
-51.2555
  0
LINE
  8
0
 10
48.4578
 20
-51.2555
 11
48.835
 21
-50.9293
  0
LINE
  8
0
 10
48.835
 20
-50.9293
 11
49.2186
 21
-50.6106
  0
LINE
  8
0
 10
49.2186
 20
-50.6106
 11
49.6085
 21
-50.2997
  0
LINE
  8
0
 10
49.6085
 20
-50.2997
 11
50.0044
 21
-49.9967
  0
LINE
  8
0
 10
50.0044
 20
-49.9967
 11
50.4064
 21
-49.7015
  0
LINE
  8
0
 10
50.4064
 20
-49.7015
 11
50.8142
 21
-49.4145
  0
LINE
  8
0
 10
50.8142
 20
-49.4145
 11
51.2276
 21
-49.1357
  0
LINE
  8
0
 10
51.2276
 20
-49.1357
 11
51.6465
 21
-48.8651
  0
LINE
  8
0
 10
51.6465
 20
-48.8651
 11
52.0706
 21
-48.603
  0
LINE
  8
0
 10
52.0706
 20
-48.603
 11
52.5
 21
-48.3493
  0
LINE
  8
0
 10
52.5
 20
-48.3493
 11
52.9343
 21
-48.1044
  0
LINE
  8
0
 10
52.9343
 20
-48.1044
 11
53.3734
 21
-47.8681
  0
LINE
  8
0
 10
53.3734
 20
-47.8681
 11
53.8172
 21
-47.6406
  0
LINE
  8
0
 10
53.8172
 20
-47.6406
 11
54.2654
 21
-47.422
  0
LINE
  8
0
 10
54.2654
 20
-47.422
 11
54.7178
 21
-47.2123
  0
LINE
  8
0
 10
54.7178
 20
-47.2123
 11
55.1744
 21
-47.0118
  0
LINE
  8
0
 10
55.1744
 20
-47.0118
 11
55.6348
 21
-46.8204
  0
LINE
  8
0
 10
55.6348
 20
-46.8204
 11
56.099
 21
-46.6382
  0
LINE
  8
0
 10
56.099
 20
-46.6382
 11
56.5667
 21
-46.4653
  0
LINE
  8
0
 10
56.5667
 20
-46.4653
 11
57.0378
 21
-46.3018
  0
LINE
  8
0
 10
57.0378
 20
-46.3018
 11
57.5121
 21
-46.1477
  0
LINE
  8
0
 10
57.5121
 20
-46.1477
 11
57.9893
 21
-46.0031
  0
LINE
  8
0
 10
57.9893
 20
-46.0031
 11
58.4693
 21
-45.8681
  0
LINE
  8
0
 10
58.4693
 20
-45.8681
 11
58.952
 21
-45.7426
  0
LINE
  8
0
 10
58.952
 20
-45.7426
 11
59.437
 21
-45.6268
  0
LINE
  8
0
 10
59.437
 20
-45.6268
 11
59.9242
 21
-45.5207
  0
LINE
  8
0
 10
59.9242
 20
-45.5207
 11
60.4135
 21
-45.4243
  0
LINE
  8
0
 10
60.4135
 20
-45.4243
 11
60.9045
 21
-45.3377
  0
LINE
  8
0
 10
60.9045
 20
-45.3377
 11
61.3973
 21
-45.261
  0
LINE
  8
0
 10
61.3973
 20
-45.261
 11
61.8914
 21
-45.194
  0
LINE
  8
0
 10
61.8914
 20
-45.194
 11
62.3868
 21
-45.1369
  0
LINE
  8
0
 10
62.3868
 20
-45.1369
 11
62.8832
 21
-45.0898
  0
LINE
  8
0
 10
62.8832
 20
-45.0898
 11
63.3805
 21
-45.0525
  0
LINE
  8
0
 10
63.3805
 20
-45.0525
 11
63.8784
 21
-45.0252
  0
LINE
  8
0
 10
63.8784
 20
-45.0252
 11
64.3767
 21
-45.0078
  0
LINE
  8
0
 10
64.3767
 20
-45.0078
 11
64.8753
 21
-45.0003
  0
LINE
  8
0
 10
64.8753
 20
-45.0003
 11
65.374
 21
-45.0028
  0
LINE
  8
0
 10
65.374
 20
-45.0028
 11
65.8725
 21
-45.0152
  0
LINE
  8
0
 10
65.8725
 20
-45.0152
 11
66.3706
 21
-45.0376
  0
LINE
  8
0
 10
66.3706
 20
-45.0376
 11
66.8682
 21
-45.0699
  0
LINE
  8
0
 10
66.8682
 20
-45.0699
 11
67.3651
 21
-45.1121
  0
LINE
  8
0
 10
67.3651
 20
-45.1121
 11
67.861
 21
-45.1642
  0
LINE
  8
0
 10
67.861
 20
-45.1642
 11
68.3558
 21
-45.2262
  0
LINE
  8
0
 10
68.3558
 20
-45.2262
 11
68.8493
 21
-45.2981
  0
LINE
  8
0
 10
68.8493
 20
-45.2981
 11
69.3412
 21
-45.3798
  0
LINE
  8
0
 10
69.3412
 20
-45.3798
 11
69.8314
 21
-45.4713
  0
LINE
  8
0
 10
69.8314
 20
-45.4713
 11
70.3197
 21
-45.5725
  0
LINE
  8
0
 10
70.3197
 20
-45.5725
 11
70.8058
 21
-45.6835
  0
LINE
  8
0
 10
70.8058
 20
-45.6835
 11
71.2897
 21
-45.8041
  0
LINE
  8
0
 10
71.2897
 20
-45.8041
 11
71.771
 21
-45.9344
  0
LINE
  8
0
 10
71.771
 20
-45.9344
 11
72.2496
 21
-46.0742
  0
LINE
  8
0
 10
72.2496
 20
-46.0742
 11
72.7254
 21
-46.2236
  0
LINE
  8
0
 10
72.7254
 20
-46.2236
 11
73.1981
 21
-46.3824
  0
LINE
  8
0
 10
73.1981
 20
-46.3824
 11
73.6675
 21
-46.5506
  0
LINE
  8
0
 10
73.6675
 20
-46.5506
 11
74.1335
 21
-46.7281
  0
LINE
  8
0
 10
74.1335
 20
-46.7281
 11
74.5959
 21
-46.9149
  0
LINE
  8
0
 10
74.5959
 20
-46.9149
 11
75.0544
 21
-47.1109
  0
LINE
  8
0
 10
75.0544
 20
-47.1109
 11
75.5089
 21
-47.316
  0
LINE
  8
0
 10
75.5089
 20
-47.316
 11
75.9593
 21
-47.5301
  0
LINE
  8
0
 10
75.9593
 20
-47.5301
 11
76.4053
 21
-47.7532
  0
LINE
  8
0
 10
76.4053
 20
-47.7532
 11
76.8467
 21
-47.9851
  0
LINE
  8
0
 10
76.8467
 20
-47.9851
 11
77.2834
 21
-48.2258
  0
LINE
  8
0
 10
77.2834
 20
-48.2258
 11
77.7153
 21
-48.4751
  0
LINE
  8
0
 10
77.7153
 20
-48.4751
 11
78.1421
 21
-48.733
  0
LINE
  8
0
 10
78.1421
 20
-48.733
 11
78.5636
 21
-48.9993
  0
LINE
  8
0
 10
78.5636
 20
-48.9993
 11
78.9798
 21
-49.274
  0
LINE
  8
0
 10
78.9798
 20
-49.274
 11
79.3904
 21
-49.557
  0
LINE
  8
0
 10
79.3904
 20
-49.557
 11
79.7953
 21
-49.8481
  0
LINE
  8
0
 10
79.7953
 20
-49.8481
 11
80.1943
 21
-50.1472
  0
LINE
  8
0
 10
80.1943
 20
-50.1472
 11
80.5872
 21
-50.4542
  0
LINE
  8
0
 10
80.5872
 20
-50.4542
 11
80.974
 21
-50.769
  0
LINE
  8
0
 10
80.974
 20
-50.769
 11
81.3544
 21
-51.0914
  0
LINE
  8
0
 10
81.3544
 20
-51.0914
 11
81.7283
 21
-51.4214
  0
LINE
  8
0
 10
81.7283
 20
-51.4214
 11
82.0955
 21
-51.7587
  0
LINE
  8
0
 10
82.0955
 20
-51.7587
 11
82.4559
 21
-52.1033
  0
LINE
  8
0
 10
82.4559
 20
-52.1033
 11
82.8094
 21
-52.455
  0
LINE
  8
0
 10
82.8094
 20
-52.455
 11
83.1558
 21
-52.8138
  0
LINE
  8
0
 10
83.1558
 20
-52.8138
 11
83.495
 21
-53.1793
  0
LINE
  8
0
 10
83.495
 20
-53.1793
 11
83.8268
 21
-53.5515
  0
LINE
  8
0
 10
83.8268
 20
-53.5515
 11
84.1511
 21
-53.9303
  0
LINE
  8
0
 10
84.1511
 20
-53.9303
 11
84.4678
 21
-54.3155
  0
LINE
  8
0
 10
84.4678
 20
-54.3155
 11
84.7768
 21
-54.7069
  0
LINE
  8
0
 10
84.7768
 20
-54.7069
 11
85.0779
 21
-55.1044
  0
LINE
  8
0
 10
85.0779
 20
-55.1044
 11
85.371
 21
-55.5078
  0
LINE
  8
0
 10
85.371
 20
-55.5078
 11
85.656
 21
-55.917
  0
LINE
  8
0
 10
85.656
 20
-55.917
 11
85.9327
 21
-56.3318
  0
LINE
  8
0
 10
85.9327
 20
-56.3318
 11
86.2012
 21
-56.752
  0
LINE
  8
0
 10
86.2012
 20
-56.752
 11
86.4612
 21
-57.1775
  0
LINE
  8
0
 10
86.4612
 20
-57.1775
 11
86.7127
 21
-57.6081
  0
LINE
  8
0
 10
86.7127
 20
-57.6081
 11
86.9555
 21
-58.0436
  0
LINE
  8
0
 10
86.9555
 20
-58.0436
 11
87.1896
 21
-58.4839
  0
LINE
  8
0
 10
87.1896
 20
-58.4839
 11
87.4149
 21
-58.9288
  0
LINE
  8
0
 10
87.4149
 20
-58.9288
 11
87.6313
 21
-59.3781
  0
LINE
  8
0
 10
87.6313
 20
-59.3781
 11
87.8386
 21
-59.8316
  0
LINE
  8
0
 10
87.8386
 20
-59.8316
 11
88.0369
 21
-60.2891
  0
LINE
  8
0
 10
88.0369
 20
-60.2891
 11
88.226
 21
-60.7505
  0
LINE
  8
0
 10
88.226
 20
-60.7505
 11
88.4059
 21
-61.2156
  0
LINE
  8
0
 10
88.4059
 20
-61.2156
 11
88.5764
 21
-61.6842
  0
LINE
  8
0
 10
88.5764
 20
-61.6842
 11
88.7376
 21
-62.1561
  0
LINE
  8
0
 10
88.7376
 20
-62.1561
 11
88.8893
 21
-62.6311
  0
LINE
  8
0
 10
88.8893
 20
-62.6311
 11
89.0315
 21
-63.1091
  0
LINE
  8
0
 10
89.0315
 20
-63.1091
 11
89.1642
 21
-63.5898
  0
LINE
  8
0
 10
89.1642
 20
-63.5898
 11
89.2872
 21
-64.073
  0
LINE
  8
0
 10
89.2872
 20
-64.073
 11
89.4006
 21
-64.5586
  0
LINE
  8
0
 10
89.4006
 20
-64.5586
 11
89.5043
 21
-65.0463
  0
LINE
  8
0
 10
89.5043
 20
-65.0463
 11
89.5982
 21
-65.5361
  0
LINE
  8
0
 10
89.5982
 20
-65.5361
 11
89.6824
 21
-66.0276
  0
LINE
  8
0
 10
89.6824
 20
-66.0276
 11
89.7567
 21
-66.5207
  0
LINE
  8
0
 10
89.7567
 20
-66.5207
 11
89.8212
 21
-67.0151
  0
LINE
  8
0
 10
89.8212
 20
-67.0151
 11
89.8758
 21
-67.5108
  0
LINE
  8
0
 10
89.8758
 20
-67.5108
 11
89.9205
 21
-68.0074
  0
LINE
  8
0
 10
89.9205
 20
-68.0074
 11
89.9552
 21
-68.5049
  0
LINE
  8
0
 10
89.9552
 20
-68.5049
 11
89.9801
 21
-69.0029
  0
LINE
  8
0
 10
89.9801
 20
-69.0029
 11
89.995
 21
-69.5014
  0
LINE
  8
0
 10
89.995
 20
-69.5014
 11
90
 21
-70
  0
LINE
  8
0
 10
90
 20
-70
 11
89.995
 21
-70.4986
  0
LINE
  8
0
 10
89.995
 20
-70.4986
 11
89.9801
 21
-70.9971
  0
LINE
  8
0
 10
89.9801
 20
-70.9971
 11
89.9552
 21
-71.4951
  0
LINE
  8
0
 10
89.9552
 20
-71.4951
 11
89.9205
 21
-71.9925
  0
LINE
  8
0
 10
89.9205
 20
-71.9925
 11
89.8758
 21
-72.4892
  0
LINE
  8
0
 10
89.8758
 20
-72.4892
 11
89.8212
 21
-72.9848
  0
LINE
  8
0
 10
89.8212
 20
-72.9848
 11
89.7567
 21
-73.4793
  0
LINE
  8
0
 10
89.7567
 20
-73.4793
 11
89.6824
 21
-73.9724
  0
LINE
  8
0
 10
89.6824
 20
-73.9724
 11
89.5982
 21
-74.4639
  0
LINE
  8
0
 10
89.5982
 20
-74.4639
 11
89.5043
 21
-74.9536
  0
LINE
  8
0
 10
89.5043
 20
-74.9536
 11
89.4006
 21
-75.4414
  0
LINE
  8
0
 10
89.4006
 20
-75.4414
 11
89.2872
 21
-75.927
  0
LINE
  8
0
 10
89.2872
 20
-75.927
 11
89.1642
 21
-76.4102
  0
LINE
  8
0
 10
89.1642
 20
-76.4102
 11
89.0315
 21
-76.8909
  0
LINE
  8
0
 10
89.0315
 20
-76.8909
 11
88.8893
 21
-77.3689
  0
LINE
  8
0
 10
88.8893
 20
-77.3689
 11
88.7376
 21
-77.8439
  0
LINE
  8
0
 10
88.7376
 20
-77.8439
 11
88.5764
 21
-78.3158
  0
LINE
  8
0
 10
88.5764
 20
-78.3158
 11
88.4059
 21
-78.7844
  0
LINE
  8
0
 10
88.4059
 20
-78.7844
 11
88.226
 21
-79.2495
  0
LINE
  8
0
 10
88.226
 20
-79.2495
 11
88.0369
 21
-79.7109
  0
LINE
  8
0
 10
88.0369
 20
-79.7109
 11
87.8386
 21
-80.1684
  0
LINE
  8
0
 10
87.8386
 20
-80.1684
 11
87.6313
 21
-80.6219
  0
LINE
  8
0
 10
87.6313
 20
-80.6219
 11
87.4149
 21
-81.0712
  0
LINE
  8
0
 10
87.4149
 20
-81.0712
 11
87.1896
 21
-81.5161
  0
LINE
  8
0
 10
87.1896
 20
-81.5161
 11
86.9555
 21
-81.9563
  0
LINE
  8
0
 10
86.9555
 20
-81.9563
 11
86.7127
 21
-82.3919
  0
LINE
  8
0
 10
86.7127
 20
-82.3919
 11
86.4612
 21
-82.8225
  0
LINE
  8
0
 10
86.4612
 20
-82.8225
 11
86.2012
 21
-83.248
  0
LINE
  8
0
 10
86.2012
 20
-83.248
 11
85.9327
 21
-83.6682
  0
LINE
  8
0
 10
85.9327
 20
-83.6682
 11
85.656
 21
-84.083
  0
LINE
  8
0
 10
85.656
 20
-84.083
 11
85.371
 21
-84.4922
  0
LINE
  8
0
 10
85.371
 20
-84.4922
 11
85.0779
 21
-84.8956
  0
LINE
  8
0
 10
85.0779
 20
-84.8956
 11
84.7768
 21
-85.2931
  0
LINE
  8
0
 10
84.7768
 20
-85.2931
 11
84.4678
 21
-85.6845
  0
LINE
  8
0
 10
84.4678
 20
-85.6845
 11
84.1511
 21
-86.0697
  0
LINE
  8
0
 10
84.1511
 20
-86.0697
 11
83.8268
 21
-86.4485
  0
LINE
  8
0
 10
83.8268
 20
-86.4485
 11
83.495
 21
-86.8207
  0
LINE
  8
0
 10
83.495
 20
-86.8207
 11
83.1558
 21
-87.1862
  0
LINE
  8
0
 10
83.1558
 20
-87.1862
 11
82.8094
 21
-87.5449
  0
LINE
  8
0
 10
82.8094
 20
-87.5449
 11
82.4559
 21
-87.8967
  0
LINE
  8
0
 10
82.4559
 20
-87.8967
 11
82.0955
 21
-88.2413
  0
LINE
  8
0
 10
82.0955
 20
-88.2413
 11
81.7283
 21
-88.5786
  0
LINE
  8
0
 10
81.7283
 20
-88.5786
 11
81.3544
 21
-88.9086
  0
LINE
  8
0
 10
81.3544
 20
-88.9086
 11
80.974
 21
-89.231
  0
LINE
  8
0
 10
80.974
 20
-89.231
 11
80.5872
 21
-89.5458
  0
LINE
  8
0
 10
80.5872
 20
-89.5458
 11
80.1943
 21
-89.8528
  0
LINE
  8
0
 10
80.1943
 20
-89.8528
 11
79.7953
 21
-90.1519
  0
LINE
  8
0
 10
79.7953
 20
-90.1519
 11
79.3904
 21
-90.443
  0
LINE
  8
0
 10
79.3904
 20
-90.443
 11
78.9798
 21
-90.7259
  0
LINE
  8
0
 10
78.9798
 20
-90.7259
 11
78.5636
 21
-91.0006
  0
LINE
  8
0
 10
78.5636
 20
-91.0006
 11
78.1421
 21
-91.267
  0
LINE
  8
0
 10
78.1421
 20
-91.267
 11
77.7153
 21
-91.5249
  0
LINE
  8
0
 10
77.7153
 20
-91.5249
 11
77.2834
 21
-91.7742
  0
LINE
  8
0
 10
77.2834
 20
-91.7742
 11
76.8467
 21
-92.0149
  0
LINE
  8
0
 10
76.8467
 20
-92.0149
 11
76.4053
 21
-92.2468
  0
LINE
  8
0
 10
76.4053
 20
-92.2468
 11
75.9593
 21
-92.4698
  0
LINE
  8
0
 10
75.9593
 20
-92.4698
 11
75.5089
 21
-92.684
  0
LINE
  8
0
 10
75.5089
 20
-92.684
 11
75.0544
 21
-92.8891
  0
LINE
  8
0
 10
75.0544
 20
-92.8891
 11
74.5959
 21
-93.085
  0
LINE
  8
0
 10
74.5959
 20
-93.085
 11
74.1335
 21
-93.2718
  0
LINE
  8
0
 10
74.1335
 20
-93.2718
 11
73.6675
 21
-93.4494
  0
LINE
  8
0
 10
73.6675
 20
-93.4494
 11
73.1981
 21
-93.6176
  0
LINE
  8
0
 10
73.1981
 20
-93.6176
 11
72.7254
 21
-93.7764
  0
LINE
  8
0
 10
72.7254
 20
-93.7764
 11
72.2496
 21
-93.9258
  0
LINE
  8
0
 10
72.2496
 20
-93.9258
 11
71.771
 21
-94.0656
  0
LINE
  8
0
 10
71.771
 20
-94.0656
 11
71.2897
 21
-94.1959
  0
LINE
  8
0
 10
71.2897
 20
-94.1959
 11
70.8058
 21
-94.3165
  0
LINE
  8
0
 10
70.8058
 20
-94.3165
 11
70.3197
 21
-94.4275
  0
LINE
  8
0
 10
70.3197
 20
-94.4275
 11
69.8314
 21
-94.5287
  0
LINE
  8
0
 10
69.8314
 20
-94.5287
 11
69.3412
 21
-94.6202
  0
LINE
  8
0
 10
69.3412
 20
-94.6202
 11
68.8493
 21
-94.7019
  0
LINE
  8
0
 10
68.8493
 20
-94.7019
 11
68.3558
 21
-94.7737
  0
LINE
  8
0
 10
68.3558
 20
-94.7737
 11
67.861
 21
-94.8357
  0
LINE
  8
0
 10
67.861
 20
-94.8357
 11
67.3651
 21
-94.8879
  0
LINE
  8
0
 10
67.3651
 20
-94.8879
 11
66.8682
 21
-94.9301
  0
LINE
  8
0
 10
66.8682
 20
-94.9301
 11
66.3706
 21
-94.9624
  0
LINE
  8
0
 10
66.3706
 20
-94.9624
 11
65.8725
 21
-94.9848
  0
LINE
  8
0
 10
65.8725
 20
-94.9848
 11
65.374
 21
-94.9972
  0
LINE
  8
0
 10
65.374
 20
-94.9972
 11
64.8753
 21
-94.9997
  0
LINE
  8
0
 10
64.8753
 20
-94.9997
 11
64.3767
 21
-94.9922
  0
LINE
  8
0
 10
105.144
 20
-107.06
 11
104.7
 21
-106.886
  0
LINE
  8
0
 10
104.7
 20
-106.886
 11
104.327
 21
-106.588
  0
LINE
  8
0
 10
104.327
 20
-106.588
 11
104.058
 21
-106.194
  0
LINE
  8
0
 10
104.058
 20
-106.194
 11
103.918
 21
-105.738
  0
LINE
  8
0
 10
103.918
 20
-105.738
 11
103.918
 21
-105.262
  0
LINE
  8
0
 10
103.918
 20
-105.262
 11
104.058
 21
-104.806
  0
LINE
  8
0
 10
104.058
 20
-104.806
 11
104.327
 21
-104.412
  0
LINE
  8
0
 10
104.327
 20
-104.412
 11
104.7
 21
-104.114
  0
LINE
  8
0
 10
104.7
 20
-104.114
 11
105.144
 21
-103.94
  0
LINE
  8
0
 10
105.144
 20
-103.94
 11
105.62
 21
-103.904
  0
LINE
  8
0
 10
105.62
 20
-103.904
 11
106.085
 21
-104.011
  0
LINE
  8
0
 10
106.085
 20
-104.011
 11
106.498
 21
-104.249
  0
LINE
  8
0
 10
106.498
 20
-104.249
 11
106.822
 21
-104.599
  0
LINE
  8
0
 10
106.822
 20
-104.599
 11
107.029
 21
-105.028
  0
LINE
  8
0
 10
107.029
 20
-105.028
 11
107.1
 21
-105.5
  0
LINE
  8
0
 10
107.1
 20
-105.5
 11
107.029
 21
-105.972
  0
LINE
  8
0
 10
107.029
 20
-105.972
 11
106.822
 21
-106.401
  0
LINE
  8
0
 10
106.822
 20
-106.401
 11
106.498
 21
-106.751
  0
LINE
  8
0
 10
106.498
 20
-106.751
 11
106.085
 21
-106.989
  0
LINE
  8
0
 10
106.085
 20
-106.989
 11
105.62
 21
-107.096
  0
LINE
  8
0
 10
105.62
 20
-107.096
 11
105.144
 21
-107.06
  0
LINE
  8
0
 10
-105.856
 20
-107.06
 11
-106.3
 21
-106.886
  0
LINE
  8
0
 10
-106.3
 20
-106.886
 11
-106.673
 21
-106.588
  0
LINE
  8
0
 10
-106.673
 20
-106.588
 11
-106.942
 21
-106.194
  0
LINE
  8
0
 10
-106.942
 20
-106.194
 11
-107.082
 21
-105.738
  0
LINE
  8
0
 10
-107.082
 20
-105.738
 11
-107.082
 21
-105.262
  0
LINE
  8
0
 10
-107.082
 20
-105.262
 11
-106.942
 21
-104.806
  0
LINE
  8
0
 10
-106.942
 20
-104.806
 11
-106.673
 21
-104.412
  0
LINE
  8
0
 10
-106.673
 20
-104.412
 11
-106.3
 21
-104.114
  0
LINE
  8
0
 10
-106.3
 20
-104.114
 11
-105.856
 21
-103.94
  0
LINE
  8
0
 10
-105.856
 20
-103.94
 11
-105.38
 21
-103.904
  0
LINE
  8
0
 10
-105.38
 20
-103.904
 11
-104.915
 21
-104.011
  0
LINE
  8
0
 10
-104.915
 20
-104.011
 11
-104.502
 21
-104.249
  0
LINE
  8
0
 10
-104.502
 20
-104.249
 11
-104.178
 21
-104.599
  0
LINE
  8
0
 10
-104.178
 20
-104.599
 11
-103.971
 21
-105.028
  0
LINE
  8
0
 10
-103.971
 20
-105.028
 11
-103.9
 21
-105.5
  0
LINE
  8
0
 10
-103.9
 20
-105.5
 11
-103.971
 21
-105.972
  0
LINE
  8
0
 10
-103.971
 20
-105.972
 11
-104.178
 21
-106.401
  0
LINE
  8
0
 10
-104.178
 20
-106.401
 11
-104.502
 21
-106.751
  0
LINE
  8
0
 10
-104.502
 20
-106.751
 11
-104.915
 21
-106.989
  0
LINE
  8
0
 10
-104.915
 20
-106.989
 11
-105.38
 21
-107.096
  0
LINE
  8
0
 10
-105.38
 20
-107.096
 11
-105.856
 21
-107.06
  0
ENDSEC
  0
SECTION
  2
OBJECTS
  0
DICTIONARY
  0
ENDSEC
  0
EOF
