  0
SECTION
  2
BLOCKS
  0
ENDSEC
  0
SECTION
  2
ENTITIES
  0
LINE
  8
0
 10
105.874
 20
-110.486
 11
106.368
 21
-110.424
  0
LINE
  8
0
 10
106.368
 20
-110.424
 11
106.854
 21
-110.313
  0
LINE
  8
0
 10
106.854
 20
-110.313
 11
107.327
 21
-110.154
  0
LINE
  8
0
 10
107.327
 20
-110.154
 11
107.781
 21
-109.949
  0
LINE
  8
0
 10
107.781
 20
-109.949
 11
108.213
 21
-109.7
  0
LINE
  8
0
 10
108.213
 20
-109.7
 11
108.617
 21
-109.409
  0
LINE
  8
0
 10
108.617
 20
-109.409
 11
108.991
 21
-109.079
  0
LINE
  8
0
 10
108.991
 20
-109.079
 11
109.33
 21
-108.714
  0
LINE
  8
0
 10
109.33
 20
-108.714
 11
109.631
 21
-108.317
  0
LINE
  8
0
 10
109.631
 20
-108.317
 11
109.891
 21
-107.891
  0
LINE
  8
0
 10
109.891
 20
-107.891
 11
110.107
 21
-107.442
  0
LINE
  8
0
 10
110.107
 20
-107.442
 11
110.278
 21
-106.974
  0
LINE
  8
0
 10
110.278
 20
-106.974
 11
110.401
 21
-106.491
  0
LINE
  8
0
 10
110.401
 20
-106.491
 11
110.475
 21
-105.998
  0
LINE
  8
0
 10
110.475
 20
-105.998
 11
110.5
 21
-105.5
  0
LINE
  8
0
 10
110.5
 20
-105.5
 11
110.475
 21
-105.002
  0
LINE
  8
0
 10
110.475
 20
-105.002
 11
110.401
 21
-104.509
  0
LINE
  8
0
 10
110.401
 20
-104.509
 11
110.278
 21
-104.026
  0
LINE
  8
0
 10
110.278
 20
-104.026
 11
110.107
 21
-103.558
  0
LINE
  8
0
 10
110.107
 20
-103.558
 11
109.891
 21
-103.109
  0
LINE
  8
0
 10
109.891
 20
-103.109
 11
109.631
 21
-102.683
  0
LINE
  8
0
 10
109.631
 20
-102.683
 11
109.33
 21
-102.286
  0
LINE
  8
0
 10
109.33
 20
-102.286
 11
108.991
 21
-101.921
  0
LINE
  8
0
 10
108.991
 20
-101.921
 11
90
 21
-82.9295
  0
LINE
  8
0
 10
90
 20
-82.9295
 11
90
 21
-63
  0
LINE
  8
0
 10
90
 20
-63
 11
100
 21
-53
  0
LINE
  8
0
 10
100
 20
-53
 11
100
 21
-15
  0
LINE
  8
0
 10
100
 20
-15
 11
90
 21
-5
  0
LINE
  8
0
 10
90
 20
-5
 11
90
 21
5
  0
LINE
  8
0
 10
90
 20
5
 11
100
 21
15
  0
LINE
  8
0
 10
100
 20
15
 11
100
 21
53
  0
LINE
  8
0
 10
100
 20
53
 11
90
 21
63
  0
LINE
  8
0
 10
90
 20
63
 11
90
 21
82.9295
  0
LINE
  8
0
 10
90
 20
82.9295
 11
108.991
 21
101.921
  0
LINE
  8
0
 10
108.991
 20
101.921
 11
109.33
 21
102.286
  0
LINE
  8
0
 10
109.33
 20
102.286
 11
109.631
 21
102.683
  0
LINE
  8
0
 10
109.631
 20
102.683
 11
109.891
 21
103.109
  0
LINE
  8
0
 10
109.891
 20
103.109
 11
110.107
 21
103.558
  0
LINE
  8
0
 10
110.107
 20
103.558
 11
110.278
 21
104.026
  0
LINE
  8
0
 10
110.278
 20
104.026
 11
110.401
 21
104.509
  0
LINE
  8
0
 10
110.401
 20
104.509
 11
110.475
 21
105.002
  0
LINE
  8
0
 10
110.475
 20
105.002
 11
110.5
 21
105.5
  0
LINE
  8
0
 10
110.5
 20
105.5
 11
110.475
 21
105.998
  0
LINE
  8
0
 10
110.475
 20
105.998
 11
110.401
 21
106.491
  0
LINE
  8
0
 10
110.401
 20
106.491
 11
110.278
 21
106.974
  0
LINE
  8
0
 10
110.278
 20
106.974
 11
110.107
 21
107.442
  0
LINE
  8
0
 10
110.107
 20
107.442
 11
109.891
 21
107.891
  0
LINE
  8
0
 10
109.891
 20
107.891
 11
109.631
 21
108.317
  0
LINE
  8
0
 10
109.631
 20
108.317
 11
109.33
 21
108.714
  0
LINE
  8
0
 10
109.33
 20
108.714
 11
108.991
 21
109.079
  0
LINE
  8
0
 10
108.991
 20
109.079
 11
108.617
 21
109.409
  0
LINE
  8
0
 10
108.617
 20
109.409
 11
108.213
 21
109.7
  0
LINE
  8
0
 10
108.213
 20
109.7
 11
107.781
 21
109.949
  0
LINE
  8
0
 10
107.781
 20
109.949
 11
107.327
 21
110.154
  0
LINE
  8
0
 10
107.327
 20
110.154
 11
106.854
 21
110.313
  0
LINE
  8
0
 10
106.854
 20
110.313
 11
106.368
 21
110.424
  0
LINE
  8
0
 10
106.368
 20
110.424
 11
105.874
 21
110.486
  0
LINE
  8
0
 10
105.874
 20
110.486
 11
105.375
 21
110.498
  0
LINE
  8
0
 10
105.375
 20
110.498
 11
104.878
 21
110.461
  0
LINE
  8
0
 10
104.878
 20
110.461
 11
104.387
 21
110.375
  0
LINE
  8
0
 10
104.387
 20
110.375
 11
103.908
 21
110.24
  0
LINE
  8
0
 10
103.908
 20
110.24
 11
103.444
 21
110.058
  0
LINE
  8
0
 10
103.444
 20
110.058
 11
103
 21
109.83
  0
LINE
  8
0
 10
103
 20
109.83
 11
102.581
 21
109.56
  0
LINE
  8
0
 10
102.581
 20
109.56
 11
102.192
 21
109.249
  0
LINE
  8
0
 10
102.192
 20
109.249
 11
101.835
 21
108.901
  0
LINE
  8
0
 10
101.835
 20
108.901
 11
77.9339
 21
85
  0
LINE
  8
0
 10
77.9339
 20
85
 11
-77.9295
 21
85
  0
LINE
  8
0
 10
-77.9295
 20
85
 11
-102.009
 21
109.079
  0
LINE
  8
0
 10
-102.009
 20
109.079
 11
-102.383
 21
109.409
  0
LINE
  8
0
 10
-102.383
 20
109.409
 11
-102.787
 21
109.7
  0
LINE
  8
0
 10
-102.787
 20
109.7
 11
-103.219
 21
109.949
  0
LINE
  8
0
 10
-103.219
 20
109.949
 11
-103.673
 21
110.154
  0
LINE
  8
0
 10
-103.673
 20
110.154
 11
-104.146
 21
110.313
  0
LINE
  8
0
 10
-104.146
 20
110.313
 11
-104.632
 21
110.424
  0
LINE
  8
0
 10
-104.632
 20
110.424
 11
-105.126
 21
110.486
  0
LINE
  8
0
 10
-105.126
 20
110.486
 11
-105.625
 21
110.498
  0
LINE
  8
0
 10
-105.625
 20
110.498
 11
-106.122
 21
110.461
  0
LINE
  8
0
 10
-106.122
 20
110.461
 11
-106.613
 21
110.375
  0
LINE
  8
0
 10
-106.613
 20
110.375
 11
-107.092
 21
110.24
  0
LINE
  8
0
 10
-107.092
 20
110.24
 11
-107.556
 21
110.058
  0
LINE
  8
0
 10
-107.556
 20
110.058
 11
-108
 21
109.83
  0
LINE
  8
0
 10
-108
 20
109.83
 11
-108.419
 21
109.56
  0
LINE
  8
0
 10
-108.419
 20
109.56
 11
-108.808
 21
109.249
  0
LINE
  8
0
 10
-108.808
 20
109.249
 11
-109.165
 21
108.901
  0
LINE
  8
0
 10
-109.165
 20
108.901
 11
-109.486
 21
108.519
  0
LINE
  8
0
 10
-109.486
 20
108.519
 11
-109.766
 21
108.107
  0
LINE
  8
0
 10
-109.766
 20
108.107
 11
-110.005
 21
107.669
  0
LINE
  8
0
 10
-110.005
 20
107.669
 11
-110.198
 21
107.21
  0
LINE
  8
0
 10
-110.198
 20
107.21
 11
-110.345
 21
106.734
  0
LINE
  8
0
 10
-110.345
 20
106.734
 11
-110.444
 21
106.245
  0
LINE
  8
0
 10
-110.444
 20
106.245
 11
-110.494
 21
105.749
  0
LINE
  8
0
 10
-110.494
 20
105.749
 11
-110.494
 21
105.251
  0
LINE
  8
0
 10
-110.494
 20
105.251
 11
-110.444
 21
104.755
  0
LINE
  8
0
 10
-110.444
 20
104.755
 11
-110.345
 21
104.266
  0
LINE
  8
0
 10
-110.345
 20
104.266
 11
-110.198
 21
103.79
  0
LINE
  8
0
 10
-110.198
 20
103.79
 11
-110.005
 21
103.331
  0
LINE
  8
0
 10
-110.005
 20
103.331
 11
-109.766
 21
102.893
  0
LINE
  8
0
 10
-109.766
 20
102.893
 11
-109.486
 21
102.481
  0
LINE
  8
0
 10
-109.486
 20
102.481
 11
-109.165
 21
102.099
  0
LINE
  8
0
 10
-109.165
 20
102.099
 11
-90
 21
82.9339
  0
LINE
  8
0
 10
-90
 20
82.9339
 11
-90
 21
63
  0
LINE
  8
0
 10
-90
 20
63
 11
-100
 21
53
  0
LINE
  8
0
 10
-100
 20
53
 11
-100
 21
15
  0
LINE
  8
0
 10
-100
 20
15
 11
-90
 21
5
  0
LINE
  8
0
 10
-90
 20
5
 11
-90
 21
-5
  0
LINE
  8
0
 10
-90
 20
-5
 11
-100
 21
-15
  0
LINE
  8
0
 10
-100
 20
-15
 11
-100
 21
-53
  0
LINE
  8
0
 10
-100
 20
-53
 11
-90
 21
-63
  0
LINE
  8
0
 10
-90
 20
-63
 11
-90
 21
-82.9339
  0
LINE
  8
0
 10
-90
 20
-82.9339
 11
-109.165
 21
-102.099
  0
LINE
  8
0
 10
-109.165
 20
-102.099
 11
-109.486
 21
-102.481
  0
LINE
  8
0
 10
-109.486
 20
-102.481
 11
-109.766
 21
-102.893
  0
LINE
  8
0
 10
-109.766
 20
-102.893
 11
-110.005
 21
-103.331
  0
LINE
  8
0
 10
-110.005
 20
-103.331
 11
-110.198
 21
-103.79
  0
LINE
  8
0
 10
-110.198
 20
-103.79
 11
-110.345
 21
-104.266
  0
LINE
  8
0
 10
-110.345
 20
-104.266
 11
-110.444
 21
-104.755
  0
LINE
  8
0
 10
-110.444
 20
-104.755
 11
-110.494
 21
-105.251
  0
LINE
  8
0
 10
-110.494
 20
-105.251
 11
-110.494
 21
-105.749
  0
LINE
  8
0
 10
-110.494
 20
-105.749
 11
-110.444
 21
-106.245
  0
LINE
  8
0
 10
-110.444
 20
-106.245
 11
-110.345
 21
-106.734
  0
LINE
  8
0
 10
-110.345
 20
-106.734
 11
-110.198
 21
-107.21
  0
LINE
  8
0
 10
-110.198
 20
-107.21
 11
-110.005
 21
-107.669
  0
LINE
  8
0
 10
-110.005
 20
-107.669
 11
-109.766
 21
-108.107
  0
LINE
  8
0
 10
-109.766
 20
-108.107
 11
-109.486
 21
-108.519
  0
LINE
  8
0
 10
-109.486
 20
-108.519
 11
-109.165
 21
-108.901
  0
LINE
  8
0
 10
-109.165
 20
-108.901
 11
-108.808
 21
-109.249
  0
LINE
  8
0
 10
-108.808
 20
-109.249
 11
-108.419
 21
-109.56
  0
LINE
  8
0
 10
-108.419
 20
-109.56
 11
-108
 21
-109.83
  0
LINE
  8
0
 10
-108
 20
-109.83
 11
-107.556
 21
-110.058
  0
LINE
  8
0
 10
-107.556
 20
-110.058
 11
-107.092
 21
-110.24
  0
LINE
  8
0
 10
-107.092
 20
-110.24
 11
-106.613
 21
-110.375
  0
LINE
  8
0
 10
-106.613
 20
-110.375
 11
-106.122
 21
-110.461
  0
LINE
  8
0
 10
-106.122
 20
-110.461
 11
-105.625
 21
-110.498
  0
LINE
  8
0
 10
-105.625
 20
-110.498
 11
-105.126
 21
-110.486
  0
LINE
  8
0
 10
-105.126
 20
-110.486
 11
-104.632
 21
-110.424
  0
LINE
  8
0
 10
-104.632
 20
-110.424
 11
-104.146
 21
-110.313
  0
LINE
  8
0
 10
-104.146
 20
-110.313
 11
-103.673
 21
-110.154
  0
LINE
  8
0
 10
-103.673
 20
-110.154
 11
-103.219
 21
-109.949
  0
LINE
  8
0
 10
-103.219
 20
-109.949
 11
-102.787
 21
-109.7
  0
LINE
  8
0
 10
-102.787
 20
-109.7
 11
-102.383
 21
-109.409
  0
LINE
  8
0
 10
-102.383
 20
-109.409
 11
-102.009
 21
-109.079
  0
LINE
  8
0
 10
-102.009
 20
-109.079
 11
-77.9295
 21
-85
  0
LINE
  8
0
 10
-77.9295
 20
-85
 11
77.9339
 21
-85
  0
LINE
  8
0
 10
77.9339
 20
-85
 11
101.835
 21
-108.901
  0
LINE
  8
0
 10
101.835
 20
-108.901
 11
102.192
 21
-109.249
  0
LINE
  8
0
 10
102.192
 20
-109.249
 11
102.581
 21
-109.56
  0
LINE
  8
0
 10
102.581
 20
-109.56
 11
103
 21
-109.83
  0
LINE
  8
0
 10
103
 20
-109.83
 11
103.444
 21
-110.058
  0
LINE
  8
0
 10
103.444
 20
-110.058
 11
103.908
 21
-110.24
  0
LINE
  8
0
 10
103.908
 20
-110.24
 11
104.387
 21
-110.375
  0
LINE
  8
0
 10
104.387
 20
-110.375
 11
104.878
 21
-110.461
  0
LINE
  8
0
 10
104.878
 20
-110.461
 11
105.375
 21
-110.498
  0
LINE
  8
0
 10
105.375
 20
-110.498
 11
105.874
 21
-110.486
  0
LINE
  8
0
 10
104.897
 20
104.126
 11
104.484
 21
104.396
  0
LINE
  8
0
 10
104.484
 20
104.396
 11
104.181
 21
104.786
  0
LINE
  8
0
 10
104.181
 20
104.786
 11
104.02
 21
105.253
  0
LINE
  8
0
 10
104.02
 20
105.253
 11
104.02
 21
105.747
  0
LINE
  8
0
 10
104.02
 20
105.747
 11
104.181
 21
106.214
  0
LINE
  8
0
 10
104.181
 20
106.214
 11
104.484
 21
106.604
  0
LINE
  8
0
 10
104.484
 20
106.604
 11
104.897
 21
106.874
  0
LINE
  8
0
 10
104.897
 20
106.874
 11
105.376
 21
106.995
  0
LINE
  8
0
 10
105.376
 20
106.995
 11
105.868
 21
106.954
  0
LINE
  8
0
 10
105.868
 20
106.954
 11
106.32
 21
106.756
  0
LINE
  8
0
 10
106.32
 20
106.756
 11
106.684
 21
106.421
  0
LINE
  8
0
 10
106.684
 20
106.421
 11
106.919
 21
105.987
  0
LINE
  8
0
 10
106.919
 20
105.987
 11
107
 21
105.5
  0
LINE
  8
0
 10
107
 20
105.5
 11
106.919
 21
105.013
  0
LINE
  8
0
 10
106.919
 20
105.013
 11
106.684
 21
104.579
  0
LINE
  8
0
 10
106.684
 20
104.579
 11
106.32
 21
104.244
  0
LINE
  8
0
 10
106.32
 20
104.244
 11
105.868
 21
104.046
  0
LINE
  8
0
 10
105.868
 20
104.046
 11
105.376
 21
104.005
  0
LINE
  8
0
 10
105.376
 20
104.005
 11
104.897
 21
104.126
  0
LINE
  8
0
 10
-106.103
 20
104.126
 11
-106.516
 21
104.396
  0
LINE
  8
0
 10
-106.516
 20
104.396
 11
-106.819
 21
104.786
  0
LINE
  8
0
 10
-106.819
 20
104.786
 11
-106.98
 21
105.253
  0
LINE
  8
0
 10
-106.98
 20
105.253
 11
-106.98
 21
105.747
  0
LINE
  8
0
 10
-106.98
 20
105.747
 11
-106.819
 21
106.214
  0
LINE
  8
0
 10
-106.819
 20
106.214
 11
-106.516
 21
106.604
  0
LINE
  8
0
 10
-106.516
 20
106.604
 11
-106.103
 21
106.874
  0
LINE
  8
0
 10
-106.103
 20
106.874
 11
-105.624
 21
106.995
  0
LINE
  8
0
 10
-105.624
 20
106.995
 11
-105.132
 21
106.954
  0
LINE
  8
0
 10
-105.132
 20
106.954
 11
-104.68
 21
106.756
  0
LINE
  8
0
 10
-104.68
 20
106.756
 11
-104.316
 21
106.421
  0
LINE
  8
0
 10
-104.316
 20
106.421
 11
-104.081
 21
105.987
  0
LINE
  8
0
 10
-104.081
 20
105.987
 11
-104
 21
105.5
  0
LINE
  8
0
 10
-104
 20
105.5
 11
-104.081
 21
105.013
  0
LINE
  8
0
 10
-104.081
 20
105.013
 11
-104.316
 21
104.579
  0
LINE
  8
0
 10
-104.316
 20
104.579
 11
-104.68
 21
104.244
  0
LINE
  8
0
 10
-104.68
 20
104.244
 11
-105.132
 21
104.046
  0
LINE
  8
0
 10
-105.132
 20
104.046
 11
-105.624
 21
104.005
  0
LINE
  8
0
 10
-105.624
 20
104.005
 11
-106.103
 21
104.126
  0
LINE
  8
0
 10
-28
 20
35
 11
-68
 21
75
  0
LINE
  8
0
 10
-68
 20
75
 11
68
 21
75
  0
LINE
  8
0
 10
68
 20
75
 11
28
 21
35
  0
LINE
  8
0
 10
28
 20
35
 11
-28
 21
35
  0
LINE
  8
0
 10
-95.8525
 20
32.6263
 11
-96.2659
 21
32.8964
  0
LINE
  8
0
 10
-96.2659
 20
32.8964
 11
-96.5692
 21
33.2861
  0
LINE
  8
0
 10
-96.5692
 20
33.2861
 11
-96.7295
 21
33.7531
  0
LINE
  8
0
 10
-96.7295
 20
33.7531
 11
-96.7295
 21
34.2469
  0
LINE
  8
0
 10
-96.7295
 20
34.2469
 11
-96.5692
 21
34.7139
  0
LINE
  8
0
 10
-96.5692
 20
34.7139
 11
-96.2659
 21
35.1036
  0
LINE
  8
0
 10
-96.2659
 20
35.1036
 11
-95.8525
 21
35.3737
  0
LINE
  8
0
 10
-95.8525
 20
35.3737
 11
-95.3739
 21
35.4949
  0
LINE
  8
0
 10
-95.3739
 20
35.4949
 11
-94.8818
 21
35.4541
  0
LINE
  8
0
 10
-94.8818
 20
35.4541
 11
-94.4296
 21
35.2557
  0
LINE
  8
0
 10
-94.4296
 20
35.2557
 11
-94.0663
 21
34.9213
  0
LINE
  8
0
 10
-94.0663
 20
34.9213
 11
-93.8313
 21
34.4871
  0
LINE
  8
0
 10
-93.8313
 20
34.4871
 11
-93.75
 21
34
  0
LINE
  8
0
 10
-93.75
 20
34
 11
-93.8313
 21
33.513
  0
LINE
  8
0
 10
-93.8313
 20
33.513
 11
-94.0663
 21
33.0787
  0
LINE
  8
0
 10
-94.0663
 20
33.0787
 11
-94.4296
 21
32.7443
  0
LINE
  8
0
 10
-94.4296
 20
32.7443
 11
-94.8818
 21
32.5459
  0
LINE
  8
0
 10
-94.8818
 20
32.5459
 11
-95.3739
 21
32.5051
  0
LINE
  8
0
 10
-95.3739
 20
32.5051
 11
-95.8525
 21
32.6263
  0
LINE
  8
0
 10
-75.8526
 20
32.6263
 11
-76.2659
 21
32.8964
  0
LINE
  8
0
 10
-76.2659
 20
32.8964
 11
-76.5692
 21
33.2861
  0
LINE
  8
0
 10
-76.5692
 20
33.2861
 11
-76.7296
 21
33.7531
  0
LINE
  8
0
 10
-76.7296
 20
33.7531
 11
-76.7296
 21
34.2469
  0
LINE
  8
0
 10
-76.7296
 20
34.2469
 11
-76.5692
 21
34.7139
  0
LINE
  8
0
 10
-76.5692
 20
34.7139
 11
-76.2659
 21
35.1036
  0
LINE
  8
0
 10
-76.2659
 20
35.1036
 11
-75.8526
 21
35.3737
  0
LINE
  8
0
 10
-75.8526
 20
35.3737
 11
-75.3739
 21
35.4949
  0
LINE
  8
0
 10
-75.3739
 20
35.4949
 11
-74.8818
 21
35.4541
  0
LINE
  8
0
 10
-74.8818
 20
35.4541
 11
-74.4296
 21
35.2557
  0
LINE
  8
0
 10
-74.4296
 20
35.2557
 11
-74.0663
 21
34.9213
  0
LINE
  8
0
 10
-74.0663
 20
34.9213
 11
-73.8313
 21
34.4871
  0
LINE
  8
0
 10
-73.8313
 20
34.4871
 11
-73.75
 21
34
  0
LINE
  8
0
 10
-73.75
 20
34
 11
-73.8313
 21
33.513
  0
LINE
  8
0
 10
-73.8313
 20
33.513
 11
-74.0663
 21
33.0787
  0
LINE
  8
0
 10
-74.0663
 20
33.0787
 11
-74.4296
 21
32.7443
  0
LINE
  8
0
 10
-74.4296
 20
32.7443
 11
-74.8818
 21
32.5459
  0
LINE
  8
0
 10
-74.8818
 20
32.5459
 11
-75.3739
 21
32.5051
  0
LINE
  8
0
 10
-75.3739
 20
32.5051
 11
-75.8526
 21
32.6263
  0
LINE
  8
0
 10
74.6475
 20
32.6263
 11
74.2341
 21
32.8964
  0
LINE
  8
0
 10
74.2341
 20
32.8964
 11
73.9308
 21
33.2861
  0
LINE
  8
0
 10
73.9308
 20
33.2861
 11
73.7705
 21
33.7531
  0
LINE
  8
0
 10
73.7705
 20
33.7531
 11
73.7705
 21
34.2469
  0
LINE
  8
0
 10
73.7705
 20
34.2469
 11
73.9308
 21
34.7139
  0
LINE
  8
0
 10
73.9308
 20
34.7139
 11
74.2341
 21
35.1036
  0
LINE
  8
0
 10
74.2341
 20
35.1036
 11
74.6475
 21
35.3737
  0
LINE
  8
0
 10
74.6475
 20
35.3737
 11
75.1261
 21
35.4949
  0
LINE
  8
0
 10
75.1261
 20
35.4949
 11
75.6182
 21
35.4541
  0
LINE
  8
0
 10
75.6182
 20
35.4541
 11
76.0704
 21
35.2557
  0
LINE
  8
0
 10
76.0704
 20
35.2557
 11
76.4337
 21
34.9213
  0
LINE
  8
0
 10
76.4337
 20
34.9213
 11
76.6687
 21
34.4871
  0
LINE
  8
0
 10
76.6687
 20
34.4871
 11
76.75
 21
34
  0
LINE
  8
0
 10
76.75
 20
34
 11
76.6687
 21
33.513
  0
LINE
  8
0
 10
76.6687
 20
33.513
 11
76.4337
 21
33.0787
  0
LINE
  8
0
 10
76.4337
 20
33.0787
 11
76.0704
 21
32.7443
  0
LINE
  8
0
 10
76.0704
 20
32.7443
 11
75.6182
 21
32.5459
  0
LINE
  8
0
 10
75.6182
 20
32.5459
 11
75.1261
 21
32.5051
  0
LINE
  8
0
 10
75.1261
 20
32.5051
 11
74.6475
 21
32.6263
  0
LINE
  8
0
 10
94.6474
 20
32.6263
 11
94.2341
 21
32.8964
  0
LINE
  8
0
 10
94.2341
 20
32.8964
 11
93.9308
 21
33.2861
  0
LINE
  8
0
 10
93.9308
 20
33.2861
 11
93.7704
 21
33.7531
  0
LINE
  8
0
 10
93.7704
 20
33.7531
 11
93.7704
 21
34.2469
  0
LINE
  8
0
 10
93.7704
 20
34.2469
 11
93.9308
 21
34.7139
  0
LINE
  8
0
 10
93.9308
 20
34.7139
 11
94.2341
 21
35.1036
  0
LINE
  8
0
 10
94.2341
 20
35.1036
 11
94.6474
 21
35.3737
  0
LINE
  8
0
 10
94.6474
 20
35.3737
 11
95.1261
 21
35.4949
  0
LINE
  8
0
 10
95.1261
 20
35.4949
 11
95.6182
 21
35.4541
  0
LINE
  8
0
 10
95.6182
 20
35.4541
 11
96.0704
 21
35.2557
  0
LINE
  8
0
 10
96.0704
 20
35.2557
 11
96.4337
 21
34.9213
  0
LINE
  8
0
 10
96.4337
 20
34.9213
 11
96.6687
 21
34.4871
  0
LINE
  8
0
 10
96.6687
 20
34.4871
 11
96.75
 21
34
  0
LINE
  8
0
 10
96.75
 20
34
 11
96.6687
 21
33.513
  0
LINE
  8
0
 10
96.6687
 20
33.513
 11
96.4337
 21
33.0787
  0
LINE
  8
0
 10
96.4337
 20
33.0787
 11
96.0704
 21
32.7443
  0
LINE
  8
0
 10
96.0704
 20
32.7443
 11
95.6182
 21
32.5459
  0
LINE
  8
0
 10
95.6182
 20
32.5459
 11
95.1261
 21
32.5051
  0
LINE
  8
0
 10
95.1261
 20
32.5051
 11
94.6474
 21
32.6263
  0
LINE
  8
0
 10
40
 20
-30
 11
24
 21
-15
  0
LINE
  8
0
 10
24
 20
-15
 11
24
 21
15
  0
LINE
  8
0
 10
24
 20
15
 11
40
 21
30
  0
LINE
  8
0
 10
40
 20
30
 11
60
 21
30
  0
LINE
  8
0
 10
60
 20
30
 11
76
 21
15
  0
LINE
  8
0
 10
76
 20
15
 11
76
 21
-15
  0
LINE
  8
0
 10
76
 20
-15
 11
60
 21
-30
  0
LINE
  8
0
 10
60
 20
-30
 11
40
 21
-30
  0
LINE
  8
0
 10
-60
 20
-30
 11
-76
 21
-15
  0
LINE
  8
0
 10
-76
 20
-15
 11
-76
 21
15
  0
LINE
  8
0
 10
-76
 20
15
 11
-60
 21
30
  0
LINE
  8
0
 10
-60
 20
30
 11
-40
 21
30
  0
LINE
  8
0
 10
-40
 20
30
 11
-24
 21
15
  0
LINE
  8
0
 10
-24
 20
15
 11
-24
 21
-15
  0
LINE
  8
0
 10
-24
 20
-15
 11
-40
 21
-30
  0
LINE
  8
0
 10
-40
 20
-30
 11
-60
 21
-30
  0
LINE
  8
0
 10
-0.602539
 20
18.6263
 11
-1.01591
 21
18.8964
  0
LINE
  8
0
 10
-1.01591
 20
18.8964
 11
-1.3192
 21
19.2861
  0
LINE
  8
0
 10
-1.3192
 20
19.2861
 11
-1.47954
 21
19.7531
  0
LINE
  8
0
 10
-1.47954
 20
19.7531
 11
-1.47954
 21
20.2469
  0
LINE
  8
0
 10
-1.47954
 20
20.2469
 11
-1.3192
 21
20.7139
  0
LINE
  8
0
 10
-1.3192
 20
20.7139
 11
-1.01591
 21
21.1036
  0
LINE
  8
0
 10
-1.01591
 20
21.1036
 11
-0.602539
 21
21.3737
  0
LINE
  8
0
 10
-0.602539
 20
21.3737
 11
-0.123856
 21
21.4949
  0
LINE
  8
0
 10
-0.123856
 20
21.4949
 11
0.368225
 21
21.4541
  0
LINE
  8
0
 10
0.368225
 20
21.4541
 11
0.820419
 21
21.2557
  0
LINE
  8
0
 10
0.820419
 20
21.2557
 11
1.1837
 21
20.9213
  0
LINE
  8
0
 10
1.1837
 20
20.9213
 11
1.41872
 21
20.487
  0
LINE
  8
0
 10
1.41872
 20
20.487
 11
1.5
 21
20
  0
LINE
  8
0
 10
1.5
 20
20
 11
1.41872
 21
19.5129
  0
LINE
  8
0
 10
1.41872
 20
19.5129
 11
1.1837
 21
19.0787
  0
LINE
  8
0
 10
1.1837
 20
19.0787
 11
0.820419
 21
18.7442
  0
LINE
  8
0
 10
0.820419
 20
18.7442
 11
0.368225
 21
18.5459
  0
LINE
  8
0
 10
0.368225
 20
18.5459
 11
-0.123856
 21
18.5051
  0
LINE
  8
0
 10
-0.123856
 20
18.5051
 11
-0.602539
 21
18.6263
  0
LINE
  8
0
 10
-0.602539
 20
-21.3737
 11
-1.01591
 21
-21.1036
  0
LINE
  8
0
 10
-1.01591
 20
-21.1036
 11
-1.3192
 21
-20.7139
  0
LINE
  8
0
 10
-1.3192
 20
-20.7139
 11
-1.47954
 21
-20.2469
  0
LINE
  8
0
 10
-1.47954
 20
-20.2469
 11
-1.47954
 21
-19.7531
  0
LINE
  8
0
 10
-1.47954
 20
-19.7531
 11
-1.3192
 21
-19.2861
  0
LINE
  8
0
 10
-1.3192
 20
-19.2861
 11
-1.01591
 21
-18.8964
  0
LINE
  8
0
 10
-1.01591
 20
-18.8964
 11
-0.602539
 21
-18.6263
  0
LINE
  8
0
 10
-0.602539
 20
-18.6263
 11
-0.123856
 21
-18.5051
  0
LINE
  8
0
 10
-0.123856
 20
-18.5051
 11
0.368225
 21
-18.5459
  0
LINE
  8
0
 10
0.368225
 20
-18.5459
 11
0.820419
 21
-18.7442
  0
LINE
  8
0
 10
0.820419
 20
-18.7442
 11
1.1837
 21
-19.0787
  0
LINE
  8
0
 10
1.1837
 20
-19.0787
 11
1.41872
 21
-19.5129
  0
LINE
  8
0
 10
1.41872
 20
-19.5129
 11
1.5
 21
-20
  0
LINE
  8
0
 10
1.5
 20
-20
 11
1.41872
 21
-20.487
  0
LINE
  8
0
 10
1.41872
 20
-20.487
 11
1.1837
 21
-20.9213
  0
LINE
  8
0
 10
1.1837
 20
-20.9213
 11
0.820419
 21
-21.2557
  0
LINE
  8
0
 10
0.820419
 20
-21.2557
 11
0.368225
 21
-21.4541
  0
LINE
  8
0
 10
0.368225
 20
-21.4541
 11
-0.123856
 21
-21.4949
  0
LINE
  8
0
 10
-0.123856
 20
-21.4949
 11
-0.602539
 21
-21.3737
  0
LINE
  8
0
 10
94.6474
 20
-36.3737
 11
94.2341
 21
-36.1036
  0
LINE
  8
0
 10
94.2341
 20
-36.1036
 11
93.9308
 21
-35.7139
  0
LINE
  8
0
 10
93.9308
 20
-35.7139
 11
93.7704
 21
-35.2469
  0
LINE
  8
0
 10
93.7704
 20
-35.2469
 11
93.7704
 21
-34.7531
  0
LINE
  8
0
 10
93.7704
 20
-34.7531
 11
93.9308
 21
-34.2861
  0
LINE
  8
0
 10
93.9308
 20
-34.2861
 11
94.2341
 21
-33.8964
  0
LINE
  8
0
 10
94.2341
 20
-33.8964
 11
94.6474
 21
-33.6263
  0
LINE
  8
0
 10
94.6474
 20
-33.6263
 11
95.1261
 21
-33.5051
  0
LINE
  8
0
 10
95.1261
 20
-33.5051
 11
95.6182
 21
-33.5459
  0
LINE
  8
0
 10
95.6182
 20
-33.5459
 11
96.0704
 21
-33.7443
  0
LINE
  8
0
 10
96.0704
 20
-33.7443
 11
96.4337
 21
-34.0787
  0
LINE
  8
0
 10
96.4337
 20
-34.0787
 11
96.6687
 21
-34.5129
  0
LINE
  8
0
 10
96.6687
 20
-34.5129
 11
96.75
 21
-35
  0
LINE
  8
0
 10
96.75
 20
-35
 11
96.6687
 21
-35.487
  0
LINE
  8
0
 10
96.6687
 20
-35.487
 11
96.4337
 21
-35.9213
  0
LINE
  8
0
 10
96.4337
 20
-35.9213
 11
96.0704
 21
-36.2557
  0
LINE
  8
0
 10
96.0704
 20
-36.2557
 11
95.6182
 21
-36.4541
  0
LINE
  8
0
 10
95.6182
 20
-36.4541
 11
95.1261
 21
-36.4949
  0
LINE
  8
0
 10
95.1261
 20
-36.4949
 11
94.6474
 21
-36.3737
  0
LINE
  8
0
 10
74.6475
 20
-36.3737
 11
74.2341
 21
-36.1036
  0
LINE
  8
0
 10
74.2341
 20
-36.1036
 11
73.9308
 21
-35.7139
  0
LINE
  8
0
 10
73.9308
 20
-35.7139
 11
73.7705
 21
-35.2469
  0
LINE
  8
0
 10
73.7705
 20
-35.2469
 11
73.7705
 21
-34.7531
  0
LINE
  8
0
 10
73.7705
 20
-34.7531
 11
73.9308
 21
-34.2861
  0
LINE
  8
0
 10
73.9308
 20
-34.2861
 11
74.2341
 21
-33.8964
  0
LINE
  8
0
 10
74.2341
 20
-33.8964
 11
74.6475
 21
-33.6263
  0
LINE
  8
0
 10
74.6475
 20
-33.6263
 11
75.1261
 21
-33.5051
  0
LINE
  8
0
 10
75.1261
 20
-33.5051
 11
75.6182
 21
-33.5459
  0
LINE
  8
0
 10
75.6182
 20
-33.5459
 11
76.0704
 21
-33.7443
  0
LINE
  8
0
 10
76.0704
 20
-33.7443
 11
76.4337
 21
-34.0787
  0
LINE
  8
0
 10
76.4337
 20
-34.0787
 11
76.6687
 21
-34.5129
  0
LINE
  8
0
 10
76.6687
 20
-34.5129
 11
76.75
 21
-35
  0
LINE
  8
0
 10
76.75
 20
-35
 11
76.6687
 21
-35.487
  0
LINE
  8
0
 10
76.6687
 20
-35.487
 11
76.4337
 21
-35.9213
  0
LINE
  8
0
 10
76.4337
 20
-35.9213
 11
76.0704
 21
-36.2557
  0
LINE
  8
0
 10
76.0704
 20
-36.2557
 11
75.6182
 21
-36.4541
  0
LINE
  8
0
 10
75.6182
 20
-36.4541
 11
75.1261
 21
-36.4949
  0
LINE
  8
0
 10
75.1261
 20
-36.4949
 11
74.6475
 21
-36.3737
  0
LINE
  8
0
 10
-75.8526
 20
-36.3737
 11
-76.2659
 21
-36.1036
  0
LINE
  8
0
 10
-76.2659
 20
-36.1036
 11
-76.5692
 21
-35.7139
  0
LINE
  8
0
 10
-76.5692
 20
-35.7139
 11
-76.7296
 21
-35.2469
  0
LINE
  8
0
 10
-76.7296
 20
-35.2469
 11
-76.7296
 21
-34.7531
  0
LINE
  8
0
 10
-76.7296
 20
-34.7531
 11
-76.5692
 21
-34.2861
  0
LINE
  8
0
 10
-76.5692
 20
-34.2861
 11
-76.2659
 21
-33.8964
  0
LINE
  8
0
 10
-76.2659
 20
-33.8964
 11
-75.8526
 21
-33.6263
  0
LINE
  8
0
 10
-75.8526
 20
-33.6263
 11
-75.3739
 21
-33.5051
  0
LINE
  8
0
 10
-75.3739
 20
-33.5051
 11
-74.8818
 21
-33.5459
  0
LINE
  8
0
 10
-74.8818
 20
-33.5459
 11
-74.4296
 21
-33.7443
  0
LINE
  8
0
 10
-74.4296
 20
-33.7443
 11
-74.0663
 21
-34.0787
  0
LINE
  8
0
 10
-74.0663
 20
-34.0787
 11
-73.8313
 21
-34.5129
  0
LINE
  8
0
 10
-73.8313
 20
-34.5129
 11
-73.75
 21
-35
  0
LINE
  8
0
 10
-73.75
 20
-35
 11
-73.8313
 21
-35.487
  0
LINE
  8
0
 10
-73.8313
 20
-35.487
 11
-74.0663
 21
-35.9213
  0
LINE
  8
0
 10
-74.0663
 20
-35.9213
 11
-74.4296
 21
-36.2557
  0
LINE
  8
0
 10
-74.4296
 20
-36.2557
 11
-74.8818
 21
-36.4541
  0
LINE
  8
0
 10
-74.8818
 20
-36.4541
 11
-75.3739
 21
-36.4949
  0
LINE
  8
0
 10
-75.3739
 20
-36.4949
 11
-75.8526
 21
-36.3737
  0
LINE
  8
0
 10
-95.8525
 20
-36.3737
 11
-96.2659
 21
-36.1036
  0
LINE
  8
0
 10
-96.2659
 20
-36.1036
 11
-96.5692
 21
-35.7139
  0
LINE
  8
0
 10
-96.5692
 20
-35.7139
 11
-96.7295
 21
-35.2469
  0
LINE
  8
0
 10
-96.7295
 20
-35.2469
 11
-96.7295
 21
-34.7531
  0
LINE
  8
0
 10
-96.7295
 20
-34.7531
 11
-96.5692
 21
-34.2861
  0
LINE
  8
0
 10
-96.5692
 20
-34.2861
 11
-96.2659
 21
-33.8964
  0
LINE
  8
0
 10
-96.2659
 20
-33.8964
 11
-95.8525
 21
-33.6263
  0
LINE
  8
0
 10
-95.8525
 20
-33.6263
 11
-95.3739
 21
-33.5051
  0
LINE
  8
0
 10
-95.3739
 20
-33.5051
 11
-94.8818
 21
-33.5459
  0
LINE
  8
0
 10
-94.8818
 20
-33.5459
 11
-94.4296
 21
-33.7443
  0
LINE
  8
0
 10
-94.4296
 20
-33.7443
 11
-94.0663
 21
-34.0787
  0
LINE
  8
0
 10
-94.0663
 20
-34.0787
 11
-93.8313
 21
-34.5129
  0
LINE
  8
0
 10
-93.8313
 20
-34.5129
 11
-93.75
 21
-35
  0
LINE
  8
0
 10
-93.75
 20
-35
 11
-93.8313
 21
-35.487
  0
LINE
  8
0
 10
-93.8313
 20
-35.487
 11
-94.0663
 21
-35.9213
  0
LINE
  8
0
 10
-94.0663
 20
-35.9213
 11
-94.4296
 21
-36.2557
  0
LINE
  8
0
 10
-94.4296
 20
-36.2557
 11
-94.8818
 21
-36.4541
  0
LINE
  8
0
 10
-94.8818
 20
-36.4541
 11
-95.3739
 21
-36.4949
  0
LINE
  8
0
 10
-95.3739
 20
-36.4949
 11
-95.8525
 21
-36.3737
  0
LINE
  8
0
 10
-68
 20
-75
 11
-28
 21
-35
  0
LINE
  8
0
 10
-28
 20
-35
 11
28
 21
-35
  0
LINE
  8
0
 10
28
 20
-35
 11
68
 21
-75
  0
LINE
  8
0
 10
68
 20
-75
 11
-68
 21
-75
  0
LINE
  8
0
 10
104.897
 20
-106.874
 11
104.484
 21
-106.604
  0
LINE
  8
0
 10
104.484
 20
-106.604
 11
104.181
 21
-106.214
  0
LINE
  8
0
 10
104.181
 20
-106.214
 11
104.02
 21
-105.747
  0
LINE
  8
0
 10
104.02
 20
-105.747
 11
104.02
 21
-105.253
  0
LINE
  8
0
 10
104.02
 20
-105.253
 11
104.181
 21
-104.786
  0
LINE
  8
0
 10
104.181
 20
-104.786
 11
104.484
 21
-104.396
  0
LINE
  8
0
 10
104.484
 20
-104.396
 11
104.897
 21
-104.126
  0
LINE
  8
0
 10
104.897
 20
-104.126
 11
105.376
 21
-104.005
  0
LINE
  8
0
 10
105.376
 20
-104.005
 11
105.868
 21
-104.046
  0
LINE
  8
0
 10
105.868
 20
-104.046
 11
106.32
 21
-104.244
  0
LINE
  8
0
 10
106.32
 20
-104.244
 11
106.684
 21
-104.579
  0
LINE
  8
0
 10
106.684
 20
-104.579
 11
106.919
 21
-105.013
  0
LINE
  8
0
 10
106.919
 20
-105.013
 11
107
 21
-105.5
  0
LINE
  8
0
 10
107
 20
-105.5
 11
106.919
 21
-105.987
  0
LINE
  8
0
 10
106.919
 20
-105.987
 11
106.684
 21
-106.421
  0
LINE
  8
0
 10
106.684
 20
-106.421
 11
106.32
 21
-106.756
  0
LINE
  8
0
 10
106.32
 20
-106.756
 11
105.868
 21
-106.954
  0
LINE
  8
0
 10
105.868
 20
-106.954
 11
105.376
 21
-106.995
  0
LINE
  8
0
 10
105.376
 20
-106.995
 11
104.897
 21
-106.874
  0
LINE
  8
0
 10
-106.103
 20
-106.874
 11
-106.516
 21
-106.604
  0
LINE
  8
0
 10
-106.516
 20
-106.604
 11
-106.819
 21
-106.214
  0
LINE
  8
0
 10
-106.819
 20
-106.214
 11
-106.98
 21
-105.747
  0
LINE
  8
0
 10
-106.98
 20
-105.747
 11
-106.98
 21
-105.253
  0
LINE
  8
0
 10
-106.98
 20
-105.253
 11
-106.819
 21
-104.786
  0
LINE
  8
0
 10
-106.819
 20
-104.786
 11
-106.516
 21
-104.396
  0
LINE
  8
0
 10
-106.516
 20
-104.396
 11
-106.103
 21
-104.126
  0
LINE
  8
0
 10
-106.103
 20
-104.126
 11
-105.624
 21
-104.005
  0
LINE
  8
0
 10
-105.624
 20
-104.005
 11
-105.132
 21
-104.046
  0
LINE
  8
0
 10
-105.132
 20
-104.046
 11
-104.68
 21
-104.244
  0
LINE
  8
0
 10
-104.68
 20
-104.244
 11
-104.316
 21
-104.579
  0
LINE
  8
0
 10
-104.316
 20
-104.579
 11
-104.081
 21
-105.013
  0
LINE
  8
0
 10
-104.081
 20
-105.013
 11
-104
 21
-105.5
  0
LINE
  8
0
 10
-104
 20
-105.5
 11
-104.081
 21
-105.987
  0
LINE
  8
0
 10
-104.081
 20
-105.987
 11
-104.316
 21
-106.421
  0
LINE
  8
0
 10
-104.316
 20
-106.421
 11
-104.68
 21
-106.756
  0
LINE
  8
0
 10
-104.68
 20
-106.756
 11
-105.132
 21
-106.954
  0
LINE
  8
0
 10
-105.132
 20
-106.954
 11
-105.624
 21
-106.995
  0
LINE
  8
0
 10
-105.624
 20
-106.995
 11
-106.103
 21
-106.874
  0
ENDSEC
  0
SECTION
  2
OBJECTS
  0
DICTIONARY
  0
ENDSEC
  0
EOF
