solid OpenSCAD_Model
  facet normal 0.980785 0.19509 0
    outer loop
      vertex 21.3 13.2 4
      vertex 20.9194 15.1134 0
      vertex 20.9194 15.1134 4
    endloop
  endfacet
  facet normal 0.980785 0.19509 0
    outer loop
      vertex 20.9194 15.1134 0
      vertex 21.3 13.2 4
      vertex 21.3 13.2 0
    endloop
  endfacet
  facet normal -1 0 0
    outer loop
      vertex 11.3 13.2 0
      vertex 11.3 0 4
      vertex 11.3 13.2 4
    endloop
  endfacet
  facet normal -1 0 0
    outer loop
      vertex 11.3 -10 0
      vertex 11.3 0 4
      vertex 11.3 13.2 0
    endloop
  endfacet
  facet normal -1 0 0
    outer loop
      vertex 11.3 -10 8
      vertex 11.3 0 4
      vertex 11.3 -10 0
    endloop
  endfacet
  facet normal -1 0 0
    outer loop
      vertex 11.3 0 4
      vertex 11.3 -10 8
      vertex 11.3 0 8
    endloop
  endfacet
  facet normal -0.83147 0.55557 0
    outer loop
      vertex 11.6806 15.1134 0
      vertex 12.7645 16.7355 4
      vertex 12.7645 16.7355 0
    endloop
  endfacet
  facet normal -0.83147 0.55557 0
    outer loop
      vertex 12.7645 16.7355 4
      vertex 11.6806 15.1134 0
      vertex 11.6806 15.1134 4
    endloop
  endfacet
  facet normal 0 0 1
    outer loop
      vertex 20.9194 15.1134 4
      vertex 17.5135 14.0817 4
      vertex 17.8 13.2 4
    endloop
  endfacet
  facet normal 0 0 1
    outer loop
      vertex 19.8355 16.7355 4
      vertex 16.7635 14.6266 4
      vertex 17.5135 14.0817 4
    endloop
  endfacet
  facet normal 0 0 1
    outer loop
      vertex 16.3 18.2 4
      vertex 16.7635 14.6266 4
      vertex 18.2134 17.8194 4
    endloop
  endfacet
  facet normal 0 0 1
    outer loop
      vertex 16.3 18.2 4
      vertex 15.8365 14.6266 4
      vertex 16.7635 14.6266 4
    endloop
  endfacet
  facet normal -0 0 1
    outer loop
      vertex 14.3866 17.8194 4
      vertex 15.8365 14.6266 4
      vertex 16.3 18.2 4
    endloop
  endfacet
  facet normal -0 0 1
    outer loop
      vertex 12.7645 16.7355 4
      vertex 15.8365 14.6266 4
      vertex 14.3866 17.8194 4
    endloop
  endfacet
  facet normal 0 0 1
    outer loop
      vertex 15.8365 14.6266 4
      vertex 12.7645 16.7355 4
      vertex 15.0865 14.0817 4
    endloop
  endfacet
  facet normal 0 0 1
    outer loop
      vertex 17.8 13.2 4
      vertex 21.3 13.2 4
      vertex 20.9194 15.1134 4
    endloop
  endfacet
  facet normal 0 0 1
    outer loop
      vertex 17.5135 14.0817 4
      vertex 20.9194 15.1134 4
      vertex 19.8355 16.7355 4
    endloop
  endfacet
  facet normal 0 0 1
    outer loop
      vertex 16.7635 14.6266 4
      vertex 19.8355 16.7355 4
      vertex 18.2134 17.8194 4
    endloop
  endfacet
  facet normal 0 0 1
    outer loop
      vertex 21.3 13.2 4
      vertex 17.8 13.2 4
      vertex 17.5135 12.3183 4
    endloop
  endfacet
  facet normal 0 0 1
    outer loop
      vertex 16.7635 11.7734 4
      vertex 21.3 13.2 4
      vertex 17.5135 12.3183 4
    endloop
  endfacet
  facet normal 0 0 1
    outer loop
      vertex 21.3 13.2 4
      vertex 16.7635 11.7734 4
      vertex 21.3 0 4
    endloop
  endfacet
  facet normal -0 0 1
    outer loop
      vertex 15.8365 11.7734 4
      vertex 21.3 0 4
      vertex 16.7635 11.7734 4
    endloop
  endfacet
  facet normal 0 0 1
    outer loop
      vertex 11.3 13.2 4
      vertex 15.8365 11.7734 4
      vertex 15.0865 12.3183 4
    endloop
  endfacet
  facet normal -0 0 1
    outer loop
      vertex 11.6806 15.1134 4
      vertex 15.0865 14.0817 4
      vertex 12.7645 16.7355 4
    endloop
  endfacet
  facet normal 0 0 1
    outer loop
      vertex 15.0865 14.0817 4
      vertex 11.6806 15.1134 4
      vertex 14.8 13.2 4
    endloop
  endfacet
  facet normal 0 0 1
    outer loop
      vertex 11.3 13.2 4
      vertex 14.8 13.2 4
      vertex 11.6806 15.1134 4
    endloop
  endfacet
  facet normal 0 0 1
    outer loop
      vertex 14.8 13.2 4
      vertex 11.3 13.2 4
      vertex 15.0865 12.3183 4
    endloop
  endfacet
  facet normal 0 0 1
    outer loop
      vertex 15.8365 11.7734 4
      vertex 11.3 13.2 4
      vertex 11.3 0 4
    endloop
  endfacet
  facet normal 0 0 1
    outer loop
      vertex 15.8365 11.7734 4
      vertex 11.3 0 4
      vertex 21.3 0 4
    endloop
  endfacet
  facet normal -0.980785 0.195091 0
    outer loop
      vertex 11.3 13.2 0
      vertex 11.6806 15.1134 4
      vertex 11.6806 15.1134 0
    endloop
  endfacet
  facet normal -0.980785 0.195091 0
    outer loop
      vertex 11.6806 15.1134 4
      vertex 11.3 13.2 0
      vertex 11.3 13.2 4
    endloop
  endfacet
  facet normal 0.195091 0.980785 -0
    outer loop
      vertex 18.2134 17.8194 0
      vertex 16.3 18.2 4
      vertex 18.2134 17.8194 4
    endloop
  endfacet
  facet normal 0.195091 0.980785 0
    outer loop
      vertex 16.3 18.2 4
      vertex 18.2134 17.8194 0
      vertex 16.3 18.2 0
    endloop
  endfacet
  facet normal 0.83147 0.55557 0
    outer loop
      vertex 20.9194 15.1134 4
      vertex 19.8355 16.7355 0
      vertex 19.8355 16.7355 4
    endloop
  endfacet
  facet normal 0.83147 0.55557 0
    outer loop
      vertex 19.8355 16.7355 0
      vertex 20.9194 15.1134 4
      vertex 20.9194 15.1134 0
    endloop
  endfacet
  facet normal 1 -0 0
    outer loop
      vertex 21.3 0 4
      vertex 21.3 13.2 0
      vertex 21.3 13.2 4
    endloop
  endfacet
  facet normal 1 0 0
    outer loop
      vertex 21.3 13.2 0
      vertex 21.3 0 4
      vertex 21.3 0 0
    endloop
  endfacet
  facet normal 0 0 -1
    outer loop
      vertex 37.3 0 0
      vertex 47.3 13.2 0
      vertex 47.3 -10 0
    endloop
  endfacet
  facet normal 0 -0 -1
    outer loop
      vertex 43.8 13.2 0
      vertex 47.3 13.2 0
      vertex 43.5135 12.3183 0
    endloop
  endfacet
  facet normal 0 0 -1
    outer loop
      vertex 47.3 13.2 0
      vertex 43.8 13.2 0
      vertex 46.9194 15.1134 0
    endloop
  endfacet
  facet normal -0 0 -1
    outer loop
      vertex 46.9194 15.1134 0
      vertex 43.5135 14.0817 0
      vertex 45.8355 16.7355 0
    endloop
  endfacet
  facet normal 0 0 -1
    outer loop
      vertex 43.5135 14.0817 0
      vertex 46.9194 15.1134 0
      vertex 43.8 13.2 0
    endloop
  endfacet
  facet normal 0 0 -1
    outer loop
      vertex 47.3 13.2 0
      vertex 42.7635 11.7734 0
      vertex 43.5135 12.3183 0
    endloop
  endfacet
  facet normal 0 0 -1
    outer loop
      vertex 47.3 13.2 0
      vertex 37.3 0 0
      vertex 42.7635 11.7734 0
    endloop
  endfacet
  facet normal -0 0 -1
    outer loop
      vertex 42.7635 11.7734 0
      vertex 37.3 0 0
      vertex 41.8365 11.7734 0
    endloop
  endfacet
  facet normal 0 0 -1
    outer loop
      vertex 37.3 13.2 0
      vertex 41.8365 11.7734 0
      vertex 37.3 0 0
    endloop
  endfacet
  facet normal 0 0 -1
    outer loop
      vertex 41.8365 14.6266 0
      vertex 38.7645 16.7355 0
      vertex 40.3866 17.8194 0
    endloop
  endfacet
  facet normal 0 0 -1
    outer loop
      vertex 41.8365 11.7734 0
      vertex 37.3 13.2 0
      vertex 41.0865 12.3183 0
    endloop
  endfacet
  facet normal 0 -0 -1
    outer loop
      vertex 37.6806 15.1134 0
      vertex 40.8 13.2 0
      vertex 37.3 13.2 0
    endloop
  endfacet
  facet normal 0 0 -1
    outer loop
      vertex 41.0865 12.3183 0
      vertex 37.3 13.2 0
      vertex 40.8 13.2 0
    endloop
  endfacet
  facet normal 0 0 -1
    outer loop
      vertex 32.5817 -1.023 0
      vertex 37.3 0 0
      vertex 47.3 -10 0
    endloop
  endfacet
  facet normal -0 0 -1
    outer loop
      vertex 37.3 0 0
      vertex 32.5817 -1.023 0
      vertex 33.693 0 0
    endloop
  endfacet
  facet normal 0 0 -1
    outer loop
      vertex 47.3 -10 0
      vertex 30.7729 -1.8164 0
      vertex 32.5817 -1.023 0
    endloop
  endfacet
  facet normal 0 0 -1
    outer loop
      vertex 47.3 -10 0
      vertex 28.8045 -1.97951 0
      vertex 30.7729 -1.8164 0
    endloop
  endfacet
  facet normal 0 0 -1
    outer loop
      vertex 11.3 -10 0
      vertex 28.8045 -1.97951 0
      vertex 47.3 -10 0
    endloop
  endfacet
  facet normal 0 0 -1
    outer loop
      vertex 25.2363 -0.414343 0
      vertex 21.3 0 0
      vertex 24.9138 0 0
    endloop
  endfacet
  facet normal 0 0 -1
    outer loop
      vertex 26.8898 -1.49464 0
      vertex 21.3 0 0
      vertex 25.2363 -0.414343 0
    endloop
  endfacet
  facet normal -0 0 -1
    outer loop
      vertex 28.8045 -1.97951 0
      vertex 11.3 -10 0
      vertex 26.8898 -1.49464 0
    endloop
  endfacet
  facet normal 0 0 -1
    outer loop
      vertex 16.7635 11.7734 0
      vertex 21.3 13.2 0
      vertex 21.3 0 0
    endloop
  endfacet
  facet normal 0 -0 -1
    outer loop
      vertex 17.8 13.2 0
      vertex 21.3 13.2 0
      vertex 17.5135 12.3183 0
    endloop
  endfacet
  facet normal 0 0 -1
    outer loop
      vertex 17.5135 14.0817 0
      vertex 20.9194 15.1134 0
      vertex 17.8 13.2 0
    endloop
  endfacet
  facet normal -0 0 -1
    outer loop
      vertex 20.9194 15.1134 0
      vertex 17.5135 14.0817 0
      vertex 19.8355 16.7355 0
    endloop
  endfacet
  facet normal 0 0 -1
    outer loop
      vertex 21.3 13.2 0
      vertex 17.8 13.2 0
      vertex 20.9194 15.1134 0
    endloop
  endfacet
  facet normal 0 0 -1
    outer loop
      vertex 21.3 13.2 0
      vertex 16.7635 11.7734 0
      vertex 17.5135 12.3183 0
    endloop
  endfacet
  facet normal 0 0 -1
    outer loop
      vertex 21.3 0 0
      vertex 15.8365 11.7734 0
      vertex 16.7635 11.7734 0
    endloop
  endfacet
  facet normal 0 0 -1
    outer loop
      vertex 11.3 13.2 0
      vertex 15.8365 11.7734 0
      vertex 21.3 0 0
    endloop
  endfacet
  facet normal 0 0 -1
    outer loop
      vertex 15.8365 14.6266 0
      vertex 12.7645 16.7355 0
      vertex 14.3866 17.8194 0
    endloop
  endfacet
  facet normal 0 0 -1
    outer loop
      vertex 11.3 13.2 0
      vertex 14.8 13.2 0
      vertex 15.0865 12.3183 0
    endloop
  endfacet
  facet normal 0 0 -1
    outer loop
      vertex 15.8365 11.7734 0
      vertex 11.3 13.2 0
      vertex 15.0865 12.3183 0
    endloop
  endfacet
  facet normal 0 0 -1
    outer loop
      vertex 14.8 13.2 0
      vertex 11.3 13.2 0
      vertex 11.6806 15.1134 0
    endloop
  endfacet
  facet normal -0 0 -1
    outer loop
      vertex 26.8898 -1.49464 0
      vertex 11.3 -10 0
      vertex 21.3 0 0
    endloop
  endfacet
  facet normal 0 0 -1
    outer loop
      vertex 11.3 13.2 0
      vertex 21.3 0 0
      vertex 11.3 -10 0
    endloop
  endfacet
  facet normal 0 0 -1
    outer loop
      vertex 15.0865 14.0817 0
      vertex 11.6806 15.1134 0
      vertex 12.7645 16.7355 0
    endloop
  endfacet
  facet normal 0 0 -1
    outer loop
      vertex 42.7635 14.6266 0
      vertex 45.8355 16.7355 0
      vertex 43.5135 14.0817 0
    endloop
  endfacet
  facet normal -0 0 -1
    outer loop
      vertex 45.8355 16.7355 0
      vertex 42.7635 14.6266 0
      vertex 44.2134 17.8194 0
    endloop
  endfacet
  facet normal 0 0 -1
    outer loop
      vertex 42.7635 14.6266 0
      vertex 42.3 18.2 0
      vertex 44.2134 17.8194 0
    endloop
  endfacet
  facet normal 0 0 -1
    outer loop
      vertex 41.8365 14.6266 0
      vertex 42.3 18.2 0
      vertex 42.7635 14.6266 0
    endloop
  endfacet
  facet normal 0 0 -1
    outer loop
      vertex 38.7645 16.7355 0
      vertex 41.8365 14.6266 0
      vertex 41.0865 14.0817 0
    endloop
  endfacet
  facet normal 0 0 -1
    outer loop
      vertex 37.6806 15.1134 0
      vertex 41.0865 14.0817 0
      vertex 40.8 13.2 0
    endloop
  endfacet
  facet normal 0 0 -1
    outer loop
      vertex 41.8365 14.6266 0
      vertex 40.3866 17.8194 0
      vertex 42.3 18.2 0
    endloop
  endfacet
  facet normal 0 0 -1
    outer loop
      vertex 41.0865 14.0817 0
      vertex 37.6806 15.1134 0
      vertex 38.7645 16.7355 0
    endloop
  endfacet
  facet normal 0 0 -1
    outer loop
      vertex 16.7635 14.6266 0
      vertex 19.8355 16.7355 0
      vertex 17.5135 14.0817 0
    endloop
  endfacet
  facet normal -0 0 -1
    outer loop
      vertex 19.8355 16.7355 0
      vertex 16.7635 14.6266 0
      vertex 18.2134 17.8194 0
    endloop
  endfacet
  facet normal 0 0 -1
    outer loop
      vertex 16.7635 14.6266 0
      vertex 16.3 18.2 0
      vertex 18.2134 17.8194 0
    endloop
  endfacet
  facet normal 0 0 -1
    outer loop
      vertex 15.8365 14.6266 0
      vertex 16.3 18.2 0
      vertex 16.7635 14.6266 0
    endloop
  endfacet
  facet normal 0 0 -1
    outer loop
      vertex 12.7645 16.7355 0
      vertex 15.8365 14.6266 0
      vertex 15.0865 14.0817 0
    endloop
  endfacet
  facet normal 0 0 -1
    outer loop
      vertex 11.6806 15.1134 0
      vertex 15.0865 14.0817 0
      vertex 14.8 13.2 0
    endloop
  endfacet
  facet normal 0 0 -1
    outer loop
      vertex 15.8365 14.6266 0
      vertex 14.3866 17.8194 0
      vertex 16.3 18.2 0
    endloop
  endfacet
  facet normal 0.55557 0.83147 -0
    outer loop
      vertex 19.8355 16.7355 0
      vertex 18.2134 17.8194 4
      vertex 19.8355 16.7355 4
    endloop
  endfacet
  facet normal 0.55557 0.83147 0
    outer loop
      vertex 18.2134 17.8194 4
      vertex 19.8355 16.7355 0
      vertex 18.2134 17.8194 0
    endloop
  endfacet
  facet normal -0.55557 0.83147 0
    outer loop
      vertex 14.3866 17.8194 0
      vertex 12.7645 16.7355 4
      vertex 14.3866 17.8194 4
    endloop
  endfacet
  facet normal -0.55557 0.83147 0
    outer loop
      vertex 12.7645 16.7355 4
      vertex 14.3866 17.8194 0
      vertex 12.7645 16.7355 0
    endloop
  endfacet
  facet normal -0.195091 0.980785 0
    outer loop
      vertex 16.3 18.2 0
      vertex 14.3866 17.8194 4
      vertex 16.3 18.2 4
    endloop
  endfacet
  facet normal -0.195091 0.980785 0
    outer loop
      vertex 14.3866 17.8194 4
      vertex 16.3 18.2 0
      vertex 14.3866 17.8194 0
    endloop
  endfacet
  facet normal 0.980785 0.195091 0
    outer loop
      vertex 47.3 13.2 4
      vertex 46.9194 15.1134 0
      vertex 46.9194 15.1134 4
    endloop
  endfacet
  facet normal 0.980785 0.195091 0
    outer loop
      vertex 46.9194 15.1134 0
      vertex 47.3 13.2 4
      vertex 47.3 13.2 0
    endloop
  endfacet
  facet normal -1 0 0
    outer loop
      vertex 37.3 0 0
      vertex 37.3 13.2 4
      vertex 37.3 13.2 0
    endloop
  endfacet
  facet normal -1 -0 0
    outer loop
      vertex 37.3 13.2 4
      vertex 37.3 0 0
      vertex 37.3 0 4
    endloop
  endfacet
  facet normal -0.83147 0.555569 0
    outer loop
      vertex 37.6806 15.1134 0
      vertex 38.7645 16.7355 4
      vertex 38.7645 16.7355 0
    endloop
  endfacet
  facet normal -0.83147 0.555569 0
    outer loop
      vertex 38.7645 16.7355 4
      vertex 37.6806 15.1134 0
      vertex 37.6806 15.1134 4
    endloop
  endfacet
  facet normal 0 0 1
    outer loop
      vertex 46.9194 15.1134 4
      vertex 43.5135 14.0817 4
      vertex 43.8 13.2 4
    endloop
  endfacet
  facet normal 0 0 1
    outer loop
      vertex 45.8355 16.7355 4
      vertex 42.7635 14.6266 4
      vertex 43.5135 14.0817 4
    endloop
  endfacet
  facet normal 0 0 1
    outer loop
      vertex 42.3 18.2 4
      vertex 42.7635 14.6266 4
      vertex 44.2134 17.8194 4
    endloop
  endfacet
  facet normal 0 0 1
    outer loop
      vertex 42.3 18.2 4
      vertex 41.8365 14.6266 4
      vertex 42.7635 14.6266 4
    endloop
  endfacet
  facet normal -0 0 1
    outer loop
      vertex 40.3866 17.8194 4
      vertex 41.8365 14.6266 4
      vertex 42.3 18.2 4
    endloop
  endfacet
  facet normal -0 0 1
    outer loop
      vertex 38.7645 16.7355 4
      vertex 41.8365 14.6266 4
      vertex 40.3866 17.8194 4
    endloop
  endfacet
  facet normal 0 0 1
    outer loop
      vertex 41.8365 14.6266 4
      vertex 38.7645 16.7355 4
      vertex 41.0865 14.0817 4
    endloop
  endfacet
  facet normal 0 0 1
    outer loop
      vertex 43.8 13.2 4
      vertex 47.3 13.2 4
      vertex 46.9194 15.1134 4
    endloop
  endfacet
  facet normal 0 0 1
    outer loop
      vertex 43.5135 14.0817 4
      vertex 46.9194 15.1134 4
      vertex 45.8355 16.7355 4
    endloop
  endfacet
  facet normal 0 0 1
    outer loop
      vertex 42.7635 14.6266 4
      vertex 45.8355 16.7355 4
      vertex 44.2134 17.8194 4
    endloop
  endfacet
  facet normal 0 0 1
    outer loop
      vertex 47.3 13.2 4
      vertex 43.8 13.2 4
      vertex 43.5135 12.3183 4
    endloop
  endfacet
  facet normal 0 0 1
    outer loop
      vertex 42.7635 11.7734 4
      vertex 47.3 13.2 4
      vertex 43.5135 12.3183 4
    endloop
  endfacet
  facet normal 0 0 1
    outer loop
      vertex 47.3 13.2 4
      vertex 42.7635 11.7734 4
      vertex 47.3 0 4
    endloop
  endfacet
  facet normal -0 0 1
    outer loop
      vertex 41.8365 11.7734 4
      vertex 47.3 0 4
      vertex 42.7635 11.7734 4
    endloop
  endfacet
  facet normal 0 0 1
    outer loop
      vertex 37.3 13.2 4
      vertex 41.8365 11.7734 4
      vertex 41.0865 12.3183 4
    endloop
  endfacet
  facet normal -0 0 1
    outer loop
      vertex 37.6806 15.1134 4
      vertex 41.0865 14.0817 4
      vertex 38.7645 16.7355 4
    endloop
  endfacet
  facet normal 0 0 1
    outer loop
      vertex 41.0865 14.0817 4
      vertex 37.6806 15.1134 4
      vertex 40.8 13.2 4
    endloop
  endfacet
  facet normal 0 0 1
    outer loop
      vertex 37.3 13.2 4
      vertex 40.8 13.2 4
      vertex 37.6806 15.1134 4
    endloop
  endfacet
  facet normal 0 0 1
    outer loop
      vertex 40.8 13.2 4
      vertex 37.3 13.2 4
      vertex 41.0865 12.3183 4
    endloop
  endfacet
  facet normal 0 0 1
    outer loop
      vertex 41.8365 11.7734 4
      vertex 37.3 13.2 4
      vertex 37.3 0 4
    endloop
  endfacet
  facet normal 0 0 1
    outer loop
      vertex 41.8365 11.7734 4
      vertex 37.3 0 4
      vertex 47.3 0 4
    endloop
  endfacet
  facet normal -0.980785 0.195091 0
    outer loop
      vertex 37.3 13.2 0
      vertex 37.6806 15.1134 4
      vertex 37.6806 15.1134 0
    endloop
  endfacet
  facet normal -0.980785 0.195091 0
    outer loop
      vertex 37.6806 15.1134 4
      vertex 37.3 13.2 0
      vertex 37.3 13.2 4
    endloop
  endfacet
  facet normal 0.195091 0.980785 -0
    outer loop
      vertex 44.2134 17.8194 0
      vertex 42.3 18.2 4
      vertex 44.2134 17.8194 4
    endloop
  endfacet
  facet normal 0.195091 0.980785 0
    outer loop
      vertex 42.3 18.2 4
      vertex 44.2134 17.8194 0
      vertex 42.3 18.2 0
    endloop
  endfacet
  facet normal 0.83147 0.555569 0
    outer loop
      vertex 46.9194 15.1134 4
      vertex 45.8355 16.7355 0
      vertex 45.8355 16.7355 4
    endloop
  endfacet
  facet normal 0.83147 0.555569 0
    outer loop
      vertex 45.8355 16.7355 0
      vertex 46.9194 15.1134 4
      vertex 46.9194 15.1134 0
    endloop
  endfacet
  facet normal 1 0 0
    outer loop
      vertex 47.3 0 20
      vertex 47.3 -10 20
      vertex 47.3 0 4
    endloop
  endfacet
  facet normal 1 -0 0
    outer loop
      vertex 47.3 0 4
      vertex 47.3 13.2 0
      vertex 47.3 13.2 4
    endloop
  endfacet
  facet normal 1 0 0
    outer loop
      vertex 47.3 0 4
      vertex 47.3 -10 0
      vertex 47.3 13.2 0
    endloop
  endfacet
  facet normal 1 0 0
    outer loop
      vertex 47.3 -10 0
      vertex 47.3 0 4
      vertex 47.3 -10 20
    endloop
  endfacet
  facet normal 0.55557 0.83147 -0
    outer loop
      vertex 45.8355 16.7355 0
      vertex 44.2134 17.8194 4
      vertex 45.8355 16.7355 4
    endloop
  endfacet
  facet normal 0.55557 0.83147 0
    outer loop
      vertex 44.2134 17.8194 4
      vertex 45.8355 16.7355 0
      vertex 44.2134 17.8194 0
    endloop
  endfacet
  facet normal -0.55557 0.83147 0
    outer loop
      vertex 40.3866 17.8194 0
      vertex 38.7645 16.7355 4
      vertex 40.3866 17.8194 4
    endloop
  endfacet
  facet normal -0.55557 0.83147 0
    outer loop
      vertex 38.7645 16.7355 4
      vertex 40.3866 17.8194 0
      vertex 38.7645 16.7355 0
    endloop
  endfacet
  facet normal -0.195091 0.980785 0
    outer loop
      vertex 42.3 18.2 0
      vertex 40.3866 17.8194 4
      vertex 42.3 18.2 4
    endloop
  endfacet
  facet normal -0.195091 0.980785 0
    outer loop
      vertex 40.3866 17.8194 4
      vertex 42.3 18.2 0
      vertex 40.3866 17.8194 0
    endloop
  endfacet
  facet normal -0 0 1
    outer loop
      vertex 33.693 0 20
      vertex 47.3 -10 20
      vertex 47.3 0 20
    endloop
  endfacet
  facet normal -0 0 1
    outer loop
      vertex 32.5817 -1.023 20
      vertex 47.3 -10 20
      vertex 33.693 0 20
    endloop
  endfacet
  facet normal -0 0 1
    outer loop
      vertex 30.7729 -1.8164 20
      vertex 47.3 -10 20
      vertex 32.5817 -1.023 20
    endloop
  endfacet
  facet normal 0 0 1
    outer loop
      vertex 19 -10 20
      vertex 30.7729 -1.8164 20
      vertex 28.8045 -1.97951 20
    endloop
  endfacet
  facet normal 0 0 1
    outer loop
      vertex 19 -10 20
      vertex 28.8045 -1.97951 20
      vertex 26.8898 -1.49464 20
    endloop
  endfacet
  facet normal -0 0 1
    outer loop
      vertex 19 0 20
      vertex 25.2363 -0.414343 20
      vertex 24.9138 0 20
    endloop
  endfacet
  facet normal 0 0 1
    outer loop
      vertex 19 -10 20
      vertex 25.2363 -0.414343 20
      vertex 19 0 20
    endloop
  endfacet
  facet normal 0 0 1
    outer loop
      vertex 25.2363 -0.414343 20
      vertex 19 -10 20
      vertex 26.8898 -1.49464 20
    endloop
  endfacet
  facet normal 0 0 1
    outer loop
      vertex 30.7729 -1.8164 20
      vertex 19 -10 20
      vertex 47.3 -10 20
    endloop
  endfacet
  facet normal 0 1 0
    outer loop
      vertex 47.3 0 20
      vertex 42.15 0 17.75
      vertex 33.693 0 20
    endloop
  endfacet
  facet normal 0 1 0
    outer loop
      vertex 47.3 0 20
      vertex 45.2244 0 15.975
      vertex 42.15 0 17.75
    endloop
  endfacet
  facet normal 0 1 0
    outer loop
      vertex 47.3 0 20
      vertex 45.2244 0 12.425
      vertex 45.2244 0 15.975
    endloop
  endfacet
  facet normal 0 1 0
    outer loop
      vertex 45.2244 0 12.425
      vertex 47.3 0 4
      vertex 42.15 0 10.65
    endloop
  endfacet
  facet normal 0 1 -0
    outer loop
      vertex 47.3 0 4
      vertex 45.2244 0 12.425
      vertex 47.3 0 20
    endloop
  endfacet
  facet normal 0 1 -0
    outer loop
      vertex 39.0756 0 15.975
      vertex 33.693 0 20
      vertex 42.15 0 17.75
    endloop
  endfacet
  facet normal 0 1 -0
    outer loop
      vertex 39.0756 0 12.425
      vertex 33.693 0 20
      vertex 39.0756 0 15.975
    endloop
  endfacet
  facet normal 0 1 0
    outer loop
      vertex 37.3 0 4
      vertex 42.15 0 10.65
      vertex 47.3 0 4
    endloop
  endfacet
  facet normal 0 1 0
    outer loop
      vertex 42.15 0 10.65
      vertex 37.3 0 4
      vertex 39.0756 0 12.425
    endloop
  endfacet
  facet normal 0 1 -0
    outer loop
      vertex 37.3 0 4
      vertex 33.693 0 20
      vertex 39.0756 0 12.425
    endloop
  endfacet
  facet normal 0 1 0
    outer loop
      vertex 33.693 0 0
      vertex 37.3 0 4
      vertex 37.3 0 0
    endloop
  endfacet
  facet normal 0 1 0
    outer loop
      vertex 37.3 0 4
      vertex 33.693 0 0
      vertex 33.693 0 20
    endloop
  endfacet
  facet normal 0 1 0
    outer loop
      vertex 21.3 0 4
      vertex 23.15 0 10.65
      vertex 24.9138 0 11.6683
    endloop
  endfacet
  facet normal 0 1 0
    outer loop
      vertex 11.3 0 4
      vertex 19 0 8
      vertex 21.3 0 4
    endloop
  endfacet
  facet normal 0 1 0
    outer loop
      vertex 23.15 0 10.65
      vertex 21.3 0 4
      vertex 19 0 8
    endloop
  endfacet
  facet normal 0 1 -0
    outer loop
      vertex 24.9138 0 0
      vertex 21.3 0 4
      vertex 24.9138 0 11.6683
    endloop
  endfacet
  facet normal 0 1 0
    outer loop
      vertex 21.3 0 4
      vertex 24.9138 0 0
      vertex 21.3 0 0
    endloop
  endfacet
  facet normal 0 1 0
    outer loop
      vertex 24.9138 0 20
      vertex 23.15 0 17.75
      vertex 19 0 20
    endloop
  endfacet
  facet normal -0 1 0
    outer loop
      vertex 23.15 0 17.75
      vertex 24.9138 0 20
      vertex 24.9138 0 16.7317
    endloop
  endfacet
  facet normal 0 1 -0
    outer loop
      vertex 20.0756 0 15.975
      vertex 19 0 20
      vertex 23.15 0 17.75
    endloop
  endfacet
  facet normal 0 1 -0
    outer loop
      vertex 20.0756 0 12.425
      vertex 19 0 20
      vertex 20.0756 0 15.975
    endloop
  endfacet
  facet normal 0 1 0
    outer loop
      vertex 20.0756 0 12.425
      vertex 19 0 8
      vertex 19 0 20
    endloop
  endfacet
  facet normal 0 1 0
    outer loop
      vertex 19 0 8
      vertex 20.0756 0 12.425
      vertex 23.15 0 10.65
    endloop
  endfacet
  facet normal 0 1 0
    outer loop
      vertex 19 0 8
      vertex 11.3 0 4
      vertex 11.3 0 8
    endloop
  endfacet
  facet normal 0 -1 0
    outer loop
      vertex 11.3 -10 8
      vertex 11.3 -10 0
      vertex 19 -10 8
    endloop
  endfacet
  facet normal 0 -1 0
    outer loop
      vertex 24.3635 -10 15.0817
      vertex 41.6865 -10 15.6266
      vertex 23.6135 -10 15.6266
    endloop
  endfacet
  facet normal 0 -1 0
    outer loop
      vertex 24.3635 -10 15.0817
      vertex 40.9365 -10 15.0817
      vertex 41.6865 -10 15.6266
    endloop
  endfacet
  facet normal 0 -1 0
    outer loop
      vertex 24.65 -10 14.2
      vertex 40.9365 -10 15.0817
      vertex 24.3635 -10 15.0817
    endloop
  endfacet
  facet normal 0 -1 0
    outer loop
      vertex 24.65 -10 14.2
      vertex 40.65 -10 14.2
      vertex 40.9365 -10 15.0817
    endloop
  endfacet
  facet normal 0 -1 0
    outer loop
      vertex 24.3635 -10 13.3183
      vertex 40.65 -10 14.2
      vertex 24.65 -10 14.2
    endloop
  endfacet
  facet normal 0 -1 0
    outer loop
      vertex 24.3635 -10 13.3183
      vertex 40.9365 -10 13.3183
      vertex 40.65 -10 14.2
    endloop
  endfacet
  facet normal 0 -1 0
    outer loop
      vertex 23.6135 -10 12.7734
      vertex 40.9365 -10 13.3183
      vertex 24.3635 -10 13.3183
    endloop
  endfacet
  facet normal 0 -1 -0
    outer loop
      vertex 40.9365 -10 13.3183
      vertex 23.6135 -10 12.7734
      vertex 41.6865 -10 12.7734
    endloop
  endfacet
  facet normal 0 -1 0
    outer loop
      vertex 23.6135 -10 15.6266
      vertex 19 -10 20
      vertex 22.6865 -10 15.6266
    endloop
  endfacet
  facet normal 0 -1 0
    outer loop
      vertex 19 -10 20
      vertex 21.9365 -10 15.0817
      vertex 22.6865 -10 15.6266
    endloop
  endfacet
  facet normal 0 -1 0
    outer loop
      vertex 19 -10 20
      vertex 21.65 -10 14.2
      vertex 21.9365 -10 15.0817
    endloop
  endfacet
  facet normal 0 -1 0
    outer loop
      vertex 19 -10 8
      vertex 21.65 -10 14.2
      vertex 19 -10 20
    endloop
  endfacet
  facet normal 0 -1 0
    outer loop
      vertex 19 -10 8
      vertex 23.6135 -10 12.7734
      vertex 22.6865 -10 12.7734
    endloop
  endfacet
  facet normal 0 -1 0
    outer loop
      vertex 47.3 -10 0
      vertex 23.6135 -10 12.7734
      vertex 19 -10 8
    endloop
  endfacet
  facet normal 0 -1 0
    outer loop
      vertex 23.6135 -10 12.7734
      vertex 47.3 -10 0
      vertex 41.6865 -10 12.7734
    endloop
  endfacet
  facet normal 0 -1 -0
    outer loop
      vertex 21.9365 -10 13.3183
      vertex 19 -10 8
      vertex 22.6865 -10 12.7734
    endloop
  endfacet
  facet normal 0 -1 -0
    outer loop
      vertex 21.65 -10 14.2
      vertex 19 -10 8
      vertex 21.9365 -10 13.3183
    endloop
  endfacet
  facet normal 0 -1 0
    outer loop
      vertex 41.6865 -10 15.6266
      vertex 19 -10 20
      vertex 23.6135 -10 15.6266
    endloop
  endfacet
  facet normal 0 -1 0
    outer loop
      vertex 19 -10 20
      vertex 41.6865 -10 15.6266
      vertex 47.3 -10 20
    endloop
  endfacet
  facet normal 0 -1 0
    outer loop
      vertex 42.6135 -10 15.6266
      vertex 47.3 -10 20
      vertex 41.6865 -10 15.6266
    endloop
  endfacet
  facet normal 0 -1 0
    outer loop
      vertex 43.3635 -10 15.0817
      vertex 47.3 -10 20
      vertex 42.6135 -10 15.6266
    endloop
  endfacet
  facet normal 0 -1 0
    outer loop
      vertex 43.65 -10 14.2
      vertex 47.3 -10 20
      vertex 43.3635 -10 15.0817
    endloop
  endfacet
  facet normal 0 -1 0
    outer loop
      vertex 47.3 -10 0
      vertex 43.65 -10 14.2
      vertex 43.3635 -10 13.3183
    endloop
  endfacet
  facet normal 0 -1 0
    outer loop
      vertex 47.3 -10 0
      vertex 19 -10 8
      vertex 11.3 -10 0
    endloop
  endfacet
  facet normal 0 -1 0
    outer loop
      vertex 43.65 -10 14.2
      vertex 47.3 -10 0
      vertex 47.3 -10 20
    endloop
  endfacet
  facet normal 0 -1 0
    outer loop
      vertex 42.6135 -10 12.7734
      vertex 47.3 -10 0
      vertex 43.3635 -10 13.3183
    endloop
  endfacet
  facet normal 0 -1 0
    outer loop
      vertex 41.6865 -10 12.7734
      vertex 47.3 -10 0
      vertex 42.6135 -10 12.7734
    endloop
  endfacet
  facet normal -0.951057 -0.309017 0
    outer loop
      vertex 17.8 13.2 0
      vertex 17.5135 14.0817 4
      vertex 17.5135 14.0817 0
    endloop
  endfacet
  facet normal -0.951057 -0.309017 0
    outer loop
      vertex 17.5135 14.0817 4
      vertex 17.8 13.2 0
      vertex 17.8 13.2 4
    endloop
  endfacet
  facet normal 0.951056 -0.309018 0
    outer loop
      vertex 14.8 13.2 4
      vertex 15.0865 14.0817 0
      vertex 15.0865 14.0817 4
    endloop
  endfacet
  facet normal 0.951056 -0.309018 0
    outer loop
      vertex 15.0865 14.0817 0
      vertex 14.8 13.2 4
      vertex 14.8 13.2 0
    endloop
  endfacet
  facet normal 0 -1 0
    outer loop
      vertex 15.8365 14.6266 0
      vertex 16.7635 14.6266 4
      vertex 15.8365 14.6266 4
    endloop
  endfacet
  facet normal 0 -1 -0
    outer loop
      vertex 16.7635 14.6266 4
      vertex 15.8365 14.6266 0
      vertex 16.7635 14.6266 0
    endloop
  endfacet
  facet normal -0.587785 -0.809017 0
    outer loop
      vertex 16.7635 14.6266 0
      vertex 17.5135 14.0817 4
      vertex 16.7635 14.6266 4
    endloop
  endfacet
  facet normal -0.587785 -0.809017 -0
    outer loop
      vertex 17.5135 14.0817 4
      vertex 16.7635 14.6266 0
      vertex 17.5135 14.0817 0
    endloop
  endfacet
  facet normal 0.587785 -0.809017 0
    outer loop
      vertex 15.0865 14.0817 0
      vertex 15.8365 14.6266 4
      vertex 15.0865 14.0817 4
    endloop
  endfacet
  facet normal 0.587785 -0.809017 0
    outer loop
      vertex 15.8365 14.6266 4
      vertex 15.0865 14.0817 0
      vertex 15.8365 14.6266 0
    endloop
  endfacet
  facet normal 0.951056 0.309017 0
    outer loop
      vertex 15.0865 12.3183 4
      vertex 14.8 13.2 0
      vertex 14.8 13.2 4
    endloop
  endfacet
  facet normal 0.951056 0.309017 0
    outer loop
      vertex 14.8 13.2 0
      vertex 15.0865 12.3183 4
      vertex 15.0865 12.3183 0
    endloop
  endfacet
  facet normal -0.587785 0.809017 0
    outer loop
      vertex 17.5135 12.3183 0
      vertex 16.7635 11.7734 4
      vertex 17.5135 12.3183 4
    endloop
  endfacet
  facet normal -0.587785 0.809017 0
    outer loop
      vertex 16.7635 11.7734 4
      vertex 17.5135 12.3183 0
      vertex 16.7635 11.7734 0
    endloop
  endfacet
  facet normal 0.587785 0.809017 -0
    outer loop
      vertex 15.8365 11.7734 0
      vertex 15.0865 12.3183 4
      vertex 15.8365 11.7734 4
    endloop
  endfacet
  facet normal 0.587785 0.809017 0
    outer loop
      vertex 15.0865 12.3183 4
      vertex 15.8365 11.7734 0
      vertex 15.0865 12.3183 0
    endloop
  endfacet
  facet normal -0.951057 0.309016 0
    outer loop
      vertex 17.5135 12.3183 0
      vertex 17.8 13.2 4
      vertex 17.8 13.2 0
    endloop
  endfacet
  facet normal -0.951057 0.309016 0
    outer loop
      vertex 17.8 13.2 4
      vertex 17.5135 12.3183 0
      vertex 17.5135 12.3183 4
    endloop
  endfacet
  facet normal 0 1 -0
    outer loop
      vertex 16.7635 11.7734 0
      vertex 15.8365 11.7734 4
      vertex 16.7635 11.7734 4
    endloop
  endfacet
  facet normal 0 1 0
    outer loop
      vertex 15.8365 11.7734 4
      vertex 16.7635 11.7734 0
      vertex 15.8365 11.7734 0
    endloop
  endfacet
  facet normal -0.951057 -0.309015 0
    outer loop
      vertex 43.8 13.2 0
      vertex 43.5135 14.0817 4
      vertex 43.5135 14.0817 0
    endloop
  endfacet
  facet normal -0.951057 -0.309015 0
    outer loop
      vertex 43.5135 14.0817 4
      vertex 43.8 13.2 0
      vertex 43.8 13.2 4
    endloop
  endfacet
  facet normal 0.951056 -0.309019 0
    outer loop
      vertex 40.8 13.2 4
      vertex 41.0865 14.0817 0
      vertex 41.0865 14.0817 4
    endloop
  endfacet
  facet normal 0.951056 -0.309019 0
    outer loop
      vertex 41.0865 14.0817 0
      vertex 40.8 13.2 4
      vertex 40.8 13.2 0
    endloop
  endfacet
  facet normal 0 -1 0
    outer loop
      vertex 41.8365 14.6266 0
      vertex 42.7635 14.6266 4
      vertex 41.8365 14.6266 4
    endloop
  endfacet
  facet normal 0 -1 -0
    outer loop
      vertex 42.7635 14.6266 4
      vertex 41.8365 14.6266 0
      vertex 42.7635 14.6266 0
    endloop
  endfacet
  facet normal -0.587785 -0.809017 0
    outer loop
      vertex 42.7635 14.6266 0
      vertex 43.5135 14.0817 4
      vertex 42.7635 14.6266 4
    endloop
  endfacet
  facet normal -0.587785 -0.809017 -0
    outer loop
      vertex 43.5135 14.0817 4
      vertex 42.7635 14.6266 0
      vertex 43.5135 14.0817 0
    endloop
  endfacet
  facet normal 0.587785 -0.809017 0
    outer loop
      vertex 41.0865 14.0817 0
      vertex 41.8365 14.6266 4
      vertex 41.0865 14.0817 4
    endloop
  endfacet
  facet normal 0.587785 -0.809017 0
    outer loop
      vertex 41.8365 14.6266 4
      vertex 41.0865 14.0817 0
      vertex 41.8365 14.6266 0
    endloop
  endfacet
  facet normal 0.951056 0.309018 0
    outer loop
      vertex 41.0865 12.3183 4
      vertex 40.8 13.2 0
      vertex 40.8 13.2 4
    endloop
  endfacet
  facet normal 0.951056 0.309018 0
    outer loop
      vertex 40.8 13.2 0
      vertex 41.0865 12.3183 4
      vertex 41.0865 12.3183 0
    endloop
  endfacet
  facet normal -0.587785 0.809017 0
    outer loop
      vertex 43.5135 12.3183 0
      vertex 42.7635 11.7734 4
      vertex 43.5135 12.3183 4
    endloop
  endfacet
  facet normal -0.587785 0.809017 0
    outer loop
      vertex 42.7635 11.7734 4
      vertex 43.5135 12.3183 0
      vertex 42.7635 11.7734 0
    endloop
  endfacet
  facet normal 0.587785 0.809017 -0
    outer loop
      vertex 41.8365 11.7734 0
      vertex 41.0865 12.3183 4
      vertex 41.8365 11.7734 4
    endloop
  endfacet
  facet normal 0.587785 0.809017 0
    outer loop
      vertex 41.0865 12.3183 4
      vertex 41.8365 11.7734 0
      vertex 41.0865 12.3183 0
    endloop
  endfacet
  facet normal -0.951057 0.309015 0
    outer loop
      vertex 43.5135 12.3183 0
      vertex 43.8 13.2 4
      vertex 43.8 13.2 0
    endloop
  endfacet
  facet normal -0.951057 0.309015 0
    outer loop
      vertex 43.8 13.2 4
      vertex 43.5135 12.3183 0
      vertex 43.5135 12.3183 4
    endloop
  endfacet
  facet normal 0 1 -0
    outer loop
      vertex 42.7635 11.7734 0
      vertex 41.8365 11.7734 4
      vertex 42.7635 11.7734 4
    endloop
  endfacet
  facet normal 0 1 0
    outer loop
      vertex 41.8365 11.7734 4
      vertex 42.7635 11.7734 0
      vertex 41.8365 11.7734 0
    endloop
  endfacet
  facet normal -0.951057 0 -0.309017
    outer loop
      vertex 24.65 -10 14.2
      vertex 24.3635 -4 15.0817
      vertex 24.65 -4 14.2
    endloop
  endfacet
  facet normal -0.951057 -0 -0.309017
    outer loop
      vertex 24.3635 -4 15.0817
      vertex 24.65 -10 14.2
      vertex 24.3635 -10 15.0817
    endloop
  endfacet
  facet normal -0.587785 0 -0.809017
    outer loop
      vertex 23.6135 -10 15.6266
      vertex 24.3635 -4 15.0817
      vertex 24.3635 -10 15.0817
    endloop
  endfacet
  facet normal -0.587785 0 -0.809017
    outer loop
      vertex 24.3635 -4 15.0817
      vertex 23.6135 -10 15.6266
      vertex 23.6135 -4 15.6266
    endloop
  endfacet
  facet normal 0.951056 0 -0.309019
    outer loop
      vertex 21.9365 -10 15.0817
      vertex 21.65 -4 14.2
      vertex 21.9365 -4 15.0817
    endloop
  endfacet
  facet normal 0.951056 0 -0.309019
    outer loop
      vertex 21.65 -4 14.2
      vertex 21.9365 -10 15.0817
      vertex 21.65 -10 14.2
    endloop
  endfacet
  facet normal 0 0 -1
    outer loop
      vertex 22.6865 -10 15.6266
      vertex 23.6135 -4 15.6266
      vertex 23.6135 -10 15.6266
    endloop
  endfacet
  facet normal -0 0 -1
    outer loop
      vertex 23.6135 -4 15.6266
      vertex 22.6865 -10 15.6266
      vertex 22.6865 -4 15.6266
    endloop
  endfacet
  facet normal -0.587785 0 0.809017
    outer loop
      vertex 23.6135 -4 12.7734
      vertex 24.3635 -10 13.3183
      vertex 24.3635 -4 13.3183
    endloop
  endfacet
  facet normal -0.587785 0 0.809017
    outer loop
      vertex 24.3635 -10 13.3183
      vertex 23.6135 -4 12.7734
      vertex 23.6135 -10 12.7734
    endloop
  endfacet
  facet normal 0.587785 0 -0.809017
    outer loop
      vertex 21.9365 -10 15.0817
      vertex 22.6865 -4 15.6266
      vertex 22.6865 -10 15.6266
    endloop
  endfacet
  facet normal 0.587785 0 -0.809017
    outer loop
      vertex 22.6865 -4 15.6266
      vertex 21.9365 -10 15.0817
      vertex 21.9365 -4 15.0817
    endloop
  endfacet
  facet normal 0.951056 -0 0.309019
    outer loop
      vertex 21.65 -10 14.2
      vertex 21.9365 -4 13.3183
      vertex 21.65 -4 14.2
    endloop
  endfacet
  facet normal 0.951056 0 0.309019
    outer loop
      vertex 21.9365 -4 13.3183
      vertex 21.65 -10 14.2
      vertex 21.9365 -10 13.3183
    endloop
  endfacet
  facet normal -0.951057 0 0.309017
    outer loop
      vertex 24.3635 -10 13.3183
      vertex 24.65 -4 14.2
      vertex 24.3635 -4 13.3183
    endloop
  endfacet
  facet normal -0.951057 0 0.309017
    outer loop
      vertex 24.65 -4 14.2
      vertex 24.3635 -10 13.3183
      vertex 24.65 -10 14.2
    endloop
  endfacet
  facet normal 0.587785 0 0.809017
    outer loop
      vertex 21.9365 -4 13.3183
      vertex 22.6865 -10 12.7734
      vertex 22.6865 -4 12.7734
    endloop
  endfacet
  facet normal 0.587785 0 0.809017
    outer loop
      vertex 22.6865 -10 12.7734
      vertex 21.9365 -4 13.3183
      vertex 21.9365 -10 13.3183
    endloop
  endfacet
  facet normal -0 0 1
    outer loop
      vertex 22.6865 -4 12.7734
      vertex 23.6135 -10 12.7734
      vertex 23.6135 -4 12.7734
    endloop
  endfacet
  facet normal 0 0 1
    outer loop
      vertex 23.6135 -10 12.7734
      vertex 22.6865 -4 12.7734
      vertex 22.6865 -10 12.7734
    endloop
  endfacet
  facet normal -1 0 0
    outer loop
      vertex 26.2244 -4 12.425
      vertex 26.2244 -1.05989 15.975
      vertex 26.2244 -1.05989 12.425
    endloop
  endfacet
  facet normal -1 -0 0
    outer loop
      vertex 26.2244 -1.05989 15.975
      vertex 26.2244 -4 12.425
      vertex 26.2244 -4 15.975
    endloop
  endfacet
  facet normal -0.5 0 -0.866025
    outer loop
      vertex 23.15 -4 17.75
      vertex 26.2244 -1.05989 15.975
      vertex 26.2244 -4 15.975
    endloop
  endfacet
  facet normal -0.5 -5.50798e-07 -0.866026
    outer loop
      vertex 26.2244 -1.05989 15.975
      vertex 23.15 -4 17.75
      vertex 25.2363 -0.414343 16.5455
    endloop
  endfacet
  facet normal -0.5 -0 -0.866025
    outer loop
      vertex 23.15 0 17.75
      vertex 25.2363 -0.414343 16.5455
      vertex 23.15 -4 17.75
    endloop
  endfacet
  facet normal -0.5 2.4062e-06 -0.866025
    outer loop
      vertex 25.2363 -0.414343 16.5455
      vertex 23.15 0 17.75
      vertex 24.9138 0 16.7317
    endloop
  endfacet
  facet normal 0.5 0 -0.866025
    outer loop
      vertex 20.0756 -4 15.975
      vertex 23.15 0 17.75
      vertex 23.15 -4 17.75
    endloop
  endfacet
  facet normal 0.5 0 -0.866025
    outer loop
      vertex 23.15 0 17.75
      vertex 20.0756 -4 15.975
      vertex 20.0756 0 15.975
    endloop
  endfacet
  facet normal 0 1 -0
    outer loop
      vertex 23.6135 -4 15.6266
      vertex 23.15 -4 17.75
      vertex 26.2244 -4 15.975
    endloop
  endfacet
  facet normal 0 1 0
    outer loop
      vertex 22.6865 -4 15.6266
      vertex 23.15 -4 17.75
      vertex 23.6135 -4 15.6266
    endloop
  endfacet
  facet normal 0 1 0
    outer loop
      vertex 26.2244 -4 15.975
      vertex 24.3635 -4 15.0817
      vertex 23.6135 -4 15.6266
    endloop
  endfacet
  facet normal 0 1 0
    outer loop
      vertex 26.2244 -4 15.975
      vertex 24.65 -4 14.2
      vertex 24.3635 -4 15.0817
    endloop
  endfacet
  facet normal 0 1 -0
    outer loop
      vertex 26.2244 -4 12.425
      vertex 24.65 -4 14.2
      vertex 26.2244 -4 15.975
    endloop
  endfacet
  facet normal 0 1 0
    outer loop
      vertex 23.15 -4 10.65
      vertex 23.6135 -4 12.7734
      vertex 26.2244 -4 12.425
    endloop
  endfacet
  facet normal 0 1 0
    outer loop
      vertex 24.3635 -4 13.3183
      vertex 26.2244 -4 12.425
      vertex 23.6135 -4 12.7734
    endloop
  endfacet
  facet normal 0 1 0
    outer loop
      vertex 24.65 -4 14.2
      vertex 26.2244 -4 12.425
      vertex 24.3635 -4 13.3183
    endloop
  endfacet
  facet normal 0 1 0
    outer loop
      vertex 23.15 -4 17.75
      vertex 22.6865 -4 15.6266
      vertex 20.0756 -4 15.975
    endloop
  endfacet
  facet normal 0 1 -0
    outer loop
      vertex 21.9365 -4 15.0817
      vertex 20.0756 -4 15.975
      vertex 22.6865 -4 15.6266
    endloop
  endfacet
  facet normal 0 1 -0
    outer loop
      vertex 21.65 -4 14.2
      vertex 20.0756 -4 15.975
      vertex 21.9365 -4 15.0817
    endloop
  endfacet
  facet normal 0 1 0
    outer loop
      vertex 20.0756 -4 12.425
      vertex 21.65 -4 14.2
      vertex 21.9365 -4 13.3183
    endloop
  endfacet
  facet normal 0 1 0
    outer loop
      vertex 21.65 -4 14.2
      vertex 20.0756 -4 12.425
      vertex 20.0756 -4 15.975
    endloop
  endfacet
  facet normal 0 1 0
    outer loop
      vertex 22.6865 -4 12.7734
      vertex 20.0756 -4 12.425
      vertex 21.9365 -4 13.3183
    endloop
  endfacet
  facet normal 0 1 0
    outer loop
      vertex 23.6135 -4 12.7734
      vertex 23.15 -4 10.65
      vertex 22.6865 -4 12.7734
    endloop
  endfacet
  facet normal 0 1 0
    outer loop
      vertex 22.6865 -4 12.7734
      vertex 23.15 -4 10.65
      vertex 20.0756 -4 12.425
    endloop
  endfacet
  facet normal 1 -0 0
    outer loop
      vertex 20.0756 -4 15.975
      vertex 20.0756 0 12.425
      vertex 20.0756 0 15.975
    endloop
  endfacet
  facet normal 1 0 0
    outer loop
      vertex 20.0756 0 12.425
      vertex 20.0756 -4 15.975
      vertex 20.0756 -4 12.425
    endloop
  endfacet
  facet normal 0.5 0 0.866025
    outer loop
      vertex 20.0756 0 12.425
      vertex 23.15 -4 10.65
      vertex 23.15 0 10.65
    endloop
  endfacet
  facet normal 0.5 0 0.866025
    outer loop
      vertex 23.15 -4 10.65
      vertex 20.0756 0 12.425
      vertex 20.0756 -4 12.425
    endloop
  endfacet
  facet normal -0.5 -3.83904e-07 0.866026
    outer loop
      vertex 23.15 -4 10.65
      vertex 26.2244 -1.05989 12.425
      vertex 25.2363 -0.414343 11.8545
    endloop
  endfacet
  facet normal -0.5 2.77065e-06 0.866026
    outer loop
      vertex 23.15 0 10.65
      vertex 25.2363 -0.414343 11.8545
      vertex 24.9138 0 11.6683
    endloop
  endfacet
  facet normal -0.5 0 0.866025
    outer loop
      vertex 25.2363 -0.414343 11.8545
      vertex 23.15 0 10.65
      vertex 23.15 -4 10.65
    endloop
  endfacet
  facet normal -0.5 0 0.866025
    outer loop
      vertex 26.2244 -1.05989 12.425
      vertex 23.15 -4 10.65
      vertex 26.2244 -4 12.425
    endloop
  endfacet
  facet normal -0.951056 0 -0.309019
    outer loop
      vertex 43.65 -10 14.2
      vertex 43.3635 -4 15.0817
      vertex 43.65 -4 14.2
    endloop
  endfacet
  facet normal -0.951056 -0 -0.309019
    outer loop
      vertex 43.3635 -4 15.0817
      vertex 43.65 -10 14.2
      vertex 43.3635 -10 15.0817
    endloop
  endfacet
  facet normal -0.587785 0 -0.809017
    outer loop
      vertex 42.6135 -10 15.6266
      vertex 43.3635 -4 15.0817
      vertex 43.3635 -10 15.0817
    endloop
  endfacet
  facet normal -0.587785 0 -0.809017
    outer loop
      vertex 43.3635 -4 15.0817
      vertex 42.6135 -10 15.6266
      vertex 42.6135 -4 15.6266
    endloop
  endfacet
  facet normal 0.951057 0 -0.309015
    outer loop
      vertex 40.9365 -10 15.0817
      vertex 40.65 -4 14.2
      vertex 40.9365 -4 15.0817
    endloop
  endfacet
  facet normal 0.951057 0 -0.309015
    outer loop
      vertex 40.65 -4 14.2
      vertex 40.9365 -10 15.0817
      vertex 40.65 -10 14.2
    endloop
  endfacet
  facet normal 0 0 -1
    outer loop
      vertex 41.6865 -10 15.6266
      vertex 42.6135 -4 15.6266
      vertex 42.6135 -10 15.6266
    endloop
  endfacet
  facet normal -0 0 -1
    outer loop
      vertex 42.6135 -4 15.6266
      vertex 41.6865 -10 15.6266
      vertex 41.6865 -4 15.6266
    endloop
  endfacet
  facet normal -0.587785 0 0.809017
    outer loop
      vertex 42.6135 -4 12.7734
      vertex 43.3635 -10 13.3183
      vertex 43.3635 -4 13.3183
    endloop
  endfacet
  facet normal -0.587785 0 0.809017
    outer loop
      vertex 43.3635 -10 13.3183
      vertex 42.6135 -4 12.7734
      vertex 42.6135 -10 12.7734
    endloop
  endfacet
  facet normal 0.587785 0 -0.809017
    outer loop
      vertex 40.9365 -10 15.0817
      vertex 41.6865 -4 15.6266
      vertex 41.6865 -10 15.6266
    endloop
  endfacet
  facet normal 0.587785 0 -0.809017
    outer loop
      vertex 41.6865 -4 15.6266
      vertex 40.9365 -10 15.0817
      vertex 40.9365 -4 15.0817
    endloop
  endfacet
  facet normal 0.951057 -0 0.309015
    outer loop
      vertex 40.65 -10 14.2
      vertex 40.9365 -4 13.3183
      vertex 40.65 -4 14.2
    endloop
  endfacet
  facet normal 0.951057 0 0.309015
    outer loop
      vertex 40.9365 -4 13.3183
      vertex 40.65 -10 14.2
      vertex 40.9365 -10 13.3183
    endloop
  endfacet
  facet normal -0.951056 0 0.309019
    outer loop
      vertex 43.3635 -10 13.3183
      vertex 43.65 -4 14.2
      vertex 43.3635 -4 13.3183
    endloop
  endfacet
  facet normal -0.951056 0 0.309019
    outer loop
      vertex 43.65 -4 14.2
      vertex 43.3635 -10 13.3183
      vertex 43.65 -10 14.2
    endloop
  endfacet
  facet normal 0.587785 0 0.809017
    outer loop
      vertex 40.9365 -4 13.3183
      vertex 41.6865 -10 12.7734
      vertex 41.6865 -4 12.7734
    endloop
  endfacet
  facet normal 0.587785 0 0.809017
    outer loop
      vertex 41.6865 -10 12.7734
      vertex 40.9365 -4 13.3183
      vertex 40.9365 -10 13.3183
    endloop
  endfacet
  facet normal -0 0 1
    outer loop
      vertex 41.6865 -4 12.7734
      vertex 42.6135 -10 12.7734
      vertex 42.6135 -4 12.7734
    endloop
  endfacet
  facet normal 0 0 1
    outer loop
      vertex 42.6135 -10 12.7734
      vertex 41.6865 -4 12.7734
      vertex 41.6865 -10 12.7734
    endloop
  endfacet
  facet normal -1 0 0
    outer loop
      vertex 45.2244 -4 12.425
      vertex 45.2244 0 15.975
      vertex 45.2244 0 12.425
    endloop
  endfacet
  facet normal -1 -0 0
    outer loop
      vertex 45.2244 0 15.975
      vertex 45.2244 -4 12.425
      vertex 45.2244 -4 15.975
    endloop
  endfacet
  facet normal -0.500001 0 -0.866025
    outer loop
      vertex 42.15 -4 17.75
      vertex 45.2244 0 15.975
      vertex 45.2244 -4 15.975
    endloop
  endfacet
  facet normal -0.500001 0 -0.866025
    outer loop
      vertex 45.2244 0 15.975
      vertex 42.15 -4 17.75
      vertex 42.15 0 17.75
    endloop
  endfacet
  facet normal 0.5 0 -0.866025
    outer loop
      vertex 39.0756 -4 15.975
      vertex 42.15 0 17.75
      vertex 42.15 -4 17.75
    endloop
  endfacet
  facet normal 0.5 0 -0.866025
    outer loop
      vertex 42.15 0 17.75
      vertex 39.0756 -4 15.975
      vertex 39.0756 0 15.975
    endloop
  endfacet
  facet normal 0 1 -0
    outer loop
      vertex 42.6135 -4 15.6266
      vertex 42.15 -4 17.75
      vertex 45.2244 -4 15.975
    endloop
  endfacet
  facet normal 0 1 0
    outer loop
      vertex 41.6865 -4 15.6266
      vertex 42.15 -4 17.75
      vertex 42.6135 -4 15.6266
    endloop
  endfacet
  facet normal 0 1 0
    outer loop
      vertex 45.2244 -4 15.975
      vertex 43.3635 -4 15.0817
      vertex 42.6135 -4 15.6266
    endloop
  endfacet
  facet normal 0 1 0
    outer loop
      vertex 45.2244 -4 15.975
      vertex 43.65 -4 14.2
      vertex 43.3635 -4 15.0817
    endloop
  endfacet
  facet normal 0 1 -0
    outer loop
      vertex 45.2244 -4 12.425
      vertex 43.65 -4 14.2
      vertex 45.2244 -4 15.975
    endloop
  endfacet
  facet normal 0 1 0
    outer loop
      vertex 42.15 -4 10.65
      vertex 42.6135 -4 12.7734
      vertex 45.2244 -4 12.425
    endloop
  endfacet
  facet normal 0 1 0
    outer loop
      vertex 43.3635 -4 13.3183
      vertex 45.2244 -4 12.425
      vertex 42.6135 -4 12.7734
    endloop
  endfacet
  facet normal 0 1 0
    outer loop
      vertex 43.65 -4 14.2
      vertex 45.2244 -4 12.425
      vertex 43.3635 -4 13.3183
    endloop
  endfacet
  facet normal 0 1 0
    outer loop
      vertex 42.15 -4 17.75
      vertex 41.6865 -4 15.6266
      vertex 39.0756 -4 15.975
    endloop
  endfacet
  facet normal 0 1 -0
    outer loop
      vertex 40.9365 -4 15.0817
      vertex 39.0756 -4 15.975
      vertex 41.6865 -4 15.6266
    endloop
  endfacet
  facet normal 0 1 -0
    outer loop
      vertex 40.65 -4 14.2
      vertex 39.0756 -4 15.975
      vertex 40.9365 -4 15.0817
    endloop
  endfacet
  facet normal 0 1 0
    outer loop
      vertex 39.0756 -4 12.425
      vertex 40.65 -4 14.2
      vertex 40.9365 -4 13.3183
    endloop
  endfacet
  facet normal 0 1 0
    outer loop
      vertex 40.65 -4 14.2
      vertex 39.0756 -4 12.425
      vertex 39.0756 -4 15.975
    endloop
  endfacet
  facet normal 0 1 0
    outer loop
      vertex 41.6865 -4 12.7734
      vertex 39.0756 -4 12.425
      vertex 40.9365 -4 13.3183
    endloop
  endfacet
  facet normal 0 1 0
    outer loop
      vertex 42.6135 -4 12.7734
      vertex 42.15 -4 10.65
      vertex 41.6865 -4 12.7734
    endloop
  endfacet
  facet normal 0 1 0
    outer loop
      vertex 41.6865 -4 12.7734
      vertex 42.15 -4 10.65
      vertex 39.0756 -4 12.425
    endloop
  endfacet
  facet normal 1 -0 0
    outer loop
      vertex 39.0756 -4 15.975
      vertex 39.0756 0 12.425
      vertex 39.0756 0 15.975
    endloop
  endfacet
  facet normal 1 0 0
    outer loop
      vertex 39.0756 0 12.425
      vertex 39.0756 -4 15.975
      vertex 39.0756 -4 12.425
    endloop
  endfacet
  facet normal 0.5 0 0.866025
    outer loop
      vertex 39.0756 0 12.425
      vertex 42.15 -4 10.65
      vertex 42.15 0 10.65
    endloop
  endfacet
  facet normal 0.5 0 0.866025
    outer loop
      vertex 42.15 -4 10.65
      vertex 39.0756 0 12.425
      vertex 39.0756 -4 12.425
    endloop
  endfacet
  facet normal -0.5 0 0.866025
    outer loop
      vertex 42.15 0 10.65
      vertex 45.2244 -4 12.425
      vertex 45.2244 0 12.425
    endloop
  endfacet
  facet normal -0.5 0 0.866025
    outer loop
      vertex 45.2244 -4 12.425
      vertex 42.15 0 10.65
      vertex 42.15 -4 10.65
    endloop
  endfacet
  facet normal -0.0825792 0.996585 0
    outer loop
      vertex 30.7729 -1.8164 0
      vertex 28.8045 -1.97951 20
      vertex 30.7729 -1.8164 20
    endloop
  endfacet
  facet normal -0.0825792 0.996585 0
    outer loop
      vertex 28.8045 -1.97951 20
      vertex 30.7729 -1.8164 0
      vertex 28.8045 -1.97951 0
    endloop
  endfacet
  facet normal 0.546948 0.837167 0
    outer loop
      vertex 26.8898 -1.49464 20
      vertex 25.2363 -0.414343 16.5455
      vertex 25.2363 -0.414343 20
    endloop
  endfacet
  facet normal 0.546948 0.837167 9.67677e-08
    outer loop
      vertex 26.8898 -1.49464 20
      vertex 26.2244 -1.05989 15.975
      vertex 25.2363 -0.414343 16.5455
    endloop
  endfacet
  facet normal 0.546948 0.837167 0
    outer loop
      vertex 26.8898 -1.49464 20
      vertex 26.2244 -1.05989 12.425
      vertex 26.2244 -1.05989 15.975
    endloop
  endfacet
  facet normal 0.546948 0.837167 -0
    outer loop
      vertex 26.8898 -1.49464 0
      vertex 26.2244 -1.05989 12.425
      vertex 26.8898 -1.49464 20
    endloop
  endfacet
  facet normal 0.546948 0.837167 -3.33095e-08
    outer loop
      vertex 26.8898 -1.49464 0
      vertex 25.2363 -0.414343 11.8545
      vertex 26.2244 -1.05989 12.425
    endloop
  endfacet
  facet normal 0.546948 0.837167 0
    outer loop
      vertex 25.2363 -0.414343 11.8545
      vertex 26.8898 -1.49464 0
      vertex 25.2363 -0.414343 0
    endloop
  endfacet
  facet normal -0.401695 0.915773 0
    outer loop
      vertex 32.5817 -1.023 0
      vertex 30.7729 -1.8164 20
      vertex 32.5817 -1.023 20
    endloop
  endfacet
  facet normal -0.401695 0.915773 0
    outer loop
      vertex 30.7729 -1.8164 20
      vertex 32.5817 -1.023 0
      vertex 30.7729 -1.8164 0
    endloop
  endfacet
  facet normal 0.245486 0.9694 -0
    outer loop
      vertex 28.8045 -1.97951 0
      vertex 26.8898 -1.49464 20
      vertex 28.8045 -1.97951 20
    endloop
  endfacet
  facet normal 0.245486 0.9694 0
    outer loop
      vertex 26.8898 -1.49464 20
      vertex 28.8045 -1.97951 0
      vertex 26.8898 -1.49464 0
    endloop
  endfacet
  facet normal -0.677281 0.735724 0
    outer loop
      vertex 33.693 0 0
      vertex 32.5817 -1.023 20
      vertex 33.693 0 20
    endloop
  endfacet
  facet normal -0.677281 0.735724 0
    outer loop
      vertex 32.5817 -1.023 20
      vertex 33.693 0 0
      vertex 32.5817 -1.023 0
    endloop
  endfacet
  facet normal 0.789142 0.614211 0
    outer loop
      vertex 25.2363 -0.414343 20
      vertex 24.9138 0 16.7317
      vertex 24.9138 0 20
    endloop
  endfacet
  facet normal 0.789142 0.614211 0
    outer loop
      vertex 24.9138 0 16.7317
      vertex 25.2363 -0.414343 20
      vertex 25.2363 -0.414343 16.5455
    endloop
  endfacet
  facet normal 0.789142 0.614211 -0
    outer loop
      vertex 25.2363 -0.414343 0
      vertex 24.9138 0 11.6683
      vertex 25.2363 -0.414343 11.8545
    endloop
  endfacet
  facet normal 0.789142 0.614211 0
    outer loop
      vertex 24.9138 0 11.6683
      vertex 25.2363 -0.414343 0
      vertex 24.9138 0 0
    endloop
  endfacet
  facet normal -1 0 0
    outer loop
      vertex 19 -10 8
      vertex 19 0 20
      vertex 19 0 8
    endloop
  endfacet
  facet normal -1 -0 0
    outer loop
      vertex 19 0 20
      vertex 19 -10 8
      vertex 19 -10 20
    endloop
  endfacet
  facet normal -0 0 1
    outer loop
      vertex 11.3 0 8
      vertex 19 -10 8
      vertex 19 0 8
    endloop
  endfacet
  facet normal 0 0 1
    outer loop
      vertex 19 -10 8
      vertex 11.3 0 8
      vertex 11.3 -10 8
    endloop
  endfacet
endsolid OpenSCAD_Model
