solid OpenSCAD_Model
  facet normal 0.980785 0.19509 0
    outer loop
      vertex 21.3 13.2 4
      vertex 20.9194 15.1134 0
      vertex 20.9194 15.1134 4
    endloop
  endfacet
  facet normal 0.980785 0.19509 0
    outer loop
      vertex 20.9194 15.1134 0
      vertex 21.3 13.2 4
      vertex 21.3 13.2 0
    endloop
  endfacet
  facet normal -1 0 0
    outer loop
      vertex 11.3 13.2 0
      vertex 11.3 0 4
      vertex 11.3 13.2 4
    endloop
  endfacet
  facet normal -1 0 0
    outer loop
      vertex 11.3 -10 0
      vertex 11.3 0 4
      vertex 11.3 13.2 0
    endloop
  endfacet
  facet normal -1 0 0
    outer loop
      vertex 11.3 -10 20
      vertex 11.3 0 4
      vertex 11.3 -10 0
    endloop
  endfacet
  facet normal -1 0 0
    outer loop
      vertex 11.3 0 4
      vertex 11.3 -10 20
      vertex 11.3 0 20
    endloop
  endfacet
  facet normal -0.83147 0.55557 0
    outer loop
      vertex 11.6806 15.1134 0
      vertex 12.7645 16.7355 4
      vertex 12.7645 16.7355 0
    endloop
  endfacet
  facet normal -0.83147 0.55557 0
    outer loop
      vertex 12.7645 16.7355 4
      vertex 11.6806 15.1134 0
      vertex 11.6806 15.1134 4
    endloop
  endfacet
  facet normal 0 0 1
    outer loop
      vertex 20.9194 15.1134 4
      vertex 17.5135 14.0817 4
      vertex 17.8 13.2 4
    endloop
  endfacet
  facet normal 0 0 1
    outer loop
      vertex 19.8355 16.7355 4
      vertex 16.7635 14.6266 4
      vertex 17.5135 14.0817 4
    endloop
  endfacet
  facet normal 0 0 1
    outer loop
      vertex 16.3 18.2 4
      vertex 16.7635 14.6266 4
      vertex 18.2134 17.8194 4
    endloop
  endfacet
  facet normal 0 0 1
    outer loop
      vertex 16.3 18.2 4
      vertex 15.8365 14.6266 4
      vertex 16.7635 14.6266 4
    endloop
  endfacet
  facet normal -0 0 1
    outer loop
      vertex 14.3866 17.8194 4
      vertex 15.8365 14.6266 4
      vertex 16.3 18.2 4
    endloop
  endfacet
  facet normal -0 0 1
    outer loop
      vertex 12.7645 16.7355 4
      vertex 15.8365 14.6266 4
      vertex 14.3866 17.8194 4
    endloop
  endfacet
  facet normal 0 0 1
    outer loop
      vertex 15.8365 14.6266 4
      vertex 12.7645 16.7355 4
      vertex 15.0865 14.0817 4
    endloop
  endfacet
  facet normal 0 0 1
    outer loop
      vertex 17.8 13.2 4
      vertex 21.3 13.2 4
      vertex 20.9194 15.1134 4
    endloop
  endfacet
  facet normal 0 0 1
    outer loop
      vertex 17.5135 14.0817 4
      vertex 20.9194 15.1134 4
      vertex 19.8355 16.7355 4
    endloop
  endfacet
  facet normal 0 0 1
    outer loop
      vertex 16.7635 14.6266 4
      vertex 19.8355 16.7355 4
      vertex 18.2134 17.8194 4
    endloop
  endfacet
  facet normal 0 0 1
    outer loop
      vertex 21.3 13.2 4
      vertex 17.8 13.2 4
      vertex 17.5135 12.3183 4
    endloop
  endfacet
  facet normal 0 0 1
    outer loop
      vertex 16.7635 11.7734 4
      vertex 21.3 13.2 4
      vertex 17.5135 12.3183 4
    endloop
  endfacet
  facet normal 0 0 1
    outer loop
      vertex 21.3 13.2 4
      vertex 16.7635 11.7734 4
      vertex 21.3 0 4
    endloop
  endfacet
  facet normal -0 0 1
    outer loop
      vertex 15.8365 11.7734 4
      vertex 21.3 0 4
      vertex 16.7635 11.7734 4
    endloop
  endfacet
  facet normal 0 0 1
    outer loop
      vertex 11.3 13.2 4
      vertex 15.8365 11.7734 4
      vertex 15.0865 12.3183 4
    endloop
  endfacet
  facet normal -0 0 1
    outer loop
      vertex 11.6806 15.1134 4
      vertex 15.0865 14.0817 4
      vertex 12.7645 16.7355 4
    endloop
  endfacet
  facet normal 0 0 1
    outer loop
      vertex 15.0865 14.0817 4
      vertex 11.6806 15.1134 4
      vertex 14.8 13.2 4
    endloop
  endfacet
  facet normal 0 0 1
    outer loop
      vertex 11.3 13.2 4
      vertex 14.8 13.2 4
      vertex 11.6806 15.1134 4
    endloop
  endfacet
  facet normal 0 0 1
    outer loop
      vertex 14.8 13.2 4
      vertex 11.3 13.2 4
      vertex 15.0865 12.3183 4
    endloop
  endfacet
  facet normal 0 0 1
    outer loop
      vertex 15.8365 11.7734 4
      vertex 11.3 13.2 4
      vertex 11.3 0 4
    endloop
  endfacet
  facet normal 0 0 1
    outer loop
      vertex 15.8365 11.7734 4
      vertex 11.3 0 4
      vertex 21.3 0 4
    endloop
  endfacet
  facet normal -0.980785 0.195091 0
    outer loop
      vertex 11.3 13.2 0
      vertex 11.6806 15.1134 4
      vertex 11.6806 15.1134 0
    endloop
  endfacet
  facet normal -0.980785 0.195091 0
    outer loop
      vertex 11.6806 15.1134 4
      vertex 11.3 13.2 0
      vertex 11.3 13.2 4
    endloop
  endfacet
  facet normal 0.195091 0.980785 -0
    outer loop
      vertex 18.2134 17.8194 0
      vertex 16.3 18.2 4
      vertex 18.2134 17.8194 4
    endloop
  endfacet
  facet normal 0.195091 0.980785 0
    outer loop
      vertex 16.3 18.2 4
      vertex 18.2134 17.8194 0
      vertex 16.3 18.2 0
    endloop
  endfacet
  facet normal 0.83147 0.55557 0
    outer loop
      vertex 20.9194 15.1134 4
      vertex 19.8355 16.7355 0
      vertex 19.8355 16.7355 4
    endloop
  endfacet
  facet normal 0.83147 0.55557 0
    outer loop
      vertex 19.8355 16.7355 0
      vertex 20.9194 15.1134 4
      vertex 20.9194 15.1134 0
    endloop
  endfacet
  facet normal 1 -0 0
    outer loop
      vertex 21.3 0 4
      vertex 21.3 13.2 0
      vertex 21.3 13.2 4
    endloop
  endfacet
  facet normal 1 0 0
    outer loop
      vertex 21.3 13.2 0
      vertex 21.3 0 4
      vertex 21.3 0 0
    endloop
  endfacet
  facet normal 0 0 -1
    outer loop
      vertex 37.3 0 0
      vertex 47.3 13.2 0
      vertex 47.3 -10 0
    endloop
  endfacet
  facet normal 0 -0 -1
    outer loop
      vertex 43.8 13.2 0
      vertex 47.3 13.2 0
      vertex 43.5135 12.3183 0
    endloop
  endfacet
  facet normal 0 0 -1
    outer loop
      vertex 47.3 13.2 0
      vertex 43.8 13.2 0
      vertex 46.9194 15.1134 0
    endloop
  endfacet
  facet normal -0 0 -1
    outer loop
      vertex 46.9194 15.1134 0
      vertex 43.5135 14.0817 0
      vertex 45.8355 16.7355 0
    endloop
  endfacet
  facet normal 0 0 -1
    outer loop
      vertex 43.5135 14.0817 0
      vertex 46.9194 15.1134 0
      vertex 43.8 13.2 0
    endloop
  endfacet
  facet normal 0 0 -1
    outer loop
      vertex 47.3 13.2 0
      vertex 42.7635 11.7734 0
      vertex 43.5135 12.3183 0
    endloop
  endfacet
  facet normal 0 0 -1
    outer loop
      vertex 47.3 13.2 0
      vertex 37.3 0 0
      vertex 42.7635 11.7734 0
    endloop
  endfacet
  facet normal -0 0 -1
    outer loop
      vertex 42.7635 11.7734 0
      vertex 37.3 0 0
      vertex 41.8365 11.7734 0
    endloop
  endfacet
  facet normal 0 0 -1
    outer loop
      vertex 37.3 13.2 0
      vertex 41.8365 11.7734 0
      vertex 37.3 0 0
    endloop
  endfacet
  facet normal 0 0 -1
    outer loop
      vertex 41.8365 14.6266 0
      vertex 38.7645 16.7355 0
      vertex 40.3866 17.8194 0
    endloop
  endfacet
  facet normal 0 0 -1
    outer loop
      vertex 41.8365 11.7734 0
      vertex 37.3 13.2 0
      vertex 41.0865 12.3183 0
    endloop
  endfacet
  facet normal 0 -0 -1
    outer loop
      vertex 37.6806 15.1134 0
      vertex 40.8 13.2 0
      vertex 37.3 13.2 0
    endloop
  endfacet
  facet normal 0 0 -1
    outer loop
      vertex 41.0865 12.3183 0
      vertex 37.3 13.2 0
      vertex 40.8 13.2 0
    endloop
  endfacet
  facet normal 0 0 -1
    outer loop
      vertex 32.5817 -1.023 0
      vertex 37.3 0 0
      vertex 47.3 -10 0
    endloop
  endfacet
  facet normal -0 0 -1
    outer loop
      vertex 37.3 0 0
      vertex 32.5817 -1.023 0
      vertex 33.693 0 0
    endloop
  endfacet
  facet normal 0 0 -1
    outer loop
      vertex 47.3 -10 0
      vertex 30.7729 -1.8164 0
      vertex 32.5817 -1.023 0
    endloop
  endfacet
  facet normal 0 0 -1
    outer loop
      vertex 47.3 -10 0
      vertex 28.8045 -1.97951 0
      vertex 30.7729 -1.8164 0
    endloop
  endfacet
  facet normal 0 0 -1
    outer loop
      vertex 11.3 -10 0
      vertex 28.8045 -1.97951 0
      vertex 47.3 -10 0
    endloop
  endfacet
  facet normal 0 0 -1
    outer loop
      vertex 25.2363 -0.414343 0
      vertex 21.3 0 0
      vertex 24.9138 0 0
    endloop
  endfacet
  facet normal 0 0 -1
    outer loop
      vertex 26.8898 -1.49464 0
      vertex 21.3 0 0
      vertex 25.2363 -0.414343 0
    endloop
  endfacet
  facet normal -0 0 -1
    outer loop
      vertex 28.8045 -1.97951 0
      vertex 11.3 -10 0
      vertex 26.8898 -1.49464 0
    endloop
  endfacet
  facet normal 0 0 -1
    outer loop
      vertex 16.7635 11.7734 0
      vertex 21.3 13.2 0
      vertex 21.3 0 0
    endloop
  endfacet
  facet normal 0 -0 -1
    outer loop
      vertex 17.8 13.2 0
      vertex 21.3 13.2 0
      vertex 17.5135 12.3183 0
    endloop
  endfacet
  facet normal 0 0 -1
    outer loop
      vertex 17.5135 14.0817 0
      vertex 20.9194 15.1134 0
      vertex 17.8 13.2 0
    endloop
  endfacet
  facet normal -0 0 -1
    outer loop
      vertex 20.9194 15.1134 0
      vertex 17.5135 14.0817 0
      vertex 19.8355 16.7355 0
    endloop
  endfacet
  facet normal 0 0 -1
    outer loop
      vertex 21.3 13.2 0
      vertex 17.8 13.2 0
      vertex 20.9194 15.1134 0
    endloop
  endfacet
  facet normal 0 0 -1
    outer loop
      vertex 21.3 13.2 0
      vertex 16.7635 11.7734 0
      vertex 17.5135 12.3183 0
    endloop
  endfacet
  facet normal 0 0 -1
    outer loop
      vertex 21.3 0 0
      vertex 15.8365 11.7734 0
      vertex 16.7635 11.7734 0
    endloop
  endfacet
  facet normal 0 0 -1
    outer loop
      vertex 11.3 13.2 0
      vertex 15.8365 11.7734 0
      vertex 21.3 0 0
    endloop
  endfacet
  facet normal 0 0 -1
    outer loop
      vertex 15.8365 14.6266 0
      vertex 12.7645 16.7355 0
      vertex 14.3866 17.8194 0
    endloop
  endfacet
  facet normal 0 0 -1
    outer loop
      vertex 11.3 13.2 0
      vertex 14.8 13.2 0
      vertex 15.0865 12.3183 0
    endloop
  endfacet
  facet normal 0 0 -1
    outer loop
      vertex 15.8365 11.7734 0
      vertex 11.3 13.2 0
      vertex 15.0865 12.3183 0
    endloop
  endfacet
  facet normal 0 0 -1
    outer loop
      vertex 14.8 13.2 0
      vertex 11.3 13.2 0
      vertex 11.6806 15.1134 0
    endloop
  endfacet
  facet normal -0 0 -1
    outer loop
      vertex 26.8898 -1.49464 0
      vertex 11.3 -10 0
      vertex 21.3 0 0
    endloop
  endfacet
  facet normal 0 0 -1
    outer loop
      vertex 11.3 13.2 0
      vertex 21.3 0 0
      vertex 11.3 -10 0
    endloop
  endfacet
  facet normal 0 0 -1
    outer loop
      vertex 15.0865 14.0817 0
      vertex 11.6806 15.1134 0
      vertex 12.7645 16.7355 0
    endloop
  endfacet
  facet normal 0 0 -1
    outer loop
      vertex 42.7635 14.6266 0
      vertex 45.8355 16.7355 0
      vertex 43.5135 14.0817 0
    endloop
  endfacet
  facet normal -0 0 -1
    outer loop
      vertex 45.8355 16.7355 0
      vertex 42.7635 14.6266 0
      vertex 44.2134 17.8194 0
    endloop
  endfacet
  facet normal 0 0 -1
    outer loop
      vertex 42.7635 14.6266 0
      vertex 42.3 18.2 0
      vertex 44.2134 17.8194 0
    endloop
  endfacet
  facet normal 0 0 -1
    outer loop
      vertex 41.8365 14.6266 0
      vertex 42.3 18.2 0
      vertex 42.7635 14.6266 0
    endloop
  endfacet
  facet normal 0 0 -1
    outer loop
      vertex 38.7645 16.7355 0
      vertex 41.8365 14.6266 0
      vertex 41.0865 14.0817 0
    endloop
  endfacet
  facet normal 0 0 -1
    outer loop
      vertex 37.6806 15.1134 0
      vertex 41.0865 14.0817 0
      vertex 40.8 13.2 0
    endloop
  endfacet
  facet normal 0 0 -1
    outer loop
      vertex 41.8365 14.6266 0
      vertex 40.3866 17.8194 0
      vertex 42.3 18.2 0
    endloop
  endfacet
  facet normal 0 0 -1
    outer loop
      vertex 41.0865 14.0817 0
      vertex 37.6806 15.1134 0
      vertex 38.7645 16.7355 0
    endloop
  endfacet
  facet normal 0 0 -1
    outer loop
      vertex 16.7635 14.6266 0
      vertex 19.8355 16.7355 0
      vertex 17.5135 14.0817 0
    endloop
  endfacet
  facet normal -0 0 -1
    outer loop
      vertex 19.8355 16.7355 0
      vertex 16.7635 14.6266 0
      vertex 18.2134 17.8194 0
    endloop
  endfacet
  facet normal 0 0 -1
    outer loop
      vertex 16.7635 14.6266 0
      vertex 16.3 18.2 0
      vertex 18.2134 17.8194 0
    endloop
  endfacet
  facet normal 0 0 -1
    outer loop
      vertex 15.8365 14.6266 0
      vertex 16.3 18.2 0
      vertex 16.7635 14.6266 0
    endloop
  endfacet
  facet normal 0 0 -1
    outer loop
      vertex 12.7645 16.7355 0
      vertex 15.8365 14.6266 0
      vertex 15.0865 14.0817 0
    endloop
  endfacet
  facet normal 0 0 -1
    outer loop
      vertex 11.6806 15.1134 0
      vertex 15.0865 14.0817 0
      vertex 14.8 13.2 0
    endloop
  endfacet
  facet normal 0 0 -1
    outer loop
      vertex 15.8365 14.6266 0
      vertex 14.3866 17.8194 0
      vertex 16.3 18.2 0
    endloop
  endfacet
  facet normal 0.55557 0.83147 -0
    outer loop
      vertex 19.8355 16.7355 0
      vertex 18.2134 17.8194 4
      vertex 19.8355 16.7355 4
    endloop
  endfacet
  facet normal 0.55557 0.83147 0
    outer loop
      vertex 18.2134 17.8194 4
      vertex 19.8355 16.7355 0
      vertex 18.2134 17.8194 0
    endloop
  endfacet
  facet normal -0.55557 0.83147 0
    outer loop
      vertex 14.3866 17.8194 0
      vertex 12.7645 16.7355 4
      vertex 14.3866 17.8194 4
    endloop
  endfacet
  facet normal -0.55557 0.83147 0
    outer loop
      vertex 12.7645 16.7355 4
      vertex 14.3866 17.8194 0
      vertex 12.7645 16.7355 0
    endloop
  endfacet
  facet normal -0.195091 0.980785 0
    outer loop
      vertex 16.3 18.2 0
      vertex 14.3866 17.8194 4
      vertex 16.3 18.2 4
    endloop
  endfacet
  facet normal -0.195091 0.980785 0
    outer loop
      vertex 14.3866 17.8194 4
      vertex 16.3 18.2 0
      vertex 14.3866 17.8194 0
    endloop
  endfacet
  facet normal 0.980785 0.195091 0
    outer loop
      vertex 47.3 13.2 4
      vertex 46.9194 15.1134 0
      vertex 46.9194 15.1134 4
    endloop
  endfacet
  facet normal 0.980785 0.195091 0
    outer loop
      vertex 46.9194 15.1134 0
      vertex 47.3 13.2 4
      vertex 47.3 13.2 0
    endloop
  endfacet
  facet normal -1 0 0
    outer loop
      vertex 37.3 0 0
      vertex 37.3 13.2 4
      vertex 37.3 13.2 0
    endloop
  endfacet
  facet normal -1 -0 0
    outer loop
      vertex 37.3 13.2 4
      vertex 37.3 0 0
      vertex 37.3 0 4
    endloop
  endfacet
  facet normal -0.83147 0.555569 0
    outer loop
      vertex 37.6806 15.1134 0
      vertex 38.7645 16.7355 4
      vertex 38.7645 16.7355 0
    endloop
  endfacet
  facet normal -0.83147 0.555569 0
    outer loop
      vertex 38.7645 16.7355 4
      vertex 37.6806 15.1134 0
      vertex 37.6806 15.1134 4
    endloop
  endfacet
  facet normal 0 0 1
    outer loop
      vertex 46.9194 15.1134 4
      vertex 43.5135 14.0817 4
      vertex 43.8 13.2 4
    endloop
  endfacet
  facet normal 0 0 1
    outer loop
      vertex 45.8355 16.7355 4
      vertex 42.7635 14.6266 4
      vertex 43.5135 14.0817 4
    endloop
  endfacet
  facet normal 0 0 1
    outer loop
      vertex 42.3 18.2 4
      vertex 42.7635 14.6266 4
      vertex 44.2134 17.8194 4
    endloop
  endfacet
  facet normal 0 0 1
    outer loop
      vertex 42.3 18.2 4
      vertex 41.8365 14.6266 4
      vertex 42.7635 14.6266 4
    endloop
  endfacet
  facet normal -0 0 1
    outer loop
      vertex 40.3866 17.8194 4
      vertex 41.8365 14.6266 4
      vertex 42.3 18.2 4
    endloop
  endfacet
  facet normal -0 0 1
    outer loop
      vertex 38.7645 16.7355 4
      vertex 41.8365 14.6266 4
      vertex 40.3866 17.8194 4
    endloop
  endfacet
  facet normal 0 0 1
    outer loop
      vertex 41.8365 14.6266 4
      vertex 38.7645 16.7355 4
      vertex 41.0865 14.0817 4
    endloop
  endfacet
  facet normal 0 0 1
    outer loop
      vertex 43.8 13.2 4
      vertex 47.3 13.2 4
      vertex 46.9194 15.1134 4
    endloop
  endfacet
  facet normal 0 0 1
    outer loop
      vertex 43.5135 14.0817 4
      vertex 46.9194 15.1134 4
      vertex 45.8355 16.7355 4
    endloop
  endfacet
  facet normal 0 0 1
    outer loop
      vertex 42.7635 14.6266 4
      vertex 45.8355 16.7355 4
      vertex 44.2134 17.8194 4
    endloop
  endfacet
  facet normal 0 0 1
    outer loop
      vertex 47.3 13.2 4
      vertex 43.8 13.2 4
      vertex 43.5135 12.3183 4
    endloop
  endfacet
  facet normal 0 0 1
    outer loop
      vertex 42.7635 11.7734 4
      vertex 47.3 13.2 4
      vertex 43.5135 12.3183 4
    endloop
  endfacet
  facet normal 0 0 1
    outer loop
      vertex 47.3 13.2 4
      vertex 42.7635 11.7734 4
      vertex 47.3 0 4
    endloop
  endfacet
  facet normal -0 0 1
    outer loop
      vertex 41.8365 11.7734 4
      vertex 47.3 0 4
      vertex 42.7635 11.7734 4
    endloop
  endfacet
  facet normal 0 0 1
    outer loop
      vertex 37.3 13.2 4
      vertex 41.8365 11.7734 4
      vertex 41.0865 12.3183 4
    endloop
  endfacet
  facet normal -0 0 1
    outer loop
      vertex 37.6806 15.1134 4
      vertex 41.0865 14.0817 4
      vertex 38.7645 16.7355 4
    endloop
  endfacet
  facet normal 0 0 1
    outer loop
      vertex 41.0865 14.0817 4
      vertex 37.6806 15.1134 4
      vertex 40.8 13.2 4
    endloop
  endfacet
  facet normal 0 0 1
    outer loop
      vertex 37.3 13.2 4
      vertex 40.8 13.2 4
      vertex 37.6806 15.1134 4
    endloop
  endfacet
  facet normal 0 0 1
    outer loop
      vertex 40.8 13.2 4
      vertex 37.3 13.2 4
      vertex 41.0865 12.3183 4
    endloop
  endfacet
  facet normal 0 0 1
    outer loop
      vertex 41.8365 11.7734 4
      vertex 37.3 13.2 4
      vertex 37.3 0 4
    endloop
  endfacet
  facet normal 0 0 1
    outer loop
      vertex 41.8365 11.7734 4
      vertex 37.3 0 4
      vertex 47.3 0 4
    endloop
  endfacet
  facet normal -0.980785 0.195091 0
    outer loop
      vertex 37.3 13.2 0
      vertex 37.6806 15.1134 4
      vertex 37.6806 15.1134 0
    endloop
  endfacet
  facet normal -0.980785 0.195091 0
    outer loop
      vertex 37.6806 15.1134 4
      vertex 37.3 13.2 0
      vertex 37.3 13.2 4
    endloop
  endfacet
  facet normal 0.195091 0.980785 -0
    outer loop
      vertex 44.2134 17.8194 0
      vertex 42.3 18.2 4
      vertex 44.2134 17.8194 4
    endloop
  endfacet
  facet normal 0.195091 0.980785 0
    outer loop
      vertex 42.3 18.2 4
      vertex 44.2134 17.8194 0
      vertex 42.3 18.2 0
    endloop
  endfacet
  facet normal 0.83147 0.555569 0
    outer loop
      vertex 46.9194 15.1134 4
      vertex 45.8355 16.7355 0
      vertex 45.8355 16.7355 4
    endloop
  endfacet
  facet normal 0.83147 0.555569 0
    outer loop
      vertex 45.8355 16.7355 0
      vertex 46.9194 15.1134 4
      vertex 46.9194 15.1134 0
    endloop
  endfacet
  facet normal 1 0 0
    outer loop
      vertex 47.3 0 4.12893
      vertex 47.3 -10 4.12893
      vertex 47.3 0 4
    endloop
  endfacet
  facet normal 1 -0 0
    outer loop
      vertex 47.3 0 4
      vertex 47.3 13.2 0
      vertex 47.3 13.2 4
    endloop
  endfacet
  facet normal 1 0 0
    outer loop
      vertex 47.3 -10 0
      vertex 47.3 0 4
      vertex 47.3 -10 4.12893
    endloop
  endfacet
  facet normal 1 0 0
    outer loop
      vertex 47.3 0 4
      vertex 47.3 -10 0
      vertex 47.3 13.2 0
    endloop
  endfacet
  facet normal 0.55557 0.83147 -0
    outer loop
      vertex 45.8355 16.7355 0
      vertex 44.2134 17.8194 4
      vertex 45.8355 16.7355 4
    endloop
  endfacet
  facet normal 0.55557 0.83147 0
    outer loop
      vertex 44.2134 17.8194 4
      vertex 45.8355 16.7355 0
      vertex 44.2134 17.8194 0
    endloop
  endfacet
  facet normal -0.55557 0.83147 0
    outer loop
      vertex 40.3866 17.8194 0
      vertex 38.7645 16.7355 4
      vertex 40.3866 17.8194 4
    endloop
  endfacet
  facet normal -0.55557 0.83147 0
    outer loop
      vertex 38.7645 16.7355 4
      vertex 40.3866 17.8194 0
      vertex 38.7645 16.7355 0
    endloop
  endfacet
  facet normal -0.195091 0.980785 0
    outer loop
      vertex 42.3 18.2 0
      vertex 40.3866 17.8194 4
      vertex 42.3 18.2 4
    endloop
  endfacet
  facet normal -0.195091 0.980785 0
    outer loop
      vertex 40.3866 17.8194 4
      vertex 42.3 18.2 0
      vertex 40.3866 17.8194 0
    endloop
  endfacet
  facet normal 0 0 1
    outer loop
      vertex 32.5817 -1.023 20
      vertex 36.4 0 20
      vertex 33.693 0 20
    endloop
  endfacet
  facet normal 0 0 1
    outer loop
      vertex 36.4 0 20
      vertex 32.5817 -1.023 20
      vertex 36.4 -10 20
    endloop
  endfacet
  facet normal -0 0 1
    outer loop
      vertex 30.7729 -1.8164 20
      vertex 36.4 -10 20
      vertex 32.5817 -1.023 20
    endloop
  endfacet
  facet normal -0 0 1
    outer loop
      vertex 28.8045 -1.97951 20
      vertex 36.4 -10 20
      vertex 30.7729 -1.8164 20
    endloop
  endfacet
  facet normal 0 0 1
    outer loop
      vertex 26.8898 -1.49464 20
      vertex 36.4 -10 20
      vertex 28.8045 -1.97951 20
    endloop
  endfacet
  facet normal 0 0 1
    outer loop
      vertex 11.3 -10 20
      vertex 26.8898 -1.49464 20
      vertex 25.2363 -0.414343 20
    endloop
  endfacet
  facet normal 0 0 1
    outer loop
      vertex 11.3 -10 20
      vertex 24.9138 0 20
      vertex 11.3 0 20
    endloop
  endfacet
  facet normal 0 0 1
    outer loop
      vertex 24.9138 0 20
      vertex 11.3 -10 20
      vertex 25.2363 -0.414343 20
    endloop
  endfacet
  facet normal 0 0 1
    outer loop
      vertex 26.8898 -1.49464 20
      vertex 11.3 -10 20
      vertex 36.4 -10 20
    endloop
  endfacet
  facet normal 0 -1 0
    outer loop
      vertex 19.6635 -10 14.8817
      vertex 27.6865 -10 15.4266
      vertex 18.9135 -10 15.4266
    endloop
  endfacet
  facet normal 0 -1 0
    outer loop
      vertex 19.6635 -10 14.8817
      vertex 26.9365 -10 14.8817
      vertex 27.6865 -10 15.4266
    endloop
  endfacet
  facet normal 0 -1 0
    outer loop
      vertex 19.8784 -10 14.2204
      vertex 26.9365 -10 14.8817
      vertex 19.6635 -10 14.8817
    endloop
  endfacet
  facet normal 0 -1 0
    outer loop
      vertex 19.8784 -10 14.2204
      vertex 26.7216 -10 14.2204
      vertex 26.9365 -10 14.8817
    endloop
  endfacet
  facet normal 0 -1 0
    outer loop
      vertex 19.95 -10 14
      vertex 26.7216 -10 14.2204
      vertex 19.8784 -10 14.2204
    endloop
  endfacet
  facet normal 0 -1 0
    outer loop
      vertex 19.95 -10 14
      vertex 26.65 -10 14
      vertex 26.7216 -10 14.2204
    endloop
  endfacet
  facet normal 0 -1 0
    outer loop
      vertex 19.7351 -10 13.3387
      vertex 26.65 -10 14
      vertex 19.95 -10 14
    endloop
  endfacet
  facet normal 0 -1 0
    outer loop
      vertex 19.7351 -10 13.3387
      vertex 26.8649 -10 13.3387
      vertex 26.65 -10 14
    endloop
  endfacet
  facet normal 0 -1 0
    outer loop
      vertex 19.6635 -10 13.1183
      vertex 26.8649 -10 13.3387
      vertex 19.7351 -10 13.3387
    endloop
  endfacet
  facet normal 0 -1 0
    outer loop
      vertex 19.6635 -10 13.1183
      vertex 26.9365 -10 13.1183
      vertex 26.8649 -10 13.3387
    endloop
  endfacet
  facet normal 0 -1 0
    outer loop
      vertex 18.9135 -10 12.5734
      vertex 26.9365 -10 13.1183
      vertex 19.6635 -10 13.1183
    endloop
  endfacet
  facet normal 0 -1 -0
    outer loop
      vertex 26.9365 -10 13.1183
      vertex 18.9135 -10 12.5734
      vertex 27.6865 -10 12.5734
    endloop
  endfacet
  facet normal 0 -1 0
    outer loop
      vertex 18.9135 -10 15.4266
      vertex 11.3 -10 20
      vertex 17.9865 -10 15.4266
    endloop
  endfacet
  facet normal 0 -1 0
    outer loop
      vertex 11.3 -10 20
      vertex 17.2365 -10 14.8817
      vertex 17.9865 -10 15.4266
    endloop
  endfacet
  facet normal 0 -1 0
    outer loop
      vertex 11.3 -10 20
      vertex 17.0216 -10 14.2204
      vertex 17.2365 -10 14.8817
    endloop
  endfacet
  facet normal 0 -1 0
    outer loop
      vertex 11.3 -10 20
      vertex 16.95 -10 14
      vertex 17.0216 -10 14.2204
    endloop
  endfacet
  facet normal 0 -1 0
    outer loop
      vertex 11.3 -10 20
      vertex 17.1649 -10 13.3387
      vertex 16.95 -10 14
    endloop
  endfacet
  facet normal 0 -1 0
    outer loop
      vertex 11.3 -10 0
      vertex 17.1649 -10 13.3387
      vertex 11.3 -10 20
    endloop
  endfacet
  facet normal 0 -1 0
    outer loop
      vertex 11.3 -10 0
      vertex 18.9135 -10 12.5734
      vertex 17.9865 -10 12.5734
    endloop
  endfacet
  facet normal 0 -1 -0
    outer loop
      vertex 18.9135 -10 12.5734
      vertex 11.3 -10 0
      vertex 27.6865 -10 12.5734
    endloop
  endfacet
  facet normal 0 -1 -0
    outer loop
      vertex 27.6865 -10 12.5734
      vertex 11.3 -10 0
      vertex 28.6135 -10 12.5734
    endloop
  endfacet
  facet normal 0 -1 -0
    outer loop
      vertex 17.1649 -10 13.3387
      vertex 11.3 -10 0
      vertex 17.2365 -10 13.1183
    endloop
  endfacet
  facet normal 0 -1 0
    outer loop
      vertex 11.3 -10 0
      vertex 17.9865 -10 12.5734
      vertex 17.2365 -10 13.1183
    endloop
  endfacet
  facet normal 0 -1 -0
    outer loop
      vertex 28.6135 -10 12.5734
      vertex 11.3 -10 0
      vertex 47.3 -10 0
    endloop
  endfacet
  facet normal 0 -1 0
    outer loop
      vertex 28.6135 -10 12.5734
      vertex 47.3 -10 0
      vertex 47.3 -10 4.12893
    endloop
  endfacet
  facet normal 0 -1 0
    outer loop
      vertex 27.6865 -10 15.4266
      vertex 11.3 -10 20
      vertex 18.9135 -10 15.4266
    endloop
  endfacet
  facet normal 0 -1 0
    outer loop
      vertex 11.3 -10 20
      vertex 27.6865 -10 15.4266
      vertex 36.4 -10 20
    endloop
  endfacet
  facet normal 0 -1 0
    outer loop
      vertex 28.6135 -10 15.4266
      vertex 36.4 -10 20
      vertex 27.6865 -10 15.4266
    endloop
  endfacet
  facet normal 0 -1 0
    outer loop
      vertex 29.3635 -10 14.8817
      vertex 36.4 -10 20
      vertex 28.6135 -10 15.4266
    endloop
  endfacet
  facet normal -0 -1 0
    outer loop
      vertex 36.3934 -10 15.0355
      vertex 36.4 -10 20
      vertex 29.3635 -10 14.8817
    endloop
  endfacet
  facet normal 0 -1 -0
    outer loop
      vertex 36.4 -10 20
      vertex 36.3934 -10 15.0355
      vertex 36.4 -10 15.0421
    endloop
  endfacet
  facet normal 0 -1 0
    outer loop
      vertex 29.5784 -10 14.2204
      vertex 36.3934 -10 15.0355
      vertex 29.3635 -10 14.8817
    endloop
  endfacet
  facet normal 0 -1 0
    outer loop
      vertex 29.65 -10 14
      vertex 36.3934 -10 15.0355
      vertex 29.5784 -10 14.2204
    endloop
  endfacet
  facet normal -0 -1 0
    outer loop
      vertex 36.4 -10 15
      vertex 36.3934 -10 15.0355
      vertex 29.65 -10 14
    endloop
  endfacet
  facet normal 0 -1 0
    outer loop
      vertex 36.3934 -10 15.0355
      vertex 36.4 -10 15
      vertex 36.4 -10 15.0289
    endloop
  endfacet
  facet normal 0 -1 0
    outer loop
      vertex 29.4351 -10 13.3387
      vertex 36.4 -10 15
      vertex 29.65 -10 14
    endloop
  endfacet
  facet normal 0 -1 0
    outer loop
      vertex 29.3635 -10 13.1183
      vertex 36.4 -10 15
      vertex 29.4351 -10 13.3387
    endloop
  endfacet
  facet normal 0 -1 0
    outer loop
      vertex 28.6135 -10 12.5734
      vertex 36.4 -10 15
      vertex 29.3635 -10 13.1183
    endloop
  endfacet
  facet normal 0 -1 0
    outer loop
      vertex 47.3 -10 4.12893
      vertex 36.4 -10 15
      vertex 28.6135 -10 12.5734
    endloop
  endfacet
  facet normal 0 -1 0
    outer loop
      vertex 36.4 -10 15
      vertex 47.3 -10 4.12893
      vertex 36.4289 -10 15
    endloop
  endfacet
  facet normal 0 1 0
    outer loop
      vertex 24.9138 0 12.5
      vertex 21.3 0 4
      vertex 18.3 0 12.5
    endloop
  endfacet
  facet normal 0 1 -0
    outer loop
      vertex 24.9138 0 0
      vertex 21.3 0 4
      vertex 24.9138 0 12.5
    endloop
  endfacet
  facet normal 0 1 0
    outer loop
      vertex 21.3 0 4
      vertex 24.9138 0 0
      vertex 21.3 0 0
    endloop
  endfacet
  facet normal 0 1 0
    outer loop
      vertex 18.3 0 12.5734
      vertex 18.3 0 12.5
      vertex 17.9865 0 12.5734
    endloop
  endfacet
  facet normal 0 1 0
    outer loop
      vertex 18.3 0 15.5
      vertex 24.9138 0 20
      vertex 24.9138 0 15.5
    endloop
  endfacet
  facet normal 0 1 0
    outer loop
      vertex 24.9138 0 20
      vertex 18.3 0 15.5
      vertex 11.3 0 20
    endloop
  endfacet
  facet normal 0 1 0
    outer loop
      vertex 17.9865 0 15.4266
      vertex 18.3 0 15.5
      vertex 18.3 0 15.4266
    endloop
  endfacet
  facet normal 0 1 0
    outer loop
      vertex 18.3 0 15.5
      vertex 17.9865 0 15.4266
      vertex 11.3 0 20
    endloop
  endfacet
  facet normal 0 1 -0
    outer loop
      vertex 17.2365 0 14.8817
      vertex 11.3 0 20
      vertex 17.9865 0 15.4266
    endloop
  endfacet
  facet normal 0 1 -0
    outer loop
      vertex 17.1649 0 14.6613
      vertex 11.3 0 20
      vertex 17.2365 0 14.8817
    endloop
  endfacet
  facet normal 0 1 -0
    outer loop
      vertex 16.95 0 14
      vertex 11.3 0 20
      vertex 17.1649 0 14.6613
    endloop
  endfacet
  facet normal 0 1 0
    outer loop
      vertex 11.3 0 4
      vertex 16.95 0 14
      vertex 17.0216 0 13.7796
    endloop
  endfacet
  facet normal 0 1 0
    outer loop
      vertex 11.3 0 4
      vertex 17.0216 0 13.7796
      vertex 17.2365 0 13.1183
    endloop
  endfacet
  facet normal 0 1 0
    outer loop
      vertex 21.3 0 4
      vertex 17.9865 0 12.5734
      vertex 18.3 0 12.5
    endloop
  endfacet
  facet normal 0 1 0
    outer loop
      vertex 11.3 0 4
      vertex 17.9865 0 12.5734
      vertex 21.3 0 4
    endloop
  endfacet
  facet normal 0 1 0
    outer loop
      vertex 17.9865 0 12.5734
      vertex 11.3 0 4
      vertex 17.2365 0 13.1183
    endloop
  endfacet
  facet normal 0 1 0
    outer loop
      vertex 16.95 0 14
      vertex 11.3 0 4
      vertex 11.3 0 20
    endloop
  endfacet
  facet normal 0 1 -0
    outer loop
      vertex 37.3 0 4
      vertex 36.4289 0 15
      vertex 47.3 0 4.12893
    endloop
  endfacet
  facet normal 0 1 -0
    outer loop
      vertex 36.4 0 15.0421
      vertex 33.693 0 20
      vertex 36.4 0 20
    endloop
  endfacet
  facet normal 0 1 -0
    outer loop
      vertex 36.3934 0 15.0355
      vertex 33.693 0 20
      vertex 36.4 0 15.0421
    endloop
  endfacet
  facet normal 0 1 -0
    outer loop
      vertex 36.4 0 15
      vertex 36.3934 0 15.0355
      vertex 36.4 0 15.0289
    endloop
  endfacet
  facet normal 0 1 0
    outer loop
      vertex 36.4 0 15
      vertex 33.693 0 20
      vertex 36.3934 0 15.0355
    endloop
  endfacet
  facet normal 0 1 0
    outer loop
      vertex 37.3 0 4
      vertex 47.3 0 4.12893
      vertex 47.3 0 4
    endloop
  endfacet
  facet normal 0 1 0
    outer loop
      vertex 36.4289 0 15
      vertex 37.3 0 4
      vertex 36.4 0 15
    endloop
  endfacet
  facet normal 0 1 0
    outer loop
      vertex 33.693 0 0
      vertex 36.4 0 15
      vertex 37.3 0 4
    endloop
  endfacet
  facet normal 0 1 0
    outer loop
      vertex 33.693 0 0
      vertex 37.3 0 4
      vertex 37.3 0 0
    endloop
  endfacet
  facet normal 0 1 0
    outer loop
      vertex 36.4 0 15
      vertex 33.693 0 0
      vertex 33.693 0 20
    endloop
  endfacet
  facet normal -0.951057 -0.309017 0
    outer loop
      vertex 17.8 13.2 0
      vertex 17.5135 14.0817 4
      vertex 17.5135 14.0817 0
    endloop
  endfacet
  facet normal -0.951057 -0.309017 0
    outer loop
      vertex 17.5135 14.0817 4
      vertex 17.8 13.2 0
      vertex 17.8 13.2 4
    endloop
  endfacet
  facet normal 0.951056 -0.309018 0
    outer loop
      vertex 14.8 13.2 4
      vertex 15.0865 14.0817 0
      vertex 15.0865 14.0817 4
    endloop
  endfacet
  facet normal 0.951056 -0.309018 0
    outer loop
      vertex 15.0865 14.0817 0
      vertex 14.8 13.2 4
      vertex 14.8 13.2 0
    endloop
  endfacet
  facet normal 0 -1 0
    outer loop
      vertex 15.8365 14.6266 0
      vertex 16.7635 14.6266 4
      vertex 15.8365 14.6266 4
    endloop
  endfacet
  facet normal 0 -1 -0
    outer loop
      vertex 16.7635 14.6266 4
      vertex 15.8365 14.6266 0
      vertex 16.7635 14.6266 0
    endloop
  endfacet
  facet normal -0.587785 -0.809017 0
    outer loop
      vertex 16.7635 14.6266 0
      vertex 17.5135 14.0817 4
      vertex 16.7635 14.6266 4
    endloop
  endfacet
  facet normal -0.587785 -0.809017 -0
    outer loop
      vertex 17.5135 14.0817 4
      vertex 16.7635 14.6266 0
      vertex 17.5135 14.0817 0
    endloop
  endfacet
  facet normal 0.587785 -0.809017 0
    outer loop
      vertex 15.0865 14.0817 0
      vertex 15.8365 14.6266 4
      vertex 15.0865 14.0817 4
    endloop
  endfacet
  facet normal 0.587785 -0.809017 0
    outer loop
      vertex 15.8365 14.6266 4
      vertex 15.0865 14.0817 0
      vertex 15.8365 14.6266 0
    endloop
  endfacet
  facet normal 0 1 -0
    outer loop
      vertex 16.7635 11.7734 0
      vertex 15.8365 11.7734 4
      vertex 16.7635 11.7734 4
    endloop
  endfacet
  facet normal 0 1 0
    outer loop
      vertex 15.8365 11.7734 4
      vertex 16.7635 11.7734 0
      vertex 15.8365 11.7734 0
    endloop
  endfacet
  facet normal -0.951057 0.309016 0
    outer loop
      vertex 17.5135 12.3183 0
      vertex 17.8 13.2 4
      vertex 17.8 13.2 0
    endloop
  endfacet
  facet normal -0.951057 0.309016 0
    outer loop
      vertex 17.8 13.2 4
      vertex 17.5135 12.3183 0
      vertex 17.5135 12.3183 4
    endloop
  endfacet
  facet normal -0.587785 0.809017 0
    outer loop
      vertex 17.5135 12.3183 0
      vertex 16.7635 11.7734 4
      vertex 17.5135 12.3183 4
    endloop
  endfacet
  facet normal -0.587785 0.809017 0
    outer loop
      vertex 16.7635 11.7734 4
      vertex 17.5135 12.3183 0
      vertex 16.7635 11.7734 0
    endloop
  endfacet
  facet normal 0.587785 0.809017 -0
    outer loop
      vertex 15.8365 11.7734 0
      vertex 15.0865 12.3183 4
      vertex 15.8365 11.7734 4
    endloop
  endfacet
  facet normal 0.587785 0.809017 0
    outer loop
      vertex 15.0865 12.3183 4
      vertex 15.8365 11.7734 0
      vertex 15.0865 12.3183 0
    endloop
  endfacet
  facet normal 0.951056 0.309017 0
    outer loop
      vertex 15.0865 12.3183 4
      vertex 14.8 13.2 0
      vertex 14.8 13.2 4
    endloop
  endfacet
  facet normal 0.951056 0.309017 0
    outer loop
      vertex 14.8 13.2 0
      vertex 15.0865 12.3183 4
      vertex 15.0865 12.3183 0
    endloop
  endfacet
  facet normal -0.951057 -0.309015 0
    outer loop
      vertex 43.8 13.2 0
      vertex 43.5135 14.0817 4
      vertex 43.5135 14.0817 0
    endloop
  endfacet
  facet normal -0.951057 -0.309015 0
    outer loop
      vertex 43.5135 14.0817 4
      vertex 43.8 13.2 0
      vertex 43.8 13.2 4
    endloop
  endfacet
  facet normal 0.951056 -0.309019 0
    outer loop
      vertex 40.8 13.2 4
      vertex 41.0865 14.0817 0
      vertex 41.0865 14.0817 4
    endloop
  endfacet
  facet normal 0.951056 -0.309019 0
    outer loop
      vertex 41.0865 14.0817 0
      vertex 40.8 13.2 4
      vertex 40.8 13.2 0
    endloop
  endfacet
  facet normal 0 -1 0
    outer loop
      vertex 41.8365 14.6266 0
      vertex 42.7635 14.6266 4
      vertex 41.8365 14.6266 4
    endloop
  endfacet
  facet normal 0 -1 -0
    outer loop
      vertex 42.7635 14.6266 4
      vertex 41.8365 14.6266 0
      vertex 42.7635 14.6266 0
    endloop
  endfacet
  facet normal -0.587785 -0.809017 0
    outer loop
      vertex 42.7635 14.6266 0
      vertex 43.5135 14.0817 4
      vertex 42.7635 14.6266 4
    endloop
  endfacet
  facet normal -0.587785 -0.809017 -0
    outer loop
      vertex 43.5135 14.0817 4
      vertex 42.7635 14.6266 0
      vertex 43.5135 14.0817 0
    endloop
  endfacet
  facet normal 0.587785 -0.809017 0
    outer loop
      vertex 41.0865 14.0817 0
      vertex 41.8365 14.6266 4
      vertex 41.0865 14.0817 4
    endloop
  endfacet
  facet normal 0.587785 -0.809017 0
    outer loop
      vertex 41.8365 14.6266 4
      vertex 41.0865 14.0817 0
      vertex 41.8365 14.6266 0
    endloop
  endfacet
  facet normal 0 1 -0
    outer loop
      vertex 42.7635 11.7734 0
      vertex 41.8365 11.7734 4
      vertex 42.7635 11.7734 4
    endloop
  endfacet
  facet normal 0 1 0
    outer loop
      vertex 41.8365 11.7734 4
      vertex 42.7635 11.7734 0
      vertex 41.8365 11.7734 0
    endloop
  endfacet
  facet normal -0.951057 0.309015 0
    outer loop
      vertex 43.5135 12.3183 0
      vertex 43.8 13.2 4
      vertex 43.8 13.2 0
    endloop
  endfacet
  facet normal -0.951057 0.309015 0
    outer loop
      vertex 43.8 13.2 4
      vertex 43.5135 12.3183 0
      vertex 43.5135 12.3183 4
    endloop
  endfacet
  facet normal -0.587785 0.809017 0
    outer loop
      vertex 43.5135 12.3183 0
      vertex 42.7635 11.7734 4
      vertex 43.5135 12.3183 4
    endloop
  endfacet
  facet normal -0.587785 0.809017 0
    outer loop
      vertex 42.7635 11.7734 4
      vertex 43.5135 12.3183 0
      vertex 42.7635 11.7734 0
    endloop
  endfacet
  facet normal 0.587785 0.809017 -0
    outer loop
      vertex 41.8365 11.7734 0
      vertex 41.0865 12.3183 4
      vertex 41.8365 11.7734 4
    endloop
  endfacet
  facet normal 0.587785 0.809017 0
    outer loop
      vertex 41.0865 12.3183 4
      vertex 41.8365 11.7734 0
      vertex 41.0865 12.3183 0
    endloop
  endfacet
  facet normal 0.951056 0.309018 0
    outer loop
      vertex 41.0865 12.3183 4
      vertex 40.8 13.2 0
      vertex 40.8 13.2 4
    endloop
  endfacet
  facet normal 0.951056 0.309018 0
    outer loop
      vertex 40.8 13.2 0
      vertex 41.0865 12.3183 4
      vertex 41.0865 12.3183 0
    endloop
  endfacet
  facet normal -0.951056 8.71373e-08 -0.309018
    outer loop
      vertex 19.6635 -10 14.8817
      vertex 19.7566 -1.5 14.5951
      vertex 19.8784 -10 14.2204
    endloop
  endfacet
  facet normal -0.951055 0 -0.309021
    outer loop
      vertex 19.7566 -1.5 14.5951
      vertex 19.6635 -10 14.8817
      vertex 19.6635 -1.5 14.8817
    endloop
  endfacet
  facet normal -0.587785 0 -0.809017
    outer loop
      vertex 18.9135 -10 15.4266
      vertex 19.6635 -1.5 14.8817
      vertex 19.6635 -10 14.8817
    endloop
  endfacet
  facet normal -0.587785 0 -0.809017
    outer loop
      vertex 19.6635 -1.5 14.8817
      vertex 18.9135 -10 15.4266
      vertex 18.9135 -1.5 15.4266
    endloop
  endfacet
  facet normal -0.951056 -3.4671e-08 -0.309019
    outer loop
      vertex 19.8784 -10 14.2204
      vertex 19.95 -1.5 14
      vertex 19.95 -10 14
    endloop
  endfacet
  facet normal -0.951056 2.49965e-08 -0.309017
    outer loop
      vertex 19.95 -1.5 14
      vertex 19.8784 -10 14.2204
      vertex 19.7566 -1.5 14.5951
    endloop
  endfacet
  facet normal 0.951057 1.4058e-07 0.309016
    outer loop
      vertex 17.1649 -10 13.3387
      vertex 17.2365 0 13.1183
      vertex 17.0216 0 13.7796
    endloop
  endfacet
  facet normal 0.951059 0 0.309011
    outer loop
      vertex 17.2365 0 13.1183
      vertex 17.1649 -10 13.3387
      vertex 17.2365 -10 13.1183
    endloop
  endfacet
  facet normal 0.951057 -1.20933e-07 -0.309016
    outer loop
      vertex 17.0216 -10 14.2204
      vertex 16.95 0 14
      vertex 17.1649 0 14.6613
    endloop
  endfacet
  facet normal 0.951058 -2.94697e-08 -0.309012
    outer loop
      vertex 16.95 0 14
      vertex 17.0216 -10 14.2204
      vertex 16.95 -10 14
    endloop
  endfacet
  facet normal 0.951059 2.94695e-08 0.309011
    outer loop
      vertex 16.95 -10 14
      vertex 17.0216 0 13.7796
      vertex 16.95 0 14
    endloop
  endfacet
  facet normal 0.951057 1.60227e-07 0.309016
    outer loop
      vertex 17.0216 0 13.7796
      vertex 16.95 -10 14
      vertex 17.1649 -10 13.3387
    endloop
  endfacet
  facet normal -0.587785 0 0.809017
    outer loop
      vertex 18.9135 -1.5 12.5734
      vertex 19.6635 -10 13.1183
      vertex 19.6635 -1.5 13.1183
    endloop
  endfacet
  facet normal -0.587785 0 0.809017
    outer loop
      vertex 19.6635 -10 13.1183
      vertex 18.9135 -1.5 12.5734
      vertex 18.9135 -10 12.5734
    endloop
  endfacet
  facet normal 0.951058 0 -0.309012
    outer loop
      vertex 17.2365 -10 14.8817
      vertex 17.1649 0 14.6613
      vertex 17.2365 0 14.8817
    endloop
  endfacet
  facet normal 0.951057 -1.01286e-07 -0.309016
    outer loop
      vertex 17.1649 0 14.6613
      vertex 17.2365 -10 14.8817
      vertex 17.0216 -10 14.2204
    endloop
  endfacet
  facet normal 0.587785 0 0.809017
    outer loop
      vertex 17.2365 0 13.1183
      vertex 17.9865 -10 12.5734
      vertex 17.9865 0 12.5734
    endloop
  endfacet
  facet normal 0.587785 0 0.809017
    outer loop
      vertex 17.9865 -10 12.5734
      vertex 17.2365 0 13.1183
      vertex 17.2365 -10 13.1183
    endloop
  endfacet
  facet normal 0 0 1
    outer loop
      vertex 18.3 0 12.5734
      vertex 17.9865 0 12.5734
      vertex 18.3 -1.5 12.5734
    endloop
  endfacet
  facet normal -0 0 1
    outer loop
      vertex 18.3 -1.5 12.5734
      vertex 18.9135 -10 12.5734
      vertex 18.9135 -1.5 12.5734
    endloop
  endfacet
  facet normal 0 0 1
    outer loop
      vertex 17.9865 -10 12.5734
      vertex 18.3 -1.5 12.5734
      vertex 17.9865 0 12.5734
    endloop
  endfacet
  facet normal 0 0 1
    outer loop
      vertex 18.3 -1.5 12.5734
      vertex 17.9865 -10 12.5734
      vertex 18.9135 -10 12.5734
    endloop
  endfacet
  facet normal -0.951056 0 0.309018
    outer loop
      vertex 19.7351 -10 13.3387
      vertex 19.6635 -1.5 13.1183
      vertex 19.6635 -10 13.1183
    endloop
  endfacet
  facet normal -0.951056 -1.21554e-08 0.309018
    outer loop
      vertex 19.6635 -1.5 13.1183
      vertex 19.7351 -10 13.3387
      vertex 19.8569 -1.5 13.7135
    endloop
  endfacet
  facet normal -0.951056 -5.24664e-08 0.309018
    outer loop
      vertex 19.95 -10 14
      vertex 19.8569 -1.5 13.7135
      vertex 19.7351 -10 13.3387
    endloop
  endfacet
  facet normal -0.951055 3.46712e-08 0.309021
    outer loop
      vertex 19.8569 -1.5 13.7135
      vertex 19.95 -10 14
      vertex 19.95 -1.5 14
    endloop
  endfacet
  facet normal 0 0 -1
    outer loop
      vertex 18.9135 -10 15.4266
      vertex 18.3 -1.5 15.4266
      vertex 18.9135 -1.5 15.4266
    endloop
  endfacet
  facet normal 0 0 -1
    outer loop
      vertex 17.9865 -10 15.4266
      vertex 18.3 -1.5 15.4266
      vertex 18.9135 -10 15.4266
    endloop
  endfacet
  facet normal 0 0 -1
    outer loop
      vertex 17.9865 0 15.4266
      vertex 18.3 -1.5 15.4266
      vertex 17.9865 -10 15.4266
    endloop
  endfacet
  facet normal 0 0 -1
    outer loop
      vertex 18.3 -1.5 15.4266
      vertex 17.9865 0 15.4266
      vertex 18.3 0 15.4266
    endloop
  endfacet
  facet normal 0.587785 0 -0.809017
    outer loop
      vertex 17.2365 -10 14.8817
      vertex 17.9865 0 15.4266
      vertex 17.9865 -10 15.4266
    endloop
  endfacet
  facet normal 0.587785 0 -0.809017
    outer loop
      vertex 17.9865 0 15.4266
      vertex 17.2365 -10 14.8817
      vertex 17.2365 0 14.8817
    endloop
  endfacet
  facet normal -0.951057 7.40254e-08 -0.309016
    outer loop
      vertex 29.3635 -10 14.8817
      vertex 29.4627 -1.92497 14.5764
      vertex 29.5784 -10 14.2204
    endloop
  endfacet
  facet normal -0.951056 0 -0.309018
    outer loop
      vertex 29.4627 -1.92497 14.5764
      vertex 29.3635 -10 14.8817
      vertex 29.3635 -1.93319 14.8817
    endloop
  endfacet
  facet normal -0.587785 0 -0.809017
    outer loop
      vertex 29.3635 -10 14.8817
      vertex 28.8045 -1.97951 15.2878
      vertex 29.3635 -1.93319 14.8817
    endloop
  endfacet
  facet normal -0.587785 -4.17256e-09 -0.809017
    outer loop
      vertex 28.6135 -10 15.4266
      vertex 28.8045 -1.97951 15.2878
      vertex 29.3635 -10 14.8817
    endloop
  endfacet
  facet normal -0.587785 0 -0.809017
    outer loop
      vertex 28.8045 -1.97951 15.2878
      vertex 28.6135 -10 15.4266
      vertex 28.6135 -1.93114 15.4266
    endloop
  endfacet
  facet normal -0.951056 -3.64257e-08 -0.309019
    outer loop
      vertex 29.5784 -10 14.2204
      vertex 29.65 -1.90945 14
      vertex 29.65 -10 14
    endloop
  endfacet
  facet normal -0.951057 6.69612e-08 -0.309016
    outer loop
      vertex 29.65 -1.90945 14
      vertex 29.5784 -10 14.2204
      vertex 29.4627 -1.92497 14.5764
    endloop
  endfacet
  facet normal 0.951057 3.46706e-08 0.309015
    outer loop
      vertex 26.65 -10 14
      vertex 26.7431 -1.5 13.7135
      vertex 26.65 -1.5 14
    endloop
  endfacet
  facet normal 0.951057 6.84666e-08 0.309016
    outer loop
      vertex 26.7431 -1.5 13.7135
      vertex 26.65 -10 14
      vertex 26.8649 -10 13.3387
    endloop
  endfacet
  facet normal 0.587785 -0 0.809017
    outer loop
      vertex 26.9365 -10 13.1183
      vertex 27.6865 -1.69638 12.5734
      vertex 26.9365 -1.50645 13.1183
    endloop
  endfacet
  facet normal 0.587785 0 0.809017
    outer loop
      vertex 27.6865 -1.69638 12.5734
      vertex 26.9365 -10 13.1183
      vertex 27.6865 -10 12.5734
    endloop
  endfacet
  facet normal 0.587785 0 -0.809017
    outer loop
      vertex 26.9365 -10 14.8817
      vertex 27.6865 -1.69638 15.4266
      vertex 27.6865 -10 15.4266
    endloop
  endfacet
  facet normal 0.587785 0 -0.809017
    outer loop
      vertex 27.6865 -1.69638 15.4266
      vertex 26.9365 -10 14.8817
      vertex 26.9365 -1.50645 14.8817
    endloop
  endfacet
  facet normal 0.951057 -2.57651e-06 -0.309015
    outer loop
      vertex 26.9365 -1.50645 14.8817
      vertex 26.8434 -1.5 14.5951
      vertex 26.911 -1.5 14.8033
    endloop
  endfacet
  facet normal 0.951057 0 -0.309015
    outer loop
      vertex 26.9365 -10 14.8817
      vertex 26.8434 -1.5 14.5951
      vertex 26.9365 -1.50645 14.8817
    endloop
  endfacet
  facet normal 0.951057 -3.37959e-08 -0.309016
    outer loop
      vertex 26.8434 -1.5 14.5951
      vertex 26.9365 -10 14.8817
      vertex 26.7216 -10 14.2204
    endloop
  endfacet
  facet normal 0.951056 2.49965e-08 -0.309017
    outer loop
      vertex 26.7216 -10 14.2204
      vertex 26.65 -1.5 14
      vertex 26.8434 -1.5 14.5951
    endloop
  endfacet
  facet normal 0.951056 -3.4671e-08 -0.309019
    outer loop
      vertex 26.65 -1.5 14
      vertex 26.7216 -10 14.2204
      vertex 26.65 -10 14
    endloop
  endfacet
  facet normal -0.587785 0 0.809017
    outer loop
      vertex 28.8045 -1.97951 12.7122
      vertex 29.3635 -10 13.1183
      vertex 29.3635 -1.93319 13.1183
    endloop
  endfacet
  facet normal -0.587785 0 0.809017
    outer loop
      vertex 28.6135 -10 12.5734
      vertex 28.8045 -1.97951 12.7122
      vertex 28.6135 -1.93114 12.5734
    endloop
  endfacet
  facet normal -0.587785 -4.17256e-09 0.809017
    outer loop
      vertex 28.8045 -1.97951 12.7122
      vertex 28.6135 -10 12.5734
      vertex 29.3635 -10 13.1183
    endloop
  endfacet
  facet normal -0.951056 0 0.309018
    outer loop
      vertex 29.4351 -10 13.3387
      vertex 29.3635 -1.93319 13.1183
      vertex 29.3635 -10 13.1183
    endloop
  endfacet
  facet normal -0.951057 -4.54811e-08 0.309017
    outer loop
      vertex 29.3635 -1.93319 13.1183
      vertex 29.4351 -10 13.3387
      vertex 29.5509 -1.91766 13.695
    endloop
  endfacet
  facet normal -0.951057 -1.75724e-08 0.309016
    outer loop
      vertex 29.65 -10 14
      vertex 29.5509 -1.91766 13.695
      vertex 29.4351 -10 13.3387
    endloop
  endfacet
  facet normal -0.951056 3.64254e-08 0.309017
    outer loop
      vertex 29.5509 -1.91766 13.695
      vertex 29.65 -10 14
      vertex 29.65 -1.90945 14
    endloop
  endfacet
  facet normal 0 0 1
    outer loop
      vertex 27.6865 -10 12.5734
      vertex 28.6135 -1.93114 12.5734
      vertex 27.6865 -1.69638 12.5734
    endloop
  endfacet
  facet normal 0 0 1
    outer loop
      vertex 28.6135 -1.93114 12.5734
      vertex 27.6865 -10 12.5734
      vertex 28.6135 -10 12.5734
    endloop
  endfacet
  facet normal 0.951056 -4.1788e-05 0.309018
    outer loop
      vertex 26.7431 -1.5 13.7135
      vertex 26.9365 -1.50645 13.1183
      vertex 26.911 -1.5 13.1967
    endloop
  endfacet
  facet normal 0.951056 -1.21612e-08 0.309018
    outer loop
      vertex 26.8649 -10 13.3387
      vertex 26.9365 -1.50645 13.1183
      vertex 26.7431 -1.5 13.7135
    endloop
  endfacet
  facet normal 0.951056 0 0.309018
    outer loop
      vertex 26.9365 -1.50645 13.1183
      vertex 26.8649 -10 13.3387
      vertex 26.9365 -10 13.1183
    endloop
  endfacet
  facet normal 0 0 -1
    outer loop
      vertex 27.6865 -10 15.4266
      vertex 28.6135 -1.93114 15.4266
      vertex 28.6135 -10 15.4266
    endloop
  endfacet
  facet normal -0 0 -1
    outer loop
      vertex 28.6135 -1.93114 15.4266
      vertex 27.6865 -10 15.4266
      vertex 27.6865 -1.69638 15.4266
    endloop
  endfacet
  facet normal -0.0825792 0.996585 0
    outer loop
      vertex 30.7729 -1.8164 20
      vertex 28.8045 -1.97951 15.2878
      vertex 28.8045 -1.97951 20
    endloop
  endfacet
  facet normal -0.0825791 0.996585 -4.12039e-08
    outer loop
      vertex 30.7729 -1.8164 20
      vertex 29.3635 -1.93319 14.8817
      vertex 28.8045 -1.97951 15.2878
    endloop
  endfacet
  facet normal -0.0825792 0.996585 -1.02344e-08
    outer loop
      vertex 30.7729 -1.8164 20
      vertex 29.4627 -1.92497 14.5764
      vertex 29.3635 -1.93319 14.8817
    endloop
  endfacet
  facet normal -0.0825793 0.996584 1.22451e-09
    outer loop
      vertex 30.7729 -1.8164 20
      vertex 29.65 -1.90945 14
      vertex 29.4627 -1.92497 14.5764
    endloop
  endfacet
  facet normal -0.0825791 0.996585 1.09227e-08
    outer loop
      vertex 30.7729 -1.8164 0
      vertex 29.5509 -1.91766 13.695
      vertex 29.65 -1.90945 14
    endloop
  endfacet
  facet normal -0.0825793 0.996584 0
    outer loop
      vertex 30.7729 -1.8164 0
      vertex 29.65 -1.90945 14
      vertex 30.7729 -1.8164 20
    endloop
  endfacet
  facet normal -0.0825793 0.996584 -5.28816e-09
    outer loop
      vertex 29.5509 -1.91766 13.695
      vertex 30.7729 -1.8164 0
      vertex 29.3635 -1.93319 13.1183
    endloop
  endfacet
  facet normal -0.0825791 0.996585 1.78957e-08
    outer loop
      vertex 30.7729 -1.8164 0
      vertex 28.8045 -1.97951 12.7122
      vertex 29.3635 -1.93319 13.1183
    endloop
  endfacet
  facet normal -0.0825792 0.996585 0
    outer loop
      vertex 28.8045 -1.97951 12.7122
      vertex 30.7729 -1.8164 0
      vertex 28.8045 -1.97951 0
    endloop
  endfacet
  facet normal 0.546948 0.837167 -0
    outer loop
      vertex 26.8898 -1.49464 0
      vertex 25.2363 -0.414343 12.5
      vertex 26.8898 -1.49464 12.5
    endloop
  endfacet
  facet normal 0.546948 0.837167 0
    outer loop
      vertex 25.2363 -0.414343 12.5
      vertex 26.8898 -1.49464 0
      vertex 25.2363 -0.414343 0
    endloop
  endfacet
  facet normal 0.546948 0.837167 -0
    outer loop
      vertex 26.8898 -1.49464 15.5
      vertex 25.2363 -0.414343 20
      vertex 26.8898 -1.49464 20
    endloop
  endfacet
  facet normal 0.546948 0.837167 0
    outer loop
      vertex 25.2363 -0.414343 20
      vertex 26.8898 -1.49464 15.5
      vertex 25.2363 -0.414343 15.5
    endloop
  endfacet
  facet normal -0.401695 0.915773 0
    outer loop
      vertex 32.5817 -1.023 0
      vertex 30.7729 -1.8164 20
      vertex 32.5817 -1.023 20
    endloop
  endfacet
  facet normal -0.401695 0.915773 0
    outer loop
      vertex 30.7729 -1.8164 20
      vertex 32.5817 -1.023 0
      vertex 30.7729 -1.8164 0
    endloop
  endfacet
  facet normal 0.245486 0.9694 1.91877e-09
    outer loop
      vertex 28.8045 -1.97951 0
      vertex 27.6865 -1.69638 12.5734
      vertex 28.6135 -1.93114 12.5734
    endloop
  endfacet
  facet normal 0.245485 0.9694 -0
    outer loop
      vertex 28.8045 -1.97951 0
      vertex 28.6135 -1.93114 12.5734
      vertex 28.8045 -1.97951 12.7122
    endloop
  endfacet
  facet normal 0.245486 0.9694 8.76711e-09
    outer loop
      vertex 27.6865 -1.69638 12.5734
      vertex 28.8045 -1.97951 0
      vertex 26.911 -1.5 12.5
    endloop
  endfacet
  facet normal 0.245486 0.9694 1.52458e-08
    outer loop
      vertex 26.8898 -1.49464 0
      vertex 26.911 -1.5 12.5
      vertex 28.8045 -1.97951 0
    endloop
  endfacet
  facet normal 0.245494 0.969398 0
    outer loop
      vertex 26.911 -1.5 12.5
      vertex 26.8898 -1.49464 0
      vertex 26.8898 -1.49464 12.5
    endloop
  endfacet
  facet normal 0.245489 0.969399 0
    outer loop
      vertex 26.9365 -1.50645 13.1183
      vertex 26.911 -1.5 12.5
      vertex 26.911 -1.5 13.1967
    endloop
  endfacet
  facet normal 0.245486 0.9694 1.30845e-07
    outer loop
      vertex 26.911 -1.5 12.5
      vertex 26.9365 -1.50645 13.1183
      vertex 27.6865 -1.69638 12.5734
    endloop
  endfacet
  facet normal 0.245486 0.9694 -3.45585e-08
    outer loop
      vertex 27.6865 -1.69638 15.4266
      vertex 26.8898 -1.49464 20
      vertex 28.8045 -1.97951 20
    endloop
  endfacet
  facet normal 0.245486 0.9694 -5.27517e-09
    outer loop
      vertex 27.6865 -1.69638 15.4266
      vertex 28.8045 -1.97951 20
      vertex 28.6135 -1.93114 15.4266
    endloop
  endfacet
  facet normal 0.245485 0.9694 0
    outer loop
      vertex 28.6135 -1.93114 15.4266
      vertex 28.8045 -1.97951 20
      vertex 28.8045 -1.97951 15.2878
    endloop
  endfacet
  facet normal 0.245494 0.969398 0
    outer loop
      vertex 26.8898 -1.49464 20
      vertex 26.911 -1.5 15.5
      vertex 26.8898 -1.49464 15.5
    endloop
  endfacet
  facet normal 0.245486 0.9694 -4.25658e-08
    outer loop
      vertex 26.8898 -1.49464 20
      vertex 27.6865 -1.69638 15.4266
      vertex 26.911 -1.5 15.5
    endloop
  endfacet
  facet normal 0.245486 0.9694 -1.30844e-07
    outer loop
      vertex 26.9365 -1.50645 14.8817
      vertex 26.911 -1.5 15.5
      vertex 27.6865 -1.69638 15.4266
    endloop
  endfacet
  facet normal 0.245489 0.969399 0
    outer loop
      vertex 26.911 -1.5 15.5
      vertex 26.9365 -1.50645 14.8817
      vertex 26.911 -1.5 14.8033
    endloop
  endfacet
  facet normal -0.677281 0.735724 0
    outer loop
      vertex 33.693 0 0
      vertex 32.5817 -1.023 20
      vertex 33.693 0 20
    endloop
  endfacet
  facet normal -0.677281 0.735724 0
    outer loop
      vertex 32.5817 -1.023 20
      vertex 33.693 0 0
      vertex 32.5817 -1.023 0
    endloop
  endfacet
  facet normal 0.789142 0.614211 0
    outer loop
      vertex 25.2363 -0.414343 20
      vertex 24.9138 0 15.5
      vertex 24.9138 0 20
    endloop
  endfacet
  facet normal 0.789142 0.614211 0
    outer loop
      vertex 24.9138 0 15.5
      vertex 25.2363 -0.414343 20
      vertex 25.2363 -0.414343 15.5
    endloop
  endfacet
  facet normal 0.789142 0.614211 0
    outer loop
      vertex 25.2363 -0.414343 12.5
      vertex 24.9138 0 0
      vertex 24.9138 0 12.5
    endloop
  endfacet
  facet normal 0.789142 0.614211 0
    outer loop
      vertex 24.9138 0 0
      vertex 25.2363 -0.414343 12.5
      vertex 25.2363 -0.414343 0
    endloop
  endfacet
  facet normal 1 -0 0
    outer loop
      vertex 18.3 -1.5 15.5
      vertex 18.3 0 15.4266
      vertex 18.3 0 15.5
    endloop
  endfacet
  facet normal 1 0 0
    outer loop
      vertex 18.3 0 15.4266
      vertex 18.3 -1.5 15.5
      vertex 18.3 -1.5 15.4266
    endloop
  endfacet
  facet normal 1 -0 0
    outer loop
      vertex 18.3 -1.5 12.5734
      vertex 18.3 0 12.5
      vertex 18.3 0 12.5734
    endloop
  endfacet
  facet normal 1 0 0
    outer loop
      vertex 18.3 0 12.5
      vertex 18.3 -1.5 12.5734
      vertex 18.3 -1.5 12.5
    endloop
  endfacet
  facet normal 0 0 -1
    outer loop
      vertex 18.3 -1.5 15.5
      vertex 26.8898 -1.49464 15.5
      vertex 26.911 -1.5 15.5
    endloop
  endfacet
  facet normal 0 0 -1
    outer loop
      vertex 18.3 -1.5 15.5
      vertex 25.2363 -0.414343 15.5
      vertex 26.8898 -1.49464 15.5
    endloop
  endfacet
  facet normal 0 0 -1
    outer loop
      vertex 18.3 -1.5 15.5
      vertex 24.9138 0 15.5
      vertex 25.2363 -0.414343 15.5
    endloop
  endfacet
  facet normal -0 0 -1
    outer loop
      vertex 24.9138 0 15.5
      vertex 18.3 -1.5 15.5
      vertex 18.3 0 15.5
    endloop
  endfacet
  facet normal 0 0 1
    outer loop
      vertex 18.3 -1.5 12.5
      vertex 24.9138 0 12.5
      vertex 18.3 0 12.5
    endloop
  endfacet
  facet normal 0 0 1
    outer loop
      vertex 24.9138 0 12.5
      vertex 18.3 -1.5 12.5
      vertex 25.2363 -0.414343 12.5
    endloop
  endfacet
  facet normal 0 0 1
    outer loop
      vertex 25.2363 -0.414343 12.5
      vertex 18.3 -1.5 12.5
      vertex 26.8898 -1.49464 12.5
    endloop
  endfacet
  facet normal 0 0 1
    outer loop
      vertex 26.8898 -1.49464 12.5
      vertex 18.3 -1.5 12.5
      vertex 26.911 -1.5 12.5
    endloop
  endfacet
  facet normal 0 1 0
    outer loop
      vertex 26.911 -1.5 15.5
      vertex 18.9135 -1.5 15.4266
      vertex 18.3 -1.5 15.5
    endloop
  endfacet
  facet normal 0 1 0
    outer loop
      vertex 26.911 -1.5 15.5
      vertex 19.6635 -1.5 14.8817
      vertex 18.9135 -1.5 15.4266
    endloop
  endfacet
  facet normal 0 1 0
    outer loop
      vertex 26.8434 -1.5 14.5951
      vertex 26.911 -1.5 15.5
      vertex 26.911 -1.5 14.8033
    endloop
  endfacet
  facet normal 0 1 0
    outer loop
      vertex 26.65 -1.5 14
      vertex 26.911 -1.5 15.5
      vertex 26.8434 -1.5 14.5951
    endloop
  endfacet
  facet normal 0 1 0
    outer loop
      vertex 26.911 -1.5 15.5
      vertex 19.7566 -1.5 14.5951
      vertex 19.6635 -1.5 14.8817
    endloop
  endfacet
  facet normal 0 1 0
    outer loop
      vertex 19.95 -1.5 14
      vertex 26.911 -1.5 15.5
      vertex 26.65 -1.5 14
    endloop
  endfacet
  facet normal 0 1 0
    outer loop
      vertex 26.911 -1.5 15.5
      vertex 19.95 -1.5 14
      vertex 19.7566 -1.5 14.5951
    endloop
  endfacet
  facet normal 0 1 0
    outer loop
      vertex 26.7431 -1.5 13.7135
      vertex 19.95 -1.5 14
      vertex 26.65 -1.5 14
    endloop
  endfacet
  facet normal 0 1 0
    outer loop
      vertex 26.7431 -1.5 13.7135
      vertex 19.8569 -1.5 13.7135
      vertex 19.95 -1.5 14
    endloop
  endfacet
  facet normal 0 1 -0
    outer loop
      vertex 26.911 -1.5 12.5
      vertex 26.7431 -1.5 13.7135
      vertex 26.911 -1.5 13.1967
    endloop
  endfacet
  facet normal 0 1 0
    outer loop
      vertex 26.7431 -1.5 13.7135
      vertex 26.911 -1.5 12.5
      vertex 19.8569 -1.5 13.7135
    endloop
  endfacet
  facet normal 0 1 0
    outer loop
      vertex 19.8569 -1.5 13.7135
      vertex 26.911 -1.5 12.5
      vertex 19.6635 -1.5 13.1183
    endloop
  endfacet
  facet normal 0 1 0
    outer loop
      vertex 19.6635 -1.5 13.1183
      vertex 26.911 -1.5 12.5
      vertex 18.9135 -1.5 12.5734
    endloop
  endfacet
  facet normal 0 1 0
    outer loop
      vertex 18.3 -1.5 12.5
      vertex 18.9135 -1.5 12.5734
      vertex 26.911 -1.5 12.5
    endloop
  endfacet
  facet normal 0 1 0
    outer loop
      vertex 18.9135 -1.5 12.5734
      vertex 18.3 -1.5 12.5
      vertex 18.3 -1.5 12.5734
    endloop
  endfacet
  facet normal 0 1 0
    outer loop
      vertex 18.3 -1.5 15.5
      vertex 18.9135 -1.5 15.4266
      vertex 18.3 -1.5 15.4266
    endloop
  endfacet
  facet normal 0.707107 -0 0.707107
    outer loop
      vertex 36.4289 -10 15
      vertex 47.3 0 4.12893
      vertex 36.4289 0 15
    endloop
  endfacet
  facet normal 0.707107 0 0.707107
    outer loop
      vertex 47.3 0 4.12893
      vertex 36.4289 -10 15
      vertex 47.3 -10 4.12893
    endloop
  endfacet
  facet normal 0.707056 0 0.707158
    outer loop
      vertex 36.3934 0 15.0355
      vertex 36.4 -10 15.0289
      vertex 36.4 0 15.0289
    endloop
  endfacet
  facet normal 0.707056 0 0.707158
    outer loop
      vertex 36.4 -10 15.0289
      vertex 36.3934 0 15.0355
      vertex 36.3934 -10 15.0355
    endloop
  endfacet
  facet normal 0.707056 0 -0.707158
    outer loop
      vertex 36.3934 -10 15.0355
      vertex 36.4 0 15.0421
      vertex 36.4 -10 15.0421
    endloop
  endfacet
  facet normal 0.707056 0 -0.707158
    outer loop
      vertex 36.4 0 15.0421
      vertex 36.3934 -10 15.0355
      vertex 36.3934 0 15.0355
    endloop
  endfacet
  facet normal 1 -0 0
    outer loop
      vertex 36.4 -10 20
      vertex 36.4 0 15.0421
      vertex 36.4 0 20
    endloop
  endfacet
  facet normal 1 0 0
    outer loop
      vertex 36.4 0 15.0421
      vertex 36.4 -10 20
      vertex 36.4 -10 15.0421
    endloop
  endfacet
  facet normal 1 -0 0
    outer loop
      vertex 36.4 -10 15.0289
      vertex 36.4 0 15
      vertex 36.4 0 15.0289
    endloop
  endfacet
  facet normal 1 0 0
    outer loop
      vertex 36.4 0 15
      vertex 36.4 -10 15.0289
      vertex 36.4 -10 15
    endloop
  endfacet
  facet normal -0 0 1
    outer loop
      vertex 36.4 0 15
      vertex 36.4289 -10 15
      vertex 36.4289 0 15
    endloop
  endfacet
  facet normal 0 0 1
    outer loop
      vertex 36.4289 -10 15
      vertex 36.4 0 15
      vertex 36.4 -10 15
    endloop
  endfacet
endsolid OpenSCAD_Model
